<svg xmlns="http://www.w3.org/2000/svg" viewBox="-6.000 -6.000 1012.000 1012.000" preserveAspectRatio="xMidYMid meet">
    <path d="M 875.056 500.000 L 874.015 503.142 L 872.971 506.283 L 871.923 509.424 L 870.871 512.565 L 869.816 515.705 L 868.757 518.845 L 867.694 521.984 L 866.628 525.122 L 865.558 528.259 L 864.484 531.395 L 863.407 534.530 L 862.327 537.663 L 861.242 540.795 L 860.155 543.926 L 859.063 547.054 L 857.968 550.181 L 856.870 553.306 L 855.768 556.428 L 854.662 559.549 L 853.553 562.667 L 852.441 565.782 L 851.325 568.895 L 850.206 572.005 L 849.083 575.113 L 847.956 578.217 L 846.827 581.319 L 845.693 584.417 L 844.557 587.512 L 843.417 590.603 L 842.274 593.691 L 841.127 596.775 L 839.977 599.855 L 838.823 602.931 L 837.666 606.004 L 836.506 609.072 L 835.343 612.135 L 834.176 615.195 L 833.006 618.249 L 831.833 621.300 L 830.656 624.345 L 829.476 627.385 L 828.293 630.421 L 827.106 633.451 L 825.917 636.476 L 824.724 639.496 L 823.528 642.510 L 822.329 645.518 L 821.126 648.521 L 819.921 651.518 L 818.712 654.508 L 817.500 657.493 L 816.285 660.472 L 815.067 663.444 L 813.846 666.410 L 812.621 669.369 L 811.394 672.321 L 810.163 675.267 L 808.930 678.206 L 807.693 681.138 L 806.454 684.062 L 805.211 686.980 L 803.965 689.890 L 802.716 692.792 L 801.465 695.687 L 800.210 698.574 L 798.952 701.453 L 797.692 704.325 L 796.428 707.188 L 795.162 710.043 L 793.893 712.890 L 792.620 715.728 L 791.345 718.558 L 790.067 721.379 L 788.786 724.192 L 787.503 726.995 L 786.216 729.790 L 784.927 732.576 L 783.634 735.352 L 782.339 738.119 L 781.042 740.877 L 779.741 743.625 L 778.438 746.364 L 777.132 749.093 L 775.823 751.812 L 774.511 754.521 L 773.197 757.220 L 771.880 759.909 L 770.561 762.587 L 769.238 765.256 L 767.913 767.913 L 766.586 770.561 L 765.256 773.197 L 763.923 775.823 L 762.587 778.438 L 761.249 781.042 L 759.909 783.634 L 758.565 786.216 L 757.220 788.786 L 755.872 791.345 L 754.521 793.893 L 753.167 796.428 L 751.812 798.952 L 750.453 801.465 L 749.093 803.965 L 747.729 806.454 L 746.364 808.930 L 744.996 811.394 L 743.625 813.846 L 742.252 816.285 L 740.877 818.712 L 739.499 821.126 L 738.119 823.528 L 736.737 825.917 L 735.352 828.293 L 733.965 830.656 L 732.576 833.006 L 731.184 835.343 L 729.790 837.666 L 728.394 839.977 L 726.995 842.274 L 725.595 844.557 L 724.192 846.827 L 722.786 849.083 L 721.379 851.325 L 719.970 853.553 L 718.558 855.768 L 717.144 857.968 L 715.728 860.155 L 714.310 862.327 L 712.890 864.484 L 711.467 866.628 L 710.043 868.757 L 708.616 870.871 L 707.188 872.971 L 705.757 875.056 L 704.325 877.126 L 702.890 879.181 L 701.453 881.221 L 700.015 883.247 L 698.574 885.257 L 697.131 887.252 L 695.687 889.231 L 694.240 891.195 L 692.792 893.144 L 691.342 895.078 L 689.890 896.995 L 688.436 898.897 L 686.980 900.783 L 685.522 902.654 L 684.062 904.508 L 682.601 906.347 L 681.138 908.170 L 679.673 909.976 L 678.206 911.766 L 676.737 913.540 L 675.267 915.298 L 673.795 917.039 L 672.321 918.764 L 670.846 920.472 L 669.369 922.164 L 667.890 923.839 L 666.410 925.497 L 664.928 927.139 L 663.444 928.763 L 661.959 930.371 L 660.472 931.962 L 658.983 933.535 L 657.493 935.092 L 656.002 936.631 L 654.508 938.153 L 653.014 939.658 L 651.518 941.146 L 650.020 942.616 L 648.521 944.068 L 647.020 945.503 L 645.518 946.921 L 644.015 948.321 L 642.510 949.703 L 641.003 951.067 L 639.496 952.414 L 637.986 953.742 L 636.476 955.053 L 634.964 956.346 L 633.451 957.621 L 631.937 958.877 L 630.421 960.116 L 628.904 961.336 L 627.385 962.539 L 625.866 963.723 L 624.345 964.888 L 622.823 966.036 L 621.300 967.164 L 619.775 968.275 L 618.249 969.367 L 616.723 970.440 L 615.195 971.495 L 613.666 972.532 L 612.135 973.549 L 610.604 974.548 L 609.072 975.528 L 607.538 976.490 L 606.004 977.432 L 604.468 978.356 L 602.931 979.261 L 601.394 980.147 L 599.855 981.014 L 598.315 981.862 L 596.775 982.691 L 595.233 983.501 L 593.691 984.292 L 592.147 985.063 L 590.603 985.816 L 589.058 986.549 L 587.512 987.263 L 585.965 987.958 L 584.417 988.634 L 582.868 989.290 L 581.319 989.928 L 579.768 990.545 L 578.217 991.144 L 576.665 991.723 L 575.113 992.282 L 573.559 992.822 L 572.005 993.343 L 570.451 993.844 L 568.895 994.326 L 567.339 994.788 L 565.782 995.231 L 564.225 995.654 L 562.667 996.057 L 561.108 996.441 L 559.549 996.806 L 557.989 997.150 L 556.428 997.476 L 554.867 997.781 L 553.306 998.067 L 551.743 998.333 L 550.181 998.579 L 548.618 998.806 L 547.054 999.013 L 545.490 999.201 L 543.926 999.368 L 542.361 999.516 L 540.795 999.645 L 539.230 999.753 L 537.663 999.842 L 536.097 999.911 L 534.530 999.961 L 532.963 999.990 L 531.395 1000.000 L 529.827 999.990 L 528.259 999.961 L 526.691 999.911 L 525.122 999.842 L 523.553 999.753 L 521.984 999.645 L 520.415 999.516 L 518.845 999.368 L 517.275 999.201 L 515.705 999.013 L 514.135 998.806 L 512.565 998.579 L 510.995 998.333 L 509.424 998.067 L 507.854 997.781 L 506.283 997.476 L 504.712 997.150 L 503.142 996.806 L 501.571 996.441 L 500.000 996.057 L 498.429 995.654 L 496.858 995.231 L 495.288 994.788 L 493.717 994.326 L 492.146 993.844 L 490.576 993.343 L 489.005 992.822 L 487.435 992.282 L 485.865 991.723 L 484.295 991.144 L 482.725 990.545 L 481.155 989.928 L 479.585 989.290 L 478.016 988.634 L 476.447 987.958 L 474.878 987.263 L 473.309 986.549 L 471.741 985.816 L 470.173 985.063 L 468.605 984.292 L 467.037 983.501 L 465.470 982.691 L 463.903 981.862 L 462.337 981.014 L 460.770 980.147 L 459.205 979.261 L 457.639 978.356 L 456.074 977.432 L 454.510 976.490 L 452.946 975.528 L 451.382 974.548 L 449.819 973.549 L 448.257 972.532 L 446.694 971.495 L 445.133 970.440 L 443.572 969.367 L 442.011 968.275 L 440.451 967.164 L 438.892 966.036 L 437.333 964.888 L 435.775 963.723 L 434.218 962.539 L 432.661 961.336 L 431.105 960.116 L 429.549 958.877 L 427.995 957.621 L 426.441 956.346 L 424.887 955.053 L 423.335 953.742 L 421.783 952.414 L 420.232 951.067 L 418.681 949.703 L 417.132 948.321 L 415.583 946.921 L 414.035 945.503 L 412.488 944.068 L 410.942 942.616 L 409.397 941.146 L 407.853 939.658 L 406.309 938.153 L 404.767 936.631 L 403.225 935.092 L 401.685 933.535 L 400.145 931.962 L 398.606 930.371 L 397.069 928.763 L 395.532 927.139 L 393.996 925.497 L 392.462 923.839 L 390.928 922.164 L 389.396 920.472 L 387.865 918.764 L 386.334 917.039 L 384.805 915.298 L 383.277 913.540 L 381.751 911.766 L 380.225 909.976 L 378.700 908.170 L 377.177 906.347 L 375.655 904.508 L 374.134 902.654 L 372.615 900.783 L 371.096 898.897 L 369.579 896.995 L 368.063 895.078 L 366.549 893.144 L 365.036 891.195 L 363.524 889.231 L 362.014 887.252 L 360.504 885.257 L 358.997 883.247 L 357.490 881.221 L 355.985 879.181 L 354.482 877.126 L 352.980 875.056 L 351.479 872.971 L 349.980 870.871 L 348.482 868.757 L 346.986 866.628 L 345.492 864.484 L 343.998 862.327 L 342.507 860.155 L 341.017 857.968 L 339.528 855.768 L 338.041 853.553 L 336.556 851.325 L 335.072 849.083 L 333.590 846.827 L 332.110 844.557 L 330.631 842.274 L 329.154 839.977 L 327.679 837.666 L 326.205 835.343 L 324.733 833.006 L 323.263 830.656 L 321.794 828.293 L 320.327 825.917 L 318.862 823.528 L 317.399 821.126 L 315.938 818.712 L 314.478 816.285 L 313.020 813.846 L 311.564 811.394 L 310.110 808.930 L 308.658 806.454 L 307.208 803.965 L 305.760 801.465 L 304.313 798.952 L 302.869 796.428 L 301.426 793.893 L 299.985 791.345 L 298.547 788.786 L 297.110 786.216 L 295.675 783.634 L 294.243 781.042 L 292.812 778.438 L 291.384 775.823 L 289.957 773.197 L 288.533 770.561 L 287.110 767.913 L 285.690 765.256 L 284.272 762.587 L 282.856 759.909 L 281.442 757.220 L 280.030 754.521 L 278.621 751.812 L 277.214 749.093 L 275.808 746.364 L 274.405 743.625 L 273.005 740.877 L 271.606 738.119 L 270.210 735.352 L 268.816 732.576 L 267.424 729.790 L 266.035 726.995 L 264.648 724.192 L 263.263 721.379 L 261.881 718.558 L 260.501 715.728 L 259.123 712.890 L 257.748 710.043 L 256.375 707.188 L 255.004 704.325 L 253.636 701.453 L 252.271 698.574 L 250.907 695.687 L 249.547 692.792 L 248.188 689.890 L 246.833 686.980 L 245.479 684.062 L 244.128 681.138 L 242.780 678.206 L 241.435 675.267 L 240.091 672.321 L 238.751 669.369 L 237.413 666.410 L 236.077 663.444 L 234.744 660.472 L 233.414 657.493 L 232.087 654.508 L 230.762 651.518 L 229.439 648.521 L 228.120 645.518 L 226.803 642.510 L 225.489 639.496 L 224.177 636.476 L 222.868 633.451 L 221.562 630.421 L 220.259 627.385 L 218.958 624.345 L 217.661 621.300 L 216.366 618.249 L 215.073 615.195 L 213.784 612.135 L 212.497 609.072 L 211.214 606.004 L 209.933 602.931 L 208.655 599.855 L 207.380 596.775 L 206.107 593.691 L 204.838 590.603 L 203.572 587.512 L 202.308 584.417 L 201.048 581.319 L 199.790 578.217 L 198.535 575.113 L 197.284 572.005 L 196.035 568.895 L 194.789 565.782 L 193.546 562.667 L 192.307 559.549 L 191.070 556.428 L 189.837 553.306 L 188.606 550.181 L 187.379 547.054 L 186.154 543.926 L 184.933 540.795 L 183.715 537.663 L 182.500 534.530 L 181.288 531.395 L 180.079 528.259 L 178.874 525.122 L 177.671 521.984 L 176.472 518.845 L 175.276 515.705 L 174.083 512.565 L 172.894 509.424 L 171.707 506.283 L 170.524 503.142 L 169.344 500.000 L 168.167 496.858 L 166.994 493.717 L 165.824 490.576 L 164.657 487.435 L 163.494 484.295 L 162.334 481.155 L 161.177 478.016 L 160.023 474.878 L 158.873 471.741 L 157.726 468.605 L 156.583 465.470 L 155.443 462.337 L 154.307 459.205 L 153.173 456.074 L 152.044 452.946 L 150.917 449.819 L 149.794 446.694 L 148.675 443.572 L 147.559 440.451 L 146.447 437.333 L 145.338 434.218 L 144.232 431.105 L 143.130 427.995 L 142.032 424.887 L 140.937 421.783 L 139.845 418.681 L 138.758 415.583 L 137.673 412.488 L 136.593 409.397 L 135.516 406.309 L 134.442 403.225 L 133.372 400.145 L 132.306 397.069 L 131.243 393.996 L 130.184 390.928 L 129.129 387.865 L 128.077 384.805 L 127.029 381.751 L 125.985 378.700 L 124.944 375.655 L 123.908 372.615 L 122.874 369.579 L 121.845 366.549 L 120.819 363.524 L 119.797 360.504 L 118.779 357.490 L 117.764 354.482 L 116.753 351.479 L 115.747 348.482 L 114.743 345.492 L 113.744 342.507 L 112.748 339.528 L 111.757 336.556 L 110.769 333.590 L 109.785 330.631 L 108.805 327.679 L 107.828 324.733 L 106.856 321.794 L 105.887 318.862 L 104.922 315.938 L 103.962 313.020 L 103.005 310.110 L 102.052 307.208 L 101.103 304.313 L 100.158 301.426 L 99.217 298.547 L 98.279 295.675 L 97.346 292.812 L 96.417 289.957 L 95.492 287.110 L 94.570 284.272 L 93.653 281.442 L 92.740 278.621 L 91.830 275.808 L 90.925 273.005 L 90.024 270.210 L 89.127 267.424 L 88.234 264.648 L 87.345 261.881 L 86.460 259.123 L 85.579 256.375 L 84.702 253.636 L 83.829 250.907 L 82.961 248.188 L 82.096 245.479 L 81.236 242.780 L 80.380 240.091 L 79.528 237.413 L 78.680 234.744 L 77.836 232.087 L 76.996 229.439 L 76.161 226.803 L 75.330 224.177 L 74.503 221.562 L 73.680 218.958 L 72.861 216.366 L 72.047 213.784 L 71.237 211.214 L 70.431 208.655 L 69.629 206.107 L 68.832 203.572 L 68.038 201.048 L 67.249 198.535 L 66.465 196.035 L 65.684 193.546 L 64.908 191.070 L 64.136 188.606 L 63.369 186.154 L 62.606 183.715 L 61.847 181.288 L 61.092 178.874 L 60.342 176.472 L 59.596 174.083 L 58.854 171.707 L 58.117 169.344 L 57.384 166.994 L 56.656 164.657 L 55.932 162.334 L 55.212 160.023 L 54.497 157.726 L 53.786 155.443 L 53.079 153.173 L 52.377 150.917 L 51.679 148.675 L 50.986 146.447 L 50.297 144.232 L 49.613 142.032 L 48.933 139.845 L 48.258 137.673 L 47.586 135.516 L 46.920 133.372 L 46.258 131.243 L 45.600 129.129 L 44.947 127.029 L 44.298 124.944 L 43.654 122.874 L 43.015 120.819 L 42.379 118.779 L 41.749 116.753 L 41.123 114.743 L 40.501 112.748 L 39.884 110.769 L 39.272 108.805 L 38.664 106.856 L 38.060 104.922 L 37.461 103.005 L 36.867 101.103 L 36.277 99.217 L 35.692 97.346 L 35.112 95.492 L 34.536 93.653 L 33.964 91.830 L 33.398 90.024 L 32.836 88.234 L 32.278 86.460 L 31.725 84.702 L 31.177 82.961 L 30.633 81.236 L 30.094 79.528 L 29.560 77.836 L 29.030 76.161 L 28.505 74.503 L 27.984 72.861 L 27.468 71.237 L 26.957 69.629 L 26.451 68.038 L 25.949 66.465 L 25.452 64.908 L 24.959 63.369 L 24.472 61.847 L 23.989 60.342 L 23.510 58.854 L 23.037 57.384 L 22.568 55.932 L 22.103 54.497 L 21.644 53.079 L 21.189 51.679 L 20.739 50.297 L 20.294 48.933 L 19.853 47.586 L 19.417 46.258 L 18.986 44.947 L 18.560 43.654 L 18.138 42.379 L 17.721 41.123 L 17.309 39.884 L 16.902 38.664 L 16.499 37.461 L 16.101 36.277 L 15.708 35.112 L 15.320 33.964 L 14.937 32.836 L 14.558 31.725 L 14.184 30.633 L 13.815 29.560 L 13.451 28.505 L 13.091 27.468 L 12.737 26.451 L 12.387 25.452 L 12.042 24.472 L 11.701 23.510 L 11.366 22.568 L 11.035 21.644 L 10.710 20.739 L 10.389 19.853 L 10.072 18.986 L 9.761 18.138 L 9.455 17.309 L 9.153 16.499 L 8.856 15.708 L 8.564 14.937 L 8.277 14.184 L 7.995 13.451 L 7.718 12.737 L 7.445 12.042 L 7.178 11.366 L 6.915 10.710 L 6.657 10.072 L 6.404 9.455 L 6.156 8.856 L 5.913 8.277 L 5.674 7.718 L 5.441 7.178 L 5.212 6.657 L 4.988 6.156 L 4.769 5.674 L 4.555 5.212 L 4.346 4.769 L 4.142 4.346 L 3.943 3.943 L 3.748 3.559 L 3.559 3.194 L 3.374 2.850 L 3.194 2.524 L 3.020 2.219 L 2.850 1.933 L 2.685 1.667 L 2.524 1.421 L 2.369 1.194 L 2.219 0.987 L 2.074 0.799 L 1.933 0.632 L 1.798 0.484 L 1.667 0.355 L 1.541 0.247 L 1.421 0.158 L 1.305 0.089 L 1.194 0.039 L 1.088 0.010 L 0.987 0.000 L 0.890 0.010 L 0.799 0.039 L 0.713 0.089 L 0.632 0.158 L 0.555 0.247 L 0.484 0.355 L 0.417 0.484 L 0.355 0.632 L 0.299 0.799 L 0.247 0.987 L 0.200 1.194 L 0.158 1.421 L 0.121 1.667 L 0.089 1.933 L 0.062 2.219 L 0.039 2.524 L 0.022 2.850 L 0.010 3.194 L 0.002 3.559 L 0.000 3.943 L 0.002 4.346 L 0.010 4.769 L 0.022 5.212 L 0.039 5.674 L 0.062 6.156 L 0.089 6.657 L 0.121 7.178 L 0.158 7.718 L 0.200 8.277 L 0.247 8.856 L 0.299 9.455 L 0.355 10.072 L 0.417 10.710 L 0.484 11.366 L 0.555 12.042 L 0.632 12.737 L 0.713 13.451 L 0.799 14.184 L 0.890 14.937 L 0.987 15.708 L 1.088 16.499 L 1.194 17.309 L 1.305 18.138 L 1.421 18.986 L 1.541 19.853 L 1.667 20.739 L 1.798 21.644 L 1.933 22.568 L 2.074 23.510 L 2.219 24.472 L 2.369 25.452 L 2.524 26.451 L 2.685 27.468 L 2.850 28.505 L 3.020 29.560 L 3.194 30.633 L 3.374 31.725 L 3.559 32.836 L 3.748 33.964 L 3.943 35.112 L 4.142 36.277 L 4.346 37.461 L 4.555 38.664 L 4.769 39.884 L 4.988 41.123 L 5.212 42.379 L 5.441 43.654 L 5.674 44.947 L 5.913 46.258 L 6.156 47.586 L 6.404 48.933 L 6.657 50.297 L 6.915 51.679 L 7.178 53.079 L 7.445 54.497 L 7.718 55.932 L 7.995 57.384 L 8.277 58.854 L 8.564 60.342 L 8.856 61.847 L 9.153 63.369 L 9.455 64.908 L 9.761 66.465 L 10.072 68.038 L 10.389 69.629 L 10.710 71.237 L 11.035 72.861 L 11.366 74.503 L 11.701 76.161 L 12.042 77.836 L 12.387 79.528 L 12.737 81.236 L 13.091 82.961 L 13.451 84.702 L 13.815 86.460 L 14.184 88.234 L 14.558 90.024 L 14.937 91.830 L 15.320 93.653 L 15.708 95.492 L 16.101 97.346 L 16.499 99.217 L 16.902 101.103 L 17.309 103.005 L 17.721 104.922 L 18.138 106.856 L 18.560 108.805 L 18.986 110.769 L 19.417 112.748 L 19.853 114.743 L 20.294 116.753 L 20.739 118.779 L 21.189 120.819 L 21.644 122.874 L 22.103 124.944 L 22.568 127.029 L 23.037 129.129 L 23.510 131.243 L 23.989 133.372 L 24.472 135.516 L 24.959 137.673 L 25.452 139.845 L 25.949 142.032 L 26.451 144.232 L 26.957 146.447 L 27.468 148.675 L 27.984 150.917 L 28.505 153.173 L 29.030 155.443 L 29.560 157.726 L 30.094 160.023 L 30.633 162.334 L 31.177 164.657 L 31.725 166.994 L 32.278 169.344 L 32.836 171.707 L 33.398 174.083 L 33.964 176.472 L 34.536 178.874 L 35.112 181.288 L 35.692 183.715 L 36.277 186.154 L 36.867 188.606 L 37.461 191.070 L 38.060 193.546 L 38.664 196.035 L 39.272 198.535 L 39.884 201.048 L 40.501 203.572 L 41.123 206.107 L 41.749 208.655 L 42.379 211.214 L 43.015 213.784 L 43.654 216.366 L 44.298 218.958 L 44.947 221.562 L 45.600 224.177 L 46.258 226.803 L 46.920 229.439 L 47.586 232.087 L 48.258 234.744 L 48.933 237.413 L 49.613 240.091 L 50.297 242.780 L 50.986 245.479 L 51.679 248.188 L 52.377 250.907 L 53.079 253.636 L 53.786 256.375 L 54.497 259.123 L 55.212 261.881 L 55.932 264.648 L 56.656 267.424 L 57.384 270.210 L 58.117 273.005 L 58.854 275.808 L 59.596 278.621 L 60.342 281.442 L 61.092 284.272 L 61.847 287.110 L 62.606 289.957 L 63.369 292.812 L 64.136 295.675 L 64.908 298.547 L 65.684 301.426 L 66.465 304.313 L 67.249 307.208 L 68.038 310.110 L 68.832 313.020 L 69.629 315.938 L 70.431 318.862 L 71.237 321.794 L 72.047 324.733 L 72.861 327.679 L 73.680 330.631 L 74.503 333.590 L 75.330 336.556 L 76.161 339.528 L 76.996 342.507 L 77.836 345.492 L 78.680 348.482 L 79.528 351.479 L 80.380 354.482 L 81.236 357.490 L 82.096 360.504 L 82.961 363.524 L 83.829 366.549 L 84.702 369.579 L 85.579 372.615 L 86.460 375.655 L 87.345 378.700 L 88.234 381.751 L 89.127 384.805 L 90.024 387.865 L 90.925 390.928 L 91.830 393.996 L 92.740 397.069 L 93.653 400.145 L 94.570 403.225 L 95.492 406.309 L 96.417 409.397 L 97.346 412.488 L 98.279 415.583 L 99.217 418.681 L 100.158 421.783 L 101.103 424.887 L 102.052 427.995 L 103.005 431.105 L 103.962 434.218 L 104.922 437.333 L 105.887 440.451 L 106.856 443.572 L 107.828 446.694 L 108.805 449.819 L 109.785 452.946 L 110.769 456.074 L 111.757 459.205 L 112.748 462.337 L 113.744 465.470 L 114.743 468.605 L 115.747 471.741 L 116.753 474.878 L 117.764 478.016 L 118.779 481.155 L 119.797 484.295 L 120.819 487.435 L 121.845 490.576 L 122.874 493.717 L 123.908 496.858 L 124.944 500.000 L 125.985 503.142 L 127.029 506.283 L 128.077 509.424 L 129.129 512.565 L 130.184 515.705 L 131.243 518.845 L 132.306 521.984 L 133.372 525.122 L 134.442 528.259 L 135.516 531.395 L 136.593 534.530 L 137.673 537.663 L 138.758 540.795 L 139.845 543.926 L 140.937 547.054 L 142.032 550.181 L 143.130 553.306 L 144.232 556.428 L 145.338 559.549 L 146.447 562.667 L 147.559 565.782 L 148.675 568.895 L 149.794 572.005 L 150.917 575.113 L 152.044 578.217 L 153.173 581.319 L 154.307 584.417 L 155.443 587.512 L 156.583 590.603 L 157.726 593.691 L 158.873 596.775 L 160.023 599.855 L 161.177 602.931 L 162.334 606.004 L 163.494 609.072 L 164.657 612.135 L 165.824 615.195 L 166.994 618.249 L 168.167 621.300 L 169.344 624.345 L 170.524 627.385 L 171.707 630.421 L 172.894 633.451 L 174.083 636.476 L 175.276 639.496 L 176.472 642.510 L 177.671 645.518 L 178.874 648.521 L 180.079 651.518 L 181.288 654.508 L 182.500 657.493 L 183.715 660.472 L 184.933 663.444 L 186.154 666.410 L 187.379 669.369 L 188.606 672.321 L 189.837 675.267 L 191.070 678.206 L 192.307 681.138 L 193.546 684.062 L 194.789 686.980 L 196.035 689.890 L 197.284 692.792 L 198.535 695.687 L 199.790 698.574 L 201.048 701.453 L 202.308 704.325 L 203.572 707.188 L 204.838 710.043 L 206.107 712.890 L 207.380 715.728 L 208.655 718.558 L 209.933 721.379 L 211.214 724.192 L 212.497 726.995 L 213.784 729.790 L 215.073 732.576 L 216.366 735.352 L 217.661 738.119 L 218.958 740.877 L 220.259 743.625 L 221.562 746.364 L 222.868 749.093 L 224.177 751.812 L 225.489 754.521 L 226.803 757.220 L 228.120 759.909 L 229.439 762.587 L 230.762 765.256 L 232.087 767.913 L 233.414 770.561 L 234.744 773.197 L 236.077 775.823 L 237.413 778.438 L 238.751 781.042 L 240.091 783.634 L 241.435 786.216 L 242.780 788.786 L 244.128 791.345 L 245.479 793.893 L 246.833 796.428 L 248.188 798.952 L 249.547 801.465 L 250.907 803.965 L 252.271 806.454 L 253.636 808.930 L 255.004 811.394 L 256.375 813.846 L 257.748 816.285 L 259.123 818.712 L 260.501 821.126 L 261.881 823.528 L 263.263 825.917 L 264.648 828.293 L 266.035 830.656 L 267.424 833.006 L 268.816 835.343 L 270.210 837.666 L 271.606 839.977 L 273.005 842.274 L 274.405 844.557 L 275.808 846.827 L 277.214 849.083 L 278.621 851.325 L 280.030 853.553 L 281.442 855.768 L 282.856 857.968 L 284.272 860.155 L 285.690 862.327 L 287.110 864.484 L 288.533 866.628 L 289.957 868.757 L 291.384 870.871 L 292.812 872.971 L 294.243 875.056 L 295.675 877.126 L 297.110 879.181 L 298.547 881.221 L 299.985 883.247 L 301.426 885.257 L 302.869 887.252 L 304.313 889.231 L 305.760 891.195 L 307.208 893.144 L 308.658 895.078 L 310.110 896.995 L 311.564 898.897 L 313.020 900.783 L 314.478 902.654 L 315.938 904.508 L 317.399 906.347 L 318.862 908.170 L 320.327 909.976 L 321.794 911.766 L 323.263 913.540 L 324.733 915.298 L 326.205 917.039 L 327.679 918.764 L 329.154 920.472 L 330.631 922.164 L 332.110 923.839 L 333.590 925.497 L 335.072 927.139 L 336.556 928.763 L 338.041 930.371 L 339.528 931.962 L 341.017 933.535 L 342.507 935.092 L 343.998 936.631 L 345.492 938.153 L 346.986 939.658 L 348.482 941.146 L 349.980 942.616 L 351.479 944.068 L 352.980 945.503 L 354.482 946.921 L 355.985 948.321 L 357.490 949.703 L 358.997 951.067 L 360.504 952.414 L 362.014 953.742 L 363.524 955.053 L 365.036 956.346 L 366.549 957.621 L 368.063 958.877 L 369.579 960.116 L 371.096 961.336 L 372.615 962.539 L 374.134 963.723 L 375.655 964.888 L 377.177 966.036 L 378.700 967.164 L 380.225 968.275 L 381.751 969.367 L 383.277 970.440 L 384.805 971.495 L 386.334 972.532 L 387.865 973.549 L 389.396 974.548 L 390.928 975.528 L 392.462 976.490 L 393.996 977.432 L 395.532 978.356 L 397.069 979.261 L 398.606 980.147 L 400.145 981.014 L 401.685 981.862 L 403.225 982.691 L 404.767 983.501 L 406.309 984.292 L 407.853 985.063 L 409.397 985.816 L 410.942 986.549 L 412.488 987.263 L 414.035 987.958 L 415.583 988.634 L 417.132 989.290 L 418.681 989.928 L 420.232 990.545 L 421.783 991.144 L 423.335 991.723 L 424.887 992.282 L 426.441 992.822 L 427.995 993.343 L 429.549 993.844 L 431.105 994.326 L 432.661 994.788 L 434.218 995.231 L 435.775 995.654 L 437.333 996.057 L 438.892 996.441 L 440.451 996.806 L 442.011 997.150 L 443.572 997.476 L 445.133 997.781 L 446.694 998.067 L 448.257 998.333 L 449.819 998.579 L 451.382 998.806 L 452.946 999.013 L 454.510 999.201 L 456.074 999.368 L 457.639 999.516 L 459.205 999.645 L 460.770 999.753 L 462.337 999.842 L 463.903 999.911 L 465.470 999.961 L 467.037 999.990 L 468.605 1000.000 L 470.173 999.990 L 471.741 999.961 L 473.309 999.911 L 474.878 999.842 L 476.447 999.753 L 478.016 999.645 L 479.585 999.516 L 481.155 999.368 L 482.725 999.201 L 484.295 999.013 L 485.865 998.806 L 487.435 998.579 L 489.005 998.333 L 490.576 998.067 L 492.146 997.781 L 493.717 997.476 L 495.288 997.150 L 496.858 996.806 L 498.429 996.441 L 500.000 996.057 L 501.571 995.654 L 503.142 995.231 L 504.712 994.788 L 506.283 994.326 L 507.854 993.844 L 509.424 993.343 L 510.995 992.822 L 512.565 992.282 L 514.135 991.723 L 515.705 991.144 L 517.275 990.545 L 518.845 989.928 L 520.415 989.290 L 521.984 988.634 L 523.553 987.958 L 525.122 987.263 L 526.691 986.549 L 528.259 985.816 L 529.827 985.063 L 531.395 984.292 L 532.963 983.501 L 534.530 982.691 L 536.097 981.862 L 537.663 981.014 L 539.230 980.147 L 540.795 979.261 L 542.361 978.356 L 543.926 977.432 L 545.490 976.490 L 547.054 975.528 L 548.618 974.548 L 550.181 973.549 L 551.743 972.532 L 553.306 971.495 L 554.867 970.440 L 556.428 969.367 L 557.989 968.275 L 559.549 967.164 L 561.108 966.036 L 562.667 964.888 L 564.225 963.723 L 565.782 962.539 L 567.339 961.336 L 568.895 960.116 L 570.451 958.877 L 572.005 957.621 L 573.559 956.346 L 575.113 955.053 L 576.665 953.742 L 578.217 952.414 L 579.768 951.067 L 581.319 949.703 L 582.868 948.321 L 584.417 946.921 L 585.965 945.503 L 587.512 944.068 L 589.058 942.616 L 590.603 941.146 L 592.147 939.658 L 593.691 938.153 L 595.233 936.631 L 596.775 935.092 L 598.315 933.535 L 599.855 931.962 L 601.394 930.371 L 602.931 928.763 L 604.468 927.139 L 606.004 925.497 L 607.538 923.839 L 609.072 922.164 L 610.604 920.472 L 612.135 918.764 L 613.666 917.039 L 615.195 915.298 L 616.723 913.540 L 618.249 911.766 L 619.775 909.976 L 621.300 908.170 L 622.823 906.347 L 624.345 904.508 L 625.866 902.654 L 627.385 900.783 L 628.904 898.897 L 630.421 896.995 L 631.937 895.078 L 633.451 893.144 L 634.964 891.195 L 636.476 889.231 L 637.986 887.252 L 639.496 885.257 L 641.003 883.247 L 642.510 881.221 L 644.015 879.181 L 645.518 877.126 L 647.020 875.056 L 648.521 872.971 L 650.020 870.871 L 651.518 868.757 L 653.014 866.628 L 654.508 864.484 L 656.002 862.327 L 657.493 860.155 L 658.983 857.968 L 660.472 855.768 L 661.959 853.553 L 663.444 851.325 L 664.928 849.083 L 666.410 846.827 L 667.890 844.557 L 669.369 842.274 L 670.846 839.977 L 672.321 837.666 L 673.795 835.343 L 675.267 833.006 L 676.737 830.656 L 678.206 828.293 L 679.673 825.917 L 681.138 823.528 L 682.601 821.126 L 684.062 818.712 L 685.522 816.285 L 686.980 813.846 L 688.436 811.394 L 689.890 808.930 L 691.342 806.454 L 692.792 803.965 L 694.240 801.465 L 695.687 798.952 L 697.131 796.428 L 698.574 793.893 L 700.015 791.345 L 701.453 788.786 L 702.890 786.216 L 704.325 783.634 L 705.757 781.042 L 707.188 778.438 L 708.616 775.823 L 710.043 773.197 L 711.467 770.561 L 712.890 767.913 L 714.310 765.256 L 715.728 762.587 L 717.144 759.909 L 718.558 757.220 L 719.970 754.521 L 721.379 751.812 L 722.786 749.093 L 724.192 746.364 L 725.595 743.625 L 726.995 740.877 L 728.394 738.119 L 729.790 735.352 L 731.184 732.576 L 732.576 729.790 L 733.965 726.995 L 735.352 724.192 L 736.737 721.379 L 738.119 718.558 L 739.499 715.728 L 740.877 712.890 L 742.252 710.043 L 743.625 707.188 L 744.996 704.325 L 746.364 701.453 L 747.729 698.574 L 749.093 695.687 L 750.453 692.792 L 751.812 689.890 L 753.167 686.980 L 754.521 684.062 L 755.872 681.138 L 757.220 678.206 L 758.565 675.267 L 759.909 672.321 L 761.249 669.369 L 762.587 666.410 L 763.923 663.444 L 765.256 660.472 L 766.586 657.493 L 767.913 654.508 L 769.238 651.518 L 770.561 648.521 L 771.880 645.518 L 773.197 642.510 L 774.511 639.496 L 775.823 636.476 L 777.132 633.451 L 778.438 630.421 L 779.741 627.385 L 781.042 624.345 L 782.339 621.300 L 783.634 618.249 L 784.927 615.195 L 786.216 612.135 L 787.503 609.072 L 788.786 606.004 L 790.067 602.931 L 791.345 599.855 L 792.620 596.775 L 793.893 593.691 L 795.162 590.603 L 796.428 587.512 L 797.692 584.417 L 798.952 581.319 L 800.210 578.217 L 801.465 575.113 L 802.716 572.005 L 803.965 568.895 L 805.211 565.782 L 806.454 562.667 L 807.693 559.549 L 808.930 556.428 L 810.163 553.306 L 811.394 550.181 L 812.621 547.054 L 813.846 543.926 L 815.067 540.795 L 816.285 537.663 L 817.500 534.530 L 818.712 531.395 L 819.921 528.259 L 821.126 525.122 L 822.329 521.984 L 823.528 518.845 L 824.724 515.705 L 825.917 512.565 L 827.106 509.424 L 828.293 506.283 L 829.476 503.142 L 830.656 500.000 L 831.833 496.858 L 833.006 493.717 L 834.176 490.576 L 835.343 487.435 L 836.506 484.295 L 837.666 481.155 L 838.823 478.016 L 839.977 474.878 L 841.127 471.741 L 842.274 468.605 L 843.417 465.470 L 844.557 462.337 L 845.693 459.205 L 846.827 456.074 L 847.956 452.946 L 849.083 449.819 L 850.206 446.694 L 851.325 443.572 L 852.441 440.451 L 853.553 437.333 L 854.662 434.218 L 855.768 431.105 L 856.870 427.995 L 857.968 424.887 L 859.063 421.783 L 860.155 418.681 L 861.242 415.583 L 862.327 412.488 L 863.407 409.397 L 864.484 406.309 L 865.558 403.225 L 866.628 400.145 L 867.694 397.069 L 868.757 393.996 L 869.816 390.928 L 870.871 387.865 L 871.923 384.805 L 872.971 381.751 L 874.015 378.700 L 875.056 375.655 L 876.092 372.615 L 877.126 369.579 L 878.155 366.549 L 879.181 363.524 L 880.203 360.504 L 881.221 357.490 L 882.236 354.482 L 883.247 351.479 L 884.253 348.482 L 885.257 345.492 L 886.256 342.507 L 887.252 339.528 L 888.243 336.556 L 889.231 333.590 L 890.215 330.631 L 891.195 327.679 L 892.172 324.733 L 893.144 321.794 L 894.113 318.862 L 895.078 315.938 L 896.038 313.020 L 896.995 310.110 L 897.948 307.208 L 898.897 304.313 L 899.842 301.426 L 900.783 298.547 L 901.721 295.675 L 902.654 292.812 L 903.583 289.957 L 904.508 287.110 L 905.430 284.272 L 906.347 281.442 L 907.260 278.621 L 908.170 275.808 L 909.075 273.005 L 909.976 270.210 L 910.873 267.424 L 911.766 264.648 L 912.655 261.881 L 913.540 259.123 L 914.421 256.375 L 915.298 253.636 L 916.171 250.907 L 917.039 248.188 L 917.904 245.479 L 918.764 242.780 L 919.620 240.091 L 920.472 237.413 L 921.320 234.744 L 922.164 232.087 L 923.004 229.439 L 923.839 226.803 L 924.670 224.177 L 925.497 221.562 L 926.320 218.958 L 927.139 216.366 L 927.953 213.784 L 928.763 211.214 L 929.569 208.655 L 930.371 206.107 L 931.168 203.572 L 931.962 201.048 L 932.751 198.535 L 933.535 196.035 L 934.316 193.546 L 935.092 191.070 L 935.864 188.606 L 936.631 186.154 L 937.394 183.715 L 938.153 181.288 L 938.908 178.874 L 939.658 176.472 L 940.404 174.083 L 941.146 171.707 L 941.883 169.344 L 942.616 166.994 L 943.344 164.657 L 944.068 162.334 L 944.788 160.023 L 945.503 157.726 L 946.214 155.443 L 946.921 153.173 L 947.623 150.917 L 948.321 148.675 L 949.014 146.447 L 949.703 144.232 L 950.387 142.032 L 951.067 139.845 L 951.742 137.673 L 952.414 135.516 L 953.080 133.372 L 953.742 131.243 L 954.400 129.129 L 955.053 127.029 L 955.702 124.944 L 956.346 122.874 L 956.985 120.819 L 957.621 118.779 L 958.251 116.753 L 958.877 114.743 L 959.499 112.748 L 960.116 110.769 L 960.728 108.805 L 961.336 106.856 L 961.940 104.922 L 962.539 103.005 L 963.133 101.103 L 963.723 99.217 L 964.308 97.346 L 964.888 95.492 L 965.464 93.653 L 966.036 91.830 L 966.602 90.024 L 967.164 88.234 L 967.722 86.460 L 968.275 84.702 L 968.823 82.961 L 969.367 81.236 L 969.906 79.528 L 970.440 77.836 L 970.970 76.161 L 971.495 74.503 L 972.016 72.861 L 972.532 71.237 L 973.043 69.629 L 973.549 68.038 L 974.051 66.465 L 974.548 64.908 L 975.041 63.369 L 975.528 61.847 L 976.011 60.342 L 976.490 58.854 L 976.963 57.384 L 977.432 55.932 L 977.897 54.497 L 978.356 53.079 L 978.811 51.679 L 979.261 50.297 L 979.706 48.933 L 980.147 47.586 L 980.583 46.258 L 981.014 44.947 L 981.440 43.654 L 981.862 42.379 L 982.279 41.123 L 982.691 39.884 L 983.098 38.664 L 983.501 37.461 L 983.899 36.277 L 984.292 35.112 L 984.680 33.964 L 985.063 32.836 L 985.442 31.725 L 985.816 30.633 L 986.185 29.560 L 986.549 28.505 L 986.909 27.468 L 987.263 26.451 L 987.613 25.452 L 987.958 24.472 L 988.299 23.510 L 988.634 22.568 L 988.965 21.644 L 989.290 20.739 L 989.611 19.853 L 989.928 18.986 L 990.239 18.138 L 990.545 17.309 L 990.847 16.499 L 991.144 15.708 L 991.436 14.937 L 991.723 14.184 L 992.005 13.451 L 992.282 12.737 L 992.555 12.042 L 992.822 11.366 L 993.085 10.710 L 993.343 10.072 L 993.596 9.455 L 993.844 8.856 L 994.087 8.277 L 994.326 7.718 L 994.559 7.178 L 994.788 6.657 L 995.012 6.156 L 995.231 5.674 L 995.445 5.212 L 995.654 4.769 L 995.858 4.346 L 996.057 3.943 L 996.252 3.559 L 996.441 3.194 L 996.626 2.850 L 996.806 2.524 L 996.980 2.219 L 997.150 1.933 L 997.315 1.667 L 997.476 1.421 L 997.631 1.194 L 997.781 0.987 L 997.926 0.799 L 998.067 0.632 L 998.202 0.484 L 998.333 0.355 L 998.459 0.247 L 998.579 0.158 L 998.695 0.089 L 998.806 0.039 L 998.912 0.010 L 999.013 0.000 L 999.110 0.010 L 999.201 0.039 L 999.287 0.089 L 999.368 0.158 L 999.445 0.247 L 999.516 0.355 L 999.583 0.484 L 999.645 0.632 L 999.701 0.799 L 999.753 0.987 L 999.800 1.194 L 999.842 1.421 L 999.879 1.667 L 999.911 1.933 L 999.938 2.219 L 999.961 2.524 L 999.978 2.850 L 999.990 3.194 L 999.998 3.559 L 1000.000 3.943 L 999.998 4.346 L 999.990 4.769 L 999.978 5.212 L 999.961 5.674 L 999.938 6.156 L 999.911 6.657 L 999.879 7.178 L 999.842 7.718 L 999.800 8.277 L 999.753 8.856 L 999.701 9.455 L 999.645 10.072 L 999.583 10.710 L 999.516 11.366 L 999.445 12.042 L 999.368 12.737 L 999.287 13.451 L 999.201 14.184 L 999.110 14.937 L 999.013 15.708 L 998.912 16.499 L 998.806 17.309 L 998.695 18.138 L 998.579 18.986 L 998.459 19.853 L 998.333 20.739 L 998.202 21.644 L 998.067 22.568 L 997.926 23.510 L 997.781 24.472 L 997.631 25.452 L 997.476 26.451 L 997.315 27.468 L 997.150 28.505 L 996.980 29.560 L 996.806 30.633 L 996.626 31.725 L 996.441 32.836 L 996.252 33.964 L 996.057 35.112 L 995.858 36.277 L 995.654 37.461 L 995.445 38.664 L 995.231 39.884 L 995.012 41.123 L 994.788 42.379 L 994.559 43.654 L 994.326 44.947 L 994.087 46.258 L 993.844 47.586 L 993.596 48.933 L 993.343 50.297 L 993.085 51.679 L 992.822 53.079 L 992.555 54.497 L 992.282 55.932 L 992.005 57.384 L 991.723 58.854 L 991.436 60.342 L 991.144 61.847 L 990.847 63.369 L 990.545 64.908 L 990.239 66.465 L 989.928 68.038 L 989.611 69.629 L 989.290 71.237 L 988.965 72.861 L 988.634 74.503 L 988.299 76.161 L 987.958 77.836 L 987.613 79.528 L 987.263 81.236 L 986.909 82.961 L 986.549 84.702 L 986.185 86.460 L 985.816 88.234 L 985.442 90.024 L 985.063 91.830 L 984.680 93.653 L 984.292 95.492 L 983.899 97.346 L 983.501 99.217 L 983.098 101.103 L 982.691 103.005 L 982.279 104.922 L 981.862 106.856 L 981.440 108.805 L 981.014 110.769 L 980.583 112.748 L 980.147 114.743 L 979.706 116.753 L 979.261 118.779 L 978.811 120.819 L 978.356 122.874 L 977.897 124.944 L 977.432 127.029 L 976.963 129.129 L 976.490 131.243 L 976.011 133.372 L 975.528 135.516 L 975.041 137.673 L 974.548 139.845 L 974.051 142.032 L 973.549 144.232 L 973.043 146.447 L 972.532 148.675 L 972.016 150.917 L 971.495 153.173 L 970.970 155.443 L 970.440 157.726 L 969.906 160.023 L 969.367 162.334 L 968.823 164.657 L 968.275 166.994 L 967.722 169.344 L 967.164 171.707 L 966.602 174.083 L 966.036 176.472 L 965.464 178.874 L 964.888 181.288 L 964.308 183.715 L 963.723 186.154 L 963.133 188.606 L 962.539 191.070 L 961.940 193.546 L 961.336 196.035 L 960.728 198.535 L 960.116 201.048 L 959.499 203.572 L 958.877 206.107 L 958.251 208.655 L 957.621 211.214 L 956.985 213.784 L 956.346 216.366 L 955.702 218.958 L 955.053 221.562 L 954.400 224.177 L 953.742 226.803 L 953.080 229.439 L 952.414 232.087 L 951.742 234.744 L 951.067 237.413 L 950.387 240.091 L 949.703 242.780 L 949.014 245.479 L 948.321 248.188 L 947.623 250.907 L 946.921 253.636 L 946.214 256.375 L 945.503 259.123 L 944.788 261.881 L 944.068 264.648 L 943.344 267.424 L 942.616 270.210 L 941.883 273.005 L 941.146 275.808 L 940.404 278.621 L 939.658 281.442 L 938.908 284.272 L 938.153 287.110 L 937.394 289.957 L 936.631 292.812 L 935.864 295.675 L 935.092 298.547 L 934.316 301.426 L 933.535 304.313 L 932.751 307.208 L 931.962 310.110 L 931.168 313.020 L 930.371 315.938 L 929.569 318.862 L 928.763 321.794 L 927.953 324.733 L 927.139 327.679 L 926.320 330.631 L 925.497 333.590 L 924.670 336.556 L 923.839 339.528 L 923.004 342.507 L 922.164 345.492 L 921.320 348.482 L 920.472 351.479 L 919.620 354.482 L 918.764 357.490 L 917.904 360.504 L 917.039 363.524 L 916.171 366.549 L 915.298 369.579 L 914.421 372.615 L 913.540 375.655 L 912.655 378.700 L 911.766 381.751 L 910.873 384.805 L 909.976 387.865 L 909.075 390.928 L 908.170 393.996 L 907.260 397.069 L 906.347 400.145 L 905.430 403.225 L 904.508 406.309 L 903.583 409.397 L 902.654 412.488 L 901.721 415.583 L 900.783 418.681 L 899.842 421.783 L 898.897 424.887 L 897.948 427.995 L 896.995 431.105 L 896.038 434.218 L 895.078 437.333 L 894.113 440.451 L 893.144 443.572 L 892.172 446.694 L 891.195 449.819 L 890.215 452.946 L 889.231 456.074 L 888.243 459.205 L 887.252 462.337 L 886.256 465.470 L 885.257 468.605 L 884.253 471.741 L 883.247 474.878 L 882.236 478.016 L 881.221 481.155 L 880.203 484.295 L 879.181 487.435 L 878.155 490.576 L 877.126 493.717 L 876.092 496.858 L 875.056 500.000" fill="none" stroke="black" stroke-width="12.0" stroke-linecap="round" stroke-linejoin="round" vector-effect="non-scaling-stroke"/>
</svg>