<svg xmlns="http://www.w3.org/2000/svg" viewBox="-6.000 -6.000 1012.000 1012.000" preserveAspectRatio="xMidYMid meet">
    <path d="M 999.753 500.000 L 999.800 503.142 L 999.842 506.283 L 999.879 509.424 L 999.911 512.565 L 999.938 515.705 L 999.961 518.845 L 999.978 521.984 L 999.990 525.122 L 999.998 528.259 L 1000.000 531.395 L 999.998 534.530 L 999.990 537.663 L 999.978 540.795 L 999.961 543.926 L 999.938 547.054 L 999.911 550.181 L 999.879 553.306 L 999.842 556.428 L 999.800 559.549 L 999.753 562.667 L 999.701 565.782 L 999.645 568.895 L 999.583 572.005 L 999.516 575.113 L 999.445 578.217 L 999.368 581.319 L 999.287 584.417 L 999.201 587.512 L 999.110 590.603 L 999.013 593.691 L 998.912 596.775 L 998.806 599.855 L 998.695 602.931 L 998.579 606.004 L 998.459 609.072 L 998.333 612.135 L 998.202 615.195 L 998.067 618.249 L 997.926 621.300 L 997.781 624.345 L 997.631 627.385 L 997.476 630.421 L 997.315 633.451 L 997.150 636.476 L 996.980 639.496 L 996.806 642.510 L 996.626 645.518 L 996.441 648.521 L 996.252 651.518 L 996.057 654.508 L 995.858 657.493 L 995.654 660.472 L 995.445 663.444 L 995.231 666.410 L 995.012 669.369 L 994.788 672.321 L 994.559 675.267 L 994.326 678.206 L 994.087 681.138 L 993.844 684.062 L 993.596 686.980 L 993.343 689.890 L 993.085 692.792 L 992.822 695.687 L 992.555 698.574 L 992.282 701.453 L 992.005 704.325 L 991.723 707.188 L 991.436 710.043 L 991.144 712.890 L 990.847 715.728 L 990.545 718.558 L 990.239 721.379 L 989.928 724.192 L 989.611 726.995 L 989.290 729.790 L 988.965 732.576 L 988.634 735.352 L 988.299 738.119 L 987.958 740.877 L 987.613 743.625 L 987.263 746.364 L 986.909 749.093 L 986.549 751.812 L 986.185 754.521 L 985.816 757.220 L 985.442 759.909 L 985.063 762.587 L 984.680 765.256 L 984.292 767.913 L 983.899 770.561 L 983.501 773.197 L 983.098 775.823 L 982.691 778.438 L 982.279 781.042 L 981.862 783.634 L 981.440 786.216 L 981.014 788.786 L 980.583 791.345 L 980.147 793.893 L 979.706 796.428 L 979.261 798.952 L 978.811 801.465 L 978.356 803.965 L 977.897 806.454 L 977.432 808.930 L 976.963 811.394 L 976.490 813.846 L 976.011 816.285 L 975.528 818.712 L 975.041 821.126 L 974.548 823.528 L 974.051 825.917 L 973.549 828.293 L 973.043 830.656 L 972.532 833.006 L 972.016 835.343 L 971.495 837.666 L 970.970 839.977 L 970.440 842.274 L 969.906 844.557 L 969.367 846.827 L 968.823 849.083 L 968.275 851.325 L 967.722 853.553 L 967.164 855.768 L 966.602 857.968 L 966.036 860.155 L 965.464 862.327 L 964.888 864.484 L 964.308 866.628 L 963.723 868.757 L 963.133 870.871 L 962.539 872.971 L 961.940 875.056 L 961.336 877.126 L 960.728 879.181 L 960.116 881.221 L 959.499 883.247 L 958.877 885.257 L 958.251 887.252 L 957.621 889.231 L 956.985 891.195 L 956.346 893.144 L 955.702 895.078 L 955.053 896.995 L 954.400 898.897 L 953.742 900.783 L 953.080 902.654 L 952.414 904.508 L 951.742 906.347 L 951.067 908.170 L 950.387 909.976 L 949.703 911.766 L 949.014 913.540 L 948.321 915.298 L 947.623 917.039 L 946.921 918.764 L 946.214 920.472 L 945.503 922.164 L 944.788 923.839 L 944.068 925.497 L 943.344 927.139 L 942.616 928.763 L 941.883 930.371 L 941.146 931.962 L 940.404 933.535 L 939.658 935.092 L 938.908 936.631 L 938.153 938.153 L 937.394 939.658 L 936.631 941.146 L 935.864 942.616 L 935.092 944.068 L 934.316 945.503 L 933.535 946.921 L 932.751 948.321 L 931.962 949.703 L 931.168 951.067 L 930.371 952.414 L 929.569 953.742 L 928.763 955.053 L 927.953 956.346 L 927.139 957.621 L 926.320 958.877 L 925.497 960.116 L 924.670 961.336 L 923.839 962.539 L 923.004 963.723 L 922.164 964.888 L 921.320 966.036 L 920.472 967.164 L 919.620 968.275 L 918.764 969.367 L 917.904 970.440 L 917.039 971.495 L 916.171 972.532 L 915.298 973.549 L 914.421 974.548 L 913.540 975.528 L 912.655 976.490 L 911.766 977.432 L 910.873 978.356 L 909.976 979.261 L 909.075 980.147 L 908.170 981.014 L 907.260 981.862 L 906.347 982.691 L 905.430 983.501 L 904.508 984.292 L 903.583 985.063 L 902.654 985.816 L 901.721 986.549 L 900.783 987.263 L 899.842 987.958 L 898.897 988.634 L 897.948 989.290 L 896.995 989.928 L 896.038 990.545 L 895.078 991.144 L 894.113 991.723 L 893.144 992.282 L 892.172 992.822 L 891.195 993.343 L 890.215 993.844 L 889.231 994.326 L 888.243 994.788 L 887.252 995.231 L 886.256 995.654 L 885.257 996.057 L 884.253 996.441 L 883.247 996.806 L 882.236 997.150 L 881.221 997.476 L 880.203 997.781 L 879.181 998.067 L 878.155 998.333 L 877.126 998.579 L 876.092 998.806 L 875.056 999.013 L 874.015 999.201 L 872.971 999.368 L 871.923 999.516 L 870.871 999.645 L 869.816 999.753 L 868.757 999.842 L 867.694 999.911 L 866.628 999.961 L 865.558 999.990 L 864.484 1000.000 L 863.407 999.990 L 862.327 999.961 L 861.242 999.911 L 860.155 999.842 L 859.063 999.753 L 857.968 999.645 L 856.870 999.516 L 855.768 999.368 L 854.662 999.201 L 853.553 999.013 L 852.441 998.806 L 851.325 998.579 L 850.206 998.333 L 849.083 998.067 L 847.956 997.781 L 846.827 997.476 L 845.693 997.150 L 844.557 996.806 L 843.417 996.441 L 842.274 996.057 L 841.127 995.654 L 839.977 995.231 L 838.823 994.788 L 837.666 994.326 L 836.506 993.844 L 835.343 993.343 L 834.176 992.822 L 833.006 992.282 L 831.833 991.723 L 830.656 991.144 L 829.476 990.545 L 828.293 989.928 L 827.106 989.290 L 825.917 988.634 L 824.724 987.958 L 823.528 987.263 L 822.329 986.549 L 821.126 985.816 L 819.921 985.063 L 818.712 984.292 L 817.500 983.501 L 816.285 982.691 L 815.067 981.862 L 813.846 981.014 L 812.621 980.147 L 811.394 979.261 L 810.163 978.356 L 808.930 977.432 L 807.693 976.490 L 806.454 975.528 L 805.211 974.548 L 803.965 973.549 L 802.716 972.532 L 801.465 971.495 L 800.210 970.440 L 798.952 969.367 L 797.692 968.275 L 796.428 967.164 L 795.162 966.036 L 793.893 964.888 L 792.620 963.723 L 791.345 962.539 L 790.067 961.336 L 788.786 960.116 L 787.503 958.877 L 786.216 957.621 L 784.927 956.346 L 783.634 955.053 L 782.339 953.742 L 781.042 952.414 L 779.741 951.067 L 778.438 949.703 L 777.132 948.321 L 775.823 946.921 L 774.511 945.503 L 773.197 944.068 L 771.880 942.616 L 770.561 941.146 L 769.238 939.658 L 767.913 938.153 L 766.586 936.631 L 765.256 935.092 L 763.923 933.535 L 762.587 931.962 L 761.249 930.371 L 759.909 928.763 L 758.565 927.139 L 757.220 925.497 L 755.872 923.839 L 754.521 922.164 L 753.167 920.472 L 751.812 918.764 L 750.453 917.039 L 749.093 915.298 L 747.729 913.540 L 746.364 911.766 L 744.996 909.976 L 743.625 908.170 L 742.252 906.347 L 740.877 904.508 L 739.499 902.654 L 738.119 900.783 L 736.737 898.897 L 735.352 896.995 L 733.965 895.078 L 732.576 893.144 L 731.184 891.195 L 729.790 889.231 L 728.394 887.252 L 726.995 885.257 L 725.595 883.247 L 724.192 881.221 L 722.786 879.181 L 721.379 877.126 L 719.970 875.056 L 718.558 872.971 L 717.144 870.871 L 715.728 868.757 L 714.310 866.628 L 712.890 864.484 L 711.467 862.327 L 710.043 860.155 L 708.616 857.968 L 707.188 855.768 L 705.757 853.553 L 704.325 851.325 L 702.890 849.083 L 701.453 846.827 L 700.015 844.557 L 698.574 842.274 L 697.131 839.977 L 695.687 837.666 L 694.240 835.343 L 692.792 833.006 L 691.342 830.656 L 689.890 828.293 L 688.436 825.917 L 686.980 823.528 L 685.522 821.126 L 684.062 818.712 L 682.601 816.285 L 681.138 813.846 L 679.673 811.394 L 678.206 808.930 L 676.737 806.454 L 675.267 803.965 L 673.795 801.465 L 672.321 798.952 L 670.846 796.428 L 669.369 793.893 L 667.890 791.345 L 666.410 788.786 L 664.928 786.216 L 663.444 783.634 L 661.959 781.042 L 660.472 778.438 L 658.983 775.823 L 657.493 773.197 L 656.002 770.561 L 654.508 767.913 L 653.014 765.256 L 651.518 762.587 L 650.020 759.909 L 648.521 757.220 L 647.020 754.521 L 645.518 751.812 L 644.015 749.093 L 642.510 746.364 L 641.003 743.625 L 639.496 740.877 L 637.986 738.119 L 636.476 735.352 L 634.964 732.576 L 633.451 729.790 L 631.937 726.995 L 630.421 724.192 L 628.904 721.379 L 627.385 718.558 L 625.866 715.728 L 624.345 712.890 L 622.823 710.043 L 621.300 707.188 L 619.775 704.325 L 618.249 701.453 L 616.723 698.574 L 615.195 695.687 L 613.666 692.792 L 612.135 689.890 L 610.604 686.980 L 609.072 684.062 L 607.538 681.138 L 606.004 678.206 L 604.468 675.267 L 602.931 672.321 L 601.394 669.369 L 599.855 666.410 L 598.315 663.444 L 596.775 660.472 L 595.233 657.493 L 593.691 654.508 L 592.147 651.518 L 590.603 648.521 L 589.058 645.518 L 587.512 642.510 L 585.965 639.496 L 584.417 636.476 L 582.868 633.451 L 581.319 630.421 L 579.768 627.385 L 578.217 624.345 L 576.665 621.300 L 575.113 618.249 L 573.559 615.195 L 572.005 612.135 L 570.451 609.072 L 568.895 606.004 L 567.339 602.931 L 565.782 599.855 L 564.225 596.775 L 562.667 593.691 L 561.108 590.603 L 559.549 587.512 L 557.989 584.417 L 556.428 581.319 L 554.867 578.217 L 553.306 575.113 L 551.743 572.005 L 550.181 568.895 L 548.618 565.782 L 547.054 562.667 L 545.490 559.549 L 543.926 556.428 L 542.361 553.306 L 540.795 550.181 L 539.230 547.054 L 537.663 543.926 L 536.097 540.795 L 534.530 537.663 L 532.963 534.530 L 531.395 531.395 L 529.827 528.259 L 528.259 525.122 L 526.691 521.984 L 525.122 518.845 L 523.553 515.705 L 521.984 512.565 L 520.415 509.424 L 518.845 506.283 L 517.275 503.142 L 515.705 500.000 L 514.135 496.858 L 512.565 493.717 L 510.995 490.576 L 509.424 487.435 L 507.854 484.295 L 506.283 481.155 L 504.712 478.016 L 503.142 474.878 L 501.571 471.741 L 500.000 468.605 L 498.429 465.470 L 496.858 462.337 L 495.288 459.205 L 493.717 456.074 L 492.146 452.946 L 490.576 449.819 L 489.005 446.694 L 487.435 443.572 L 485.865 440.451 L 484.295 437.333 L 482.725 434.218 L 481.155 431.105 L 479.585 427.995 L 478.016 424.887 L 476.447 421.783 L 474.878 418.681 L 473.309 415.583 L 471.741 412.488 L 470.173 409.397 L 468.605 406.309 L 467.037 403.225 L 465.470 400.145 L 463.903 397.069 L 462.337 393.996 L 460.770 390.928 L 459.205 387.865 L 457.639 384.805 L 456.074 381.751 L 454.510 378.700 L 452.946 375.655 L 451.382 372.615 L 449.819 369.579 L 448.257 366.549 L 446.694 363.524 L 445.133 360.504 L 443.572 357.490 L 442.011 354.482 L 440.451 351.479 L 438.892 348.482 L 437.333 345.492 L 435.775 342.507 L 434.218 339.528 L 432.661 336.556 L 431.105 333.590 L 429.549 330.631 L 427.995 327.679 L 426.441 324.733 L 424.887 321.794 L 423.335 318.862 L 421.783 315.938 L 420.232 313.020 L 418.681 310.110 L 417.132 307.208 L 415.583 304.313 L 414.035 301.426 L 412.488 298.547 L 410.942 295.675 L 409.397 292.812 L 407.853 289.957 L 406.309 287.110 L 404.767 284.272 L 403.225 281.442 L 401.685 278.621 L 400.145 275.808 L 398.606 273.005 L 397.069 270.210 L 395.532 267.424 L 393.996 264.648 L 392.462 261.881 L 390.928 259.123 L 389.396 256.375 L 387.865 253.636 L 386.334 250.907 L 384.805 248.188 L 383.277 245.479 L 381.751 242.780 L 380.225 240.091 L 378.700 237.413 L 377.177 234.744 L 375.655 232.087 L 374.134 229.439 L 372.615 226.803 L 371.096 224.177 L 369.579 221.562 L 368.063 218.958 L 366.549 216.366 L 365.036 213.784 L 363.524 211.214 L 362.014 208.655 L 360.504 206.107 L 358.997 203.572 L 357.490 201.048 L 355.985 198.535 L 354.482 196.035 L 352.980 193.546 L 351.479 191.070 L 349.980 188.606 L 348.482 186.154 L 346.986 183.715 L 345.492 181.288 L 343.998 178.874 L 342.507 176.472 L 341.017 174.083 L 339.528 171.707 L 338.041 169.344 L 336.556 166.994 L 335.072 164.657 L 333.590 162.334 L 332.110 160.023 L 330.631 157.726 L 329.154 155.443 L 327.679 153.173 L 326.205 150.917 L 324.733 148.675 L 323.263 146.447 L 321.794 144.232 L 320.327 142.032 L 318.862 139.845 L 317.399 137.673 L 315.938 135.516 L 314.478 133.372 L 313.020 131.243 L 311.564 129.129 L 310.110 127.029 L 308.658 124.944 L 307.208 122.874 L 305.760 120.819 L 304.313 118.779 L 302.869 116.753 L 301.426 114.743 L 299.985 112.748 L 298.547 110.769 L 297.110 108.805 L 295.675 106.856 L 294.243 104.922 L 292.812 103.005 L 291.384 101.103 L 289.957 99.217 L 288.533 97.346 L 287.110 95.492 L 285.690 93.653 L 284.272 91.830 L 282.856 90.024 L 281.442 88.234 L 280.030 86.460 L 278.621 84.702 L 277.214 82.961 L 275.808 81.236 L 274.405 79.528 L 273.005 77.836 L 271.606 76.161 L 270.210 74.503 L 268.816 72.861 L 267.424 71.237 L 266.035 69.629 L 264.648 68.038 L 263.263 66.465 L 261.881 64.908 L 260.501 63.369 L 259.123 61.847 L 257.748 60.342 L 256.375 58.854 L 255.004 57.384 L 253.636 55.932 L 252.271 54.497 L 250.907 53.079 L 249.547 51.679 L 248.188 50.297 L 246.833 48.933 L 245.479 47.586 L 244.128 46.258 L 242.780 44.947 L 241.435 43.654 L 240.091 42.379 L 238.751 41.123 L 237.413 39.884 L 236.077 38.664 L 234.744 37.461 L 233.414 36.277 L 232.087 35.112 L 230.762 33.964 L 229.439 32.836 L 228.120 31.725 L 226.803 30.633 L 225.489 29.560 L 224.177 28.505 L 222.868 27.468 L 221.562 26.451 L 220.259 25.452 L 218.958 24.472 L 217.661 23.510 L 216.366 22.568 L 215.073 21.644 L 213.784 20.739 L 212.497 19.853 L 211.214 18.986 L 209.933 18.138 L 208.655 17.309 L 207.380 16.499 L 206.107 15.708 L 204.838 14.937 L 203.572 14.184 L 202.308 13.451 L 201.048 12.737 L 199.790 12.042 L 198.535 11.366 L 197.284 10.710 L 196.035 10.072 L 194.789 9.455 L 193.546 8.856 L 192.307 8.277 L 191.070 7.718 L 189.837 7.178 L 188.606 6.657 L 187.379 6.156 L 186.154 5.674 L 184.933 5.212 L 183.715 4.769 L 182.500 4.346 L 181.288 3.943 L 180.079 3.559 L 178.874 3.194 L 177.671 2.850 L 176.472 2.524 L 175.276 2.219 L 174.083 1.933 L 172.894 1.667 L 171.707 1.421 L 170.524 1.194 L 169.344 0.987 L 168.167 0.799 L 166.994 0.632 L 165.824 0.484 L 164.657 0.355 L 163.494 0.247 L 162.334 0.158 L 161.177 0.089 L 160.023 0.039 L 158.873 0.010 L 157.726 0.000 L 156.583 0.010 L 155.443 0.039 L 154.307 0.089 L 153.173 0.158 L 152.044 0.247 L 150.917 0.355 L 149.794 0.484 L 148.675 0.632 L 147.559 0.799 L 146.447 0.987 L 145.338 1.194 L 144.232 1.421 L 143.130 1.667 L 142.032 1.933 L 140.937 2.219 L 139.845 2.524 L 138.758 2.850 L 137.673 3.194 L 136.593 3.559 L 135.516 3.943 L 134.442 4.346 L 133.372 4.769 L 132.306 5.212 L 131.243 5.674 L 130.184 6.156 L 129.129 6.657 L 128.077 7.178 L 127.029 7.718 L 125.985 8.277 L 124.944 8.856 L 123.908 9.455 L 122.874 10.072 L 121.845 10.710 L 120.819 11.366 L 119.797 12.042 L 118.779 12.737 L 117.764 13.451 L 116.753 14.184 L 115.747 14.937 L 114.743 15.708 L 113.744 16.499 L 112.748 17.309 L 111.757 18.138 L 110.769 18.986 L 109.785 19.853 L 108.805 20.739 L 107.828 21.644 L 106.856 22.568 L 105.887 23.510 L 104.922 24.472 L 103.962 25.452 L 103.005 26.451 L 102.052 27.468 L 101.103 28.505 L 100.158 29.560 L 99.217 30.633 L 98.279 31.725 L 97.346 32.836 L 96.417 33.964 L 95.492 35.112 L 94.570 36.277 L 93.653 37.461 L 92.740 38.664 L 91.830 39.884 L 90.925 41.123 L 90.024 42.379 L 89.127 43.654 L 88.234 44.947 L 87.345 46.258 L 86.460 47.586 L 85.579 48.933 L 84.702 50.297 L 83.829 51.679 L 82.961 53.079 L 82.096 54.497 L 81.236 55.932 L 80.380 57.384 L 79.528 58.854 L 78.680 60.342 L 77.836 61.847 L 76.996 63.369 L 76.161 64.908 L 75.330 66.465 L 74.503 68.038 L 73.680 69.629 L 72.861 71.237 L 72.047 72.861 L 71.237 74.503 L 70.431 76.161 L 69.629 77.836 L 68.832 79.528 L 68.038 81.236 L 67.249 82.961 L 66.465 84.702 L 65.684 86.460 L 64.908 88.234 L 64.136 90.024 L 63.369 91.830 L 62.606 93.653 L 61.847 95.492 L 61.092 97.346 L 60.342 99.217 L 59.596 101.103 L 58.854 103.005 L 58.117 104.922 L 57.384 106.856 L 56.656 108.805 L 55.932 110.769 L 55.212 112.748 L 54.497 114.743 L 53.786 116.753 L 53.079 118.779 L 52.377 120.819 L 51.679 122.874 L 50.986 124.944 L 50.297 127.029 L 49.613 129.129 L 48.933 131.243 L 48.258 133.372 L 47.586 135.516 L 46.920 137.673 L 46.258 139.845 L 45.600 142.032 L 44.947 144.232 L 44.298 146.447 L 43.654 148.675 L 43.015 150.917 L 42.379 153.173 L 41.749 155.443 L 41.123 157.726 L 40.501 160.023 L 39.884 162.334 L 39.272 164.657 L 38.664 166.994 L 38.060 169.344 L 37.461 171.707 L 36.867 174.083 L 36.277 176.472 L 35.692 178.874 L 35.112 181.288 L 34.536 183.715 L 33.964 186.154 L 33.398 188.606 L 32.836 191.070 L 32.278 193.546 L 31.725 196.035 L 31.177 198.535 L 30.633 201.048 L 30.094 203.572 L 29.560 206.107 L 29.030 208.655 L 28.505 211.214 L 27.984 213.784 L 27.468 216.366 L 26.957 218.958 L 26.451 221.562 L 25.949 224.177 L 25.452 226.803 L 24.959 229.439 L 24.472 232.087 L 23.989 234.744 L 23.510 237.413 L 23.037 240.091 L 22.568 242.780 L 22.103 245.479 L 21.644 248.188 L 21.189 250.907 L 20.739 253.636 L 20.294 256.375 L 19.853 259.123 L 19.417 261.881 L 18.986 264.648 L 18.560 267.424 L 18.138 270.210 L 17.721 273.005 L 17.309 275.808 L 16.902 278.621 L 16.499 281.442 L 16.101 284.272 L 15.708 287.110 L 15.320 289.957 L 14.937 292.812 L 14.558 295.675 L 14.184 298.547 L 13.815 301.426 L 13.451 304.313 L 13.091 307.208 L 12.737 310.110 L 12.387 313.020 L 12.042 315.938 L 11.701 318.862 L 11.366 321.794 L 11.035 324.733 L 10.710 327.679 L 10.389 330.631 L 10.072 333.590 L 9.761 336.556 L 9.455 339.528 L 9.153 342.507 L 8.856 345.492 L 8.564 348.482 L 8.277 351.479 L 7.995 354.482 L 7.718 357.490 L 7.445 360.504 L 7.178 363.524 L 6.915 366.549 L 6.657 369.579 L 6.404 372.615 L 6.156 375.655 L 5.913 378.700 L 5.674 381.751 L 5.441 384.805 L 5.212 387.865 L 4.988 390.928 L 4.769 393.996 L 4.555 397.069 L 4.346 400.145 L 4.142 403.225 L 3.943 406.309 L 3.748 409.397 L 3.559 412.488 L 3.374 415.583 L 3.194 418.681 L 3.020 421.783 L 2.850 424.887 L 2.685 427.995 L 2.524 431.105 L 2.369 434.218 L 2.219 437.333 L 2.074 440.451 L 1.933 443.572 L 1.798 446.694 L 1.667 449.819 L 1.541 452.946 L 1.421 456.074 L 1.305 459.205 L 1.194 462.337 L 1.088 465.470 L 0.987 468.605 L 0.890 471.741 L 0.799 474.878 L 0.713 478.016 L 0.632 481.155 L 0.555 484.295 L 0.484 487.435 L 0.417 490.576 L 0.355 493.717 L 0.299 496.858 L 0.247 500.000 L 0.200 503.142 L 0.158 506.283 L 0.121 509.424 L 0.089 512.565 L 0.062 515.705 L 0.039 518.845 L 0.022 521.984 L 0.010 525.122 L 0.002 528.259 L 0.000 531.395 L 0.002 534.530 L 0.010 537.663 L 0.022 540.795 L 0.039 543.926 L 0.062 547.054 L 0.089 550.181 L 0.121 553.306 L 0.158 556.428 L 0.200 559.549 L 0.247 562.667 L 0.299 565.782 L 0.355 568.895 L 0.417 572.005 L 0.484 575.113 L 0.555 578.217 L 0.632 581.319 L 0.713 584.417 L 0.799 587.512 L 0.890 590.603 L 0.987 593.691 L 1.088 596.775 L 1.194 599.855 L 1.305 602.931 L 1.421 606.004 L 1.541 609.072 L 1.667 612.135 L 1.798 615.195 L 1.933 618.249 L 2.074 621.300 L 2.219 624.345 L 2.369 627.385 L 2.524 630.421 L 2.685 633.451 L 2.850 636.476 L 3.020 639.496 L 3.194 642.510 L 3.374 645.518 L 3.559 648.521 L 3.748 651.518 L 3.943 654.508 L 4.142 657.493 L 4.346 660.472 L 4.555 663.444 L 4.769 666.410 L 4.988 669.369 L 5.212 672.321 L 5.441 675.267 L 5.674 678.206 L 5.913 681.138 L 6.156 684.062 L 6.404 686.980 L 6.657 689.890 L 6.915 692.792 L 7.178 695.687 L 7.445 698.574 L 7.718 701.453 L 7.995 704.325 L 8.277 707.188 L 8.564 710.043 L 8.856 712.890 L 9.153 715.728 L 9.455 718.558 L 9.761 721.379 L 10.072 724.192 L 10.389 726.995 L 10.710 729.790 L 11.035 732.576 L 11.366 735.352 L 11.701 738.119 L 12.042 740.877 L 12.387 743.625 L 12.737 746.364 L 13.091 749.093 L 13.451 751.812 L 13.815 754.521 L 14.184 757.220 L 14.558 759.909 L 14.937 762.587 L 15.320 765.256 L 15.708 767.913 L 16.101 770.561 L 16.499 773.197 L 16.902 775.823 L 17.309 778.438 L 17.721 781.042 L 18.138 783.634 L 18.560 786.216 L 18.986 788.786 L 19.417 791.345 L 19.853 793.893 L 20.294 796.428 L 20.739 798.952 L 21.189 801.465 L 21.644 803.965 L 22.103 806.454 L 22.568 808.930 L 23.037 811.394 L 23.510 813.846 L 23.989 816.285 L 24.472 818.712 L 24.959 821.126 L 25.452 823.528 L 25.949 825.917 L 26.451 828.293 L 26.957 830.656 L 27.468 833.006 L 27.984 835.343 L 28.505 837.666 L 29.030 839.977 L 29.560 842.274 L 30.094 844.557 L 30.633 846.827 L 31.177 849.083 L 31.725 851.325 L 32.278 853.553 L 32.836 855.768 L 33.398 857.968 L 33.964 860.155 L 34.536 862.327 L 35.112 864.484 L 35.692 866.628 L 36.277 868.757 L 36.867 870.871 L 37.461 872.971 L 38.060 875.056 L 38.664 877.126 L 39.272 879.181 L 39.884 881.221 L 40.501 883.247 L 41.123 885.257 L 41.749 887.252 L 42.379 889.231 L 43.015 891.195 L 43.654 893.144 L 44.298 895.078 L 44.947 896.995 L 45.600 898.897 L 46.258 900.783 L 46.920 902.654 L 47.586 904.508 L 48.258 906.347 L 48.933 908.170 L 49.613 909.976 L 50.297 911.766 L 50.986 913.540 L 51.679 915.298 L 52.377 917.039 L 53.079 918.764 L 53.786 920.472 L 54.497 922.164 L 55.212 923.839 L 55.932 925.497 L 56.656 927.139 L 57.384 928.763 L 58.117 930.371 L 58.854 931.962 L 59.596 933.535 L 60.342 935.092 L 61.092 936.631 L 61.847 938.153 L 62.606 939.658 L 63.369 941.146 L 64.136 942.616 L 64.908 944.068 L 65.684 945.503 L 66.465 946.921 L 67.249 948.321 L 68.038 949.703 L 68.832 951.067 L 69.629 952.414 L 70.431 953.742 L 71.237 955.053 L 72.047 956.346 L 72.861 957.621 L 73.680 958.877 L 74.503 960.116 L 75.330 961.336 L 76.161 962.539 L 76.996 963.723 L 77.836 964.888 L 78.680 966.036 L 79.528 967.164 L 80.380 968.275 L 81.236 969.367 L 82.096 970.440 L 82.961 971.495 L 83.829 972.532 L 84.702 973.549 L 85.579 974.548 L 86.460 975.528 L 87.345 976.490 L 88.234 977.432 L 89.127 978.356 L 90.024 979.261 L 90.925 980.147 L 91.830 981.014 L 92.740 981.862 L 93.653 982.691 L 94.570 983.501 L 95.492 984.292 L 96.417 985.063 L 97.346 985.816 L 98.279 986.549 L 99.217 987.263 L 100.158 987.958 L 101.103 988.634 L 102.052 989.290 L 103.005 989.928 L 103.962 990.545 L 104.922 991.144 L 105.887 991.723 L 106.856 992.282 L 107.828 992.822 L 108.805 993.343 L 109.785 993.844 L 110.769 994.326 L 111.757 994.788 L 112.748 995.231 L 113.744 995.654 L 114.743 996.057 L 115.747 996.441 L 116.753 996.806 L 117.764 997.150 L 118.779 997.476 L 119.797 997.781 L 120.819 998.067 L 121.845 998.333 L 122.874 998.579 L 123.908 998.806 L 124.944 999.013 L 125.985 999.201 L 127.029 999.368 L 128.077 999.516 L 129.129 999.645 L 130.184 999.753 L 131.243 999.842 L 132.306 999.911 L 133.372 999.961 L 134.442 999.990 L 135.516 1000.000 L 136.593 999.990 L 137.673 999.961 L 138.758 999.911 L 139.845 999.842 L 140.937 999.753 L 142.032 999.645 L 143.130 999.516 L 144.232 999.368 L 145.338 999.201 L 146.447 999.013 L 147.559 998.806 L 148.675 998.579 L 149.794 998.333 L 150.917 998.067 L 152.044 997.781 L 153.173 997.476 L 154.307 997.150 L 155.443 996.806 L 156.583 996.441 L 157.726 996.057 L 158.873 995.654 L 160.023 995.231 L 161.177 994.788 L 162.334 994.326 L 163.494 993.844 L 164.657 993.343 L 165.824 992.822 L 166.994 992.282 L 168.167 991.723 L 169.344 991.144 L 170.524 990.545 L 171.707 989.928 L 172.894 989.290 L 174.083 988.634 L 175.276 987.958 L 176.472 987.263 L 177.671 986.549 L 178.874 985.816 L 180.079 985.063 L 181.288 984.292 L 182.500 983.501 L 183.715 982.691 L 184.933 981.862 L 186.154 981.014 L 187.379 980.147 L 188.606 979.261 L 189.837 978.356 L 191.070 977.432 L 192.307 976.490 L 193.546 975.528 L 194.789 974.548 L 196.035 973.549 L 197.284 972.532 L 198.535 971.495 L 199.790 970.440 L 201.048 969.367 L 202.308 968.275 L 203.572 967.164 L 204.838 966.036 L 206.107 964.888 L 207.380 963.723 L 208.655 962.539 L 209.933 961.336 L 211.214 960.116 L 212.497 958.877 L 213.784 957.621 L 215.073 956.346 L 216.366 955.053 L 217.661 953.742 L 218.958 952.414 L 220.259 951.067 L 221.562 949.703 L 222.868 948.321 L 224.177 946.921 L 225.489 945.503 L 226.803 944.068 L 228.120 942.616 L 229.439 941.146 L 230.762 939.658 L 232.087 938.153 L 233.414 936.631 L 234.744 935.092 L 236.077 933.535 L 237.413 931.962 L 238.751 930.371 L 240.091 928.763 L 241.435 927.139 L 242.780 925.497 L 244.128 923.839 L 245.479 922.164 L 246.833 920.472 L 248.188 918.764 L 249.547 917.039 L 250.907 915.298 L 252.271 913.540 L 253.636 911.766 L 255.004 909.976 L 256.375 908.170 L 257.748 906.347 L 259.123 904.508 L 260.501 902.654 L 261.881 900.783 L 263.263 898.897 L 264.648 896.995 L 266.035 895.078 L 267.424 893.144 L 268.816 891.195 L 270.210 889.231 L 271.606 887.252 L 273.005 885.257 L 274.405 883.247 L 275.808 881.221 L 277.214 879.181 L 278.621 877.126 L 280.030 875.056 L 281.442 872.971 L 282.856 870.871 L 284.272 868.757 L 285.690 866.628 L 287.110 864.484 L 288.533 862.327 L 289.957 860.155 L 291.384 857.968 L 292.812 855.768 L 294.243 853.553 L 295.675 851.325 L 297.110 849.083 L 298.547 846.827 L 299.985 844.557 L 301.426 842.274 L 302.869 839.977 L 304.313 837.666 L 305.760 835.343 L 307.208 833.006 L 308.658 830.656 L 310.110 828.293 L 311.564 825.917 L 313.020 823.528 L 314.478 821.126 L 315.938 818.712 L 317.399 816.285 L 318.862 813.846 L 320.327 811.394 L 321.794 808.930 L 323.263 806.454 L 324.733 803.965 L 326.205 801.465 L 327.679 798.952 L 329.154 796.428 L 330.631 793.893 L 332.110 791.345 L 333.590 788.786 L 335.072 786.216 L 336.556 783.634 L 338.041 781.042 L 339.528 778.438 L 341.017 775.823 L 342.507 773.197 L 343.998 770.561 L 345.492 767.913 L 346.986 765.256 L 348.482 762.587 L 349.980 759.909 L 351.479 757.220 L 352.980 754.521 L 354.482 751.812 L 355.985 749.093 L 357.490 746.364 L 358.997 743.625 L 360.504 740.877 L 362.014 738.119 L 363.524 735.352 L 365.036 732.576 L 366.549 729.790 L 368.063 726.995 L 369.579 724.192 L 371.096 721.379 L 372.615 718.558 L 374.134 715.728 L 375.655 712.890 L 377.177 710.043 L 378.700 707.188 L 380.225 704.325 L 381.751 701.453 L 383.277 698.574 L 384.805 695.687 L 386.334 692.792 L 387.865 689.890 L 389.396 686.980 L 390.928 684.062 L 392.462 681.138 L 393.996 678.206 L 395.532 675.267 L 397.069 672.321 L 398.606 669.369 L 400.145 666.410 L 401.685 663.444 L 403.225 660.472 L 404.767 657.493 L 406.309 654.508 L 407.853 651.518 L 409.397 648.521 L 410.942 645.518 L 412.488 642.510 L 414.035 639.496 L 415.583 636.476 L 417.132 633.451 L 418.681 630.421 L 420.232 627.385 L 421.783 624.345 L 423.335 621.300 L 424.887 618.249 L 426.441 615.195 L 427.995 612.135 L 429.549 609.072 L 431.105 606.004 L 432.661 602.931 L 434.218 599.855 L 435.775 596.775 L 437.333 593.691 L 438.892 590.603 L 440.451 587.512 L 442.011 584.417 L 443.572 581.319 L 445.133 578.217 L 446.694 575.113 L 448.257 572.005 L 449.819 568.895 L 451.382 565.782 L 452.946 562.667 L 454.510 559.549 L 456.074 556.428 L 457.639 553.306 L 459.205 550.181 L 460.770 547.054 L 462.337 543.926 L 463.903 540.795 L 465.470 537.663 L 467.037 534.530 L 468.605 531.395 L 470.173 528.259 L 471.741 525.122 L 473.309 521.984 L 474.878 518.845 L 476.447 515.705 L 478.016 512.565 L 479.585 509.424 L 481.155 506.283 L 482.725 503.142 L 484.295 500.000 L 485.865 496.858 L 487.435 493.717 L 489.005 490.576 L 490.576 487.435 L 492.146 484.295 L 493.717 481.155 L 495.288 478.016 L 496.858 474.878 L 498.429 471.741 L 500.000 468.605 L 501.571 465.470 L 503.142 462.337 L 504.712 459.205 L 506.283 456.074 L 507.854 452.946 L 509.424 449.819 L 510.995 446.694 L 512.565 443.572 L 514.135 440.451 L 515.705 437.333 L 517.275 434.218 L 518.845 431.105 L 520.415 427.995 L 521.984 424.887 L 523.553 421.783 L 525.122 418.681 L 526.691 415.583 L 528.259 412.488 L 529.827 409.397 L 531.395 406.309 L 532.963 403.225 L 534.530 400.145 L 536.097 397.069 L 537.663 393.996 L 539.230 390.928 L 540.795 387.865 L 542.361 384.805 L 543.926 381.751 L 545.490 378.700 L 547.054 375.655 L 548.618 372.615 L 550.181 369.579 L 551.743 366.549 L 553.306 363.524 L 554.867 360.504 L 556.428 357.490 L 557.989 354.482 L 559.549 351.479 L 561.108 348.482 L 562.667 345.492 L 564.225 342.507 L 565.782 339.528 L 567.339 336.556 L 568.895 333.590 L 570.451 330.631 L 572.005 327.679 L 573.559 324.733 L 575.113 321.794 L 576.665 318.862 L 578.217 315.938 L 579.768 313.020 L 581.319 310.110 L 582.868 307.208 L 584.417 304.313 L 585.965 301.426 L 587.512 298.547 L 589.058 295.675 L 590.603 292.812 L 592.147 289.957 L 593.691 287.110 L 595.233 284.272 L 596.775 281.442 L 598.315 278.621 L 599.855 275.808 L 601.394 273.005 L 602.931 270.210 L 604.468 267.424 L 606.004 264.648 L 607.538 261.881 L 609.072 259.123 L 610.604 256.375 L 612.135 253.636 L 613.666 250.907 L 615.195 248.188 L 616.723 245.479 L 618.249 242.780 L 619.775 240.091 L 621.300 237.413 L 622.823 234.744 L 624.345 232.087 L 625.866 229.439 L 627.385 226.803 L 628.904 224.177 L 630.421 221.562 L 631.937 218.958 L 633.451 216.366 L 634.964 213.784 L 636.476 211.214 L 637.986 208.655 L 639.496 206.107 L 641.003 203.572 L 642.510 201.048 L 644.015 198.535 L 645.518 196.035 L 647.020 193.546 L 648.521 191.070 L 650.020 188.606 L 651.518 186.154 L 653.014 183.715 L 654.508 181.288 L 656.002 178.874 L 657.493 176.472 L 658.983 174.083 L 660.472 171.707 L 661.959 169.344 L 663.444 166.994 L 664.928 164.657 L 666.410 162.334 L 667.890 160.023 L 669.369 157.726 L 670.846 155.443 L 672.321 153.173 L 673.795 150.917 L 675.267 148.675 L 676.737 146.447 L 678.206 144.232 L 679.673 142.032 L 681.138 139.845 L 682.601 137.673 L 684.062 135.516 L 685.522 133.372 L 686.980 131.243 L 688.436 129.129 L 689.890 127.029 L 691.342 124.944 L 692.792 122.874 L 694.240 120.819 L 695.687 118.779 L 697.131 116.753 L 698.574 114.743 L 700.015 112.748 L 701.453 110.769 L 702.890 108.805 L 704.325 106.856 L 705.757 104.922 L 707.188 103.005 L 708.616 101.103 L 710.043 99.217 L 711.467 97.346 L 712.890 95.492 L 714.310 93.653 L 715.728 91.830 L 717.144 90.024 L 718.558 88.234 L 719.970 86.460 L 721.379 84.702 L 722.786 82.961 L 724.192 81.236 L 725.595 79.528 L 726.995 77.836 L 728.394 76.161 L 729.790 74.503 L 731.184 72.861 L 732.576 71.237 L 733.965 69.629 L 735.352 68.038 L 736.737 66.465 L 738.119 64.908 L 739.499 63.369 L 740.877 61.847 L 742.252 60.342 L 743.625 58.854 L 744.996 57.384 L 746.364 55.932 L 747.729 54.497 L 749.093 53.079 L 750.453 51.679 L 751.812 50.297 L 753.167 48.933 L 754.521 47.586 L 755.872 46.258 L 757.220 44.947 L 758.565 43.654 L 759.909 42.379 L 761.249 41.123 L 762.587 39.884 L 763.923 38.664 L 765.256 37.461 L 766.586 36.277 L 767.913 35.112 L 769.238 33.964 L 770.561 32.836 L 771.880 31.725 L 773.197 30.633 L 774.511 29.560 L 775.823 28.505 L 777.132 27.468 L 778.438 26.451 L 779.741 25.452 L 781.042 24.472 L 782.339 23.510 L 783.634 22.568 L 784.927 21.644 L 786.216 20.739 L 787.503 19.853 L 788.786 18.986 L 790.067 18.138 L 791.345 17.309 L 792.620 16.499 L 793.893 15.708 L 795.162 14.937 L 796.428 14.184 L 797.692 13.451 L 798.952 12.737 L 800.210 12.042 L 801.465 11.366 L 802.716 10.710 L 803.965 10.072 L 805.211 9.455 L 806.454 8.856 L 807.693 8.277 L 808.930 7.718 L 810.163 7.178 L 811.394 6.657 L 812.621 6.156 L 813.846 5.674 L 815.067 5.212 L 816.285 4.769 L 817.500 4.346 L 818.712 3.943 L 819.921 3.559 L 821.126 3.194 L 822.329 2.850 L 823.528 2.524 L 824.724 2.219 L 825.917 1.933 L 827.106 1.667 L 828.293 1.421 L 829.476 1.194 L 830.656 0.987 L 831.833 0.799 L 833.006 0.632 L 834.176 0.484 L 835.343 0.355 L 836.506 0.247 L 837.666 0.158 L 838.823 0.089 L 839.977 0.039 L 841.127 0.010 L 842.274 0.000 L 843.417 0.010 L 844.557 0.039 L 845.693 0.089 L 846.827 0.158 L 847.956 0.247 L 849.083 0.355 L 850.206 0.484 L 851.325 0.632 L 852.441 0.799 L 853.553 0.987 L 854.662 1.194 L 855.768 1.421 L 856.870 1.667 L 857.968 1.933 L 859.063 2.219 L 860.155 2.524 L 861.242 2.850 L 862.327 3.194 L 863.407 3.559 L 864.484 3.943 L 865.558 4.346 L 866.628 4.769 L 867.694 5.212 L 868.757 5.674 L 869.816 6.156 L 870.871 6.657 L 871.923 7.178 L 872.971 7.718 L 874.015 8.277 L 875.056 8.856 L 876.092 9.455 L 877.126 10.072 L 878.155 10.710 L 879.181 11.366 L 880.203 12.042 L 881.221 12.737 L 882.236 13.451 L 883.247 14.184 L 884.253 14.937 L 885.257 15.708 L 886.256 16.499 L 887.252 17.309 L 888.243 18.138 L 889.231 18.986 L 890.215 19.853 L 891.195 20.739 L 892.172 21.644 L 893.144 22.568 L 894.113 23.510 L 895.078 24.472 L 896.038 25.452 L 896.995 26.451 L 897.948 27.468 L 898.897 28.505 L 899.842 29.560 L 900.783 30.633 L 901.721 31.725 L 902.654 32.836 L 903.583 33.964 L 904.508 35.112 L 905.430 36.277 L 906.347 37.461 L 907.260 38.664 L 908.170 39.884 L 909.075 41.123 L 909.976 42.379 L 910.873 43.654 L 911.766 44.947 L 912.655 46.258 L 913.540 47.586 L 914.421 48.933 L 915.298 50.297 L 916.171 51.679 L 917.039 53.079 L 917.904 54.497 L 918.764 55.932 L 919.620 57.384 L 920.472 58.854 L 921.320 60.342 L 922.164 61.847 L 923.004 63.369 L 923.839 64.908 L 924.670 66.465 L 925.497 68.038 L 926.320 69.629 L 927.139 71.237 L 927.953 72.861 L 928.763 74.503 L 929.569 76.161 L 930.371 77.836 L 931.168 79.528 L 931.962 81.236 L 932.751 82.961 L 933.535 84.702 L 934.316 86.460 L 935.092 88.234 L 935.864 90.024 L 936.631 91.830 L 937.394 93.653 L 938.153 95.492 L 938.908 97.346 L 939.658 99.217 L 940.404 101.103 L 941.146 103.005 L 941.883 104.922 L 942.616 106.856 L 943.344 108.805 L 944.068 110.769 L 944.788 112.748 L 945.503 114.743 L 946.214 116.753 L 946.921 118.779 L 947.623 120.819 L 948.321 122.874 L 949.014 124.944 L 949.703 127.029 L 950.387 129.129 L 951.067 131.243 L 951.742 133.372 L 952.414 135.516 L 953.080 137.673 L 953.742 139.845 L 954.400 142.032 L 955.053 144.232 L 955.702 146.447 L 956.346 148.675 L 956.985 150.917 L 957.621 153.173 L 958.251 155.443 L 958.877 157.726 L 959.499 160.023 L 960.116 162.334 L 960.728 164.657 L 961.336 166.994 L 961.940 169.344 L 962.539 171.707 L 963.133 174.083 L 963.723 176.472 L 964.308 178.874 L 964.888 181.288 L 965.464 183.715 L 966.036 186.154 L 966.602 188.606 L 967.164 191.070 L 967.722 193.546 L 968.275 196.035 L 968.823 198.535 L 969.367 201.048 L 969.906 203.572 L 970.440 206.107 L 970.970 208.655 L 971.495 211.214 L 972.016 213.784 L 972.532 216.366 L 973.043 218.958 L 973.549 221.562 L 974.051 224.177 L 974.548 226.803 L 975.041 229.439 L 975.528 232.087 L 976.011 234.744 L 976.490 237.413 L 976.963 240.091 L 977.432 242.780 L 977.897 245.479 L 978.356 248.188 L 978.811 250.907 L 979.261 253.636 L 979.706 256.375 L 980.147 259.123 L 980.583 261.881 L 981.014 264.648 L 981.440 267.424 L 981.862 270.210 L 982.279 273.005 L 982.691 275.808 L 983.098 278.621 L 983.501 281.442 L 983.899 284.272 L 984.292 287.110 L 984.680 289.957 L 985.063 292.812 L 985.442 295.675 L 985.816 298.547 L 986.185 301.426 L 986.549 304.313 L 986.909 307.208 L 987.263 310.110 L 987.613 313.020 L 987.958 315.938 L 988.299 318.862 L 988.634 321.794 L 988.965 324.733 L 989.290 327.679 L 989.611 330.631 L 989.928 333.590 L 990.239 336.556 L 990.545 339.528 L 990.847 342.507 L 991.144 345.492 L 991.436 348.482 L 991.723 351.479 L 992.005 354.482 L 992.282 357.490 L 992.555 360.504 L 992.822 363.524 L 993.085 366.549 L 993.343 369.579 L 993.596 372.615 L 993.844 375.655 L 994.087 378.700 L 994.326 381.751 L 994.559 384.805 L 994.788 387.865 L 995.012 390.928 L 995.231 393.996 L 995.445 397.069 L 995.654 400.145 L 995.858 403.225 L 996.057 406.309 L 996.252 409.397 L 996.441 412.488 L 996.626 415.583 L 996.806 418.681 L 996.980 421.783 L 997.150 424.887 L 997.315 427.995 L 997.476 431.105 L 997.631 434.218 L 997.781 437.333 L 997.926 440.451 L 998.067 443.572 L 998.202 446.694 L 998.333 449.819 L 998.459 452.946 L 998.579 456.074 L 998.695 459.205 L 998.806 462.337 L 998.912 465.470 L 999.013 468.605 L 999.110 471.741 L 999.201 474.878 L 999.287 478.016 L 999.368 481.155 L 999.445 484.295 L 999.516 487.435 L 999.583 490.576 L 999.645 493.717 L 999.701 496.858 L 999.753 500.000" fill="none" stroke="black" stroke-width="12.0" stroke-linecap="round" stroke-linejoin="round" vector-effect="non-scaling-stroke"/>
</svg>