<svg xmlns="http://www.w3.org/2000/svg" viewBox="-6.000 -6.000 1012.000 1012.000" preserveAspectRatio="xMidYMid meet">
    <path d="M 580.156 500.000 L 581.706 503.142 L 583.255 506.283 L 584.804 509.424 L 586.351 512.565 L 587.898 515.705 L 589.444 518.845 L 590.989 521.984 L 592.533 525.122 L 594.076 528.259 L 595.619 531.395 L 597.160 534.530 L 598.700 537.663 L 600.240 540.795 L 601.778 543.926 L 603.316 547.054 L 604.852 550.181 L 606.387 553.306 L 607.922 556.428 L 609.455 559.549 L 610.987 562.667 L 612.518 565.782 L 614.048 568.895 L 615.577 572.005 L 617.105 575.113 L 618.631 578.217 L 620.156 581.319 L 621.681 584.417 L 623.204 587.512 L 624.725 590.603 L 626.246 593.691 L 627.765 596.775 L 629.283 599.855 L 630.800 602.931 L 632.315 606.004 L 633.830 609.072 L 635.342 612.135 L 636.854 615.195 L 638.364 618.249 L 639.873 621.300 L 641.380 624.345 L 642.886 627.385 L 644.391 630.421 L 645.894 633.451 L 647.396 636.476 L 648.896 639.496 L 650.395 642.510 L 651.892 645.518 L 653.388 648.521 L 654.882 651.518 L 656.375 654.508 L 657.866 657.493 L 659.356 660.472 L 660.844 663.444 L 662.330 666.410 L 663.815 669.369 L 665.298 672.321 L 666.780 675.267 L 668.260 678.206 L 669.739 681.138 L 671.215 684.062 L 672.690 686.980 L 674.163 689.890 L 675.635 692.792 L 677.105 695.687 L 678.573 698.574 L 680.039 701.453 L 681.504 704.325 L 682.967 707.188 L 684.427 710.043 L 685.887 712.890 L 687.344 715.728 L 688.799 718.558 L 690.253 721.379 L 691.705 724.192 L 693.154 726.995 L 694.602 729.790 L 696.048 732.576 L 697.492 735.352 L 698.934 738.119 L 700.375 740.877 L 701.813 743.625 L 703.249 746.364 L 704.683 749.093 L 706.115 751.812 L 707.545 754.521 L 708.973 757.220 L 710.399 759.909 L 711.823 762.587 L 713.245 765.256 L 714.665 767.913 L 716.082 770.561 L 717.498 773.197 L 718.911 775.823 L 720.322 778.438 L 721.731 781.042 L 723.138 783.634 L 724.543 786.216 L 725.945 788.786 L 727.345 791.345 L 728.743 793.893 L 730.139 796.428 L 731.532 798.952 L 732.923 801.465 L 734.312 803.965 L 735.698 806.454 L 737.083 808.930 L 738.464 811.394 L 739.844 813.846 L 741.221 816.285 L 742.596 818.712 L 743.968 821.126 L 745.338 823.528 L 746.705 825.917 L 748.070 828.293 L 749.433 830.656 L 750.793 833.006 L 752.151 835.343 L 753.506 837.666 L 754.859 839.977 L 756.209 842.274 L 757.557 844.557 L 758.902 846.827 L 760.244 849.083 L 761.584 851.325 L 762.922 853.553 L 764.256 855.768 L 765.588 857.968 L 766.918 860.155 L 768.245 862.327 L 769.569 864.484 L 770.891 866.628 L 772.210 868.757 L 773.526 870.871 L 774.840 872.971 L 776.150 875.056 L 777.459 877.126 L 778.764 879.181 L 780.067 881.221 L 781.366 883.247 L 782.664 885.257 L 783.958 887.252 L 785.249 889.231 L 786.538 891.195 L 787.824 893.144 L 789.107 895.078 L 790.387 896.995 L 791.664 898.897 L 792.939 900.783 L 794.210 902.654 L 795.479 904.508 L 796.745 906.347 L 798.007 908.170 L 799.267 909.976 L 800.524 911.766 L 801.778 913.540 L 803.029 915.298 L 804.277 917.039 L 805.522 918.764 L 806.764 920.472 L 808.003 922.164 L 809.239 923.839 L 810.471 925.497 L 811.701 927.139 L 812.928 928.763 L 814.151 930.371 L 815.372 931.962 L 816.589 933.535 L 817.803 935.092 L 819.015 936.631 L 820.223 938.153 L 821.427 939.658 L 822.629 941.146 L 823.827 942.616 L 825.023 944.068 L 826.215 945.503 L 827.403 946.921 L 828.589 948.321 L 829.771 949.703 L 830.950 951.067 L 832.126 952.414 L 833.299 953.742 L 834.468 955.053 L 835.634 956.346 L 836.797 957.621 L 837.956 958.877 L 839.112 960.116 L 840.265 961.336 L 841.414 962.539 L 842.560 963.723 L 843.702 964.888 L 844.841 966.036 L 845.977 967.164 L 847.109 968.275 L 848.238 969.367 L 849.364 970.440 L 850.486 971.495 L 851.604 972.532 L 852.719 973.549 L 853.831 974.548 L 854.939 975.528 L 856.044 976.490 L 857.145 977.432 L 858.242 978.356 L 859.336 979.261 L 860.427 980.147 L 861.514 981.014 L 862.597 981.862 L 863.677 982.691 L 864.753 983.501 L 865.826 984.292 L 866.895 985.063 L 867.960 985.816 L 869.022 986.549 L 870.080 987.263 L 871.134 987.958 L 872.185 988.634 L 873.232 989.290 L 874.275 989.928 L 875.315 990.545 L 876.351 991.144 L 877.383 991.723 L 878.412 992.282 L 879.437 992.822 L 880.458 993.343 L 881.475 993.844 L 882.489 994.326 L 883.499 994.788 L 884.505 995.231 L 885.507 995.654 L 886.505 996.057 L 887.500 996.441 L 888.491 996.806 L 889.478 997.150 L 890.461 997.476 L 891.440 997.781 L 892.415 998.067 L 893.387 998.333 L 894.354 998.579 L 895.318 998.806 L 896.278 999.013 L 897.234 999.201 L 898.186 999.368 L 899.134 999.516 L 900.078 999.645 L 901.018 999.753 L 901.954 999.842 L 902.887 999.911 L 903.815 999.961 L 904.739 999.990 L 905.660 1000.000 L 906.576 999.990 L 907.488 999.961 L 908.396 999.911 L 909.301 999.842 L 910.201 999.753 L 911.097 999.645 L 911.989 999.516 L 912.877 999.368 L 913.761 999.201 L 914.641 999.013 L 915.517 998.806 L 916.388 998.579 L 917.256 998.333 L 918.119 998.067 L 918.979 997.781 L 919.834 997.476 L 920.685 997.150 L 921.532 996.806 L 922.374 996.441 L 923.213 996.057 L 924.047 995.654 L 924.877 995.231 L 925.703 994.788 L 926.525 994.326 L 927.343 993.844 L 928.156 993.343 L 928.965 992.822 L 929.770 992.282 L 930.571 991.723 L 931.367 991.144 L 932.159 990.545 L 932.947 989.928 L 933.731 989.290 L 934.510 988.634 L 935.285 987.958 L 936.056 987.263 L 936.822 986.549 L 937.585 985.816 L 938.342 985.063 L 939.096 984.292 L 939.845 983.501 L 940.590 982.691 L 941.330 981.862 L 942.066 981.014 L 942.798 980.147 L 943.526 979.261 L 944.249 978.356 L 944.967 977.432 L 945.681 976.490 L 946.391 975.528 L 947.097 974.548 L 947.798 973.549 L 948.494 972.532 L 949.186 971.495 L 949.874 970.440 L 950.557 969.367 L 951.236 968.275 L 951.911 967.164 L 952.581 966.036 L 953.246 964.888 L 953.907 963.723 L 954.564 962.539 L 955.216 961.336 L 955.863 960.116 L 956.506 958.877 L 957.145 957.621 L 957.779 956.346 L 958.408 955.053 L 959.033 953.742 L 959.654 952.414 L 960.270 951.067 L 960.881 949.703 L 961.488 948.321 L 962.090 946.921 L 962.688 945.503 L 963.281 944.068 L 963.869 942.616 L 964.453 941.146 L 965.033 939.658 L 965.608 938.153 L 966.178 936.631 L 966.743 935.092 L 967.304 933.535 L 967.861 931.962 L 968.412 930.371 L 968.960 928.763 L 969.502 927.139 L 970.040 925.497 L 970.573 923.839 L 971.102 922.164 L 971.626 920.472 L 972.145 918.764 L 972.660 917.039 L 973.170 915.298 L 973.675 913.540 L 974.176 911.766 L 974.672 909.976 L 975.163 908.170 L 975.649 906.347 L 976.131 904.508 L 976.609 902.654 L 977.081 900.783 L 977.549 898.897 L 978.012 896.995 L 978.470 895.078 L 978.924 893.144 L 979.373 891.195 L 979.817 889.231 L 980.256 887.252 L 980.691 885.257 L 981.121 883.247 L 981.546 881.221 L 981.967 879.181 L 982.382 877.126 L 982.793 875.056 L 983.199 872.971 L 983.601 870.871 L 983.997 868.757 L 984.389 866.628 L 984.776 864.484 L 985.158 862.327 L 985.536 860.155 L 985.909 857.968 L 986.277 855.768 L 986.640 853.553 L 986.998 851.325 L 987.351 849.083 L 987.700 846.827 L 988.044 844.557 L 988.383 842.274 L 988.717 839.977 L 989.047 837.666 L 989.371 835.343 L 989.691 833.006 L 990.006 830.656 L 990.316 828.293 L 990.621 825.917 L 990.922 823.528 L 991.217 821.126 L 991.508 818.712 L 991.794 816.285 L 992.075 813.846 L 992.351 811.394 L 992.622 808.930 L 992.888 806.454 L 993.150 803.965 L 993.407 801.465 L 993.659 798.952 L 993.905 796.428 L 994.148 793.893 L 994.385 791.345 L 994.617 788.786 L 994.844 786.216 L 995.067 783.634 L 995.285 781.042 L 995.497 778.438 L 995.705 775.823 L 995.908 773.197 L 996.106 770.561 L 996.300 767.913 L 996.488 765.256 L 996.671 762.587 L 996.850 759.909 L 997.023 757.220 L 997.192 754.521 L 997.356 751.812 L 997.515 749.093 L 997.669 746.364 L 997.818 743.625 L 997.962 740.877 L 998.101 738.119 L 998.235 735.352 L 998.365 732.576 L 998.489 729.790 L 998.609 726.995 L 998.724 724.192 L 998.833 721.379 L 998.938 718.558 L 999.038 715.728 L 999.133 712.890 L 999.223 710.043 L 999.308 707.188 L 999.388 704.325 L 999.463 701.453 L 999.534 698.574 L 999.599 695.687 L 999.659 692.792 L 999.715 689.890 L 999.765 686.980 L 999.811 684.062 L 999.852 681.138 L 999.888 678.206 L 999.918 675.267 L 999.944 672.321 L 999.965 669.369 L 999.981 666.410 L 999.992 663.444 L 999.999 660.472 L 1000.000 657.493 L 999.996 654.508 L 999.988 651.518 L 999.974 648.521 L 999.955 645.518 L 999.932 642.510 L 999.904 639.496 L 999.870 636.476 L 999.832 633.451 L 999.789 630.421 L 999.741 627.385 L 999.688 624.345 L 999.630 621.300 L 999.567 618.249 L 999.499 615.195 L 999.426 612.135 L 999.349 609.072 L 999.266 606.004 L 999.178 602.931 L 999.086 599.855 L 998.989 596.775 L 998.886 593.691 L 998.779 590.603 L 998.667 587.512 L 998.550 584.417 L 998.428 581.319 L 998.301 578.217 L 998.169 575.113 L 998.032 572.005 L 997.890 568.895 L 997.744 565.782 L 997.592 562.667 L 997.436 559.549 L 997.275 556.428 L 997.108 553.306 L 996.937 550.181 L 996.761 547.054 L 996.580 543.926 L 996.394 540.795 L 996.204 537.663 L 996.008 534.530 L 995.807 531.395 L 995.602 528.259 L 995.392 525.122 L 995.176 521.984 L 994.956 518.845 L 994.731 515.705 L 994.501 512.565 L 994.267 509.424 L 994.027 506.283 L 993.783 503.142 L 993.533 500.000 L 993.279 496.858 L 993.020 493.717 L 992.756 490.576 L 992.487 487.435 L 992.213 484.295 L 991.935 481.155 L 991.651 478.016 L 991.363 474.878 L 991.070 471.741 L 990.772 468.605 L 990.469 465.470 L 990.161 462.337 L 989.849 459.205 L 989.532 456.074 L 989.209 452.946 L 988.882 449.819 L 988.551 446.694 L 988.214 443.572 L 987.873 440.451 L 987.526 437.333 L 987.175 434.218 L 986.819 431.105 L 986.459 427.995 L 986.093 424.887 L 985.723 421.783 L 985.348 418.681 L 984.968 415.583 L 984.583 412.488 L 984.194 409.397 L 983.800 406.309 L 983.401 403.225 L 982.997 400.145 L 982.588 397.069 L 982.175 393.996 L 981.757 390.928 L 981.334 387.865 L 980.906 384.805 L 980.474 381.751 L 980.037 378.700 L 979.595 375.655 L 979.149 372.615 L 978.698 369.579 L 978.242 366.549 L 977.781 363.524 L 977.315 360.504 L 976.845 357.490 L 976.370 354.482 L 975.891 351.479 L 975.407 348.482 L 974.918 345.492 L 974.424 342.507 L 973.926 339.528 L 973.423 336.556 L 972.915 333.590 L 972.403 330.631 L 971.886 327.679 L 971.364 324.733 L 970.838 321.794 L 970.307 318.862 L 969.772 315.938 L 969.231 313.020 L 968.687 310.110 L 968.137 307.208 L 967.583 304.313 L 967.024 301.426 L 966.461 298.547 L 965.893 295.675 L 965.321 292.812 L 964.743 289.957 L 964.162 287.110 L 963.576 284.272 L 962.985 281.442 L 962.389 278.621 L 961.789 275.808 L 961.185 273.005 L 960.576 270.210 L 959.962 267.424 L 959.344 264.648 L 958.721 261.881 L 958.094 259.123 L 957.462 256.375 L 956.826 253.636 L 956.185 250.907 L 955.540 248.188 L 954.890 245.479 L 954.236 242.780 L 953.577 240.091 L 952.914 237.413 L 952.246 234.744 L 951.574 232.087 L 950.897 229.439 L 950.216 226.803 L 949.531 224.177 L 948.841 221.562 L 948.146 218.958 L 947.448 216.366 L 946.744 213.784 L 946.037 211.214 L 945.325 208.655 L 944.608 206.107 L 943.888 203.572 L 943.162 201.048 L 942.433 198.535 L 941.699 196.035 L 940.961 193.546 L 940.218 191.070 L 939.471 188.606 L 938.720 186.154 L 937.964 183.715 L 937.204 181.288 L 936.440 178.874 L 935.671 176.472 L 934.898 174.083 L 934.121 171.707 L 933.340 169.344 L 932.554 166.994 L 931.764 164.657 L 930.969 162.334 L 930.171 160.023 L 929.368 157.726 L 928.561 155.443 L 927.750 153.173 L 926.934 150.917 L 926.115 148.675 L 925.291 146.447 L 924.463 144.232 L 923.630 142.032 L 922.794 139.845 L 921.953 137.673 L 921.109 135.516 L 920.260 133.372 L 919.406 131.243 L 918.549 129.129 L 917.688 127.029 L 916.822 124.944 L 915.953 122.874 L 915.079 120.819 L 914.201 118.779 L 913.319 116.753 L 912.433 114.743 L 911.543 112.748 L 910.649 110.769 L 909.751 108.805 L 908.849 106.856 L 907.943 104.922 L 907.032 103.005 L 906.118 101.103 L 905.200 99.217 L 904.277 97.346 L 903.351 95.492 L 902.421 93.653 L 901.487 91.830 L 900.549 90.024 L 899.606 88.234 L 898.660 86.460 L 897.710 84.702 L 896.756 82.961 L 895.798 81.236 L 894.837 79.528 L 893.871 77.836 L 892.901 76.161 L 891.928 74.503 L 890.951 72.861 L 889.969 71.237 L 888.984 69.629 L 887.996 68.038 L 887.003 66.465 L 886.006 64.908 L 885.006 63.369 L 884.002 61.847 L 882.994 60.342 L 881.982 58.854 L 880.967 57.384 L 879.948 55.932 L 878.925 54.497 L 877.898 53.079 L 876.868 51.679 L 875.834 50.297 L 874.796 48.933 L 873.754 47.586 L 872.709 46.258 L 871.660 44.947 L 870.607 43.654 L 869.551 42.379 L 868.491 41.123 L 867.428 39.884 L 866.360 38.664 L 865.290 37.461 L 864.215 36.277 L 863.137 35.112 L 862.056 33.964 L 860.971 32.836 L 859.882 31.725 L 858.790 30.633 L 857.694 29.560 L 856.595 28.505 L 855.492 27.468 L 854.385 26.451 L 853.276 25.452 L 852.162 24.472 L 851.045 23.510 L 849.925 22.568 L 848.801 21.644 L 847.674 20.739 L 846.544 19.853 L 845.410 18.986 L 844.272 18.138 L 843.131 17.309 L 841.987 16.499 L 840.840 15.708 L 839.689 14.937 L 838.534 14.184 L 837.377 13.451 L 836.216 12.737 L 835.051 12.042 L 833.884 11.366 L 832.713 10.710 L 831.539 10.072 L 830.361 9.455 L 829.180 8.856 L 827.996 8.277 L 826.809 7.718 L 825.619 7.178 L 824.425 6.657 L 823.228 6.156 L 822.028 5.674 L 820.825 5.212 L 819.619 4.769 L 818.409 4.346 L 817.197 3.943 L 815.981 3.559 L 814.762 3.194 L 813.540 2.850 L 812.315 2.524 L 811.086 2.219 L 809.855 1.933 L 808.621 1.667 L 807.383 1.421 L 806.143 1.194 L 804.900 0.987 L 803.653 0.799 L 802.404 0.632 L 801.151 0.484 L 799.896 0.355 L 798.638 0.247 L 797.376 0.158 L 796.112 0.089 L 794.845 0.039 L 793.575 0.010 L 792.302 0.000 L 791.026 0.010 L 789.747 0.039 L 788.466 0.089 L 787.181 0.158 L 785.894 0.247 L 784.604 0.355 L 783.311 0.484 L 782.015 0.632 L 780.717 0.799 L 779.415 0.987 L 778.111 1.194 L 776.805 1.421 L 775.495 1.667 L 774.183 1.933 L 772.868 2.219 L 771.550 2.524 L 770.230 2.850 L 768.907 3.194 L 767.582 3.559 L 766.253 3.943 L 764.923 4.346 L 763.589 4.769 L 762.253 5.212 L 760.914 5.674 L 759.573 6.156 L 758.229 6.657 L 756.883 7.178 L 755.534 7.718 L 754.183 8.277 L 752.829 8.856 L 751.472 9.455 L 750.113 10.072 L 748.752 10.710 L 747.388 11.366 L 746.022 12.042 L 744.653 12.737 L 743.282 13.451 L 741.908 14.184 L 740.533 14.937 L 739.154 15.708 L 737.774 16.499 L 736.391 17.309 L 735.005 18.138 L 733.618 18.986 L 732.228 19.853 L 730.835 20.739 L 729.441 21.644 L 728.044 22.568 L 726.645 23.510 L 725.244 24.472 L 723.840 25.452 L 722.435 26.451 L 721.027 27.468 L 719.617 28.505 L 718.205 29.560 L 716.790 30.633 L 715.374 31.725 L 713.955 32.836 L 712.534 33.964 L 711.111 35.112 L 709.686 36.277 L 708.259 37.461 L 706.830 38.664 L 705.399 39.884 L 703.966 41.123 L 702.531 42.379 L 701.094 43.654 L 699.654 44.947 L 698.213 46.258 L 696.770 47.586 L 695.325 48.933 L 693.878 50.297 L 692.429 51.679 L 690.979 53.079 L 689.526 54.497 L 688.072 55.932 L 686.615 57.384 L 685.157 58.854 L 683.697 60.342 L 682.235 61.847 L 680.771 63.369 L 679.306 64.908 L 677.839 66.465 L 676.370 68.038 L 674.899 69.629 L 673.427 71.237 L 671.953 72.861 L 670.477 74.503 L 668.999 76.161 L 667.520 77.836 L 666.039 79.528 L 664.557 81.236 L 663.073 82.961 L 661.587 84.702 L 660.100 86.460 L 658.611 88.234 L 657.120 90.024 L 655.628 91.830 L 654.135 93.653 L 652.640 95.492 L 651.143 97.346 L 649.645 99.217 L 648.146 101.103 L 646.645 103.005 L 645.142 104.922 L 643.638 106.856 L 642.133 108.805 L 640.626 110.769 L 639.118 112.748 L 637.609 114.743 L 636.098 116.753 L 634.586 118.779 L 633.072 120.819 L 631.558 122.874 L 630.041 124.944 L 628.524 127.029 L 627.005 129.129 L 625.486 131.243 L 623.964 133.372 L 622.442 135.516 L 620.918 137.673 L 619.394 139.845 L 617.868 142.032 L 616.341 144.232 L 614.812 146.447 L 613.283 148.675 L 611.753 150.917 L 610.221 153.173 L 608.688 155.443 L 607.154 157.726 L 605.620 160.023 L 604.084 162.334 L 602.547 164.657 L 601.009 166.994 L 599.470 169.344 L 597.930 171.707 L 596.389 174.083 L 594.848 176.472 L 593.305 178.874 L 591.761 181.288 L 590.217 183.715 L 588.671 186.154 L 587.125 188.606 L 585.578 191.070 L 584.030 193.546 L 582.481 196.035 L 580.931 198.535 L 579.380 201.048 L 577.829 203.572 L 576.277 206.107 L 574.724 208.655 L 573.171 211.214 L 571.617 213.784 L 570.062 216.366 L 568.506 218.958 L 566.950 221.562 L 565.393 224.177 L 563.835 226.803 L 562.277 229.439 L 560.718 232.087 L 559.159 234.744 L 557.598 237.413 L 556.038 240.091 L 554.477 242.780 L 552.915 245.479 L 551.353 248.188 L 549.790 250.907 L 548.227 253.636 L 546.663 256.375 L 545.099 259.123 L 543.534 261.881 L 541.969 264.648 L 540.404 267.424 L 538.838 270.210 L 537.272 273.005 L 535.705 275.808 L 534.138 278.621 L 532.571 281.442 L 531.003 284.272 L 529.435 287.110 L 527.867 289.957 L 526.299 292.812 L 524.730 295.675 L 523.161 298.547 L 521.592 301.426 L 520.022 304.313 L 518.453 307.208 L 516.883 310.110 L 515.313 313.020 L 513.743 315.938 L 512.172 318.862 L 510.602 321.794 L 509.031 324.733 L 507.461 327.679 L 505.890 330.631 L 504.320 333.590 L 502.749 336.556 L 501.178 339.528 L 499.607 342.507 L 498.036 345.492 L 496.466 348.482 L 494.895 351.479 L 493.324 354.482 L 491.754 357.490 L 490.183 360.504 L 488.613 363.524 L 487.042 366.549 L 485.472 369.579 L 483.902 372.615 L 482.332 375.655 L 480.762 378.700 L 479.193 381.751 L 477.624 384.805 L 476.054 387.865 L 474.486 390.928 L 472.917 393.996 L 471.349 397.069 L 469.780 400.145 L 468.213 403.225 L 466.645 406.309 L 465.078 409.397 L 463.511 412.488 L 461.945 415.583 L 460.379 418.681 L 458.813 421.783 L 457.248 424.887 L 455.683 427.995 L 454.119 431.105 L 452.555 434.218 L 450.991 437.333 L 449.428 440.451 L 447.866 443.572 L 446.304 446.694 L 444.742 449.819 L 443.182 452.946 L 441.621 456.074 L 440.061 459.205 L 438.502 462.337 L 436.944 465.470 L 435.386 468.605 L 433.828 471.741 L 432.272 474.878 L 430.716 478.016 L 429.161 481.155 L 427.606 484.295 L 426.052 487.435 L 424.499 490.576 L 422.946 493.717 L 421.395 496.858 L 419.844 500.000 L 418.294 503.142 L 416.745 506.283 L 415.196 509.424 L 413.649 512.565 L 412.102 515.705 L 410.556 518.845 L 409.011 521.984 L 407.467 525.122 L 405.924 528.259 L 404.381 531.395 L 402.840 534.530 L 401.300 537.663 L 399.760 540.795 L 398.222 543.926 L 396.684 547.054 L 395.148 550.181 L 393.613 553.306 L 392.078 556.428 L 390.545 559.549 L 389.013 562.667 L 387.482 565.782 L 385.952 568.895 L 384.423 572.005 L 382.895 575.113 L 381.369 578.217 L 379.844 581.319 L 378.319 584.417 L 376.796 587.512 L 375.275 590.603 L 373.754 593.691 L 372.235 596.775 L 370.717 599.855 L 369.200 602.931 L 367.685 606.004 L 366.170 609.072 L 364.658 612.135 L 363.146 615.195 L 361.636 618.249 L 360.127 621.300 L 358.620 624.345 L 357.114 627.385 L 355.609 630.421 L 354.106 633.451 L 352.604 636.476 L 351.104 639.496 L 349.605 642.510 L 348.108 645.518 L 346.612 648.521 L 345.118 651.518 L 343.625 654.508 L 342.134 657.493 L 340.644 660.472 L 339.156 663.444 L 337.670 666.410 L 336.185 669.369 L 334.702 672.321 L 333.220 675.267 L 331.740 678.206 L 330.261 681.138 L 328.785 684.062 L 327.310 686.980 L 325.837 689.890 L 324.365 692.792 L 322.895 695.687 L 321.427 698.574 L 319.961 701.453 L 318.496 704.325 L 317.033 707.188 L 315.573 710.043 L 314.113 712.890 L 312.656 715.728 L 311.201 718.558 L 309.747 721.379 L 308.295 724.192 L 306.846 726.995 L 305.398 729.790 L 303.952 732.576 L 302.508 735.352 L 301.066 738.119 L 299.625 740.877 L 298.187 743.625 L 296.751 746.364 L 295.317 749.093 L 293.885 751.812 L 292.455 754.521 L 291.027 757.220 L 289.601 759.909 L 288.177 762.587 L 286.755 765.256 L 285.335 767.913 L 283.918 770.561 L 282.502 773.197 L 281.089 775.823 L 279.678 778.438 L 278.269 781.042 L 276.862 783.634 L 275.457 786.216 L 274.055 788.786 L 272.655 791.345 L 271.257 793.893 L 269.861 796.428 L 268.468 798.952 L 267.077 801.465 L 265.688 803.965 L 264.302 806.454 L 262.917 808.930 L 261.536 811.394 L 260.156 813.846 L 258.779 816.285 L 257.404 818.712 L 256.032 821.126 L 254.662 823.528 L 253.295 825.917 L 251.930 828.293 L 250.567 830.656 L 249.207 833.006 L 247.849 835.343 L 246.494 837.666 L 245.141 839.977 L 243.791 842.274 L 242.443 844.557 L 241.098 846.827 L 239.756 849.083 L 238.416 851.325 L 237.078 853.553 L 235.744 855.768 L 234.412 857.968 L 233.082 860.155 L 231.755 862.327 L 230.431 864.484 L 229.109 866.628 L 227.790 868.757 L 226.474 870.871 L 225.160 872.971 L 223.850 875.056 L 222.541 877.126 L 221.236 879.181 L 219.933 881.221 L 218.634 883.247 L 217.336 885.257 L 216.042 887.252 L 214.751 889.231 L 213.462 891.195 L 212.176 893.144 L 210.893 895.078 L 209.613 896.995 L 208.336 898.897 L 207.061 900.783 L 205.790 902.654 L 204.521 904.508 L 203.255 906.347 L 201.993 908.170 L 200.733 909.976 L 199.476 911.766 L 198.222 913.540 L 196.971 915.298 L 195.723 917.039 L 194.478 918.764 L 193.236 920.472 L 191.997 922.164 L 190.761 923.839 L 189.529 925.497 L 188.299 927.139 L 187.072 928.763 L 185.849 930.371 L 184.628 931.962 L 183.411 933.535 L 182.197 935.092 L 180.985 936.631 L 179.777 938.153 L 178.573 939.658 L 177.371 941.146 L 176.173 942.616 L 174.977 944.068 L 173.785 945.503 L 172.597 946.921 L 171.411 948.321 L 170.229 949.703 L 169.050 951.067 L 167.874 952.414 L 166.701 953.742 L 165.532 955.053 L 164.366 956.346 L 163.203 957.621 L 162.044 958.877 L 160.888 960.116 L 159.735 961.336 L 158.586 962.539 L 157.440 963.723 L 156.298 964.888 L 155.159 966.036 L 154.023 967.164 L 152.891 968.275 L 151.762 969.367 L 150.636 970.440 L 149.514 971.495 L 148.396 972.532 L 147.281 973.549 L 146.169 974.548 L 145.061 975.528 L 143.956 976.490 L 142.855 977.432 L 141.758 978.356 L 140.664 979.261 L 139.573 980.147 L 138.486 981.014 L 137.403 981.862 L 136.323 982.691 L 135.247 983.501 L 134.174 984.292 L 133.105 985.063 L 132.040 985.816 L 130.978 986.549 L 129.920 987.263 L 128.866 987.958 L 127.815 988.634 L 126.768 989.290 L 125.725 989.928 L 124.685 990.545 L 123.649 991.144 L 122.617 991.723 L 121.588 992.282 L 120.563 992.822 L 119.542 993.343 L 118.525 993.844 L 117.511 994.326 L 116.501 994.788 L 115.495 995.231 L 114.493 995.654 L 113.495 996.057 L 112.500 996.441 L 111.509 996.806 L 110.522 997.150 L 109.539 997.476 L 108.560 997.781 L 107.585 998.067 L 106.613 998.333 L 105.646 998.579 L 104.682 998.806 L 103.722 999.013 L 102.766 999.201 L 101.814 999.368 L 100.866 999.516 L 99.922 999.645 L 98.982 999.753 L 98.046 999.842 L 97.113 999.911 L 96.185 999.961 L 95.261 999.990 L 94.340 1000.000 L 93.424 999.990 L 92.512 999.961 L 91.604 999.911 L 90.699 999.842 L 89.799 999.753 L 88.903 999.645 L 88.011 999.516 L 87.123 999.368 L 86.239 999.201 L 85.359 999.013 L 84.483 998.806 L 83.612 998.579 L 82.744 998.333 L 81.881 998.067 L 81.021 997.781 L 80.166 997.476 L 79.315 997.150 L 78.468 996.806 L 77.626 996.441 L 76.787 996.057 L 75.953 995.654 L 75.123 995.231 L 74.297 994.788 L 73.475 994.326 L 72.657 993.844 L 71.844 993.343 L 71.035 992.822 L 70.230 992.282 L 69.429 991.723 L 68.633 991.144 L 67.841 990.545 L 67.053 989.928 L 66.269 989.290 L 65.490 988.634 L 64.715 987.958 L 63.944 987.263 L 63.178 986.549 L 62.415 985.816 L 61.658 985.063 L 60.904 984.292 L 60.155 983.501 L 59.410 982.691 L 58.670 981.862 L 57.934 981.014 L 57.202 980.147 L 56.474 979.261 L 55.751 978.356 L 55.033 977.432 L 54.319 976.490 L 53.609 975.528 L 52.903 974.548 L 52.202 973.549 L 51.506 972.532 L 50.814 971.495 L 50.126 970.440 L 49.443 969.367 L 48.764 968.275 L 48.089 967.164 L 47.419 966.036 L 46.754 964.888 L 46.093 963.723 L 45.436 962.539 L 44.784 961.336 L 44.137 960.116 L 43.494 958.877 L 42.855 957.621 L 42.221 956.346 L 41.592 955.053 L 40.967 953.742 L 40.346 952.414 L 39.730 951.067 L 39.119 949.703 L 38.512 948.321 L 37.910 946.921 L 37.312 945.503 L 36.719 944.068 L 36.131 942.616 L 35.547 941.146 L 34.967 939.658 L 34.392 938.153 L 33.822 936.631 L 33.257 935.092 L 32.696 933.535 L 32.139 931.962 L 31.588 930.371 L 31.040 928.763 L 30.498 927.139 L 29.960 925.497 L 29.427 923.839 L 28.898 922.164 L 28.374 920.472 L 27.855 918.764 L 27.340 917.039 L 26.830 915.298 L 26.325 913.540 L 25.824 911.766 L 25.328 909.976 L 24.837 908.170 L 24.351 906.347 L 23.869 904.508 L 23.391 902.654 L 22.919 900.783 L 22.451 898.897 L 21.988 896.995 L 21.530 895.078 L 21.076 893.144 L 20.627 891.195 L 20.183 889.231 L 19.744 887.252 L 19.309 885.257 L 18.879 883.247 L 18.454 881.221 L 18.033 879.181 L 17.618 877.126 L 17.207 875.056 L 16.801 872.971 L 16.399 870.871 L 16.003 868.757 L 15.611 866.628 L 15.224 864.484 L 14.842 862.327 L 14.464 860.155 L 14.091 857.968 L 13.723 855.768 L 13.360 853.553 L 13.002 851.325 L 12.649 849.083 L 12.300 846.827 L 11.956 844.557 L 11.617 842.274 L 11.283 839.977 L 10.953 837.666 L 10.629 835.343 L 10.309 833.006 L 9.994 830.656 L 9.684 828.293 L 9.379 825.917 L 9.078 823.528 L 8.783 821.126 L 8.492 818.712 L 8.206 816.285 L 7.925 813.846 L 7.649 811.394 L 7.378 808.930 L 7.112 806.454 L 6.850 803.965 L 6.593 801.465 L 6.341 798.952 L 6.095 796.428 L 5.852 793.893 L 5.615 791.345 L 5.383 788.786 L 5.156 786.216 L 4.933 783.634 L 4.715 781.042 L 4.503 778.438 L 4.295 775.823 L 4.092 773.197 L 3.894 770.561 L 3.700 767.913 L 3.512 765.256 L 3.329 762.587 L 3.150 759.909 L 2.977 757.220 L 2.808 754.521 L 2.644 751.812 L 2.485 749.093 L 2.331 746.364 L 2.182 743.625 L 2.038 740.877 L 1.899 738.119 L 1.765 735.352 L 1.635 732.576 L 1.511 729.790 L 1.391 726.995 L 1.276 724.192 L 1.167 721.379 L 1.062 718.558 L 0.962 715.728 L 0.867 712.890 L 0.777 710.043 L 0.692 707.188 L 0.612 704.325 L 0.537 701.453 L 0.466 698.574 L 0.401 695.687 L 0.341 692.792 L 0.285 689.890 L 0.235 686.980 L 0.189 684.062 L 0.148 681.138 L 0.112 678.206 L 0.082 675.267 L 0.056 672.321 L 0.035 669.369 L 0.019 666.410 L 0.008 663.444 L 0.001 660.472 L 0.000 657.493 L 0.004 654.508 L 0.012 651.518 L 0.026 648.521 L 0.045 645.518 L 0.068 642.510 L 0.096 639.496 L 0.130 636.476 L 0.168 633.451 L 0.211 630.421 L 0.259 627.385 L 0.312 624.345 L 0.370 621.300 L 0.433 618.249 L 0.501 615.195 L 0.574 612.135 L 0.651 609.072 L 0.734 606.004 L 0.822 602.931 L 0.914 599.855 L 1.011 596.775 L 1.114 593.691 L 1.221 590.603 L 1.333 587.512 L 1.450 584.417 L 1.572 581.319 L 1.699 578.217 L 1.831 575.113 L 1.968 572.005 L 2.110 568.895 L 2.256 565.782 L 2.408 562.667 L 2.564 559.549 L 2.725 556.428 L 2.892 553.306 L 3.063 550.181 L 3.239 547.054 L 3.420 543.926 L 3.606 540.795 L 3.796 537.663 L 3.992 534.530 L 4.193 531.395 L 4.398 528.259 L 4.608 525.122 L 4.824 521.984 L 5.044 518.845 L 5.269 515.705 L 5.499 512.565 L 5.733 509.424 L 5.973 506.283 L 6.217 503.142 L 6.467 500.000 L 6.721 496.858 L 6.980 493.717 L 7.244 490.576 L 7.513 487.435 L 7.787 484.295 L 8.065 481.155 L 8.349 478.016 L 8.637 474.878 L 8.930 471.741 L 9.228 468.605 L 9.531 465.470 L 9.839 462.337 L 10.151 459.205 L 10.468 456.074 L 10.791 452.946 L 11.118 449.819 L 11.449 446.694 L 11.786 443.572 L 12.127 440.451 L 12.474 437.333 L 12.825 434.218 L 13.181 431.105 L 13.541 427.995 L 13.907 424.887 L 14.277 421.783 L 14.652 418.681 L 15.032 415.583 L 15.417 412.488 L 15.806 409.397 L 16.200 406.309 L 16.599 403.225 L 17.003 400.145 L 17.412 397.069 L 17.825 393.996 L 18.243 390.928 L 18.666 387.865 L 19.094 384.805 L 19.526 381.751 L 19.963 378.700 L 20.405 375.655 L 20.851 372.615 L 21.302 369.579 L 21.758 366.549 L 22.219 363.524 L 22.685 360.504 L 23.155 357.490 L 23.630 354.482 L 24.109 351.479 L 24.593 348.482 L 25.082 345.492 L 25.576 342.507 L 26.074 339.528 L 26.577 336.556 L 27.085 333.590 L 27.597 330.631 L 28.114 327.679 L 28.636 324.733 L 29.162 321.794 L 29.693 318.862 L 30.228 315.938 L 30.769 313.020 L 31.313 310.110 L 31.863 307.208 L 32.417 304.313 L 32.976 301.426 L 33.539 298.547 L 34.107 295.675 L 34.679 292.812 L 35.257 289.957 L 35.838 287.110 L 36.424 284.272 L 37.015 281.442 L 37.611 278.621 L 38.211 275.808 L 38.815 273.005 L 39.424 270.210 L 40.038 267.424 L 40.656 264.648 L 41.279 261.881 L 41.906 259.123 L 42.538 256.375 L 43.174 253.636 L 43.815 250.907 L 44.460 248.188 L 45.110 245.479 L 45.764 242.780 L 46.423 240.091 L 47.086 237.413 L 47.754 234.744 L 48.426 232.087 L 49.103 229.439 L 49.784 226.803 L 50.469 224.177 L 51.159 221.562 L 51.854 218.958 L 52.552 216.366 L 53.256 213.784 L 53.963 211.214 L 54.675 208.655 L 55.392 206.107 L 56.112 203.572 L 56.838 201.048 L 57.567 198.535 L 58.301 196.035 L 59.039 193.546 L 59.782 191.070 L 60.529 188.606 L 61.280 186.154 L 62.036 183.715 L 62.796 181.288 L 63.560 178.874 L 64.329 176.472 L 65.102 174.083 L 65.879 171.707 L 66.660 169.344 L 67.446 166.994 L 68.236 164.657 L 69.031 162.334 L 69.829 160.023 L 70.632 157.726 L 71.439 155.443 L 72.250 153.173 L 73.066 150.917 L 73.885 148.675 L 74.709 146.447 L 75.537 144.232 L 76.370 142.032 L 77.206 139.845 L 78.047 137.673 L 78.891 135.516 L 79.740 133.372 L 80.594 131.243 L 81.451 129.129 L 82.312 127.029 L 83.178 124.944 L 84.047 122.874 L 84.921 120.819 L 85.799 118.779 L 86.681 116.753 L 87.567 114.743 L 88.457 112.748 L 89.351 110.769 L 90.249 108.805 L 91.151 106.856 L 92.057 104.922 L 92.968 103.005 L 93.882 101.103 L 94.800 99.217 L 95.723 97.346 L 96.649 95.492 L 97.579 93.653 L 98.513 91.830 L 99.451 90.024 L 100.394 88.234 L 101.340 86.460 L 102.290 84.702 L 103.244 82.961 L 104.202 81.236 L 105.163 79.528 L 106.129 77.836 L 107.099 76.161 L 108.072 74.503 L 109.049 72.861 L 110.031 71.237 L 111.016 69.629 L 112.004 68.038 L 112.997 66.465 L 113.994 64.908 L 114.994 63.369 L 115.998 61.847 L 117.006 60.342 L 118.018 58.854 L 119.033 57.384 L 120.052 55.932 L 121.075 54.497 L 122.102 53.079 L 123.132 51.679 L 124.166 50.297 L 125.204 48.933 L 126.246 47.586 L 127.291 46.258 L 128.340 44.947 L 129.393 43.654 L 130.449 42.379 L 131.509 41.123 L 132.572 39.884 L 133.640 38.664 L 134.710 37.461 L 135.785 36.277 L 136.863 35.112 L 137.944 33.964 L 139.029 32.836 L 140.118 31.725 L 141.210 30.633 L 142.306 29.560 L 143.405 28.505 L 144.508 27.468 L 145.615 26.451 L 146.724 25.452 L 147.838 24.472 L 148.955 23.510 L 150.075 22.568 L 151.199 21.644 L 152.326 20.739 L 153.456 19.853 L 154.590 18.986 L 155.728 18.138 L 156.869 17.309 L 158.013 16.499 L 159.160 15.708 L 160.311 14.937 L 161.466 14.184 L 162.623 13.451 L 163.784 12.737 L 164.949 12.042 L 166.116 11.366 L 167.287 10.710 L 168.461 10.072 L 169.639 9.455 L 170.820 8.856 L 172.004 8.277 L 173.191 7.718 L 174.381 7.178 L 175.575 6.657 L 176.772 6.156 L 177.972 5.674 L 179.175 5.212 L 180.381 4.769 L 181.591 4.346 L 182.803 3.943 L 184.019 3.559 L 185.238 3.194 L 186.460 2.850 L 187.685 2.524 L 188.914 2.219 L 190.145 1.933 L 191.379 1.667 L 192.617 1.421 L 193.857 1.194 L 195.100 0.987 L 196.347 0.799 L 197.596 0.632 L 198.849 0.484 L 200.104 0.355 L 201.362 0.247 L 202.624 0.158 L 203.888 0.089 L 205.155 0.039 L 206.425 0.010 L 207.698 0.000 L 208.974 0.010 L 210.253 0.039 L 211.534 0.089 L 212.819 0.158 L 214.106 0.247 L 215.396 0.355 L 216.689 0.484 L 217.985 0.632 L 219.283 0.799 L 220.585 0.987 L 221.889 1.194 L 223.195 1.421 L 224.505 1.667 L 225.817 1.933 L 227.132 2.219 L 228.450 2.524 L 229.770 2.850 L 231.093 3.194 L 232.418 3.559 L 233.747 3.943 L 235.077 4.346 L 236.411 4.769 L 237.747 5.212 L 239.086 5.674 L 240.427 6.156 L 241.771 6.657 L 243.117 7.178 L 244.466 7.718 L 245.817 8.277 L 247.171 8.856 L 248.528 9.455 L 249.887 10.072 L 251.248 10.710 L 252.612 11.366 L 253.978 12.042 L 255.347 12.737 L 256.718 13.451 L 258.092 14.184 L 259.467 14.937 L 260.846 15.708 L 262.226 16.499 L 263.609 17.309 L 264.995 18.138 L 266.382 18.986 L 267.772 19.853 L 269.165 20.739 L 270.559 21.644 L 271.956 22.568 L 273.355 23.510 L 274.756 24.472 L 276.160 25.452 L 277.565 26.451 L 278.973 27.468 L 280.383 28.505 L 281.795 29.560 L 283.210 30.633 L 284.626 31.725 L 286.045 32.836 L 287.466 33.964 L 288.889 35.112 L 290.314 36.277 L 291.741 37.461 L 293.170 38.664 L 294.601 39.884 L 296.034 41.123 L 297.469 42.379 L 298.906 43.654 L 300.346 44.947 L 301.787 46.258 L 303.230 47.586 L 304.675 48.933 L 306.122 50.297 L 307.571 51.679 L 309.021 53.079 L 310.474 54.497 L 311.928 55.932 L 313.385 57.384 L 314.843 58.854 L 316.303 60.342 L 317.765 61.847 L 319.229 63.369 L 320.694 64.908 L 322.161 66.465 L 323.630 68.038 L 325.101 69.629 L 326.573 71.237 L 328.047 72.861 L 329.523 74.503 L 331.001 76.161 L 332.480 77.836 L 333.961 79.528 L 335.443 81.236 L 336.927 82.961 L 338.413 84.702 L 339.900 86.460 L 341.389 88.234 L 342.880 90.024 L 344.372 91.830 L 345.865 93.653 L 347.360 95.492 L 348.857 97.346 L 350.355 99.217 L 351.854 101.103 L 353.355 103.005 L 354.858 104.922 L 356.362 106.856 L 357.867 108.805 L 359.374 110.769 L 360.882 112.748 L 362.391 114.743 L 363.902 116.753 L 365.414 118.779 L 366.928 120.819 L 368.442 122.874 L 369.959 124.944 L 371.476 127.029 L 372.995 129.129 L 374.514 131.243 L 376.036 133.372 L 377.558 135.516 L 379.082 137.673 L 380.606 139.845 L 382.132 142.032 L 383.659 144.232 L 385.188 146.447 L 386.717 148.675 L 388.247 150.917 L 389.779 153.173 L 391.312 155.443 L 392.846 157.726 L 394.380 160.023 L 395.916 162.334 L 397.453 164.657 L 398.991 166.994 L 400.530 169.344 L 402.070 171.707 L 403.611 174.083 L 405.152 176.472 L 406.695 178.874 L 408.239 181.288 L 409.783 183.715 L 411.329 186.154 L 412.875 188.606 L 414.422 191.070 L 415.970 193.546 L 417.519 196.035 L 419.069 198.535 L 420.620 201.048 L 422.171 203.572 L 423.723 206.107 L 425.276 208.655 L 426.829 211.214 L 428.383 213.784 L 429.938 216.366 L 431.494 218.958 L 433.050 221.562 L 434.607 224.177 L 436.165 226.803 L 437.723 229.439 L 439.282 232.087 L 440.841 234.744 L 442.402 237.413 L 443.962 240.091 L 445.523 242.780 L 447.085 245.479 L 448.647 248.188 L 450.210 250.907 L 451.773 253.636 L 453.337 256.375 L 454.901 259.123 L 456.466 261.881 L 458.031 264.648 L 459.596 267.424 L 461.162 270.210 L 462.728 273.005 L 464.295 275.808 L 465.862 278.621 L 467.429 281.442 L 468.997 284.272 L 470.565 287.110 L 472.133 289.957 L 473.701 292.812 L 475.270 295.675 L 476.839 298.547 L 478.408 301.426 L 479.978 304.313 L 481.547 307.208 L 483.117 310.110 L 484.687 313.020 L 486.257 315.938 L 487.828 318.862 L 489.398 321.794 L 490.969 324.733 L 492.539 327.679 L 494.110 330.631 L 495.680 333.590 L 497.251 336.556 L 498.822 339.528 L 500.393 342.507 L 501.964 345.492 L 503.534 348.482 L 505.105 351.479 L 506.676 354.482 L 508.246 357.490 L 509.817 360.504 L 511.387 363.524 L 512.958 366.549 L 514.528 369.579 L 516.098 372.615 L 517.668 375.655 L 519.238 378.700 L 520.807 381.751 L 522.376 384.805 L 523.946 387.865 L 525.514 390.928 L 527.083 393.996 L 528.651 397.069 L 530.220 400.145 L 531.787 403.225 L 533.355 406.309 L 534.922 409.397 L 536.489 412.488 L 538.055 415.583 L 539.621 418.681 L 541.187 421.783 L 542.752 424.887 L 544.317 427.995 L 545.881 431.105 L 547.445 434.218 L 549.009 437.333 L 550.572 440.451 L 552.134 443.572 L 553.696 446.694 L 555.258 449.819 L 556.818 452.946 L 558.379 456.074 L 559.939 459.205 L 561.498 462.337 L 563.056 465.470 L 564.614 468.605 L 566.172 471.741 L 567.728 474.878 L 569.284 478.016 L 570.839 481.155 L 572.394 484.295 L 573.948 487.435 L 575.501 490.576 L 577.054 493.717 L 578.605 496.858 L 580.156 500.000" fill="none" stroke="black" stroke-width="12.0" stroke-linecap="round" stroke-linejoin="round" vector-effect="non-scaling-stroke"/>
</svg>