<svg xmlns="http://www.w3.org/2000/svg" viewBox="-6.000 -6.000 1012.000 1012.000" preserveAspectRatio="xMidYMid meet">
    <path d="M 970.440 500.000 L 972.016 506.283 L 973.549 512.565 L 975.041 518.845 L 976.490 525.122 L 977.897 531.395 L 979.261 537.663 L 980.583 543.926 L 981.862 550.181 L 983.098 556.428 L 984.292 562.667 L 985.442 568.895 L 986.549 575.113 L 987.613 581.319 L 988.634 587.512 L 989.611 593.691 L 990.545 599.855 L 991.436 606.004 L 992.282 612.135 L 993.085 618.249 L 993.844 624.345 L 994.559 630.421 L 995.231 636.476 L 995.858 642.510 L 996.441 648.521 L 996.980 654.508 L 997.476 660.472 L 997.926 666.410 L 998.333 672.321 L 998.695 678.206 L 999.013 684.062 L 999.287 689.890 L 999.516 695.687 L 999.701 701.453 L 999.842 707.188 L 999.938 712.890 L 999.990 718.558 L 999.998 724.192 L 999.961 729.790 L 999.879 735.352 L 999.753 740.877 L 999.583 746.364 L 999.368 751.812 L 999.110 757.220 L 998.806 762.587 L 998.459 767.913 L 998.067 773.197 L 997.631 778.438 L 997.150 783.634 L 996.626 788.786 L 996.057 793.893 L 995.445 798.952 L 994.788 803.965 L 994.087 808.930 L 993.343 813.846 L 992.555 818.712 L 991.723 823.528 L 990.847 828.293 L 989.928 833.006 L 988.965 837.666 L 987.958 842.274 L 986.909 846.827 L 985.816 851.325 L 984.680 855.768 L 983.501 860.155 L 982.279 864.484 L 981.014 868.757 L 979.706 872.971 L 978.356 877.126 L 976.963 881.221 L 975.528 885.257 L 974.051 889.231 L 972.532 893.144 L 970.970 896.995 L 969.367 900.783 L 967.722 904.508 L 966.036 908.170 L 964.308 911.766 L 962.539 915.298 L 960.728 918.764 L 958.877 922.164 L 956.985 925.497 L 955.053 928.763 L 953.080 931.962 L 951.067 935.092 L 949.014 938.153 L 946.921 941.146 L 944.788 944.068 L 942.616 946.921 L 940.404 949.703 L 938.153 952.414 L 935.864 955.053 L 933.535 957.621 L 931.168 960.116 L 928.763 962.539 L 926.320 964.888 L 923.839 967.164 L 921.320 969.367 L 918.764 971.495 L 916.171 973.549 L 913.540 975.528 L 910.873 977.432 L 908.170 979.261 L 905.430 981.014 L 902.654 982.691 L 899.842 984.292 L 896.995 985.816 L 894.113 987.263 L 891.195 988.634 L 888.243 989.928 L 885.257 991.144 L 882.236 992.282 L 879.181 993.343 L 876.092 994.326 L 872.971 995.231 L 869.816 996.057 L 866.628 996.806 L 863.407 997.476 L 860.155 998.067 L 856.870 998.579 L 853.553 999.013 L 850.206 999.368 L 846.827 999.645 L 843.417 999.842 L 839.977 999.961 L 836.506 1000.000 L 833.006 999.961 L 829.476 999.842 L 825.917 999.645 L 822.329 999.368 L 818.712 999.013 L 815.067 998.579 L 811.394 998.067 L 807.693 997.476 L 803.965 996.806 L 800.210 996.057 L 796.428 995.231 L 792.620 994.326 L 788.786 993.343 L 784.927 992.282 L 781.042 991.144 L 777.132 989.928 L 773.197 988.634 L 769.238 987.263 L 765.256 985.816 L 761.249 984.292 L 757.220 982.691 L 753.167 981.014 L 749.093 979.261 L 744.996 977.432 L 740.877 975.528 L 736.737 973.549 L 732.576 971.495 L 728.394 969.367 L 724.192 967.164 L 719.970 964.888 L 715.728 962.539 L 711.467 960.116 L 707.188 957.621 L 702.890 955.053 L 698.574 952.414 L 694.240 949.703 L 689.890 946.921 L 685.522 944.068 L 681.138 941.146 L 676.737 938.153 L 672.321 935.092 L 667.890 931.962 L 663.444 928.763 L 658.983 925.497 L 654.508 922.164 L 650.020 918.764 L 645.518 915.298 L 641.003 911.766 L 636.476 908.170 L 631.937 904.508 L 627.385 900.783 L 622.823 896.995 L 618.249 893.144 L 613.666 889.231 L 609.072 885.257 L 604.468 881.221 L 599.855 877.126 L 595.233 872.971 L 590.603 868.757 L 585.965 864.484 L 581.319 860.155 L 576.665 855.768 L 572.005 851.325 L 567.339 846.827 L 562.667 842.274 L 557.989 837.666 L 553.306 833.006 L 548.618 828.293 L 543.926 823.528 L 539.230 818.712 L 534.530 813.846 L 529.827 808.930 L 525.122 803.965 L 520.415 798.952 L 515.705 793.893 L 510.995 788.786 L 506.283 783.634 L 501.571 778.438 L 496.858 773.197 L 492.146 767.913 L 487.435 762.587 L 482.725 757.220 L 478.016 751.812 L 473.309 746.364 L 468.605 740.877 L 463.903 735.352 L 459.205 729.790 L 454.510 724.192 L 449.819 718.558 L 445.133 712.890 L 440.451 707.188 L 435.775 701.453 L 431.105 695.687 L 426.441 689.890 L 421.783 684.062 L 417.132 678.206 L 412.488 672.321 L 407.853 666.410 L 403.225 660.472 L 398.606 654.508 L 393.996 648.521 L 389.396 642.510 L 384.805 636.476 L 380.225 630.421 L 375.655 624.345 L 371.096 618.249 L 366.549 612.135 L 362.014 606.004 L 357.490 599.855 L 352.980 593.691 L 348.482 587.512 L 343.998 581.319 L 339.528 575.113 L 335.072 568.895 L 330.631 562.667 L 326.205 556.428 L 321.794 550.181 L 317.399 543.926 L 313.020 537.663 L 308.658 531.395 L 304.313 525.122 L 299.985 518.845 L 295.675 512.565 L 291.384 506.283 L 287.110 500.000 L 282.856 493.717 L 278.621 487.435 L 274.405 481.155 L 270.210 474.878 L 266.035 468.605 L 261.881 462.337 L 257.748 456.074 L 253.636 449.819 L 249.547 443.572 L 245.479 437.333 L 241.435 431.105 L 237.413 424.887 L 233.414 418.681 L 229.439 412.488 L 225.489 406.309 L 221.562 400.145 L 217.661 393.996 L 213.784 387.865 L 209.933 381.751 L 206.107 375.655 L 202.308 369.579 L 198.535 363.524 L 194.789 357.490 L 191.070 351.479 L 187.379 345.492 L 183.715 339.528 L 180.079 333.590 L 176.472 327.679 L 172.894 321.794 L 169.344 315.938 L 165.824 310.110 L 162.334 304.313 L 158.873 298.547 L 155.443 292.812 L 152.044 287.110 L 148.675 281.442 L 145.338 275.808 L 142.032 270.210 L 138.758 264.648 L 135.516 259.123 L 132.306 253.636 L 129.129 248.188 L 125.985 242.780 L 122.874 237.413 L 119.797 232.087 L 116.753 226.803 L 113.744 221.562 L 110.769 216.366 L 107.828 211.214 L 104.922 206.107 L 102.052 201.048 L 99.217 196.035 L 96.417 191.070 L 93.653 186.154 L 90.925 181.288 L 88.234 176.472 L 85.579 171.707 L 82.961 166.994 L 80.380 162.334 L 77.836 157.726 L 75.330 153.173 L 72.861 148.675 L 70.431 144.232 L 68.038 139.845 L 65.684 135.516 L 63.369 131.243 L 61.092 127.029 L 58.854 122.874 L 56.656 118.779 L 54.497 114.743 L 52.377 110.769 L 50.297 106.856 L 48.258 103.005 L 46.258 99.217 L 44.298 95.492 L 42.379 91.830 L 40.501 88.234 L 38.664 84.702 L 36.867 81.236 L 35.112 77.836 L 33.398 74.503 L 31.725 71.237 L 30.094 68.038 L 28.505 64.908 L 26.957 61.847 L 25.452 58.854 L 23.989 55.932 L 22.568 53.079 L 21.189 50.297 L 19.853 47.586 L 18.560 44.947 L 17.309 42.379 L 16.101 39.884 L 14.937 37.461 L 13.815 35.112 L 12.737 32.836 L 11.701 30.633 L 10.710 28.505 L 9.761 26.451 L 8.856 24.472 L 7.995 22.568 L 7.178 20.739 L 6.404 18.986 L 5.674 17.309 L 4.988 15.708 L 4.346 14.184 L 3.748 12.737 L 3.194 11.366 L 2.685 10.072 L 2.219 8.856 L 1.798 7.718 L 1.421 6.657 L 1.088 5.674 L 0.799 4.769 L 0.555 3.943 L 0.355 3.194 L 0.200 2.524 L 0.089 1.933 L 0.022 1.421 L 0.000 0.987 L 0.022 0.632 L 0.089 0.355 L 0.200 0.158 L 0.355 0.039 L 0.555 0.000 L 0.799 0.039 L 1.088 0.158 L 1.421 0.355 L 1.798 0.632 L 2.219 0.987 L 2.685 1.421 L 3.194 1.933 L 3.748 2.524 L 4.346 3.194 L 4.988 3.943 L 5.674 4.769 L 6.404 5.674 L 7.178 6.657 L 7.995 7.718 L 8.856 8.856 L 9.761 10.072 L 10.710 11.366 L 11.701 12.737 L 12.737 14.184 L 13.815 15.708 L 14.937 17.309 L 16.101 18.986 L 17.309 20.739 L 18.560 22.568 L 19.853 24.472 L 21.189 26.451 L 22.568 28.505 L 23.989 30.633 L 25.452 32.836 L 26.957 35.112 L 28.505 37.461 L 30.094 39.884 L 31.725 42.379 L 33.398 44.947 L 35.112 47.586 L 36.867 50.297 L 38.664 53.079 L 40.501 55.932 L 42.379 58.854 L 44.298 61.847 L 46.258 64.908 L 48.258 68.038 L 50.297 71.237 L 52.377 74.503 L 54.497 77.836 L 56.656 81.236 L 58.854 84.702 L 61.092 88.234 L 63.369 91.830 L 65.684 95.492 L 68.038 99.217 L 70.431 103.005 L 72.861 106.856 L 75.330 110.769 L 77.836 114.743 L 80.380 118.779 L 82.961 122.874 L 85.579 127.029 L 88.234 131.243 L 90.925 135.516 L 93.653 139.845 L 96.417 144.232 L 99.217 148.675 L 102.052 153.173 L 104.922 157.726 L 107.828 162.334 L 110.769 166.994 L 113.744 171.707 L 116.753 176.472 L 119.797 181.288 L 122.874 186.154 L 125.985 191.070 L 129.129 196.035 L 132.306 201.048 L 135.516 206.107 L 138.758 211.214 L 142.032 216.366 L 145.338 221.562 L 148.675 226.803 L 152.044 232.087 L 155.443 237.413 L 158.873 242.780 L 162.334 248.188 L 165.824 253.636 L 169.344 259.123 L 172.894 264.648 L 176.472 270.210 L 180.079 275.808 L 183.715 281.442 L 187.379 287.110 L 191.070 292.812 L 194.789 298.547 L 198.535 304.313 L 202.308 310.110 L 206.107 315.938 L 209.933 321.794 L 213.784 327.679 L 217.661 333.590 L 221.562 339.528 L 225.489 345.492 L 229.439 351.479 L 233.414 357.490 L 237.413 363.524 L 241.435 369.579 L 245.479 375.655 L 249.547 381.751 L 253.636 387.865 L 257.748 393.996 L 261.881 400.145 L 266.035 406.309 L 270.210 412.488 L 274.405 418.681 L 278.621 424.887 L 282.856 431.105 L 287.110 437.333 L 291.384 443.572 L 295.675 449.819 L 299.985 456.074 L 304.313 462.337 L 308.658 468.605 L 313.020 474.878 L 317.399 481.155 L 321.794 487.435 L 326.205 493.717 L 330.631 500.000 L 335.072 506.283 L 339.528 512.565 L 343.998 518.845 L 348.482 525.122 L 352.980 531.395 L 357.490 537.663 L 362.014 543.926 L 366.549 550.181 L 371.096 556.428 L 375.655 562.667 L 380.225 568.895 L 384.805 575.113 L 389.396 581.319 L 393.996 587.512 L 398.606 593.691 L 403.225 599.855 L 407.853 606.004 L 412.488 612.135 L 417.132 618.249 L 421.783 624.345 L 426.441 630.421 L 431.105 636.476 L 435.775 642.510 L 440.451 648.521 L 445.133 654.508 L 449.819 660.472 L 454.510 666.410 L 459.205 672.321 L 463.903 678.206 L 468.605 684.062 L 473.309 689.890 L 478.016 695.687 L 482.725 701.453 L 487.435 707.188 L 492.146 712.890 L 496.858 718.558 L 501.571 724.192 L 506.283 729.790 L 510.995 735.352 L 515.705 740.877 L 520.415 746.364 L 525.122 751.812 L 529.827 757.220 L 534.530 762.587 L 539.230 767.913 L 543.926 773.197 L 548.618 778.438 L 553.306 783.634 L 557.989 788.786 L 562.667 793.893 L 567.339 798.952 L 572.005 803.965 L 576.665 808.930 L 581.319 813.846 L 585.965 818.712 L 590.603 823.528 L 595.233 828.293 L 599.855 833.006 L 604.468 837.666 L 609.072 842.274 L 613.666 846.827 L 618.249 851.325 L 622.823 855.768 L 627.385 860.155 L 631.937 864.484 L 636.476 868.757 L 641.003 872.971 L 645.518 877.126 L 650.020 881.221 L 654.508 885.257 L 658.983 889.231 L 663.444 893.144 L 667.890 896.995 L 672.321 900.783 L 676.737 904.508 L 681.138 908.170 L 685.522 911.766 L 689.890 915.298 L 694.240 918.764 L 698.574 922.164 L 702.890 925.497 L 707.188 928.763 L 711.467 931.962 L 715.728 935.092 L 719.970 938.153 L 724.192 941.146 L 728.394 944.068 L 732.576 946.921 L 736.737 949.703 L 740.877 952.414 L 744.996 955.053 L 749.093 957.621 L 753.167 960.116 L 757.220 962.539 L 761.249 964.888 L 765.256 967.164 L 769.238 969.367 L 773.197 971.495 L 777.132 973.549 L 781.042 975.528 L 784.927 977.432 L 788.786 979.261 L 792.620 981.014 L 796.428 982.691 L 800.210 984.292 L 803.965 985.816 L 807.693 987.263 L 811.394 988.634 L 815.067 989.928 L 818.712 991.144 L 822.329 992.282 L 825.917 993.343 L 829.476 994.326 L 833.006 995.231 L 836.506 996.057 L 839.977 996.806 L 843.417 997.476 L 846.827 998.067 L 850.206 998.579 L 853.553 999.013 L 856.870 999.368 L 860.155 999.645 L 863.407 999.842 L 866.628 999.961 L 869.816 1000.000 L 872.971 999.961 L 876.092 999.842 L 879.181 999.645 L 882.236 999.368 L 885.257 999.013 L 888.243 998.579 L 891.195 998.067 L 894.113 997.476 L 896.995 996.806 L 899.842 996.057 L 902.654 995.231 L 905.430 994.326 L 908.170 993.343 L 910.873 992.282 L 913.540 991.144 L 916.171 989.928 L 918.764 988.634 L 921.320 987.263 L 923.839 985.816 L 926.320 984.292 L 928.763 982.691 L 931.168 981.014 L 933.535 979.261 L 935.864 977.432 L 938.153 975.528 L 940.404 973.549 L 942.616 971.495 L 944.788 969.367 L 946.921 967.164 L 949.014 964.888 L 951.067 962.539 L 953.080 960.116 L 955.053 957.621 L 956.985 955.053 L 958.877 952.414 L 960.728 949.703 L 962.539 946.921 L 964.308 944.068 L 966.036 941.146 L 967.722 938.153 L 969.367 935.092 L 970.970 931.962 L 972.532 928.763 L 974.051 925.497 L 975.528 922.164 L 976.963 918.764 L 978.356 915.298 L 979.706 911.766 L 981.014 908.170 L 982.279 904.508 L 983.501 900.783 L 984.680 896.995 L 985.816 893.144 L 986.909 889.231 L 987.958 885.257 L 988.965 881.221 L 989.928 877.126 L 990.847 872.971 L 991.723 868.757 L 992.555 864.484 L 993.343 860.155 L 994.087 855.768 L 994.788 851.325 L 995.445 846.827 L 996.057 842.274 L 996.626 837.666 L 997.150 833.006 L 997.631 828.293 L 998.067 823.528 L 998.459 818.712 L 998.806 813.846 L 999.110 808.930 L 999.368 803.965 L 999.583 798.952 L 999.753 793.893 L 999.879 788.786 L 999.961 783.634 L 999.998 778.438 L 999.990 773.197 L 999.938 767.913 L 999.842 762.587 L 999.701 757.220 L 999.516 751.812 L 999.287 746.364 L 999.013 740.877 L 998.695 735.352 L 998.333 729.790 L 997.926 724.192 L 997.476 718.558 L 996.980 712.890 L 996.441 707.188 L 995.858 701.453 L 995.231 695.687 L 994.559 689.890 L 993.844 684.062 L 993.085 678.206 L 992.282 672.321 L 991.436 666.410 L 990.545 660.472 L 989.611 654.508 L 988.634 648.521 L 987.613 642.510 L 986.549 636.476 L 985.442 630.421 L 984.292 624.345 L 983.098 618.249 L 981.862 612.135 L 980.583 606.004 L 979.261 599.855 L 977.897 593.691 L 976.490 587.512 L 975.041 581.319 L 973.549 575.113 L 972.016 568.895 L 970.440 562.667 L 968.823 556.428 L 967.164 550.181 L 965.464 543.926 L 963.723 537.663 L 961.940 531.395 L 960.116 525.122 L 958.251 518.845 L 956.346 512.565 L 954.400 506.283 L 952.414 500.000 L 950.387 493.717 L 948.321 487.435 L 946.214 481.155 L 944.068 474.878 L 941.883 468.605 L 939.658 462.337 L 937.394 456.074 L 935.092 449.819 L 932.751 443.572 L 930.371 437.333 L 927.953 431.105 L 925.497 424.887 L 923.004 418.681 L 920.472 412.488 L 917.904 406.309 L 915.298 400.145 L 912.655 393.996 L 909.976 387.865 L 907.260 381.751 L 904.508 375.655 L 901.721 369.579 L 898.897 363.524 L 896.038 357.490 L 893.144 351.479 L 890.215 345.492 L 887.252 339.528 L 884.253 333.590 L 881.221 327.679 L 878.155 321.794 L 875.056 315.938 L 871.923 310.110 L 868.757 304.313 L 865.558 298.547 L 862.327 292.812 L 859.063 287.110 L 855.768 281.442 L 852.441 275.808 L 849.083 270.210 L 845.693 264.648 L 842.274 259.123 L 838.823 253.636 L 835.343 248.188 L 831.833 242.780 L 828.293 237.413 L 824.724 232.087 L 821.126 226.803 L 817.500 221.562 L 813.846 216.366 L 810.163 211.214 L 806.454 206.107 L 802.716 201.048 L 798.952 196.035 L 795.162 191.070 L 791.345 186.154 L 787.503 181.288 L 783.634 176.472 L 779.741 171.707 L 775.823 166.994 L 771.880 162.334 L 767.913 157.726 L 763.923 153.173 L 759.909 148.675 L 755.872 144.232 L 751.812 139.845 L 747.729 135.516 L 743.625 131.243 L 739.499 127.029 L 735.352 122.874 L 731.184 118.779 L 726.995 114.743 L 722.786 110.769 L 718.558 106.856 L 714.310 103.005 L 710.043 99.217 L 705.757 95.492 L 701.453 91.830 L 697.131 88.234 L 692.792 84.702 L 688.436 81.236 L 684.062 77.836 L 679.673 74.503 L 675.267 71.237 L 670.846 68.038 L 666.410 64.908 L 661.959 61.847 L 657.493 58.854 L 653.014 55.932 L 648.521 53.079 L 644.015 50.297 L 639.496 47.586 L 634.964 44.947 L 630.421 42.379 L 625.866 39.884 L 621.300 37.461 L 616.723 35.112 L 612.135 32.836 L 607.538 30.633 L 602.931 28.505 L 598.315 26.451 L 593.691 24.472 L 589.058 22.568 L 584.417 20.739 L 579.768 18.986 L 575.113 17.309 L 570.451 15.708 L 565.782 14.184 L 561.108 12.737 L 556.428 11.366 L 551.743 10.072 L 547.054 8.856 L 542.361 7.718 L 537.663 6.657 L 532.963 5.674 L 528.259 4.769 L 523.553 3.943 L 518.845 3.194 L 514.135 2.524 L 509.424 1.933 L 504.712 1.421 L 500.000 0.987 L 495.288 0.632 L 490.576 0.355 L 485.865 0.158 L 481.155 0.039 L 476.447 0.000 L 471.741 0.039 L 467.037 0.158 L 462.337 0.355 L 457.639 0.632 L 452.946 0.987 L 448.257 1.421 L 443.572 1.933 L 438.892 2.524 L 434.218 3.194 L 429.549 3.943 L 424.887 4.769 L 420.232 5.674 L 415.583 6.657 L 410.942 7.718 L 406.309 8.856 L 401.685 10.072 L 397.069 11.366 L 392.462 12.737 L 387.865 14.184 L 383.277 15.708 L 378.700 17.309 L 374.134 18.986 L 369.579 20.739 L 365.036 22.568 L 360.504 24.472 L 355.985 26.451 L 351.479 28.505 L 346.986 30.633 L 342.507 32.836 L 338.041 35.112 L 333.590 37.461 L 329.154 39.884 L 324.733 42.379 L 320.327 44.947 L 315.938 47.586 L 311.564 50.297 L 307.208 53.079 L 302.869 55.932 L 298.547 58.854 L 294.243 61.847 L 289.957 64.908 L 285.690 68.038 L 281.442 71.237 L 277.214 74.503 L 273.005 77.836 L 268.816 81.236 L 264.648 84.702 L 260.501 88.234 L 256.375 91.830 L 252.271 95.492 L 248.188 99.217 L 244.128 103.005 L 240.091 106.856 L 236.077 110.769 L 232.087 114.743 L 228.120 118.779 L 224.177 122.874 L 220.259 127.029 L 216.366 131.243 L 212.497 135.516 L 208.655 139.845 L 204.838 144.232 L 201.048 148.675 L 197.284 153.173 L 193.546 157.726 L 189.837 162.334 L 186.154 166.994 L 182.500 171.707 L 178.874 176.472 L 175.276 181.288 L 171.707 186.154 L 168.167 191.070 L 164.657 196.035 L 161.177 201.048 L 157.726 206.107 L 154.307 211.214 L 150.917 216.366 L 147.559 221.562 L 144.232 226.803 L 140.937 232.087 L 137.673 237.413 L 134.442 242.780 L 131.243 248.188 L 128.077 253.636 L 124.944 259.123 L 121.845 264.648 L 118.779 270.210 L 115.747 275.808 L 112.748 281.442 L 109.785 287.110 L 106.856 292.812 L 103.962 298.547 L 101.103 304.313 L 98.279 310.110 L 95.492 315.938 L 92.740 321.794 L 90.024 327.679 L 87.345 333.590 L 84.702 339.528 L 82.096 345.492 L 79.528 351.479 L 76.996 357.490 L 74.503 363.524 L 72.047 369.579 L 69.629 375.655 L 67.249 381.751 L 64.908 387.865 L 62.606 393.996 L 60.342 400.145 L 58.117 406.309 L 55.932 412.488 L 53.786 418.681 L 51.679 424.887 L 49.613 431.105 L 47.586 437.333 L 45.600 443.572 L 43.654 449.819 L 41.749 456.074 L 39.884 462.337 L 38.060 468.605 L 36.277 474.878 L 34.536 481.155 L 32.836 487.435 L 31.177 493.717 L 29.560 500.000 L 27.984 506.283 L 26.451 512.565 L 24.959 518.845 L 23.510 525.122 L 22.103 531.395 L 20.739 537.663 L 19.417 543.926 L 18.138 550.181 L 16.902 556.428 L 15.708 562.667 L 14.558 568.895 L 13.451 575.113 L 12.387 581.319 L 11.366 587.512 L 10.389 593.691 L 9.455 599.855 L 8.564 606.004 L 7.718 612.135 L 6.915 618.249 L 6.156 624.345 L 5.441 630.421 L 4.769 636.476 L 4.142 642.510 L 3.559 648.521 L 3.020 654.508 L 2.524 660.472 L 2.074 666.410 L 1.667 672.321 L 1.305 678.206 L 0.987 684.062 L 0.713 689.890 L 0.484 695.687 L 0.299 701.453 L 0.158 707.188 L 0.062 712.890 L 0.010 718.558 L 0.002 724.192 L 0.039 729.790 L 0.121 735.352 L 0.247 740.877 L 0.417 746.364 L 0.632 751.812 L 0.890 757.220 L 1.194 762.587 L 1.541 767.913 L 1.933 773.197 L 2.369 778.438 L 2.850 783.634 L 3.374 788.786 L 3.943 793.893 L 4.555 798.952 L 5.212 803.965 L 5.913 808.930 L 6.657 813.846 L 7.445 818.712 L 8.277 823.528 L 9.153 828.293 L 10.072 833.006 L 11.035 837.666 L 12.042 842.274 L 13.091 846.827 L 14.184 851.325 L 15.320 855.768 L 16.499 860.155 L 17.721 864.484 L 18.986 868.757 L 20.294 872.971 L 21.644 877.126 L 23.037 881.221 L 24.472 885.257 L 25.949 889.231 L 27.468 893.144 L 29.030 896.995 L 30.633 900.783 L 32.278 904.508 L 33.964 908.170 L 35.692 911.766 L 37.461 915.298 L 39.272 918.764 L 41.123 922.164 L 43.015 925.497 L 44.947 928.763 L 46.920 931.962 L 48.933 935.092 L 50.986 938.153 L 53.079 941.146 L 55.212 944.068 L 57.384 946.921 L 59.596 949.703 L 61.847 952.414 L 64.136 955.053 L 66.465 957.621 L 68.832 960.116 L 71.237 962.539 L 73.680 964.888 L 76.161 967.164 L 78.680 969.367 L 81.236 971.495 L 83.829 973.549 L 86.460 975.528 L 89.127 977.432 L 91.830 979.261 L 94.570 981.014 L 97.346 982.691 L 100.158 984.292 L 103.005 985.816 L 105.887 987.263 L 108.805 988.634 L 111.757 989.928 L 114.743 991.144 L 117.764 992.282 L 120.819 993.343 L 123.908 994.326 L 127.029 995.231 L 130.184 996.057 L 133.372 996.806 L 136.593 997.476 L 139.845 998.067 L 143.130 998.579 L 146.447 999.013 L 149.794 999.368 L 153.173 999.645 L 156.583 999.842 L 160.023 999.961 L 163.494 1000.000 L 166.994 999.961 L 170.524 999.842 L 174.083 999.645 L 177.671 999.368 L 181.288 999.013 L 184.933 998.579 L 188.606 998.067 L 192.307 997.476 L 196.035 996.806 L 199.790 996.057 L 203.572 995.231 L 207.380 994.326 L 211.214 993.343 L 215.073 992.282 L 218.958 991.144 L 222.868 989.928 L 226.803 988.634 L 230.762 987.263 L 234.744 985.816 L 238.751 984.292 L 242.780 982.691 L 246.833 981.014 L 250.907 979.261 L 255.004 977.432 L 259.123 975.528 L 263.263 973.549 L 267.424 971.495 L 271.606 969.367 L 275.808 967.164 L 280.030 964.888 L 284.272 962.539 L 288.533 960.116 L 292.812 957.621 L 297.110 955.053 L 301.426 952.414 L 305.760 949.703 L 310.110 946.921 L 314.478 944.068 L 318.862 941.146 L 323.263 938.153 L 327.679 935.092 L 332.110 931.962 L 336.556 928.763 L 341.017 925.497 L 345.492 922.164 L 349.980 918.764 L 354.482 915.298 L 358.997 911.766 L 363.524 908.170 L 368.063 904.508 L 372.615 900.783 L 377.177 896.995 L 381.751 893.144 L 386.334 889.231 L 390.928 885.257 L 395.532 881.221 L 400.145 877.126 L 404.767 872.971 L 409.397 868.757 L 414.035 864.484 L 418.681 860.155 L 423.335 855.768 L 427.995 851.325 L 432.661 846.827 L 437.333 842.274 L 442.011 837.666 L 446.694 833.006 L 451.382 828.293 L 456.074 823.528 L 460.770 818.712 L 465.470 813.846 L 470.173 808.930 L 474.878 803.965 L 479.585 798.952 L 484.295 793.893 L 489.005 788.786 L 493.717 783.634 L 498.429 778.438 L 503.142 773.197 L 507.854 767.913 L 512.565 762.587 L 517.275 757.220 L 521.984 751.812 L 526.691 746.364 L 531.395 740.877 L 536.097 735.352 L 540.795 729.790 L 545.490 724.192 L 550.181 718.558 L 554.867 712.890 L 559.549 707.188 L 564.225 701.453 L 568.895 695.687 L 573.559 689.890 L 578.217 684.062 L 582.868 678.206 L 587.512 672.321 L 592.147 666.410 L 596.775 660.472 L 601.394 654.508 L 606.004 648.521 L 610.604 642.510 L 615.195 636.476 L 619.775 630.421 L 624.345 624.345 L 628.904 618.249 L 633.451 612.135 L 637.986 606.004 L 642.510 599.855 L 647.020 593.691 L 651.518 587.512 L 656.002 581.319 L 660.472 575.113 L 664.928 568.895 L 669.369 562.667 L 673.795 556.428 L 678.206 550.181 L 682.601 543.926 L 686.980 537.663 L 691.342 531.395 L 695.687 525.122 L 700.015 518.845 L 704.325 512.565 L 708.616 506.283 L 712.890 500.000 L 717.144 493.717 L 721.379 487.435 L 725.595 481.155 L 729.790 474.878 L 733.965 468.605 L 738.119 462.337 L 742.252 456.074 L 746.364 449.819 L 750.453 443.572 L 754.521 437.333 L 758.565 431.105 L 762.587 424.887 L 766.586 418.681 L 770.561 412.488 L 774.511 406.309 L 778.438 400.145 L 782.339 393.996 L 786.216 387.865 L 790.067 381.751 L 793.893 375.655 L 797.692 369.579 L 801.465 363.524 L 805.211 357.490 L 808.930 351.479 L 812.621 345.492 L 816.285 339.528 L 819.921 333.590 L 823.528 327.679 L 827.106 321.794 L 830.656 315.938 L 834.176 310.110 L 837.666 304.313 L 841.127 298.547 L 844.557 292.812 L 847.956 287.110 L 851.325 281.442 L 854.662 275.808 L 857.968 270.210 L 861.242 264.648 L 864.484 259.123 L 867.694 253.636 L 870.871 248.188 L 874.015 242.780 L 877.126 237.413 L 880.203 232.087 L 883.247 226.803 L 886.256 221.562 L 889.231 216.366 L 892.172 211.214 L 895.078 206.107 L 897.948 201.048 L 900.783 196.035 L 903.583 191.070 L 906.347 186.154 L 909.075 181.288 L 911.766 176.472 L 914.421 171.707 L 917.039 166.994 L 919.620 162.334 L 922.164 157.726 L 924.670 153.173 L 927.139 148.675 L 929.569 144.232 L 931.962 139.845 L 934.316 135.516 L 936.631 131.243 L 938.908 127.029 L 941.146 122.874 L 943.344 118.779 L 945.503 114.743 L 947.623 110.769 L 949.703 106.856 L 951.742 103.005 L 953.742 99.217 L 955.702 95.492 L 957.621 91.830 L 959.499 88.234 L 961.336 84.702 L 963.133 81.236 L 964.888 77.836 L 966.602 74.503 L 968.275 71.237 L 969.906 68.038 L 971.495 64.908 L 973.043 61.847 L 974.548 58.854 L 976.011 55.932 L 977.432 53.079 L 978.811 50.297 L 980.147 47.586 L 981.440 44.947 L 982.691 42.379 L 983.899 39.884 L 985.063 37.461 L 986.185 35.112 L 987.263 32.836 L 988.299 30.633 L 989.290 28.505 L 990.239 26.451 L 991.144 24.472 L 992.005 22.568 L 992.822 20.739 L 993.596 18.986 L 994.326 17.309 L 995.012 15.708 L 995.654 14.184 L 996.252 12.737 L 996.806 11.366 L 997.315 10.072 L 997.781 8.856 L 998.202 7.718 L 998.579 6.657 L 998.912 5.674 L 999.201 4.769 L 999.445 3.943 L 999.645 3.194 L 999.800 2.524 L 999.911 1.933 L 999.978 1.421 L 1000.000 0.987 L 999.978 0.632 L 999.911 0.355 L 999.800 0.158 L 999.645 0.039 L 999.445 0.000 L 999.201 0.039 L 998.912 0.158 L 998.579 0.355 L 998.202 0.632 L 997.781 0.987 L 997.315 1.421 L 996.806 1.933 L 996.252 2.524 L 995.654 3.194 L 995.012 3.943 L 994.326 4.769 L 993.596 5.674 L 992.822 6.657 L 992.005 7.718 L 991.144 8.856 L 990.239 10.072 L 989.290 11.366 L 988.299 12.737 L 987.263 14.184 L 986.185 15.708 L 985.063 17.309 L 983.899 18.986 L 982.691 20.739 L 981.440 22.568 L 980.147 24.472 L 978.811 26.451 L 977.432 28.505 L 976.011 30.633 L 974.548 32.836 L 973.043 35.112 L 971.495 37.461 L 969.906 39.884 L 968.275 42.379 L 966.602 44.947 L 964.888 47.586 L 963.133 50.297 L 961.336 53.079 L 959.499 55.932 L 957.621 58.854 L 955.702 61.847 L 953.742 64.908 L 951.742 68.038 L 949.703 71.237 L 947.623 74.503 L 945.503 77.836 L 943.344 81.236 L 941.146 84.702 L 938.908 88.234 L 936.631 91.830 L 934.316 95.492 L 931.962 99.217 L 929.569 103.005 L 927.139 106.856 L 924.670 110.769 L 922.164 114.743 L 919.620 118.779 L 917.039 122.874 L 914.421 127.029 L 911.766 131.243 L 909.075 135.516 L 906.347 139.845 L 903.583 144.232 L 900.783 148.675 L 897.948 153.173 L 895.078 157.726 L 892.172 162.334 L 889.231 166.994 L 886.256 171.707 L 883.247 176.472 L 880.203 181.288 L 877.126 186.154 L 874.015 191.070 L 870.871 196.035 L 867.694 201.048 L 864.484 206.107 L 861.242 211.214 L 857.968 216.366 L 854.662 221.562 L 851.325 226.803 L 847.956 232.087 L 844.557 237.413 L 841.127 242.780 L 837.666 248.188 L 834.176 253.636 L 830.656 259.123 L 827.106 264.648 L 823.528 270.210 L 819.921 275.808 L 816.285 281.442 L 812.621 287.110 L 808.930 292.812 L 805.211 298.547 L 801.465 304.313 L 797.692 310.110 L 793.893 315.938 L 790.067 321.794 L 786.216 327.679 L 782.339 333.590 L 778.438 339.528 L 774.511 345.492 L 770.561 351.479 L 766.586 357.490 L 762.587 363.524 L 758.565 369.579 L 754.521 375.655 L 750.453 381.751 L 746.364 387.865 L 742.252 393.996 L 738.119 400.145 L 733.965 406.309 L 729.790 412.488 L 725.595 418.681 L 721.379 424.887 L 717.144 431.105 L 712.890 437.333 L 708.616 443.572 L 704.325 449.819 L 700.015 456.074 L 695.687 462.337 L 691.342 468.605 L 686.980 474.878 L 682.601 481.155 L 678.206 487.435 L 673.795 493.717 L 669.369 500.000 L 664.928 506.283 L 660.472 512.565 L 656.002 518.845 L 651.518 525.122 L 647.020 531.395 L 642.510 537.663 L 637.986 543.926 L 633.451 550.181 L 628.904 556.428 L 624.345 562.667 L 619.775 568.895 L 615.195 575.113 L 610.604 581.319 L 606.004 587.512 L 601.394 593.691 L 596.775 599.855 L 592.147 606.004 L 587.512 612.135 L 582.868 618.249 L 578.217 624.345 L 573.559 630.421 L 568.895 636.476 L 564.225 642.510 L 559.549 648.521 L 554.867 654.508 L 550.181 660.472 L 545.490 666.410 L 540.795 672.321 L 536.097 678.206 L 531.395 684.062 L 526.691 689.890 L 521.984 695.687 L 517.275 701.453 L 512.565 707.188 L 507.854 712.890 L 503.142 718.558 L 498.429 724.192 L 493.717 729.790 L 489.005 735.352 L 484.295 740.877 L 479.585 746.364 L 474.878 751.812 L 470.173 757.220 L 465.470 762.587 L 460.770 767.913 L 456.074 773.197 L 451.382 778.438 L 446.694 783.634 L 442.011 788.786 L 437.333 793.893 L 432.661 798.952 L 427.995 803.965 L 423.335 808.930 L 418.681 813.846 L 414.035 818.712 L 409.397 823.528 L 404.767 828.293 L 400.145 833.006 L 395.532 837.666 L 390.928 842.274 L 386.334 846.827 L 381.751 851.325 L 377.177 855.768 L 372.615 860.155 L 368.063 864.484 L 363.524 868.757 L 358.997 872.971 L 354.482 877.126 L 349.980 881.221 L 345.492 885.257 L 341.017 889.231 L 336.556 893.144 L 332.110 896.995 L 327.679 900.783 L 323.263 904.508 L 318.862 908.170 L 314.478 911.766 L 310.110 915.298 L 305.760 918.764 L 301.426 922.164 L 297.110 925.497 L 292.812 928.763 L 288.533 931.962 L 284.272 935.092 L 280.030 938.153 L 275.808 941.146 L 271.606 944.068 L 267.424 946.921 L 263.263 949.703 L 259.123 952.414 L 255.004 955.053 L 250.907 957.621 L 246.833 960.116 L 242.780 962.539 L 238.751 964.888 L 234.744 967.164 L 230.762 969.367 L 226.803 971.495 L 222.868 973.549 L 218.958 975.528 L 215.073 977.432 L 211.214 979.261 L 207.380 981.014 L 203.572 982.691 L 199.790 984.292 L 196.035 985.816 L 192.307 987.263 L 188.606 988.634 L 184.933 989.928 L 181.288 991.144 L 177.671 992.282 L 174.083 993.343 L 170.524 994.326 L 166.994 995.231 L 163.494 996.057 L 160.023 996.806 L 156.583 997.476 L 153.173 998.067 L 149.794 998.579 L 146.447 999.013 L 143.130 999.368 L 139.845 999.645 L 136.593 999.842 L 133.372 999.961 L 130.184 1000.000 L 127.029 999.961 L 123.908 999.842 L 120.819 999.645 L 117.764 999.368 L 114.743 999.013 L 111.757 998.579 L 108.805 998.067 L 105.887 997.476 L 103.005 996.806 L 100.158 996.057 L 97.346 995.231 L 94.570 994.326 L 91.830 993.343 L 89.127 992.282 L 86.460 991.144 L 83.829 989.928 L 81.236 988.634 L 78.680 987.263 L 76.161 985.816 L 73.680 984.292 L 71.237 982.691 L 68.832 981.014 L 66.465 979.261 L 64.136 977.432 L 61.847 975.528 L 59.596 973.549 L 57.384 971.495 L 55.212 969.367 L 53.079 967.164 L 50.986 964.888 L 48.933 962.539 L 46.920 960.116 L 44.947 957.621 L 43.015 955.053 L 41.123 952.414 L 39.272 949.703 L 37.461 946.921 L 35.692 944.068 L 33.964 941.146 L 32.278 938.153 L 30.633 935.092 L 29.030 931.962 L 27.468 928.763 L 25.949 925.497 L 24.472 922.164 L 23.037 918.764 L 21.644 915.298 L 20.294 911.766 L 18.986 908.170 L 17.721 904.508 L 16.499 900.783 L 15.320 896.995 L 14.184 893.144 L 13.091 889.231 L 12.042 885.257 L 11.035 881.221 L 10.072 877.126 L 9.153 872.971 L 8.277 868.757 L 7.445 864.484 L 6.657 860.155 L 5.913 855.768 L 5.212 851.325 L 4.555 846.827 L 3.943 842.274 L 3.374 837.666 L 2.850 833.006 L 2.369 828.293 L 1.933 823.528 L 1.541 818.712 L 1.194 813.846 L 0.890 808.930 L 0.632 803.965 L 0.417 798.952 L 0.247 793.893 L 0.121 788.786 L 0.039 783.634 L 0.002 778.438 L 0.010 773.197 L 0.062 767.913 L 0.158 762.587 L 0.299 757.220 L 0.484 751.812 L 0.713 746.364 L 0.987 740.877 L 1.305 735.352 L 1.667 729.790 L 2.074 724.192 L 2.524 718.558 L 3.020 712.890 L 3.559 707.188 L 4.142 701.453 L 4.769 695.687 L 5.441 689.890 L 6.156 684.062 L 6.915 678.206 L 7.718 672.321 L 8.564 666.410 L 9.455 660.472 L 10.389 654.508 L 11.366 648.521 L 12.387 642.510 L 13.451 636.476 L 14.558 630.421 L 15.708 624.345 L 16.902 618.249 L 18.138 612.135 L 19.417 606.004 L 20.739 599.855 L 22.103 593.691 L 23.510 587.512 L 24.959 581.319 L 26.451 575.113 L 27.984 568.895 L 29.560 562.667 L 31.177 556.428 L 32.836 550.181 L 34.536 543.926 L 36.277 537.663 L 38.060 531.395 L 39.884 525.122 L 41.749 518.845 L 43.654 512.565 L 45.600 506.283 L 47.586 500.000 L 49.613 493.717 L 51.679 487.435 L 53.786 481.155 L 55.932 474.878 L 58.117 468.605 L 60.342 462.337 L 62.606 456.074 L 64.908 449.819 L 67.249 443.572 L 69.629 437.333 L 72.047 431.105 L 74.503 424.887 L 76.996 418.681 L 79.528 412.488 L 82.096 406.309 L 84.702 400.145 L 87.345 393.996 L 90.024 387.865 L 92.740 381.751 L 95.492 375.655 L 98.279 369.579 L 101.103 363.524 L 103.962 357.490 L 106.856 351.479 L 109.785 345.492 L 112.748 339.528 L 115.747 333.590 L 118.779 327.679 L 121.845 321.794 L 124.944 315.938 L 128.077 310.110 L 131.243 304.313 L 134.442 298.547 L 137.673 292.812 L 140.937 287.110 L 144.232 281.442 L 147.559 275.808 L 150.917 270.210 L 154.307 264.648 L 157.726 259.123 L 161.177 253.636 L 164.657 248.188 L 168.167 242.780 L 171.707 237.413 L 175.276 232.087 L 178.874 226.803 L 182.500 221.562 L 186.154 216.366 L 189.837 211.214 L 193.546 206.107 L 197.284 201.048 L 201.048 196.035 L 204.838 191.070 L 208.655 186.154 L 212.497 181.288 L 216.366 176.472 L 220.259 171.707 L 224.177 166.994 L 228.120 162.334 L 232.087 157.726 L 236.077 153.173 L 240.091 148.675 L 244.128 144.232 L 248.188 139.845 L 252.271 135.516 L 256.375 131.243 L 260.501 127.029 L 264.648 122.874 L 268.816 118.779 L 273.005 114.743 L 277.214 110.769 L 281.442 106.856 L 285.690 103.005 L 289.957 99.217 L 294.243 95.492 L 298.547 91.830 L 302.869 88.234 L 307.208 84.702 L 311.564 81.236 L 315.938 77.836 L 320.327 74.503 L 324.733 71.237 L 329.154 68.038 L 333.590 64.908 L 338.041 61.847 L 342.507 58.854 L 346.986 55.932 L 351.479 53.079 L 355.985 50.297 L 360.504 47.586 L 365.036 44.947 L 369.579 42.379 L 374.134 39.884 L 378.700 37.461 L 383.277 35.112 L 387.865 32.836 L 392.462 30.633 L 397.069 28.505 L 401.685 26.451 L 406.309 24.472 L 410.942 22.568 L 415.583 20.739 L 420.232 18.986 L 424.887 17.309 L 429.549 15.708 L 434.218 14.184 L 438.892 12.737 L 443.572 11.366 L 448.257 10.072 L 452.946 8.856 L 457.639 7.718 L 462.337 6.657 L 467.037 5.674 L 471.741 4.769 L 476.447 3.943 L 481.155 3.194 L 485.865 2.524 L 490.576 1.933 L 495.288 1.421 L 500.000 0.987 L 504.712 0.632 L 509.424 0.355 L 514.135 0.158 L 518.845 0.039 L 523.553 0.000 L 528.259 0.039 L 532.963 0.158 L 537.663 0.355 L 542.361 0.632 L 547.054 0.987 L 551.743 1.421 L 556.428 1.933 L 561.108 2.524 L 565.782 3.194 L 570.451 3.943 L 575.113 4.769 L 579.768 5.674 L 584.417 6.657 L 589.058 7.718 L 593.691 8.856 L 598.315 10.072 L 602.931 11.366 L 607.538 12.737 L 612.135 14.184 L 616.723 15.708 L 621.300 17.309 L 625.866 18.986 L 630.421 20.739 L 634.964 22.568 L 639.496 24.472 L 644.015 26.451 L 648.521 28.505 L 653.014 30.633 L 657.493 32.836 L 661.959 35.112 L 666.410 37.461 L 670.846 39.884 L 675.267 42.379 L 679.673 44.947 L 684.062 47.586 L 688.436 50.297 L 692.792 53.079 L 697.131 55.932 L 701.453 58.854 L 705.757 61.847 L 710.043 64.908 L 714.310 68.038 L 718.558 71.237 L 722.786 74.503 L 726.995 77.836 L 731.184 81.236 L 735.352 84.702 L 739.499 88.234 L 743.625 91.830 L 747.729 95.492 L 751.812 99.217 L 755.872 103.005 L 759.909 106.856 L 763.923 110.769 L 767.913 114.743 L 771.880 118.779 L 775.823 122.874 L 779.741 127.029 L 783.634 131.243 L 787.503 135.516 L 791.345 139.845 L 795.162 144.232 L 798.952 148.675 L 802.716 153.173 L 806.454 157.726 L 810.163 162.334 L 813.846 166.994 L 817.500 171.707 L 821.126 176.472 L 824.724 181.288 L 828.293 186.154 L 831.833 191.070 L 835.343 196.035 L 838.823 201.048 L 842.274 206.107 L 845.693 211.214 L 849.083 216.366 L 852.441 221.562 L 855.768 226.803 L 859.063 232.087 L 862.327 237.413 L 865.558 242.780 L 868.757 248.188 L 871.923 253.636 L 875.056 259.123 L 878.155 264.648 L 881.221 270.210 L 884.253 275.808 L 887.252 281.442 L 890.215 287.110 L 893.144 292.812 L 896.038 298.547 L 898.897 304.313 L 901.721 310.110 L 904.508 315.938 L 907.260 321.794 L 909.976 327.679 L 912.655 333.590 L 915.298 339.528 L 917.904 345.492 L 920.472 351.479 L 923.004 357.490 L 925.497 363.524 L 927.953 369.579 L 930.371 375.655 L 932.751 381.751 L 935.092 387.865 L 937.394 393.996 L 939.658 400.145 L 941.883 406.309 L 944.068 412.488 L 946.214 418.681 L 948.321 424.887 L 950.387 431.105 L 952.414 437.333 L 954.400 443.572 L 956.346 449.819 L 958.251 456.074 L 960.116 462.337 L 961.940 468.605 L 963.723 474.878 L 965.464 481.155 L 967.164 487.435 L 968.823 493.717 L 970.440 500.000" fill="none" stroke="black" stroke-width="12.0" stroke-linecap="round" stroke-linejoin="round" vector-effect="non-scaling-stroke"/>
</svg>