<svg xmlns="http://www.w3.org/2000/svg" viewBox="-6.000 -6.000 1012.000 1012.000" preserveAspectRatio="xMidYMid meet">
    <path d="M 853.553 500.000 L 852.441 503.142 L 851.325 506.283 L 850.206 509.424 L 849.083 512.565 L 847.956 515.705 L 846.827 518.845 L 845.693 521.984 L 844.557 525.122 L 843.417 528.259 L 842.274 531.395 L 841.127 534.530 L 839.977 537.663 L 838.823 540.795 L 837.666 543.926 L 836.506 547.054 L 835.343 550.181 L 834.176 553.306 L 833.006 556.428 L 831.833 559.549 L 830.656 562.667 L 829.476 565.782 L 828.293 568.895 L 827.106 572.005 L 825.917 575.113 L 824.724 578.217 L 823.528 581.319 L 822.329 584.417 L 821.126 587.512 L 819.921 590.603 L 818.712 593.691 L 817.500 596.775 L 816.285 599.855 L 815.067 602.931 L 813.846 606.004 L 812.621 609.072 L 811.394 612.135 L 810.163 615.195 L 808.930 618.249 L 807.693 621.300 L 806.454 624.345 L 805.211 627.385 L 803.965 630.421 L 802.716 633.451 L 801.465 636.476 L 800.210 639.496 L 798.952 642.510 L 797.692 645.518 L 796.428 648.521 L 795.162 651.518 L 793.893 654.508 L 792.620 657.493 L 791.345 660.472 L 790.067 663.444 L 788.786 666.410 L 787.503 669.369 L 786.216 672.321 L 784.927 675.267 L 783.634 678.206 L 782.339 681.138 L 781.042 684.062 L 779.741 686.980 L 778.438 689.890 L 777.132 692.792 L 775.823 695.687 L 774.511 698.574 L 773.197 701.453 L 771.880 704.325 L 770.561 707.188 L 769.238 710.043 L 767.913 712.890 L 766.586 715.728 L 765.256 718.558 L 763.923 721.379 L 762.587 724.192 L 761.249 726.995 L 759.909 729.790 L 758.565 732.576 L 757.220 735.352 L 755.872 738.119 L 754.521 740.877 L 753.167 743.625 L 751.812 746.364 L 750.453 749.093 L 749.093 751.812 L 747.729 754.521 L 746.364 757.220 L 744.996 759.909 L 743.625 762.587 L 742.252 765.256 L 740.877 767.913 L 739.499 770.561 L 738.119 773.197 L 736.737 775.823 L 735.352 778.438 L 733.965 781.042 L 732.576 783.634 L 731.184 786.216 L 729.790 788.786 L 728.394 791.345 L 726.995 793.893 L 725.595 796.428 L 724.192 798.952 L 722.786 801.465 L 721.379 803.965 L 719.970 806.454 L 718.558 808.930 L 717.144 811.394 L 715.728 813.846 L 714.310 816.285 L 712.890 818.712 L 711.467 821.126 L 710.043 823.528 L 708.616 825.917 L 707.188 828.293 L 705.757 830.656 L 704.325 833.006 L 702.890 835.343 L 701.453 837.666 L 700.015 839.977 L 698.574 842.274 L 697.131 844.557 L 695.687 846.827 L 694.240 849.083 L 692.792 851.325 L 691.342 853.553 L 689.890 855.768 L 688.436 857.968 L 686.980 860.155 L 685.522 862.327 L 684.062 864.484 L 682.601 866.628 L 681.138 868.757 L 679.673 870.871 L 678.206 872.971 L 676.737 875.056 L 675.267 877.126 L 673.795 879.181 L 672.321 881.221 L 670.846 883.247 L 669.369 885.257 L 667.890 887.252 L 666.410 889.231 L 664.928 891.195 L 663.444 893.144 L 661.959 895.078 L 660.472 896.995 L 658.983 898.897 L 657.493 900.783 L 656.002 902.654 L 654.508 904.508 L 653.014 906.347 L 651.518 908.170 L 650.020 909.976 L 648.521 911.766 L 647.020 913.540 L 645.518 915.298 L 644.015 917.039 L 642.510 918.764 L 641.003 920.472 L 639.496 922.164 L 637.986 923.839 L 636.476 925.497 L 634.964 927.139 L 633.451 928.763 L 631.937 930.371 L 630.421 931.962 L 628.904 933.535 L 627.385 935.092 L 625.866 936.631 L 624.345 938.153 L 622.823 939.658 L 621.300 941.146 L 619.775 942.616 L 618.249 944.068 L 616.723 945.503 L 615.195 946.921 L 613.666 948.321 L 612.135 949.703 L 610.604 951.067 L 609.072 952.414 L 607.538 953.742 L 606.004 955.053 L 604.468 956.346 L 602.931 957.621 L 601.394 958.877 L 599.855 960.116 L 598.315 961.336 L 596.775 962.539 L 595.233 963.723 L 593.691 964.888 L 592.147 966.036 L 590.603 967.164 L 589.058 968.275 L 587.512 969.367 L 585.965 970.440 L 584.417 971.495 L 582.868 972.532 L 581.319 973.549 L 579.768 974.548 L 578.217 975.528 L 576.665 976.490 L 575.113 977.432 L 573.559 978.356 L 572.005 979.261 L 570.451 980.147 L 568.895 981.014 L 567.339 981.862 L 565.782 982.691 L 564.225 983.501 L 562.667 984.292 L 561.108 985.063 L 559.549 985.816 L 557.989 986.549 L 556.428 987.263 L 554.867 987.958 L 553.306 988.634 L 551.743 989.290 L 550.181 989.928 L 548.618 990.545 L 547.054 991.144 L 545.490 991.723 L 543.926 992.282 L 542.361 992.822 L 540.795 993.343 L 539.230 993.844 L 537.663 994.326 L 536.097 994.788 L 534.530 995.231 L 532.963 995.654 L 531.395 996.057 L 529.827 996.441 L 528.259 996.806 L 526.691 997.150 L 525.122 997.476 L 523.553 997.781 L 521.984 998.067 L 520.415 998.333 L 518.845 998.579 L 517.275 998.806 L 515.705 999.013 L 514.135 999.201 L 512.565 999.368 L 510.995 999.516 L 509.424 999.645 L 507.854 999.753 L 506.283 999.842 L 504.712 999.911 L 503.142 999.961 L 501.571 999.990 L 500.000 1000.000 L 498.429 999.990 L 496.858 999.961 L 495.288 999.911 L 493.717 999.842 L 492.146 999.753 L 490.576 999.645 L 489.005 999.516 L 487.435 999.368 L 485.865 999.201 L 484.295 999.013 L 482.725 998.806 L 481.155 998.579 L 479.585 998.333 L 478.016 998.067 L 476.447 997.781 L 474.878 997.476 L 473.309 997.150 L 471.741 996.806 L 470.173 996.441 L 468.605 996.057 L 467.037 995.654 L 465.470 995.231 L 463.903 994.788 L 462.337 994.326 L 460.770 993.844 L 459.205 993.343 L 457.639 992.822 L 456.074 992.282 L 454.510 991.723 L 452.946 991.144 L 451.382 990.545 L 449.819 989.928 L 448.257 989.290 L 446.694 988.634 L 445.133 987.958 L 443.572 987.263 L 442.011 986.549 L 440.451 985.816 L 438.892 985.063 L 437.333 984.292 L 435.775 983.501 L 434.218 982.691 L 432.661 981.862 L 431.105 981.014 L 429.549 980.147 L 427.995 979.261 L 426.441 978.356 L 424.887 977.432 L 423.335 976.490 L 421.783 975.528 L 420.232 974.548 L 418.681 973.549 L 417.132 972.532 L 415.583 971.495 L 414.035 970.440 L 412.488 969.367 L 410.942 968.275 L 409.397 967.164 L 407.853 966.036 L 406.309 964.888 L 404.767 963.723 L 403.225 962.539 L 401.685 961.336 L 400.145 960.116 L 398.606 958.877 L 397.069 957.621 L 395.532 956.346 L 393.996 955.053 L 392.462 953.742 L 390.928 952.414 L 389.396 951.067 L 387.865 949.703 L 386.334 948.321 L 384.805 946.921 L 383.277 945.503 L 381.751 944.068 L 380.225 942.616 L 378.700 941.146 L 377.177 939.658 L 375.655 938.153 L 374.134 936.631 L 372.615 935.092 L 371.096 933.535 L 369.579 931.962 L 368.063 930.371 L 366.549 928.763 L 365.036 927.139 L 363.524 925.497 L 362.014 923.839 L 360.504 922.164 L 358.997 920.472 L 357.490 918.764 L 355.985 917.039 L 354.482 915.298 L 352.980 913.540 L 351.479 911.766 L 349.980 909.976 L 348.482 908.170 L 346.986 906.347 L 345.492 904.508 L 343.998 902.654 L 342.507 900.783 L 341.017 898.897 L 339.528 896.995 L 338.041 895.078 L 336.556 893.144 L 335.072 891.195 L 333.590 889.231 L 332.110 887.252 L 330.631 885.257 L 329.154 883.247 L 327.679 881.221 L 326.205 879.181 L 324.733 877.126 L 323.263 875.056 L 321.794 872.971 L 320.327 870.871 L 318.862 868.757 L 317.399 866.628 L 315.938 864.484 L 314.478 862.327 L 313.020 860.155 L 311.564 857.968 L 310.110 855.768 L 308.658 853.553 L 307.208 851.325 L 305.760 849.083 L 304.313 846.827 L 302.869 844.557 L 301.426 842.274 L 299.985 839.977 L 298.547 837.666 L 297.110 835.343 L 295.675 833.006 L 294.243 830.656 L 292.812 828.293 L 291.384 825.917 L 289.957 823.528 L 288.533 821.126 L 287.110 818.712 L 285.690 816.285 L 284.272 813.846 L 282.856 811.394 L 281.442 808.930 L 280.030 806.454 L 278.621 803.965 L 277.214 801.465 L 275.808 798.952 L 274.405 796.428 L 273.005 793.893 L 271.606 791.345 L 270.210 788.786 L 268.816 786.216 L 267.424 783.634 L 266.035 781.042 L 264.648 778.438 L 263.263 775.823 L 261.881 773.197 L 260.501 770.561 L 259.123 767.913 L 257.748 765.256 L 256.375 762.587 L 255.004 759.909 L 253.636 757.220 L 252.271 754.521 L 250.907 751.812 L 249.547 749.093 L 248.188 746.364 L 246.833 743.625 L 245.479 740.877 L 244.128 738.119 L 242.780 735.352 L 241.435 732.576 L 240.091 729.790 L 238.751 726.995 L 237.413 724.192 L 236.077 721.379 L 234.744 718.558 L 233.414 715.728 L 232.087 712.890 L 230.762 710.043 L 229.439 707.188 L 228.120 704.325 L 226.803 701.453 L 225.489 698.574 L 224.177 695.687 L 222.868 692.792 L 221.562 689.890 L 220.259 686.980 L 218.958 684.062 L 217.661 681.138 L 216.366 678.206 L 215.073 675.267 L 213.784 672.321 L 212.497 669.369 L 211.214 666.410 L 209.933 663.444 L 208.655 660.472 L 207.380 657.493 L 206.107 654.508 L 204.838 651.518 L 203.572 648.521 L 202.308 645.518 L 201.048 642.510 L 199.790 639.496 L 198.535 636.476 L 197.284 633.451 L 196.035 630.421 L 194.789 627.385 L 193.546 624.345 L 192.307 621.300 L 191.070 618.249 L 189.837 615.195 L 188.606 612.135 L 187.379 609.072 L 186.154 606.004 L 184.933 602.931 L 183.715 599.855 L 182.500 596.775 L 181.288 593.691 L 180.079 590.603 L 178.874 587.512 L 177.671 584.417 L 176.472 581.319 L 175.276 578.217 L 174.083 575.113 L 172.894 572.005 L 171.707 568.895 L 170.524 565.782 L 169.344 562.667 L 168.167 559.549 L 166.994 556.428 L 165.824 553.306 L 164.657 550.181 L 163.494 547.054 L 162.334 543.926 L 161.177 540.795 L 160.023 537.663 L 158.873 534.530 L 157.726 531.395 L 156.583 528.259 L 155.443 525.122 L 154.307 521.984 L 153.173 518.845 L 152.044 515.705 L 150.917 512.565 L 149.794 509.424 L 148.675 506.283 L 147.559 503.142 L 146.447 500.000 L 145.338 496.858 L 144.232 493.717 L 143.130 490.576 L 142.032 487.435 L 140.937 484.295 L 139.845 481.155 L 138.758 478.016 L 137.673 474.878 L 136.593 471.741 L 135.516 468.605 L 134.442 465.470 L 133.372 462.337 L 132.306 459.205 L 131.243 456.074 L 130.184 452.946 L 129.129 449.819 L 128.077 446.694 L 127.029 443.572 L 125.985 440.451 L 124.944 437.333 L 123.908 434.218 L 122.874 431.105 L 121.845 427.995 L 120.819 424.887 L 119.797 421.783 L 118.779 418.681 L 117.764 415.583 L 116.753 412.488 L 115.747 409.397 L 114.743 406.309 L 113.744 403.225 L 112.748 400.145 L 111.757 397.069 L 110.769 393.996 L 109.785 390.928 L 108.805 387.865 L 107.828 384.805 L 106.856 381.751 L 105.887 378.700 L 104.922 375.655 L 103.962 372.615 L 103.005 369.579 L 102.052 366.549 L 101.103 363.524 L 100.158 360.504 L 99.217 357.490 L 98.279 354.482 L 97.346 351.479 L 96.417 348.482 L 95.492 345.492 L 94.570 342.507 L 93.653 339.528 L 92.740 336.556 L 91.830 333.590 L 90.925 330.631 L 90.024 327.679 L 89.127 324.733 L 88.234 321.794 L 87.345 318.862 L 86.460 315.938 L 85.579 313.020 L 84.702 310.110 L 83.829 307.208 L 82.961 304.313 L 82.096 301.426 L 81.236 298.547 L 80.380 295.675 L 79.528 292.812 L 78.680 289.957 L 77.836 287.110 L 76.996 284.272 L 76.161 281.442 L 75.330 278.621 L 74.503 275.808 L 73.680 273.005 L 72.861 270.210 L 72.047 267.424 L 71.237 264.648 L 70.431 261.881 L 69.629 259.123 L 68.832 256.375 L 68.038 253.636 L 67.249 250.907 L 66.465 248.188 L 65.684 245.479 L 64.908 242.780 L 64.136 240.091 L 63.369 237.413 L 62.606 234.744 L 61.847 232.087 L 61.092 229.439 L 60.342 226.803 L 59.596 224.177 L 58.854 221.562 L 58.117 218.958 L 57.384 216.366 L 56.656 213.784 L 55.932 211.214 L 55.212 208.655 L 54.497 206.107 L 53.786 203.572 L 53.079 201.048 L 52.377 198.535 L 51.679 196.035 L 50.986 193.546 L 50.297 191.070 L 49.613 188.606 L 48.933 186.154 L 48.258 183.715 L 47.586 181.288 L 46.920 178.874 L 46.258 176.472 L 45.600 174.083 L 44.947 171.707 L 44.298 169.344 L 43.654 166.994 L 43.015 164.657 L 42.379 162.334 L 41.749 160.023 L 41.123 157.726 L 40.501 155.443 L 39.884 153.173 L 39.272 150.917 L 38.664 148.675 L 38.060 146.447 L 37.461 144.232 L 36.867 142.032 L 36.277 139.845 L 35.692 137.673 L 35.112 135.516 L 34.536 133.372 L 33.964 131.243 L 33.398 129.129 L 32.836 127.029 L 32.278 124.944 L 31.725 122.874 L 31.177 120.819 L 30.633 118.779 L 30.094 116.753 L 29.560 114.743 L 29.030 112.748 L 28.505 110.769 L 27.984 108.805 L 27.468 106.856 L 26.957 104.922 L 26.451 103.005 L 25.949 101.103 L 25.452 99.217 L 24.959 97.346 L 24.472 95.492 L 23.989 93.653 L 23.510 91.830 L 23.037 90.024 L 22.568 88.234 L 22.103 86.460 L 21.644 84.702 L 21.189 82.961 L 20.739 81.236 L 20.294 79.528 L 19.853 77.836 L 19.417 76.161 L 18.986 74.503 L 18.560 72.861 L 18.138 71.237 L 17.721 69.629 L 17.309 68.038 L 16.902 66.465 L 16.499 64.908 L 16.101 63.369 L 15.708 61.847 L 15.320 60.342 L 14.937 58.854 L 14.558 57.384 L 14.184 55.932 L 13.815 54.497 L 13.451 53.079 L 13.091 51.679 L 12.737 50.297 L 12.387 48.933 L 12.042 47.586 L 11.701 46.258 L 11.366 44.947 L 11.035 43.654 L 10.710 42.379 L 10.389 41.123 L 10.072 39.884 L 9.761 38.664 L 9.455 37.461 L 9.153 36.277 L 8.856 35.112 L 8.564 33.964 L 8.277 32.836 L 7.995 31.725 L 7.718 30.633 L 7.445 29.560 L 7.178 28.505 L 6.915 27.468 L 6.657 26.451 L 6.404 25.452 L 6.156 24.472 L 5.913 23.510 L 5.674 22.568 L 5.441 21.644 L 5.212 20.739 L 4.988 19.853 L 4.769 18.986 L 4.555 18.138 L 4.346 17.309 L 4.142 16.499 L 3.943 15.708 L 3.748 14.937 L 3.559 14.184 L 3.374 13.451 L 3.194 12.737 L 3.020 12.042 L 2.850 11.366 L 2.685 10.710 L 2.524 10.072 L 2.369 9.455 L 2.219 8.856 L 2.074 8.277 L 1.933 7.718 L 1.798 7.178 L 1.667 6.657 L 1.541 6.156 L 1.421 5.674 L 1.305 5.212 L 1.194 4.769 L 1.088 4.346 L 0.987 3.943 L 0.890 3.559 L 0.799 3.194 L 0.713 2.850 L 0.632 2.524 L 0.555 2.219 L 0.484 1.933 L 0.417 1.667 L 0.355 1.421 L 0.299 1.194 L 0.247 0.987 L 0.200 0.799 L 0.158 0.632 L 0.121 0.484 L 0.089 0.355 L 0.062 0.247 L 0.039 0.158 L 0.022 0.089 L 0.010 0.039 L 0.002 0.010 L 0.000 0.000 L 0.002 0.010 L 0.010 0.039 L 0.022 0.089 L 0.039 0.158 L 0.062 0.247 L 0.089 0.355 L 0.121 0.484 L 0.158 0.632 L 0.200 0.799 L 0.247 0.987 L 0.299 1.194 L 0.355 1.421 L 0.417 1.667 L 0.484 1.933 L 0.555 2.219 L 0.632 2.524 L 0.713 2.850 L 0.799 3.194 L 0.890 3.559 L 0.987 3.943 L 1.088 4.346 L 1.194 4.769 L 1.305 5.212 L 1.421 5.674 L 1.541 6.156 L 1.667 6.657 L 1.798 7.178 L 1.933 7.718 L 2.074 8.277 L 2.219 8.856 L 2.369 9.455 L 2.524 10.072 L 2.685 10.710 L 2.850 11.366 L 3.020 12.042 L 3.194 12.737 L 3.374 13.451 L 3.559 14.184 L 3.748 14.937 L 3.943 15.708 L 4.142 16.499 L 4.346 17.309 L 4.555 18.138 L 4.769 18.986 L 4.988 19.853 L 5.212 20.739 L 5.441 21.644 L 5.674 22.568 L 5.913 23.510 L 6.156 24.472 L 6.404 25.452 L 6.657 26.451 L 6.915 27.468 L 7.178 28.505 L 7.445 29.560 L 7.718 30.633 L 7.995 31.725 L 8.277 32.836 L 8.564 33.964 L 8.856 35.112 L 9.153 36.277 L 9.455 37.461 L 9.761 38.664 L 10.072 39.884 L 10.389 41.123 L 10.710 42.379 L 11.035 43.654 L 11.366 44.947 L 11.701 46.258 L 12.042 47.586 L 12.387 48.933 L 12.737 50.297 L 13.091 51.679 L 13.451 53.079 L 13.815 54.497 L 14.184 55.932 L 14.558 57.384 L 14.937 58.854 L 15.320 60.342 L 15.708 61.847 L 16.101 63.369 L 16.499 64.908 L 16.902 66.465 L 17.309 68.038 L 17.721 69.629 L 18.138 71.237 L 18.560 72.861 L 18.986 74.503 L 19.417 76.161 L 19.853 77.836 L 20.294 79.528 L 20.739 81.236 L 21.189 82.961 L 21.644 84.702 L 22.103 86.460 L 22.568 88.234 L 23.037 90.024 L 23.510 91.830 L 23.989 93.653 L 24.472 95.492 L 24.959 97.346 L 25.452 99.217 L 25.949 101.103 L 26.451 103.005 L 26.957 104.922 L 27.468 106.856 L 27.984 108.805 L 28.505 110.769 L 29.030 112.748 L 29.560 114.743 L 30.094 116.753 L 30.633 118.779 L 31.177 120.819 L 31.725 122.874 L 32.278 124.944 L 32.836 127.029 L 33.398 129.129 L 33.964 131.243 L 34.536 133.372 L 35.112 135.516 L 35.692 137.673 L 36.277 139.845 L 36.867 142.032 L 37.461 144.232 L 38.060 146.447 L 38.664 148.675 L 39.272 150.917 L 39.884 153.173 L 40.501 155.443 L 41.123 157.726 L 41.749 160.023 L 42.379 162.334 L 43.015 164.657 L 43.654 166.994 L 44.298 169.344 L 44.947 171.707 L 45.600 174.083 L 46.258 176.472 L 46.920 178.874 L 47.586 181.288 L 48.258 183.715 L 48.933 186.154 L 49.613 188.606 L 50.297 191.070 L 50.986 193.546 L 51.679 196.035 L 52.377 198.535 L 53.079 201.048 L 53.786 203.572 L 54.497 206.107 L 55.212 208.655 L 55.932 211.214 L 56.656 213.784 L 57.384 216.366 L 58.117 218.958 L 58.854 221.562 L 59.596 224.177 L 60.342 226.803 L 61.092 229.439 L 61.847 232.087 L 62.606 234.744 L 63.369 237.413 L 64.136 240.091 L 64.908 242.780 L 65.684 245.479 L 66.465 248.188 L 67.249 250.907 L 68.038 253.636 L 68.832 256.375 L 69.629 259.123 L 70.431 261.881 L 71.237 264.648 L 72.047 267.424 L 72.861 270.210 L 73.680 273.005 L 74.503 275.808 L 75.330 278.621 L 76.161 281.442 L 76.996 284.272 L 77.836 287.110 L 78.680 289.957 L 79.528 292.812 L 80.380 295.675 L 81.236 298.547 L 82.096 301.426 L 82.961 304.313 L 83.829 307.208 L 84.702 310.110 L 85.579 313.020 L 86.460 315.938 L 87.345 318.862 L 88.234 321.794 L 89.127 324.733 L 90.024 327.679 L 90.925 330.631 L 91.830 333.590 L 92.740 336.556 L 93.653 339.528 L 94.570 342.507 L 95.492 345.492 L 96.417 348.482 L 97.346 351.479 L 98.279 354.482 L 99.217 357.490 L 100.158 360.504 L 101.103 363.524 L 102.052 366.549 L 103.005 369.579 L 103.962 372.615 L 104.922 375.655 L 105.887 378.700 L 106.856 381.751 L 107.828 384.805 L 108.805 387.865 L 109.785 390.928 L 110.769 393.996 L 111.757 397.069 L 112.748 400.145 L 113.744 403.225 L 114.743 406.309 L 115.747 409.397 L 116.753 412.488 L 117.764 415.583 L 118.779 418.681 L 119.797 421.783 L 120.819 424.887 L 121.845 427.995 L 122.874 431.105 L 123.908 434.218 L 124.944 437.333 L 125.985 440.451 L 127.029 443.572 L 128.077 446.694 L 129.129 449.819 L 130.184 452.946 L 131.243 456.074 L 132.306 459.205 L 133.372 462.337 L 134.442 465.470 L 135.516 468.605 L 136.593 471.741 L 137.673 474.878 L 138.758 478.016 L 139.845 481.155 L 140.937 484.295 L 142.032 487.435 L 143.130 490.576 L 144.232 493.717 L 145.338 496.858 L 146.447 500.000 L 147.559 503.142 L 148.675 506.283 L 149.794 509.424 L 150.917 512.565 L 152.044 515.705 L 153.173 518.845 L 154.307 521.984 L 155.443 525.122 L 156.583 528.259 L 157.726 531.395 L 158.873 534.530 L 160.023 537.663 L 161.177 540.795 L 162.334 543.926 L 163.494 547.054 L 164.657 550.181 L 165.824 553.306 L 166.994 556.428 L 168.167 559.549 L 169.344 562.667 L 170.524 565.782 L 171.707 568.895 L 172.894 572.005 L 174.083 575.113 L 175.276 578.217 L 176.472 581.319 L 177.671 584.417 L 178.874 587.512 L 180.079 590.603 L 181.288 593.691 L 182.500 596.775 L 183.715 599.855 L 184.933 602.931 L 186.154 606.004 L 187.379 609.072 L 188.606 612.135 L 189.837 615.195 L 191.070 618.249 L 192.307 621.300 L 193.546 624.345 L 194.789 627.385 L 196.035 630.421 L 197.284 633.451 L 198.535 636.476 L 199.790 639.496 L 201.048 642.510 L 202.308 645.518 L 203.572 648.521 L 204.838 651.518 L 206.107 654.508 L 207.380 657.493 L 208.655 660.472 L 209.933 663.444 L 211.214 666.410 L 212.497 669.369 L 213.784 672.321 L 215.073 675.267 L 216.366 678.206 L 217.661 681.138 L 218.958 684.062 L 220.259 686.980 L 221.562 689.890 L 222.868 692.792 L 224.177 695.687 L 225.489 698.574 L 226.803 701.453 L 228.120 704.325 L 229.439 707.188 L 230.762 710.043 L 232.087 712.890 L 233.414 715.728 L 234.744 718.558 L 236.077 721.379 L 237.413 724.192 L 238.751 726.995 L 240.091 729.790 L 241.435 732.576 L 242.780 735.352 L 244.128 738.119 L 245.479 740.877 L 246.833 743.625 L 248.188 746.364 L 249.547 749.093 L 250.907 751.812 L 252.271 754.521 L 253.636 757.220 L 255.004 759.909 L 256.375 762.587 L 257.748 765.256 L 259.123 767.913 L 260.501 770.561 L 261.881 773.197 L 263.263 775.823 L 264.648 778.438 L 266.035 781.042 L 267.424 783.634 L 268.816 786.216 L 270.210 788.786 L 271.606 791.345 L 273.005 793.893 L 274.405 796.428 L 275.808 798.952 L 277.214 801.465 L 278.621 803.965 L 280.030 806.454 L 281.442 808.930 L 282.856 811.394 L 284.272 813.846 L 285.690 816.285 L 287.110 818.712 L 288.533 821.126 L 289.957 823.528 L 291.384 825.917 L 292.812 828.293 L 294.243 830.656 L 295.675 833.006 L 297.110 835.343 L 298.547 837.666 L 299.985 839.977 L 301.426 842.274 L 302.869 844.557 L 304.313 846.827 L 305.760 849.083 L 307.208 851.325 L 308.658 853.553 L 310.110 855.768 L 311.564 857.968 L 313.020 860.155 L 314.478 862.327 L 315.938 864.484 L 317.399 866.628 L 318.862 868.757 L 320.327 870.871 L 321.794 872.971 L 323.263 875.056 L 324.733 877.126 L 326.205 879.181 L 327.679 881.221 L 329.154 883.247 L 330.631 885.257 L 332.110 887.252 L 333.590 889.231 L 335.072 891.195 L 336.556 893.144 L 338.041 895.078 L 339.528 896.995 L 341.017 898.897 L 342.507 900.783 L 343.998 902.654 L 345.492 904.508 L 346.986 906.347 L 348.482 908.170 L 349.980 909.976 L 351.479 911.766 L 352.980 913.540 L 354.482 915.298 L 355.985 917.039 L 357.490 918.764 L 358.997 920.472 L 360.504 922.164 L 362.014 923.839 L 363.524 925.497 L 365.036 927.139 L 366.549 928.763 L 368.063 930.371 L 369.579 931.962 L 371.096 933.535 L 372.615 935.092 L 374.134 936.631 L 375.655 938.153 L 377.177 939.658 L 378.700 941.146 L 380.225 942.616 L 381.751 944.068 L 383.277 945.503 L 384.805 946.921 L 386.334 948.321 L 387.865 949.703 L 389.396 951.067 L 390.928 952.414 L 392.462 953.742 L 393.996 955.053 L 395.532 956.346 L 397.069 957.621 L 398.606 958.877 L 400.145 960.116 L 401.685 961.336 L 403.225 962.539 L 404.767 963.723 L 406.309 964.888 L 407.853 966.036 L 409.397 967.164 L 410.942 968.275 L 412.488 969.367 L 414.035 970.440 L 415.583 971.495 L 417.132 972.532 L 418.681 973.549 L 420.232 974.548 L 421.783 975.528 L 423.335 976.490 L 424.887 977.432 L 426.441 978.356 L 427.995 979.261 L 429.549 980.147 L 431.105 981.014 L 432.661 981.862 L 434.218 982.691 L 435.775 983.501 L 437.333 984.292 L 438.892 985.063 L 440.451 985.816 L 442.011 986.549 L 443.572 987.263 L 445.133 987.958 L 446.694 988.634 L 448.257 989.290 L 449.819 989.928 L 451.382 990.545 L 452.946 991.144 L 454.510 991.723 L 456.074 992.282 L 457.639 992.822 L 459.205 993.343 L 460.770 993.844 L 462.337 994.326 L 463.903 994.788 L 465.470 995.231 L 467.037 995.654 L 468.605 996.057 L 470.173 996.441 L 471.741 996.806 L 473.309 997.150 L 474.878 997.476 L 476.447 997.781 L 478.016 998.067 L 479.585 998.333 L 481.155 998.579 L 482.725 998.806 L 484.295 999.013 L 485.865 999.201 L 487.435 999.368 L 489.005 999.516 L 490.576 999.645 L 492.146 999.753 L 493.717 999.842 L 495.288 999.911 L 496.858 999.961 L 498.429 999.990 L 500.000 1000.000 L 501.571 999.990 L 503.142 999.961 L 504.712 999.911 L 506.283 999.842 L 507.854 999.753 L 509.424 999.645 L 510.995 999.516 L 512.565 999.368 L 514.135 999.201 L 515.705 999.013 L 517.275 998.806 L 518.845 998.579 L 520.415 998.333 L 521.984 998.067 L 523.553 997.781 L 525.122 997.476 L 526.691 997.150 L 528.259 996.806 L 529.827 996.441 L 531.395 996.057 L 532.963 995.654 L 534.530 995.231 L 536.097 994.788 L 537.663 994.326 L 539.230 993.844 L 540.795 993.343 L 542.361 992.822 L 543.926 992.282 L 545.490 991.723 L 547.054 991.144 L 548.618 990.545 L 550.181 989.928 L 551.743 989.290 L 553.306 988.634 L 554.867 987.958 L 556.428 987.263 L 557.989 986.549 L 559.549 985.816 L 561.108 985.063 L 562.667 984.292 L 564.225 983.501 L 565.782 982.691 L 567.339 981.862 L 568.895 981.014 L 570.451 980.147 L 572.005 979.261 L 573.559 978.356 L 575.113 977.432 L 576.665 976.490 L 578.217 975.528 L 579.768 974.548 L 581.319 973.549 L 582.868 972.532 L 584.417 971.495 L 585.965 970.440 L 587.512 969.367 L 589.058 968.275 L 590.603 967.164 L 592.147 966.036 L 593.691 964.888 L 595.233 963.723 L 596.775 962.539 L 598.315 961.336 L 599.855 960.116 L 601.394 958.877 L 602.931 957.621 L 604.468 956.346 L 606.004 955.053 L 607.538 953.742 L 609.072 952.414 L 610.604 951.067 L 612.135 949.703 L 613.666 948.321 L 615.195 946.921 L 616.723 945.503 L 618.249 944.068 L 619.775 942.616 L 621.300 941.146 L 622.823 939.658 L 624.345 938.153 L 625.866 936.631 L 627.385 935.092 L 628.904 933.535 L 630.421 931.962 L 631.937 930.371 L 633.451 928.763 L 634.964 927.139 L 636.476 925.497 L 637.986 923.839 L 639.496 922.164 L 641.003 920.472 L 642.510 918.764 L 644.015 917.039 L 645.518 915.298 L 647.020 913.540 L 648.521 911.766 L 650.020 909.976 L 651.518 908.170 L 653.014 906.347 L 654.508 904.508 L 656.002 902.654 L 657.493 900.783 L 658.983 898.897 L 660.472 896.995 L 661.959 895.078 L 663.444 893.144 L 664.928 891.195 L 666.410 889.231 L 667.890 887.252 L 669.369 885.257 L 670.846 883.247 L 672.321 881.221 L 673.795 879.181 L 675.267 877.126 L 676.737 875.056 L 678.206 872.971 L 679.673 870.871 L 681.138 868.757 L 682.601 866.628 L 684.062 864.484 L 685.522 862.327 L 686.980 860.155 L 688.436 857.968 L 689.890 855.768 L 691.342 853.553 L 692.792 851.325 L 694.240 849.083 L 695.687 846.827 L 697.131 844.557 L 698.574 842.274 L 700.015 839.977 L 701.453 837.666 L 702.890 835.343 L 704.325 833.006 L 705.757 830.656 L 707.188 828.293 L 708.616 825.917 L 710.043 823.528 L 711.467 821.126 L 712.890 818.712 L 714.310 816.285 L 715.728 813.846 L 717.144 811.394 L 718.558 808.930 L 719.970 806.454 L 721.379 803.965 L 722.786 801.465 L 724.192 798.952 L 725.595 796.428 L 726.995 793.893 L 728.394 791.345 L 729.790 788.786 L 731.184 786.216 L 732.576 783.634 L 733.965 781.042 L 735.352 778.438 L 736.737 775.823 L 738.119 773.197 L 739.499 770.561 L 740.877 767.913 L 742.252 765.256 L 743.625 762.587 L 744.996 759.909 L 746.364 757.220 L 747.729 754.521 L 749.093 751.812 L 750.453 749.093 L 751.812 746.364 L 753.167 743.625 L 754.521 740.877 L 755.872 738.119 L 757.220 735.352 L 758.565 732.576 L 759.909 729.790 L 761.249 726.995 L 762.587 724.192 L 763.923 721.379 L 765.256 718.558 L 766.586 715.728 L 767.913 712.890 L 769.238 710.043 L 770.561 707.188 L 771.880 704.325 L 773.197 701.453 L 774.511 698.574 L 775.823 695.687 L 777.132 692.792 L 778.438 689.890 L 779.741 686.980 L 781.042 684.062 L 782.339 681.138 L 783.634 678.206 L 784.927 675.267 L 786.216 672.321 L 787.503 669.369 L 788.786 666.410 L 790.067 663.444 L 791.345 660.472 L 792.620 657.493 L 793.893 654.508 L 795.162 651.518 L 796.428 648.521 L 797.692 645.518 L 798.952 642.510 L 800.210 639.496 L 801.465 636.476 L 802.716 633.451 L 803.965 630.421 L 805.211 627.385 L 806.454 624.345 L 807.693 621.300 L 808.930 618.249 L 810.163 615.195 L 811.394 612.135 L 812.621 609.072 L 813.846 606.004 L 815.067 602.931 L 816.285 599.855 L 817.500 596.775 L 818.712 593.691 L 819.921 590.603 L 821.126 587.512 L 822.329 584.417 L 823.528 581.319 L 824.724 578.217 L 825.917 575.113 L 827.106 572.005 L 828.293 568.895 L 829.476 565.782 L 830.656 562.667 L 831.833 559.549 L 833.006 556.428 L 834.176 553.306 L 835.343 550.181 L 836.506 547.054 L 837.666 543.926 L 838.823 540.795 L 839.977 537.663 L 841.127 534.530 L 842.274 531.395 L 843.417 528.259 L 844.557 525.122 L 845.693 521.984 L 846.827 518.845 L 847.956 515.705 L 849.083 512.565 L 850.206 509.424 L 851.325 506.283 L 852.441 503.142 L 853.553 500.000 L 854.662 496.858 L 855.768 493.717 L 856.870 490.576 L 857.968 487.435 L 859.063 484.295 L 860.155 481.155 L 861.242 478.016 L 862.327 474.878 L 863.407 471.741 L 864.484 468.605 L 865.558 465.470 L 866.628 462.337 L 867.694 459.205 L 868.757 456.074 L 869.816 452.946 L 870.871 449.819 L 871.923 446.694 L 872.971 443.572 L 874.015 440.451 L 875.056 437.333 L 876.092 434.218 L 877.126 431.105 L 878.155 427.995 L 879.181 424.887 L 880.203 421.783 L 881.221 418.681 L 882.236 415.583 L 883.247 412.488 L 884.253 409.397 L 885.257 406.309 L 886.256 403.225 L 887.252 400.145 L 888.243 397.069 L 889.231 393.996 L 890.215 390.928 L 891.195 387.865 L 892.172 384.805 L 893.144 381.751 L 894.113 378.700 L 895.078 375.655 L 896.038 372.615 L 896.995 369.579 L 897.948 366.549 L 898.897 363.524 L 899.842 360.504 L 900.783 357.490 L 901.721 354.482 L 902.654 351.479 L 903.583 348.482 L 904.508 345.492 L 905.430 342.507 L 906.347 339.528 L 907.260 336.556 L 908.170 333.590 L 909.075 330.631 L 909.976 327.679 L 910.873 324.733 L 911.766 321.794 L 912.655 318.862 L 913.540 315.938 L 914.421 313.020 L 915.298 310.110 L 916.171 307.208 L 917.039 304.313 L 917.904 301.426 L 918.764 298.547 L 919.620 295.675 L 920.472 292.812 L 921.320 289.957 L 922.164 287.110 L 923.004 284.272 L 923.839 281.442 L 924.670 278.621 L 925.497 275.808 L 926.320 273.005 L 927.139 270.210 L 927.953 267.424 L 928.763 264.648 L 929.569 261.881 L 930.371 259.123 L 931.168 256.375 L 931.962 253.636 L 932.751 250.907 L 933.535 248.188 L 934.316 245.479 L 935.092 242.780 L 935.864 240.091 L 936.631 237.413 L 937.394 234.744 L 938.153 232.087 L 938.908 229.439 L 939.658 226.803 L 940.404 224.177 L 941.146 221.562 L 941.883 218.958 L 942.616 216.366 L 943.344 213.784 L 944.068 211.214 L 944.788 208.655 L 945.503 206.107 L 946.214 203.572 L 946.921 201.048 L 947.623 198.535 L 948.321 196.035 L 949.014 193.546 L 949.703 191.070 L 950.387 188.606 L 951.067 186.154 L 951.742 183.715 L 952.414 181.288 L 953.080 178.874 L 953.742 176.472 L 954.400 174.083 L 955.053 171.707 L 955.702 169.344 L 956.346 166.994 L 956.985 164.657 L 957.621 162.334 L 958.251 160.023 L 958.877 157.726 L 959.499 155.443 L 960.116 153.173 L 960.728 150.917 L 961.336 148.675 L 961.940 146.447 L 962.539 144.232 L 963.133 142.032 L 963.723 139.845 L 964.308 137.673 L 964.888 135.516 L 965.464 133.372 L 966.036 131.243 L 966.602 129.129 L 967.164 127.029 L 967.722 124.944 L 968.275 122.874 L 968.823 120.819 L 969.367 118.779 L 969.906 116.753 L 970.440 114.743 L 970.970 112.748 L 971.495 110.769 L 972.016 108.805 L 972.532 106.856 L 973.043 104.922 L 973.549 103.005 L 974.051 101.103 L 974.548 99.217 L 975.041 97.346 L 975.528 95.492 L 976.011 93.653 L 976.490 91.830 L 976.963 90.024 L 977.432 88.234 L 977.897 86.460 L 978.356 84.702 L 978.811 82.961 L 979.261 81.236 L 979.706 79.528 L 980.147 77.836 L 980.583 76.161 L 981.014 74.503 L 981.440 72.861 L 981.862 71.237 L 982.279 69.629 L 982.691 68.038 L 983.098 66.465 L 983.501 64.908 L 983.899 63.369 L 984.292 61.847 L 984.680 60.342 L 985.063 58.854 L 985.442 57.384 L 985.816 55.932 L 986.185 54.497 L 986.549 53.079 L 986.909 51.679 L 987.263 50.297 L 987.613 48.933 L 987.958 47.586 L 988.299 46.258 L 988.634 44.947 L 988.965 43.654 L 989.290 42.379 L 989.611 41.123 L 989.928 39.884 L 990.239 38.664 L 990.545 37.461 L 990.847 36.277 L 991.144 35.112 L 991.436 33.964 L 991.723 32.836 L 992.005 31.725 L 992.282 30.633 L 992.555 29.560 L 992.822 28.505 L 993.085 27.468 L 993.343 26.451 L 993.596 25.452 L 993.844 24.472 L 994.087 23.510 L 994.326 22.568 L 994.559 21.644 L 994.788 20.739 L 995.012 19.853 L 995.231 18.986 L 995.445 18.138 L 995.654 17.309 L 995.858 16.499 L 996.057 15.708 L 996.252 14.937 L 996.441 14.184 L 996.626 13.451 L 996.806 12.737 L 996.980 12.042 L 997.150 11.366 L 997.315 10.710 L 997.476 10.072 L 997.631 9.455 L 997.781 8.856 L 997.926 8.277 L 998.067 7.718 L 998.202 7.178 L 998.333 6.657 L 998.459 6.156 L 998.579 5.674 L 998.695 5.212 L 998.806 4.769 L 998.912 4.346 L 999.013 3.943 L 999.110 3.559 L 999.201 3.194 L 999.287 2.850 L 999.368 2.524 L 999.445 2.219 L 999.516 1.933 L 999.583 1.667 L 999.645 1.421 L 999.701 1.194 L 999.753 0.987 L 999.800 0.799 L 999.842 0.632 L 999.879 0.484 L 999.911 0.355 L 999.938 0.247 L 999.961 0.158 L 999.978 0.089 L 999.990 0.039 L 999.998 0.010 L 1000.000 0.000 L 999.998 0.010 L 999.990 0.039 L 999.978 0.089 L 999.961 0.158 L 999.938 0.247 L 999.911 0.355 L 999.879 0.484 L 999.842 0.632 L 999.800 0.799 L 999.753 0.987 L 999.701 1.194 L 999.645 1.421 L 999.583 1.667 L 999.516 1.933 L 999.445 2.219 L 999.368 2.524 L 999.287 2.850 L 999.201 3.194 L 999.110 3.559 L 999.013 3.943 L 998.912 4.346 L 998.806 4.769 L 998.695 5.212 L 998.579 5.674 L 998.459 6.156 L 998.333 6.657 L 998.202 7.178 L 998.067 7.718 L 997.926 8.277 L 997.781 8.856 L 997.631 9.455 L 997.476 10.072 L 997.315 10.710 L 997.150 11.366 L 996.980 12.042 L 996.806 12.737 L 996.626 13.451 L 996.441 14.184 L 996.252 14.937 L 996.057 15.708 L 995.858 16.499 L 995.654 17.309 L 995.445 18.138 L 995.231 18.986 L 995.012 19.853 L 994.788 20.739 L 994.559 21.644 L 994.326 22.568 L 994.087 23.510 L 993.844 24.472 L 993.596 25.452 L 993.343 26.451 L 993.085 27.468 L 992.822 28.505 L 992.555 29.560 L 992.282 30.633 L 992.005 31.725 L 991.723 32.836 L 991.436 33.964 L 991.144 35.112 L 990.847 36.277 L 990.545 37.461 L 990.239 38.664 L 989.928 39.884 L 989.611 41.123 L 989.290 42.379 L 988.965 43.654 L 988.634 44.947 L 988.299 46.258 L 987.958 47.586 L 987.613 48.933 L 987.263 50.297 L 986.909 51.679 L 986.549 53.079 L 986.185 54.497 L 985.816 55.932 L 985.442 57.384 L 985.063 58.854 L 984.680 60.342 L 984.292 61.847 L 983.899 63.369 L 983.501 64.908 L 983.098 66.465 L 982.691 68.038 L 982.279 69.629 L 981.862 71.237 L 981.440 72.861 L 981.014 74.503 L 980.583 76.161 L 980.147 77.836 L 979.706 79.528 L 979.261 81.236 L 978.811 82.961 L 978.356 84.702 L 977.897 86.460 L 977.432 88.234 L 976.963 90.024 L 976.490 91.830 L 976.011 93.653 L 975.528 95.492 L 975.041 97.346 L 974.548 99.217 L 974.051 101.103 L 973.549 103.005 L 973.043 104.922 L 972.532 106.856 L 972.016 108.805 L 971.495 110.769 L 970.970 112.748 L 970.440 114.743 L 969.906 116.753 L 969.367 118.779 L 968.823 120.819 L 968.275 122.874 L 967.722 124.944 L 967.164 127.029 L 966.602 129.129 L 966.036 131.243 L 965.464 133.372 L 964.888 135.516 L 964.308 137.673 L 963.723 139.845 L 963.133 142.032 L 962.539 144.232 L 961.940 146.447 L 961.336 148.675 L 960.728 150.917 L 960.116 153.173 L 959.499 155.443 L 958.877 157.726 L 958.251 160.023 L 957.621 162.334 L 956.985 164.657 L 956.346 166.994 L 955.702 169.344 L 955.053 171.707 L 954.400 174.083 L 953.742 176.472 L 953.080 178.874 L 952.414 181.288 L 951.742 183.715 L 951.067 186.154 L 950.387 188.606 L 949.703 191.070 L 949.014 193.546 L 948.321 196.035 L 947.623 198.535 L 946.921 201.048 L 946.214 203.572 L 945.503 206.107 L 944.788 208.655 L 944.068 211.214 L 943.344 213.784 L 942.616 216.366 L 941.883 218.958 L 941.146 221.562 L 940.404 224.177 L 939.658 226.803 L 938.908 229.439 L 938.153 232.087 L 937.394 234.744 L 936.631 237.413 L 935.864 240.091 L 935.092 242.780 L 934.316 245.479 L 933.535 248.188 L 932.751 250.907 L 931.962 253.636 L 931.168 256.375 L 930.371 259.123 L 929.569 261.881 L 928.763 264.648 L 927.953 267.424 L 927.139 270.210 L 926.320 273.005 L 925.497 275.808 L 924.670 278.621 L 923.839 281.442 L 923.004 284.272 L 922.164 287.110 L 921.320 289.957 L 920.472 292.812 L 919.620 295.675 L 918.764 298.547 L 917.904 301.426 L 917.039 304.313 L 916.171 307.208 L 915.298 310.110 L 914.421 313.020 L 913.540 315.938 L 912.655 318.862 L 911.766 321.794 L 910.873 324.733 L 909.976 327.679 L 909.075 330.631 L 908.170 333.590 L 907.260 336.556 L 906.347 339.528 L 905.430 342.507 L 904.508 345.492 L 903.583 348.482 L 902.654 351.479 L 901.721 354.482 L 900.783 357.490 L 899.842 360.504 L 898.897 363.524 L 897.948 366.549 L 896.995 369.579 L 896.038 372.615 L 895.078 375.655 L 894.113 378.700 L 893.144 381.751 L 892.172 384.805 L 891.195 387.865 L 890.215 390.928 L 889.231 393.996 L 888.243 397.069 L 887.252 400.145 L 886.256 403.225 L 885.257 406.309 L 884.253 409.397 L 883.247 412.488 L 882.236 415.583 L 881.221 418.681 L 880.203 421.783 L 879.181 424.887 L 878.155 427.995 L 877.126 431.105 L 876.092 434.218 L 875.056 437.333 L 874.015 440.451 L 872.971 443.572 L 871.923 446.694 L 870.871 449.819 L 869.816 452.946 L 868.757 456.074 L 867.694 459.205 L 866.628 462.337 L 865.558 465.470 L 864.484 468.605 L 863.407 471.741 L 862.327 474.878 L 861.242 478.016 L 860.155 481.155 L 859.063 484.295 L 857.968 487.435 L 856.870 490.576 L 855.768 493.717 L 854.662 496.858 L 853.553 500.000" fill="none" stroke="black" stroke-width="12.0" stroke-linecap="round" stroke-linejoin="round" vector-effect="non-scaling-stroke"/>
</svg>