<svg xmlns="http://www.w3.org/2000/svg" viewBox="-6.000 -6.000 1012.000 1012.000" preserveAspectRatio="xMidYMid meet">
    <path d="M 913.540 500.000 L 912.655 503.142 L 911.766 506.283 L 910.873 509.424 L 909.976 512.565 L 909.075 515.705 L 908.170 518.845 L 907.260 521.984 L 906.347 525.122 L 905.430 528.259 L 904.508 531.395 L 903.583 534.530 L 902.654 537.663 L 901.721 540.795 L 900.783 543.926 L 899.842 547.054 L 898.897 550.181 L 897.948 553.306 L 896.995 556.428 L 896.038 559.549 L 895.078 562.667 L 894.113 565.782 L 893.144 568.895 L 892.172 572.005 L 891.195 575.113 L 890.215 578.217 L 889.231 581.319 L 888.243 584.417 L 887.252 587.512 L 886.256 590.603 L 885.257 593.691 L 884.253 596.775 L 883.247 599.855 L 882.236 602.931 L 881.221 606.004 L 880.203 609.072 L 879.181 612.135 L 878.155 615.195 L 877.126 618.249 L 876.092 621.300 L 875.056 624.345 L 874.015 627.385 L 872.971 630.421 L 871.923 633.451 L 870.871 636.476 L 869.816 639.496 L 868.757 642.510 L 867.694 645.518 L 866.628 648.521 L 865.558 651.518 L 864.484 654.508 L 863.407 657.493 L 862.327 660.472 L 861.242 663.444 L 860.155 666.410 L 859.063 669.369 L 857.968 672.321 L 856.870 675.267 L 855.768 678.206 L 854.662 681.138 L 853.553 684.062 L 852.441 686.980 L 851.325 689.890 L 850.206 692.792 L 849.083 695.687 L 847.956 698.574 L 846.827 701.453 L 845.693 704.325 L 844.557 707.188 L 843.417 710.043 L 842.274 712.890 L 841.127 715.728 L 839.977 718.558 L 838.823 721.379 L 837.666 724.192 L 836.506 726.995 L 835.343 729.790 L 834.176 732.576 L 833.006 735.352 L 831.833 738.119 L 830.656 740.877 L 829.476 743.625 L 828.293 746.364 L 827.106 749.093 L 825.917 751.812 L 824.724 754.521 L 823.528 757.220 L 822.329 759.909 L 821.126 762.587 L 819.921 765.256 L 818.712 767.913 L 817.500 770.561 L 816.285 773.197 L 815.067 775.823 L 813.846 778.438 L 812.621 781.042 L 811.394 783.634 L 810.163 786.216 L 808.930 788.786 L 807.693 791.345 L 806.454 793.893 L 805.211 796.428 L 803.965 798.952 L 802.716 801.465 L 801.465 803.965 L 800.210 806.454 L 798.952 808.930 L 797.692 811.394 L 796.428 813.846 L 795.162 816.285 L 793.893 818.712 L 792.620 821.126 L 791.345 823.528 L 790.067 825.917 L 788.786 828.293 L 787.503 830.656 L 786.216 833.006 L 784.927 835.343 L 783.634 837.666 L 782.339 839.977 L 781.042 842.274 L 779.741 844.557 L 778.438 846.827 L 777.132 849.083 L 775.823 851.325 L 774.511 853.553 L 773.197 855.768 L 771.880 857.968 L 770.561 860.155 L 769.238 862.327 L 767.913 864.484 L 766.586 866.628 L 765.256 868.757 L 763.923 870.871 L 762.587 872.971 L 761.249 875.056 L 759.909 877.126 L 758.565 879.181 L 757.220 881.221 L 755.872 883.247 L 754.521 885.257 L 753.167 887.252 L 751.812 889.231 L 750.453 891.195 L 749.093 893.144 L 747.729 895.078 L 746.364 896.995 L 744.996 898.897 L 743.625 900.783 L 742.252 902.654 L 740.877 904.508 L 739.499 906.347 L 738.119 908.170 L 736.737 909.976 L 735.352 911.766 L 733.965 913.540 L 732.576 915.298 L 731.184 917.039 L 729.790 918.764 L 728.394 920.472 L 726.995 922.164 L 725.595 923.839 L 724.192 925.497 L 722.786 927.139 L 721.379 928.763 L 719.970 930.371 L 718.558 931.962 L 717.144 933.535 L 715.728 935.092 L 714.310 936.631 L 712.890 938.153 L 711.467 939.658 L 710.043 941.146 L 708.616 942.616 L 707.188 944.068 L 705.757 945.503 L 704.325 946.921 L 702.890 948.321 L 701.453 949.703 L 700.015 951.067 L 698.574 952.414 L 697.131 953.742 L 695.687 955.053 L 694.240 956.346 L 692.792 957.621 L 691.342 958.877 L 689.890 960.116 L 688.436 961.336 L 686.980 962.539 L 685.522 963.723 L 684.062 964.888 L 682.601 966.036 L 681.138 967.164 L 679.673 968.275 L 678.206 969.367 L 676.737 970.440 L 675.267 971.495 L 673.795 972.532 L 672.321 973.549 L 670.846 974.548 L 669.369 975.528 L 667.890 976.490 L 666.410 977.432 L 664.928 978.356 L 663.444 979.261 L 661.959 980.147 L 660.472 981.014 L 658.983 981.862 L 657.493 982.691 L 656.002 983.501 L 654.508 984.292 L 653.014 985.063 L 651.518 985.816 L 650.020 986.549 L 648.521 987.263 L 647.020 987.958 L 645.518 988.634 L 644.015 989.290 L 642.510 989.928 L 641.003 990.545 L 639.496 991.144 L 637.986 991.723 L 636.476 992.282 L 634.964 992.822 L 633.451 993.343 L 631.937 993.844 L 630.421 994.326 L 628.904 994.788 L 627.385 995.231 L 625.866 995.654 L 624.345 996.057 L 622.823 996.441 L 621.300 996.806 L 619.775 997.150 L 618.249 997.476 L 616.723 997.781 L 615.195 998.067 L 613.666 998.333 L 612.135 998.579 L 610.604 998.806 L 609.072 999.013 L 607.538 999.201 L 606.004 999.368 L 604.468 999.516 L 602.931 999.645 L 601.394 999.753 L 599.855 999.842 L 598.315 999.911 L 596.775 999.961 L 595.233 999.990 L 593.691 1000.000 L 592.147 999.990 L 590.603 999.961 L 589.058 999.911 L 587.512 999.842 L 585.965 999.753 L 584.417 999.645 L 582.868 999.516 L 581.319 999.368 L 579.768 999.201 L 578.217 999.013 L 576.665 998.806 L 575.113 998.579 L 573.559 998.333 L 572.005 998.067 L 570.451 997.781 L 568.895 997.476 L 567.339 997.150 L 565.782 996.806 L 564.225 996.441 L 562.667 996.057 L 561.108 995.654 L 559.549 995.231 L 557.989 994.788 L 556.428 994.326 L 554.867 993.844 L 553.306 993.343 L 551.743 992.822 L 550.181 992.282 L 548.618 991.723 L 547.054 991.144 L 545.490 990.545 L 543.926 989.928 L 542.361 989.290 L 540.795 988.634 L 539.230 987.958 L 537.663 987.263 L 536.097 986.549 L 534.530 985.816 L 532.963 985.063 L 531.395 984.292 L 529.827 983.501 L 528.259 982.691 L 526.691 981.862 L 525.122 981.014 L 523.553 980.147 L 521.984 979.261 L 520.415 978.356 L 518.845 977.432 L 517.275 976.490 L 515.705 975.528 L 514.135 974.548 L 512.565 973.549 L 510.995 972.532 L 509.424 971.495 L 507.854 970.440 L 506.283 969.367 L 504.712 968.275 L 503.142 967.164 L 501.571 966.036 L 500.000 964.888 L 498.429 963.723 L 496.858 962.539 L 495.288 961.336 L 493.717 960.116 L 492.146 958.877 L 490.576 957.621 L 489.005 956.346 L 487.435 955.053 L 485.865 953.742 L 484.295 952.414 L 482.725 951.067 L 481.155 949.703 L 479.585 948.321 L 478.016 946.921 L 476.447 945.503 L 474.878 944.068 L 473.309 942.616 L 471.741 941.146 L 470.173 939.658 L 468.605 938.153 L 467.037 936.631 L 465.470 935.092 L 463.903 933.535 L 462.337 931.962 L 460.770 930.371 L 459.205 928.763 L 457.639 927.139 L 456.074 925.497 L 454.510 923.839 L 452.946 922.164 L 451.382 920.472 L 449.819 918.764 L 448.257 917.039 L 446.694 915.298 L 445.133 913.540 L 443.572 911.766 L 442.011 909.976 L 440.451 908.170 L 438.892 906.347 L 437.333 904.508 L 435.775 902.654 L 434.218 900.783 L 432.661 898.897 L 431.105 896.995 L 429.549 895.078 L 427.995 893.144 L 426.441 891.195 L 424.887 889.231 L 423.335 887.252 L 421.783 885.257 L 420.232 883.247 L 418.681 881.221 L 417.132 879.181 L 415.583 877.126 L 414.035 875.056 L 412.488 872.971 L 410.942 870.871 L 409.397 868.757 L 407.853 866.628 L 406.309 864.484 L 404.767 862.327 L 403.225 860.155 L 401.685 857.968 L 400.145 855.768 L 398.606 853.553 L 397.069 851.325 L 395.532 849.083 L 393.996 846.827 L 392.462 844.557 L 390.928 842.274 L 389.396 839.977 L 387.865 837.666 L 386.334 835.343 L 384.805 833.006 L 383.277 830.656 L 381.751 828.293 L 380.225 825.917 L 378.700 823.528 L 377.177 821.126 L 375.655 818.712 L 374.134 816.285 L 372.615 813.846 L 371.096 811.394 L 369.579 808.930 L 368.063 806.454 L 366.549 803.965 L 365.036 801.465 L 363.524 798.952 L 362.014 796.428 L 360.504 793.893 L 358.997 791.345 L 357.490 788.786 L 355.985 786.216 L 354.482 783.634 L 352.980 781.042 L 351.479 778.438 L 349.980 775.823 L 348.482 773.197 L 346.986 770.561 L 345.492 767.913 L 343.998 765.256 L 342.507 762.587 L 341.017 759.909 L 339.528 757.220 L 338.041 754.521 L 336.556 751.812 L 335.072 749.093 L 333.590 746.364 L 332.110 743.625 L 330.631 740.877 L 329.154 738.119 L 327.679 735.352 L 326.205 732.576 L 324.733 729.790 L 323.263 726.995 L 321.794 724.192 L 320.327 721.379 L 318.862 718.558 L 317.399 715.728 L 315.938 712.890 L 314.478 710.043 L 313.020 707.188 L 311.564 704.325 L 310.110 701.453 L 308.658 698.574 L 307.208 695.687 L 305.760 692.792 L 304.313 689.890 L 302.869 686.980 L 301.426 684.062 L 299.985 681.138 L 298.547 678.206 L 297.110 675.267 L 295.675 672.321 L 294.243 669.369 L 292.812 666.410 L 291.384 663.444 L 289.957 660.472 L 288.533 657.493 L 287.110 654.508 L 285.690 651.518 L 284.272 648.521 L 282.856 645.518 L 281.442 642.510 L 280.030 639.496 L 278.621 636.476 L 277.214 633.451 L 275.808 630.421 L 274.405 627.385 L 273.005 624.345 L 271.606 621.300 L 270.210 618.249 L 268.816 615.195 L 267.424 612.135 L 266.035 609.072 L 264.648 606.004 L 263.263 602.931 L 261.881 599.855 L 260.501 596.775 L 259.123 593.691 L 257.748 590.603 L 256.375 587.512 L 255.004 584.417 L 253.636 581.319 L 252.271 578.217 L 250.907 575.113 L 249.547 572.005 L 248.188 568.895 L 246.833 565.782 L 245.479 562.667 L 244.128 559.549 L 242.780 556.428 L 241.435 553.306 L 240.091 550.181 L 238.751 547.054 L 237.413 543.926 L 236.077 540.795 L 234.744 537.663 L 233.414 534.530 L 232.087 531.395 L 230.762 528.259 L 229.439 525.122 L 228.120 521.984 L 226.803 518.845 L 225.489 515.705 L 224.177 512.565 L 222.868 509.424 L 221.562 506.283 L 220.259 503.142 L 218.958 500.000 L 217.661 496.858 L 216.366 493.717 L 215.073 490.576 L 213.784 487.435 L 212.497 484.295 L 211.214 481.155 L 209.933 478.016 L 208.655 474.878 L 207.380 471.741 L 206.107 468.605 L 204.838 465.470 L 203.572 462.337 L 202.308 459.205 L 201.048 456.074 L 199.790 452.946 L 198.535 449.819 L 197.284 446.694 L 196.035 443.572 L 194.789 440.451 L 193.546 437.333 L 192.307 434.218 L 191.070 431.105 L 189.837 427.995 L 188.606 424.887 L 187.379 421.783 L 186.154 418.681 L 184.933 415.583 L 183.715 412.488 L 182.500 409.397 L 181.288 406.309 L 180.079 403.225 L 178.874 400.145 L 177.671 397.069 L 176.472 393.996 L 175.276 390.928 L 174.083 387.865 L 172.894 384.805 L 171.707 381.751 L 170.524 378.700 L 169.344 375.655 L 168.167 372.615 L 166.994 369.579 L 165.824 366.549 L 164.657 363.524 L 163.494 360.504 L 162.334 357.490 L 161.177 354.482 L 160.023 351.479 L 158.873 348.482 L 157.726 345.492 L 156.583 342.507 L 155.443 339.528 L 154.307 336.556 L 153.173 333.590 L 152.044 330.631 L 150.917 327.679 L 149.794 324.733 L 148.675 321.794 L 147.559 318.862 L 146.447 315.938 L 145.338 313.020 L 144.232 310.110 L 143.130 307.208 L 142.032 304.313 L 140.937 301.426 L 139.845 298.547 L 138.758 295.675 L 137.673 292.812 L 136.593 289.957 L 135.516 287.110 L 134.442 284.272 L 133.372 281.442 L 132.306 278.621 L 131.243 275.808 L 130.184 273.005 L 129.129 270.210 L 128.077 267.424 L 127.029 264.648 L 125.985 261.881 L 124.944 259.123 L 123.908 256.375 L 122.874 253.636 L 121.845 250.907 L 120.819 248.188 L 119.797 245.479 L 118.779 242.780 L 117.764 240.091 L 116.753 237.413 L 115.747 234.744 L 114.743 232.087 L 113.744 229.439 L 112.748 226.803 L 111.757 224.177 L 110.769 221.562 L 109.785 218.958 L 108.805 216.366 L 107.828 213.784 L 106.856 211.214 L 105.887 208.655 L 104.922 206.107 L 103.962 203.572 L 103.005 201.048 L 102.052 198.535 L 101.103 196.035 L 100.158 193.546 L 99.217 191.070 L 98.279 188.606 L 97.346 186.154 L 96.417 183.715 L 95.492 181.288 L 94.570 178.874 L 93.653 176.472 L 92.740 174.083 L 91.830 171.707 L 90.925 169.344 L 90.024 166.994 L 89.127 164.657 L 88.234 162.334 L 87.345 160.023 L 86.460 157.726 L 85.579 155.443 L 84.702 153.173 L 83.829 150.917 L 82.961 148.675 L 82.096 146.447 L 81.236 144.232 L 80.380 142.032 L 79.528 139.845 L 78.680 137.673 L 77.836 135.516 L 76.996 133.372 L 76.161 131.243 L 75.330 129.129 L 74.503 127.029 L 73.680 124.944 L 72.861 122.874 L 72.047 120.819 L 71.237 118.779 L 70.431 116.753 L 69.629 114.743 L 68.832 112.748 L 68.038 110.769 L 67.249 108.805 L 66.465 106.856 L 65.684 104.922 L 64.908 103.005 L 64.136 101.103 L 63.369 99.217 L 62.606 97.346 L 61.847 95.492 L 61.092 93.653 L 60.342 91.830 L 59.596 90.024 L 58.854 88.234 L 58.117 86.460 L 57.384 84.702 L 56.656 82.961 L 55.932 81.236 L 55.212 79.528 L 54.497 77.836 L 53.786 76.161 L 53.079 74.503 L 52.377 72.861 L 51.679 71.237 L 50.986 69.629 L 50.297 68.038 L 49.613 66.465 L 48.933 64.908 L 48.258 63.369 L 47.586 61.847 L 46.920 60.342 L 46.258 58.854 L 45.600 57.384 L 44.947 55.932 L 44.298 54.497 L 43.654 53.079 L 43.015 51.679 L 42.379 50.297 L 41.749 48.933 L 41.123 47.586 L 40.501 46.258 L 39.884 44.947 L 39.272 43.654 L 38.664 42.379 L 38.060 41.123 L 37.461 39.884 L 36.867 38.664 L 36.277 37.461 L 35.692 36.277 L 35.112 35.112 L 34.536 33.964 L 33.964 32.836 L 33.398 31.725 L 32.836 30.633 L 32.278 29.560 L 31.725 28.505 L 31.177 27.468 L 30.633 26.451 L 30.094 25.452 L 29.560 24.472 L 29.030 23.510 L 28.505 22.568 L 27.984 21.644 L 27.468 20.739 L 26.957 19.853 L 26.451 18.986 L 25.949 18.138 L 25.452 17.309 L 24.959 16.499 L 24.472 15.708 L 23.989 14.937 L 23.510 14.184 L 23.037 13.451 L 22.568 12.737 L 22.103 12.042 L 21.644 11.366 L 21.189 10.710 L 20.739 10.072 L 20.294 9.455 L 19.853 8.856 L 19.417 8.277 L 18.986 7.718 L 18.560 7.178 L 18.138 6.657 L 17.721 6.156 L 17.309 5.674 L 16.902 5.212 L 16.499 4.769 L 16.101 4.346 L 15.708 3.943 L 15.320 3.559 L 14.937 3.194 L 14.558 2.850 L 14.184 2.524 L 13.815 2.219 L 13.451 1.933 L 13.091 1.667 L 12.737 1.421 L 12.387 1.194 L 12.042 0.987 L 11.701 0.799 L 11.366 0.632 L 11.035 0.484 L 10.710 0.355 L 10.389 0.247 L 10.072 0.158 L 9.761 0.089 L 9.455 0.039 L 9.153 0.010 L 8.856 0.000 L 8.564 0.010 L 8.277 0.039 L 7.995 0.089 L 7.718 0.158 L 7.445 0.247 L 7.178 0.355 L 6.915 0.484 L 6.657 0.632 L 6.404 0.799 L 6.156 0.987 L 5.913 1.194 L 5.674 1.421 L 5.441 1.667 L 5.212 1.933 L 4.988 2.219 L 4.769 2.524 L 4.555 2.850 L 4.346 3.194 L 4.142 3.559 L 3.943 3.943 L 3.748 4.346 L 3.559 4.769 L 3.374 5.212 L 3.194 5.674 L 3.020 6.156 L 2.850 6.657 L 2.685 7.178 L 2.524 7.718 L 2.369 8.277 L 2.219 8.856 L 2.074 9.455 L 1.933 10.072 L 1.798 10.710 L 1.667 11.366 L 1.541 12.042 L 1.421 12.737 L 1.305 13.451 L 1.194 14.184 L 1.088 14.937 L 0.987 15.708 L 0.890 16.499 L 0.799 17.309 L 0.713 18.138 L 0.632 18.986 L 0.555 19.853 L 0.484 20.739 L 0.417 21.644 L 0.355 22.568 L 0.299 23.510 L 0.247 24.472 L 0.200 25.452 L 0.158 26.451 L 0.121 27.468 L 0.089 28.505 L 0.062 29.560 L 0.039 30.633 L 0.022 31.725 L 0.010 32.836 L 0.002 33.964 L 0.000 35.112 L 0.002 36.277 L 0.010 37.461 L 0.022 38.664 L 0.039 39.884 L 0.062 41.123 L 0.089 42.379 L 0.121 43.654 L 0.158 44.947 L 0.200 46.258 L 0.247 47.586 L 0.299 48.933 L 0.355 50.297 L 0.417 51.679 L 0.484 53.079 L 0.555 54.497 L 0.632 55.932 L 0.713 57.384 L 0.799 58.854 L 0.890 60.342 L 0.987 61.847 L 1.088 63.369 L 1.194 64.908 L 1.305 66.465 L 1.421 68.038 L 1.541 69.629 L 1.667 71.237 L 1.798 72.861 L 1.933 74.503 L 2.074 76.161 L 2.219 77.836 L 2.369 79.528 L 2.524 81.236 L 2.685 82.961 L 2.850 84.702 L 3.020 86.460 L 3.194 88.234 L 3.374 90.024 L 3.559 91.830 L 3.748 93.653 L 3.943 95.492 L 4.142 97.346 L 4.346 99.217 L 4.555 101.103 L 4.769 103.005 L 4.988 104.922 L 5.212 106.856 L 5.441 108.805 L 5.674 110.769 L 5.913 112.748 L 6.156 114.743 L 6.404 116.753 L 6.657 118.779 L 6.915 120.819 L 7.178 122.874 L 7.445 124.944 L 7.718 127.029 L 7.995 129.129 L 8.277 131.243 L 8.564 133.372 L 8.856 135.516 L 9.153 137.673 L 9.455 139.845 L 9.761 142.032 L 10.072 144.232 L 10.389 146.447 L 10.710 148.675 L 11.035 150.917 L 11.366 153.173 L 11.701 155.443 L 12.042 157.726 L 12.387 160.023 L 12.737 162.334 L 13.091 164.657 L 13.451 166.994 L 13.815 169.344 L 14.184 171.707 L 14.558 174.083 L 14.937 176.472 L 15.320 178.874 L 15.708 181.288 L 16.101 183.715 L 16.499 186.154 L 16.902 188.606 L 17.309 191.070 L 17.721 193.546 L 18.138 196.035 L 18.560 198.535 L 18.986 201.048 L 19.417 203.572 L 19.853 206.107 L 20.294 208.655 L 20.739 211.214 L 21.189 213.784 L 21.644 216.366 L 22.103 218.958 L 22.568 221.562 L 23.037 224.177 L 23.510 226.803 L 23.989 229.439 L 24.472 232.087 L 24.959 234.744 L 25.452 237.413 L 25.949 240.091 L 26.451 242.780 L 26.957 245.479 L 27.468 248.188 L 27.984 250.907 L 28.505 253.636 L 29.030 256.375 L 29.560 259.123 L 30.094 261.881 L 30.633 264.648 L 31.177 267.424 L 31.725 270.210 L 32.278 273.005 L 32.836 275.808 L 33.398 278.621 L 33.964 281.442 L 34.536 284.272 L 35.112 287.110 L 35.692 289.957 L 36.277 292.812 L 36.867 295.675 L 37.461 298.547 L 38.060 301.426 L 38.664 304.313 L 39.272 307.208 L 39.884 310.110 L 40.501 313.020 L 41.123 315.938 L 41.749 318.862 L 42.379 321.794 L 43.015 324.733 L 43.654 327.679 L 44.298 330.631 L 44.947 333.590 L 45.600 336.556 L 46.258 339.528 L 46.920 342.507 L 47.586 345.492 L 48.258 348.482 L 48.933 351.479 L 49.613 354.482 L 50.297 357.490 L 50.986 360.504 L 51.679 363.524 L 52.377 366.549 L 53.079 369.579 L 53.786 372.615 L 54.497 375.655 L 55.212 378.700 L 55.932 381.751 L 56.656 384.805 L 57.384 387.865 L 58.117 390.928 L 58.854 393.996 L 59.596 397.069 L 60.342 400.145 L 61.092 403.225 L 61.847 406.309 L 62.606 409.397 L 63.369 412.488 L 64.136 415.583 L 64.908 418.681 L 65.684 421.783 L 66.465 424.887 L 67.249 427.995 L 68.038 431.105 L 68.832 434.218 L 69.629 437.333 L 70.431 440.451 L 71.237 443.572 L 72.047 446.694 L 72.861 449.819 L 73.680 452.946 L 74.503 456.074 L 75.330 459.205 L 76.161 462.337 L 76.996 465.470 L 77.836 468.605 L 78.680 471.741 L 79.528 474.878 L 80.380 478.016 L 81.236 481.155 L 82.096 484.295 L 82.961 487.435 L 83.829 490.576 L 84.702 493.717 L 85.579 496.858 L 86.460 500.000 L 87.345 503.142 L 88.234 506.283 L 89.127 509.424 L 90.024 512.565 L 90.925 515.705 L 91.830 518.845 L 92.740 521.984 L 93.653 525.122 L 94.570 528.259 L 95.492 531.395 L 96.417 534.530 L 97.346 537.663 L 98.279 540.795 L 99.217 543.926 L 100.158 547.054 L 101.103 550.181 L 102.052 553.306 L 103.005 556.428 L 103.962 559.549 L 104.922 562.667 L 105.887 565.782 L 106.856 568.895 L 107.828 572.005 L 108.805 575.113 L 109.785 578.217 L 110.769 581.319 L 111.757 584.417 L 112.748 587.512 L 113.744 590.603 L 114.743 593.691 L 115.747 596.775 L 116.753 599.855 L 117.764 602.931 L 118.779 606.004 L 119.797 609.072 L 120.819 612.135 L 121.845 615.195 L 122.874 618.249 L 123.908 621.300 L 124.944 624.345 L 125.985 627.385 L 127.029 630.421 L 128.077 633.451 L 129.129 636.476 L 130.184 639.496 L 131.243 642.510 L 132.306 645.518 L 133.372 648.521 L 134.442 651.518 L 135.516 654.508 L 136.593 657.493 L 137.673 660.472 L 138.758 663.444 L 139.845 666.410 L 140.937 669.369 L 142.032 672.321 L 143.130 675.267 L 144.232 678.206 L 145.338 681.138 L 146.447 684.062 L 147.559 686.980 L 148.675 689.890 L 149.794 692.792 L 150.917 695.687 L 152.044 698.574 L 153.173 701.453 L 154.307 704.325 L 155.443 707.188 L 156.583 710.043 L 157.726 712.890 L 158.873 715.728 L 160.023 718.558 L 161.177 721.379 L 162.334 724.192 L 163.494 726.995 L 164.657 729.790 L 165.824 732.576 L 166.994 735.352 L 168.167 738.119 L 169.344 740.877 L 170.524 743.625 L 171.707 746.364 L 172.894 749.093 L 174.083 751.812 L 175.276 754.521 L 176.472 757.220 L 177.671 759.909 L 178.874 762.587 L 180.079 765.256 L 181.288 767.913 L 182.500 770.561 L 183.715 773.197 L 184.933 775.823 L 186.154 778.438 L 187.379 781.042 L 188.606 783.634 L 189.837 786.216 L 191.070 788.786 L 192.307 791.345 L 193.546 793.893 L 194.789 796.428 L 196.035 798.952 L 197.284 801.465 L 198.535 803.965 L 199.790 806.454 L 201.048 808.930 L 202.308 811.394 L 203.572 813.846 L 204.838 816.285 L 206.107 818.712 L 207.380 821.126 L 208.655 823.528 L 209.933 825.917 L 211.214 828.293 L 212.497 830.656 L 213.784 833.006 L 215.073 835.343 L 216.366 837.666 L 217.661 839.977 L 218.958 842.274 L 220.259 844.557 L 221.562 846.827 L 222.868 849.083 L 224.177 851.325 L 225.489 853.553 L 226.803 855.768 L 228.120 857.968 L 229.439 860.155 L 230.762 862.327 L 232.087 864.484 L 233.414 866.628 L 234.744 868.757 L 236.077 870.871 L 237.413 872.971 L 238.751 875.056 L 240.091 877.126 L 241.435 879.181 L 242.780 881.221 L 244.128 883.247 L 245.479 885.257 L 246.833 887.252 L 248.188 889.231 L 249.547 891.195 L 250.907 893.144 L 252.271 895.078 L 253.636 896.995 L 255.004 898.897 L 256.375 900.783 L 257.748 902.654 L 259.123 904.508 L 260.501 906.347 L 261.881 908.170 L 263.263 909.976 L 264.648 911.766 L 266.035 913.540 L 267.424 915.298 L 268.816 917.039 L 270.210 918.764 L 271.606 920.472 L 273.005 922.164 L 274.405 923.839 L 275.808 925.497 L 277.214 927.139 L 278.621 928.763 L 280.030 930.371 L 281.442 931.962 L 282.856 933.535 L 284.272 935.092 L 285.690 936.631 L 287.110 938.153 L 288.533 939.658 L 289.957 941.146 L 291.384 942.616 L 292.812 944.068 L 294.243 945.503 L 295.675 946.921 L 297.110 948.321 L 298.547 949.703 L 299.985 951.067 L 301.426 952.414 L 302.869 953.742 L 304.313 955.053 L 305.760 956.346 L 307.208 957.621 L 308.658 958.877 L 310.110 960.116 L 311.564 961.336 L 313.020 962.539 L 314.478 963.723 L 315.938 964.888 L 317.399 966.036 L 318.862 967.164 L 320.327 968.275 L 321.794 969.367 L 323.263 970.440 L 324.733 971.495 L 326.205 972.532 L 327.679 973.549 L 329.154 974.548 L 330.631 975.528 L 332.110 976.490 L 333.590 977.432 L 335.072 978.356 L 336.556 979.261 L 338.041 980.147 L 339.528 981.014 L 341.017 981.862 L 342.507 982.691 L 343.998 983.501 L 345.492 984.292 L 346.986 985.063 L 348.482 985.816 L 349.980 986.549 L 351.479 987.263 L 352.980 987.958 L 354.482 988.634 L 355.985 989.290 L 357.490 989.928 L 358.997 990.545 L 360.504 991.144 L 362.014 991.723 L 363.524 992.282 L 365.036 992.822 L 366.549 993.343 L 368.063 993.844 L 369.579 994.326 L 371.096 994.788 L 372.615 995.231 L 374.134 995.654 L 375.655 996.057 L 377.177 996.441 L 378.700 996.806 L 380.225 997.150 L 381.751 997.476 L 383.277 997.781 L 384.805 998.067 L 386.334 998.333 L 387.865 998.579 L 389.396 998.806 L 390.928 999.013 L 392.462 999.201 L 393.996 999.368 L 395.532 999.516 L 397.069 999.645 L 398.606 999.753 L 400.145 999.842 L 401.685 999.911 L 403.225 999.961 L 404.767 999.990 L 406.309 1000.000 L 407.853 999.990 L 409.397 999.961 L 410.942 999.911 L 412.488 999.842 L 414.035 999.753 L 415.583 999.645 L 417.132 999.516 L 418.681 999.368 L 420.232 999.201 L 421.783 999.013 L 423.335 998.806 L 424.887 998.579 L 426.441 998.333 L 427.995 998.067 L 429.549 997.781 L 431.105 997.476 L 432.661 997.150 L 434.218 996.806 L 435.775 996.441 L 437.333 996.057 L 438.892 995.654 L 440.451 995.231 L 442.011 994.788 L 443.572 994.326 L 445.133 993.844 L 446.694 993.343 L 448.257 992.822 L 449.819 992.282 L 451.382 991.723 L 452.946 991.144 L 454.510 990.545 L 456.074 989.928 L 457.639 989.290 L 459.205 988.634 L 460.770 987.958 L 462.337 987.263 L 463.903 986.549 L 465.470 985.816 L 467.037 985.063 L 468.605 984.292 L 470.173 983.501 L 471.741 982.691 L 473.309 981.862 L 474.878 981.014 L 476.447 980.147 L 478.016 979.261 L 479.585 978.356 L 481.155 977.432 L 482.725 976.490 L 484.295 975.528 L 485.865 974.548 L 487.435 973.549 L 489.005 972.532 L 490.576 971.495 L 492.146 970.440 L 493.717 969.367 L 495.288 968.275 L 496.858 967.164 L 498.429 966.036 L 500.000 964.888 L 501.571 963.723 L 503.142 962.539 L 504.712 961.336 L 506.283 960.116 L 507.854 958.877 L 509.424 957.621 L 510.995 956.346 L 512.565 955.053 L 514.135 953.742 L 515.705 952.414 L 517.275 951.067 L 518.845 949.703 L 520.415 948.321 L 521.984 946.921 L 523.553 945.503 L 525.122 944.068 L 526.691 942.616 L 528.259 941.146 L 529.827 939.658 L 531.395 938.153 L 532.963 936.631 L 534.530 935.092 L 536.097 933.535 L 537.663 931.962 L 539.230 930.371 L 540.795 928.763 L 542.361 927.139 L 543.926 925.497 L 545.490 923.839 L 547.054 922.164 L 548.618 920.472 L 550.181 918.764 L 551.743 917.039 L 553.306 915.298 L 554.867 913.540 L 556.428 911.766 L 557.989 909.976 L 559.549 908.170 L 561.108 906.347 L 562.667 904.508 L 564.225 902.654 L 565.782 900.783 L 567.339 898.897 L 568.895 896.995 L 570.451 895.078 L 572.005 893.144 L 573.559 891.195 L 575.113 889.231 L 576.665 887.252 L 578.217 885.257 L 579.768 883.247 L 581.319 881.221 L 582.868 879.181 L 584.417 877.126 L 585.965 875.056 L 587.512 872.971 L 589.058 870.871 L 590.603 868.757 L 592.147 866.628 L 593.691 864.484 L 595.233 862.327 L 596.775 860.155 L 598.315 857.968 L 599.855 855.768 L 601.394 853.553 L 602.931 851.325 L 604.468 849.083 L 606.004 846.827 L 607.538 844.557 L 609.072 842.274 L 610.604 839.977 L 612.135 837.666 L 613.666 835.343 L 615.195 833.006 L 616.723 830.656 L 618.249 828.293 L 619.775 825.917 L 621.300 823.528 L 622.823 821.126 L 624.345 818.712 L 625.866 816.285 L 627.385 813.846 L 628.904 811.394 L 630.421 808.930 L 631.937 806.454 L 633.451 803.965 L 634.964 801.465 L 636.476 798.952 L 637.986 796.428 L 639.496 793.893 L 641.003 791.345 L 642.510 788.786 L 644.015 786.216 L 645.518 783.634 L 647.020 781.042 L 648.521 778.438 L 650.020 775.823 L 651.518 773.197 L 653.014 770.561 L 654.508 767.913 L 656.002 765.256 L 657.493 762.587 L 658.983 759.909 L 660.472 757.220 L 661.959 754.521 L 663.444 751.812 L 664.928 749.093 L 666.410 746.364 L 667.890 743.625 L 669.369 740.877 L 670.846 738.119 L 672.321 735.352 L 673.795 732.576 L 675.267 729.790 L 676.737 726.995 L 678.206 724.192 L 679.673 721.379 L 681.138 718.558 L 682.601 715.728 L 684.062 712.890 L 685.522 710.043 L 686.980 707.188 L 688.436 704.325 L 689.890 701.453 L 691.342 698.574 L 692.792 695.687 L 694.240 692.792 L 695.687 689.890 L 697.131 686.980 L 698.574 684.062 L 700.015 681.138 L 701.453 678.206 L 702.890 675.267 L 704.325 672.321 L 705.757 669.369 L 707.188 666.410 L 708.616 663.444 L 710.043 660.472 L 711.467 657.493 L 712.890 654.508 L 714.310 651.518 L 715.728 648.521 L 717.144 645.518 L 718.558 642.510 L 719.970 639.496 L 721.379 636.476 L 722.786 633.451 L 724.192 630.421 L 725.595 627.385 L 726.995 624.345 L 728.394 621.300 L 729.790 618.249 L 731.184 615.195 L 732.576 612.135 L 733.965 609.072 L 735.352 606.004 L 736.737 602.931 L 738.119 599.855 L 739.499 596.775 L 740.877 593.691 L 742.252 590.603 L 743.625 587.512 L 744.996 584.417 L 746.364 581.319 L 747.729 578.217 L 749.093 575.113 L 750.453 572.005 L 751.812 568.895 L 753.167 565.782 L 754.521 562.667 L 755.872 559.549 L 757.220 556.428 L 758.565 553.306 L 759.909 550.181 L 761.249 547.054 L 762.587 543.926 L 763.923 540.795 L 765.256 537.663 L 766.586 534.530 L 767.913 531.395 L 769.238 528.259 L 770.561 525.122 L 771.880 521.984 L 773.197 518.845 L 774.511 515.705 L 775.823 512.565 L 777.132 509.424 L 778.438 506.283 L 779.741 503.142 L 781.042 500.000 L 782.339 496.858 L 783.634 493.717 L 784.927 490.576 L 786.216 487.435 L 787.503 484.295 L 788.786 481.155 L 790.067 478.016 L 791.345 474.878 L 792.620 471.741 L 793.893 468.605 L 795.162 465.470 L 796.428 462.337 L 797.692 459.205 L 798.952 456.074 L 800.210 452.946 L 801.465 449.819 L 802.716 446.694 L 803.965 443.572 L 805.211 440.451 L 806.454 437.333 L 807.693 434.218 L 808.930 431.105 L 810.163 427.995 L 811.394 424.887 L 812.621 421.783 L 813.846 418.681 L 815.067 415.583 L 816.285 412.488 L 817.500 409.397 L 818.712 406.309 L 819.921 403.225 L 821.126 400.145 L 822.329 397.069 L 823.528 393.996 L 824.724 390.928 L 825.917 387.865 L 827.106 384.805 L 828.293 381.751 L 829.476 378.700 L 830.656 375.655 L 831.833 372.615 L 833.006 369.579 L 834.176 366.549 L 835.343 363.524 L 836.506 360.504 L 837.666 357.490 L 838.823 354.482 L 839.977 351.479 L 841.127 348.482 L 842.274 345.492 L 843.417 342.507 L 844.557 339.528 L 845.693 336.556 L 846.827 333.590 L 847.956 330.631 L 849.083 327.679 L 850.206 324.733 L 851.325 321.794 L 852.441 318.862 L 853.553 315.938 L 854.662 313.020 L 855.768 310.110 L 856.870 307.208 L 857.968 304.313 L 859.063 301.426 L 860.155 298.547 L 861.242 295.675 L 862.327 292.812 L 863.407 289.957 L 864.484 287.110 L 865.558 284.272 L 866.628 281.442 L 867.694 278.621 L 868.757 275.808 L 869.816 273.005 L 870.871 270.210 L 871.923 267.424 L 872.971 264.648 L 874.015 261.881 L 875.056 259.123 L 876.092 256.375 L 877.126 253.636 L 878.155 250.907 L 879.181 248.188 L 880.203 245.479 L 881.221 242.780 L 882.236 240.091 L 883.247 237.413 L 884.253 234.744 L 885.257 232.087 L 886.256 229.439 L 887.252 226.803 L 888.243 224.177 L 889.231 221.562 L 890.215 218.958 L 891.195 216.366 L 892.172 213.784 L 893.144 211.214 L 894.113 208.655 L 895.078 206.107 L 896.038 203.572 L 896.995 201.048 L 897.948 198.535 L 898.897 196.035 L 899.842 193.546 L 900.783 191.070 L 901.721 188.606 L 902.654 186.154 L 903.583 183.715 L 904.508 181.288 L 905.430 178.874 L 906.347 176.472 L 907.260 174.083 L 908.170 171.707 L 909.075 169.344 L 909.976 166.994 L 910.873 164.657 L 911.766 162.334 L 912.655 160.023 L 913.540 157.726 L 914.421 155.443 L 915.298 153.173 L 916.171 150.917 L 917.039 148.675 L 917.904 146.447 L 918.764 144.232 L 919.620 142.032 L 920.472 139.845 L 921.320 137.673 L 922.164 135.516 L 923.004 133.372 L 923.839 131.243 L 924.670 129.129 L 925.497 127.029 L 926.320 124.944 L 927.139 122.874 L 927.953 120.819 L 928.763 118.779 L 929.569 116.753 L 930.371 114.743 L 931.168 112.748 L 931.962 110.769 L 932.751 108.805 L 933.535 106.856 L 934.316 104.922 L 935.092 103.005 L 935.864 101.103 L 936.631 99.217 L 937.394 97.346 L 938.153 95.492 L 938.908 93.653 L 939.658 91.830 L 940.404 90.024 L 941.146 88.234 L 941.883 86.460 L 942.616 84.702 L 943.344 82.961 L 944.068 81.236 L 944.788 79.528 L 945.503 77.836 L 946.214 76.161 L 946.921 74.503 L 947.623 72.861 L 948.321 71.237 L 949.014 69.629 L 949.703 68.038 L 950.387 66.465 L 951.067 64.908 L 951.742 63.369 L 952.414 61.847 L 953.080 60.342 L 953.742 58.854 L 954.400 57.384 L 955.053 55.932 L 955.702 54.497 L 956.346 53.079 L 956.985 51.679 L 957.621 50.297 L 958.251 48.933 L 958.877 47.586 L 959.499 46.258 L 960.116 44.947 L 960.728 43.654 L 961.336 42.379 L 961.940 41.123 L 962.539 39.884 L 963.133 38.664 L 963.723 37.461 L 964.308 36.277 L 964.888 35.112 L 965.464 33.964 L 966.036 32.836 L 966.602 31.725 L 967.164 30.633 L 967.722 29.560 L 968.275 28.505 L 968.823 27.468 L 969.367 26.451 L 969.906 25.452 L 970.440 24.472 L 970.970 23.510 L 971.495 22.568 L 972.016 21.644 L 972.532 20.739 L 973.043 19.853 L 973.549 18.986 L 974.051 18.138 L 974.548 17.309 L 975.041 16.499 L 975.528 15.708 L 976.011 14.937 L 976.490 14.184 L 976.963 13.451 L 977.432 12.737 L 977.897 12.042 L 978.356 11.366 L 978.811 10.710 L 979.261 10.072 L 979.706 9.455 L 980.147 8.856 L 980.583 8.277 L 981.014 7.718 L 981.440 7.178 L 981.862 6.657 L 982.279 6.156 L 982.691 5.674 L 983.098 5.212 L 983.501 4.769 L 983.899 4.346 L 984.292 3.943 L 984.680 3.559 L 985.063 3.194 L 985.442 2.850 L 985.816 2.524 L 986.185 2.219 L 986.549 1.933 L 986.909 1.667 L 987.263 1.421 L 987.613 1.194 L 987.958 0.987 L 988.299 0.799 L 988.634 0.632 L 988.965 0.484 L 989.290 0.355 L 989.611 0.247 L 989.928 0.158 L 990.239 0.089 L 990.545 0.039 L 990.847 0.010 L 991.144 0.000 L 991.436 0.010 L 991.723 0.039 L 992.005 0.089 L 992.282 0.158 L 992.555 0.247 L 992.822 0.355 L 993.085 0.484 L 993.343 0.632 L 993.596 0.799 L 993.844 0.987 L 994.087 1.194 L 994.326 1.421 L 994.559 1.667 L 994.788 1.933 L 995.012 2.219 L 995.231 2.524 L 995.445 2.850 L 995.654 3.194 L 995.858 3.559 L 996.057 3.943 L 996.252 4.346 L 996.441 4.769 L 996.626 5.212 L 996.806 5.674 L 996.980 6.156 L 997.150 6.657 L 997.315 7.178 L 997.476 7.718 L 997.631 8.277 L 997.781 8.856 L 997.926 9.455 L 998.067 10.072 L 998.202 10.710 L 998.333 11.366 L 998.459 12.042 L 998.579 12.737 L 998.695 13.451 L 998.806 14.184 L 998.912 14.937 L 999.013 15.708 L 999.110 16.499 L 999.201 17.309 L 999.287 18.138 L 999.368 18.986 L 999.445 19.853 L 999.516 20.739 L 999.583 21.644 L 999.645 22.568 L 999.701 23.510 L 999.753 24.472 L 999.800 25.452 L 999.842 26.451 L 999.879 27.468 L 999.911 28.505 L 999.938 29.560 L 999.961 30.633 L 999.978 31.725 L 999.990 32.836 L 999.998 33.964 L 1000.000 35.112 L 999.998 36.277 L 999.990 37.461 L 999.978 38.664 L 999.961 39.884 L 999.938 41.123 L 999.911 42.379 L 999.879 43.654 L 999.842 44.947 L 999.800 46.258 L 999.753 47.586 L 999.701 48.933 L 999.645 50.297 L 999.583 51.679 L 999.516 53.079 L 999.445 54.497 L 999.368 55.932 L 999.287 57.384 L 999.201 58.854 L 999.110 60.342 L 999.013 61.847 L 998.912 63.369 L 998.806 64.908 L 998.695 66.465 L 998.579 68.038 L 998.459 69.629 L 998.333 71.237 L 998.202 72.861 L 998.067 74.503 L 997.926 76.161 L 997.781 77.836 L 997.631 79.528 L 997.476 81.236 L 997.315 82.961 L 997.150 84.702 L 996.980 86.460 L 996.806 88.234 L 996.626 90.024 L 996.441 91.830 L 996.252 93.653 L 996.057 95.492 L 995.858 97.346 L 995.654 99.217 L 995.445 101.103 L 995.231 103.005 L 995.012 104.922 L 994.788 106.856 L 994.559 108.805 L 994.326 110.769 L 994.087 112.748 L 993.844 114.743 L 993.596 116.753 L 993.343 118.779 L 993.085 120.819 L 992.822 122.874 L 992.555 124.944 L 992.282 127.029 L 992.005 129.129 L 991.723 131.243 L 991.436 133.372 L 991.144 135.516 L 990.847 137.673 L 990.545 139.845 L 990.239 142.032 L 989.928 144.232 L 989.611 146.447 L 989.290 148.675 L 988.965 150.917 L 988.634 153.173 L 988.299 155.443 L 987.958 157.726 L 987.613 160.023 L 987.263 162.334 L 986.909 164.657 L 986.549 166.994 L 986.185 169.344 L 985.816 171.707 L 985.442 174.083 L 985.063 176.472 L 984.680 178.874 L 984.292 181.288 L 983.899 183.715 L 983.501 186.154 L 983.098 188.606 L 982.691 191.070 L 982.279 193.546 L 981.862 196.035 L 981.440 198.535 L 981.014 201.048 L 980.583 203.572 L 980.147 206.107 L 979.706 208.655 L 979.261 211.214 L 978.811 213.784 L 978.356 216.366 L 977.897 218.958 L 977.432 221.562 L 976.963 224.177 L 976.490 226.803 L 976.011 229.439 L 975.528 232.087 L 975.041 234.744 L 974.548 237.413 L 974.051 240.091 L 973.549 242.780 L 973.043 245.479 L 972.532 248.188 L 972.016 250.907 L 971.495 253.636 L 970.970 256.375 L 970.440 259.123 L 969.906 261.881 L 969.367 264.648 L 968.823 267.424 L 968.275 270.210 L 967.722 273.005 L 967.164 275.808 L 966.602 278.621 L 966.036 281.442 L 965.464 284.272 L 964.888 287.110 L 964.308 289.957 L 963.723 292.812 L 963.133 295.675 L 962.539 298.547 L 961.940 301.426 L 961.336 304.313 L 960.728 307.208 L 960.116 310.110 L 959.499 313.020 L 958.877 315.938 L 958.251 318.862 L 957.621 321.794 L 956.985 324.733 L 956.346 327.679 L 955.702 330.631 L 955.053 333.590 L 954.400 336.556 L 953.742 339.528 L 953.080 342.507 L 952.414 345.492 L 951.742 348.482 L 951.067 351.479 L 950.387 354.482 L 949.703 357.490 L 949.014 360.504 L 948.321 363.524 L 947.623 366.549 L 946.921 369.579 L 946.214 372.615 L 945.503 375.655 L 944.788 378.700 L 944.068 381.751 L 943.344 384.805 L 942.616 387.865 L 941.883 390.928 L 941.146 393.996 L 940.404 397.069 L 939.658 400.145 L 938.908 403.225 L 938.153 406.309 L 937.394 409.397 L 936.631 412.488 L 935.864 415.583 L 935.092 418.681 L 934.316 421.783 L 933.535 424.887 L 932.751 427.995 L 931.962 431.105 L 931.168 434.218 L 930.371 437.333 L 929.569 440.451 L 928.763 443.572 L 927.953 446.694 L 927.139 449.819 L 926.320 452.946 L 925.497 456.074 L 924.670 459.205 L 923.839 462.337 L 923.004 465.470 L 922.164 468.605 L 921.320 471.741 L 920.472 474.878 L 919.620 478.016 L 918.764 481.155 L 917.904 484.295 L 917.039 487.435 L 916.171 490.576 L 915.298 493.717 L 914.421 496.858 L 913.540 500.000" fill="none" stroke="black" stroke-width="12.0" stroke-linecap="round" stroke-linejoin="round" vector-effect="non-scaling-stroke"/>
</svg>