<svg xmlns="http://www.w3.org/2000/svg" viewBox="-6.000 -6.000 1012.000 1012.000" preserveAspectRatio="xMidYMid meet">
    <path d="M 578.217 500.000 L 573.559 506.283 L 568.895 512.565 L 564.225 518.845 L 559.549 525.122 L 554.867 531.395 L 550.181 537.663 L 545.490 543.926 L 540.795 550.181 L 536.097 556.428 L 531.395 562.667 L 526.691 568.895 L 521.984 575.113 L 517.275 581.319 L 512.565 587.512 L 507.854 593.691 L 503.142 599.855 L 498.429 606.004 L 493.717 612.135 L 489.005 618.249 L 484.295 624.345 L 479.585 630.421 L 474.878 636.476 L 470.173 642.510 L 465.470 648.521 L 460.770 654.508 L 456.074 660.472 L 451.382 666.410 L 446.694 672.321 L 442.011 678.206 L 437.333 684.062 L 432.661 689.890 L 427.995 695.687 L 423.335 701.453 L 418.681 707.188 L 414.035 712.890 L 409.397 718.558 L 404.767 724.192 L 400.145 729.790 L 395.532 735.352 L 390.928 740.877 L 386.334 746.364 L 381.751 751.812 L 377.177 757.220 L 372.615 762.587 L 368.063 767.913 L 363.524 773.197 L 358.997 778.438 L 354.482 783.634 L 349.980 788.786 L 345.492 793.893 L 341.017 798.952 L 336.556 803.965 L 332.110 808.930 L 327.679 813.846 L 323.263 818.712 L 318.862 823.528 L 314.478 828.293 L 310.110 833.006 L 305.760 837.666 L 301.426 842.274 L 297.110 846.827 L 292.812 851.325 L 288.533 855.768 L 284.272 860.155 L 280.030 864.484 L 275.808 868.757 L 271.606 872.971 L 267.424 877.126 L 263.263 881.221 L 259.123 885.257 L 255.004 889.231 L 250.907 893.144 L 246.833 896.995 L 242.780 900.783 L 238.751 904.508 L 234.744 908.170 L 230.762 911.766 L 226.803 915.298 L 222.868 918.764 L 218.958 922.164 L 215.073 925.497 L 211.214 928.763 L 207.380 931.962 L 203.572 935.092 L 199.790 938.153 L 196.035 941.146 L 192.307 944.068 L 188.606 946.921 L 184.933 949.703 L 181.288 952.414 L 177.671 955.053 L 174.083 957.621 L 170.524 960.116 L 166.994 962.539 L 163.494 964.888 L 160.023 967.164 L 156.583 969.367 L 153.173 971.495 L 149.794 973.549 L 146.447 975.528 L 143.130 977.432 L 139.845 979.261 L 136.593 981.014 L 133.372 982.691 L 130.184 984.292 L 127.029 985.816 L 123.908 987.263 L 120.819 988.634 L 117.764 989.928 L 114.743 991.144 L 111.757 992.282 L 108.805 993.343 L 105.887 994.326 L 103.005 995.231 L 100.158 996.057 L 97.346 996.806 L 94.570 997.476 L 91.830 998.067 L 89.127 998.579 L 86.460 999.013 L 83.829 999.368 L 81.236 999.645 L 78.680 999.842 L 76.161 999.961 L 73.680 1000.000 L 71.237 999.961 L 68.832 999.842 L 66.465 999.645 L 64.136 999.368 L 61.847 999.013 L 59.596 998.579 L 57.384 998.067 L 55.212 997.476 L 53.079 996.806 L 50.986 996.057 L 48.933 995.231 L 46.920 994.326 L 44.947 993.343 L 43.015 992.282 L 41.123 991.144 L 39.272 989.928 L 37.461 988.634 L 35.692 987.263 L 33.964 985.816 L 32.278 984.292 L 30.633 982.691 L 29.030 981.014 L 27.468 979.261 L 25.949 977.432 L 24.472 975.528 L 23.037 973.549 L 21.644 971.495 L 20.294 969.367 L 18.986 967.164 L 17.721 964.888 L 16.499 962.539 L 15.320 960.116 L 14.184 957.621 L 13.091 955.053 L 12.042 952.414 L 11.035 949.703 L 10.072 946.921 L 9.153 944.068 L 8.277 941.146 L 7.445 938.153 L 6.657 935.092 L 5.913 931.962 L 5.212 928.763 L 4.555 925.497 L 3.943 922.164 L 3.374 918.764 L 2.850 915.298 L 2.369 911.766 L 1.933 908.170 L 1.541 904.508 L 1.194 900.783 L 0.890 896.995 L 0.632 893.144 L 0.417 889.231 L 0.247 885.257 L 0.121 881.221 L 0.039 877.126 L 0.002 872.971 L 0.010 868.757 L 0.062 864.484 L 0.158 860.155 L 0.299 855.768 L 0.484 851.325 L 0.713 846.827 L 0.987 842.274 L 1.305 837.666 L 1.667 833.006 L 2.074 828.293 L 2.524 823.528 L 3.020 818.712 L 3.559 813.846 L 4.142 808.930 L 4.769 803.965 L 5.441 798.952 L 6.156 793.893 L 6.915 788.786 L 7.718 783.634 L 8.564 778.438 L 9.455 773.197 L 10.389 767.913 L 11.366 762.587 L 12.387 757.220 L 13.451 751.812 L 14.558 746.364 L 15.708 740.877 L 16.902 735.352 L 18.138 729.790 L 19.417 724.192 L 20.739 718.558 L 22.103 712.890 L 23.510 707.188 L 24.959 701.453 L 26.451 695.687 L 27.984 689.890 L 29.560 684.062 L 31.177 678.206 L 32.836 672.321 L 34.536 666.410 L 36.277 660.472 L 38.060 654.508 L 39.884 648.521 L 41.749 642.510 L 43.654 636.476 L 45.600 630.421 L 47.586 624.345 L 49.613 618.249 L 51.679 612.135 L 53.786 606.004 L 55.932 599.855 L 58.117 593.691 L 60.342 587.512 L 62.606 581.319 L 64.908 575.113 L 67.249 568.895 L 69.629 562.667 L 72.047 556.428 L 74.503 550.181 L 76.996 543.926 L 79.528 537.663 L 82.096 531.395 L 84.702 525.122 L 87.345 518.845 L 90.024 512.565 L 92.740 506.283 L 95.492 500.000 L 98.279 493.717 L 101.103 487.435 L 103.962 481.155 L 106.856 474.878 L 109.785 468.605 L 112.748 462.337 L 115.747 456.074 L 118.779 449.819 L 121.845 443.572 L 124.944 437.333 L 128.077 431.105 L 131.243 424.887 L 134.442 418.681 L 137.673 412.488 L 140.937 406.309 L 144.232 400.145 L 147.559 393.996 L 150.917 387.865 L 154.307 381.751 L 157.726 375.655 L 161.177 369.579 L 164.657 363.524 L 168.167 357.490 L 171.707 351.479 L 175.276 345.492 L 178.874 339.528 L 182.500 333.590 L 186.154 327.679 L 189.837 321.794 L 193.546 315.938 L 197.284 310.110 L 201.048 304.313 L 204.838 298.547 L 208.655 292.812 L 212.497 287.110 L 216.366 281.442 L 220.259 275.808 L 224.177 270.210 L 228.120 264.648 L 232.087 259.123 L 236.077 253.636 L 240.091 248.188 L 244.128 242.780 L 248.188 237.413 L 252.271 232.087 L 256.375 226.803 L 260.501 221.562 L 264.648 216.366 L 268.816 211.214 L 273.005 206.107 L 277.214 201.048 L 281.442 196.035 L 285.690 191.070 L 289.957 186.154 L 294.243 181.288 L 298.547 176.472 L 302.869 171.707 L 307.208 166.994 L 311.564 162.334 L 315.938 157.726 L 320.327 153.173 L 324.733 148.675 L 329.154 144.232 L 333.590 139.845 L 338.041 135.516 L 342.507 131.243 L 346.986 127.029 L 351.479 122.874 L 355.985 118.779 L 360.504 114.743 L 365.036 110.769 L 369.579 106.856 L 374.134 103.005 L 378.700 99.217 L 383.277 95.492 L 387.865 91.830 L 392.462 88.234 L 397.069 84.702 L 401.685 81.236 L 406.309 77.836 L 410.942 74.503 L 415.583 71.237 L 420.232 68.038 L 424.887 64.908 L 429.549 61.847 L 434.218 58.854 L 438.892 55.932 L 443.572 53.079 L 448.257 50.297 L 452.946 47.586 L 457.639 44.947 L 462.337 42.379 L 467.037 39.884 L 471.741 37.461 L 476.447 35.112 L 481.155 32.836 L 485.865 30.633 L 490.576 28.505 L 495.288 26.451 L 500.000 24.472 L 504.712 22.568 L 509.424 20.739 L 514.135 18.986 L 518.845 17.309 L 523.553 15.708 L 528.259 14.184 L 532.963 12.737 L 537.663 11.366 L 542.361 10.072 L 547.054 8.856 L 551.743 7.718 L 556.428 6.657 L 561.108 5.674 L 565.782 4.769 L 570.451 3.943 L 575.113 3.194 L 579.768 2.524 L 584.417 1.933 L 589.058 1.421 L 593.691 0.987 L 598.315 0.632 L 602.931 0.355 L 607.538 0.158 L 612.135 0.039 L 616.723 0.000 L 621.300 0.039 L 625.866 0.158 L 630.421 0.355 L 634.964 0.632 L 639.496 0.987 L 644.015 1.421 L 648.521 1.933 L 653.014 2.524 L 657.493 3.194 L 661.959 3.943 L 666.410 4.769 L 670.846 5.674 L 675.267 6.657 L 679.673 7.718 L 684.062 8.856 L 688.436 10.072 L 692.792 11.366 L 697.131 12.737 L 701.453 14.184 L 705.757 15.708 L 710.043 17.309 L 714.310 18.986 L 718.558 20.739 L 722.786 22.568 L 726.995 24.472 L 731.184 26.451 L 735.352 28.505 L 739.499 30.633 L 743.625 32.836 L 747.729 35.112 L 751.812 37.461 L 755.872 39.884 L 759.909 42.379 L 763.923 44.947 L 767.913 47.586 L 771.880 50.297 L 775.823 53.079 L 779.741 55.932 L 783.634 58.854 L 787.503 61.847 L 791.345 64.908 L 795.162 68.038 L 798.952 71.237 L 802.716 74.503 L 806.454 77.836 L 810.163 81.236 L 813.846 84.702 L 817.500 88.234 L 821.126 91.830 L 824.724 95.492 L 828.293 99.217 L 831.833 103.005 L 835.343 106.856 L 838.823 110.769 L 842.274 114.743 L 845.693 118.779 L 849.083 122.874 L 852.441 127.029 L 855.768 131.243 L 859.063 135.516 L 862.327 139.845 L 865.558 144.232 L 868.757 148.675 L 871.923 153.173 L 875.056 157.726 L 878.155 162.334 L 881.221 166.994 L 884.253 171.707 L 887.252 176.472 L 890.215 181.288 L 893.144 186.154 L 896.038 191.070 L 898.897 196.035 L 901.721 201.048 L 904.508 206.107 L 907.260 211.214 L 909.976 216.366 L 912.655 221.562 L 915.298 226.803 L 917.904 232.087 L 920.472 237.413 L 923.004 242.780 L 925.497 248.188 L 927.953 253.636 L 930.371 259.123 L 932.751 264.648 L 935.092 270.210 L 937.394 275.808 L 939.658 281.442 L 941.883 287.110 L 944.068 292.812 L 946.214 298.547 L 948.321 304.313 L 950.387 310.110 L 952.414 315.938 L 954.400 321.794 L 956.346 327.679 L 958.251 333.590 L 960.116 339.528 L 961.940 345.492 L 963.723 351.479 L 965.464 357.490 L 967.164 363.524 L 968.823 369.579 L 970.440 375.655 L 972.016 381.751 L 973.549 387.865 L 975.041 393.996 L 976.490 400.145 L 977.897 406.309 L 979.261 412.488 L 980.583 418.681 L 981.862 424.887 L 983.098 431.105 L 984.292 437.333 L 985.442 443.572 L 986.549 449.819 L 987.613 456.074 L 988.634 462.337 L 989.611 468.605 L 990.545 474.878 L 991.436 481.155 L 992.282 487.435 L 993.085 493.717 L 993.844 500.000 L 994.559 506.283 L 995.231 512.565 L 995.858 518.845 L 996.441 525.122 L 996.980 531.395 L 997.476 537.663 L 997.926 543.926 L 998.333 550.181 L 998.695 556.428 L 999.013 562.667 L 999.287 568.895 L 999.516 575.113 L 999.701 581.319 L 999.842 587.512 L 999.938 593.691 L 999.990 599.855 L 999.998 606.004 L 999.961 612.135 L 999.879 618.249 L 999.753 624.345 L 999.583 630.421 L 999.368 636.476 L 999.110 642.510 L 998.806 648.521 L 998.459 654.508 L 998.067 660.472 L 997.631 666.410 L 997.150 672.321 L 996.626 678.206 L 996.057 684.062 L 995.445 689.890 L 994.788 695.687 L 994.087 701.453 L 993.343 707.188 L 992.555 712.890 L 991.723 718.558 L 990.847 724.192 L 989.928 729.790 L 988.965 735.352 L 987.958 740.877 L 986.909 746.364 L 985.816 751.812 L 984.680 757.220 L 983.501 762.587 L 982.279 767.913 L 981.014 773.197 L 979.706 778.438 L 978.356 783.634 L 976.963 788.786 L 975.528 793.893 L 974.051 798.952 L 972.532 803.965 L 970.970 808.930 L 969.367 813.846 L 967.722 818.712 L 966.036 823.528 L 964.308 828.293 L 962.539 833.006 L 960.728 837.666 L 958.877 842.274 L 956.985 846.827 L 955.053 851.325 L 953.080 855.768 L 951.067 860.155 L 949.014 864.484 L 946.921 868.757 L 944.788 872.971 L 942.616 877.126 L 940.404 881.221 L 938.153 885.257 L 935.864 889.231 L 933.535 893.144 L 931.168 896.995 L 928.763 900.783 L 926.320 904.508 L 923.839 908.170 L 921.320 911.766 L 918.764 915.298 L 916.171 918.764 L 913.540 922.164 L 910.873 925.497 L 908.170 928.763 L 905.430 931.962 L 902.654 935.092 L 899.842 938.153 L 896.995 941.146 L 894.113 944.068 L 891.195 946.921 L 888.243 949.703 L 885.257 952.414 L 882.236 955.053 L 879.181 957.621 L 876.092 960.116 L 872.971 962.539 L 869.816 964.888 L 866.628 967.164 L 863.407 969.367 L 860.155 971.495 L 856.870 973.549 L 853.553 975.528 L 850.206 977.432 L 846.827 979.261 L 843.417 981.014 L 839.977 982.691 L 836.506 984.292 L 833.006 985.816 L 829.476 987.263 L 825.917 988.634 L 822.329 989.928 L 818.712 991.144 L 815.067 992.282 L 811.394 993.343 L 807.693 994.326 L 803.965 995.231 L 800.210 996.057 L 796.428 996.806 L 792.620 997.476 L 788.786 998.067 L 784.927 998.579 L 781.042 999.013 L 777.132 999.368 L 773.197 999.645 L 769.238 999.842 L 765.256 999.961 L 761.249 1000.000 L 757.220 999.961 L 753.167 999.842 L 749.093 999.645 L 744.996 999.368 L 740.877 999.013 L 736.737 998.579 L 732.576 998.067 L 728.394 997.476 L 724.192 996.806 L 719.970 996.057 L 715.728 995.231 L 711.467 994.326 L 707.188 993.343 L 702.890 992.282 L 698.574 991.144 L 694.240 989.928 L 689.890 988.634 L 685.522 987.263 L 681.138 985.816 L 676.737 984.292 L 672.321 982.691 L 667.890 981.014 L 663.444 979.261 L 658.983 977.432 L 654.508 975.528 L 650.020 973.549 L 645.518 971.495 L 641.003 969.367 L 636.476 967.164 L 631.937 964.888 L 627.385 962.539 L 622.823 960.116 L 618.249 957.621 L 613.666 955.053 L 609.072 952.414 L 604.468 949.703 L 599.855 946.921 L 595.233 944.068 L 590.603 941.146 L 585.965 938.153 L 581.319 935.092 L 576.665 931.962 L 572.005 928.763 L 567.339 925.497 L 562.667 922.164 L 557.989 918.764 L 553.306 915.298 L 548.618 911.766 L 543.926 908.170 L 539.230 904.508 L 534.530 900.783 L 529.827 896.995 L 525.122 893.144 L 520.415 889.231 L 515.705 885.257 L 510.995 881.221 L 506.283 877.126 L 501.571 872.971 L 496.858 868.757 L 492.146 864.484 L 487.435 860.155 L 482.725 855.768 L 478.016 851.325 L 473.309 846.827 L 468.605 842.274 L 463.903 837.666 L 459.205 833.006 L 454.510 828.293 L 449.819 823.528 L 445.133 818.712 L 440.451 813.846 L 435.775 808.930 L 431.105 803.965 L 426.441 798.952 L 421.783 793.893 L 417.132 788.786 L 412.488 783.634 L 407.853 778.438 L 403.225 773.197 L 398.606 767.913 L 393.996 762.587 L 389.396 757.220 L 384.805 751.812 L 380.225 746.364 L 375.655 740.877 L 371.096 735.352 L 366.549 729.790 L 362.014 724.192 L 357.490 718.558 L 352.980 712.890 L 348.482 707.188 L 343.998 701.453 L 339.528 695.687 L 335.072 689.890 L 330.631 684.062 L 326.205 678.206 L 321.794 672.321 L 317.399 666.410 L 313.020 660.472 L 308.658 654.508 L 304.313 648.521 L 299.985 642.510 L 295.675 636.476 L 291.384 630.421 L 287.110 624.345 L 282.856 618.249 L 278.621 612.135 L 274.405 606.004 L 270.210 599.855 L 266.035 593.691 L 261.881 587.512 L 257.748 581.319 L 253.636 575.113 L 249.547 568.895 L 245.479 562.667 L 241.435 556.428 L 237.413 550.181 L 233.414 543.926 L 229.439 537.663 L 225.489 531.395 L 221.562 525.122 L 217.661 518.845 L 213.784 512.565 L 209.933 506.283 L 206.107 500.000 L 202.308 493.717 L 198.535 487.435 L 194.789 481.155 L 191.070 474.878 L 187.379 468.605 L 183.715 462.337 L 180.079 456.074 L 176.472 449.819 L 172.894 443.572 L 169.344 437.333 L 165.824 431.105 L 162.334 424.887 L 158.873 418.681 L 155.443 412.488 L 152.044 406.309 L 148.675 400.145 L 145.338 393.996 L 142.032 387.865 L 138.758 381.751 L 135.516 375.655 L 132.306 369.579 L 129.129 363.524 L 125.985 357.490 L 122.874 351.479 L 119.797 345.492 L 116.753 339.528 L 113.744 333.590 L 110.769 327.679 L 107.828 321.794 L 104.922 315.938 L 102.052 310.110 L 99.217 304.313 L 96.417 298.547 L 93.653 292.812 L 90.925 287.110 L 88.234 281.442 L 85.579 275.808 L 82.961 270.210 L 80.380 264.648 L 77.836 259.123 L 75.330 253.636 L 72.861 248.188 L 70.431 242.780 L 68.038 237.413 L 65.684 232.087 L 63.369 226.803 L 61.092 221.562 L 58.854 216.366 L 56.656 211.214 L 54.497 206.107 L 52.377 201.048 L 50.297 196.035 L 48.258 191.070 L 46.258 186.154 L 44.298 181.288 L 42.379 176.472 L 40.501 171.707 L 38.664 166.994 L 36.867 162.334 L 35.112 157.726 L 33.398 153.173 L 31.725 148.675 L 30.094 144.232 L 28.505 139.845 L 26.957 135.516 L 25.452 131.243 L 23.989 127.029 L 22.568 122.874 L 21.189 118.779 L 19.853 114.743 L 18.560 110.769 L 17.309 106.856 L 16.101 103.005 L 14.937 99.217 L 13.815 95.492 L 12.737 91.830 L 11.701 88.234 L 10.710 84.702 L 9.761 81.236 L 8.856 77.836 L 7.995 74.503 L 7.178 71.237 L 6.404 68.038 L 5.674 64.908 L 4.988 61.847 L 4.346 58.854 L 3.748 55.932 L 3.194 53.079 L 2.685 50.297 L 2.219 47.586 L 1.798 44.947 L 1.421 42.379 L 1.088 39.884 L 0.799 37.461 L 0.555 35.112 L 0.355 32.836 L 0.200 30.633 L 0.089 28.505 L 0.022 26.451 L 0.000 24.472 L 0.022 22.568 L 0.089 20.739 L 0.200 18.986 L 0.355 17.309 L 0.555 15.708 L 0.799 14.184 L 1.088 12.737 L 1.421 11.366 L 1.798 10.072 L 2.219 8.856 L 2.685 7.718 L 3.194 6.657 L 3.748 5.674 L 4.346 4.769 L 4.988 3.943 L 5.674 3.194 L 6.404 2.524 L 7.178 1.933 L 7.995 1.421 L 8.856 0.987 L 9.761 0.632 L 10.710 0.355 L 11.701 0.158 L 12.737 0.039 L 13.815 0.000 L 14.937 0.039 L 16.101 0.158 L 17.309 0.355 L 18.560 0.632 L 19.853 0.987 L 21.189 1.421 L 22.568 1.933 L 23.989 2.524 L 25.452 3.194 L 26.957 3.943 L 28.505 4.769 L 30.094 5.674 L 31.725 6.657 L 33.398 7.718 L 35.112 8.856 L 36.867 10.072 L 38.664 11.366 L 40.501 12.737 L 42.379 14.184 L 44.298 15.708 L 46.258 17.309 L 48.258 18.986 L 50.297 20.739 L 52.377 22.568 L 54.497 24.472 L 56.656 26.451 L 58.854 28.505 L 61.092 30.633 L 63.369 32.836 L 65.684 35.112 L 68.038 37.461 L 70.431 39.884 L 72.861 42.379 L 75.330 44.947 L 77.836 47.586 L 80.380 50.297 L 82.961 53.079 L 85.579 55.932 L 88.234 58.854 L 90.925 61.847 L 93.653 64.908 L 96.417 68.038 L 99.217 71.237 L 102.052 74.503 L 104.922 77.836 L 107.828 81.236 L 110.769 84.702 L 113.744 88.234 L 116.753 91.830 L 119.797 95.492 L 122.874 99.217 L 125.985 103.005 L 129.129 106.856 L 132.306 110.769 L 135.516 114.743 L 138.758 118.779 L 142.032 122.874 L 145.338 127.029 L 148.675 131.243 L 152.044 135.516 L 155.443 139.845 L 158.873 144.232 L 162.334 148.675 L 165.824 153.173 L 169.344 157.726 L 172.894 162.334 L 176.472 166.994 L 180.079 171.707 L 183.715 176.472 L 187.379 181.288 L 191.070 186.154 L 194.789 191.070 L 198.535 196.035 L 202.308 201.048 L 206.107 206.107 L 209.933 211.214 L 213.784 216.366 L 217.661 221.562 L 221.562 226.803 L 225.489 232.087 L 229.439 237.413 L 233.414 242.780 L 237.413 248.188 L 241.435 253.636 L 245.479 259.123 L 249.547 264.648 L 253.636 270.210 L 257.748 275.808 L 261.881 281.442 L 266.035 287.110 L 270.210 292.812 L 274.405 298.547 L 278.621 304.313 L 282.856 310.110 L 287.110 315.938 L 291.384 321.794 L 295.675 327.679 L 299.985 333.590 L 304.313 339.528 L 308.658 345.492 L 313.020 351.479 L 317.399 357.490 L 321.794 363.524 L 326.205 369.579 L 330.631 375.655 L 335.072 381.751 L 339.528 387.865 L 343.998 393.996 L 348.482 400.145 L 352.980 406.309 L 357.490 412.488 L 362.014 418.681 L 366.549 424.887 L 371.096 431.105 L 375.655 437.333 L 380.225 443.572 L 384.805 449.819 L 389.396 456.074 L 393.996 462.337 L 398.606 468.605 L 403.225 474.878 L 407.853 481.155 L 412.488 487.435 L 417.132 493.717 L 421.783 500.000 L 426.441 506.283 L 431.105 512.565 L 435.775 518.845 L 440.451 525.122 L 445.133 531.395 L 449.819 537.663 L 454.510 543.926 L 459.205 550.181 L 463.903 556.428 L 468.605 562.667 L 473.309 568.895 L 478.016 575.113 L 482.725 581.319 L 487.435 587.512 L 492.146 593.691 L 496.858 599.855 L 501.571 606.004 L 506.283 612.135 L 510.995 618.249 L 515.705 624.345 L 520.415 630.421 L 525.122 636.476 L 529.827 642.510 L 534.530 648.521 L 539.230 654.508 L 543.926 660.472 L 548.618 666.410 L 553.306 672.321 L 557.989 678.206 L 562.667 684.062 L 567.339 689.890 L 572.005 695.687 L 576.665 701.453 L 581.319 707.188 L 585.965 712.890 L 590.603 718.558 L 595.233 724.192 L 599.855 729.790 L 604.468 735.352 L 609.072 740.877 L 613.666 746.364 L 618.249 751.812 L 622.823 757.220 L 627.385 762.587 L 631.937 767.913 L 636.476 773.197 L 641.003 778.438 L 645.518 783.634 L 650.020 788.786 L 654.508 793.893 L 658.983 798.952 L 663.444 803.965 L 667.890 808.930 L 672.321 813.846 L 676.737 818.712 L 681.138 823.528 L 685.522 828.293 L 689.890 833.006 L 694.240 837.666 L 698.574 842.274 L 702.890 846.827 L 707.188 851.325 L 711.467 855.768 L 715.728 860.155 L 719.970 864.484 L 724.192 868.757 L 728.394 872.971 L 732.576 877.126 L 736.737 881.221 L 740.877 885.257 L 744.996 889.231 L 749.093 893.144 L 753.167 896.995 L 757.220 900.783 L 761.249 904.508 L 765.256 908.170 L 769.238 911.766 L 773.197 915.298 L 777.132 918.764 L 781.042 922.164 L 784.927 925.497 L 788.786 928.763 L 792.620 931.962 L 796.428 935.092 L 800.210 938.153 L 803.965 941.146 L 807.693 944.068 L 811.394 946.921 L 815.067 949.703 L 818.712 952.414 L 822.329 955.053 L 825.917 957.621 L 829.476 960.116 L 833.006 962.539 L 836.506 964.888 L 839.977 967.164 L 843.417 969.367 L 846.827 971.495 L 850.206 973.549 L 853.553 975.528 L 856.870 977.432 L 860.155 979.261 L 863.407 981.014 L 866.628 982.691 L 869.816 984.292 L 872.971 985.816 L 876.092 987.263 L 879.181 988.634 L 882.236 989.928 L 885.257 991.144 L 888.243 992.282 L 891.195 993.343 L 894.113 994.326 L 896.995 995.231 L 899.842 996.057 L 902.654 996.806 L 905.430 997.476 L 908.170 998.067 L 910.873 998.579 L 913.540 999.013 L 916.171 999.368 L 918.764 999.645 L 921.320 999.842 L 923.839 999.961 L 926.320 1000.000 L 928.763 999.961 L 931.168 999.842 L 933.535 999.645 L 935.864 999.368 L 938.153 999.013 L 940.404 998.579 L 942.616 998.067 L 944.788 997.476 L 946.921 996.806 L 949.014 996.057 L 951.067 995.231 L 953.080 994.326 L 955.053 993.343 L 956.985 992.282 L 958.877 991.144 L 960.728 989.928 L 962.539 988.634 L 964.308 987.263 L 966.036 985.816 L 967.722 984.292 L 969.367 982.691 L 970.970 981.014 L 972.532 979.261 L 974.051 977.432 L 975.528 975.528 L 976.963 973.549 L 978.356 971.495 L 979.706 969.367 L 981.014 967.164 L 982.279 964.888 L 983.501 962.539 L 984.680 960.116 L 985.816 957.621 L 986.909 955.053 L 987.958 952.414 L 988.965 949.703 L 989.928 946.921 L 990.847 944.068 L 991.723 941.146 L 992.555 938.153 L 993.343 935.092 L 994.087 931.962 L 994.788 928.763 L 995.445 925.497 L 996.057 922.164 L 996.626 918.764 L 997.150 915.298 L 997.631 911.766 L 998.067 908.170 L 998.459 904.508 L 998.806 900.783 L 999.110 896.995 L 999.368 893.144 L 999.583 889.231 L 999.753 885.257 L 999.879 881.221 L 999.961 877.126 L 999.998 872.971 L 999.990 868.757 L 999.938 864.484 L 999.842 860.155 L 999.701 855.768 L 999.516 851.325 L 999.287 846.827 L 999.013 842.274 L 998.695 837.666 L 998.333 833.006 L 997.926 828.293 L 997.476 823.528 L 996.980 818.712 L 996.441 813.846 L 995.858 808.930 L 995.231 803.965 L 994.559 798.952 L 993.844 793.893 L 993.085 788.786 L 992.282 783.634 L 991.436 778.438 L 990.545 773.197 L 989.611 767.913 L 988.634 762.587 L 987.613 757.220 L 986.549 751.812 L 985.442 746.364 L 984.292 740.877 L 983.098 735.352 L 981.862 729.790 L 980.583 724.192 L 979.261 718.558 L 977.897 712.890 L 976.490 707.188 L 975.041 701.453 L 973.549 695.687 L 972.016 689.890 L 970.440 684.062 L 968.823 678.206 L 967.164 672.321 L 965.464 666.410 L 963.723 660.472 L 961.940 654.508 L 960.116 648.521 L 958.251 642.510 L 956.346 636.476 L 954.400 630.421 L 952.414 624.345 L 950.387 618.249 L 948.321 612.135 L 946.214 606.004 L 944.068 599.855 L 941.883 593.691 L 939.658 587.512 L 937.394 581.319 L 935.092 575.113 L 932.751 568.895 L 930.371 562.667 L 927.953 556.428 L 925.497 550.181 L 923.004 543.926 L 920.472 537.663 L 917.904 531.395 L 915.298 525.122 L 912.655 518.845 L 909.976 512.565 L 907.260 506.283 L 904.508 500.000 L 901.721 493.717 L 898.897 487.435 L 896.038 481.155 L 893.144 474.878 L 890.215 468.605 L 887.252 462.337 L 884.253 456.074 L 881.221 449.819 L 878.155 443.572 L 875.056 437.333 L 871.923 431.105 L 868.757 424.887 L 865.558 418.681 L 862.327 412.488 L 859.063 406.309 L 855.768 400.145 L 852.441 393.996 L 849.083 387.865 L 845.693 381.751 L 842.274 375.655 L 838.823 369.579 L 835.343 363.524 L 831.833 357.490 L 828.293 351.479 L 824.724 345.492 L 821.126 339.528 L 817.500 333.590 L 813.846 327.679 L 810.163 321.794 L 806.454 315.938 L 802.716 310.110 L 798.952 304.313 L 795.162 298.547 L 791.345 292.812 L 787.503 287.110 L 783.634 281.442 L 779.741 275.808 L 775.823 270.210 L 771.880 264.648 L 767.913 259.123 L 763.923 253.636 L 759.909 248.188 L 755.872 242.780 L 751.812 237.413 L 747.729 232.087 L 743.625 226.803 L 739.499 221.562 L 735.352 216.366 L 731.184 211.214 L 726.995 206.107 L 722.786 201.048 L 718.558 196.035 L 714.310 191.070 L 710.043 186.154 L 705.757 181.288 L 701.453 176.472 L 697.131 171.707 L 692.792 166.994 L 688.436 162.334 L 684.062 157.726 L 679.673 153.173 L 675.267 148.675 L 670.846 144.232 L 666.410 139.845 L 661.959 135.516 L 657.493 131.243 L 653.014 127.029 L 648.521 122.874 L 644.015 118.779 L 639.496 114.743 L 634.964 110.769 L 630.421 106.856 L 625.866 103.005 L 621.300 99.217 L 616.723 95.492 L 612.135 91.830 L 607.538 88.234 L 602.931 84.702 L 598.315 81.236 L 593.691 77.836 L 589.058 74.503 L 584.417 71.237 L 579.768 68.038 L 575.113 64.908 L 570.451 61.847 L 565.782 58.854 L 561.108 55.932 L 556.428 53.079 L 551.743 50.297 L 547.054 47.586 L 542.361 44.947 L 537.663 42.379 L 532.963 39.884 L 528.259 37.461 L 523.553 35.112 L 518.845 32.836 L 514.135 30.633 L 509.424 28.505 L 504.712 26.451 L 500.000 24.472 L 495.288 22.568 L 490.576 20.739 L 485.865 18.986 L 481.155 17.309 L 476.447 15.708 L 471.741 14.184 L 467.037 12.737 L 462.337 11.366 L 457.639 10.072 L 452.946 8.856 L 448.257 7.718 L 443.572 6.657 L 438.892 5.674 L 434.218 4.769 L 429.549 3.943 L 424.887 3.194 L 420.232 2.524 L 415.583 1.933 L 410.942 1.421 L 406.309 0.987 L 401.685 0.632 L 397.069 0.355 L 392.462 0.158 L 387.865 0.039 L 383.277 0.000 L 378.700 0.039 L 374.134 0.158 L 369.579 0.355 L 365.036 0.632 L 360.504 0.987 L 355.985 1.421 L 351.479 1.933 L 346.986 2.524 L 342.507 3.194 L 338.041 3.943 L 333.590 4.769 L 329.154 5.674 L 324.733 6.657 L 320.327 7.718 L 315.938 8.856 L 311.564 10.072 L 307.208 11.366 L 302.869 12.737 L 298.547 14.184 L 294.243 15.708 L 289.957 17.309 L 285.690 18.986 L 281.442 20.739 L 277.214 22.568 L 273.005 24.472 L 268.816 26.451 L 264.648 28.505 L 260.501 30.633 L 256.375 32.836 L 252.271 35.112 L 248.188 37.461 L 244.128 39.884 L 240.091 42.379 L 236.077 44.947 L 232.087 47.586 L 228.120 50.297 L 224.177 53.079 L 220.259 55.932 L 216.366 58.854 L 212.497 61.847 L 208.655 64.908 L 204.838 68.038 L 201.048 71.237 L 197.284 74.503 L 193.546 77.836 L 189.837 81.236 L 186.154 84.702 L 182.500 88.234 L 178.874 91.830 L 175.276 95.492 L 171.707 99.217 L 168.167 103.005 L 164.657 106.856 L 161.177 110.769 L 157.726 114.743 L 154.307 118.779 L 150.917 122.874 L 147.559 127.029 L 144.232 131.243 L 140.937 135.516 L 137.673 139.845 L 134.442 144.232 L 131.243 148.675 L 128.077 153.173 L 124.944 157.726 L 121.845 162.334 L 118.779 166.994 L 115.747 171.707 L 112.748 176.472 L 109.785 181.288 L 106.856 186.154 L 103.962 191.070 L 101.103 196.035 L 98.279 201.048 L 95.492 206.107 L 92.740 211.214 L 90.024 216.366 L 87.345 221.562 L 84.702 226.803 L 82.096 232.087 L 79.528 237.413 L 76.996 242.780 L 74.503 248.188 L 72.047 253.636 L 69.629 259.123 L 67.249 264.648 L 64.908 270.210 L 62.606 275.808 L 60.342 281.442 L 58.117 287.110 L 55.932 292.812 L 53.786 298.547 L 51.679 304.313 L 49.613 310.110 L 47.586 315.938 L 45.600 321.794 L 43.654 327.679 L 41.749 333.590 L 39.884 339.528 L 38.060 345.492 L 36.277 351.479 L 34.536 357.490 L 32.836 363.524 L 31.177 369.579 L 29.560 375.655 L 27.984 381.751 L 26.451 387.865 L 24.959 393.996 L 23.510 400.145 L 22.103 406.309 L 20.739 412.488 L 19.417 418.681 L 18.138 424.887 L 16.902 431.105 L 15.708 437.333 L 14.558 443.572 L 13.451 449.819 L 12.387 456.074 L 11.366 462.337 L 10.389 468.605 L 9.455 474.878 L 8.564 481.155 L 7.718 487.435 L 6.915 493.717 L 6.156 500.000 L 5.441 506.283 L 4.769 512.565 L 4.142 518.845 L 3.559 525.122 L 3.020 531.395 L 2.524 537.663 L 2.074 543.926 L 1.667 550.181 L 1.305 556.428 L 0.987 562.667 L 0.713 568.895 L 0.484 575.113 L 0.299 581.319 L 0.158 587.512 L 0.062 593.691 L 0.010 599.855 L 0.002 606.004 L 0.039 612.135 L 0.121 618.249 L 0.247 624.345 L 0.417 630.421 L 0.632 636.476 L 0.890 642.510 L 1.194 648.521 L 1.541 654.508 L 1.933 660.472 L 2.369 666.410 L 2.850 672.321 L 3.374 678.206 L 3.943 684.062 L 4.555 689.890 L 5.212 695.687 L 5.913 701.453 L 6.657 707.188 L 7.445 712.890 L 8.277 718.558 L 9.153 724.192 L 10.072 729.790 L 11.035 735.352 L 12.042 740.877 L 13.091 746.364 L 14.184 751.812 L 15.320 757.220 L 16.499 762.587 L 17.721 767.913 L 18.986 773.197 L 20.294 778.438 L 21.644 783.634 L 23.037 788.786 L 24.472 793.893 L 25.949 798.952 L 27.468 803.965 L 29.030 808.930 L 30.633 813.846 L 32.278 818.712 L 33.964 823.528 L 35.692 828.293 L 37.461 833.006 L 39.272 837.666 L 41.123 842.274 L 43.015 846.827 L 44.947 851.325 L 46.920 855.768 L 48.933 860.155 L 50.986 864.484 L 53.079 868.757 L 55.212 872.971 L 57.384 877.126 L 59.596 881.221 L 61.847 885.257 L 64.136 889.231 L 66.465 893.144 L 68.832 896.995 L 71.237 900.783 L 73.680 904.508 L 76.161 908.170 L 78.680 911.766 L 81.236 915.298 L 83.829 918.764 L 86.460 922.164 L 89.127 925.497 L 91.830 928.763 L 94.570 931.962 L 97.346 935.092 L 100.158 938.153 L 103.005 941.146 L 105.887 944.068 L 108.805 946.921 L 111.757 949.703 L 114.743 952.414 L 117.764 955.053 L 120.819 957.621 L 123.908 960.116 L 127.029 962.539 L 130.184 964.888 L 133.372 967.164 L 136.593 969.367 L 139.845 971.495 L 143.130 973.549 L 146.447 975.528 L 149.794 977.432 L 153.173 979.261 L 156.583 981.014 L 160.023 982.691 L 163.494 984.292 L 166.994 985.816 L 170.524 987.263 L 174.083 988.634 L 177.671 989.928 L 181.288 991.144 L 184.933 992.282 L 188.606 993.343 L 192.307 994.326 L 196.035 995.231 L 199.790 996.057 L 203.572 996.806 L 207.380 997.476 L 211.214 998.067 L 215.073 998.579 L 218.958 999.013 L 222.868 999.368 L 226.803 999.645 L 230.762 999.842 L 234.744 999.961 L 238.751 1000.000 L 242.780 999.961 L 246.833 999.842 L 250.907 999.645 L 255.004 999.368 L 259.123 999.013 L 263.263 998.579 L 267.424 998.067 L 271.606 997.476 L 275.808 996.806 L 280.030 996.057 L 284.272 995.231 L 288.533 994.326 L 292.812 993.343 L 297.110 992.282 L 301.426 991.144 L 305.760 989.928 L 310.110 988.634 L 314.478 987.263 L 318.862 985.816 L 323.263 984.292 L 327.679 982.691 L 332.110 981.014 L 336.556 979.261 L 341.017 977.432 L 345.492 975.528 L 349.980 973.549 L 354.482 971.495 L 358.997 969.367 L 363.524 967.164 L 368.063 964.888 L 372.615 962.539 L 377.177 960.116 L 381.751 957.621 L 386.334 955.053 L 390.928 952.414 L 395.532 949.703 L 400.145 946.921 L 404.767 944.068 L 409.397 941.146 L 414.035 938.153 L 418.681 935.092 L 423.335 931.962 L 427.995 928.763 L 432.661 925.497 L 437.333 922.164 L 442.011 918.764 L 446.694 915.298 L 451.382 911.766 L 456.074 908.170 L 460.770 904.508 L 465.470 900.783 L 470.173 896.995 L 474.878 893.144 L 479.585 889.231 L 484.295 885.257 L 489.005 881.221 L 493.717 877.126 L 498.429 872.971 L 503.142 868.757 L 507.854 864.484 L 512.565 860.155 L 517.275 855.768 L 521.984 851.325 L 526.691 846.827 L 531.395 842.274 L 536.097 837.666 L 540.795 833.006 L 545.490 828.293 L 550.181 823.528 L 554.867 818.712 L 559.549 813.846 L 564.225 808.930 L 568.895 803.965 L 573.559 798.952 L 578.217 793.893 L 582.868 788.786 L 587.512 783.634 L 592.147 778.438 L 596.775 773.197 L 601.394 767.913 L 606.004 762.587 L 610.604 757.220 L 615.195 751.812 L 619.775 746.364 L 624.345 740.877 L 628.904 735.352 L 633.451 729.790 L 637.986 724.192 L 642.510 718.558 L 647.020 712.890 L 651.518 707.188 L 656.002 701.453 L 660.472 695.687 L 664.928 689.890 L 669.369 684.062 L 673.795 678.206 L 678.206 672.321 L 682.601 666.410 L 686.980 660.472 L 691.342 654.508 L 695.687 648.521 L 700.015 642.510 L 704.325 636.476 L 708.616 630.421 L 712.890 624.345 L 717.144 618.249 L 721.379 612.135 L 725.595 606.004 L 729.790 599.855 L 733.965 593.691 L 738.119 587.512 L 742.252 581.319 L 746.364 575.113 L 750.453 568.895 L 754.521 562.667 L 758.565 556.428 L 762.587 550.181 L 766.586 543.926 L 770.561 537.663 L 774.511 531.395 L 778.438 525.122 L 782.339 518.845 L 786.216 512.565 L 790.067 506.283 L 793.893 500.000 L 797.692 493.717 L 801.465 487.435 L 805.211 481.155 L 808.930 474.878 L 812.621 468.605 L 816.285 462.337 L 819.921 456.074 L 823.528 449.819 L 827.106 443.572 L 830.656 437.333 L 834.176 431.105 L 837.666 424.887 L 841.127 418.681 L 844.557 412.488 L 847.956 406.309 L 851.325 400.145 L 854.662 393.996 L 857.968 387.865 L 861.242 381.751 L 864.484 375.655 L 867.694 369.579 L 870.871 363.524 L 874.015 357.490 L 877.126 351.479 L 880.203 345.492 L 883.247 339.528 L 886.256 333.590 L 889.231 327.679 L 892.172 321.794 L 895.078 315.938 L 897.948 310.110 L 900.783 304.313 L 903.583 298.547 L 906.347 292.812 L 909.075 287.110 L 911.766 281.442 L 914.421 275.808 L 917.039 270.210 L 919.620 264.648 L 922.164 259.123 L 924.670 253.636 L 927.139 248.188 L 929.569 242.780 L 931.962 237.413 L 934.316 232.087 L 936.631 226.803 L 938.908 221.562 L 941.146 216.366 L 943.344 211.214 L 945.503 206.107 L 947.623 201.048 L 949.703 196.035 L 951.742 191.070 L 953.742 186.154 L 955.702 181.288 L 957.621 176.472 L 959.499 171.707 L 961.336 166.994 L 963.133 162.334 L 964.888 157.726 L 966.602 153.173 L 968.275 148.675 L 969.906 144.232 L 971.495 139.845 L 973.043 135.516 L 974.548 131.243 L 976.011 127.029 L 977.432 122.874 L 978.811 118.779 L 980.147 114.743 L 981.440 110.769 L 982.691 106.856 L 983.899 103.005 L 985.063 99.217 L 986.185 95.492 L 987.263 91.830 L 988.299 88.234 L 989.290 84.702 L 990.239 81.236 L 991.144 77.836 L 992.005 74.503 L 992.822 71.237 L 993.596 68.038 L 994.326 64.908 L 995.012 61.847 L 995.654 58.854 L 996.252 55.932 L 996.806 53.079 L 997.315 50.297 L 997.781 47.586 L 998.202 44.947 L 998.579 42.379 L 998.912 39.884 L 999.201 37.461 L 999.445 35.112 L 999.645 32.836 L 999.800 30.633 L 999.911 28.505 L 999.978 26.451 L 1000.000 24.472 L 999.978 22.568 L 999.911 20.739 L 999.800 18.986 L 999.645 17.309 L 999.445 15.708 L 999.201 14.184 L 998.912 12.737 L 998.579 11.366 L 998.202 10.072 L 997.781 8.856 L 997.315 7.718 L 996.806 6.657 L 996.252 5.674 L 995.654 4.769 L 995.012 3.943 L 994.326 3.194 L 993.596 2.524 L 992.822 1.933 L 992.005 1.421 L 991.144 0.987 L 990.239 0.632 L 989.290 0.355 L 988.299 0.158 L 987.263 0.039 L 986.185 0.000 L 985.063 0.039 L 983.899 0.158 L 982.691 0.355 L 981.440 0.632 L 980.147 0.987 L 978.811 1.421 L 977.432 1.933 L 976.011 2.524 L 974.548 3.194 L 973.043 3.943 L 971.495 4.769 L 969.906 5.674 L 968.275 6.657 L 966.602 7.718 L 964.888 8.856 L 963.133 10.072 L 961.336 11.366 L 959.499 12.737 L 957.621 14.184 L 955.702 15.708 L 953.742 17.309 L 951.742 18.986 L 949.703 20.739 L 947.623 22.568 L 945.503 24.472 L 943.344 26.451 L 941.146 28.505 L 938.908 30.633 L 936.631 32.836 L 934.316 35.112 L 931.962 37.461 L 929.569 39.884 L 927.139 42.379 L 924.670 44.947 L 922.164 47.586 L 919.620 50.297 L 917.039 53.079 L 914.421 55.932 L 911.766 58.854 L 909.075 61.847 L 906.347 64.908 L 903.583 68.038 L 900.783 71.237 L 897.948 74.503 L 895.078 77.836 L 892.172 81.236 L 889.231 84.702 L 886.256 88.234 L 883.247 91.830 L 880.203 95.492 L 877.126 99.217 L 874.015 103.005 L 870.871 106.856 L 867.694 110.769 L 864.484 114.743 L 861.242 118.779 L 857.968 122.874 L 854.662 127.029 L 851.325 131.243 L 847.956 135.516 L 844.557 139.845 L 841.127 144.232 L 837.666 148.675 L 834.176 153.173 L 830.656 157.726 L 827.106 162.334 L 823.528 166.994 L 819.921 171.707 L 816.285 176.472 L 812.621 181.288 L 808.930 186.154 L 805.211 191.070 L 801.465 196.035 L 797.692 201.048 L 793.893 206.107 L 790.067 211.214 L 786.216 216.366 L 782.339 221.562 L 778.438 226.803 L 774.511 232.087 L 770.561 237.413 L 766.586 242.780 L 762.587 248.188 L 758.565 253.636 L 754.521 259.123 L 750.453 264.648 L 746.364 270.210 L 742.252 275.808 L 738.119 281.442 L 733.965 287.110 L 729.790 292.812 L 725.595 298.547 L 721.379 304.313 L 717.144 310.110 L 712.890 315.938 L 708.616 321.794 L 704.325 327.679 L 700.015 333.590 L 695.687 339.528 L 691.342 345.492 L 686.980 351.479 L 682.601 357.490 L 678.206 363.524 L 673.795 369.579 L 669.369 375.655 L 664.928 381.751 L 660.472 387.865 L 656.002 393.996 L 651.518 400.145 L 647.020 406.309 L 642.510 412.488 L 637.986 418.681 L 633.451 424.887 L 628.904 431.105 L 624.345 437.333 L 619.775 443.572 L 615.195 449.819 L 610.604 456.074 L 606.004 462.337 L 601.394 468.605 L 596.775 474.878 L 592.147 481.155 L 587.512 487.435 L 582.868 493.717 L 578.217 500.000" fill="none" stroke="black" stroke-width="12.0" stroke-linecap="round" stroke-linejoin="round" vector-effect="non-scaling-stroke"/>
</svg>