<svg xmlns="http://www.w3.org/2000/svg" viewBox="-5.998 -6.000 1011.996 1012.000" preserveAspectRatio="xMidYMid meet">
    <path d="M 824.590 500.000 L 819.786 507.854 L 814.930 515.705 L 810.025 523.553 L 805.071 531.395 L 800.069 539.230 L 795.020 547.054 L 789.924 554.867 L 784.782 562.667 L 779.595 570.451 L 774.364 578.217 L 769.090 585.965 L 763.773 593.691 L 758.415 601.394 L 753.016 609.072 L 747.576 616.723 L 742.098 624.345 L 736.582 631.937 L 731.028 639.496 L 725.438 647.020 L 719.812 654.508 L 714.151 661.959 L 708.456 669.369 L 702.729 676.737 L 696.970 684.062 L 691.179 691.342 L 685.358 698.574 L 679.509 705.757 L 673.630 712.890 L 667.724 719.970 L 661.792 726.995 L 655.834 733.965 L 649.852 740.877 L 643.846 747.729 L 637.817 754.521 L 631.767 761.249 L 625.695 767.913 L 619.604 774.511 L 613.494 781.042 L 607.366 787.503 L 601.221 793.893 L 595.060 800.210 L 588.885 806.454 L 582.695 812.621 L 576.492 818.712 L 570.276 824.724 L 564.050 830.656 L 557.814 836.506 L 551.568 842.274 L 545.315 847.956 L 539.054 853.553 L 532.787 859.063 L 526.515 864.484 L 520.239 869.816 L 513.959 875.056 L 507.678 880.203 L 501.395 885.257 L 495.112 890.215 L 488.829 895.078 L 482.549 899.842 L 476.271 904.508 L 469.997 909.075 L 463.728 913.540 L 457.464 917.904 L 451.207 922.164 L 444.958 926.320 L 438.717 930.371 L 432.487 934.316 L 426.267 938.153 L 420.058 941.883 L 413.862 945.503 L 407.680 949.014 L 401.512 952.414 L 395.360 955.702 L 389.224 958.877 L 383.106 961.940 L 377.007 964.888 L 370.926 967.722 L 364.866 970.440 L 358.828 973.043 L 352.812 975.528 L 346.819 977.897 L 340.850 980.147 L 334.906 982.279 L 328.989 984.292 L 323.098 986.185 L 317.235 987.958 L 311.402 989.611 L 305.598 991.144 L 299.824 992.555 L 294.082 993.844 L 288.373 995.012 L 282.698 996.057 L 277.056 996.980 L 271.450 997.781 L 265.880 998.459 L 260.346 999.013 L 254.851 999.445 L 249.394 999.753 L 243.977 999.938 L 238.601 1000.000 L 233.265 999.938 L 227.972 999.753 L 222.722 999.445 L 217.515 999.013 L 212.353 998.459 L 207.237 997.781 L 202.167 996.980 L 197.144 996.057 L 192.168 995.012 L 187.241 993.844 L 182.364 992.555 L 177.537 991.144 L 172.760 989.611 L 168.036 987.958 L 163.364 986.185 L 158.745 984.292 L 154.179 982.279 L 149.669 980.147 L 145.214 977.897 L 140.814 975.528 L 136.472 973.043 L 132.187 970.440 L 127.960 967.722 L 123.792 964.888 L 119.683 961.940 L 115.634 958.877 L 111.646 955.702 L 107.719 952.414 L 103.854 949.014 L 100.052 945.503 L 96.313 941.883 L 92.638 938.153 L 89.027 934.316 L 85.480 930.371 L 82.000 926.320 L 78.585 922.164 L 75.237 917.904 L 71.956 913.540 L 68.742 909.075 L 65.597 904.508 L 62.520 899.842 L 59.513 895.078 L 56.575 890.215 L 53.706 885.257 L 50.909 880.203 L 48.182 875.056 L 45.527 869.816 L 42.943 864.484 L 40.432 859.063 L 37.993 853.553 L 35.627 847.956 L 33.334 842.274 L 31.116 836.506 L 28.971 830.656 L 26.900 824.724 L 24.905 818.712 L 22.984 812.621 L 21.139 806.454 L 19.369 800.210 L 17.675 793.893 L 16.057 787.503 L 14.516 781.042 L 13.051 774.511 L 11.664 767.913 L 10.353 761.249 L 9.120 754.521 L 7.964 747.729 L 6.886 740.877 L 5.886 733.965 L 4.963 726.995 L 4.119 719.970 L 3.354 712.890 L 2.666 705.757 L 2.058 698.574 L 1.528 691.342 L 1.076 684.062 L 0.704 676.737 L 0.410 669.369 L 0.195 661.959 L 0.059 654.508 L 0.002 647.020 L 0.024 639.496 L 0.125 631.937 L 0.305 624.345 L 0.563 616.723 L 0.901 609.072 L 1.317 601.394 L 1.813 593.691 L 2.386 585.965 L 3.039 578.217 L 3.770 570.451 L 4.579 562.667 L 5.467 554.867 L 6.432 547.054 L 7.476 539.230 L 8.597 531.395 L 9.796 523.553 L 11.072 515.705 L 12.426 507.854 L 13.856 500.000 L 15.363 492.146 L 16.947 484.295 L 18.607 476.447 L 20.343 468.605 L 22.155 460.770 L 24.043 452.946 L 26.005 445.133 L 28.042 437.333 L 30.154 429.549 L 32.340 421.783 L 34.600 414.035 L 36.933 406.309 L 39.340 398.606 L 41.819 390.928 L 44.371 383.277 L 46.994 375.655 L 49.689 368.063 L 52.456 360.504 L 55.292 352.980 L 58.200 345.492 L 61.176 338.041 L 64.223 330.631 L 67.337 323.263 L 70.521 315.938 L 73.772 308.658 L 77.090 301.426 L 80.475 294.243 L 83.927 287.110 L 87.444 280.030 L 91.026 273.005 L 94.673 266.035 L 98.384 259.123 L 102.158 252.271 L 105.995 245.479 L 109.895 238.751 L 113.856 232.087 L 117.878 225.489 L 121.960 218.958 L 126.102 212.497 L 130.303 206.107 L 134.562 199.790 L 138.879 193.546 L 143.253 187.379 L 147.684 181.288 L 152.170 175.276 L 156.711 169.344 L 161.306 163.494 L 165.955 157.726 L 170.656 152.044 L 175.410 146.447 L 180.214 140.937 L 185.070 135.516 L 189.975 130.184 L 194.929 124.944 L 199.931 119.797 L 204.980 114.743 L 210.076 109.785 L 215.218 104.922 L 220.405 100.158 L 225.636 95.492 L 230.910 90.925 L 236.227 86.460 L 241.585 82.096 L 246.984 77.836 L 252.424 73.680 L 257.902 69.629 L 263.418 65.684 L 268.972 61.847 L 274.562 58.117 L 280.188 54.497 L 285.849 50.986 L 291.544 47.586 L 297.271 44.298 L 303.030 41.123 L 308.821 38.060 L 314.642 35.112 L 320.491 32.278 L 326.370 29.560 L 332.276 26.957 L 338.208 24.472 L 344.166 22.103 L 350.148 19.853 L 356.154 17.721 L 362.183 15.708 L 368.233 13.815 L 374.305 12.042 L 380.396 10.389 L 386.506 8.856 L 392.634 7.445 L 398.779 6.156 L 404.940 4.988 L 411.115 3.943 L 417.305 3.020 L 423.508 2.219 L 429.724 1.541 L 435.950 0.987 L 442.186 0.555 L 448.432 0.247 L 454.685 0.062 L 460.946 0.000 L 467.213 0.062 L 473.485 0.247 L 479.761 0.555 L 486.041 0.987 L 492.322 1.541 L 498.605 2.219 L 504.888 3.020 L 511.171 3.943 L 517.451 4.988 L 523.729 6.156 L 530.003 7.445 L 536.272 8.856 L 542.536 10.389 L 548.793 12.042 L 555.042 13.815 L 561.283 15.708 L 567.513 17.721 L 573.733 19.853 L 579.942 22.103 L 586.138 24.472 L 592.320 26.957 L 598.488 29.560 L 604.640 32.278 L 610.776 35.112 L 616.894 38.060 L 622.993 41.123 L 629.074 44.298 L 635.134 47.586 L 641.172 50.986 L 647.188 54.497 L 653.181 58.117 L 659.150 61.847 L 665.094 65.684 L 671.011 69.629 L 676.902 73.680 L 682.765 77.836 L 688.598 82.096 L 694.402 86.460 L 700.176 90.925 L 705.918 95.492 L 711.627 100.158 L 717.302 104.922 L 722.944 109.785 L 728.550 114.743 L 734.120 119.797 L 739.654 124.944 L 745.149 130.184 L 750.606 135.516 L 756.023 140.937 L 761.399 146.447 L 766.735 152.044 L 772.028 157.726 L 777.278 163.494 L 782.485 169.344 L 787.647 175.276 L 792.763 181.288 L 797.833 187.379 L 802.856 193.546 L 807.832 199.790 L 812.759 206.107 L 817.636 212.497 L 822.463 218.958 L 827.240 225.489 L 831.964 232.087 L 836.636 238.751 L 841.255 245.479 L 845.821 252.271 L 850.331 259.123 L 854.786 266.035 L 859.186 273.005 L 863.528 280.030 L 867.813 287.110 L 872.040 294.243 L 876.208 301.426 L 880.317 308.658 L 884.366 315.938 L 888.354 323.263 L 892.281 330.631 L 896.146 338.041 L 899.948 345.492 L 903.687 352.980 L 907.362 360.504 L 910.973 368.063 L 914.520 375.655 L 918.000 383.277 L 921.415 390.928 L 924.763 398.606 L 928.044 406.309 L 931.258 414.035 L 934.403 421.783 L 937.480 429.549 L 940.487 437.333 L 943.425 445.133 L 946.294 452.946 L 949.091 460.770 L 951.818 468.605 L 954.473 476.447 L 957.057 484.295 L 959.568 492.146 L 962.007 500.000 L 964.373 507.854 L 966.666 515.705 L 968.884 523.553 L 971.029 531.395 L 973.100 539.230 L 975.095 547.054 L 977.016 554.867 L 978.861 562.667 L 980.631 570.451 L 982.325 578.217 L 983.943 585.965 L 985.484 593.691 L 986.949 601.394 L 988.336 609.072 L 989.647 616.723 L 990.880 624.345 L 992.036 631.937 L 993.114 639.496 L 994.114 647.020 L 995.037 654.508 L 995.881 661.959 L 996.646 669.369 L 997.334 676.737 L 997.942 684.062 L 998.472 691.342 L 998.924 698.574 L 999.296 705.757 L 999.590 712.890 L 999.805 719.970 L 999.941 726.995 L 999.998 733.965 L 999.976 740.877 L 999.875 747.729 L 999.695 754.521 L 999.437 761.249 L 999.099 767.913 L 998.683 774.511 L 998.187 781.042 L 997.614 787.503 L 996.961 793.893 L 996.230 800.210 L 995.421 806.454 L 994.533 812.621 L 993.568 818.712 L 992.524 824.724 L 991.403 830.656 L 990.204 836.506 L 988.928 842.274 L 987.574 847.956 L 986.144 853.553 L 984.637 859.063 L 983.053 864.484 L 981.393 869.816 L 979.657 875.056 L 977.845 880.203 L 975.957 885.257 L 973.995 890.215 L 971.958 895.078 L 969.846 899.842 L 967.660 904.508 L 965.400 909.075 L 963.067 913.540 L 960.660 917.904 L 958.181 922.164 L 955.629 926.320 L 953.006 930.371 L 950.311 934.316 L 947.544 938.153 L 944.708 941.883 L 941.800 945.503 L 938.824 949.014 L 935.777 952.414 L 932.663 955.702 L 929.479 958.877 L 926.228 961.940 L 922.910 964.888 L 919.525 967.722 L 916.073 970.440 L 912.556 973.043 L 908.974 975.528 L 905.327 977.897 L 901.616 980.147 L 897.842 982.279 L 894.005 984.292 L 890.105 986.185 L 886.144 987.958 L 882.122 989.611 L 878.040 991.144 L 873.898 992.555 L 869.697 993.844 L 865.438 995.012 L 861.121 996.057 L 856.747 996.980 L 852.316 997.781 L 847.830 998.459 L 843.289 999.013 L 838.694 999.445 L 834.045 999.753 L 829.344 999.938 L 824.590 1000.000 L 819.786 999.938 L 814.930 999.753 L 810.025 999.445 L 805.071 999.013 L 800.069 998.459 L 795.020 997.781 L 789.924 996.980 L 784.782 996.057 L 779.595 995.012 L 774.364 993.844 L 769.090 992.555 L 763.773 991.144 L 758.415 989.611 L 753.016 987.958 L 747.576 986.185 L 742.098 984.292 L 736.582 982.279 L 731.028 980.147 L 725.438 977.897 L 719.812 975.528 L 714.151 973.043 L 708.456 970.440 L 702.729 967.722 L 696.970 964.888 L 691.179 961.940 L 685.358 958.877 L 679.509 955.702 L 673.630 952.414 L 667.724 949.014 L 661.792 945.503 L 655.834 941.883 L 649.852 938.153 L 643.846 934.316 L 637.817 930.371 L 631.767 926.320 L 625.695 922.164 L 619.604 917.904 L 613.494 913.540 L 607.366 909.075 L 601.221 904.508 L 595.060 899.842 L 588.885 895.078 L 582.695 890.215 L 576.492 885.257 L 570.276 880.203 L 564.050 875.056 L 557.814 869.816 L 551.568 864.484 L 545.315 859.063 L 539.054 853.553 L 532.787 847.956 L 526.515 842.274 L 520.239 836.506 L 513.959 830.656 L 507.678 824.724 L 501.395 818.712 L 495.112 812.621 L 488.829 806.454 L 482.549 800.210 L 476.271 793.893 L 469.997 787.503 L 463.728 781.042 L 457.464 774.511 L 451.207 767.913 L 444.958 761.249 L 438.717 754.521 L 432.487 747.729 L 426.267 740.877 L 420.058 733.965 L 413.862 726.995 L 407.680 719.970 L 401.512 712.890 L 395.360 705.757 L 389.224 698.574 L 383.106 691.342 L 377.007 684.062 L 370.926 676.737 L 364.866 669.369 L 358.828 661.959 L 352.812 654.508 L 346.819 647.020 L 340.850 639.496 L 334.906 631.937 L 328.989 624.345 L 323.098 616.723 L 317.235 609.072 L 311.402 601.394 L 305.598 593.691 L 299.824 585.965 L 294.082 578.217 L 288.373 570.451 L 282.698 562.667 L 277.056 554.867 L 271.450 547.054 L 265.880 539.230 L 260.346 531.395 L 254.851 523.553 L 249.394 515.705 L 243.977 507.854 L 238.601 500.000 L 233.265 492.146 L 227.972 484.295 L 222.722 476.447 L 217.515 468.605 L 212.353 460.770 L 207.237 452.946 L 202.167 445.133 L 197.144 437.333 L 192.168 429.549 L 187.241 421.783 L 182.364 414.035 L 177.537 406.309 L 172.760 398.606 L 168.036 390.928 L 163.364 383.277 L 158.745 375.655 L 154.179 368.063 L 149.669 360.504 L 145.214 352.980 L 140.814 345.492 L 136.472 338.041 L 132.187 330.631 L 127.960 323.263 L 123.792 315.938 L 119.683 308.658 L 115.634 301.426 L 111.646 294.243 L 107.719 287.110 L 103.854 280.030 L 100.052 273.005 L 96.313 266.035 L 92.638 259.123 L 89.027 252.271 L 85.480 245.479 L 82.000 238.751 L 78.585 232.087 L 75.237 225.489 L 71.956 218.958 L 68.742 212.497 L 65.597 206.107 L 62.520 199.790 L 59.513 193.546 L 56.575 187.379 L 53.706 181.288 L 50.909 175.276 L 48.182 169.344 L 45.527 163.494 L 42.943 157.726 L 40.432 152.044 L 37.993 146.447 L 35.627 140.937 L 33.334 135.516 L 31.116 130.184 L 28.971 124.944 L 26.900 119.797 L 24.905 114.743 L 22.984 109.785 L 21.139 104.922 L 19.369 100.158 L 17.675 95.492 L 16.057 90.925 L 14.516 86.460 L 13.051 82.096 L 11.664 77.836 L 10.353 73.680 L 9.120 69.629 L 7.964 65.684 L 6.886 61.847 L 5.886 58.117 L 4.963 54.497 L 4.119 50.986 L 3.354 47.586 L 2.666 44.298 L 2.058 41.123 L 1.528 38.060 L 1.076 35.112 L 0.704 32.278 L 0.410 29.560 L 0.195 26.957 L 0.059 24.472 L 0.002 22.103 L 0.024 19.853 L 0.125 17.721 L 0.305 15.708 L 0.563 13.815 L 0.901 12.042 L 1.317 10.389 L 1.813 8.856 L 2.386 7.445 L 3.039 6.156 L 3.770 4.988 L 4.579 3.943 L 5.467 3.020 L 6.432 2.219 L 7.476 1.541 L 8.597 0.987 L 9.796 0.555 L 11.072 0.247 L 12.426 0.062 L 13.856 0.000 L 15.363 0.062 L 16.947 0.247 L 18.607 0.555 L 20.343 0.987 L 22.155 1.541 L 24.043 2.219 L 26.005 3.020 L 28.042 3.943 L 30.154 4.988 L 32.340 6.156 L 34.600 7.445 L 36.933 8.856 L 39.340 10.389 L 41.819 12.042 L 44.371 13.815 L 46.994 15.708 L 49.689 17.721 L 52.456 19.853 L 55.292 22.103 L 58.200 24.472 L 61.176 26.957 L 64.223 29.560 L 67.337 32.278 L 70.521 35.112 L 73.772 38.060 L 77.090 41.123 L 80.475 44.298 L 83.927 47.586 L 87.444 50.986 L 91.026 54.497 L 94.673 58.117 L 98.384 61.847 L 102.158 65.684 L 105.995 69.629 L 109.895 73.680 L 113.856 77.836 L 117.878 82.096 L 121.960 86.460 L 126.102 90.925 L 130.303 95.492 L 134.562 100.158 L 138.879 104.922 L 143.253 109.785 L 147.684 114.743 L 152.170 119.797 L 156.711 124.944 L 161.306 130.184 L 165.955 135.516 L 170.656 140.937 L 175.410 146.447 L 180.214 152.044 L 185.070 157.726 L 189.975 163.494 L 194.929 169.344 L 199.931 175.276 L 204.980 181.288 L 210.076 187.379 L 215.218 193.546 L 220.405 199.790 L 225.636 206.107 L 230.910 212.497 L 236.227 218.958 L 241.585 225.489 L 246.984 232.087 L 252.424 238.751 L 257.902 245.479 L 263.418 252.271 L 268.972 259.123 L 274.562 266.035 L 280.188 273.005 L 285.849 280.030 L 291.544 287.110 L 297.271 294.243 L 303.030 301.426 L 308.821 308.658 L 314.642 315.938 L 320.491 323.263 L 326.370 330.631 L 332.276 338.041 L 338.208 345.492 L 344.166 352.980 L 350.148 360.504 L 356.154 368.063 L 362.183 375.655 L 368.233 383.277 L 374.305 390.928 L 380.396 398.606 L 386.506 406.309 L 392.634 414.035 L 398.779 421.783 L 404.940 429.549 L 411.115 437.333 L 417.305 445.133 L 423.508 452.946 L 429.724 460.770 L 435.950 468.605 L 442.186 476.447 L 448.432 484.295 L 454.685 492.146 L 460.946 500.000 L 467.213 507.854 L 473.485 515.705 L 479.761 523.553 L 486.041 531.395 L 492.322 539.230 L 498.605 547.054 L 504.888 554.867 L 511.171 562.667 L 517.451 570.451 L 523.729 578.217 L 530.003 585.965 L 536.272 593.691 L 542.536 601.394 L 548.793 609.072 L 555.042 616.723 L 561.283 624.345 L 567.513 631.937 L 573.733 639.496 L 579.942 647.020 L 586.138 654.508 L 592.320 661.959 L 598.488 669.369 L 604.640 676.737 L 610.776 684.062 L 616.894 691.342 L 622.993 698.574 L 629.074 705.757 L 635.134 712.890 L 641.172 719.970 L 647.188 726.995 L 653.181 733.965 L 659.150 740.877 L 665.094 747.729 L 671.011 754.521 L 676.902 761.249 L 682.765 767.913 L 688.598 774.511 L 694.402 781.042 L 700.176 787.503 L 705.918 793.893 L 711.627 800.210 L 717.302 806.454 L 722.944 812.621 L 728.550 818.712 L 734.120 824.724 L 739.654 830.656 L 745.149 836.506 L 750.606 842.274 L 756.023 847.956 L 761.399 853.553 L 766.735 859.063 L 772.028 864.484 L 777.278 869.816 L 782.485 875.056 L 787.647 880.203 L 792.763 885.257 L 797.833 890.215 L 802.856 895.078 L 807.832 899.842 L 812.759 904.508 L 817.636 909.075 L 822.463 913.540 L 827.240 917.904 L 831.964 922.164 L 836.636 926.320 L 841.255 930.371 L 845.821 934.316 L 850.331 938.153 L 854.786 941.883 L 859.186 945.503 L 863.528 949.014 L 867.813 952.414 L 872.040 955.702 L 876.208 958.877 L 880.317 961.940 L 884.366 964.888 L 888.354 967.722 L 892.281 970.440 L 896.146 973.043 L 899.948 975.528 L 903.687 977.897 L 907.362 980.147 L 910.973 982.279 L 914.520 984.292 L 918.000 986.185 L 921.415 987.958 L 924.763 989.611 L 928.044 991.144 L 931.258 992.555 L 934.403 993.844 L 937.480 995.012 L 940.487 996.057 L 943.425 996.980 L 946.294 997.781 L 949.091 998.459 L 951.818 999.013 L 954.473 999.445 L 957.057 999.753 L 959.568 999.938 L 962.007 1000.000 L 964.373 999.938 L 966.666 999.753 L 968.884 999.445 L 971.029 999.013 L 973.100 998.459 L 975.095 997.781 L 977.016 996.980 L 978.861 996.057 L 980.631 995.012 L 982.325 993.844 L 983.943 992.555 L 985.484 991.144 L 986.949 989.611 L 988.336 987.958 L 989.647 986.185 L 990.880 984.292 L 992.036 982.279 L 993.114 980.147 L 994.114 977.897 L 995.037 975.528 L 995.881 973.043 L 996.646 970.440 L 997.334 967.722 L 997.942 964.888 L 998.472 961.940 L 998.924 958.877 L 999.296 955.702 L 999.590 952.414 L 999.805 949.014 L 999.941 945.503 L 999.998 941.883 L 999.976 938.153 L 999.875 934.316 L 999.695 930.371 L 999.437 926.320 L 999.099 922.164 L 998.683 917.904 L 998.187 913.540 L 997.614 909.075 L 996.961 904.508 L 996.230 899.842 L 995.421 895.078 L 994.533 890.215 L 993.568 885.257 L 992.524 880.203 L 991.403 875.056 L 990.204 869.816 L 988.928 864.484 L 987.574 859.063 L 986.144 853.553 L 984.637 847.956 L 983.053 842.274 L 981.393 836.506 L 979.657 830.656 L 977.845 824.724 L 975.957 818.712 L 973.995 812.621 L 971.958 806.454 L 969.846 800.210 L 967.660 793.893 L 965.400 787.503 L 963.067 781.042 L 960.660 774.511 L 958.181 767.913 L 955.629 761.249 L 953.006 754.521 L 950.311 747.729 L 947.544 740.877 L 944.708 733.965 L 941.800 726.995 L 938.824 719.970 L 935.777 712.890 L 932.663 705.757 L 929.479 698.574 L 926.228 691.342 L 922.910 684.062 L 919.525 676.737 L 916.073 669.369 L 912.556 661.959 L 908.974 654.508 L 905.327 647.020 L 901.616 639.496 L 897.842 631.937 L 894.005 624.345 L 890.105 616.723 L 886.144 609.072 L 882.122 601.394 L 878.040 593.691 L 873.898 585.965 L 869.697 578.217 L 865.438 570.451 L 861.121 562.667 L 856.747 554.867 L 852.316 547.054 L 847.830 539.230 L 843.289 531.395 L 838.694 523.553 L 834.045 515.705 L 829.344 507.854 L 824.590 500.000 L 819.786 492.146 L 814.930 484.295 L 810.025 476.447 L 805.071 468.605 L 800.069 460.770 L 795.020 452.946 L 789.924 445.133 L 784.782 437.333 L 779.595 429.549 L 774.364 421.783 L 769.090 414.035 L 763.773 406.309 L 758.415 398.606 L 753.016 390.928 L 747.576 383.277 L 742.098 375.655 L 736.582 368.063 L 731.028 360.504 L 725.438 352.980 L 719.812 345.492 L 714.151 338.041 L 708.456 330.631 L 702.729 323.263 L 696.970 315.938 L 691.179 308.658 L 685.358 301.426 L 679.509 294.243 L 673.630 287.110 L 667.724 280.030 L 661.792 273.005 L 655.834 266.035 L 649.852 259.123 L 643.846 252.271 L 637.817 245.479 L 631.767 238.751 L 625.695 232.087 L 619.604 225.489 L 613.494 218.958 L 607.366 212.497 L 601.221 206.107 L 595.060 199.790 L 588.885 193.546 L 582.695 187.379 L 576.492 181.288 L 570.276 175.276 L 564.050 169.344 L 557.814 163.494 L 551.568 157.726 L 545.315 152.044 L 539.054 146.447 L 532.787 140.937 L 526.515 135.516 L 520.239 130.184 L 513.959 124.944 L 507.678 119.797 L 501.395 114.743 L 495.112 109.785 L 488.829 104.922 L 482.549 100.158 L 476.271 95.492 L 469.997 90.925 L 463.728 86.460 L 457.464 82.096 L 451.207 77.836 L 444.958 73.680 L 438.717 69.629 L 432.487 65.684 L 426.267 61.847 L 420.058 58.117 L 413.862 54.497 L 407.680 50.986 L 401.512 47.586 L 395.360 44.298 L 389.224 41.123 L 383.106 38.060 L 377.007 35.112 L 370.926 32.278 L 364.866 29.560 L 358.828 26.957 L 352.812 24.472 L 346.819 22.103 L 340.850 19.853 L 334.906 17.721 L 328.989 15.708 L 323.098 13.815 L 317.235 12.042 L 311.402 10.389 L 305.598 8.856 L 299.824 7.445 L 294.082 6.156 L 288.373 4.988 L 282.698 3.943 L 277.056 3.020 L 271.450 2.219 L 265.880 1.541 L 260.346 0.987 L 254.851 0.555 L 249.394 0.247 L 243.977 0.062 L 238.601 0.000 L 233.265 0.062 L 227.972 0.247 L 222.722 0.555 L 217.515 0.987 L 212.353 1.541 L 207.237 2.219 L 202.167 3.020 L 197.144 3.943 L 192.168 4.988 L 187.241 6.156 L 182.364 7.445 L 177.537 8.856 L 172.760 10.389 L 168.036 12.042 L 163.364 13.815 L 158.745 15.708 L 154.179 17.721 L 149.669 19.853 L 145.214 22.103 L 140.814 24.472 L 136.472 26.957 L 132.187 29.560 L 127.960 32.278 L 123.792 35.112 L 119.683 38.060 L 115.634 41.123 L 111.646 44.298 L 107.719 47.586 L 103.854 50.986 L 100.052 54.497 L 96.313 58.117 L 92.638 61.847 L 89.027 65.684 L 85.480 69.629 L 82.000 73.680 L 78.585 77.836 L 75.237 82.096 L 71.956 86.460 L 68.742 90.925 L 65.597 95.492 L 62.520 100.158 L 59.513 104.922 L 56.575 109.785 L 53.706 114.743 L 50.909 119.797 L 48.182 124.944 L 45.527 130.184 L 42.943 135.516 L 40.432 140.937 L 37.993 146.447 L 35.627 152.044 L 33.334 157.726 L 31.116 163.494 L 28.971 169.344 L 26.900 175.276 L 24.905 181.288 L 22.984 187.379 L 21.139 193.546 L 19.369 199.790 L 17.675 206.107 L 16.057 212.497 L 14.516 218.958 L 13.051 225.489 L 11.664 232.087 L 10.353 238.751 L 9.120 245.479 L 7.964 252.271 L 6.886 259.123 L 5.886 266.035 L 4.963 273.005 L 4.119 280.030 L 3.354 287.110 L 2.666 294.243 L 2.058 301.426 L 1.528 308.658 L 1.076 315.938 L 0.704 323.263 L 0.410 330.631 L 0.195 338.041 L 0.059 345.492 L 0.002 352.980 L 0.024 360.504 L 0.125 368.063 L 0.305 375.655 L 0.563 383.277 L 0.901 390.928 L 1.317 398.606 L 1.813 406.309 L 2.386 414.035 L 3.039 421.783 L 3.770 429.549 L 4.579 437.333 L 5.467 445.133 L 6.432 452.946 L 7.476 460.770 L 8.597 468.605 L 9.796 476.447 L 11.072 484.295 L 12.426 492.146 L 13.856 500.000 L 15.363 507.854 L 16.947 515.705 L 18.607 523.553 L 20.343 531.395 L 22.155 539.230 L 24.043 547.054 L 26.005 554.867 L 28.042 562.667 L 30.154 570.451 L 32.340 578.217 L 34.600 585.965 L 36.933 593.691 L 39.340 601.394 L 41.819 609.072 L 44.371 616.723 L 46.994 624.345 L 49.689 631.937 L 52.456 639.496 L 55.292 647.020 L 58.200 654.508 L 61.176 661.959 L 64.223 669.369 L 67.337 676.737 L 70.521 684.062 L 73.772 691.342 L 77.090 698.574 L 80.475 705.757 L 83.927 712.890 L 87.444 719.970 L 91.026 726.995 L 94.673 733.965 L 98.384 740.877 L 102.158 747.729 L 105.995 754.521 L 109.895 761.249 L 113.856 767.913 L 117.878 774.511 L 121.960 781.042 L 126.102 787.503 L 130.303 793.893 L 134.562 800.210 L 138.879 806.454 L 143.253 812.621 L 147.684 818.712 L 152.170 824.724 L 156.711 830.656 L 161.306 836.506 L 165.955 842.274 L 170.656 847.956 L 175.410 853.553 L 180.214 859.063 L 185.070 864.484 L 189.975 869.816 L 194.929 875.056 L 199.931 880.203 L 204.980 885.257 L 210.076 890.215 L 215.218 895.078 L 220.405 899.842 L 225.636 904.508 L 230.910 909.075 L 236.227 913.540 L 241.585 917.904 L 246.984 922.164 L 252.424 926.320 L 257.902 930.371 L 263.418 934.316 L 268.972 938.153 L 274.562 941.883 L 280.188 945.503 L 285.849 949.014 L 291.544 952.414 L 297.271 955.702 L 303.030 958.877 L 308.821 961.940 L 314.642 964.888 L 320.491 967.722 L 326.370 970.440 L 332.276 973.043 L 338.208 975.528 L 344.166 977.897 L 350.148 980.147 L 356.154 982.279 L 362.183 984.292 L 368.233 986.185 L 374.305 987.958 L 380.396 989.611 L 386.506 991.144 L 392.634 992.555 L 398.779 993.844 L 404.940 995.012 L 411.115 996.057 L 417.305 996.980 L 423.508 997.781 L 429.724 998.459 L 435.950 999.013 L 442.186 999.445 L 448.432 999.753 L 454.685 999.938 L 460.946 1000.000 L 467.213 999.938 L 473.485 999.753 L 479.761 999.445 L 486.041 999.013 L 492.322 998.459 L 498.605 997.781 L 504.888 996.980 L 511.171 996.057 L 517.451 995.012 L 523.729 993.844 L 530.003 992.555 L 536.272 991.144 L 542.536 989.611 L 548.793 987.958 L 555.042 986.185 L 561.283 984.292 L 567.513 982.279 L 573.733 980.147 L 579.942 977.897 L 586.138 975.528 L 592.320 973.043 L 598.488 970.440 L 604.640 967.722 L 610.776 964.888 L 616.894 961.940 L 622.993 958.877 L 629.074 955.702 L 635.134 952.414 L 641.172 949.014 L 647.188 945.503 L 653.181 941.883 L 659.150 938.153 L 665.094 934.316 L 671.011 930.371 L 676.902 926.320 L 682.765 922.164 L 688.598 917.904 L 694.402 913.540 L 700.176 909.075 L 705.918 904.508 L 711.627 899.842 L 717.302 895.078 L 722.944 890.215 L 728.550 885.257 L 734.120 880.203 L 739.654 875.056 L 745.149 869.816 L 750.606 864.484 L 756.023 859.063 L 761.399 853.553 L 766.735 847.956 L 772.028 842.274 L 777.278 836.506 L 782.485 830.656 L 787.647 824.724 L 792.763 818.712 L 797.833 812.621 L 802.856 806.454 L 807.832 800.210 L 812.759 793.893 L 817.636 787.503 L 822.463 781.042 L 827.240 774.511 L 831.964 767.913 L 836.636 761.249 L 841.255 754.521 L 845.821 747.729 L 850.331 740.877 L 854.786 733.965 L 859.186 726.995 L 863.528 719.970 L 867.813 712.890 L 872.040 705.757 L 876.208 698.574 L 880.317 691.342 L 884.366 684.062 L 888.354 676.737 L 892.281 669.369 L 896.146 661.959 L 899.948 654.508 L 903.687 647.020 L 907.362 639.496 L 910.973 631.937 L 914.520 624.345 L 918.000 616.723 L 921.415 609.072 L 924.763 601.394 L 928.044 593.691 L 931.258 585.965 L 934.403 578.217 L 937.480 570.451 L 940.487 562.667 L 943.425 554.867 L 946.294 547.054 L 949.091 539.230 L 951.818 531.395 L 954.473 523.553 L 957.057 515.705 L 959.568 507.854 L 962.007 500.000 L 964.373 492.146 L 966.666 484.295 L 968.884 476.447 L 971.029 468.605 L 973.100 460.770 L 975.095 452.946 L 977.016 445.133 L 978.861 437.333 L 980.631 429.549 L 982.325 421.783 L 983.943 414.035 L 985.484 406.309 L 986.949 398.606 L 988.336 390.928 L 989.647 383.277 L 990.880 375.655 L 992.036 368.063 L 993.114 360.504 L 994.114 352.980 L 995.037 345.492 L 995.881 338.041 L 996.646 330.631 L 997.334 323.263 L 997.942 315.938 L 998.472 308.658 L 998.924 301.426 L 999.296 294.243 L 999.590 287.110 L 999.805 280.030 L 999.941 273.005 L 999.998 266.035 L 999.976 259.123 L 999.875 252.271 L 999.695 245.479 L 999.437 238.751 L 999.099 232.087 L 998.683 225.489 L 998.187 218.958 L 997.614 212.497 L 996.961 206.107 L 996.230 199.790 L 995.421 193.546 L 994.533 187.379 L 993.568 181.288 L 992.524 175.276 L 991.403 169.344 L 990.204 163.494 L 988.928 157.726 L 987.574 152.044 L 986.144 146.447 L 984.637 140.937 L 983.053 135.516 L 981.393 130.184 L 979.657 124.944 L 977.845 119.797 L 975.957 114.743 L 973.995 109.785 L 971.958 104.922 L 969.846 100.158 L 967.660 95.492 L 965.400 90.925 L 963.067 86.460 L 960.660 82.096 L 958.181 77.836 L 955.629 73.680 L 953.006 69.629 L 950.311 65.684 L 947.544 61.847 L 944.708 58.117 L 941.800 54.497 L 938.824 50.986 L 935.777 47.586 L 932.663 44.298 L 929.479 41.123 L 926.228 38.060 L 922.910 35.112 L 919.525 32.278 L 916.073 29.560 L 912.556 26.957 L 908.974 24.472 L 905.327 22.103 L 901.616 19.853 L 897.842 17.721 L 894.005 15.708 L 890.105 13.815 L 886.144 12.042 L 882.122 10.389 L 878.040 8.856 L 873.898 7.445 L 869.697 6.156 L 865.438 4.988 L 861.121 3.943 L 856.747 3.020 L 852.316 2.219 L 847.830 1.541 L 843.289 0.987 L 838.694 0.555 L 834.045 0.247 L 829.344 0.062 L 824.590 0.000 L 819.786 0.062 L 814.930 0.247 L 810.025 0.555 L 805.071 0.987 L 800.069 1.541 L 795.020 2.219 L 789.924 3.020 L 784.782 3.943 L 779.595 4.988 L 774.364 6.156 L 769.090 7.445 L 763.773 8.856 L 758.415 10.389 L 753.016 12.042 L 747.576 13.815 L 742.098 15.708 L 736.582 17.721 L 731.028 19.853 L 725.438 22.103 L 719.812 24.472 L 714.151 26.957 L 708.456 29.560 L 702.729 32.278 L 696.970 35.112 L 691.179 38.060 L 685.358 41.123 L 679.509 44.298 L 673.630 47.586 L 667.724 50.986 L 661.792 54.497 L 655.834 58.117 L 649.852 61.847 L 643.846 65.684 L 637.817 69.629 L 631.767 73.680 L 625.695 77.836 L 619.604 82.096 L 613.494 86.460 L 607.366 90.925 L 601.221 95.492 L 595.060 100.158 L 588.885 104.922 L 582.695 109.785 L 576.492 114.743 L 570.276 119.797 L 564.050 124.944 L 557.814 130.184 L 551.568 135.516 L 545.315 140.937 L 539.054 146.447 L 532.787 152.044 L 526.515 157.726 L 520.239 163.494 L 513.959 169.344 L 507.678 175.276 L 501.395 181.288 L 495.112 187.379 L 488.829 193.546 L 482.549 199.790 L 476.271 206.107 L 469.997 212.497 L 463.728 218.958 L 457.464 225.489 L 451.207 232.087 L 444.958 238.751 L 438.717 245.479 L 432.487 252.271 L 426.267 259.123 L 420.058 266.035 L 413.862 273.005 L 407.680 280.030 L 401.512 287.110 L 395.360 294.243 L 389.224 301.426 L 383.106 308.658 L 377.007 315.938 L 370.926 323.263 L 364.866 330.631 L 358.828 338.041 L 352.812 345.492 L 346.819 352.980 L 340.850 360.504 L 334.906 368.063 L 328.989 375.655 L 323.098 383.277 L 317.235 390.928 L 311.402 398.606 L 305.598 406.309 L 299.824 414.035 L 294.082 421.783 L 288.373 429.549 L 282.698 437.333 L 277.056 445.133 L 271.450 452.946 L 265.880 460.770 L 260.346 468.605 L 254.851 476.447 L 249.394 484.295 L 243.977 492.146 L 238.601 500.000 L 233.265 507.854 L 227.972 515.705 L 222.722 523.553 L 217.515 531.395 L 212.353 539.230 L 207.237 547.054 L 202.167 554.867 L 197.144 562.667 L 192.168 570.451 L 187.241 578.217 L 182.364 585.965 L 177.537 593.691 L 172.760 601.394 L 168.036 609.072 L 163.364 616.723 L 158.745 624.345 L 154.179 631.937 L 149.669 639.496 L 145.214 647.020 L 140.814 654.508 L 136.472 661.959 L 132.187 669.369 L 127.960 676.737 L 123.792 684.062 L 119.683 691.342 L 115.634 698.574 L 111.646 705.757 L 107.719 712.890 L 103.854 719.970 L 100.052 726.995 L 96.313 733.965 L 92.638 740.877 L 89.027 747.729 L 85.480 754.521 L 82.000 761.249 L 78.585 767.913 L 75.237 774.511 L 71.956 781.042 L 68.742 787.503 L 65.597 793.893 L 62.520 800.210 L 59.513 806.454 L 56.575 812.621 L 53.706 818.712 L 50.909 824.724 L 48.182 830.656 L 45.527 836.506 L 42.943 842.274 L 40.432 847.956 L 37.993 853.553 L 35.627 859.063 L 33.334 864.484 L 31.116 869.816 L 28.971 875.056 L 26.900 880.203 L 24.905 885.257 L 22.984 890.215 L 21.139 895.078 L 19.369 899.842 L 17.675 904.508 L 16.057 909.075 L 14.516 913.540 L 13.051 917.904 L 11.664 922.164 L 10.353 926.320 L 9.120 930.371 L 7.964 934.316 L 6.886 938.153 L 5.886 941.883 L 4.963 945.503 L 4.119 949.014 L 3.354 952.414 L 2.666 955.702 L 2.058 958.877 L 1.528 961.940 L 1.076 964.888 L 0.704 967.722 L 0.410 970.440 L 0.195 973.043 L 0.059 975.528 L 0.002 977.897 L 0.024 980.147 L 0.125 982.279 L 0.305 984.292 L 0.563 986.185 L 0.901 987.958 L 1.317 989.611 L 1.813 991.144 L 2.386 992.555 L 3.039 993.844 L 3.770 995.012 L 4.579 996.057 L 5.467 996.980 L 6.432 997.781 L 7.476 998.459 L 8.597 999.013 L 9.796 999.445 L 11.072 999.753 L 12.426 999.938 L 13.856 1000.000 L 15.363 999.938 L 16.947 999.753 L 18.607 999.445 L 20.343 999.013 L 22.155 998.459 L 24.043 997.781 L 26.005 996.980 L 28.042 996.057 L 30.154 995.012 L 32.340 993.844 L 34.600 992.555 L 36.933 991.144 L 39.340 989.611 L 41.819 987.958 L 44.371 986.185 L 46.994 984.292 L 49.689 982.279 L 52.456 980.147 L 55.292 977.897 L 58.200 975.528 L 61.176 973.043 L 64.223 970.440 L 67.337 967.722 L 70.521 964.888 L 73.772 961.940 L 77.090 958.877 L 80.475 955.702 L 83.927 952.414 L 87.444 949.014 L 91.026 945.503 L 94.673 941.883 L 98.384 938.153 L 102.158 934.316 L 105.995 930.371 L 109.895 926.320 L 113.856 922.164 L 117.878 917.904 L 121.960 913.540 L 126.102 909.075 L 130.303 904.508 L 134.562 899.842 L 138.879 895.078 L 143.253 890.215 L 147.684 885.257 L 152.170 880.203 L 156.711 875.056 L 161.306 869.816 L 165.955 864.484 L 170.656 859.063 L 175.410 853.553 L 180.214 847.956 L 185.070 842.274 L 189.975 836.506 L 194.929 830.656 L 199.931 824.724 L 204.980 818.712 L 210.076 812.621 L 215.218 806.454 L 220.405 800.210 L 225.636 793.893 L 230.910 787.503 L 236.227 781.042 L 241.585 774.511 L 246.984 767.913 L 252.424 761.249 L 257.902 754.521 L 263.418 747.729 L 268.972 740.877 L 274.562 733.965 L 280.188 726.995 L 285.849 719.970 L 291.544 712.890 L 297.271 705.757 L 303.030 698.574 L 308.821 691.342 L 314.642 684.062 L 320.491 676.737 L 326.370 669.369 L 332.276 661.959 L 338.208 654.508 L 344.166 647.020 L 350.148 639.496 L 356.154 631.937 L 362.183 624.345 L 368.233 616.723 L 374.305 609.072 L 380.396 601.394 L 386.506 593.691 L 392.634 585.965 L 398.779 578.217 L 404.940 570.451 L 411.115 562.667 L 417.305 554.867 L 423.508 547.054 L 429.724 539.230 L 435.950 531.395 L 442.186 523.553 L 448.432 515.705 L 454.685 507.854 L 460.946 500.000 L 467.213 492.146 L 473.485 484.295 L 479.761 476.447 L 486.041 468.605 L 492.322 460.770 L 498.605 452.946 L 504.888 445.133 L 511.171 437.333 L 517.451 429.549 L 523.729 421.783 L 530.003 414.035 L 536.272 406.309 L 542.536 398.606 L 548.793 390.928 L 555.042 383.277 L 561.283 375.655 L 567.513 368.063 L 573.733 360.504 L 579.942 352.980 L 586.138 345.492 L 592.320 338.041 L 598.488 330.631 L 604.640 323.263 L 610.776 315.938 L 616.894 308.658 L 622.993 301.426 L 629.074 294.243 L 635.134 287.110 L 641.172 280.030 L 647.188 273.005 L 653.181 266.035 L 659.150 259.123 L 665.094 252.271 L 671.011 245.479 L 676.902 238.751 L 682.765 232.087 L 688.598 225.489 L 694.402 218.958 L 700.176 212.497 L 705.918 206.107 L 711.627 199.790 L 717.302 193.546 L 722.944 187.379 L 728.550 181.288 L 734.120 175.276 L 739.654 169.344 L 745.149 163.494 L 750.606 157.726 L 756.023 152.044 L 761.399 146.447 L 766.735 140.937 L 772.028 135.516 L 777.278 130.184 L 782.485 124.944 L 787.647 119.797 L 792.763 114.743 L 797.833 109.785 L 802.856 104.922 L 807.832 100.158 L 812.759 95.492 L 817.636 90.925 L 822.463 86.460 L 827.240 82.096 L 831.964 77.836 L 836.636 73.680 L 841.255 69.629 L 845.821 65.684 L 850.331 61.847 L 854.786 58.117 L 859.186 54.497 L 863.528 50.986 L 867.813 47.586 L 872.040 44.298 L 876.208 41.123 L 880.317 38.060 L 884.366 35.112 L 888.354 32.278 L 892.281 29.560 L 896.146 26.957 L 899.948 24.472 L 903.687 22.103 L 907.362 19.853 L 910.973 17.721 L 914.520 15.708 L 918.000 13.815 L 921.415 12.042 L 924.763 10.389 L 928.044 8.856 L 931.258 7.445 L 934.403 6.156 L 937.480 4.988 L 940.487 3.943 L 943.425 3.020 L 946.294 2.219 L 949.091 1.541 L 951.818 0.987 L 954.473 0.555 L 957.057 0.247 L 959.568 0.062 L 962.007 0.000 L 964.373 0.062 L 966.666 0.247 L 968.884 0.555 L 971.029 0.987 L 973.100 1.541 L 975.095 2.219 L 977.016 3.020 L 978.861 3.943 L 980.631 4.988 L 982.325 6.156 L 983.943 7.445 L 985.484 8.856 L 986.949 10.389 L 988.336 12.042 L 989.647 13.815 L 990.880 15.708 L 992.036 17.721 L 993.114 19.853 L 994.114 22.103 L 995.037 24.472 L 995.881 26.957 L 996.646 29.560 L 997.334 32.278 L 997.942 35.112 L 998.472 38.060 L 998.924 41.123 L 999.296 44.298 L 999.590 47.586 L 999.805 50.986 L 999.941 54.497 L 999.998 58.117 L 999.976 61.847 L 999.875 65.684 L 999.695 69.629 L 999.437 73.680 L 999.099 77.836 L 998.683 82.096 L 998.187 86.460 L 997.614 90.925 L 996.961 95.492 L 996.230 100.158 L 995.421 104.922 L 994.533 109.785 L 993.568 114.743 L 992.524 119.797 L 991.403 124.944 L 990.204 130.184 L 988.928 135.516 L 987.574 140.937 L 986.144 146.447 L 984.637 152.044 L 983.053 157.726 L 981.393 163.494 L 979.657 169.344 L 977.845 175.276 L 975.957 181.288 L 973.995 187.379 L 971.958 193.546 L 969.846 199.790 L 967.660 206.107 L 965.400 212.497 L 963.067 218.958 L 960.660 225.489 L 958.181 232.087 L 955.629 238.751 L 953.006 245.479 L 950.311 252.271 L 947.544 259.123 L 944.708 266.035 L 941.800 273.005 L 938.824 280.030 L 935.777 287.110 L 932.663 294.243 L 929.479 301.426 L 926.228 308.658 L 922.910 315.938 L 919.525 323.263 L 916.073 330.631 L 912.556 338.041 L 908.974 345.492 L 905.327 352.980 L 901.616 360.504 L 897.842 368.063 L 894.005 375.655 L 890.105 383.277 L 886.144 390.928 L 882.122 398.606 L 878.040 406.309 L 873.898 414.035 L 869.697 421.783 L 865.438 429.549 L 861.121 437.333 L 856.747 445.133 L 852.316 452.946 L 847.830 460.770 L 843.289 468.605 L 838.694 476.447 L 834.045 484.295 L 829.344 492.146 L 824.590 500.000" fill="none" stroke="black" stroke-width="12.0" stroke-linecap="round" stroke-linejoin="round" vector-effect="non-scaling-stroke"/>
</svg>