<svg xmlns="http://www.w3.org/2000/svg" viewBox="-5.999 -6.000 1011.998 1012.000" preserveAspectRatio="xMidYMid meet">
    <path d="M 843.899 500.000 L 841.611 504.712 L 839.311 509.424 L 836.996 514.135 L 834.669 518.845 L 832.328 523.553 L 829.975 528.259 L 827.608 532.963 L 825.228 537.663 L 822.835 542.361 L 820.430 547.054 L 818.012 551.743 L 815.582 556.428 L 813.139 561.108 L 810.683 565.782 L 808.216 570.451 L 805.736 575.113 L 803.244 579.768 L 800.740 584.417 L 798.224 589.058 L 795.697 593.691 L 793.158 598.315 L 790.607 602.931 L 788.045 607.538 L 785.471 612.135 L 782.887 616.723 L 780.291 621.300 L 777.684 625.866 L 775.065 630.421 L 772.437 634.964 L 769.797 639.496 L 767.147 644.015 L 764.486 648.521 L 761.815 653.014 L 759.133 657.493 L 756.441 661.959 L 753.739 666.410 L 751.027 670.846 L 748.305 675.267 L 745.573 679.673 L 742.832 684.062 L 740.081 688.436 L 737.321 692.792 L 734.551 697.131 L 731.772 701.453 L 728.983 705.757 L 726.186 710.043 L 723.380 714.310 L 720.565 718.558 L 717.741 722.786 L 714.909 726.995 L 712.068 731.184 L 709.219 735.352 L 706.361 739.499 L 703.496 743.625 L 700.622 747.729 L 697.741 751.812 L 694.851 755.872 L 691.954 759.909 L 689.050 763.923 L 686.138 767.913 L 683.218 771.880 L 680.291 775.823 L 677.358 779.741 L 674.417 783.634 L 671.469 787.503 L 668.515 791.345 L 665.554 795.162 L 662.586 798.952 L 659.612 802.716 L 656.632 806.454 L 653.645 810.163 L 650.652 813.846 L 647.654 817.500 L 644.650 821.126 L 641.639 824.724 L 638.624 828.293 L 635.603 831.833 L 632.576 835.343 L 629.544 838.823 L 626.508 842.274 L 623.466 845.693 L 620.419 849.083 L 617.367 852.441 L 614.311 855.768 L 611.251 859.063 L 608.186 862.327 L 605.116 865.558 L 602.043 868.757 L 598.966 871.923 L 595.884 875.056 L 592.799 878.155 L 589.710 881.221 L 586.618 884.253 L 583.522 887.252 L 580.423 890.215 L 577.321 893.144 L 574.215 896.038 L 571.107 898.897 L 567.996 901.721 L 564.882 904.508 L 561.766 907.260 L 558.647 909.976 L 555.526 912.655 L 552.403 915.298 L 549.278 917.904 L 546.151 920.472 L 543.021 923.004 L 539.891 925.497 L 536.758 927.953 L 533.625 930.371 L 530.489 932.751 L 527.353 935.092 L 524.216 937.394 L 521.077 939.658 L 517.938 941.883 L 514.798 944.068 L 511.658 946.214 L 508.517 948.321 L 505.375 950.387 L 502.234 952.414 L 499.092 954.400 L 495.951 956.346 L 492.809 958.251 L 489.668 960.116 L 486.528 961.940 L 483.387 963.723 L 480.248 965.464 L 477.109 967.164 L 473.971 968.823 L 470.835 970.440 L 467.699 972.016 L 464.565 973.549 L 461.432 975.041 L 458.300 976.490 L 455.170 977.897 L 452.042 979.261 L 448.916 980.583 L 445.792 981.862 L 442.670 983.098 L 439.550 984.292 L 436.433 985.442 L 433.318 986.549 L 430.206 987.613 L 427.097 988.634 L 423.990 989.611 L 420.886 990.545 L 417.786 991.436 L 414.689 992.282 L 411.595 993.085 L 408.505 993.844 L 405.418 994.559 L 402.335 995.231 L 399.256 995.858 L 396.181 996.441 L 393.110 996.980 L 390.043 997.476 L 386.980 997.926 L 383.922 998.333 L 380.869 998.695 L 377.820 999.013 L 374.776 999.287 L 371.737 999.516 L 368.703 999.701 L 365.675 999.842 L 362.651 999.938 L 359.633 999.990 L 356.621 999.998 L 353.614 999.961 L 350.613 999.879 L 347.618 999.753 L 344.629 999.583 L 341.646 999.368 L 338.669 999.110 L 335.699 998.806 L 332.735 998.459 L 329.777 998.067 L 326.827 997.631 L 323.883 997.150 L 320.946 996.626 L 318.017 996.057 L 315.094 995.445 L 312.179 994.788 L 309.271 994.087 L 306.371 993.343 L 303.478 992.555 L 300.593 991.723 L 297.716 990.847 L 294.847 989.928 L 291.987 988.965 L 289.134 987.958 L 286.289 986.909 L 283.454 985.816 L 280.626 984.680 L 277.807 983.501 L 274.998 982.279 L 272.196 981.014 L 269.404 979.706 L 266.621 978.356 L 263.848 976.963 L 261.083 975.528 L 258.328 974.051 L 255.583 972.532 L 252.847 970.970 L 250.121 969.367 L 247.405 967.722 L 244.699 966.036 L 242.002 964.308 L 239.316 962.539 L 236.641 960.728 L 233.975 958.877 L 231.321 956.985 L 228.677 955.053 L 226.043 953.080 L 223.421 951.067 L 220.809 949.014 L 218.208 946.921 L 215.619 944.788 L 213.040 942.616 L 210.473 940.404 L 207.918 938.153 L 205.374 935.864 L 202.841 933.535 L 200.320 931.168 L 197.812 928.763 L 195.315 926.320 L 192.830 923.839 L 190.357 921.320 L 187.897 918.764 L 185.448 916.171 L 183.013 913.540 L 180.589 910.873 L 178.179 908.170 L 175.781 905.430 L 173.395 902.654 L 171.023 899.842 L 168.664 896.995 L 166.318 894.113 L 163.985 891.195 L 161.665 888.243 L 159.358 885.257 L 157.065 882.236 L 154.786 879.181 L 152.520 876.092 L 150.268 872.971 L 148.030 869.816 L 145.805 866.628 L 143.595 863.407 L 141.399 860.155 L 139.217 856.870 L 137.049 853.553 L 134.895 850.206 L 132.756 846.827 L 130.631 843.417 L 128.521 839.977 L 126.426 836.506 L 124.345 833.006 L 122.279 829.476 L 120.228 825.917 L 118.192 822.329 L 116.171 818.712 L 114.165 815.067 L 112.175 811.394 L 110.200 807.693 L 108.240 803.965 L 106.296 800.210 L 104.367 796.428 L 102.454 792.620 L 100.556 788.786 L 98.675 784.927 L 96.809 781.042 L 94.959 777.132 L 93.125 773.197 L 91.307 769.238 L 89.505 765.256 L 87.720 761.249 L 85.950 757.220 L 84.197 753.167 L 82.461 749.093 L 80.741 744.996 L 79.037 740.877 L 77.350 736.737 L 75.680 732.576 L 74.027 728.394 L 72.390 724.192 L 70.770 719.970 L 69.168 715.728 L 67.582 711.467 L 66.013 707.188 L 64.462 702.890 L 62.927 698.574 L 61.410 694.240 L 59.910 689.890 L 58.428 685.522 L 56.963 681.138 L 55.515 676.737 L 54.085 672.321 L 52.673 667.890 L 51.278 663.444 L 49.901 658.983 L 48.542 654.508 L 47.201 650.020 L 45.877 645.518 L 44.572 641.003 L 43.284 636.476 L 42.014 631.937 L 40.763 627.385 L 39.530 622.823 L 38.314 618.249 L 37.117 613.666 L 35.939 609.072 L 34.778 604.468 L 33.636 599.855 L 32.513 595.233 L 31.408 590.603 L 30.321 585.965 L 29.253 581.319 L 28.203 576.665 L 27.173 572.005 L 26.160 567.339 L 25.167 562.667 L 24.192 557.989 L 23.236 553.306 L 22.299 548.618 L 21.381 543.926 L 20.481 539.230 L 19.601 534.530 L 18.739 529.827 L 17.897 525.122 L 17.073 520.415 L 16.269 515.705 L 15.484 510.995 L 14.717 506.283 L 13.970 501.571 L 13.242 496.858 L 12.534 492.146 L 11.844 487.435 L 11.174 482.725 L 10.524 478.016 L 9.892 473.309 L 9.280 468.605 L 8.687 463.903 L 8.114 459.205 L 7.560 454.510 L 7.025 449.819 L 6.510 445.133 L 6.015 440.451 L 5.539 435.775 L 5.082 431.105 L 4.645 426.441 L 4.228 421.783 L 3.830 417.132 L 3.451 412.488 L 3.093 407.853 L 2.754 403.225 L 2.434 398.606 L 2.134 393.996 L 1.854 389.396 L 1.594 384.805 L 1.353 380.225 L 1.132 375.655 L 0.930 371.096 L 0.749 366.549 L 0.587 362.014 L 0.444 357.490 L 0.322 352.980 L 0.219 348.482 L 0.136 343.998 L 0.073 339.528 L 0.029 335.072 L 0.005 330.631 L 0.001 326.205 L 0.016 321.794 L 0.052 317.399 L 0.107 313.020 L 0.182 308.658 L 0.276 304.313 L 0.390 299.985 L 0.524 295.675 L 0.678 291.384 L 0.851 287.110 L 1.044 282.856 L 1.257 278.621 L 1.490 274.405 L 1.742 270.210 L 2.014 266.035 L 2.305 261.881 L 2.616 257.748 L 2.947 253.636 L 3.298 249.547 L 3.668 245.479 L 4.057 241.435 L 4.466 237.413 L 4.895 233.414 L 5.343 229.439 L 5.811 225.489 L 6.299 221.562 L 6.805 217.661 L 7.332 213.784 L 7.877 209.933 L 8.443 206.107 L 9.027 202.308 L 9.631 198.535 L 10.255 194.789 L 10.897 191.070 L 11.559 187.379 L 12.240 183.715 L 12.941 180.079 L 13.661 176.472 L 14.400 172.894 L 15.158 169.344 L 15.935 165.824 L 16.731 162.334 L 17.547 158.873 L 18.381 155.443 L 19.235 152.044 L 20.107 148.675 L 20.999 145.338 L 21.909 142.032 L 22.838 138.758 L 23.786 135.516 L 24.753 132.306 L 25.739 129.129 L 26.743 125.985 L 27.766 122.874 L 28.808 119.797 L 29.868 116.753 L 30.947 113.744 L 32.044 110.769 L 33.160 107.828 L 34.294 104.922 L 35.447 102.052 L 36.618 99.217 L 37.807 96.417 L 39.014 93.653 L 40.240 90.925 L 41.484 88.234 L 42.746 85.579 L 44.026 82.961 L 45.324 80.380 L 46.640 77.836 L 47.974 75.330 L 49.325 72.861 L 50.695 70.431 L 52.082 68.038 L 53.487 65.684 L 54.910 63.369 L 56.350 61.092 L 57.807 58.854 L 59.282 56.656 L 60.775 54.497 L 62.285 52.377 L 63.812 50.297 L 65.356 48.258 L 66.918 46.258 L 68.496 44.298 L 70.092 42.379 L 71.704 40.501 L 73.334 38.664 L 74.980 36.867 L 76.643 35.112 L 78.323 33.398 L 80.020 31.725 L 81.733 30.094 L 83.462 28.505 L 85.208 26.957 L 86.971 25.452 L 88.749 23.989 L 90.544 22.568 L 92.355 21.189 L 94.182 19.853 L 96.026 18.560 L 97.885 17.309 L 99.760 16.101 L 101.651 14.937 L 103.557 13.815 L 105.479 12.737 L 107.417 11.701 L 109.370 10.710 L 111.339 9.761 L 113.323 8.856 L 115.323 7.995 L 117.337 7.178 L 119.367 6.404 L 121.411 5.674 L 123.471 4.988 L 125.545 4.346 L 127.635 3.748 L 129.738 3.194 L 131.857 2.685 L 133.990 2.219 L 136.138 1.798 L 138.299 1.421 L 140.476 1.088 L 142.666 0.799 L 144.870 0.555 L 147.089 0.355 L 149.321 0.200 L 151.568 0.089 L 153.828 0.022 L 156.101 0.000 L 158.389 0.022 L 160.689 0.089 L 163.004 0.200 L 165.331 0.355 L 167.672 0.555 L 170.025 0.799 L 172.392 1.088 L 174.772 1.421 L 177.165 1.798 L 179.570 2.219 L 181.988 2.685 L 184.418 3.194 L 186.861 3.748 L 189.317 4.346 L 191.784 4.988 L 194.264 5.674 L 196.756 6.404 L 199.260 7.178 L 201.776 7.995 L 204.303 8.856 L 206.842 9.761 L 209.393 10.710 L 211.955 11.701 L 214.529 12.737 L 217.113 13.815 L 219.709 14.937 L 222.316 16.101 L 224.935 17.309 L 227.563 18.560 L 230.203 19.853 L 232.853 21.189 L 235.514 22.568 L 238.185 23.989 L 240.867 25.452 L 243.559 26.957 L 246.261 28.505 L 248.973 30.094 L 251.695 31.725 L 254.427 33.398 L 257.168 35.112 L 259.919 36.867 L 262.679 38.664 L 265.449 40.501 L 268.228 42.379 L 271.017 44.298 L 273.814 46.258 L 276.620 48.258 L 279.435 50.297 L 282.259 52.377 L 285.091 54.497 L 287.932 56.656 L 290.781 58.854 L 293.639 61.092 L 296.504 63.369 L 299.378 65.684 L 302.259 68.038 L 305.149 70.431 L 308.046 72.861 L 310.950 75.330 L 313.862 77.836 L 316.782 80.380 L 319.709 82.961 L 322.642 85.579 L 325.583 88.234 L 328.531 90.925 L 331.485 93.653 L 334.446 96.417 L 337.414 99.217 L 340.388 102.052 L 343.368 104.922 L 346.355 107.828 L 349.348 110.769 L 352.346 113.744 L 355.350 116.753 L 358.361 119.797 L 361.376 122.874 L 364.397 125.985 L 367.424 129.129 L 370.456 132.306 L 373.492 135.516 L 376.534 138.758 L 379.581 142.032 L 382.633 145.338 L 385.689 148.675 L 388.749 152.044 L 391.814 155.443 L 394.884 158.873 L 397.957 162.334 L 401.034 165.824 L 404.116 169.344 L 407.201 172.894 L 410.290 176.472 L 413.382 180.079 L 416.478 183.715 L 419.577 187.379 L 422.679 191.070 L 425.785 194.789 L 428.893 198.535 L 432.004 202.308 L 435.118 206.107 L 438.234 209.933 L 441.353 213.784 L 444.474 217.661 L 447.597 221.562 L 450.722 225.489 L 453.849 229.439 L 456.979 233.414 L 460.109 237.413 L 463.242 241.435 L 466.375 245.479 L 469.511 249.547 L 472.647 253.636 L 475.784 257.748 L 478.923 261.881 L 482.062 266.035 L 485.202 270.210 L 488.342 274.405 L 491.483 278.621 L 494.625 282.856 L 497.766 287.110 L 500.908 291.384 L 504.049 295.675 L 507.191 299.985 L 510.332 304.313 L 513.472 308.658 L 516.613 313.020 L 519.752 317.399 L 522.891 321.794 L 526.029 326.205 L 529.165 330.631 L 532.301 335.072 L 535.435 339.528 L 538.568 343.998 L 541.700 348.482 L 544.830 352.980 L 547.958 357.490 L 551.084 362.014 L 554.208 366.549 L 557.330 371.096 L 560.450 375.655 L 563.567 380.225 L 566.682 384.805 L 569.794 389.396 L 572.903 393.996 L 576.010 398.606 L 579.114 403.225 L 582.214 407.853 L 585.311 412.488 L 588.405 417.132 L 591.495 421.783 L 594.582 426.441 L 597.665 431.105 L 600.744 435.775 L 603.819 440.451 L 606.890 445.133 L 609.957 449.819 L 613.020 454.510 L 616.078 459.205 L 619.131 463.903 L 622.180 468.605 L 625.224 473.309 L 628.263 478.016 L 631.297 482.725 L 634.325 487.435 L 637.349 492.146 L 640.367 496.858 L 643.379 501.571 L 646.386 506.283 L 649.387 510.995 L 652.382 515.705 L 655.371 520.415 L 658.354 525.122 L 661.331 529.827 L 664.301 534.530 L 667.265 539.230 L 670.223 543.926 L 673.173 548.618 L 676.117 553.306 L 679.054 557.989 L 681.983 562.667 L 684.906 567.339 L 687.821 572.005 L 690.729 576.665 L 693.629 581.319 L 696.522 585.965 L 699.407 590.603 L 702.284 595.233 L 705.153 599.855 L 708.013 604.468 L 710.866 609.072 L 713.711 613.666 L 716.546 618.249 L 719.374 622.823 L 722.193 627.385 L 725.002 631.937 L 727.804 636.476 L 730.596 641.003 L 733.379 645.518 L 736.152 650.020 L 738.917 654.508 L 741.672 658.983 L 744.417 663.444 L 747.153 667.890 L 749.879 672.321 L 752.595 676.737 L 755.301 681.138 L 757.998 685.522 L 760.684 689.890 L 763.359 694.240 L 766.025 698.574 L 768.679 702.890 L 771.323 707.188 L 773.957 711.467 L 776.579 715.728 L 779.191 719.970 L 781.792 724.192 L 784.381 728.394 L 786.960 732.576 L 789.527 736.737 L 792.082 740.877 L 794.626 744.996 L 797.159 749.093 L 799.680 753.167 L 802.188 757.220 L 804.685 761.249 L 807.170 765.256 L 809.643 769.238 L 812.103 773.197 L 814.552 777.132 L 816.987 781.042 L 819.411 784.927 L 821.821 788.786 L 824.219 792.620 L 826.605 796.428 L 828.977 800.210 L 831.336 803.965 L 833.682 807.693 L 836.015 811.394 L 838.335 815.067 L 840.642 818.712 L 842.935 822.329 L 845.214 825.917 L 847.480 829.476 L 849.732 833.006 L 851.970 836.506 L 854.195 839.977 L 856.405 843.417 L 858.601 846.827 L 860.783 850.206 L 862.951 853.553 L 865.105 856.870 L 867.244 860.155 L 869.369 863.407 L 871.479 866.628 L 873.574 869.816 L 875.655 872.971 L 877.721 876.092 L 879.772 879.181 L 881.808 882.236 L 883.829 885.257 L 885.835 888.243 L 887.825 891.195 L 889.800 894.113 L 891.760 896.995 L 893.704 899.842 L 895.633 902.654 L 897.546 905.430 L 899.444 908.170 L 901.325 910.873 L 903.191 913.540 L 905.041 916.171 L 906.875 918.764 L 908.693 921.320 L 910.495 923.839 L 912.280 926.320 L 914.050 928.763 L 915.803 931.168 L 917.539 933.535 L 919.259 935.864 L 920.963 938.153 L 922.650 940.404 L 924.320 942.616 L 925.973 944.788 L 927.610 946.921 L 929.230 949.014 L 930.832 951.067 L 932.418 953.080 L 933.987 955.053 L 935.538 956.985 L 937.073 958.877 L 938.590 960.728 L 940.090 962.539 L 941.572 964.308 L 943.037 966.036 L 944.485 967.722 L 945.915 969.367 L 947.327 970.970 L 948.722 972.532 L 950.099 974.051 L 951.458 975.528 L 952.799 976.963 L 954.123 978.356 L 955.428 979.706 L 956.716 981.014 L 957.986 982.279 L 959.237 983.501 L 960.470 984.680 L 961.686 985.816 L 962.883 986.909 L 964.061 987.958 L 965.222 988.965 L 966.364 989.928 L 967.487 990.847 L 968.592 991.723 L 969.679 992.555 L 970.747 993.343 L 971.797 994.087 L 972.827 994.788 L 973.840 995.445 L 974.833 996.057 L 975.808 996.626 L 976.764 997.150 L 977.701 997.631 L 978.619 998.067 L 979.519 998.459 L 980.399 998.806 L 981.261 999.110 L 982.103 999.368 L 982.927 999.583 L 983.731 999.753 L 984.516 999.879 L 985.283 999.961 L 986.030 999.998 L 986.758 999.990 L 987.466 999.938 L 988.156 999.842 L 988.826 999.701 L 989.476 999.516 L 990.108 999.287 L 990.720 999.013 L 991.313 998.695 L 991.886 998.333 L 992.440 997.926 L 992.975 997.476 L 993.490 996.980 L 993.985 996.441 L 994.461 995.858 L 994.918 995.231 L 995.355 994.559 L 995.772 993.844 L 996.170 993.085 L 996.549 992.282 L 996.907 991.436 L 997.246 990.545 L 997.566 989.611 L 997.866 988.634 L 998.146 987.613 L 998.406 986.549 L 998.647 985.442 L 998.868 984.292 L 999.070 983.098 L 999.251 981.862 L 999.413 980.583 L 999.556 979.261 L 999.678 977.897 L 999.781 976.490 L 999.864 975.041 L 999.927 973.549 L 999.971 972.016 L 999.995 970.440 L 999.999 968.823 L 999.984 967.164 L 999.948 965.464 L 999.893 963.723 L 999.818 961.940 L 999.724 960.116 L 999.610 958.251 L 999.476 956.346 L 999.322 954.400 L 999.149 952.414 L 998.956 950.387 L 998.743 948.321 L 998.510 946.214 L 998.258 944.068 L 997.986 941.883 L 997.695 939.658 L 997.384 937.394 L 997.053 935.092 L 996.702 932.751 L 996.332 930.371 L 995.943 927.953 L 995.534 925.497 L 995.105 923.004 L 994.657 920.472 L 994.189 917.904 L 993.701 915.298 L 993.195 912.655 L 992.668 909.976 L 992.123 907.260 L 991.557 904.508 L 990.973 901.721 L 990.369 898.897 L 989.745 896.038 L 989.103 893.144 L 988.441 890.215 L 987.760 887.252 L 987.059 884.253 L 986.339 881.221 L 985.600 878.155 L 984.842 875.056 L 984.065 871.923 L 983.269 868.757 L 982.453 865.558 L 981.619 862.327 L 980.765 859.063 L 979.893 855.768 L 979.001 852.441 L 978.091 849.083 L 977.162 845.693 L 976.214 842.274 L 975.247 838.823 L 974.261 835.343 L 973.257 831.833 L 972.234 828.293 L 971.192 824.724 L 970.132 821.126 L 969.053 817.500 L 967.956 813.846 L 966.840 810.163 L 965.706 806.454 L 964.553 802.716 L 963.382 798.952 L 962.193 795.162 L 960.986 791.345 L 959.760 787.503 L 958.516 783.634 L 957.254 779.741 L 955.974 775.823 L 954.676 771.880 L 953.360 767.913 L 952.026 763.923 L 950.675 759.909 L 949.305 755.872 L 947.918 751.812 L 946.513 747.729 L 945.090 743.625 L 943.650 739.499 L 942.193 735.352 L 940.718 731.184 L 939.225 726.995 L 937.715 722.786 L 936.188 718.558 L 934.644 714.310 L 933.082 710.043 L 931.504 705.757 L 929.908 701.453 L 928.296 697.131 L 926.666 692.792 L 925.020 688.436 L 923.357 684.062 L 921.677 679.673 L 919.980 675.267 L 918.267 670.846 L 916.538 666.410 L 914.792 661.959 L 913.029 657.493 L 911.251 653.014 L 909.456 648.521 L 907.645 644.015 L 905.818 639.496 L 903.974 634.964 L 902.115 630.421 L 900.240 625.866 L 898.349 621.300 L 896.443 616.723 L 894.521 612.135 L 892.583 607.538 L 890.630 602.931 L 888.661 598.315 L 886.677 593.691 L 884.677 589.058 L 882.663 584.417 L 880.633 579.768 L 878.589 575.113 L 876.529 570.451 L 874.455 565.782 L 872.365 561.108 L 870.262 556.428 L 868.143 551.743 L 866.010 547.054 L 863.862 542.361 L 861.701 537.663 L 859.524 532.963 L 857.334 528.259 L 855.130 523.553 L 852.911 518.845 L 850.679 514.135 L 848.432 509.424 L 846.172 504.712 L 843.899 500.000 L 841.611 495.288 L 839.311 490.576 L 836.996 485.865 L 834.669 481.155 L 832.328 476.447 L 829.975 471.741 L 827.608 467.037 L 825.228 462.337 L 822.835 457.639 L 820.430 452.946 L 818.012 448.257 L 815.582 443.572 L 813.139 438.892 L 810.683 434.218 L 808.216 429.549 L 805.736 424.887 L 803.244 420.232 L 800.740 415.583 L 798.224 410.942 L 795.697 406.309 L 793.158 401.685 L 790.607 397.069 L 788.045 392.462 L 785.471 387.865 L 782.887 383.277 L 780.291 378.700 L 777.684 374.134 L 775.065 369.579 L 772.437 365.036 L 769.797 360.504 L 767.147 355.985 L 764.486 351.479 L 761.815 346.986 L 759.133 342.507 L 756.441 338.041 L 753.739 333.590 L 751.027 329.154 L 748.305 324.733 L 745.573 320.327 L 742.832 315.938 L 740.081 311.564 L 737.321 307.208 L 734.551 302.869 L 731.772 298.547 L 728.983 294.243 L 726.186 289.957 L 723.380 285.690 L 720.565 281.442 L 717.741 277.214 L 714.909 273.005 L 712.068 268.816 L 709.219 264.648 L 706.361 260.501 L 703.496 256.375 L 700.622 252.271 L 697.741 248.188 L 694.851 244.128 L 691.954 240.091 L 689.050 236.077 L 686.138 232.087 L 683.218 228.120 L 680.291 224.177 L 677.358 220.259 L 674.417 216.366 L 671.469 212.497 L 668.515 208.655 L 665.554 204.838 L 662.586 201.048 L 659.612 197.284 L 656.632 193.546 L 653.645 189.837 L 650.652 186.154 L 647.654 182.500 L 644.650 178.874 L 641.639 175.276 L 638.624 171.707 L 635.603 168.167 L 632.576 164.657 L 629.544 161.177 L 626.508 157.726 L 623.466 154.307 L 620.419 150.917 L 617.367 147.559 L 614.311 144.232 L 611.251 140.937 L 608.186 137.673 L 605.116 134.442 L 602.043 131.243 L 598.966 128.077 L 595.884 124.944 L 592.799 121.845 L 589.710 118.779 L 586.618 115.747 L 583.522 112.748 L 580.423 109.785 L 577.321 106.856 L 574.215 103.962 L 571.107 101.103 L 567.996 98.279 L 564.882 95.492 L 561.766 92.740 L 558.647 90.024 L 555.526 87.345 L 552.403 84.702 L 549.278 82.096 L 546.151 79.528 L 543.021 76.996 L 539.891 74.503 L 536.758 72.047 L 533.625 69.629 L 530.489 67.249 L 527.353 64.908 L 524.216 62.606 L 521.077 60.342 L 517.938 58.117 L 514.798 55.932 L 511.658 53.786 L 508.517 51.679 L 505.375 49.613 L 502.234 47.586 L 499.092 45.600 L 495.951 43.654 L 492.809 41.749 L 489.668 39.884 L 486.528 38.060 L 483.387 36.277 L 480.248 34.536 L 477.109 32.836 L 473.971 31.177 L 470.835 29.560 L 467.699 27.984 L 464.565 26.451 L 461.432 24.959 L 458.300 23.510 L 455.170 22.103 L 452.042 20.739 L 448.916 19.417 L 445.792 18.138 L 442.670 16.902 L 439.550 15.708 L 436.433 14.558 L 433.318 13.451 L 430.206 12.387 L 427.097 11.366 L 423.990 10.389 L 420.886 9.455 L 417.786 8.564 L 414.689 7.718 L 411.595 6.915 L 408.505 6.156 L 405.418 5.441 L 402.335 4.769 L 399.256 4.142 L 396.181 3.559 L 393.110 3.020 L 390.043 2.524 L 386.980 2.074 L 383.922 1.667 L 380.869 1.305 L 377.820 0.987 L 374.776 0.713 L 371.737 0.484 L 368.703 0.299 L 365.675 0.158 L 362.651 0.062 L 359.633 0.010 L 356.621 0.002 L 353.614 0.039 L 350.613 0.121 L 347.618 0.247 L 344.629 0.417 L 341.646 0.632 L 338.669 0.890 L 335.699 1.194 L 332.735 1.541 L 329.777 1.933 L 326.827 2.369 L 323.883 2.850 L 320.946 3.374 L 318.017 3.943 L 315.094 4.555 L 312.179 5.212 L 309.271 5.913 L 306.371 6.657 L 303.478 7.445 L 300.593 8.277 L 297.716 9.153 L 294.847 10.072 L 291.987 11.035 L 289.134 12.042 L 286.289 13.091 L 283.454 14.184 L 280.626 15.320 L 277.807 16.499 L 274.998 17.721 L 272.196 18.986 L 269.404 20.294 L 266.621 21.644 L 263.848 23.037 L 261.083 24.472 L 258.328 25.949 L 255.583 27.468 L 252.847 29.030 L 250.121 30.633 L 247.405 32.278 L 244.699 33.964 L 242.002 35.692 L 239.316 37.461 L 236.641 39.272 L 233.975 41.123 L 231.321 43.015 L 228.677 44.947 L 226.043 46.920 L 223.421 48.933 L 220.809 50.986 L 218.208 53.079 L 215.619 55.212 L 213.040 57.384 L 210.473 59.596 L 207.918 61.847 L 205.374 64.136 L 202.841 66.465 L 200.320 68.832 L 197.812 71.237 L 195.315 73.680 L 192.830 76.161 L 190.357 78.680 L 187.897 81.236 L 185.448 83.829 L 183.013 86.460 L 180.589 89.127 L 178.179 91.830 L 175.781 94.570 L 173.395 97.346 L 171.023 100.158 L 168.664 103.005 L 166.318 105.887 L 163.985 108.805 L 161.665 111.757 L 159.358 114.743 L 157.065 117.764 L 154.786 120.819 L 152.520 123.908 L 150.268 127.029 L 148.030 130.184 L 145.805 133.372 L 143.595 136.593 L 141.399 139.845 L 139.217 143.130 L 137.049 146.447 L 134.895 149.794 L 132.756 153.173 L 130.631 156.583 L 128.521 160.023 L 126.426 163.494 L 124.345 166.994 L 122.279 170.524 L 120.228 174.083 L 118.192 177.671 L 116.171 181.288 L 114.165 184.933 L 112.175 188.606 L 110.200 192.307 L 108.240 196.035 L 106.296 199.790 L 104.367 203.572 L 102.454 207.380 L 100.556 211.214 L 98.675 215.073 L 96.809 218.958 L 94.959 222.868 L 93.125 226.803 L 91.307 230.762 L 89.505 234.744 L 87.720 238.751 L 85.950 242.780 L 84.197 246.833 L 82.461 250.907 L 80.741 255.004 L 79.037 259.123 L 77.350 263.263 L 75.680 267.424 L 74.027 271.606 L 72.390 275.808 L 70.770 280.030 L 69.168 284.272 L 67.582 288.533 L 66.013 292.812 L 64.462 297.110 L 62.927 301.426 L 61.410 305.760 L 59.910 310.110 L 58.428 314.478 L 56.963 318.862 L 55.515 323.263 L 54.085 327.679 L 52.673 332.110 L 51.278 336.556 L 49.901 341.017 L 48.542 345.492 L 47.201 349.980 L 45.877 354.482 L 44.572 358.997 L 43.284 363.524 L 42.014 368.063 L 40.763 372.615 L 39.530 377.177 L 38.314 381.751 L 37.117 386.334 L 35.939 390.928 L 34.778 395.532 L 33.636 400.145 L 32.513 404.767 L 31.408 409.397 L 30.321 414.035 L 29.253 418.681 L 28.203 423.335 L 27.173 427.995 L 26.160 432.661 L 25.167 437.333 L 24.192 442.011 L 23.236 446.694 L 22.299 451.382 L 21.381 456.074 L 20.481 460.770 L 19.601 465.470 L 18.739 470.173 L 17.897 474.878 L 17.073 479.585 L 16.269 484.295 L 15.484 489.005 L 14.717 493.717 L 13.970 498.429 L 13.242 503.142 L 12.534 507.854 L 11.844 512.565 L 11.174 517.275 L 10.524 521.984 L 9.892 526.691 L 9.280 531.395 L 8.687 536.097 L 8.114 540.795 L 7.560 545.490 L 7.025 550.181 L 6.510 554.867 L 6.015 559.549 L 5.539 564.225 L 5.082 568.895 L 4.645 573.559 L 4.228 578.217 L 3.830 582.868 L 3.451 587.512 L 3.093 592.147 L 2.754 596.775 L 2.434 601.394 L 2.134 606.004 L 1.854 610.604 L 1.594 615.195 L 1.353 619.775 L 1.132 624.345 L 0.930 628.904 L 0.749 633.451 L 0.587 637.986 L 0.444 642.510 L 0.322 647.020 L 0.219 651.518 L 0.136 656.002 L 0.073 660.472 L 0.029 664.928 L 0.005 669.369 L 0.001 673.795 L 0.016 678.206 L 0.052 682.601 L 0.107 686.980 L 0.182 691.342 L 0.276 695.687 L 0.390 700.015 L 0.524 704.325 L 0.678 708.616 L 0.851 712.890 L 1.044 717.144 L 1.257 721.379 L 1.490 725.595 L 1.742 729.790 L 2.014 733.965 L 2.305 738.119 L 2.616 742.252 L 2.947 746.364 L 3.298 750.453 L 3.668 754.521 L 4.057 758.565 L 4.466 762.587 L 4.895 766.586 L 5.343 770.561 L 5.811 774.511 L 6.299 778.438 L 6.805 782.339 L 7.332 786.216 L 7.877 790.067 L 8.443 793.893 L 9.027 797.692 L 9.631 801.465 L 10.255 805.211 L 10.897 808.930 L 11.559 812.621 L 12.240 816.285 L 12.941 819.921 L 13.661 823.528 L 14.400 827.106 L 15.158 830.656 L 15.935 834.176 L 16.731 837.666 L 17.547 841.127 L 18.381 844.557 L 19.235 847.956 L 20.107 851.325 L 20.999 854.662 L 21.909 857.968 L 22.838 861.242 L 23.786 864.484 L 24.753 867.694 L 25.739 870.871 L 26.743 874.015 L 27.766 877.126 L 28.808 880.203 L 29.868 883.247 L 30.947 886.256 L 32.044 889.231 L 33.160 892.172 L 34.294 895.078 L 35.447 897.948 L 36.618 900.783 L 37.807 903.583 L 39.014 906.347 L 40.240 909.075 L 41.484 911.766 L 42.746 914.421 L 44.026 917.039 L 45.324 919.620 L 46.640 922.164 L 47.974 924.670 L 49.325 927.139 L 50.695 929.569 L 52.082 931.962 L 53.487 934.316 L 54.910 936.631 L 56.350 938.908 L 57.807 941.146 L 59.282 943.344 L 60.775 945.503 L 62.285 947.623 L 63.812 949.703 L 65.356 951.742 L 66.918 953.742 L 68.496 955.702 L 70.092 957.621 L 71.704 959.499 L 73.334 961.336 L 74.980 963.133 L 76.643 964.888 L 78.323 966.602 L 80.020 968.275 L 81.733 969.906 L 83.462 971.495 L 85.208 973.043 L 86.971 974.548 L 88.749 976.011 L 90.544 977.432 L 92.355 978.811 L 94.182 980.147 L 96.026 981.440 L 97.885 982.691 L 99.760 983.899 L 101.651 985.063 L 103.557 986.185 L 105.479 987.263 L 107.417 988.299 L 109.370 989.290 L 111.339 990.239 L 113.323 991.144 L 115.323 992.005 L 117.337 992.822 L 119.367 993.596 L 121.411 994.326 L 123.471 995.012 L 125.545 995.654 L 127.635 996.252 L 129.738 996.806 L 131.857 997.315 L 133.990 997.781 L 136.138 998.202 L 138.299 998.579 L 140.476 998.912 L 142.666 999.201 L 144.870 999.445 L 147.089 999.645 L 149.321 999.800 L 151.568 999.911 L 153.828 999.978 L 156.101 1000.000 L 158.389 999.978 L 160.689 999.911 L 163.004 999.800 L 165.331 999.645 L 167.672 999.445 L 170.025 999.201 L 172.392 998.912 L 174.772 998.579 L 177.165 998.202 L 179.570 997.781 L 181.988 997.315 L 184.418 996.806 L 186.861 996.252 L 189.317 995.654 L 191.784 995.012 L 194.264 994.326 L 196.756 993.596 L 199.260 992.822 L 201.776 992.005 L 204.303 991.144 L 206.842 990.239 L 209.393 989.290 L 211.955 988.299 L 214.529 987.263 L 217.113 986.185 L 219.709 985.063 L 222.316 983.899 L 224.935 982.691 L 227.563 981.440 L 230.203 980.147 L 232.853 978.811 L 235.514 977.432 L 238.185 976.011 L 240.867 974.548 L 243.559 973.043 L 246.261 971.495 L 248.973 969.906 L 251.695 968.275 L 254.427 966.602 L 257.168 964.888 L 259.919 963.133 L 262.679 961.336 L 265.449 959.499 L 268.228 957.621 L 271.017 955.702 L 273.814 953.742 L 276.620 951.742 L 279.435 949.703 L 282.259 947.623 L 285.091 945.503 L 287.932 943.344 L 290.781 941.146 L 293.639 938.908 L 296.504 936.631 L 299.378 934.316 L 302.259 931.962 L 305.149 929.569 L 308.046 927.139 L 310.950 924.670 L 313.862 922.164 L 316.782 919.620 L 319.709 917.039 L 322.642 914.421 L 325.583 911.766 L 328.531 909.075 L 331.485 906.347 L 334.446 903.583 L 337.414 900.783 L 340.388 897.948 L 343.368 895.078 L 346.355 892.172 L 349.348 889.231 L 352.346 886.256 L 355.350 883.247 L 358.361 880.203 L 361.376 877.126 L 364.397 874.015 L 367.424 870.871 L 370.456 867.694 L 373.492 864.484 L 376.534 861.242 L 379.581 857.968 L 382.633 854.662 L 385.689 851.325 L 388.749 847.956 L 391.814 844.557 L 394.884 841.127 L 397.957 837.666 L 401.034 834.176 L 404.116 830.656 L 407.201 827.106 L 410.290 823.528 L 413.382 819.921 L 416.478 816.285 L 419.577 812.621 L 422.679 808.930 L 425.785 805.211 L 428.893 801.465 L 432.004 797.692 L 435.118 793.893 L 438.234 790.067 L 441.353 786.216 L 444.474 782.339 L 447.597 778.438 L 450.722 774.511 L 453.849 770.561 L 456.979 766.586 L 460.109 762.587 L 463.242 758.565 L 466.375 754.521 L 469.511 750.453 L 472.647 746.364 L 475.784 742.252 L 478.923 738.119 L 482.062 733.965 L 485.202 729.790 L 488.342 725.595 L 491.483 721.379 L 494.625 717.144 L 497.766 712.890 L 500.908 708.616 L 504.049 704.325 L 507.191 700.015 L 510.332 695.687 L 513.472 691.342 L 516.613 686.980 L 519.752 682.601 L 522.891 678.206 L 526.029 673.795 L 529.165 669.369 L 532.301 664.928 L 535.435 660.472 L 538.568 656.002 L 541.700 651.518 L 544.830 647.020 L 547.958 642.510 L 551.084 637.986 L 554.208 633.451 L 557.330 628.904 L 560.450 624.345 L 563.567 619.775 L 566.682 615.195 L 569.794 610.604 L 572.903 606.004 L 576.010 601.394 L 579.114 596.775 L 582.214 592.147 L 585.311 587.512 L 588.405 582.868 L 591.495 578.217 L 594.582 573.559 L 597.665 568.895 L 600.744 564.225 L 603.819 559.549 L 606.890 554.867 L 609.957 550.181 L 613.020 545.490 L 616.078 540.795 L 619.131 536.097 L 622.180 531.395 L 625.224 526.691 L 628.263 521.984 L 631.297 517.275 L 634.325 512.565 L 637.349 507.854 L 640.367 503.142 L 643.379 498.429 L 646.386 493.717 L 649.387 489.005 L 652.382 484.295 L 655.371 479.585 L 658.354 474.878 L 661.331 470.173 L 664.301 465.470 L 667.265 460.770 L 670.223 456.074 L 673.173 451.382 L 676.117 446.694 L 679.054 442.011 L 681.983 437.333 L 684.906 432.661 L 687.821 427.995 L 690.729 423.335 L 693.629 418.681 L 696.522 414.035 L 699.407 409.397 L 702.284 404.767 L 705.153 400.145 L 708.013 395.532 L 710.866 390.928 L 713.711 386.334 L 716.546 381.751 L 719.374 377.177 L 722.193 372.615 L 725.002 368.063 L 727.804 363.524 L 730.596 358.997 L 733.379 354.482 L 736.152 349.980 L 738.917 345.492 L 741.672 341.017 L 744.417 336.556 L 747.153 332.110 L 749.879 327.679 L 752.595 323.263 L 755.301 318.862 L 757.998 314.478 L 760.684 310.110 L 763.359 305.760 L 766.025 301.426 L 768.679 297.110 L 771.323 292.812 L 773.957 288.533 L 776.579 284.272 L 779.191 280.030 L 781.792 275.808 L 784.381 271.606 L 786.960 267.424 L 789.527 263.263 L 792.082 259.123 L 794.626 255.004 L 797.159 250.907 L 799.680 246.833 L 802.188 242.780 L 804.685 238.751 L 807.170 234.744 L 809.643 230.762 L 812.103 226.803 L 814.552 222.868 L 816.987 218.958 L 819.411 215.073 L 821.821 211.214 L 824.219 207.380 L 826.605 203.572 L 828.977 199.790 L 831.336 196.035 L 833.682 192.307 L 836.015 188.606 L 838.335 184.933 L 840.642 181.288 L 842.935 177.671 L 845.214 174.083 L 847.480 170.524 L 849.732 166.994 L 851.970 163.494 L 854.195 160.023 L 856.405 156.583 L 858.601 153.173 L 860.783 149.794 L 862.951 146.447 L 865.105 143.130 L 867.244 139.845 L 869.369 136.593 L 871.479 133.372 L 873.574 130.184 L 875.655 127.029 L 877.721 123.908 L 879.772 120.819 L 881.808 117.764 L 883.829 114.743 L 885.835 111.757 L 887.825 108.805 L 889.800 105.887 L 891.760 103.005 L 893.704 100.158 L 895.633 97.346 L 897.546 94.570 L 899.444 91.830 L 901.325 89.127 L 903.191 86.460 L 905.041 83.829 L 906.875 81.236 L 908.693 78.680 L 910.495 76.161 L 912.280 73.680 L 914.050 71.237 L 915.803 68.832 L 917.539 66.465 L 919.259 64.136 L 920.963 61.847 L 922.650 59.596 L 924.320 57.384 L 925.973 55.212 L 927.610 53.079 L 929.230 50.986 L 930.832 48.933 L 932.418 46.920 L 933.987 44.947 L 935.538 43.015 L 937.073 41.123 L 938.590 39.272 L 940.090 37.461 L 941.572 35.692 L 943.037 33.964 L 944.485 32.278 L 945.915 30.633 L 947.327 29.030 L 948.722 27.468 L 950.099 25.949 L 951.458 24.472 L 952.799 23.037 L 954.123 21.644 L 955.428 20.294 L 956.716 18.986 L 957.986 17.721 L 959.237 16.499 L 960.470 15.320 L 961.686 14.184 L 962.883 13.091 L 964.061 12.042 L 965.222 11.035 L 966.364 10.072 L 967.487 9.153 L 968.592 8.277 L 969.679 7.445 L 970.747 6.657 L 971.797 5.913 L 972.827 5.212 L 973.840 4.555 L 974.833 3.943 L 975.808 3.374 L 976.764 2.850 L 977.701 2.369 L 978.619 1.933 L 979.519 1.541 L 980.399 1.194 L 981.261 0.890 L 982.103 0.632 L 982.927 0.417 L 983.731 0.247 L 984.516 0.121 L 985.283 0.039 L 986.030 0.002 L 986.758 0.010 L 987.466 0.062 L 988.156 0.158 L 988.826 0.299 L 989.476 0.484 L 990.108 0.713 L 990.720 0.987 L 991.313 1.305 L 991.886 1.667 L 992.440 2.074 L 992.975 2.524 L 993.490 3.020 L 993.985 3.559 L 994.461 4.142 L 994.918 4.769 L 995.355 5.441 L 995.772 6.156 L 996.170 6.915 L 996.549 7.718 L 996.907 8.564 L 997.246 9.455 L 997.566 10.389 L 997.866 11.366 L 998.146 12.387 L 998.406 13.451 L 998.647 14.558 L 998.868 15.708 L 999.070 16.902 L 999.251 18.138 L 999.413 19.417 L 999.556 20.739 L 999.678 22.103 L 999.781 23.510 L 999.864 24.959 L 999.927 26.451 L 999.971 27.984 L 999.995 29.560 L 999.999 31.177 L 999.984 32.836 L 999.948 34.536 L 999.893 36.277 L 999.818 38.060 L 999.724 39.884 L 999.610 41.749 L 999.476 43.654 L 999.322 45.600 L 999.149 47.586 L 998.956 49.613 L 998.743 51.679 L 998.510 53.786 L 998.258 55.932 L 997.986 58.117 L 997.695 60.342 L 997.384 62.606 L 997.053 64.908 L 996.702 67.249 L 996.332 69.629 L 995.943 72.047 L 995.534 74.503 L 995.105 76.996 L 994.657 79.528 L 994.189 82.096 L 993.701 84.702 L 993.195 87.345 L 992.668 90.024 L 992.123 92.740 L 991.557 95.492 L 990.973 98.279 L 990.369 101.103 L 989.745 103.962 L 989.103 106.856 L 988.441 109.785 L 987.760 112.748 L 987.059 115.747 L 986.339 118.779 L 985.600 121.845 L 984.842 124.944 L 984.065 128.077 L 983.269 131.243 L 982.453 134.442 L 981.619 137.673 L 980.765 140.937 L 979.893 144.232 L 979.001 147.559 L 978.091 150.917 L 977.162 154.307 L 976.214 157.726 L 975.247 161.177 L 974.261 164.657 L 973.257 168.167 L 972.234 171.707 L 971.192 175.276 L 970.132 178.874 L 969.053 182.500 L 967.956 186.154 L 966.840 189.837 L 965.706 193.546 L 964.553 197.284 L 963.382 201.048 L 962.193 204.838 L 960.986 208.655 L 959.760 212.497 L 958.516 216.366 L 957.254 220.259 L 955.974 224.177 L 954.676 228.120 L 953.360 232.087 L 952.026 236.077 L 950.675 240.091 L 949.305 244.128 L 947.918 248.188 L 946.513 252.271 L 945.090 256.375 L 943.650 260.501 L 942.193 264.648 L 940.718 268.816 L 939.225 273.005 L 937.715 277.214 L 936.188 281.442 L 934.644 285.690 L 933.082 289.957 L 931.504 294.243 L 929.908 298.547 L 928.296 302.869 L 926.666 307.208 L 925.020 311.564 L 923.357 315.938 L 921.677 320.327 L 919.980 324.733 L 918.267 329.154 L 916.538 333.590 L 914.792 338.041 L 913.029 342.507 L 911.251 346.986 L 909.456 351.479 L 907.645 355.985 L 905.818 360.504 L 903.974 365.036 L 902.115 369.579 L 900.240 374.134 L 898.349 378.700 L 896.443 383.277 L 894.521 387.865 L 892.583 392.462 L 890.630 397.069 L 888.661 401.685 L 886.677 406.309 L 884.677 410.942 L 882.663 415.583 L 880.633 420.232 L 878.589 424.887 L 876.529 429.549 L 874.455 434.218 L 872.365 438.892 L 870.262 443.572 L 868.143 448.257 L 866.010 452.946 L 863.862 457.639 L 861.701 462.337 L 859.524 467.037 L 857.334 471.741 L 855.130 476.447 L 852.911 481.155 L 850.679 485.865 L 848.432 490.576 L 846.172 495.288 L 843.899 500.000" fill="none" stroke="black" stroke-width="12.0" stroke-linecap="round" stroke-linejoin="round" vector-effect="non-scaling-stroke"/>
</svg>