<svg xmlns="http://www.w3.org/2000/svg" viewBox="-6.000 -6.000 1012.000 1012.000" preserveAspectRatio="xMidYMid meet">
    <path d="M 654.508 500.000 L 651.518 504.712 L 648.521 509.424 L 645.518 514.135 L 642.510 518.845 L 639.496 523.553 L 636.476 528.259 L 633.451 532.963 L 630.421 537.663 L 627.385 542.361 L 624.345 547.054 L 621.300 551.743 L 618.249 556.428 L 615.195 561.108 L 612.135 565.782 L 609.072 570.451 L 606.004 575.113 L 602.931 579.768 L 599.855 584.417 L 596.775 589.058 L 593.691 593.691 L 590.603 598.315 L 587.512 602.931 L 584.417 607.538 L 581.319 612.135 L 578.217 616.723 L 575.113 621.300 L 572.005 625.866 L 568.895 630.421 L 565.782 634.964 L 562.667 639.496 L 559.549 644.015 L 556.428 648.521 L 553.306 653.014 L 550.181 657.493 L 547.054 661.959 L 543.926 666.410 L 540.795 670.846 L 537.663 675.267 L 534.530 679.673 L 531.395 684.062 L 528.259 688.436 L 525.122 692.792 L 521.984 697.131 L 518.845 701.453 L 515.705 705.757 L 512.565 710.043 L 509.424 714.310 L 506.283 718.558 L 503.142 722.786 L 500.000 726.995 L 496.858 731.184 L 493.717 735.352 L 490.576 739.499 L 487.435 743.625 L 484.295 747.729 L 481.155 751.812 L 478.016 755.872 L 474.878 759.909 L 471.741 763.923 L 468.605 767.913 L 465.470 771.880 L 462.337 775.823 L 459.205 779.741 L 456.074 783.634 L 452.946 787.503 L 449.819 791.345 L 446.694 795.162 L 443.572 798.952 L 440.451 802.716 L 437.333 806.454 L 434.218 810.163 L 431.105 813.846 L 427.995 817.500 L 424.887 821.126 L 421.783 824.724 L 418.681 828.293 L 415.583 831.833 L 412.488 835.343 L 409.397 838.823 L 406.309 842.274 L 403.225 845.693 L 400.145 849.083 L 397.069 852.441 L 393.996 855.768 L 390.928 859.063 L 387.865 862.327 L 384.805 865.558 L 381.751 868.757 L 378.700 871.923 L 375.655 875.056 L 372.615 878.155 L 369.579 881.221 L 366.549 884.253 L 363.524 887.252 L 360.504 890.215 L 357.490 893.144 L 354.482 896.038 L 351.479 898.897 L 348.482 901.721 L 345.492 904.508 L 342.507 907.260 L 339.528 909.976 L 336.556 912.655 L 333.590 915.298 L 330.631 917.904 L 327.679 920.472 L 324.733 923.004 L 321.794 925.497 L 318.862 927.953 L 315.938 930.371 L 313.020 932.751 L 310.110 935.092 L 307.208 937.394 L 304.313 939.658 L 301.426 941.883 L 298.547 944.068 L 295.675 946.214 L 292.812 948.321 L 289.957 950.387 L 287.110 952.414 L 284.272 954.400 L 281.442 956.346 L 278.621 958.251 L 275.808 960.116 L 273.005 961.940 L 270.210 963.723 L 267.424 965.464 L 264.648 967.164 L 261.881 968.823 L 259.123 970.440 L 256.375 972.016 L 253.636 973.549 L 250.907 975.041 L 248.188 976.490 L 245.479 977.897 L 242.780 979.261 L 240.091 980.583 L 237.413 981.862 L 234.744 983.098 L 232.087 984.292 L 229.439 985.442 L 226.803 986.549 L 224.177 987.613 L 221.562 988.634 L 218.958 989.611 L 216.366 990.545 L 213.784 991.436 L 211.214 992.282 L 208.655 993.085 L 206.107 993.844 L 203.572 994.559 L 201.048 995.231 L 198.535 995.858 L 196.035 996.441 L 193.546 996.980 L 191.070 997.476 L 188.606 997.926 L 186.154 998.333 L 183.715 998.695 L 181.288 999.013 L 178.874 999.287 L 176.472 999.516 L 174.083 999.701 L 171.707 999.842 L 169.344 999.938 L 166.994 999.990 L 164.657 999.998 L 162.334 999.961 L 160.023 999.879 L 157.726 999.753 L 155.443 999.583 L 153.173 999.368 L 150.917 999.110 L 148.675 998.806 L 146.447 998.459 L 144.232 998.067 L 142.032 997.631 L 139.845 997.150 L 137.673 996.626 L 135.516 996.057 L 133.372 995.445 L 131.243 994.788 L 129.129 994.087 L 127.029 993.343 L 124.944 992.555 L 122.874 991.723 L 120.819 990.847 L 118.779 989.928 L 116.753 988.965 L 114.743 987.958 L 112.748 986.909 L 110.769 985.816 L 108.805 984.680 L 106.856 983.501 L 104.922 982.279 L 103.005 981.014 L 101.103 979.706 L 99.217 978.356 L 97.346 976.963 L 95.492 975.528 L 93.653 974.051 L 91.830 972.532 L 90.024 970.970 L 88.234 969.367 L 86.460 967.722 L 84.702 966.036 L 82.961 964.308 L 81.236 962.539 L 79.528 960.728 L 77.836 958.877 L 76.161 956.985 L 74.503 955.053 L 72.861 953.080 L 71.237 951.067 L 69.629 949.014 L 68.038 946.921 L 66.465 944.788 L 64.908 942.616 L 63.369 940.404 L 61.847 938.153 L 60.342 935.864 L 58.854 933.535 L 57.384 931.168 L 55.932 928.763 L 54.497 926.320 L 53.079 923.839 L 51.679 921.320 L 50.297 918.764 L 48.933 916.171 L 47.586 913.540 L 46.258 910.873 L 44.947 908.170 L 43.654 905.430 L 42.379 902.654 L 41.123 899.842 L 39.884 896.995 L 38.664 894.113 L 37.461 891.195 L 36.277 888.243 L 35.112 885.257 L 33.964 882.236 L 32.836 879.181 L 31.725 876.092 L 30.633 872.971 L 29.560 869.816 L 28.505 866.628 L 27.468 863.407 L 26.451 860.155 L 25.452 856.870 L 24.472 853.553 L 23.510 850.206 L 22.568 846.827 L 21.644 843.417 L 20.739 839.977 L 19.853 836.506 L 18.986 833.006 L 18.138 829.476 L 17.309 825.917 L 16.499 822.329 L 15.708 818.712 L 14.937 815.067 L 14.184 811.394 L 13.451 807.693 L 12.737 803.965 L 12.042 800.210 L 11.366 796.428 L 10.710 792.620 L 10.072 788.786 L 9.455 784.927 L 8.856 781.042 L 8.277 777.132 L 7.718 773.197 L 7.178 769.238 L 6.657 765.256 L 6.156 761.249 L 5.674 757.220 L 5.212 753.167 L 4.769 749.093 L 4.346 744.996 L 3.943 740.877 L 3.559 736.737 L 3.194 732.576 L 2.850 728.394 L 2.524 724.192 L 2.219 719.970 L 1.933 715.728 L 1.667 711.467 L 1.421 707.188 L 1.194 702.890 L 0.987 698.574 L 0.799 694.240 L 0.632 689.890 L 0.484 685.522 L 0.355 681.138 L 0.247 676.737 L 0.158 672.321 L 0.089 667.890 L 0.039 663.444 L 0.010 658.983 L 0.000 654.508 L 0.010 650.020 L 0.039 645.518 L 0.089 641.003 L 0.158 636.476 L 0.247 631.937 L 0.355 627.385 L 0.484 622.823 L 0.632 618.249 L 0.799 613.666 L 0.987 609.072 L 1.194 604.468 L 1.421 599.855 L 1.667 595.233 L 1.933 590.603 L 2.219 585.965 L 2.524 581.319 L 2.850 576.665 L 3.194 572.005 L 3.559 567.339 L 3.943 562.667 L 4.346 557.989 L 4.769 553.306 L 5.212 548.618 L 5.674 543.926 L 6.156 539.230 L 6.657 534.530 L 7.178 529.827 L 7.718 525.122 L 8.277 520.415 L 8.856 515.705 L 9.455 510.995 L 10.072 506.283 L 10.710 501.571 L 11.366 496.858 L 12.042 492.146 L 12.737 487.435 L 13.451 482.725 L 14.184 478.016 L 14.937 473.309 L 15.708 468.605 L 16.499 463.903 L 17.309 459.205 L 18.138 454.510 L 18.986 449.819 L 19.853 445.133 L 20.739 440.451 L 21.644 435.775 L 22.568 431.105 L 23.510 426.441 L 24.472 421.783 L 25.452 417.132 L 26.451 412.488 L 27.468 407.853 L 28.505 403.225 L 29.560 398.606 L 30.633 393.996 L 31.725 389.396 L 32.836 384.805 L 33.964 380.225 L 35.112 375.655 L 36.277 371.096 L 37.461 366.549 L 38.664 362.014 L 39.884 357.490 L 41.123 352.980 L 42.379 348.482 L 43.654 343.998 L 44.947 339.528 L 46.258 335.072 L 47.586 330.631 L 48.933 326.205 L 50.297 321.794 L 51.679 317.399 L 53.079 313.020 L 54.497 308.658 L 55.932 304.313 L 57.384 299.985 L 58.854 295.675 L 60.342 291.384 L 61.847 287.110 L 63.369 282.856 L 64.908 278.621 L 66.465 274.405 L 68.038 270.210 L 69.629 266.035 L 71.237 261.881 L 72.861 257.748 L 74.503 253.636 L 76.161 249.547 L 77.836 245.479 L 79.528 241.435 L 81.236 237.413 L 82.961 233.414 L 84.702 229.439 L 86.460 225.489 L 88.234 221.562 L 90.024 217.661 L 91.830 213.784 L 93.653 209.933 L 95.492 206.107 L 97.346 202.308 L 99.217 198.535 L 101.103 194.789 L 103.005 191.070 L 104.922 187.379 L 106.856 183.715 L 108.805 180.079 L 110.769 176.472 L 112.748 172.894 L 114.743 169.344 L 116.753 165.824 L 118.779 162.334 L 120.819 158.873 L 122.874 155.443 L 124.944 152.044 L 127.029 148.675 L 129.129 145.338 L 131.243 142.032 L 133.372 138.758 L 135.516 135.516 L 137.673 132.306 L 139.845 129.129 L 142.032 125.985 L 144.232 122.874 L 146.447 119.797 L 148.675 116.753 L 150.917 113.744 L 153.173 110.769 L 155.443 107.828 L 157.726 104.922 L 160.023 102.052 L 162.334 99.217 L 164.657 96.417 L 166.994 93.653 L 169.344 90.925 L 171.707 88.234 L 174.083 85.579 L 176.472 82.961 L 178.874 80.380 L 181.288 77.836 L 183.715 75.330 L 186.154 72.861 L 188.606 70.431 L 191.070 68.038 L 193.546 65.684 L 196.035 63.369 L 198.535 61.092 L 201.048 58.854 L 203.572 56.656 L 206.107 54.497 L 208.655 52.377 L 211.214 50.297 L 213.784 48.258 L 216.366 46.258 L 218.958 44.298 L 221.562 42.379 L 224.177 40.501 L 226.803 38.664 L 229.439 36.867 L 232.087 35.112 L 234.744 33.398 L 237.413 31.725 L 240.091 30.094 L 242.780 28.505 L 245.479 26.957 L 248.188 25.452 L 250.907 23.989 L 253.636 22.568 L 256.375 21.189 L 259.123 19.853 L 261.881 18.560 L 264.648 17.309 L 267.424 16.101 L 270.210 14.937 L 273.005 13.815 L 275.808 12.737 L 278.621 11.701 L 281.442 10.710 L 284.272 9.761 L 287.110 8.856 L 289.957 7.995 L 292.812 7.178 L 295.675 6.404 L 298.547 5.674 L 301.426 4.988 L 304.313 4.346 L 307.208 3.748 L 310.110 3.194 L 313.020 2.685 L 315.938 2.219 L 318.862 1.798 L 321.794 1.421 L 324.733 1.088 L 327.679 0.799 L 330.631 0.555 L 333.590 0.355 L 336.556 0.200 L 339.528 0.089 L 342.507 0.022 L 345.492 0.000 L 348.482 0.022 L 351.479 0.089 L 354.482 0.200 L 357.490 0.355 L 360.504 0.555 L 363.524 0.799 L 366.549 1.088 L 369.579 1.421 L 372.615 1.798 L 375.655 2.219 L 378.700 2.685 L 381.751 3.194 L 384.805 3.748 L 387.865 4.346 L 390.928 4.988 L 393.996 5.674 L 397.069 6.404 L 400.145 7.178 L 403.225 7.995 L 406.309 8.856 L 409.397 9.761 L 412.488 10.710 L 415.583 11.701 L 418.681 12.737 L 421.783 13.815 L 424.887 14.937 L 427.995 16.101 L 431.105 17.309 L 434.218 18.560 L 437.333 19.853 L 440.451 21.189 L 443.572 22.568 L 446.694 23.989 L 449.819 25.452 L 452.946 26.957 L 456.074 28.505 L 459.205 30.094 L 462.337 31.725 L 465.470 33.398 L 468.605 35.112 L 471.741 36.867 L 474.878 38.664 L 478.016 40.501 L 481.155 42.379 L 484.295 44.298 L 487.435 46.258 L 490.576 48.258 L 493.717 50.297 L 496.858 52.377 L 500.000 54.497 L 503.142 56.656 L 506.283 58.854 L 509.424 61.092 L 512.565 63.369 L 515.705 65.684 L 518.845 68.038 L 521.984 70.431 L 525.122 72.861 L 528.259 75.330 L 531.395 77.836 L 534.530 80.380 L 537.663 82.961 L 540.795 85.579 L 543.926 88.234 L 547.054 90.925 L 550.181 93.653 L 553.306 96.417 L 556.428 99.217 L 559.549 102.052 L 562.667 104.922 L 565.782 107.828 L 568.895 110.769 L 572.005 113.744 L 575.113 116.753 L 578.217 119.797 L 581.319 122.874 L 584.417 125.985 L 587.512 129.129 L 590.603 132.306 L 593.691 135.516 L 596.775 138.758 L 599.855 142.032 L 602.931 145.338 L 606.004 148.675 L 609.072 152.044 L 612.135 155.443 L 615.195 158.873 L 618.249 162.334 L 621.300 165.824 L 624.345 169.344 L 627.385 172.894 L 630.421 176.472 L 633.451 180.079 L 636.476 183.715 L 639.496 187.379 L 642.510 191.070 L 645.518 194.789 L 648.521 198.535 L 651.518 202.308 L 654.508 206.107 L 657.493 209.933 L 660.472 213.784 L 663.444 217.661 L 666.410 221.562 L 669.369 225.489 L 672.321 229.439 L 675.267 233.414 L 678.206 237.413 L 681.138 241.435 L 684.062 245.479 L 686.980 249.547 L 689.890 253.636 L 692.792 257.748 L 695.687 261.881 L 698.574 266.035 L 701.453 270.210 L 704.325 274.405 L 707.188 278.621 L 710.043 282.856 L 712.890 287.110 L 715.728 291.384 L 718.558 295.675 L 721.379 299.985 L 724.192 304.313 L 726.995 308.658 L 729.790 313.020 L 732.576 317.399 L 735.352 321.794 L 738.119 326.205 L 740.877 330.631 L 743.625 335.072 L 746.364 339.528 L 749.093 343.998 L 751.812 348.482 L 754.521 352.980 L 757.220 357.490 L 759.909 362.014 L 762.587 366.549 L 765.256 371.096 L 767.913 375.655 L 770.561 380.225 L 773.197 384.805 L 775.823 389.396 L 778.438 393.996 L 781.042 398.606 L 783.634 403.225 L 786.216 407.853 L 788.786 412.488 L 791.345 417.132 L 793.893 421.783 L 796.428 426.441 L 798.952 431.105 L 801.465 435.775 L 803.965 440.451 L 806.454 445.133 L 808.930 449.819 L 811.394 454.510 L 813.846 459.205 L 816.285 463.903 L 818.712 468.605 L 821.126 473.309 L 823.528 478.016 L 825.917 482.725 L 828.293 487.435 L 830.656 492.146 L 833.006 496.858 L 835.343 501.571 L 837.666 506.283 L 839.977 510.995 L 842.274 515.705 L 844.557 520.415 L 846.827 525.122 L 849.083 529.827 L 851.325 534.530 L 853.553 539.230 L 855.768 543.926 L 857.968 548.618 L 860.155 553.306 L 862.327 557.989 L 864.484 562.667 L 866.628 567.339 L 868.757 572.005 L 870.871 576.665 L 872.971 581.319 L 875.056 585.965 L 877.126 590.603 L 879.181 595.233 L 881.221 599.855 L 883.247 604.468 L 885.257 609.072 L 887.252 613.666 L 889.231 618.249 L 891.195 622.823 L 893.144 627.385 L 895.078 631.937 L 896.995 636.476 L 898.897 641.003 L 900.783 645.518 L 902.654 650.020 L 904.508 654.508 L 906.347 658.983 L 908.170 663.444 L 909.976 667.890 L 911.766 672.321 L 913.540 676.737 L 915.298 681.138 L 917.039 685.522 L 918.764 689.890 L 920.472 694.240 L 922.164 698.574 L 923.839 702.890 L 925.497 707.188 L 927.139 711.467 L 928.763 715.728 L 930.371 719.970 L 931.962 724.192 L 933.535 728.394 L 935.092 732.576 L 936.631 736.737 L 938.153 740.877 L 939.658 744.996 L 941.146 749.093 L 942.616 753.167 L 944.068 757.220 L 945.503 761.249 L 946.921 765.256 L 948.321 769.238 L 949.703 773.197 L 951.067 777.132 L 952.414 781.042 L 953.742 784.927 L 955.053 788.786 L 956.346 792.620 L 957.621 796.428 L 958.877 800.210 L 960.116 803.965 L 961.336 807.693 L 962.539 811.394 L 963.723 815.067 L 964.888 818.712 L 966.036 822.329 L 967.164 825.917 L 968.275 829.476 L 969.367 833.006 L 970.440 836.506 L 971.495 839.977 L 972.532 843.417 L 973.549 846.827 L 974.548 850.206 L 975.528 853.553 L 976.490 856.870 L 977.432 860.155 L 978.356 863.407 L 979.261 866.628 L 980.147 869.816 L 981.014 872.971 L 981.862 876.092 L 982.691 879.181 L 983.501 882.236 L 984.292 885.257 L 985.063 888.243 L 985.816 891.195 L 986.549 894.113 L 987.263 896.995 L 987.958 899.842 L 988.634 902.654 L 989.290 905.430 L 989.928 908.170 L 990.545 910.873 L 991.144 913.540 L 991.723 916.171 L 992.282 918.764 L 992.822 921.320 L 993.343 923.839 L 993.844 926.320 L 994.326 928.763 L 994.788 931.168 L 995.231 933.535 L 995.654 935.864 L 996.057 938.153 L 996.441 940.404 L 996.806 942.616 L 997.150 944.788 L 997.476 946.921 L 997.781 949.014 L 998.067 951.067 L 998.333 953.080 L 998.579 955.053 L 998.806 956.985 L 999.013 958.877 L 999.201 960.728 L 999.368 962.539 L 999.516 964.308 L 999.645 966.036 L 999.753 967.722 L 999.842 969.367 L 999.911 970.970 L 999.961 972.532 L 999.990 974.051 L 1000.000 975.528 L 999.990 976.963 L 999.961 978.356 L 999.911 979.706 L 999.842 981.014 L 999.753 982.279 L 999.645 983.501 L 999.516 984.680 L 999.368 985.816 L 999.201 986.909 L 999.013 987.958 L 998.806 988.965 L 998.579 989.928 L 998.333 990.847 L 998.067 991.723 L 997.781 992.555 L 997.476 993.343 L 997.150 994.087 L 996.806 994.788 L 996.441 995.445 L 996.057 996.057 L 995.654 996.626 L 995.231 997.150 L 994.788 997.631 L 994.326 998.067 L 993.844 998.459 L 993.343 998.806 L 992.822 999.110 L 992.282 999.368 L 991.723 999.583 L 991.144 999.753 L 990.545 999.879 L 989.928 999.961 L 989.290 999.998 L 988.634 999.990 L 987.958 999.938 L 987.263 999.842 L 986.549 999.701 L 985.816 999.516 L 985.063 999.287 L 984.292 999.013 L 983.501 998.695 L 982.691 998.333 L 981.862 997.926 L 981.014 997.476 L 980.147 996.980 L 979.261 996.441 L 978.356 995.858 L 977.432 995.231 L 976.490 994.559 L 975.528 993.844 L 974.548 993.085 L 973.549 992.282 L 972.532 991.436 L 971.495 990.545 L 970.440 989.611 L 969.367 988.634 L 968.275 987.613 L 967.164 986.549 L 966.036 985.442 L 964.888 984.292 L 963.723 983.098 L 962.539 981.862 L 961.336 980.583 L 960.116 979.261 L 958.877 977.897 L 957.621 976.490 L 956.346 975.041 L 955.053 973.549 L 953.742 972.016 L 952.414 970.440 L 951.067 968.823 L 949.703 967.164 L 948.321 965.464 L 946.921 963.723 L 945.503 961.940 L 944.068 960.116 L 942.616 958.251 L 941.146 956.346 L 939.658 954.400 L 938.153 952.414 L 936.631 950.387 L 935.092 948.321 L 933.535 946.214 L 931.962 944.068 L 930.371 941.883 L 928.763 939.658 L 927.139 937.394 L 925.497 935.092 L 923.839 932.751 L 922.164 930.371 L 920.472 927.953 L 918.764 925.497 L 917.039 923.004 L 915.298 920.472 L 913.540 917.904 L 911.766 915.298 L 909.976 912.655 L 908.170 909.976 L 906.347 907.260 L 904.508 904.508 L 902.654 901.721 L 900.783 898.897 L 898.897 896.038 L 896.995 893.144 L 895.078 890.215 L 893.144 887.252 L 891.195 884.253 L 889.231 881.221 L 887.252 878.155 L 885.257 875.056 L 883.247 871.923 L 881.221 868.757 L 879.181 865.558 L 877.126 862.327 L 875.056 859.063 L 872.971 855.768 L 870.871 852.441 L 868.757 849.083 L 866.628 845.693 L 864.484 842.274 L 862.327 838.823 L 860.155 835.343 L 857.968 831.833 L 855.768 828.293 L 853.553 824.724 L 851.325 821.126 L 849.083 817.500 L 846.827 813.846 L 844.557 810.163 L 842.274 806.454 L 839.977 802.716 L 837.666 798.952 L 835.343 795.162 L 833.006 791.345 L 830.656 787.503 L 828.293 783.634 L 825.917 779.741 L 823.528 775.823 L 821.126 771.880 L 818.712 767.913 L 816.285 763.923 L 813.846 759.909 L 811.394 755.872 L 808.930 751.812 L 806.454 747.729 L 803.965 743.625 L 801.465 739.499 L 798.952 735.352 L 796.428 731.184 L 793.893 726.995 L 791.345 722.786 L 788.786 718.558 L 786.216 714.310 L 783.634 710.043 L 781.042 705.757 L 778.438 701.453 L 775.823 697.131 L 773.197 692.792 L 770.561 688.436 L 767.913 684.062 L 765.256 679.673 L 762.587 675.267 L 759.909 670.846 L 757.220 666.410 L 754.521 661.959 L 751.812 657.493 L 749.093 653.014 L 746.364 648.521 L 743.625 644.015 L 740.877 639.496 L 738.119 634.964 L 735.352 630.421 L 732.576 625.866 L 729.790 621.300 L 726.995 616.723 L 724.192 612.135 L 721.379 607.538 L 718.558 602.931 L 715.728 598.315 L 712.890 593.691 L 710.043 589.058 L 707.188 584.417 L 704.325 579.768 L 701.453 575.113 L 698.574 570.451 L 695.687 565.782 L 692.792 561.108 L 689.890 556.428 L 686.980 551.743 L 684.062 547.054 L 681.138 542.361 L 678.206 537.663 L 675.267 532.963 L 672.321 528.259 L 669.369 523.553 L 666.410 518.845 L 663.444 514.135 L 660.472 509.424 L 657.493 504.712 L 654.508 500.000 L 651.518 495.288 L 648.521 490.576 L 645.518 485.865 L 642.510 481.155 L 639.496 476.447 L 636.476 471.741 L 633.451 467.037 L 630.421 462.337 L 627.385 457.639 L 624.345 452.946 L 621.300 448.257 L 618.249 443.572 L 615.195 438.892 L 612.135 434.218 L 609.072 429.549 L 606.004 424.887 L 602.931 420.232 L 599.855 415.583 L 596.775 410.942 L 593.691 406.309 L 590.603 401.685 L 587.512 397.069 L 584.417 392.462 L 581.319 387.865 L 578.217 383.277 L 575.113 378.700 L 572.005 374.134 L 568.895 369.579 L 565.782 365.036 L 562.667 360.504 L 559.549 355.985 L 556.428 351.479 L 553.306 346.986 L 550.181 342.507 L 547.054 338.041 L 543.926 333.590 L 540.795 329.154 L 537.663 324.733 L 534.530 320.327 L 531.395 315.938 L 528.259 311.564 L 525.122 307.208 L 521.984 302.869 L 518.845 298.547 L 515.705 294.243 L 512.565 289.957 L 509.424 285.690 L 506.283 281.442 L 503.142 277.214 L 500.000 273.005 L 496.858 268.816 L 493.717 264.648 L 490.576 260.501 L 487.435 256.375 L 484.295 252.271 L 481.155 248.188 L 478.016 244.128 L 474.878 240.091 L 471.741 236.077 L 468.605 232.087 L 465.470 228.120 L 462.337 224.177 L 459.205 220.259 L 456.074 216.366 L 452.946 212.497 L 449.819 208.655 L 446.694 204.838 L 443.572 201.048 L 440.451 197.284 L 437.333 193.546 L 434.218 189.837 L 431.105 186.154 L 427.995 182.500 L 424.887 178.874 L 421.783 175.276 L 418.681 171.707 L 415.583 168.167 L 412.488 164.657 L 409.397 161.177 L 406.309 157.726 L 403.225 154.307 L 400.145 150.917 L 397.069 147.559 L 393.996 144.232 L 390.928 140.937 L 387.865 137.673 L 384.805 134.442 L 381.751 131.243 L 378.700 128.077 L 375.655 124.944 L 372.615 121.845 L 369.579 118.779 L 366.549 115.747 L 363.524 112.748 L 360.504 109.785 L 357.490 106.856 L 354.482 103.962 L 351.479 101.103 L 348.482 98.279 L 345.492 95.492 L 342.507 92.740 L 339.528 90.024 L 336.556 87.345 L 333.590 84.702 L 330.631 82.096 L 327.679 79.528 L 324.733 76.996 L 321.794 74.503 L 318.862 72.047 L 315.938 69.629 L 313.020 67.249 L 310.110 64.908 L 307.208 62.606 L 304.313 60.342 L 301.426 58.117 L 298.547 55.932 L 295.675 53.786 L 292.812 51.679 L 289.957 49.613 L 287.110 47.586 L 284.272 45.600 L 281.442 43.654 L 278.621 41.749 L 275.808 39.884 L 273.005 38.060 L 270.210 36.277 L 267.424 34.536 L 264.648 32.836 L 261.881 31.177 L 259.123 29.560 L 256.375 27.984 L 253.636 26.451 L 250.907 24.959 L 248.188 23.510 L 245.479 22.103 L 242.780 20.739 L 240.091 19.417 L 237.413 18.138 L 234.744 16.902 L 232.087 15.708 L 229.439 14.558 L 226.803 13.451 L 224.177 12.387 L 221.562 11.366 L 218.958 10.389 L 216.366 9.455 L 213.784 8.564 L 211.214 7.718 L 208.655 6.915 L 206.107 6.156 L 203.572 5.441 L 201.048 4.769 L 198.535 4.142 L 196.035 3.559 L 193.546 3.020 L 191.070 2.524 L 188.606 2.074 L 186.154 1.667 L 183.715 1.305 L 181.288 0.987 L 178.874 0.713 L 176.472 0.484 L 174.083 0.299 L 171.707 0.158 L 169.344 0.062 L 166.994 0.010 L 164.657 0.002 L 162.334 0.039 L 160.023 0.121 L 157.726 0.247 L 155.443 0.417 L 153.173 0.632 L 150.917 0.890 L 148.675 1.194 L 146.447 1.541 L 144.232 1.933 L 142.032 2.369 L 139.845 2.850 L 137.673 3.374 L 135.516 3.943 L 133.372 4.555 L 131.243 5.212 L 129.129 5.913 L 127.029 6.657 L 124.944 7.445 L 122.874 8.277 L 120.819 9.153 L 118.779 10.072 L 116.753 11.035 L 114.743 12.042 L 112.748 13.091 L 110.769 14.184 L 108.805 15.320 L 106.856 16.499 L 104.922 17.721 L 103.005 18.986 L 101.103 20.294 L 99.217 21.644 L 97.346 23.037 L 95.492 24.472 L 93.653 25.949 L 91.830 27.468 L 90.024 29.030 L 88.234 30.633 L 86.460 32.278 L 84.702 33.964 L 82.961 35.692 L 81.236 37.461 L 79.528 39.272 L 77.836 41.123 L 76.161 43.015 L 74.503 44.947 L 72.861 46.920 L 71.237 48.933 L 69.629 50.986 L 68.038 53.079 L 66.465 55.212 L 64.908 57.384 L 63.369 59.596 L 61.847 61.847 L 60.342 64.136 L 58.854 66.465 L 57.384 68.832 L 55.932 71.237 L 54.497 73.680 L 53.079 76.161 L 51.679 78.680 L 50.297 81.236 L 48.933 83.829 L 47.586 86.460 L 46.258 89.127 L 44.947 91.830 L 43.654 94.570 L 42.379 97.346 L 41.123 100.158 L 39.884 103.005 L 38.664 105.887 L 37.461 108.805 L 36.277 111.757 L 35.112 114.743 L 33.964 117.764 L 32.836 120.819 L 31.725 123.908 L 30.633 127.029 L 29.560 130.184 L 28.505 133.372 L 27.468 136.593 L 26.451 139.845 L 25.452 143.130 L 24.472 146.447 L 23.510 149.794 L 22.568 153.173 L 21.644 156.583 L 20.739 160.023 L 19.853 163.494 L 18.986 166.994 L 18.138 170.524 L 17.309 174.083 L 16.499 177.671 L 15.708 181.288 L 14.937 184.933 L 14.184 188.606 L 13.451 192.307 L 12.737 196.035 L 12.042 199.790 L 11.366 203.572 L 10.710 207.380 L 10.072 211.214 L 9.455 215.073 L 8.856 218.958 L 8.277 222.868 L 7.718 226.803 L 7.178 230.762 L 6.657 234.744 L 6.156 238.751 L 5.674 242.780 L 5.212 246.833 L 4.769 250.907 L 4.346 255.004 L 3.943 259.123 L 3.559 263.263 L 3.194 267.424 L 2.850 271.606 L 2.524 275.808 L 2.219 280.030 L 1.933 284.272 L 1.667 288.533 L 1.421 292.812 L 1.194 297.110 L 0.987 301.426 L 0.799 305.760 L 0.632 310.110 L 0.484 314.478 L 0.355 318.862 L 0.247 323.263 L 0.158 327.679 L 0.089 332.110 L 0.039 336.556 L 0.010 341.017 L 0.000 345.492 L 0.010 349.980 L 0.039 354.482 L 0.089 358.997 L 0.158 363.524 L 0.247 368.063 L 0.355 372.615 L 0.484 377.177 L 0.632 381.751 L 0.799 386.334 L 0.987 390.928 L 1.194 395.532 L 1.421 400.145 L 1.667 404.767 L 1.933 409.397 L 2.219 414.035 L 2.524 418.681 L 2.850 423.335 L 3.194 427.995 L 3.559 432.661 L 3.943 437.333 L 4.346 442.011 L 4.769 446.694 L 5.212 451.382 L 5.674 456.074 L 6.156 460.770 L 6.657 465.470 L 7.178 470.173 L 7.718 474.878 L 8.277 479.585 L 8.856 484.295 L 9.455 489.005 L 10.072 493.717 L 10.710 498.429 L 11.366 503.142 L 12.042 507.854 L 12.737 512.565 L 13.451 517.275 L 14.184 521.984 L 14.937 526.691 L 15.708 531.395 L 16.499 536.097 L 17.309 540.795 L 18.138 545.490 L 18.986 550.181 L 19.853 554.867 L 20.739 559.549 L 21.644 564.225 L 22.568 568.895 L 23.510 573.559 L 24.472 578.217 L 25.452 582.868 L 26.451 587.512 L 27.468 592.147 L 28.505 596.775 L 29.560 601.394 L 30.633 606.004 L 31.725 610.604 L 32.836 615.195 L 33.964 619.775 L 35.112 624.345 L 36.277 628.904 L 37.461 633.451 L 38.664 637.986 L 39.884 642.510 L 41.123 647.020 L 42.379 651.518 L 43.654 656.002 L 44.947 660.472 L 46.258 664.928 L 47.586 669.369 L 48.933 673.795 L 50.297 678.206 L 51.679 682.601 L 53.079 686.980 L 54.497 691.342 L 55.932 695.687 L 57.384 700.015 L 58.854 704.325 L 60.342 708.616 L 61.847 712.890 L 63.369 717.144 L 64.908 721.379 L 66.465 725.595 L 68.038 729.790 L 69.629 733.965 L 71.237 738.119 L 72.861 742.252 L 74.503 746.364 L 76.161 750.453 L 77.836 754.521 L 79.528 758.565 L 81.236 762.587 L 82.961 766.586 L 84.702 770.561 L 86.460 774.511 L 88.234 778.438 L 90.024 782.339 L 91.830 786.216 L 93.653 790.067 L 95.492 793.893 L 97.346 797.692 L 99.217 801.465 L 101.103 805.211 L 103.005 808.930 L 104.922 812.621 L 106.856 816.285 L 108.805 819.921 L 110.769 823.528 L 112.748 827.106 L 114.743 830.656 L 116.753 834.176 L 118.779 837.666 L 120.819 841.127 L 122.874 844.557 L 124.944 847.956 L 127.029 851.325 L 129.129 854.662 L 131.243 857.968 L 133.372 861.242 L 135.516 864.484 L 137.673 867.694 L 139.845 870.871 L 142.032 874.015 L 144.232 877.126 L 146.447 880.203 L 148.675 883.247 L 150.917 886.256 L 153.173 889.231 L 155.443 892.172 L 157.726 895.078 L 160.023 897.948 L 162.334 900.783 L 164.657 903.583 L 166.994 906.347 L 169.344 909.075 L 171.707 911.766 L 174.083 914.421 L 176.472 917.039 L 178.874 919.620 L 181.288 922.164 L 183.715 924.670 L 186.154 927.139 L 188.606 929.569 L 191.070 931.962 L 193.546 934.316 L 196.035 936.631 L 198.535 938.908 L 201.048 941.146 L 203.572 943.344 L 206.107 945.503 L 208.655 947.623 L 211.214 949.703 L 213.784 951.742 L 216.366 953.742 L 218.958 955.702 L 221.562 957.621 L 224.177 959.499 L 226.803 961.336 L 229.439 963.133 L 232.087 964.888 L 234.744 966.602 L 237.413 968.275 L 240.091 969.906 L 242.780 971.495 L 245.479 973.043 L 248.188 974.548 L 250.907 976.011 L 253.636 977.432 L 256.375 978.811 L 259.123 980.147 L 261.881 981.440 L 264.648 982.691 L 267.424 983.899 L 270.210 985.063 L 273.005 986.185 L 275.808 987.263 L 278.621 988.299 L 281.442 989.290 L 284.272 990.239 L 287.110 991.144 L 289.957 992.005 L 292.812 992.822 L 295.675 993.596 L 298.547 994.326 L 301.426 995.012 L 304.313 995.654 L 307.208 996.252 L 310.110 996.806 L 313.020 997.315 L 315.938 997.781 L 318.862 998.202 L 321.794 998.579 L 324.733 998.912 L 327.679 999.201 L 330.631 999.445 L 333.590 999.645 L 336.556 999.800 L 339.528 999.911 L 342.507 999.978 L 345.492 1000.000 L 348.482 999.978 L 351.479 999.911 L 354.482 999.800 L 357.490 999.645 L 360.504 999.445 L 363.524 999.201 L 366.549 998.912 L 369.579 998.579 L 372.615 998.202 L 375.655 997.781 L 378.700 997.315 L 381.751 996.806 L 384.805 996.252 L 387.865 995.654 L 390.928 995.012 L 393.996 994.326 L 397.069 993.596 L 400.145 992.822 L 403.225 992.005 L 406.309 991.144 L 409.397 990.239 L 412.488 989.290 L 415.583 988.299 L 418.681 987.263 L 421.783 986.185 L 424.887 985.063 L 427.995 983.899 L 431.105 982.691 L 434.218 981.440 L 437.333 980.147 L 440.451 978.811 L 443.572 977.432 L 446.694 976.011 L 449.819 974.548 L 452.946 973.043 L 456.074 971.495 L 459.205 969.906 L 462.337 968.275 L 465.470 966.602 L 468.605 964.888 L 471.741 963.133 L 474.878 961.336 L 478.016 959.499 L 481.155 957.621 L 484.295 955.702 L 487.435 953.742 L 490.576 951.742 L 493.717 949.703 L 496.858 947.623 L 500.000 945.503 L 503.142 943.344 L 506.283 941.146 L 509.424 938.908 L 512.565 936.631 L 515.705 934.316 L 518.845 931.962 L 521.984 929.569 L 525.122 927.139 L 528.259 924.670 L 531.395 922.164 L 534.530 919.620 L 537.663 917.039 L 540.795 914.421 L 543.926 911.766 L 547.054 909.075 L 550.181 906.347 L 553.306 903.583 L 556.428 900.783 L 559.549 897.948 L 562.667 895.078 L 565.782 892.172 L 568.895 889.231 L 572.005 886.256 L 575.113 883.247 L 578.217 880.203 L 581.319 877.126 L 584.417 874.015 L 587.512 870.871 L 590.603 867.694 L 593.691 864.484 L 596.775 861.242 L 599.855 857.968 L 602.931 854.662 L 606.004 851.325 L 609.072 847.956 L 612.135 844.557 L 615.195 841.127 L 618.249 837.666 L 621.300 834.176 L 624.345 830.656 L 627.385 827.106 L 630.421 823.528 L 633.451 819.921 L 636.476 816.285 L 639.496 812.621 L 642.510 808.930 L 645.518 805.211 L 648.521 801.465 L 651.518 797.692 L 654.508 793.893 L 657.493 790.067 L 660.472 786.216 L 663.444 782.339 L 666.410 778.438 L 669.369 774.511 L 672.321 770.561 L 675.267 766.586 L 678.206 762.587 L 681.138 758.565 L 684.062 754.521 L 686.980 750.453 L 689.890 746.364 L 692.792 742.252 L 695.687 738.119 L 698.574 733.965 L 701.453 729.790 L 704.325 725.595 L 707.188 721.379 L 710.043 717.144 L 712.890 712.890 L 715.728 708.616 L 718.558 704.325 L 721.379 700.015 L 724.192 695.687 L 726.995 691.342 L 729.790 686.980 L 732.576 682.601 L 735.352 678.206 L 738.119 673.795 L 740.877 669.369 L 743.625 664.928 L 746.364 660.472 L 749.093 656.002 L 751.812 651.518 L 754.521 647.020 L 757.220 642.510 L 759.909 637.986 L 762.587 633.451 L 765.256 628.904 L 767.913 624.345 L 770.561 619.775 L 773.197 615.195 L 775.823 610.604 L 778.438 606.004 L 781.042 601.394 L 783.634 596.775 L 786.216 592.147 L 788.786 587.512 L 791.345 582.868 L 793.893 578.217 L 796.428 573.559 L 798.952 568.895 L 801.465 564.225 L 803.965 559.549 L 806.454 554.867 L 808.930 550.181 L 811.394 545.490 L 813.846 540.795 L 816.285 536.097 L 818.712 531.395 L 821.126 526.691 L 823.528 521.984 L 825.917 517.275 L 828.293 512.565 L 830.656 507.854 L 833.006 503.142 L 835.343 498.429 L 837.666 493.717 L 839.977 489.005 L 842.274 484.295 L 844.557 479.585 L 846.827 474.878 L 849.083 470.173 L 851.325 465.470 L 853.553 460.770 L 855.768 456.074 L 857.968 451.382 L 860.155 446.694 L 862.327 442.011 L 864.484 437.333 L 866.628 432.661 L 868.757 427.995 L 870.871 423.335 L 872.971 418.681 L 875.056 414.035 L 877.126 409.397 L 879.181 404.767 L 881.221 400.145 L 883.247 395.532 L 885.257 390.928 L 887.252 386.334 L 889.231 381.751 L 891.195 377.177 L 893.144 372.615 L 895.078 368.063 L 896.995 363.524 L 898.897 358.997 L 900.783 354.482 L 902.654 349.980 L 904.508 345.492 L 906.347 341.017 L 908.170 336.556 L 909.976 332.110 L 911.766 327.679 L 913.540 323.263 L 915.298 318.862 L 917.039 314.478 L 918.764 310.110 L 920.472 305.760 L 922.164 301.426 L 923.839 297.110 L 925.497 292.812 L 927.139 288.533 L 928.763 284.272 L 930.371 280.030 L 931.962 275.808 L 933.535 271.606 L 935.092 267.424 L 936.631 263.263 L 938.153 259.123 L 939.658 255.004 L 941.146 250.907 L 942.616 246.833 L 944.068 242.780 L 945.503 238.751 L 946.921 234.744 L 948.321 230.762 L 949.703 226.803 L 951.067 222.868 L 952.414 218.958 L 953.742 215.073 L 955.053 211.214 L 956.346 207.380 L 957.621 203.572 L 958.877 199.790 L 960.116 196.035 L 961.336 192.307 L 962.539 188.606 L 963.723 184.933 L 964.888 181.288 L 966.036 177.671 L 967.164 174.083 L 968.275 170.524 L 969.367 166.994 L 970.440 163.494 L 971.495 160.023 L 972.532 156.583 L 973.549 153.173 L 974.548 149.794 L 975.528 146.447 L 976.490 143.130 L 977.432 139.845 L 978.356 136.593 L 979.261 133.372 L 980.147 130.184 L 981.014 127.029 L 981.862 123.908 L 982.691 120.819 L 983.501 117.764 L 984.292 114.743 L 985.063 111.757 L 985.816 108.805 L 986.549 105.887 L 987.263 103.005 L 987.958 100.158 L 988.634 97.346 L 989.290 94.570 L 989.928 91.830 L 990.545 89.127 L 991.144 86.460 L 991.723 83.829 L 992.282 81.236 L 992.822 78.680 L 993.343 76.161 L 993.844 73.680 L 994.326 71.237 L 994.788 68.832 L 995.231 66.465 L 995.654 64.136 L 996.057 61.847 L 996.441 59.596 L 996.806 57.384 L 997.150 55.212 L 997.476 53.079 L 997.781 50.986 L 998.067 48.933 L 998.333 46.920 L 998.579 44.947 L 998.806 43.015 L 999.013 41.123 L 999.201 39.272 L 999.368 37.461 L 999.516 35.692 L 999.645 33.964 L 999.753 32.278 L 999.842 30.633 L 999.911 29.030 L 999.961 27.468 L 999.990 25.949 L 1000.000 24.472 L 999.990 23.037 L 999.961 21.644 L 999.911 20.294 L 999.842 18.986 L 999.753 17.721 L 999.645 16.499 L 999.516 15.320 L 999.368 14.184 L 999.201 13.091 L 999.013 12.042 L 998.806 11.035 L 998.579 10.072 L 998.333 9.153 L 998.067 8.277 L 997.781 7.445 L 997.476 6.657 L 997.150 5.913 L 996.806 5.212 L 996.441 4.555 L 996.057 3.943 L 995.654 3.374 L 995.231 2.850 L 994.788 2.369 L 994.326 1.933 L 993.844 1.541 L 993.343 1.194 L 992.822 0.890 L 992.282 0.632 L 991.723 0.417 L 991.144 0.247 L 990.545 0.121 L 989.928 0.039 L 989.290 0.002 L 988.634 0.010 L 987.958 0.062 L 987.263 0.158 L 986.549 0.299 L 985.816 0.484 L 985.063 0.713 L 984.292 0.987 L 983.501 1.305 L 982.691 1.667 L 981.862 2.074 L 981.014 2.524 L 980.147 3.020 L 979.261 3.559 L 978.356 4.142 L 977.432 4.769 L 976.490 5.441 L 975.528 6.156 L 974.548 6.915 L 973.549 7.718 L 972.532 8.564 L 971.495 9.455 L 970.440 10.389 L 969.367 11.366 L 968.275 12.387 L 967.164 13.451 L 966.036 14.558 L 964.888 15.708 L 963.723 16.902 L 962.539 18.138 L 961.336 19.417 L 960.116 20.739 L 958.877 22.103 L 957.621 23.510 L 956.346 24.959 L 955.053 26.451 L 953.742 27.984 L 952.414 29.560 L 951.067 31.177 L 949.703 32.836 L 948.321 34.536 L 946.921 36.277 L 945.503 38.060 L 944.068 39.884 L 942.616 41.749 L 941.146 43.654 L 939.658 45.600 L 938.153 47.586 L 936.631 49.613 L 935.092 51.679 L 933.535 53.786 L 931.962 55.932 L 930.371 58.117 L 928.763 60.342 L 927.139 62.606 L 925.497 64.908 L 923.839 67.249 L 922.164 69.629 L 920.472 72.047 L 918.764 74.503 L 917.039 76.996 L 915.298 79.528 L 913.540 82.096 L 911.766 84.702 L 909.976 87.345 L 908.170 90.024 L 906.347 92.740 L 904.508 95.492 L 902.654 98.279 L 900.783 101.103 L 898.897 103.962 L 896.995 106.856 L 895.078 109.785 L 893.144 112.748 L 891.195 115.747 L 889.231 118.779 L 887.252 121.845 L 885.257 124.944 L 883.247 128.077 L 881.221 131.243 L 879.181 134.442 L 877.126 137.673 L 875.056 140.937 L 872.971 144.232 L 870.871 147.559 L 868.757 150.917 L 866.628 154.307 L 864.484 157.726 L 862.327 161.177 L 860.155 164.657 L 857.968 168.167 L 855.768 171.707 L 853.553 175.276 L 851.325 178.874 L 849.083 182.500 L 846.827 186.154 L 844.557 189.837 L 842.274 193.546 L 839.977 197.284 L 837.666 201.048 L 835.343 204.838 L 833.006 208.655 L 830.656 212.497 L 828.293 216.366 L 825.917 220.259 L 823.528 224.177 L 821.126 228.120 L 818.712 232.087 L 816.285 236.077 L 813.846 240.091 L 811.394 244.128 L 808.930 248.188 L 806.454 252.271 L 803.965 256.375 L 801.465 260.501 L 798.952 264.648 L 796.428 268.816 L 793.893 273.005 L 791.345 277.214 L 788.786 281.442 L 786.216 285.690 L 783.634 289.957 L 781.042 294.243 L 778.438 298.547 L 775.823 302.869 L 773.197 307.208 L 770.561 311.564 L 767.913 315.938 L 765.256 320.327 L 762.587 324.733 L 759.909 329.154 L 757.220 333.590 L 754.521 338.041 L 751.812 342.507 L 749.093 346.986 L 746.364 351.479 L 743.625 355.985 L 740.877 360.504 L 738.119 365.036 L 735.352 369.579 L 732.576 374.134 L 729.790 378.700 L 726.995 383.277 L 724.192 387.865 L 721.379 392.462 L 718.558 397.069 L 715.728 401.685 L 712.890 406.309 L 710.043 410.942 L 707.188 415.583 L 704.325 420.232 L 701.453 424.887 L 698.574 429.549 L 695.687 434.218 L 692.792 438.892 L 689.890 443.572 L 686.980 448.257 L 684.062 452.946 L 681.138 457.639 L 678.206 462.337 L 675.267 467.037 L 672.321 471.741 L 669.369 476.447 L 666.410 481.155 L 663.444 485.865 L 660.472 490.576 L 657.493 495.288 L 654.508 500.000" fill="none" stroke="black" stroke-width="12.0" stroke-linecap="round" stroke-linejoin="round" vector-effect="non-scaling-stroke"/>
</svg>