<svg xmlns="http://www.w3.org/2000/svg" viewBox="-6.000 -6.000 1012.000 1012.000" preserveAspectRatio="xMidYMid meet">
    <path d="M 551.755 500.000 L 553.317 503.142 L 554.879 506.283 L 556.440 509.424 L 558.000 512.565 L 559.560 515.705 L 561.119 518.845 L 562.678 521.984 L 564.236 525.122 L 565.794 528.259 L 567.350 531.395 L 568.906 534.530 L 570.462 537.663 L 572.017 540.795 L 573.571 543.926 L 575.124 547.054 L 576.677 550.181 L 578.229 553.306 L 579.780 556.428 L 581.330 559.549 L 582.879 562.667 L 584.428 565.782 L 585.976 568.895 L 587.523 572.005 L 589.069 575.113 L 590.614 578.217 L 592.158 581.319 L 593.702 584.417 L 595.244 587.512 L 596.786 590.603 L 598.327 593.691 L 599.866 596.775 L 601.405 599.855 L 602.942 602.931 L 604.479 606.004 L 606.015 609.072 L 607.549 612.135 L 609.083 615.195 L 610.615 618.249 L 612.147 621.300 L 613.677 624.345 L 615.206 627.385 L 616.734 630.421 L 618.261 633.451 L 619.786 636.476 L 621.311 639.496 L 622.834 642.510 L 624.356 645.518 L 625.877 648.521 L 627.396 651.518 L 628.915 654.508 L 630.432 657.493 L 631.948 660.472 L 633.462 663.444 L 634.975 666.410 L 636.487 669.369 L 637.997 672.321 L 639.507 675.267 L 641.014 678.206 L 642.521 681.138 L 644.026 684.062 L 645.529 686.980 L 647.031 689.890 L 648.532 692.792 L 650.031 695.687 L 651.529 698.574 L 653.025 701.453 L 654.519 704.325 L 656.012 707.188 L 657.504 710.043 L 658.994 712.890 L 660.483 715.728 L 661.970 718.558 L 663.455 721.379 L 664.938 724.192 L 666.421 726.995 L 667.901 729.790 L 669.380 732.576 L 670.857 735.352 L 672.332 738.119 L 673.806 740.877 L 675.278 743.625 L 676.748 746.364 L 678.217 749.093 L 679.683 751.812 L 681.148 754.521 L 682.612 757.220 L 684.073 759.909 L 685.532 762.587 L 686.990 765.256 L 688.446 767.913 L 689.900 770.561 L 691.352 773.197 L 692.803 775.823 L 694.251 778.438 L 695.697 781.042 L 697.142 783.634 L 698.584 786.216 L 700.025 788.786 L 701.464 791.345 L 702.900 793.893 L 704.335 796.428 L 705.768 798.952 L 707.198 801.465 L 708.627 803.965 L 710.053 806.454 L 711.478 808.930 L 712.900 811.394 L 714.320 813.846 L 715.738 816.285 L 717.154 818.712 L 718.568 821.126 L 719.980 823.528 L 721.389 825.917 L 722.797 828.293 L 724.202 830.656 L 725.605 833.006 L 727.005 835.343 L 728.404 837.666 L 729.800 839.977 L 731.194 842.274 L 732.586 844.557 L 733.975 846.827 L 735.362 849.083 L 736.747 851.325 L 738.129 853.553 L 739.509 855.768 L 740.887 857.968 L 742.262 860.155 L 743.635 862.327 L 745.006 864.484 L 746.374 866.628 L 747.739 868.757 L 749.102 870.871 L 750.463 872.971 L 751.821 875.056 L 753.177 877.126 L 754.531 879.181 L 755.881 881.221 L 757.230 883.247 L 758.575 885.257 L 759.918 887.252 L 761.259 889.231 L 762.597 891.195 L 763.932 893.144 L 765.265 895.078 L 766.595 896.995 L 767.923 898.897 L 769.248 900.783 L 770.570 902.654 L 771.890 904.508 L 773.207 906.347 L 774.521 908.170 L 775.832 909.976 L 777.141 911.766 L 778.447 913.540 L 779.751 915.298 L 781.051 917.039 L 782.349 918.764 L 783.644 920.472 L 784.936 922.164 L 786.225 923.839 L 787.512 925.497 L 788.796 927.139 L 790.077 928.763 L 791.355 930.371 L 792.630 931.962 L 793.902 933.535 L 795.171 935.092 L 796.438 936.631 L 797.701 938.153 L 798.962 939.658 L 800.219 941.146 L 801.474 942.616 L 802.726 944.068 L 803.974 945.503 L 805.220 946.921 L 806.463 948.321 L 807.702 949.703 L 808.939 951.067 L 810.172 952.414 L 811.403 953.742 L 812.630 955.053 L 813.855 956.346 L 815.076 957.621 L 816.294 958.877 L 817.509 960.116 L 818.721 961.336 L 819.930 962.539 L 821.135 963.723 L 822.337 964.888 L 823.537 966.036 L 824.733 967.164 L 825.926 968.275 L 827.115 969.367 L 828.301 970.440 L 829.485 971.495 L 830.664 972.532 L 831.841 973.549 L 833.014 974.548 L 834.185 975.528 L 835.351 976.490 L 836.515 977.432 L 837.675 978.356 L 838.832 979.261 L 839.985 980.147 L 841.135 981.014 L 842.282 981.862 L 843.425 982.691 L 844.565 983.501 L 845.702 984.292 L 846.835 985.063 L 847.965 985.816 L 849.091 986.549 L 850.214 987.263 L 851.333 987.958 L 852.449 988.634 L 853.561 989.290 L 854.670 989.928 L 855.776 990.545 L 856.878 991.144 L 857.976 991.723 L 859.071 992.282 L 860.162 992.822 L 861.250 993.343 L 862.334 993.844 L 863.415 994.326 L 864.492 994.788 L 865.566 995.231 L 866.635 995.654 L 867.702 996.057 L 868.764 996.441 L 869.823 996.806 L 870.879 997.150 L 871.930 997.476 L 872.978 997.781 L 874.022 998.067 L 875.063 998.333 L 876.100 998.579 L 877.133 998.806 L 878.163 999.013 L 879.188 999.201 L 880.210 999.368 L 881.229 999.516 L 882.243 999.645 L 883.254 999.753 L 884.261 999.842 L 885.264 999.911 L 886.263 999.961 L 887.259 999.990 L 888.250 1000.000 L 889.238 999.990 L 890.222 999.961 L 891.203 999.911 L 892.179 999.842 L 893.151 999.753 L 894.120 999.645 L 895.085 999.516 L 896.045 999.368 L 897.002 999.201 L 897.955 999.013 L 898.904 998.806 L 899.849 998.579 L 900.790 998.333 L 901.727 998.067 L 902.661 997.781 L 903.590 997.476 L 904.515 997.150 L 905.436 996.806 L 906.354 996.441 L 907.267 996.057 L 908.176 995.654 L 909.081 995.231 L 909.983 994.788 L 910.880 994.326 L 911.773 993.844 L 912.662 993.343 L 913.547 992.822 L 914.428 992.282 L 915.304 991.723 L 916.177 991.144 L 917.046 990.545 L 917.910 989.928 L 918.770 989.290 L 919.626 988.634 L 920.478 987.958 L 921.326 987.263 L 922.170 986.549 L 923.010 985.816 L 923.845 985.063 L 924.676 984.292 L 925.503 983.501 L 926.326 982.691 L 927.145 981.862 L 927.959 981.014 L 928.769 980.147 L 929.575 979.261 L 930.377 978.356 L 931.174 977.432 L 931.967 976.490 L 932.756 975.528 L 933.541 974.548 L 934.321 973.549 L 935.098 972.532 L 935.869 971.495 L 936.637 970.440 L 937.400 969.367 L 938.159 968.275 L 938.913 967.164 L 939.664 966.036 L 940.409 964.888 L 941.151 963.723 L 941.888 962.539 L 942.621 961.336 L 943.349 960.116 L 944.073 958.877 L 944.793 957.621 L 945.508 956.346 L 946.219 955.053 L 946.926 953.742 L 947.628 952.414 L 948.326 951.067 L 949.019 949.703 L 949.708 948.321 L 950.392 946.921 L 951.072 945.503 L 951.747 944.068 L 952.418 942.616 L 953.085 941.146 L 953.747 939.658 L 954.405 938.153 L 955.058 936.631 L 955.706 935.092 L 956.350 933.535 L 956.990 931.962 L 957.625 930.371 L 958.256 928.763 L 958.882 927.139 L 959.503 925.497 L 960.120 923.839 L 960.733 922.164 L 961.341 920.472 L 961.944 918.764 L 962.543 917.039 L 963.137 915.298 L 963.727 913.540 L 964.312 911.766 L 964.892 909.976 L 965.468 908.170 L 966.040 906.347 L 966.606 904.508 L 967.169 902.654 L 967.726 900.783 L 968.279 898.897 L 968.827 896.995 L 969.371 895.078 L 969.910 893.144 L 970.444 891.195 L 970.974 889.231 L 971.499 887.252 L 972.019 885.257 L 972.535 883.247 L 973.046 881.221 L 973.553 879.181 L 974.055 877.126 L 974.552 875.056 L 975.044 872.971 L 975.532 870.871 L 976.015 868.757 L 976.493 866.628 L 976.967 864.484 L 977.436 862.327 L 977.900 860.155 L 978.359 857.968 L 978.814 855.768 L 979.264 853.553 L 979.709 851.325 L 980.150 849.083 L 980.586 846.827 L 981.017 844.557 L 981.443 842.274 L 981.865 839.977 L 982.282 837.666 L 982.694 835.343 L 983.101 833.006 L 983.504 830.656 L 983.901 828.293 L 984.294 825.917 L 984.683 823.528 L 985.066 821.126 L 985.445 818.712 L 985.819 816.285 L 986.188 813.846 L 986.552 811.394 L 986.911 808.930 L 987.266 806.454 L 987.616 803.965 L 987.961 801.465 L 988.301 798.952 L 988.636 796.428 L 988.967 793.893 L 989.293 791.345 L 989.614 788.786 L 989.930 786.216 L 990.241 783.634 L 990.547 781.042 L 990.849 778.438 L 991.146 775.823 L 991.438 773.197 L 991.725 770.561 L 992.007 767.913 L 992.284 765.256 L 992.557 762.587 L 992.824 759.909 L 993.087 757.220 L 993.345 754.521 L 993.598 751.812 L 993.846 749.093 L 994.089 746.364 L 994.328 743.625 L 994.561 740.877 L 994.790 738.119 L 995.013 735.352 L 995.232 732.576 L 995.446 729.790 L 995.655 726.995 L 995.859 724.192 L 996.059 721.379 L 996.253 718.558 L 996.443 715.728 L 996.627 712.890 L 996.807 710.043 L 996.982 707.188 L 997.152 704.325 L 997.317 701.453 L 997.477 698.574 L 997.632 695.687 L 997.782 692.792 L 997.927 689.890 L 998.068 686.980 L 998.203 684.062 L 998.334 681.138 L 998.460 678.206 L 998.580 675.267 L 998.696 672.321 L 998.807 669.369 L 998.913 666.410 L 999.014 663.444 L 999.110 660.472 L 999.201 657.493 L 999.288 654.508 L 999.369 651.518 L 999.445 648.521 L 999.517 645.518 L 999.584 642.510 L 999.645 639.496 L 999.702 636.476 L 999.754 633.451 L 999.800 630.421 L 999.842 627.385 L 999.879 624.345 L 999.911 621.300 L 999.938 618.249 L 999.961 615.195 L 999.978 612.135 L 999.990 609.072 L 999.998 606.004 L 1000.000 602.931 L 999.997 599.855 L 999.990 596.775 L 999.978 593.691 L 999.960 590.603 L 999.938 587.512 L 999.911 584.417 L 999.879 581.319 L 999.842 578.217 L 999.800 575.113 L 999.753 572.005 L 999.701 568.895 L 999.644 565.782 L 999.583 562.667 L 999.516 559.549 L 999.444 556.428 L 999.368 553.306 L 999.286 550.181 L 999.200 547.054 L 999.109 543.926 L 999.013 540.795 L 998.912 537.663 L 998.805 534.530 L 998.694 531.395 L 998.579 528.259 L 998.458 525.122 L 998.332 521.984 L 998.201 518.845 L 998.066 515.705 L 997.925 512.565 L 997.780 509.424 L 997.630 506.283 L 997.474 503.142 L 997.314 500.000 L 997.149 496.858 L 996.979 493.717 L 996.804 490.576 L 996.625 487.435 L 996.440 484.295 L 996.250 481.155 L 996.056 478.016 L 995.857 474.878 L 995.652 471.741 L 995.443 468.605 L 995.229 465.470 L 995.010 462.337 L 994.786 459.205 L 994.558 456.074 L 994.324 452.946 L 994.086 449.819 L 993.842 446.694 L 993.594 443.572 L 993.341 440.451 L 993.083 437.333 L 992.820 434.218 L 992.553 431.105 L 992.280 427.995 L 992.003 424.887 L 991.721 421.783 L 991.433 418.681 L 991.141 415.583 L 990.845 412.488 L 990.543 409.397 L 990.237 406.309 L 989.925 403.225 L 989.609 400.145 L 989.288 397.069 L 988.962 393.996 L 988.632 390.928 L 988.296 387.865 L 987.956 384.805 L 987.611 381.751 L 987.261 378.700 L 986.906 375.655 L 986.547 372.615 L 986.182 369.579 L 985.813 366.549 L 985.439 363.524 L 985.061 360.504 L 984.677 357.490 L 984.289 354.482 L 983.896 351.479 L 983.498 348.482 L 983.095 345.492 L 982.688 342.507 L 982.276 339.528 L 981.859 336.556 L 981.437 333.590 L 981.011 330.631 L 980.580 327.679 L 980.144 324.733 L 979.703 321.794 L 979.258 318.862 L 978.808 315.938 L 978.353 313.020 L 977.893 310.110 L 977.429 307.208 L 976.960 304.313 L 976.486 301.426 L 976.008 298.547 L 975.525 295.675 L 975.037 292.812 L 974.544 289.957 L 974.047 287.110 L 973.545 284.272 L 973.039 281.442 L 972.528 278.621 L 972.012 275.808 L 971.491 273.005 L 970.966 270.210 L 970.437 267.424 L 969.902 264.648 L 969.363 261.881 L 968.819 259.123 L 968.271 256.375 L 967.718 253.636 L 967.160 250.907 L 966.598 248.188 L 966.031 245.479 L 965.460 242.780 L 964.884 240.091 L 964.303 237.413 L 963.718 234.744 L 963.129 232.087 L 962.534 229.439 L 961.935 226.803 L 961.332 224.177 L 960.724 221.562 L 960.111 218.958 L 959.494 216.366 L 958.873 213.784 L 958.247 211.214 L 957.616 208.655 L 956.981 206.107 L 956.341 203.572 L 955.697 201.048 L 955.048 198.535 L 954.395 196.035 L 953.737 193.546 L 953.075 191.070 L 952.409 188.606 L 951.738 186.154 L 951.062 183.715 L 950.382 181.288 L 949.698 178.874 L 949.009 176.472 L 948.315 174.083 L 947.618 171.707 L 946.916 169.344 L 946.209 166.994 L 945.498 164.657 L 944.783 162.334 L 944.063 160.023 L 943.339 157.726 L 942.610 155.443 L 941.877 153.173 L 941.140 150.917 L 940.399 148.675 L 939.653 146.447 L 938.902 144.232 L 938.148 142.032 L 937.389 139.845 L 936.626 137.673 L 935.858 135.516 L 935.086 133.372 L 934.310 131.243 L 933.530 129.129 L 932.745 127.029 L 931.956 124.944 L 931.163 122.874 L 930.365 120.819 L 929.563 118.779 L 928.757 116.753 L 927.947 114.743 L 927.133 112.748 L 926.314 110.769 L 925.491 108.805 L 924.664 106.856 L 923.833 104.922 L 922.997 103.005 L 922.158 101.103 L 921.314 99.217 L 920.466 97.346 L 919.614 95.492 L 918.758 93.653 L 917.897 91.830 L 917.033 90.024 L 916.164 88.234 L 915.292 86.460 L 914.415 84.702 L 913.534 82.961 L 912.649 81.236 L 911.760 79.528 L 910.867 77.836 L 909.970 76.161 L 909.068 74.503 L 908.163 72.861 L 907.254 71.237 L 906.340 69.629 L 905.423 68.038 L 904.502 66.465 L 903.576 64.908 L 902.647 63.369 L 901.714 61.847 L 900.777 60.342 L 899.835 58.854 L 898.890 57.384 L 897.941 55.932 L 896.988 54.497 L 896.031 53.079 L 895.071 51.679 L 894.106 50.297 L 893.137 48.933 L 892.165 47.586 L 891.188 46.258 L 890.208 44.947 L 889.224 43.654 L 888.236 42.379 L 887.244 41.123 L 886.249 39.884 L 885.249 38.664 L 884.246 37.461 L 883.239 36.277 L 882.228 35.112 L 881.214 33.964 L 880.196 32.836 L 879.174 31.725 L 878.148 30.633 L 877.118 29.560 L 876.085 28.505 L 875.048 27.468 L 874.007 26.451 L 872.963 25.452 L 871.915 24.472 L 870.863 23.510 L 869.808 22.568 L 868.749 21.644 L 867.686 20.739 L 866.620 19.853 L 865.550 18.986 L 864.476 18.138 L 863.399 17.309 L 862.319 16.499 L 861.234 15.708 L 860.147 14.937 L 859.055 14.184 L 857.960 13.451 L 856.862 12.737 L 855.760 12.042 L 854.654 11.366 L 853.545 10.710 L 852.433 10.072 L 851.317 9.455 L 850.197 8.856 L 849.075 8.277 L 847.948 7.718 L 846.818 7.178 L 845.685 6.657 L 844.549 6.156 L 843.409 5.674 L 842.265 5.212 L 841.118 4.769 L 839.968 4.346 L 838.815 3.943 L 837.658 3.559 L 836.498 3.194 L 835.334 2.850 L 834.168 2.524 L 832.997 2.219 L 831.824 1.933 L 830.647 1.667 L 829.467 1.421 L 828.284 1.194 L 827.098 0.987 L 825.908 0.799 L 824.715 0.632 L 823.519 0.484 L 822.320 0.355 L 821.118 0.247 L 819.912 0.158 L 818.703 0.089 L 817.491 0.039 L 816.276 0.010 L 815.058 0.000 L 813.837 0.010 L 812.612 0.039 L 811.385 0.089 L 810.154 0.158 L 808.921 0.247 L 807.684 0.355 L 806.445 0.484 L 805.202 0.632 L 803.956 0.799 L 802.707 0.987 L 801.456 1.194 L 800.201 1.421 L 798.943 1.667 L 797.683 1.933 L 796.419 2.219 L 795.153 2.524 L 793.883 2.850 L 792.611 3.194 L 791.336 3.559 L 790.058 3.943 L 788.777 4.346 L 787.493 4.769 L 786.207 5.212 L 784.917 5.674 L 783.625 6.156 L 782.330 6.657 L 781.032 7.178 L 779.732 7.718 L 778.428 8.277 L 777.122 8.856 L 775.813 9.455 L 774.502 10.072 L 773.188 10.710 L 771.871 11.366 L 770.551 12.042 L 769.229 12.737 L 767.904 13.451 L 766.576 14.184 L 765.246 14.937 L 763.913 15.708 L 762.578 16.499 L 761.240 17.309 L 759.899 18.138 L 758.556 18.986 L 757.210 19.853 L 755.862 20.739 L 754.511 21.644 L 753.158 22.568 L 751.802 23.510 L 750.443 24.472 L 749.083 25.452 L 747.719 26.451 L 746.354 27.468 L 744.986 28.505 L 743.615 29.560 L 742.242 30.633 L 740.867 31.725 L 739.489 32.836 L 738.109 33.964 L 736.727 35.112 L 735.342 36.277 L 733.955 37.461 L 732.565 38.664 L 731.174 39.884 L 729.780 41.123 L 728.384 42.379 L 726.985 43.654 L 725.584 44.947 L 724.181 46.258 L 722.776 47.586 L 721.369 48.933 L 719.959 50.297 L 718.548 51.679 L 717.134 53.079 L 715.718 54.497 L 714.300 55.932 L 712.879 57.384 L 711.457 58.854 L 710.033 60.342 L 708.606 61.847 L 707.177 63.369 L 705.747 64.908 L 704.314 66.465 L 702.879 68.038 L 701.443 69.629 L 700.004 71.237 L 698.563 72.861 L 697.121 74.503 L 695.676 76.161 L 694.230 77.836 L 692.781 79.528 L 691.331 81.236 L 689.879 82.961 L 688.425 84.702 L 686.969 86.460 L 685.511 88.234 L 684.052 90.024 L 682.590 91.830 L 681.127 93.653 L 679.662 95.492 L 678.195 97.346 L 676.727 99.217 L 675.256 101.103 L 673.784 103.005 L 672.311 104.922 L 670.835 106.856 L 669.358 108.805 L 667.879 110.769 L 666.399 112.748 L 664.917 114.743 L 663.433 116.753 L 661.948 118.779 L 660.461 120.819 L 658.972 122.874 L 657.482 124.944 L 655.991 127.029 L 654.498 129.129 L 653.003 131.243 L 651.507 133.372 L 650.009 135.516 L 648.510 137.673 L 647.009 139.845 L 645.507 142.032 L 644.004 144.232 L 642.499 146.447 L 640.992 148.675 L 639.485 150.917 L 637.975 153.173 L 636.465 155.443 L 634.953 157.726 L 633.440 160.023 L 631.926 162.334 L 630.410 164.657 L 628.893 166.994 L 627.374 169.344 L 625.855 171.707 L 624.334 174.083 L 622.812 176.472 L 621.289 178.874 L 619.764 181.288 L 618.238 183.715 L 616.712 186.154 L 615.184 188.606 L 613.654 191.070 L 612.124 193.546 L 610.593 196.035 L 609.060 198.535 L 607.527 201.048 L 605.992 203.572 L 604.457 206.107 L 602.920 208.655 L 601.382 211.214 L 599.844 213.784 L 598.304 216.366 L 596.764 218.958 L 595.222 221.562 L 593.679 224.177 L 592.136 226.803 L 590.592 229.439 L 589.046 232.087 L 587.500 234.744 L 585.953 237.413 L 584.405 240.091 L 582.857 242.780 L 581.307 245.479 L 579.757 248.188 L 578.206 250.907 L 576.654 253.636 L 575.102 256.375 L 573.548 259.123 L 571.994 261.881 L 570.439 264.648 L 568.884 267.424 L 567.328 270.210 L 565.771 273.005 L 564.213 275.808 L 562.655 278.621 L 561.097 281.442 L 559.537 284.272 L 557.977 287.110 L 556.417 289.957 L 554.856 292.812 L 553.294 295.675 L 551.732 298.547 L 550.169 301.426 L 548.606 304.313 L 547.043 307.208 L 545.479 310.110 L 543.914 313.020 L 542.349 315.938 L 540.784 318.862 L 539.218 321.794 L 537.652 324.733 L 536.085 327.679 L 534.519 330.631 L 532.951 333.590 L 531.384 336.556 L 529.816 339.528 L 528.248 342.507 L 526.679 345.492 L 525.111 348.482 L 523.542 351.479 L 521.973 354.482 L 520.403 357.490 L 518.834 360.504 L 517.264 363.524 L 515.694 366.549 L 514.124 369.579 L 512.554 372.615 L 510.983 375.655 L 509.413 378.700 L 507.842 381.751 L 506.272 384.805 L 504.701 387.865 L 503.130 390.928 L 501.559 393.996 L 499.989 397.069 L 498.418 400.145 L 496.847 403.225 L 495.276 406.309 L 493.706 409.397 L 492.135 412.488 L 490.564 415.583 L 488.994 418.681 L 487.424 421.783 L 485.853 424.887 L 484.283 427.995 L 482.713 431.105 L 481.143 434.218 L 479.574 437.333 L 478.005 440.451 L 476.435 443.572 L 474.866 446.694 L 473.298 449.819 L 471.729 452.946 L 470.161 456.074 L 468.593 459.205 L 467.026 462.337 L 465.459 465.470 L 463.892 468.605 L 462.325 471.741 L 460.759 474.878 L 459.193 478.016 L 457.628 481.155 L 456.063 484.295 L 454.499 487.435 L 452.934 490.576 L 451.371 493.717 L 449.808 496.858 L 448.245 500.000 L 446.683 503.142 L 445.121 506.283 L 443.560 509.424 L 442.000 512.565 L 440.440 515.705 L 438.881 518.845 L 437.322 521.984 L 435.764 525.122 L 434.206 528.259 L 432.650 531.395 L 431.094 534.530 L 429.538 537.663 L 427.983 540.795 L 426.429 543.926 L 424.876 547.054 L 423.323 550.181 L 421.771 553.306 L 420.220 556.428 L 418.670 559.549 L 417.121 562.667 L 415.572 565.782 L 414.024 568.895 L 412.477 572.005 L 410.931 575.113 L 409.386 578.217 L 407.842 581.319 L 406.298 584.417 L 404.756 587.512 L 403.214 590.603 L 401.673 593.691 L 400.134 596.775 L 398.595 599.855 L 397.058 602.931 L 395.521 606.004 L 393.985 609.072 L 392.451 612.135 L 390.917 615.195 L 389.385 618.249 L 387.853 621.300 L 386.323 624.345 L 384.794 627.385 L 383.266 630.421 L 381.739 633.451 L 380.214 636.476 L 378.689 639.496 L 377.166 642.510 L 375.644 645.518 L 374.123 648.521 L 372.604 651.518 L 371.085 654.508 L 369.568 657.493 L 368.052 660.472 L 366.538 663.444 L 365.025 666.410 L 363.513 669.369 L 362.003 672.321 L 360.493 675.267 L 358.986 678.206 L 357.479 681.138 L 355.974 684.062 L 354.471 686.980 L 352.969 689.890 L 351.468 692.792 L 349.969 695.687 L 348.471 698.574 L 346.975 701.453 L 345.481 704.325 L 343.988 707.188 L 342.496 710.043 L 341.006 712.890 L 339.517 715.728 L 338.030 718.558 L 336.545 721.379 L 335.062 724.192 L 333.579 726.995 L 332.099 729.790 L 330.620 732.576 L 329.143 735.352 L 327.668 738.119 L 326.194 740.877 L 324.722 743.625 L 323.252 746.364 L 321.783 749.093 L 320.317 751.812 L 318.852 754.521 L 317.388 757.220 L 315.927 759.909 L 314.468 762.587 L 313.010 765.256 L 311.554 767.913 L 310.100 770.561 L 308.648 773.197 L 307.197 775.823 L 305.749 778.438 L 304.303 781.042 L 302.858 783.634 L 301.416 786.216 L 299.975 788.786 L 298.536 791.345 L 297.100 793.893 L 295.665 796.428 L 294.232 798.952 L 292.802 801.465 L 291.373 803.965 L 289.947 806.454 L 288.522 808.930 L 287.100 811.394 L 285.680 813.846 L 284.262 816.285 L 282.846 818.712 L 281.432 821.126 L 280.020 823.528 L 278.611 825.917 L 277.203 828.293 L 275.798 830.656 L 274.395 833.006 L 272.995 835.343 L 271.596 837.666 L 270.200 839.977 L 268.806 842.274 L 267.414 844.557 L 266.025 846.827 L 264.638 849.083 L 263.253 851.325 L 261.871 853.553 L 260.491 855.768 L 259.113 857.968 L 257.738 860.155 L 256.365 862.327 L 254.994 864.484 L 253.626 866.628 L 252.261 868.757 L 250.898 870.871 L 249.537 872.971 L 248.179 875.056 L 246.823 877.126 L 245.469 879.181 L 244.119 881.221 L 242.770 883.247 L 241.425 885.257 L 240.082 887.252 L 238.741 889.231 L 237.403 891.195 L 236.068 893.144 L 234.735 895.078 L 233.405 896.995 L 232.077 898.897 L 230.752 900.783 L 229.430 902.654 L 228.110 904.508 L 226.793 906.347 L 225.479 908.170 L 224.168 909.976 L 222.859 911.766 L 221.553 913.540 L 220.249 915.298 L 218.949 917.039 L 217.651 918.764 L 216.356 920.472 L 215.064 922.164 L 213.775 923.839 L 212.488 925.497 L 211.204 927.139 L 209.923 928.763 L 208.645 930.371 L 207.370 931.962 L 206.098 933.535 L 204.829 935.092 L 203.562 936.631 L 202.299 938.153 L 201.038 939.658 L 199.781 941.146 L 198.526 942.616 L 197.274 944.068 L 196.026 945.503 L 194.780 946.921 L 193.537 948.321 L 192.298 949.703 L 191.061 951.067 L 189.828 952.414 L 188.597 953.742 L 187.370 955.053 L 186.145 956.346 L 184.924 957.621 L 183.706 958.877 L 182.491 960.116 L 181.279 961.336 L 180.070 962.539 L 178.865 963.723 L 177.663 964.888 L 176.463 966.036 L 175.267 967.164 L 174.074 968.275 L 172.885 969.367 L 171.699 970.440 L 170.515 971.495 L 169.336 972.532 L 168.159 973.549 L 166.986 974.548 L 165.815 975.528 L 164.649 976.490 L 163.485 977.432 L 162.325 978.356 L 161.168 979.261 L 160.015 980.147 L 158.865 981.014 L 157.718 981.862 L 156.575 982.691 L 155.435 983.501 L 154.298 984.292 L 153.165 985.063 L 152.035 985.816 L 150.909 986.549 L 149.786 987.263 L 148.667 987.958 L 147.551 988.634 L 146.439 989.290 L 145.330 989.928 L 144.224 990.545 L 143.122 991.144 L 142.024 991.723 L 140.929 992.282 L 139.838 992.822 L 138.750 993.343 L 137.666 993.844 L 136.585 994.326 L 135.508 994.788 L 134.434 995.231 L 133.365 995.654 L 132.298 996.057 L 131.236 996.441 L 130.177 996.806 L 129.121 997.150 L 128.070 997.476 L 127.022 997.781 L 125.978 998.067 L 124.937 998.333 L 123.900 998.579 L 122.867 998.806 L 121.837 999.013 L 120.812 999.201 L 119.790 999.368 L 118.771 999.516 L 117.757 999.645 L 116.746 999.753 L 115.739 999.842 L 114.736 999.911 L 113.737 999.961 L 112.741 999.990 L 111.750 1000.000 L 110.762 999.990 L 109.778 999.961 L 108.797 999.911 L 107.821 999.842 L 106.849 999.753 L 105.880 999.645 L 104.915 999.516 L 103.955 999.368 L 102.998 999.201 L 102.045 999.013 L 101.096 998.806 L 100.151 998.579 L 99.210 998.333 L 98.273 998.067 L 97.339 997.781 L 96.410 997.476 L 95.485 997.150 L 94.564 996.806 L 93.646 996.441 L 92.733 996.057 L 91.824 995.654 L 90.919 995.231 L 90.017 994.788 L 89.120 994.326 L 88.227 993.844 L 87.338 993.343 L 86.453 992.822 L 85.572 992.282 L 84.696 991.723 L 83.823 991.144 L 82.954 990.545 L 82.090 989.928 L 81.230 989.290 L 80.374 988.634 L 79.522 987.958 L 78.674 987.263 L 77.830 986.549 L 76.990 985.816 L 76.155 985.063 L 75.324 984.292 L 74.497 983.501 L 73.674 982.691 L 72.855 981.862 L 72.041 981.014 L 71.231 980.147 L 70.425 979.261 L 69.623 978.356 L 68.826 977.432 L 68.033 976.490 L 67.244 975.528 L 66.459 974.548 L 65.679 973.549 L 64.902 972.532 L 64.131 971.495 L 63.363 970.440 L 62.600 969.367 L 61.841 968.275 L 61.087 967.164 L 60.336 966.036 L 59.591 964.888 L 58.849 963.723 L 58.112 962.539 L 57.379 961.336 L 56.651 960.116 L 55.927 958.877 L 55.207 957.621 L 54.492 956.346 L 53.781 955.053 L 53.074 953.742 L 52.372 952.414 L 51.674 951.067 L 50.981 949.703 L 50.292 948.321 L 49.608 946.921 L 48.928 945.503 L 48.253 944.068 L 47.582 942.616 L 46.915 941.146 L 46.253 939.658 L 45.595 938.153 L 44.942 936.631 L 44.294 935.092 L 43.650 933.535 L 43.010 931.962 L 42.375 930.371 L 41.744 928.763 L 41.118 927.139 L 40.497 925.497 L 39.880 923.839 L 39.267 922.164 L 38.659 920.472 L 38.056 918.764 L 37.457 917.039 L 36.863 915.298 L 36.273 913.540 L 35.688 911.766 L 35.108 909.976 L 34.532 908.170 L 33.960 906.347 L 33.394 904.508 L 32.831 902.654 L 32.274 900.783 L 31.721 898.897 L 31.173 896.995 L 30.629 895.078 L 30.090 893.144 L 29.556 891.195 L 29.026 889.231 L 28.501 887.252 L 27.981 885.257 L 27.465 883.247 L 26.954 881.221 L 26.447 879.181 L 25.945 877.126 L 25.448 875.056 L 24.956 872.971 L 24.468 870.871 L 23.985 868.757 L 23.507 866.628 L 23.033 864.484 L 22.564 862.327 L 22.100 860.155 L 21.641 857.968 L 21.186 855.768 L 20.736 853.553 L 20.291 851.325 L 19.850 849.083 L 19.414 846.827 L 18.983 844.557 L 18.557 842.274 L 18.135 839.977 L 17.718 837.666 L 17.306 835.343 L 16.899 833.006 L 16.496 830.656 L 16.099 828.293 L 15.706 825.917 L 15.317 823.528 L 14.934 821.126 L 14.555 818.712 L 14.181 816.285 L 13.812 813.846 L 13.448 811.394 L 13.089 808.930 L 12.734 806.454 L 12.384 803.965 L 12.039 801.465 L 11.699 798.952 L 11.364 796.428 L 11.033 793.893 L 10.707 791.345 L 10.386 788.786 L 10.070 786.216 L 9.759 783.634 L 9.453 781.042 L 9.151 778.438 L 8.854 775.823 L 8.562 773.197 L 8.275 770.561 L 7.993 767.913 L 7.716 765.256 L 7.443 762.587 L 7.176 759.909 L 6.913 757.220 L 6.655 754.521 L 6.402 751.812 L 6.154 749.093 L 5.911 746.364 L 5.672 743.625 L 5.439 740.877 L 5.210 738.119 L 4.987 735.352 L 4.768 732.576 L 4.554 729.790 L 4.345 726.995 L 4.141 724.192 L 3.941 721.379 L 3.747 718.558 L 3.557 715.728 L 3.373 712.890 L 3.193 710.043 L 3.018 707.188 L 2.848 704.325 L 2.683 701.453 L 2.523 698.574 L 2.368 695.687 L 2.218 692.792 L 2.073 689.890 L 1.932 686.980 L 1.797 684.062 L 1.666 681.138 L 1.540 678.206 L 1.420 675.267 L 1.304 672.321 L 1.193 669.369 L 1.087 666.410 L 0.986 663.444 L 0.890 660.472 L 0.799 657.493 L 0.712 654.508 L 0.631 651.518 L 0.555 648.521 L 0.483 645.518 L 0.416 642.510 L 0.355 639.496 L 0.298 636.476 L 0.246 633.451 L 0.200 630.421 L 0.158 627.385 L 0.121 624.345 L 0.089 621.300 L 0.062 618.249 L 0.039 615.195 L 0.022 612.135 L 0.010 609.072 L 0.002 606.004 L 0.000 602.931 L 0.003 599.855 L 0.010 596.775 L 0.022 593.691 L 0.040 590.603 L 0.062 587.512 L 0.089 584.417 L 0.121 581.319 L 0.158 578.217 L 0.200 575.113 L 0.247 572.005 L 0.299 568.895 L 0.356 565.782 L 0.417 562.667 L 0.484 559.549 L 0.556 556.428 L 0.632 553.306 L 0.714 550.181 L 0.800 547.054 L 0.891 543.926 L 0.987 540.795 L 1.088 537.663 L 1.195 534.530 L 1.306 531.395 L 1.421 528.259 L 1.542 525.122 L 1.668 521.984 L 1.799 518.845 L 1.934 515.705 L 2.075 512.565 L 2.220 509.424 L 2.370 506.283 L 2.526 503.142 L 2.686 500.000 L 2.851 496.858 L 3.021 493.717 L 3.196 490.576 L 3.375 487.435 L 3.560 484.295 L 3.750 481.155 L 3.944 478.016 L 4.143 474.878 L 4.348 471.741 L 4.557 468.605 L 4.771 465.470 L 4.990 462.337 L 5.214 459.205 L 5.442 456.074 L 5.676 452.946 L 5.914 449.819 L 6.158 446.694 L 6.406 443.572 L 6.659 440.451 L 6.917 437.333 L 7.180 434.218 L 7.447 431.105 L 7.720 427.995 L 7.997 424.887 L 8.279 421.783 L 8.567 418.681 L 8.859 415.583 L 9.155 412.488 L 9.457 409.397 L 9.763 406.309 L 10.075 403.225 L 10.391 400.145 L 10.712 397.069 L 11.038 393.996 L 11.368 390.928 L 11.704 387.865 L 12.044 384.805 L 12.389 381.751 L 12.739 378.700 L 13.094 375.655 L 13.453 372.615 L 13.818 369.579 L 14.187 366.549 L 14.561 363.524 L 14.939 360.504 L 15.323 357.490 L 15.711 354.482 L 16.104 351.479 L 16.502 348.482 L 16.905 345.492 L 17.312 342.507 L 17.724 339.528 L 18.141 336.556 L 18.563 333.590 L 18.989 330.631 L 19.420 327.679 L 19.856 324.733 L 20.297 321.794 L 20.742 318.862 L 21.192 315.938 L 21.647 313.020 L 22.107 310.110 L 22.571 307.208 L 23.040 304.313 L 23.514 301.426 L 23.992 298.547 L 24.475 295.675 L 24.963 292.812 L 25.456 289.957 L 25.953 287.110 L 26.455 284.272 L 26.961 281.442 L 27.472 278.621 L 27.988 275.808 L 28.509 273.005 L 29.034 270.210 L 29.563 267.424 L 30.098 264.648 L 30.637 261.881 L 31.181 259.123 L 31.729 256.375 L 32.282 253.636 L 32.840 250.907 L 33.402 248.188 L 33.969 245.479 L 34.540 242.780 L 35.116 240.091 L 35.697 237.413 L 36.282 234.744 L 36.871 232.087 L 37.466 229.439 L 38.065 226.803 L 38.668 224.177 L 39.276 221.562 L 39.889 218.958 L 40.506 216.366 L 41.127 213.784 L 41.753 211.214 L 42.384 208.655 L 43.019 206.107 L 43.659 203.572 L 44.303 201.048 L 44.952 198.535 L 45.605 196.035 L 46.263 193.546 L 46.925 191.070 L 47.591 188.606 L 48.262 186.154 L 48.938 183.715 L 49.618 181.288 L 50.302 178.874 L 50.991 176.472 L 51.685 174.083 L 52.382 171.707 L 53.084 169.344 L 53.791 166.994 L 54.502 164.657 L 55.217 162.334 L 55.937 160.023 L 56.661 157.726 L 57.390 155.443 L 58.123 153.173 L 58.860 150.917 L 59.601 148.675 L 60.347 146.447 L 61.098 144.232 L 61.852 142.032 L 62.611 139.845 L 63.374 137.673 L 64.142 135.516 L 64.914 133.372 L 65.690 131.243 L 66.470 129.129 L 67.255 127.029 L 68.044 124.944 L 68.837 122.874 L 69.635 120.819 L 70.437 118.779 L 71.243 116.753 L 72.053 114.743 L 72.867 112.748 L 73.686 110.769 L 74.509 108.805 L 75.336 106.856 L 76.167 104.922 L 77.003 103.005 L 77.842 101.103 L 78.686 99.217 L 79.534 97.346 L 80.386 95.492 L 81.242 93.653 L 82.103 91.830 L 82.967 90.024 L 83.836 88.234 L 84.708 86.460 L 85.585 84.702 L 86.466 82.961 L 87.351 81.236 L 88.240 79.528 L 89.133 77.836 L 90.030 76.161 L 90.932 74.503 L 91.837 72.861 L 92.746 71.237 L 93.660 69.629 L 94.577 68.038 L 95.498 66.465 L 96.424 64.908 L 97.353 63.369 L 98.286 61.847 L 99.223 60.342 L 100.165 58.854 L 101.110 57.384 L 102.059 55.932 L 103.012 54.497 L 103.969 53.079 L 104.929 51.679 L 105.894 50.297 L 106.863 48.933 L 107.835 47.586 L 108.812 46.258 L 109.792 44.947 L 110.776 43.654 L 111.764 42.379 L 112.756 41.123 L 113.751 39.884 L 114.751 38.664 L 115.754 37.461 L 116.761 36.277 L 117.772 35.112 L 118.786 33.964 L 119.804 32.836 L 120.826 31.725 L 121.852 30.633 L 122.882 29.560 L 123.915 28.505 L 124.952 27.468 L 125.993 26.451 L 127.037 25.452 L 128.085 24.472 L 129.137 23.510 L 130.192 22.568 L 131.251 21.644 L 132.314 20.739 L 133.380 19.853 L 134.450 18.986 L 135.524 18.138 L 136.601 17.309 L 137.681 16.499 L 138.766 15.708 L 139.853 14.937 L 140.945 14.184 L 142.040 13.451 L 143.138 12.737 L 144.240 12.042 L 145.346 11.366 L 146.455 10.710 L 147.567 10.072 L 148.683 9.455 L 149.803 8.856 L 150.925 8.277 L 152.052 7.718 L 153.182 7.178 L 154.315 6.657 L 155.451 6.156 L 156.591 5.674 L 157.735 5.212 L 158.882 4.769 L 160.032 4.346 L 161.185 3.943 L 162.342 3.559 L 163.502 3.194 L 164.666 2.850 L 165.832 2.524 L 167.003 2.219 L 168.176 1.933 L 169.353 1.667 L 170.533 1.421 L 171.716 1.194 L 172.902 0.987 L 174.092 0.799 L 175.285 0.632 L 176.481 0.484 L 177.680 0.355 L 178.882 0.247 L 180.088 0.158 L 181.297 0.089 L 182.509 0.039 L 183.724 0.010 L 184.942 0.000 L 186.163 0.010 L 187.388 0.039 L 188.615 0.089 L 189.846 0.158 L 191.079 0.247 L 192.316 0.355 L 193.555 0.484 L 194.798 0.632 L 196.044 0.799 L 197.293 0.987 L 198.544 1.194 L 199.799 1.421 L 201.057 1.667 L 202.317 1.933 L 203.581 2.219 L 204.847 2.524 L 206.117 2.850 L 207.389 3.194 L 208.664 3.559 L 209.942 3.943 L 211.223 4.346 L 212.507 4.769 L 213.793 5.212 L 215.083 5.674 L 216.375 6.156 L 217.670 6.657 L 218.968 7.178 L 220.268 7.718 L 221.572 8.277 L 222.878 8.856 L 224.187 9.455 L 225.498 10.072 L 226.812 10.710 L 228.129 11.366 L 229.449 12.042 L 230.771 12.737 L 232.096 13.451 L 233.424 14.184 L 234.754 14.937 L 236.087 15.708 L 237.422 16.499 L 238.760 17.309 L 240.101 18.138 L 241.444 18.986 L 242.790 19.853 L 244.138 20.739 L 245.489 21.644 L 246.842 22.568 L 248.198 23.510 L 249.557 24.472 L 250.917 25.452 L 252.281 26.451 L 253.646 27.468 L 255.014 28.505 L 256.385 29.560 L 257.758 30.633 L 259.133 31.725 L 260.511 32.836 L 261.891 33.964 L 263.273 35.112 L 264.658 36.277 L 266.045 37.461 L 267.435 38.664 L 268.826 39.884 L 270.220 41.123 L 271.616 42.379 L 273.015 43.654 L 274.416 44.947 L 275.819 46.258 L 277.224 47.586 L 278.631 48.933 L 280.041 50.297 L 281.452 51.679 L 282.866 53.079 L 284.282 54.497 L 285.700 55.932 L 287.121 57.384 L 288.543 58.854 L 289.967 60.342 L 291.394 61.847 L 292.823 63.369 L 294.253 64.908 L 295.686 66.465 L 297.121 68.038 L 298.557 69.629 L 299.996 71.237 L 301.437 72.861 L 302.879 74.503 L 304.324 76.161 L 305.770 77.836 L 307.219 79.528 L 308.669 81.236 L 310.121 82.961 L 311.575 84.702 L 313.031 86.460 L 314.489 88.234 L 315.948 90.024 L 317.410 91.830 L 318.873 93.653 L 320.338 95.492 L 321.805 97.346 L 323.273 99.217 L 324.744 101.103 L 326.216 103.005 L 327.689 104.922 L 329.165 106.856 L 330.642 108.805 L 332.121 110.769 L 333.601 112.748 L 335.083 114.743 L 336.567 116.753 L 338.052 118.779 L 339.539 120.819 L 341.028 122.874 L 342.518 124.944 L 344.009 127.029 L 345.502 129.129 L 346.997 131.243 L 348.493 133.372 L 349.991 135.516 L 351.490 137.673 L 352.991 139.845 L 354.493 142.032 L 355.996 144.232 L 357.501 146.447 L 359.008 148.675 L 360.515 150.917 L 362.025 153.173 L 363.535 155.443 L 365.047 157.726 L 366.560 160.023 L 368.074 162.334 L 369.590 164.657 L 371.107 166.994 L 372.626 169.344 L 374.145 171.707 L 375.666 174.083 L 377.188 176.472 L 378.711 178.874 L 380.236 181.288 L 381.762 183.715 L 383.288 186.154 L 384.816 188.606 L 386.346 191.070 L 387.876 193.546 L 389.407 196.035 L 390.940 198.535 L 392.473 201.048 L 394.008 203.572 L 395.543 206.107 L 397.080 208.655 L 398.618 211.214 L 400.156 213.784 L 401.696 216.366 L 403.236 218.958 L 404.778 221.562 L 406.321 224.177 L 407.864 226.803 L 409.408 229.439 L 410.954 232.087 L 412.500 234.744 L 414.047 237.413 L 415.595 240.091 L 417.143 242.780 L 418.693 245.479 L 420.243 248.188 L 421.794 250.907 L 423.346 253.636 L 424.898 256.375 L 426.452 259.123 L 428.006 261.881 L 429.561 264.648 L 431.116 267.424 L 432.672 270.210 L 434.229 273.005 L 435.787 275.808 L 437.345 278.621 L 438.903 281.442 L 440.463 284.272 L 442.023 287.110 L 443.583 289.957 L 445.144 292.812 L 446.706 295.675 L 448.268 298.547 L 449.831 301.426 L 451.394 304.313 L 452.957 307.208 L 454.521 310.110 L 456.086 313.020 L 457.651 315.938 L 459.216 318.862 L 460.782 321.794 L 462.348 324.733 L 463.915 327.679 L 465.481 330.631 L 467.049 333.590 L 468.616 336.556 L 470.184 339.528 L 471.752 342.507 L 473.321 345.492 L 474.889 348.482 L 476.458 351.479 L 478.027 354.482 L 479.597 357.490 L 481.166 360.504 L 482.736 363.524 L 484.306 366.549 L 485.876 369.579 L 487.446 372.615 L 489.017 375.655 L 490.587 378.700 L 492.158 381.751 L 493.728 384.805 L 495.299 387.865 L 496.870 390.928 L 498.441 393.996 L 500.011 397.069 L 501.582 400.145 L 503.153 403.225 L 504.724 406.309 L 506.294 409.397 L 507.865 412.488 L 509.436 415.583 L 511.006 418.681 L 512.576 421.783 L 514.147 424.887 L 515.717 427.995 L 517.287 431.105 L 518.857 434.218 L 520.426 437.333 L 521.995 440.451 L 523.565 443.572 L 525.134 446.694 L 526.702 449.819 L 528.271 452.946 L 529.839 456.074 L 531.407 459.205 L 532.974 462.337 L 534.541 465.470 L 536.108 468.605 L 537.675 471.741 L 539.241 474.878 L 540.807 478.016 L 542.372 481.155 L 543.937 484.295 L 545.501 487.435 L 547.066 490.576 L 548.629 493.717 L 550.192 496.858 L 551.755 500.000" fill="none" stroke="black" stroke-width="12.0" stroke-linecap="round" stroke-linejoin="round" vector-effect="non-scaling-stroke"/>
</svg>