<svg xmlns="http://www.w3.org/2000/svg" viewBox="-6.000 -6.000 1012.000 1012.000" preserveAspectRatio="xMidYMid meet">
    <path d="M 654.508 500.000 L 650.020 506.283 L 645.518 512.565 L 641.003 518.845 L 636.476 525.122 L 631.937 531.395 L 627.385 537.663 L 622.823 543.926 L 618.249 550.181 L 613.666 556.428 L 609.072 562.667 L 604.468 568.895 L 599.855 575.113 L 595.233 581.319 L 590.603 587.512 L 585.965 593.691 L 581.319 599.855 L 576.665 606.004 L 572.005 612.135 L 567.339 618.249 L 562.667 624.345 L 557.989 630.421 L 553.306 636.476 L 548.618 642.510 L 543.926 648.521 L 539.230 654.508 L 534.530 660.472 L 529.827 666.410 L 525.122 672.321 L 520.415 678.206 L 515.705 684.062 L 510.995 689.890 L 506.283 695.687 L 501.571 701.453 L 496.858 707.188 L 492.146 712.890 L 487.435 718.558 L 482.725 724.192 L 478.016 729.790 L 473.309 735.352 L 468.605 740.877 L 463.903 746.364 L 459.205 751.812 L 454.510 757.220 L 449.819 762.587 L 445.133 767.913 L 440.451 773.197 L 435.775 778.438 L 431.105 783.634 L 426.441 788.786 L 421.783 793.893 L 417.132 798.952 L 412.488 803.965 L 407.853 808.930 L 403.225 813.846 L 398.606 818.712 L 393.996 823.528 L 389.396 828.293 L 384.805 833.006 L 380.225 837.666 L 375.655 842.274 L 371.096 846.827 L 366.549 851.325 L 362.014 855.768 L 357.490 860.155 L 352.980 864.484 L 348.482 868.757 L 343.998 872.971 L 339.528 877.126 L 335.072 881.221 L 330.631 885.257 L 326.205 889.231 L 321.794 893.144 L 317.399 896.995 L 313.020 900.783 L 308.658 904.508 L 304.313 908.170 L 299.985 911.766 L 295.675 915.298 L 291.384 918.764 L 287.110 922.164 L 282.856 925.497 L 278.621 928.763 L 274.405 931.962 L 270.210 935.092 L 266.035 938.153 L 261.881 941.146 L 257.748 944.068 L 253.636 946.921 L 249.547 949.703 L 245.479 952.414 L 241.435 955.053 L 237.413 957.621 L 233.414 960.116 L 229.439 962.539 L 225.489 964.888 L 221.562 967.164 L 217.661 969.367 L 213.784 971.495 L 209.933 973.549 L 206.107 975.528 L 202.308 977.432 L 198.535 979.261 L 194.789 981.014 L 191.070 982.691 L 187.379 984.292 L 183.715 985.816 L 180.079 987.263 L 176.472 988.634 L 172.894 989.928 L 169.344 991.144 L 165.824 992.282 L 162.334 993.343 L 158.873 994.326 L 155.443 995.231 L 152.044 996.057 L 148.675 996.806 L 145.338 997.476 L 142.032 998.067 L 138.758 998.579 L 135.516 999.013 L 132.306 999.368 L 129.129 999.645 L 125.985 999.842 L 122.874 999.961 L 119.797 1000.000 L 116.753 999.961 L 113.744 999.842 L 110.769 999.645 L 107.828 999.368 L 104.922 999.013 L 102.052 998.579 L 99.217 998.067 L 96.417 997.476 L 93.653 996.806 L 90.925 996.057 L 88.234 995.231 L 85.579 994.326 L 82.961 993.343 L 80.380 992.282 L 77.836 991.144 L 75.330 989.928 L 72.861 988.634 L 70.431 987.263 L 68.038 985.816 L 65.684 984.292 L 63.369 982.691 L 61.092 981.014 L 58.854 979.261 L 56.656 977.432 L 54.497 975.528 L 52.377 973.549 L 50.297 971.495 L 48.258 969.367 L 46.258 967.164 L 44.298 964.888 L 42.379 962.539 L 40.501 960.116 L 38.664 957.621 L 36.867 955.053 L 35.112 952.414 L 33.398 949.703 L 31.725 946.921 L 30.094 944.068 L 28.505 941.146 L 26.957 938.153 L 25.452 935.092 L 23.989 931.962 L 22.568 928.763 L 21.189 925.497 L 19.853 922.164 L 18.560 918.764 L 17.309 915.298 L 16.101 911.766 L 14.937 908.170 L 13.815 904.508 L 12.737 900.783 L 11.701 896.995 L 10.710 893.144 L 9.761 889.231 L 8.856 885.257 L 7.995 881.221 L 7.178 877.126 L 6.404 872.971 L 5.674 868.757 L 4.988 864.484 L 4.346 860.155 L 3.748 855.768 L 3.194 851.325 L 2.685 846.827 L 2.219 842.274 L 1.798 837.666 L 1.421 833.006 L 1.088 828.293 L 0.799 823.528 L 0.555 818.712 L 0.355 813.846 L 0.200 808.930 L 0.089 803.965 L 0.022 798.952 L 0.000 793.893 L 0.022 788.786 L 0.089 783.634 L 0.200 778.438 L 0.355 773.197 L 0.555 767.913 L 0.799 762.587 L 1.088 757.220 L 1.421 751.812 L 1.798 746.364 L 2.219 740.877 L 2.685 735.352 L 3.194 729.790 L 3.748 724.192 L 4.346 718.558 L 4.988 712.890 L 5.674 707.188 L 6.404 701.453 L 7.178 695.687 L 7.995 689.890 L 8.856 684.062 L 9.761 678.206 L 10.710 672.321 L 11.701 666.410 L 12.737 660.472 L 13.815 654.508 L 14.937 648.521 L 16.101 642.510 L 17.309 636.476 L 18.560 630.421 L 19.853 624.345 L 21.189 618.249 L 22.568 612.135 L 23.989 606.004 L 25.452 599.855 L 26.957 593.691 L 28.505 587.512 L 30.094 581.319 L 31.725 575.113 L 33.398 568.895 L 35.112 562.667 L 36.867 556.428 L 38.664 550.181 L 40.501 543.926 L 42.379 537.663 L 44.298 531.395 L 46.258 525.122 L 48.258 518.845 L 50.297 512.565 L 52.377 506.283 L 54.497 500.000 L 56.656 493.717 L 58.854 487.435 L 61.092 481.155 L 63.369 474.878 L 65.684 468.605 L 68.038 462.337 L 70.431 456.074 L 72.861 449.819 L 75.330 443.572 L 77.836 437.333 L 80.380 431.105 L 82.961 424.887 L 85.579 418.681 L 88.234 412.488 L 90.925 406.309 L 93.653 400.145 L 96.417 393.996 L 99.217 387.865 L 102.052 381.751 L 104.922 375.655 L 107.828 369.579 L 110.769 363.524 L 113.744 357.490 L 116.753 351.479 L 119.797 345.492 L 122.874 339.528 L 125.985 333.590 L 129.129 327.679 L 132.306 321.794 L 135.516 315.938 L 138.758 310.110 L 142.032 304.313 L 145.338 298.547 L 148.675 292.812 L 152.044 287.110 L 155.443 281.442 L 158.873 275.808 L 162.334 270.210 L 165.824 264.648 L 169.344 259.123 L 172.894 253.636 L 176.472 248.188 L 180.079 242.780 L 183.715 237.413 L 187.379 232.087 L 191.070 226.803 L 194.789 221.562 L 198.535 216.366 L 202.308 211.214 L 206.107 206.107 L 209.933 201.048 L 213.784 196.035 L 217.661 191.070 L 221.562 186.154 L 225.489 181.288 L 229.439 176.472 L 233.414 171.707 L 237.413 166.994 L 241.435 162.334 L 245.479 157.726 L 249.547 153.173 L 253.636 148.675 L 257.748 144.232 L 261.881 139.845 L 266.035 135.516 L 270.210 131.243 L 274.405 127.029 L 278.621 122.874 L 282.856 118.779 L 287.110 114.743 L 291.384 110.769 L 295.675 106.856 L 299.985 103.005 L 304.313 99.217 L 308.658 95.492 L 313.020 91.830 L 317.399 88.234 L 321.794 84.702 L 326.205 81.236 L 330.631 77.836 L 335.072 74.503 L 339.528 71.237 L 343.998 68.038 L 348.482 64.908 L 352.980 61.847 L 357.490 58.854 L 362.014 55.932 L 366.549 53.079 L 371.096 50.297 L 375.655 47.586 L 380.225 44.947 L 384.805 42.379 L 389.396 39.884 L 393.996 37.461 L 398.606 35.112 L 403.225 32.836 L 407.853 30.633 L 412.488 28.505 L 417.132 26.451 L 421.783 24.472 L 426.441 22.568 L 431.105 20.739 L 435.775 18.986 L 440.451 17.309 L 445.133 15.708 L 449.819 14.184 L 454.510 12.737 L 459.205 11.366 L 463.903 10.072 L 468.605 8.856 L 473.309 7.718 L 478.016 6.657 L 482.725 5.674 L 487.435 4.769 L 492.146 3.943 L 496.858 3.194 L 501.571 2.524 L 506.283 1.933 L 510.995 1.421 L 515.705 0.987 L 520.415 0.632 L 525.122 0.355 L 529.827 0.158 L 534.530 0.039 L 539.230 0.000 L 543.926 0.039 L 548.618 0.158 L 553.306 0.355 L 557.989 0.632 L 562.667 0.987 L 567.339 1.421 L 572.005 1.933 L 576.665 2.524 L 581.319 3.194 L 585.965 3.943 L 590.603 4.769 L 595.233 5.674 L 599.855 6.657 L 604.468 7.718 L 609.072 8.856 L 613.666 10.072 L 618.249 11.366 L 622.823 12.737 L 627.385 14.184 L 631.937 15.708 L 636.476 17.309 L 641.003 18.986 L 645.518 20.739 L 650.020 22.568 L 654.508 24.472 L 658.983 26.451 L 663.444 28.505 L 667.890 30.633 L 672.321 32.836 L 676.737 35.112 L 681.138 37.461 L 685.522 39.884 L 689.890 42.379 L 694.240 44.947 L 698.574 47.586 L 702.890 50.297 L 707.188 53.079 L 711.467 55.932 L 715.728 58.854 L 719.970 61.847 L 724.192 64.908 L 728.394 68.038 L 732.576 71.237 L 736.737 74.503 L 740.877 77.836 L 744.996 81.236 L 749.093 84.702 L 753.167 88.234 L 757.220 91.830 L 761.249 95.492 L 765.256 99.217 L 769.238 103.005 L 773.197 106.856 L 777.132 110.769 L 781.042 114.743 L 784.927 118.779 L 788.786 122.874 L 792.620 127.029 L 796.428 131.243 L 800.210 135.516 L 803.965 139.845 L 807.693 144.232 L 811.394 148.675 L 815.067 153.173 L 818.712 157.726 L 822.329 162.334 L 825.917 166.994 L 829.476 171.707 L 833.006 176.472 L 836.506 181.288 L 839.977 186.154 L 843.417 191.070 L 846.827 196.035 L 850.206 201.048 L 853.553 206.107 L 856.870 211.214 L 860.155 216.366 L 863.407 221.562 L 866.628 226.803 L 869.816 232.087 L 872.971 237.413 L 876.092 242.780 L 879.181 248.188 L 882.236 253.636 L 885.257 259.123 L 888.243 264.648 L 891.195 270.210 L 894.113 275.808 L 896.995 281.442 L 899.842 287.110 L 902.654 292.812 L 905.430 298.547 L 908.170 304.313 L 910.873 310.110 L 913.540 315.938 L 916.171 321.794 L 918.764 327.679 L 921.320 333.590 L 923.839 339.528 L 926.320 345.492 L 928.763 351.479 L 931.168 357.490 L 933.535 363.524 L 935.864 369.579 L 938.153 375.655 L 940.404 381.751 L 942.616 387.865 L 944.788 393.996 L 946.921 400.145 L 949.014 406.309 L 951.067 412.488 L 953.080 418.681 L 955.053 424.887 L 956.985 431.105 L 958.877 437.333 L 960.728 443.572 L 962.539 449.819 L 964.308 456.074 L 966.036 462.337 L 967.722 468.605 L 969.367 474.878 L 970.970 481.155 L 972.532 487.435 L 974.051 493.717 L 975.528 500.000 L 976.963 506.283 L 978.356 512.565 L 979.706 518.845 L 981.014 525.122 L 982.279 531.395 L 983.501 537.663 L 984.680 543.926 L 985.816 550.181 L 986.909 556.428 L 987.958 562.667 L 988.965 568.895 L 989.928 575.113 L 990.847 581.319 L 991.723 587.512 L 992.555 593.691 L 993.343 599.855 L 994.087 606.004 L 994.788 612.135 L 995.445 618.249 L 996.057 624.345 L 996.626 630.421 L 997.150 636.476 L 997.631 642.510 L 998.067 648.521 L 998.459 654.508 L 998.806 660.472 L 999.110 666.410 L 999.368 672.321 L 999.583 678.206 L 999.753 684.062 L 999.879 689.890 L 999.961 695.687 L 999.998 701.453 L 999.990 707.188 L 999.938 712.890 L 999.842 718.558 L 999.701 724.192 L 999.516 729.790 L 999.287 735.352 L 999.013 740.877 L 998.695 746.364 L 998.333 751.812 L 997.926 757.220 L 997.476 762.587 L 996.980 767.913 L 996.441 773.197 L 995.858 778.438 L 995.231 783.634 L 994.559 788.786 L 993.844 793.893 L 993.085 798.952 L 992.282 803.965 L 991.436 808.930 L 990.545 813.846 L 989.611 818.712 L 988.634 823.528 L 987.613 828.293 L 986.549 833.006 L 985.442 837.666 L 984.292 842.274 L 983.098 846.827 L 981.862 851.325 L 980.583 855.768 L 979.261 860.155 L 977.897 864.484 L 976.490 868.757 L 975.041 872.971 L 973.549 877.126 L 972.016 881.221 L 970.440 885.257 L 968.823 889.231 L 967.164 893.144 L 965.464 896.995 L 963.723 900.783 L 961.940 904.508 L 960.116 908.170 L 958.251 911.766 L 956.346 915.298 L 954.400 918.764 L 952.414 922.164 L 950.387 925.497 L 948.321 928.763 L 946.214 931.962 L 944.068 935.092 L 941.883 938.153 L 939.658 941.146 L 937.394 944.068 L 935.092 946.921 L 932.751 949.703 L 930.371 952.414 L 927.953 955.053 L 925.497 957.621 L 923.004 960.116 L 920.472 962.539 L 917.904 964.888 L 915.298 967.164 L 912.655 969.367 L 909.976 971.495 L 907.260 973.549 L 904.508 975.528 L 901.721 977.432 L 898.897 979.261 L 896.038 981.014 L 893.144 982.691 L 890.215 984.292 L 887.252 985.816 L 884.253 987.263 L 881.221 988.634 L 878.155 989.928 L 875.056 991.144 L 871.923 992.282 L 868.757 993.343 L 865.558 994.326 L 862.327 995.231 L 859.063 996.057 L 855.768 996.806 L 852.441 997.476 L 849.083 998.067 L 845.693 998.579 L 842.274 999.013 L 838.823 999.368 L 835.343 999.645 L 831.833 999.842 L 828.293 999.961 L 824.724 1000.000 L 821.126 999.961 L 817.500 999.842 L 813.846 999.645 L 810.163 999.368 L 806.454 999.013 L 802.716 998.579 L 798.952 998.067 L 795.162 997.476 L 791.345 996.806 L 787.503 996.057 L 783.634 995.231 L 779.741 994.326 L 775.823 993.343 L 771.880 992.282 L 767.913 991.144 L 763.923 989.928 L 759.909 988.634 L 755.872 987.263 L 751.812 985.816 L 747.729 984.292 L 743.625 982.691 L 739.499 981.014 L 735.352 979.261 L 731.184 977.432 L 726.995 975.528 L 722.786 973.549 L 718.558 971.495 L 714.310 969.367 L 710.043 967.164 L 705.757 964.888 L 701.453 962.539 L 697.131 960.116 L 692.792 957.621 L 688.436 955.053 L 684.062 952.414 L 679.673 949.703 L 675.267 946.921 L 670.846 944.068 L 666.410 941.146 L 661.959 938.153 L 657.493 935.092 L 653.014 931.962 L 648.521 928.763 L 644.015 925.497 L 639.496 922.164 L 634.964 918.764 L 630.421 915.298 L 625.866 911.766 L 621.300 908.170 L 616.723 904.508 L 612.135 900.783 L 607.538 896.995 L 602.931 893.144 L 598.315 889.231 L 593.691 885.257 L 589.058 881.221 L 584.417 877.126 L 579.768 872.971 L 575.113 868.757 L 570.451 864.484 L 565.782 860.155 L 561.108 855.768 L 556.428 851.325 L 551.743 846.827 L 547.054 842.274 L 542.361 837.666 L 537.663 833.006 L 532.963 828.293 L 528.259 823.528 L 523.553 818.712 L 518.845 813.846 L 514.135 808.930 L 509.424 803.965 L 504.712 798.952 L 500.000 793.893 L 495.288 788.786 L 490.576 783.634 L 485.865 778.438 L 481.155 773.197 L 476.447 767.913 L 471.741 762.587 L 467.037 757.220 L 462.337 751.812 L 457.639 746.364 L 452.946 740.877 L 448.257 735.352 L 443.572 729.790 L 438.892 724.192 L 434.218 718.558 L 429.549 712.890 L 424.887 707.188 L 420.232 701.453 L 415.583 695.687 L 410.942 689.890 L 406.309 684.062 L 401.685 678.206 L 397.069 672.321 L 392.462 666.410 L 387.865 660.472 L 383.277 654.508 L 378.700 648.521 L 374.134 642.510 L 369.579 636.476 L 365.036 630.421 L 360.504 624.345 L 355.985 618.249 L 351.479 612.135 L 346.986 606.004 L 342.507 599.855 L 338.041 593.691 L 333.590 587.512 L 329.154 581.319 L 324.733 575.113 L 320.327 568.895 L 315.938 562.667 L 311.564 556.428 L 307.208 550.181 L 302.869 543.926 L 298.547 537.663 L 294.243 531.395 L 289.957 525.122 L 285.690 518.845 L 281.442 512.565 L 277.214 506.283 L 273.005 500.000 L 268.816 493.717 L 264.648 487.435 L 260.501 481.155 L 256.375 474.878 L 252.271 468.605 L 248.188 462.337 L 244.128 456.074 L 240.091 449.819 L 236.077 443.572 L 232.087 437.333 L 228.120 431.105 L 224.177 424.887 L 220.259 418.681 L 216.366 412.488 L 212.497 406.309 L 208.655 400.145 L 204.838 393.996 L 201.048 387.865 L 197.284 381.751 L 193.546 375.655 L 189.837 369.579 L 186.154 363.524 L 182.500 357.490 L 178.874 351.479 L 175.276 345.492 L 171.707 339.528 L 168.167 333.590 L 164.657 327.679 L 161.177 321.794 L 157.726 315.938 L 154.307 310.110 L 150.917 304.313 L 147.559 298.547 L 144.232 292.812 L 140.937 287.110 L 137.673 281.442 L 134.442 275.808 L 131.243 270.210 L 128.077 264.648 L 124.944 259.123 L 121.845 253.636 L 118.779 248.188 L 115.747 242.780 L 112.748 237.413 L 109.785 232.087 L 106.856 226.803 L 103.962 221.562 L 101.103 216.366 L 98.279 211.214 L 95.492 206.107 L 92.740 201.048 L 90.024 196.035 L 87.345 191.070 L 84.702 186.154 L 82.096 181.288 L 79.528 176.472 L 76.996 171.707 L 74.503 166.994 L 72.047 162.334 L 69.629 157.726 L 67.249 153.173 L 64.908 148.675 L 62.606 144.232 L 60.342 139.845 L 58.117 135.516 L 55.932 131.243 L 53.786 127.029 L 51.679 122.874 L 49.613 118.779 L 47.586 114.743 L 45.600 110.769 L 43.654 106.856 L 41.749 103.005 L 39.884 99.217 L 38.060 95.492 L 36.277 91.830 L 34.536 88.234 L 32.836 84.702 L 31.177 81.236 L 29.560 77.836 L 27.984 74.503 L 26.451 71.237 L 24.959 68.038 L 23.510 64.908 L 22.103 61.847 L 20.739 58.854 L 19.417 55.932 L 18.138 53.079 L 16.902 50.297 L 15.708 47.586 L 14.558 44.947 L 13.451 42.379 L 12.387 39.884 L 11.366 37.461 L 10.389 35.112 L 9.455 32.836 L 8.564 30.633 L 7.718 28.505 L 6.915 26.451 L 6.156 24.472 L 5.441 22.568 L 4.769 20.739 L 4.142 18.986 L 3.559 17.309 L 3.020 15.708 L 2.524 14.184 L 2.074 12.737 L 1.667 11.366 L 1.305 10.072 L 0.987 8.856 L 0.713 7.718 L 0.484 6.657 L 0.299 5.674 L 0.158 4.769 L 0.062 3.943 L 0.010 3.194 L 0.002 2.524 L 0.039 1.933 L 0.121 1.421 L 0.247 0.987 L 0.417 0.632 L 0.632 0.355 L 0.890 0.158 L 1.194 0.039 L 1.541 0.000 L 1.933 0.039 L 2.369 0.158 L 2.850 0.355 L 3.374 0.632 L 3.943 0.987 L 4.555 1.421 L 5.212 1.933 L 5.913 2.524 L 6.657 3.194 L 7.445 3.943 L 8.277 4.769 L 9.153 5.674 L 10.072 6.657 L 11.035 7.718 L 12.042 8.856 L 13.091 10.072 L 14.184 11.366 L 15.320 12.737 L 16.499 14.184 L 17.721 15.708 L 18.986 17.309 L 20.294 18.986 L 21.644 20.739 L 23.037 22.568 L 24.472 24.472 L 25.949 26.451 L 27.468 28.505 L 29.030 30.633 L 30.633 32.836 L 32.278 35.112 L 33.964 37.461 L 35.692 39.884 L 37.461 42.379 L 39.272 44.947 L 41.123 47.586 L 43.015 50.297 L 44.947 53.079 L 46.920 55.932 L 48.933 58.854 L 50.986 61.847 L 53.079 64.908 L 55.212 68.038 L 57.384 71.237 L 59.596 74.503 L 61.847 77.836 L 64.136 81.236 L 66.465 84.702 L 68.832 88.234 L 71.237 91.830 L 73.680 95.492 L 76.161 99.217 L 78.680 103.005 L 81.236 106.856 L 83.829 110.769 L 86.460 114.743 L 89.127 118.779 L 91.830 122.874 L 94.570 127.029 L 97.346 131.243 L 100.158 135.516 L 103.005 139.845 L 105.887 144.232 L 108.805 148.675 L 111.757 153.173 L 114.743 157.726 L 117.764 162.334 L 120.819 166.994 L 123.908 171.707 L 127.029 176.472 L 130.184 181.288 L 133.372 186.154 L 136.593 191.070 L 139.845 196.035 L 143.130 201.048 L 146.447 206.107 L 149.794 211.214 L 153.173 216.366 L 156.583 221.562 L 160.023 226.803 L 163.494 232.087 L 166.994 237.413 L 170.524 242.780 L 174.083 248.188 L 177.671 253.636 L 181.288 259.123 L 184.933 264.648 L 188.606 270.210 L 192.307 275.808 L 196.035 281.442 L 199.790 287.110 L 203.572 292.812 L 207.380 298.547 L 211.214 304.313 L 215.073 310.110 L 218.958 315.938 L 222.868 321.794 L 226.803 327.679 L 230.762 333.590 L 234.744 339.528 L 238.751 345.492 L 242.780 351.479 L 246.833 357.490 L 250.907 363.524 L 255.004 369.579 L 259.123 375.655 L 263.263 381.751 L 267.424 387.865 L 271.606 393.996 L 275.808 400.145 L 280.030 406.309 L 284.272 412.488 L 288.533 418.681 L 292.812 424.887 L 297.110 431.105 L 301.426 437.333 L 305.760 443.572 L 310.110 449.819 L 314.478 456.074 L 318.862 462.337 L 323.263 468.605 L 327.679 474.878 L 332.110 481.155 L 336.556 487.435 L 341.017 493.717 L 345.492 500.000 L 349.980 506.283 L 354.482 512.565 L 358.997 518.845 L 363.524 525.122 L 368.063 531.395 L 372.615 537.663 L 377.177 543.926 L 381.751 550.181 L 386.334 556.428 L 390.928 562.667 L 395.532 568.895 L 400.145 575.113 L 404.767 581.319 L 409.397 587.512 L 414.035 593.691 L 418.681 599.855 L 423.335 606.004 L 427.995 612.135 L 432.661 618.249 L 437.333 624.345 L 442.011 630.421 L 446.694 636.476 L 451.382 642.510 L 456.074 648.521 L 460.770 654.508 L 465.470 660.472 L 470.173 666.410 L 474.878 672.321 L 479.585 678.206 L 484.295 684.062 L 489.005 689.890 L 493.717 695.687 L 498.429 701.453 L 503.142 707.188 L 507.854 712.890 L 512.565 718.558 L 517.275 724.192 L 521.984 729.790 L 526.691 735.352 L 531.395 740.877 L 536.097 746.364 L 540.795 751.812 L 545.490 757.220 L 550.181 762.587 L 554.867 767.913 L 559.549 773.197 L 564.225 778.438 L 568.895 783.634 L 573.559 788.786 L 578.217 793.893 L 582.868 798.952 L 587.512 803.965 L 592.147 808.930 L 596.775 813.846 L 601.394 818.712 L 606.004 823.528 L 610.604 828.293 L 615.195 833.006 L 619.775 837.666 L 624.345 842.274 L 628.904 846.827 L 633.451 851.325 L 637.986 855.768 L 642.510 860.155 L 647.020 864.484 L 651.518 868.757 L 656.002 872.971 L 660.472 877.126 L 664.928 881.221 L 669.369 885.257 L 673.795 889.231 L 678.206 893.144 L 682.601 896.995 L 686.980 900.783 L 691.342 904.508 L 695.687 908.170 L 700.015 911.766 L 704.325 915.298 L 708.616 918.764 L 712.890 922.164 L 717.144 925.497 L 721.379 928.763 L 725.595 931.962 L 729.790 935.092 L 733.965 938.153 L 738.119 941.146 L 742.252 944.068 L 746.364 946.921 L 750.453 949.703 L 754.521 952.414 L 758.565 955.053 L 762.587 957.621 L 766.586 960.116 L 770.561 962.539 L 774.511 964.888 L 778.438 967.164 L 782.339 969.367 L 786.216 971.495 L 790.067 973.549 L 793.893 975.528 L 797.692 977.432 L 801.465 979.261 L 805.211 981.014 L 808.930 982.691 L 812.621 984.292 L 816.285 985.816 L 819.921 987.263 L 823.528 988.634 L 827.106 989.928 L 830.656 991.144 L 834.176 992.282 L 837.666 993.343 L 841.127 994.326 L 844.557 995.231 L 847.956 996.057 L 851.325 996.806 L 854.662 997.476 L 857.968 998.067 L 861.242 998.579 L 864.484 999.013 L 867.694 999.368 L 870.871 999.645 L 874.015 999.842 L 877.126 999.961 L 880.203 1000.000 L 883.247 999.961 L 886.256 999.842 L 889.231 999.645 L 892.172 999.368 L 895.078 999.013 L 897.948 998.579 L 900.783 998.067 L 903.583 997.476 L 906.347 996.806 L 909.075 996.057 L 911.766 995.231 L 914.421 994.326 L 917.039 993.343 L 919.620 992.282 L 922.164 991.144 L 924.670 989.928 L 927.139 988.634 L 929.569 987.263 L 931.962 985.816 L 934.316 984.292 L 936.631 982.691 L 938.908 981.014 L 941.146 979.261 L 943.344 977.432 L 945.503 975.528 L 947.623 973.549 L 949.703 971.495 L 951.742 969.367 L 953.742 967.164 L 955.702 964.888 L 957.621 962.539 L 959.499 960.116 L 961.336 957.621 L 963.133 955.053 L 964.888 952.414 L 966.602 949.703 L 968.275 946.921 L 969.906 944.068 L 971.495 941.146 L 973.043 938.153 L 974.548 935.092 L 976.011 931.962 L 977.432 928.763 L 978.811 925.497 L 980.147 922.164 L 981.440 918.764 L 982.691 915.298 L 983.899 911.766 L 985.063 908.170 L 986.185 904.508 L 987.263 900.783 L 988.299 896.995 L 989.290 893.144 L 990.239 889.231 L 991.144 885.257 L 992.005 881.221 L 992.822 877.126 L 993.596 872.971 L 994.326 868.757 L 995.012 864.484 L 995.654 860.155 L 996.252 855.768 L 996.806 851.325 L 997.315 846.827 L 997.781 842.274 L 998.202 837.666 L 998.579 833.006 L 998.912 828.293 L 999.201 823.528 L 999.445 818.712 L 999.645 813.846 L 999.800 808.930 L 999.911 803.965 L 999.978 798.952 L 1000.000 793.893 L 999.978 788.786 L 999.911 783.634 L 999.800 778.438 L 999.645 773.197 L 999.445 767.913 L 999.201 762.587 L 998.912 757.220 L 998.579 751.812 L 998.202 746.364 L 997.781 740.877 L 997.315 735.352 L 996.806 729.790 L 996.252 724.192 L 995.654 718.558 L 995.012 712.890 L 994.326 707.188 L 993.596 701.453 L 992.822 695.687 L 992.005 689.890 L 991.144 684.062 L 990.239 678.206 L 989.290 672.321 L 988.299 666.410 L 987.263 660.472 L 986.185 654.508 L 985.063 648.521 L 983.899 642.510 L 982.691 636.476 L 981.440 630.421 L 980.147 624.345 L 978.811 618.249 L 977.432 612.135 L 976.011 606.004 L 974.548 599.855 L 973.043 593.691 L 971.495 587.512 L 969.906 581.319 L 968.275 575.113 L 966.602 568.895 L 964.888 562.667 L 963.133 556.428 L 961.336 550.181 L 959.499 543.926 L 957.621 537.663 L 955.702 531.395 L 953.742 525.122 L 951.742 518.845 L 949.703 512.565 L 947.623 506.283 L 945.503 500.000 L 943.344 493.717 L 941.146 487.435 L 938.908 481.155 L 936.631 474.878 L 934.316 468.605 L 931.962 462.337 L 929.569 456.074 L 927.139 449.819 L 924.670 443.572 L 922.164 437.333 L 919.620 431.105 L 917.039 424.887 L 914.421 418.681 L 911.766 412.488 L 909.075 406.309 L 906.347 400.145 L 903.583 393.996 L 900.783 387.865 L 897.948 381.751 L 895.078 375.655 L 892.172 369.579 L 889.231 363.524 L 886.256 357.490 L 883.247 351.479 L 880.203 345.492 L 877.126 339.528 L 874.015 333.590 L 870.871 327.679 L 867.694 321.794 L 864.484 315.938 L 861.242 310.110 L 857.968 304.313 L 854.662 298.547 L 851.325 292.812 L 847.956 287.110 L 844.557 281.442 L 841.127 275.808 L 837.666 270.210 L 834.176 264.648 L 830.656 259.123 L 827.106 253.636 L 823.528 248.188 L 819.921 242.780 L 816.285 237.413 L 812.621 232.087 L 808.930 226.803 L 805.211 221.562 L 801.465 216.366 L 797.692 211.214 L 793.893 206.107 L 790.067 201.048 L 786.216 196.035 L 782.339 191.070 L 778.438 186.154 L 774.511 181.288 L 770.561 176.472 L 766.586 171.707 L 762.587 166.994 L 758.565 162.334 L 754.521 157.726 L 750.453 153.173 L 746.364 148.675 L 742.252 144.232 L 738.119 139.845 L 733.965 135.516 L 729.790 131.243 L 725.595 127.029 L 721.379 122.874 L 717.144 118.779 L 712.890 114.743 L 708.616 110.769 L 704.325 106.856 L 700.015 103.005 L 695.687 99.217 L 691.342 95.492 L 686.980 91.830 L 682.601 88.234 L 678.206 84.702 L 673.795 81.236 L 669.369 77.836 L 664.928 74.503 L 660.472 71.237 L 656.002 68.038 L 651.518 64.908 L 647.020 61.847 L 642.510 58.854 L 637.986 55.932 L 633.451 53.079 L 628.904 50.297 L 624.345 47.586 L 619.775 44.947 L 615.195 42.379 L 610.604 39.884 L 606.004 37.461 L 601.394 35.112 L 596.775 32.836 L 592.147 30.633 L 587.512 28.505 L 582.868 26.451 L 578.217 24.472 L 573.559 22.568 L 568.895 20.739 L 564.225 18.986 L 559.549 17.309 L 554.867 15.708 L 550.181 14.184 L 545.490 12.737 L 540.795 11.366 L 536.097 10.072 L 531.395 8.856 L 526.691 7.718 L 521.984 6.657 L 517.275 5.674 L 512.565 4.769 L 507.854 3.943 L 503.142 3.194 L 498.429 2.524 L 493.717 1.933 L 489.005 1.421 L 484.295 0.987 L 479.585 0.632 L 474.878 0.355 L 470.173 0.158 L 465.470 0.039 L 460.770 0.000 L 456.074 0.039 L 451.382 0.158 L 446.694 0.355 L 442.011 0.632 L 437.333 0.987 L 432.661 1.421 L 427.995 1.933 L 423.335 2.524 L 418.681 3.194 L 414.035 3.943 L 409.397 4.769 L 404.767 5.674 L 400.145 6.657 L 395.532 7.718 L 390.928 8.856 L 386.334 10.072 L 381.751 11.366 L 377.177 12.737 L 372.615 14.184 L 368.063 15.708 L 363.524 17.309 L 358.997 18.986 L 354.482 20.739 L 349.980 22.568 L 345.492 24.472 L 341.017 26.451 L 336.556 28.505 L 332.110 30.633 L 327.679 32.836 L 323.263 35.112 L 318.862 37.461 L 314.478 39.884 L 310.110 42.379 L 305.760 44.947 L 301.426 47.586 L 297.110 50.297 L 292.812 53.079 L 288.533 55.932 L 284.272 58.854 L 280.030 61.847 L 275.808 64.908 L 271.606 68.038 L 267.424 71.237 L 263.263 74.503 L 259.123 77.836 L 255.004 81.236 L 250.907 84.702 L 246.833 88.234 L 242.780 91.830 L 238.751 95.492 L 234.744 99.217 L 230.762 103.005 L 226.803 106.856 L 222.868 110.769 L 218.958 114.743 L 215.073 118.779 L 211.214 122.874 L 207.380 127.029 L 203.572 131.243 L 199.790 135.516 L 196.035 139.845 L 192.307 144.232 L 188.606 148.675 L 184.933 153.173 L 181.288 157.726 L 177.671 162.334 L 174.083 166.994 L 170.524 171.707 L 166.994 176.472 L 163.494 181.288 L 160.023 186.154 L 156.583 191.070 L 153.173 196.035 L 149.794 201.048 L 146.447 206.107 L 143.130 211.214 L 139.845 216.366 L 136.593 221.562 L 133.372 226.803 L 130.184 232.087 L 127.029 237.413 L 123.908 242.780 L 120.819 248.188 L 117.764 253.636 L 114.743 259.123 L 111.757 264.648 L 108.805 270.210 L 105.887 275.808 L 103.005 281.442 L 100.158 287.110 L 97.346 292.812 L 94.570 298.547 L 91.830 304.313 L 89.127 310.110 L 86.460 315.938 L 83.829 321.794 L 81.236 327.679 L 78.680 333.590 L 76.161 339.528 L 73.680 345.492 L 71.237 351.479 L 68.832 357.490 L 66.465 363.524 L 64.136 369.579 L 61.847 375.655 L 59.596 381.751 L 57.384 387.865 L 55.212 393.996 L 53.079 400.145 L 50.986 406.309 L 48.933 412.488 L 46.920 418.681 L 44.947 424.887 L 43.015 431.105 L 41.123 437.333 L 39.272 443.572 L 37.461 449.819 L 35.692 456.074 L 33.964 462.337 L 32.278 468.605 L 30.633 474.878 L 29.030 481.155 L 27.468 487.435 L 25.949 493.717 L 24.472 500.000 L 23.037 506.283 L 21.644 512.565 L 20.294 518.845 L 18.986 525.122 L 17.721 531.395 L 16.499 537.663 L 15.320 543.926 L 14.184 550.181 L 13.091 556.428 L 12.042 562.667 L 11.035 568.895 L 10.072 575.113 L 9.153 581.319 L 8.277 587.512 L 7.445 593.691 L 6.657 599.855 L 5.913 606.004 L 5.212 612.135 L 4.555 618.249 L 3.943 624.345 L 3.374 630.421 L 2.850 636.476 L 2.369 642.510 L 1.933 648.521 L 1.541 654.508 L 1.194 660.472 L 0.890 666.410 L 0.632 672.321 L 0.417 678.206 L 0.247 684.062 L 0.121 689.890 L 0.039 695.687 L 0.002 701.453 L 0.010 707.188 L 0.062 712.890 L 0.158 718.558 L 0.299 724.192 L 0.484 729.790 L 0.713 735.352 L 0.987 740.877 L 1.305 746.364 L 1.667 751.812 L 2.074 757.220 L 2.524 762.587 L 3.020 767.913 L 3.559 773.197 L 4.142 778.438 L 4.769 783.634 L 5.441 788.786 L 6.156 793.893 L 6.915 798.952 L 7.718 803.965 L 8.564 808.930 L 9.455 813.846 L 10.389 818.712 L 11.366 823.528 L 12.387 828.293 L 13.451 833.006 L 14.558 837.666 L 15.708 842.274 L 16.902 846.827 L 18.138 851.325 L 19.417 855.768 L 20.739 860.155 L 22.103 864.484 L 23.510 868.757 L 24.959 872.971 L 26.451 877.126 L 27.984 881.221 L 29.560 885.257 L 31.177 889.231 L 32.836 893.144 L 34.536 896.995 L 36.277 900.783 L 38.060 904.508 L 39.884 908.170 L 41.749 911.766 L 43.654 915.298 L 45.600 918.764 L 47.586 922.164 L 49.613 925.497 L 51.679 928.763 L 53.786 931.962 L 55.932 935.092 L 58.117 938.153 L 60.342 941.146 L 62.606 944.068 L 64.908 946.921 L 67.249 949.703 L 69.629 952.414 L 72.047 955.053 L 74.503 957.621 L 76.996 960.116 L 79.528 962.539 L 82.096 964.888 L 84.702 967.164 L 87.345 969.367 L 90.024 971.495 L 92.740 973.549 L 95.492 975.528 L 98.279 977.432 L 101.103 979.261 L 103.962 981.014 L 106.856 982.691 L 109.785 984.292 L 112.748 985.816 L 115.747 987.263 L 118.779 988.634 L 121.845 989.928 L 124.944 991.144 L 128.077 992.282 L 131.243 993.343 L 134.442 994.326 L 137.673 995.231 L 140.937 996.057 L 144.232 996.806 L 147.559 997.476 L 150.917 998.067 L 154.307 998.579 L 157.726 999.013 L 161.177 999.368 L 164.657 999.645 L 168.167 999.842 L 171.707 999.961 L 175.276 1000.000 L 178.874 999.961 L 182.500 999.842 L 186.154 999.645 L 189.837 999.368 L 193.546 999.013 L 197.284 998.579 L 201.048 998.067 L 204.838 997.476 L 208.655 996.806 L 212.497 996.057 L 216.366 995.231 L 220.259 994.326 L 224.177 993.343 L 228.120 992.282 L 232.087 991.144 L 236.077 989.928 L 240.091 988.634 L 244.128 987.263 L 248.188 985.816 L 252.271 984.292 L 256.375 982.691 L 260.501 981.014 L 264.648 979.261 L 268.816 977.432 L 273.005 975.528 L 277.214 973.549 L 281.442 971.495 L 285.690 969.367 L 289.957 967.164 L 294.243 964.888 L 298.547 962.539 L 302.869 960.116 L 307.208 957.621 L 311.564 955.053 L 315.938 952.414 L 320.327 949.703 L 324.733 946.921 L 329.154 944.068 L 333.590 941.146 L 338.041 938.153 L 342.507 935.092 L 346.986 931.962 L 351.479 928.763 L 355.985 925.497 L 360.504 922.164 L 365.036 918.764 L 369.579 915.298 L 374.134 911.766 L 378.700 908.170 L 383.277 904.508 L 387.865 900.783 L 392.462 896.995 L 397.069 893.144 L 401.685 889.231 L 406.309 885.257 L 410.942 881.221 L 415.583 877.126 L 420.232 872.971 L 424.887 868.757 L 429.549 864.484 L 434.218 860.155 L 438.892 855.768 L 443.572 851.325 L 448.257 846.827 L 452.946 842.274 L 457.639 837.666 L 462.337 833.006 L 467.037 828.293 L 471.741 823.528 L 476.447 818.712 L 481.155 813.846 L 485.865 808.930 L 490.576 803.965 L 495.288 798.952 L 500.000 793.893 L 504.712 788.786 L 509.424 783.634 L 514.135 778.438 L 518.845 773.197 L 523.553 767.913 L 528.259 762.587 L 532.963 757.220 L 537.663 751.812 L 542.361 746.364 L 547.054 740.877 L 551.743 735.352 L 556.428 729.790 L 561.108 724.192 L 565.782 718.558 L 570.451 712.890 L 575.113 707.188 L 579.768 701.453 L 584.417 695.687 L 589.058 689.890 L 593.691 684.062 L 598.315 678.206 L 602.931 672.321 L 607.538 666.410 L 612.135 660.472 L 616.723 654.508 L 621.300 648.521 L 625.866 642.510 L 630.421 636.476 L 634.964 630.421 L 639.496 624.345 L 644.015 618.249 L 648.521 612.135 L 653.014 606.004 L 657.493 599.855 L 661.959 593.691 L 666.410 587.512 L 670.846 581.319 L 675.267 575.113 L 679.673 568.895 L 684.062 562.667 L 688.436 556.428 L 692.792 550.181 L 697.131 543.926 L 701.453 537.663 L 705.757 531.395 L 710.043 525.122 L 714.310 518.845 L 718.558 512.565 L 722.786 506.283 L 726.995 500.000 L 731.184 493.717 L 735.352 487.435 L 739.499 481.155 L 743.625 474.878 L 747.729 468.605 L 751.812 462.337 L 755.872 456.074 L 759.909 449.819 L 763.923 443.572 L 767.913 437.333 L 771.880 431.105 L 775.823 424.887 L 779.741 418.681 L 783.634 412.488 L 787.503 406.309 L 791.345 400.145 L 795.162 393.996 L 798.952 387.865 L 802.716 381.751 L 806.454 375.655 L 810.163 369.579 L 813.846 363.524 L 817.500 357.490 L 821.126 351.479 L 824.724 345.492 L 828.293 339.528 L 831.833 333.590 L 835.343 327.679 L 838.823 321.794 L 842.274 315.938 L 845.693 310.110 L 849.083 304.313 L 852.441 298.547 L 855.768 292.812 L 859.063 287.110 L 862.327 281.442 L 865.558 275.808 L 868.757 270.210 L 871.923 264.648 L 875.056 259.123 L 878.155 253.636 L 881.221 248.188 L 884.253 242.780 L 887.252 237.413 L 890.215 232.087 L 893.144 226.803 L 896.038 221.562 L 898.897 216.366 L 901.721 211.214 L 904.508 206.107 L 907.260 201.048 L 909.976 196.035 L 912.655 191.070 L 915.298 186.154 L 917.904 181.288 L 920.472 176.472 L 923.004 171.707 L 925.497 166.994 L 927.953 162.334 L 930.371 157.726 L 932.751 153.173 L 935.092 148.675 L 937.394 144.232 L 939.658 139.845 L 941.883 135.516 L 944.068 131.243 L 946.214 127.029 L 948.321 122.874 L 950.387 118.779 L 952.414 114.743 L 954.400 110.769 L 956.346 106.856 L 958.251 103.005 L 960.116 99.217 L 961.940 95.492 L 963.723 91.830 L 965.464 88.234 L 967.164 84.702 L 968.823 81.236 L 970.440 77.836 L 972.016 74.503 L 973.549 71.237 L 975.041 68.038 L 976.490 64.908 L 977.897 61.847 L 979.261 58.854 L 980.583 55.932 L 981.862 53.079 L 983.098 50.297 L 984.292 47.586 L 985.442 44.947 L 986.549 42.379 L 987.613 39.884 L 988.634 37.461 L 989.611 35.112 L 990.545 32.836 L 991.436 30.633 L 992.282 28.505 L 993.085 26.451 L 993.844 24.472 L 994.559 22.568 L 995.231 20.739 L 995.858 18.986 L 996.441 17.309 L 996.980 15.708 L 997.476 14.184 L 997.926 12.737 L 998.333 11.366 L 998.695 10.072 L 999.013 8.856 L 999.287 7.718 L 999.516 6.657 L 999.701 5.674 L 999.842 4.769 L 999.938 3.943 L 999.990 3.194 L 999.998 2.524 L 999.961 1.933 L 999.879 1.421 L 999.753 0.987 L 999.583 0.632 L 999.368 0.355 L 999.110 0.158 L 998.806 0.039 L 998.459 0.000 L 998.067 0.039 L 997.631 0.158 L 997.150 0.355 L 996.626 0.632 L 996.057 0.987 L 995.445 1.421 L 994.788 1.933 L 994.087 2.524 L 993.343 3.194 L 992.555 3.943 L 991.723 4.769 L 990.847 5.674 L 989.928 6.657 L 988.965 7.718 L 987.958 8.856 L 986.909 10.072 L 985.816 11.366 L 984.680 12.737 L 983.501 14.184 L 982.279 15.708 L 981.014 17.309 L 979.706 18.986 L 978.356 20.739 L 976.963 22.568 L 975.528 24.472 L 974.051 26.451 L 972.532 28.505 L 970.970 30.633 L 969.367 32.836 L 967.722 35.112 L 966.036 37.461 L 964.308 39.884 L 962.539 42.379 L 960.728 44.947 L 958.877 47.586 L 956.985 50.297 L 955.053 53.079 L 953.080 55.932 L 951.067 58.854 L 949.014 61.847 L 946.921 64.908 L 944.788 68.038 L 942.616 71.237 L 940.404 74.503 L 938.153 77.836 L 935.864 81.236 L 933.535 84.702 L 931.168 88.234 L 928.763 91.830 L 926.320 95.492 L 923.839 99.217 L 921.320 103.005 L 918.764 106.856 L 916.171 110.769 L 913.540 114.743 L 910.873 118.779 L 908.170 122.874 L 905.430 127.029 L 902.654 131.243 L 899.842 135.516 L 896.995 139.845 L 894.113 144.232 L 891.195 148.675 L 888.243 153.173 L 885.257 157.726 L 882.236 162.334 L 879.181 166.994 L 876.092 171.707 L 872.971 176.472 L 869.816 181.288 L 866.628 186.154 L 863.407 191.070 L 860.155 196.035 L 856.870 201.048 L 853.553 206.107 L 850.206 211.214 L 846.827 216.366 L 843.417 221.562 L 839.977 226.803 L 836.506 232.087 L 833.006 237.413 L 829.476 242.780 L 825.917 248.188 L 822.329 253.636 L 818.712 259.123 L 815.067 264.648 L 811.394 270.210 L 807.693 275.808 L 803.965 281.442 L 800.210 287.110 L 796.428 292.812 L 792.620 298.547 L 788.786 304.313 L 784.927 310.110 L 781.042 315.938 L 777.132 321.794 L 773.197 327.679 L 769.238 333.590 L 765.256 339.528 L 761.249 345.492 L 757.220 351.479 L 753.167 357.490 L 749.093 363.524 L 744.996 369.579 L 740.877 375.655 L 736.737 381.751 L 732.576 387.865 L 728.394 393.996 L 724.192 400.145 L 719.970 406.309 L 715.728 412.488 L 711.467 418.681 L 707.188 424.887 L 702.890 431.105 L 698.574 437.333 L 694.240 443.572 L 689.890 449.819 L 685.522 456.074 L 681.138 462.337 L 676.737 468.605 L 672.321 474.878 L 667.890 481.155 L 663.444 487.435 L 658.983 493.717 L 654.508 500.000" fill="none" stroke="black" stroke-width="12.0" stroke-linecap="round" stroke-linejoin="round" vector-effect="non-scaling-stroke"/>
</svg>