<svg xmlns="http://www.w3.org/2000/svg" viewBox="-5.999 -6.000 1011.997 1012.000" preserveAspectRatio="xMidYMid meet">
    <path d="M 323.611 500.000 L 320.675 504.712 L 317.746 509.424 L 314.824 514.135 L 311.909 518.845 L 309.002 523.553 L 306.103 528.259 L 303.211 532.963 L 300.327 537.663 L 297.451 542.361 L 294.582 547.054 L 291.722 551.743 L 288.870 556.428 L 286.027 561.108 L 283.191 565.782 L 280.365 570.451 L 277.547 575.113 L 274.738 579.768 L 271.938 584.417 L 269.146 589.058 L 266.364 593.691 L 263.591 598.315 L 260.828 602.931 L 258.074 607.538 L 255.329 612.135 L 252.594 616.723 L 249.869 621.300 L 247.154 625.866 L 244.449 630.421 L 241.753 634.964 L 239.068 639.496 L 236.394 644.015 L 233.729 648.521 L 231.076 653.014 L 228.432 657.493 L 225.800 661.959 L 223.178 666.410 L 220.568 670.846 L 217.968 675.267 L 215.379 679.673 L 212.802 684.062 L 210.236 688.436 L 207.682 692.792 L 205.139 697.131 L 202.607 701.453 L 200.088 705.757 L 197.580 710.043 L 195.084 714.310 L 192.600 718.558 L 190.129 722.786 L 187.669 726.995 L 185.222 731.184 L 182.788 735.352 L 180.366 739.499 L 177.956 743.625 L 175.559 747.729 L 173.175 751.812 L 170.804 755.872 L 168.446 759.909 L 166.101 763.923 L 163.769 767.913 L 161.451 771.880 L 159.146 775.823 L 156.854 779.741 L 154.576 783.634 L 152.311 787.503 L 150.060 791.345 L 147.823 795.162 L 145.600 798.952 L 143.391 802.716 L 141.196 806.454 L 139.015 810.163 L 136.849 813.846 L 134.696 817.500 L 132.559 821.126 L 130.435 824.724 L 128.326 828.293 L 126.232 831.833 L 124.153 835.343 L 122.089 838.823 L 120.039 842.274 L 118.004 845.693 L 115.985 849.083 L 113.981 852.441 L 111.992 855.768 L 110.018 859.063 L 108.059 862.327 L 106.116 865.558 L 104.189 868.757 L 102.277 871.923 L 100.381 875.056 L 98.501 878.155 L 96.637 881.221 L 94.788 884.253 L 92.956 887.252 L 91.139 890.215 L 89.339 893.144 L 87.555 896.038 L 85.787 898.897 L 84.036 901.721 L 82.301 904.508 L 80.582 907.260 L 78.880 909.976 L 77.195 912.655 L 75.526 915.298 L 73.875 917.904 L 72.240 920.472 L 70.621 923.004 L 69.020 925.497 L 67.436 927.953 L 65.869 930.371 L 64.319 932.751 L 62.786 935.092 L 61.271 937.394 L 59.772 939.658 L 58.292 941.883 L 56.828 944.068 L 55.382 946.214 L 53.954 948.321 L 52.543 950.387 L 51.150 952.414 L 49.775 954.400 L 48.417 956.346 L 47.078 958.251 L 45.756 960.116 L 44.452 961.940 L 43.166 963.723 L 41.898 965.464 L 40.648 967.164 L 39.416 968.823 L 38.203 970.440 L 37.008 972.016 L 35.831 973.549 L 34.672 975.041 L 33.532 976.490 L 32.410 977.897 L 31.306 979.261 L 30.221 980.583 L 29.155 981.862 L 28.107 983.098 L 27.078 984.292 L 26.068 985.442 L 25.076 986.549 L 24.103 987.613 L 23.149 988.634 L 22.213 989.611 L 21.297 990.545 L 20.399 991.436 L 19.520 992.282 L 18.660 993.085 L 17.820 993.844 L 16.998 994.559 L 16.195 995.231 L 15.412 995.858 L 14.647 996.441 L 13.902 996.980 L 13.176 997.476 L 12.469 997.926 L 11.782 998.333 L 11.113 998.695 L 10.464 999.013 L 9.835 999.287 L 9.224 999.516 L 8.633 999.701 L 8.062 999.842 L 7.509 999.938 L 6.977 999.990 L 6.464 999.998 L 5.970 999.961 L 5.496 999.879 L 5.041 999.753 L 4.606 999.583 L 4.190 999.368 L 3.794 999.110 L 3.417 998.806 L 3.061 998.459 L 2.723 998.067 L 2.406 997.631 L 2.108 997.150 L 1.829 996.626 L 1.571 996.057 L 1.332 995.445 L 1.112 994.788 L 0.913 994.087 L 0.733 993.343 L 0.573 992.555 L 0.432 991.723 L 0.312 990.847 L 0.211 989.928 L 0.129 988.965 L 0.068 987.958 L 0.026 986.909 L 0.004 985.816 L 0.001 984.680 L 0.019 983.501 L 0.056 982.279 L 0.113 981.014 L 0.189 979.706 L 0.286 978.356 L 0.402 976.963 L 0.538 975.528 L 0.693 974.051 L 0.868 972.532 L 1.063 970.970 L 1.278 969.367 L 1.512 967.722 L 1.766 966.036 L 2.040 964.308 L 2.333 962.539 L 2.646 960.728 L 2.979 958.877 L 3.331 956.985 L 3.703 955.053 L 4.094 953.080 L 4.505 951.067 L 4.936 949.014 L 5.386 946.921 L 5.856 944.788 L 6.345 942.616 L 6.853 940.404 L 7.381 938.153 L 7.929 935.864 L 8.496 933.535 L 9.082 931.168 L 9.688 928.763 L 10.313 926.320 L 10.958 923.839 L 11.621 921.320 L 12.304 918.764 L 13.007 916.171 L 13.728 913.540 L 14.469 910.873 L 15.229 908.170 L 16.008 905.430 L 16.806 902.654 L 17.623 899.842 L 18.459 896.995 L 19.315 894.113 L 20.189 891.195 L 21.082 888.243 L 21.994 885.257 L 22.925 882.236 L 23.875 879.181 L 24.843 876.092 L 25.831 872.971 L 26.837 869.816 L 27.862 866.628 L 28.905 863.407 L 29.967 860.155 L 31.047 856.870 L 32.146 853.553 L 33.264 850.206 L 34.400 846.827 L 35.554 843.417 L 36.727 839.977 L 37.918 836.506 L 39.127 833.006 L 40.354 829.476 L 41.600 825.917 L 42.864 822.329 L 44.145 818.712 L 45.445 815.067 L 46.763 811.394 L 48.098 807.693 L 49.451 803.965 L 50.823 800.210 L 52.211 796.428 L 53.618 792.620 L 55.042 788.786 L 56.484 784.927 L 57.943 781.042 L 59.420 777.132 L 60.914 773.197 L 62.425 769.238 L 63.954 765.256 L 65.500 761.249 L 67.063 757.220 L 68.643 753.167 L 70.240 749.093 L 71.854 744.996 L 73.485 740.877 L 75.133 736.737 L 76.798 732.576 L 78.479 728.394 L 80.177 724.192 L 81.892 719.970 L 83.623 715.728 L 85.371 711.467 L 87.135 707.188 L 88.915 702.890 L 90.711 698.574 L 92.524 694.240 L 94.352 689.890 L 96.197 685.522 L 98.058 681.138 L 99.934 676.737 L 101.826 672.321 L 103.734 667.890 L 105.658 663.444 L 107.597 658.983 L 109.552 654.508 L 111.522 650.020 L 113.508 645.518 L 115.508 641.003 L 117.524 636.476 L 119.555 631.937 L 121.601 627.385 L 123.662 622.823 L 125.738 618.249 L 127.829 613.666 L 129.934 609.072 L 132.054 604.468 L 134.188 599.855 L 136.337 595.233 L 138.500 590.603 L 140.678 585.965 L 142.869 581.319 L 145.075 576.665 L 147.295 572.005 L 149.529 567.339 L 151.776 562.667 L 154.038 557.989 L 156.313 553.306 L 158.601 548.618 L 160.903 543.926 L 163.218 539.230 L 165.547 534.530 L 167.889 529.827 L 170.244 525.122 L 172.612 520.415 L 174.993 515.705 L 177.387 510.995 L 179.793 506.283 L 182.212 501.571 L 184.644 496.858 L 187.088 492.146 L 189.545 487.435 L 192.013 482.725 L 194.494 478.016 L 196.987 473.309 L 199.492 468.605 L 202.009 463.903 L 204.538 459.205 L 207.078 454.510 L 209.630 449.819 L 212.193 445.133 L 214.767 440.451 L 217.353 435.775 L 219.950 431.105 L 222.558 426.441 L 225.177 421.783 L 227.807 417.132 L 230.448 412.488 L 233.099 407.853 L 235.761 403.225 L 238.433 398.606 L 241.116 393.996 L 243.809 389.396 L 246.512 384.805 L 249.224 380.225 L 251.947 375.655 L 254.680 371.096 L 257.422 366.549 L 260.174 362.014 L 262.935 357.490 L 265.706 352.980 L 268.486 348.482 L 271.275 343.998 L 274.073 339.528 L 276.880 335.072 L 279.696 330.631 L 282.521 326.205 L 285.354 321.794 L 288.195 317.399 L 291.045 313.020 L 293.903 308.658 L 296.770 304.313 L 299.644 299.985 L 302.526 295.675 L 305.417 291.384 L 308.314 287.110 L 311.220 282.856 L 314.132 278.621 L 317.052 274.405 L 319.980 270.210 L 322.914 266.035 L 325.856 261.881 L 328.804 257.748 L 331.759 253.636 L 334.721 249.547 L 337.689 245.479 L 340.664 241.435 L 343.645 237.413 L 346.632 233.414 L 349.625 229.439 L 352.624 225.489 L 355.629 221.562 L 358.639 217.661 L 361.656 213.784 L 364.677 209.933 L 367.704 206.107 L 370.737 202.308 L 373.774 198.535 L 376.816 194.789 L 379.863 191.070 L 382.915 187.379 L 385.972 183.715 L 389.033 180.079 L 392.098 176.472 L 395.168 172.894 L 398.242 169.344 L 401.320 165.824 L 404.401 162.334 L 407.487 158.873 L 410.576 155.443 L 413.669 152.044 L 416.765 148.675 L 419.864 145.338 L 422.967 142.032 L 426.072 138.758 L 429.181 135.516 L 432.292 132.306 L 435.406 129.129 L 438.523 125.985 L 441.641 122.874 L 444.763 119.797 L 447.886 116.753 L 451.012 113.744 L 454.139 110.769 L 457.268 107.828 L 460.399 104.922 L 463.532 102.052 L 466.666 99.217 L 469.801 96.417 L 472.937 93.653 L 476.075 90.925 L 479.213 88.234 L 482.353 85.579 L 485.492 82.961 L 488.633 80.380 L 491.774 77.836 L 494.915 75.330 L 498.057 72.861 L 501.198 70.431 L 504.340 68.038 L 507.481 65.684 L 510.622 63.369 L 513.763 61.092 L 516.903 58.854 L 520.043 56.656 L 523.181 54.497 L 526.319 52.377 L 529.456 50.297 L 532.591 48.258 L 535.725 46.258 L 538.858 44.298 L 541.990 42.379 L 545.119 40.501 L 548.247 38.664 L 551.373 36.867 L 554.497 35.112 L 557.619 33.398 L 560.738 31.725 L 563.855 30.094 L 566.970 28.505 L 570.082 26.957 L 573.191 25.452 L 576.297 23.989 L 579.401 22.568 L 582.501 21.189 L 585.598 19.853 L 588.691 18.560 L 591.781 17.309 L 594.868 16.101 L 597.950 14.937 L 601.029 13.815 L 604.104 12.737 L 607.174 11.701 L 610.241 10.710 L 613.303 9.761 L 616.361 8.856 L 619.414 7.995 L 622.462 7.178 L 625.505 6.404 L 628.544 5.674 L 631.577 4.988 L 634.606 4.346 L 637.628 3.748 L 640.646 3.194 L 643.658 2.685 L 646.664 2.219 L 649.665 1.798 L 652.659 1.421 L 655.648 1.088 L 658.630 0.799 L 661.606 0.555 L 664.576 0.355 L 667.539 0.200 L 670.496 0.089 L 673.446 0.022 L 676.389 0.000 L 679.325 0.022 L 682.254 0.089 L 685.176 0.200 L 688.091 0.355 L 690.998 0.555 L 693.897 0.799 L 696.789 1.088 L 699.673 1.421 L 702.549 1.798 L 705.418 2.219 L 708.278 2.685 L 711.130 3.194 L 713.973 3.748 L 716.809 4.346 L 719.635 4.988 L 722.453 5.674 L 725.262 6.404 L 728.062 7.178 L 730.854 7.995 L 733.636 8.856 L 736.409 9.761 L 739.172 10.710 L 741.926 11.701 L 744.671 12.737 L 747.406 13.815 L 750.131 14.937 L 752.846 16.101 L 755.551 17.309 L 758.247 18.560 L 760.932 19.853 L 763.606 21.189 L 766.271 22.568 L 768.924 23.989 L 771.568 25.452 L 774.200 26.957 L 776.822 28.505 L 779.432 30.094 L 782.032 31.725 L 784.621 33.398 L 787.198 35.112 L 789.764 36.867 L 792.318 38.664 L 794.861 40.501 L 797.393 42.379 L 799.912 44.298 L 802.420 46.258 L 804.916 48.258 L 807.400 50.297 L 809.871 52.377 L 812.331 54.497 L 814.778 56.656 L 817.212 58.854 L 819.634 61.092 L 822.044 63.369 L 824.441 65.684 L 826.825 68.038 L 829.196 70.431 L 831.554 72.861 L 833.899 75.330 L 836.231 77.836 L 838.549 80.380 L 840.854 82.961 L 843.146 85.579 L 845.424 88.234 L 847.689 90.925 L 849.940 93.653 L 852.177 96.417 L 854.400 99.217 L 856.609 102.052 L 858.804 104.922 L 860.985 107.828 L 863.151 110.769 L 865.304 113.744 L 867.441 116.753 L 869.565 119.797 L 871.674 122.874 L 873.768 125.985 L 875.847 129.129 L 877.911 132.306 L 879.961 135.516 L 881.996 138.758 L 884.015 142.032 L 886.019 145.338 L 888.008 148.675 L 889.982 152.044 L 891.941 155.443 L 893.884 158.873 L 895.811 162.334 L 897.723 165.824 L 899.619 169.344 L 901.499 172.894 L 903.363 176.472 L 905.212 180.079 L 907.044 183.715 L 908.861 187.379 L 910.661 191.070 L 912.445 194.789 L 914.213 198.535 L 915.964 202.308 L 917.699 206.107 L 919.418 209.933 L 921.120 213.784 L 922.805 217.661 L 924.474 221.562 L 926.125 225.489 L 927.760 229.439 L 929.379 233.414 L 930.980 237.413 L 932.564 241.435 L 934.131 245.479 L 935.681 249.547 L 937.214 253.636 L 938.729 257.748 L 940.228 261.881 L 941.708 266.035 L 943.172 270.210 L 944.618 274.405 L 946.046 278.621 L 947.457 282.856 L 948.850 287.110 L 950.225 291.384 L 951.583 295.675 L 952.922 299.985 L 954.244 304.313 L 955.548 308.658 L 956.834 313.020 L 958.102 317.399 L 959.352 321.794 L 960.584 326.205 L 961.797 330.631 L 962.992 335.072 L 964.169 339.528 L 965.328 343.998 L 966.468 348.482 L 967.590 352.980 L 968.694 357.490 L 969.779 362.014 L 970.845 366.549 L 971.893 371.096 L 972.922 375.655 L 973.932 380.225 L 974.924 384.805 L 975.897 389.396 L 976.851 393.996 L 977.787 398.606 L 978.703 403.225 L 979.601 407.853 L 980.480 412.488 L 981.340 417.132 L 982.180 421.783 L 983.002 426.441 L 983.805 431.105 L 984.588 435.775 L 985.353 440.451 L 986.098 445.133 L 986.824 449.819 L 987.531 454.510 L 988.218 459.205 L 988.887 463.903 L 989.536 468.605 L 990.165 473.309 L 990.776 478.016 L 991.367 482.725 L 991.938 487.435 L 992.491 492.146 L 993.023 496.858 L 993.536 501.571 L 994.030 506.283 L 994.504 510.995 L 994.959 515.705 L 995.394 520.415 L 995.810 525.122 L 996.206 529.827 L 996.583 534.530 L 996.939 539.230 L 997.277 543.926 L 997.594 548.618 L 997.892 553.306 L 998.171 557.989 L 998.429 562.667 L 998.668 567.339 L 998.888 572.005 L 999.087 576.665 L 999.267 581.319 L 999.427 585.965 L 999.568 590.603 L 999.688 595.233 L 999.789 599.855 L 999.871 604.468 L 999.932 609.072 L 999.974 613.666 L 999.996 618.249 L 999.999 622.823 L 999.981 627.385 L 999.944 631.937 L 999.887 636.476 L 999.811 641.003 L 999.714 645.518 L 999.598 650.020 L 999.462 654.508 L 999.307 658.983 L 999.132 663.444 L 998.937 667.890 L 998.722 672.321 L 998.488 676.737 L 998.234 681.138 L 997.960 685.522 L 997.667 689.890 L 997.354 694.240 L 997.021 698.574 L 996.669 702.890 L 996.297 707.188 L 995.906 711.467 L 995.495 715.728 L 995.064 719.970 L 994.614 724.192 L 994.144 728.394 L 993.655 732.576 L 993.147 736.737 L 992.619 740.877 L 992.071 744.996 L 991.504 749.093 L 990.918 753.167 L 990.312 757.220 L 989.687 761.249 L 989.042 765.256 L 988.379 769.238 L 987.696 773.197 L 986.993 777.132 L 986.272 781.042 L 985.531 784.927 L 984.771 788.786 L 983.992 792.620 L 983.194 796.428 L 982.377 800.210 L 981.541 803.965 L 980.685 807.693 L 979.811 811.394 L 978.918 815.067 L 978.006 818.712 L 977.075 822.329 L 976.125 825.917 L 975.157 829.476 L 974.169 833.006 L 973.163 836.506 L 972.138 839.977 L 971.095 843.417 L 970.033 846.827 L 968.953 850.206 L 967.854 853.553 L 966.736 856.870 L 965.600 860.155 L 964.446 863.407 L 963.273 866.628 L 962.082 869.816 L 960.873 872.971 L 959.646 876.092 L 958.400 879.181 L 957.136 882.236 L 955.855 885.257 L 954.555 888.243 L 953.237 891.195 L 951.902 894.113 L 950.549 896.995 L 949.177 899.842 L 947.789 902.654 L 946.382 905.430 L 944.958 908.170 L 943.516 910.873 L 942.057 913.540 L 940.580 916.171 L 939.086 918.764 L 937.575 921.320 L 936.046 923.839 L 934.500 926.320 L 932.937 928.763 L 931.357 931.168 L 929.760 933.535 L 928.146 935.864 L 926.515 938.153 L 924.867 940.404 L 923.202 942.616 L 921.521 944.788 L 919.823 946.921 L 918.108 949.014 L 916.377 951.067 L 914.629 953.080 L 912.865 955.053 L 911.085 956.985 L 909.289 958.877 L 907.476 960.728 L 905.648 962.539 L 903.803 964.308 L 901.942 966.036 L 900.066 967.722 L 898.174 969.367 L 896.266 970.970 L 894.342 972.532 L 892.403 974.051 L 890.448 975.528 L 888.478 976.963 L 886.492 978.356 L 884.492 979.706 L 882.476 981.014 L 880.445 982.279 L 878.399 983.501 L 876.338 984.680 L 874.262 985.816 L 872.171 986.909 L 870.066 987.958 L 867.946 988.965 L 865.812 989.928 L 863.663 990.847 L 861.500 991.723 L 859.322 992.555 L 857.131 993.343 L 854.925 994.087 L 852.705 994.788 L 850.471 995.445 L 848.224 996.057 L 845.962 996.626 L 843.687 997.150 L 841.399 997.631 L 839.097 998.067 L 836.782 998.459 L 834.453 998.806 L 832.111 999.110 L 829.756 999.368 L 827.388 999.583 L 825.007 999.753 L 822.613 999.879 L 820.207 999.961 L 817.788 999.998 L 815.356 999.990 L 812.912 999.938 L 810.455 999.842 L 807.987 999.701 L 805.506 999.516 L 803.013 999.287 L 800.508 999.013 L 797.991 998.695 L 795.462 998.333 L 792.922 997.926 L 790.370 997.476 L 787.807 996.980 L 785.233 996.441 L 782.647 995.858 L 780.050 995.231 L 777.442 994.559 L 774.823 993.844 L 772.193 993.085 L 769.552 992.282 L 766.901 991.436 L 764.239 990.545 L 761.567 989.611 L 758.884 988.634 L 756.191 987.613 L 753.488 986.549 L 750.776 985.442 L 748.053 984.292 L 745.320 983.098 L 742.578 981.862 L 739.826 980.583 L 737.065 979.261 L 734.294 977.897 L 731.514 976.490 L 728.725 975.041 L 725.927 973.549 L 723.120 972.016 L 720.304 970.440 L 717.479 968.823 L 714.646 967.164 L 711.805 965.464 L 708.955 963.723 L 706.097 961.940 L 703.230 960.116 L 700.356 958.251 L 697.474 956.346 L 694.583 954.400 L 691.686 952.414 L 688.780 950.387 L 685.868 948.321 L 682.948 946.214 L 680.020 944.068 L 677.086 941.883 L 674.144 939.658 L 671.196 937.394 L 668.241 935.092 L 665.279 932.751 L 662.311 930.371 L 659.336 927.953 L 656.355 925.497 L 653.368 923.004 L 650.375 920.472 L 647.376 917.904 L 644.371 915.298 L 641.361 912.655 L 638.344 909.976 L 635.323 907.260 L 632.296 904.508 L 629.263 901.721 L 626.226 898.897 L 623.184 896.038 L 620.137 893.144 L 617.085 890.215 L 614.028 887.252 L 610.967 884.253 L 607.902 881.221 L 604.832 878.155 L 601.758 875.056 L 598.680 871.923 L 595.599 868.757 L 592.513 865.558 L 589.424 862.327 L 586.331 859.063 L 583.235 855.768 L 580.136 852.441 L 577.033 849.083 L 573.928 845.693 L 570.819 842.274 L 567.708 838.823 L 564.594 835.343 L 561.477 831.833 L 558.359 828.293 L 555.237 824.724 L 552.114 821.126 L 548.988 817.500 L 545.861 813.846 L 542.732 810.163 L 539.601 806.454 L 536.468 802.716 L 533.334 798.952 L 530.199 795.162 L 527.063 791.345 L 523.925 787.503 L 520.787 783.634 L 517.647 779.741 L 514.508 775.823 L 511.367 771.880 L 508.226 767.913 L 505.085 763.923 L 501.943 759.909 L 498.802 755.872 L 495.660 751.812 L 492.519 747.729 L 489.378 743.625 L 486.237 739.499 L 483.097 735.352 L 479.957 731.184 L 476.819 726.995 L 473.681 722.786 L 470.544 718.558 L 467.409 714.310 L 464.275 710.043 L 461.142 705.757 L 458.010 701.453 L 454.881 697.131 L 451.753 692.792 L 448.627 688.436 L 445.503 684.062 L 442.381 679.673 L 439.262 675.267 L 436.145 670.846 L 433.030 666.410 L 429.918 661.959 L 426.809 657.493 L 423.703 653.014 L 420.599 648.521 L 417.499 644.015 L 414.402 639.496 L 411.309 634.964 L 408.219 630.421 L 405.132 625.866 L 402.050 621.300 L 398.971 616.723 L 395.896 612.135 L 392.826 607.538 L 389.759 602.931 L 386.697 598.315 L 383.639 593.691 L 380.586 589.058 L 377.538 584.417 L 374.495 579.768 L 371.456 575.113 L 368.423 570.451 L 365.394 565.782 L 362.372 561.108 L 359.354 556.428 L 356.342 551.743 L 353.336 547.054 L 350.335 542.361 L 347.341 537.663 L 344.352 532.963 L 341.370 528.259 L 338.394 523.553 L 335.424 518.845 L 332.461 514.135 L 329.504 509.424 L 326.554 504.712 L 323.611 500.000 L 320.675 495.288 L 317.746 490.576 L 314.824 485.865 L 311.909 481.155 L 309.002 476.447 L 306.103 471.741 L 303.211 467.037 L 300.327 462.337 L 297.451 457.639 L 294.582 452.946 L 291.722 448.257 L 288.870 443.572 L 286.027 438.892 L 283.191 434.218 L 280.365 429.549 L 277.547 424.887 L 274.738 420.232 L 271.938 415.583 L 269.146 410.942 L 266.364 406.309 L 263.591 401.685 L 260.828 397.069 L 258.074 392.462 L 255.329 387.865 L 252.594 383.277 L 249.869 378.700 L 247.154 374.134 L 244.449 369.579 L 241.753 365.036 L 239.068 360.504 L 236.394 355.985 L 233.729 351.479 L 231.076 346.986 L 228.432 342.507 L 225.800 338.041 L 223.178 333.590 L 220.568 329.154 L 217.968 324.733 L 215.379 320.327 L 212.802 315.938 L 210.236 311.564 L 207.682 307.208 L 205.139 302.869 L 202.607 298.547 L 200.088 294.243 L 197.580 289.957 L 195.084 285.690 L 192.600 281.442 L 190.129 277.214 L 187.669 273.005 L 185.222 268.816 L 182.788 264.648 L 180.366 260.501 L 177.956 256.375 L 175.559 252.271 L 173.175 248.188 L 170.804 244.128 L 168.446 240.091 L 166.101 236.077 L 163.769 232.087 L 161.451 228.120 L 159.146 224.177 L 156.854 220.259 L 154.576 216.366 L 152.311 212.497 L 150.060 208.655 L 147.823 204.838 L 145.600 201.048 L 143.391 197.284 L 141.196 193.546 L 139.015 189.837 L 136.849 186.154 L 134.696 182.500 L 132.559 178.874 L 130.435 175.276 L 128.326 171.707 L 126.232 168.167 L 124.153 164.657 L 122.089 161.177 L 120.039 157.726 L 118.004 154.307 L 115.985 150.917 L 113.981 147.559 L 111.992 144.232 L 110.018 140.937 L 108.059 137.673 L 106.116 134.442 L 104.189 131.243 L 102.277 128.077 L 100.381 124.944 L 98.501 121.845 L 96.637 118.779 L 94.788 115.747 L 92.956 112.748 L 91.139 109.785 L 89.339 106.856 L 87.555 103.962 L 85.787 101.103 L 84.036 98.279 L 82.301 95.492 L 80.582 92.740 L 78.880 90.024 L 77.195 87.345 L 75.526 84.702 L 73.875 82.096 L 72.240 79.528 L 70.621 76.996 L 69.020 74.503 L 67.436 72.047 L 65.869 69.629 L 64.319 67.249 L 62.786 64.908 L 61.271 62.606 L 59.772 60.342 L 58.292 58.117 L 56.828 55.932 L 55.382 53.786 L 53.954 51.679 L 52.543 49.613 L 51.150 47.586 L 49.775 45.600 L 48.417 43.654 L 47.078 41.749 L 45.756 39.884 L 44.452 38.060 L 43.166 36.277 L 41.898 34.536 L 40.648 32.836 L 39.416 31.177 L 38.203 29.560 L 37.008 27.984 L 35.831 26.451 L 34.672 24.959 L 33.532 23.510 L 32.410 22.103 L 31.306 20.739 L 30.221 19.417 L 29.155 18.138 L 28.107 16.902 L 27.078 15.708 L 26.068 14.558 L 25.076 13.451 L 24.103 12.387 L 23.149 11.366 L 22.213 10.389 L 21.297 9.455 L 20.399 8.564 L 19.520 7.718 L 18.660 6.915 L 17.820 6.156 L 16.998 5.441 L 16.195 4.769 L 15.412 4.142 L 14.647 3.559 L 13.902 3.020 L 13.176 2.524 L 12.469 2.074 L 11.782 1.667 L 11.113 1.305 L 10.464 0.987 L 9.835 0.713 L 9.224 0.484 L 8.633 0.299 L 8.062 0.158 L 7.509 0.062 L 6.977 0.010 L 6.464 0.002 L 5.970 0.039 L 5.496 0.121 L 5.041 0.247 L 4.606 0.417 L 4.190 0.632 L 3.794 0.890 L 3.417 1.194 L 3.061 1.541 L 2.723 1.933 L 2.406 2.369 L 2.108 2.850 L 1.829 3.374 L 1.571 3.943 L 1.332 4.555 L 1.112 5.212 L 0.913 5.913 L 0.733 6.657 L 0.573 7.445 L 0.432 8.277 L 0.312 9.153 L 0.211 10.072 L 0.129 11.035 L 0.068 12.042 L 0.026 13.091 L 0.004 14.184 L 0.001 15.320 L 0.019 16.499 L 0.056 17.721 L 0.113 18.986 L 0.189 20.294 L 0.286 21.644 L 0.402 23.037 L 0.538 24.472 L 0.693 25.949 L 0.868 27.468 L 1.063 29.030 L 1.278 30.633 L 1.512 32.278 L 1.766 33.964 L 2.040 35.692 L 2.333 37.461 L 2.646 39.272 L 2.979 41.123 L 3.331 43.015 L 3.703 44.947 L 4.094 46.920 L 4.505 48.933 L 4.936 50.986 L 5.386 53.079 L 5.856 55.212 L 6.345 57.384 L 6.853 59.596 L 7.381 61.847 L 7.929 64.136 L 8.496 66.465 L 9.082 68.832 L 9.688 71.237 L 10.313 73.680 L 10.958 76.161 L 11.621 78.680 L 12.304 81.236 L 13.007 83.829 L 13.728 86.460 L 14.469 89.127 L 15.229 91.830 L 16.008 94.570 L 16.806 97.346 L 17.623 100.158 L 18.459 103.005 L 19.315 105.887 L 20.189 108.805 L 21.082 111.757 L 21.994 114.743 L 22.925 117.764 L 23.875 120.819 L 24.843 123.908 L 25.831 127.029 L 26.837 130.184 L 27.862 133.372 L 28.905 136.593 L 29.967 139.845 L 31.047 143.130 L 32.146 146.447 L 33.264 149.794 L 34.400 153.173 L 35.554 156.583 L 36.727 160.023 L 37.918 163.494 L 39.127 166.994 L 40.354 170.524 L 41.600 174.083 L 42.864 177.671 L 44.145 181.288 L 45.445 184.933 L 46.763 188.606 L 48.098 192.307 L 49.451 196.035 L 50.823 199.790 L 52.211 203.572 L 53.618 207.380 L 55.042 211.214 L 56.484 215.073 L 57.943 218.958 L 59.420 222.868 L 60.914 226.803 L 62.425 230.762 L 63.954 234.744 L 65.500 238.751 L 67.063 242.780 L 68.643 246.833 L 70.240 250.907 L 71.854 255.004 L 73.485 259.123 L 75.133 263.263 L 76.798 267.424 L 78.479 271.606 L 80.177 275.808 L 81.892 280.030 L 83.623 284.272 L 85.371 288.533 L 87.135 292.812 L 88.915 297.110 L 90.711 301.426 L 92.524 305.760 L 94.352 310.110 L 96.197 314.478 L 98.058 318.862 L 99.934 323.263 L 101.826 327.679 L 103.734 332.110 L 105.658 336.556 L 107.597 341.017 L 109.552 345.492 L 111.522 349.980 L 113.508 354.482 L 115.508 358.997 L 117.524 363.524 L 119.555 368.063 L 121.601 372.615 L 123.662 377.177 L 125.738 381.751 L 127.829 386.334 L 129.934 390.928 L 132.054 395.532 L 134.188 400.145 L 136.337 404.767 L 138.500 409.397 L 140.678 414.035 L 142.869 418.681 L 145.075 423.335 L 147.295 427.995 L 149.529 432.661 L 151.776 437.333 L 154.038 442.011 L 156.313 446.694 L 158.601 451.382 L 160.903 456.074 L 163.218 460.770 L 165.547 465.470 L 167.889 470.173 L 170.244 474.878 L 172.612 479.585 L 174.993 484.295 L 177.387 489.005 L 179.793 493.717 L 182.212 498.429 L 184.644 503.142 L 187.088 507.854 L 189.545 512.565 L 192.013 517.275 L 194.494 521.984 L 196.987 526.691 L 199.492 531.395 L 202.009 536.097 L 204.538 540.795 L 207.078 545.490 L 209.630 550.181 L 212.193 554.867 L 214.767 559.549 L 217.353 564.225 L 219.950 568.895 L 222.558 573.559 L 225.177 578.217 L 227.807 582.868 L 230.448 587.512 L 233.099 592.147 L 235.761 596.775 L 238.433 601.394 L 241.116 606.004 L 243.809 610.604 L 246.512 615.195 L 249.224 619.775 L 251.947 624.345 L 254.680 628.904 L 257.422 633.451 L 260.174 637.986 L 262.935 642.510 L 265.706 647.020 L 268.486 651.518 L 271.275 656.002 L 274.073 660.472 L 276.880 664.928 L 279.696 669.369 L 282.521 673.795 L 285.354 678.206 L 288.195 682.601 L 291.045 686.980 L 293.903 691.342 L 296.770 695.687 L 299.644 700.015 L 302.526 704.325 L 305.417 708.616 L 308.314 712.890 L 311.220 717.144 L 314.132 721.379 L 317.052 725.595 L 319.980 729.790 L 322.914 733.965 L 325.856 738.119 L 328.804 742.252 L 331.759 746.364 L 334.721 750.453 L 337.689 754.521 L 340.664 758.565 L 343.645 762.587 L 346.632 766.586 L 349.625 770.561 L 352.624 774.511 L 355.629 778.438 L 358.639 782.339 L 361.656 786.216 L 364.677 790.067 L 367.704 793.893 L 370.737 797.692 L 373.774 801.465 L 376.816 805.211 L 379.863 808.930 L 382.915 812.621 L 385.972 816.285 L 389.033 819.921 L 392.098 823.528 L 395.168 827.106 L 398.242 830.656 L 401.320 834.176 L 404.401 837.666 L 407.487 841.127 L 410.576 844.557 L 413.669 847.956 L 416.765 851.325 L 419.864 854.662 L 422.967 857.968 L 426.072 861.242 L 429.181 864.484 L 432.292 867.694 L 435.406 870.871 L 438.523 874.015 L 441.641 877.126 L 444.763 880.203 L 447.886 883.247 L 451.012 886.256 L 454.139 889.231 L 457.268 892.172 L 460.399 895.078 L 463.532 897.948 L 466.666 900.783 L 469.801 903.583 L 472.937 906.347 L 476.075 909.075 L 479.213 911.766 L 482.353 914.421 L 485.492 917.039 L 488.633 919.620 L 491.774 922.164 L 494.915 924.670 L 498.057 927.139 L 501.198 929.569 L 504.340 931.962 L 507.481 934.316 L 510.622 936.631 L 513.763 938.908 L 516.903 941.146 L 520.043 943.344 L 523.181 945.503 L 526.319 947.623 L 529.456 949.703 L 532.591 951.742 L 535.725 953.742 L 538.858 955.702 L 541.990 957.621 L 545.119 959.499 L 548.247 961.336 L 551.373 963.133 L 554.497 964.888 L 557.619 966.602 L 560.738 968.275 L 563.855 969.906 L 566.970 971.495 L 570.082 973.043 L 573.191 974.548 L 576.297 976.011 L 579.401 977.432 L 582.501 978.811 L 585.598 980.147 L 588.691 981.440 L 591.781 982.691 L 594.868 983.899 L 597.950 985.063 L 601.029 986.185 L 604.104 987.263 L 607.174 988.299 L 610.241 989.290 L 613.303 990.239 L 616.361 991.144 L 619.414 992.005 L 622.462 992.822 L 625.505 993.596 L 628.544 994.326 L 631.577 995.012 L 634.606 995.654 L 637.628 996.252 L 640.646 996.806 L 643.658 997.315 L 646.664 997.781 L 649.665 998.202 L 652.659 998.579 L 655.648 998.912 L 658.630 999.201 L 661.606 999.445 L 664.576 999.645 L 667.539 999.800 L 670.496 999.911 L 673.446 999.978 L 676.389 1000.000 L 679.325 999.978 L 682.254 999.911 L 685.176 999.800 L 688.091 999.645 L 690.998 999.445 L 693.897 999.201 L 696.789 998.912 L 699.673 998.579 L 702.549 998.202 L 705.418 997.781 L 708.278 997.315 L 711.130 996.806 L 713.973 996.252 L 716.809 995.654 L 719.635 995.012 L 722.453 994.326 L 725.262 993.596 L 728.062 992.822 L 730.854 992.005 L 733.636 991.144 L 736.409 990.239 L 739.172 989.290 L 741.926 988.299 L 744.671 987.263 L 747.406 986.185 L 750.131 985.063 L 752.846 983.899 L 755.551 982.691 L 758.247 981.440 L 760.932 980.147 L 763.606 978.811 L 766.271 977.432 L 768.924 976.011 L 771.568 974.548 L 774.200 973.043 L 776.822 971.495 L 779.432 969.906 L 782.032 968.275 L 784.621 966.602 L 787.198 964.888 L 789.764 963.133 L 792.318 961.336 L 794.861 959.499 L 797.393 957.621 L 799.912 955.702 L 802.420 953.742 L 804.916 951.742 L 807.400 949.703 L 809.871 947.623 L 812.331 945.503 L 814.778 943.344 L 817.212 941.146 L 819.634 938.908 L 822.044 936.631 L 824.441 934.316 L 826.825 931.962 L 829.196 929.569 L 831.554 927.139 L 833.899 924.670 L 836.231 922.164 L 838.549 919.620 L 840.854 917.039 L 843.146 914.421 L 845.424 911.766 L 847.689 909.075 L 849.940 906.347 L 852.177 903.583 L 854.400 900.783 L 856.609 897.948 L 858.804 895.078 L 860.985 892.172 L 863.151 889.231 L 865.304 886.256 L 867.441 883.247 L 869.565 880.203 L 871.674 877.126 L 873.768 874.015 L 875.847 870.871 L 877.911 867.694 L 879.961 864.484 L 881.996 861.242 L 884.015 857.968 L 886.019 854.662 L 888.008 851.325 L 889.982 847.956 L 891.941 844.557 L 893.884 841.127 L 895.811 837.666 L 897.723 834.176 L 899.619 830.656 L 901.499 827.106 L 903.363 823.528 L 905.212 819.921 L 907.044 816.285 L 908.861 812.621 L 910.661 808.930 L 912.445 805.211 L 914.213 801.465 L 915.964 797.692 L 917.699 793.893 L 919.418 790.067 L 921.120 786.216 L 922.805 782.339 L 924.474 778.438 L 926.125 774.511 L 927.760 770.561 L 929.379 766.586 L 930.980 762.587 L 932.564 758.565 L 934.131 754.521 L 935.681 750.453 L 937.214 746.364 L 938.729 742.252 L 940.228 738.119 L 941.708 733.965 L 943.172 729.790 L 944.618 725.595 L 946.046 721.379 L 947.457 717.144 L 948.850 712.890 L 950.225 708.616 L 951.583 704.325 L 952.922 700.015 L 954.244 695.687 L 955.548 691.342 L 956.834 686.980 L 958.102 682.601 L 959.352 678.206 L 960.584 673.795 L 961.797 669.369 L 962.992 664.928 L 964.169 660.472 L 965.328 656.002 L 966.468 651.518 L 967.590 647.020 L 968.694 642.510 L 969.779 637.986 L 970.845 633.451 L 971.893 628.904 L 972.922 624.345 L 973.932 619.775 L 974.924 615.195 L 975.897 610.604 L 976.851 606.004 L 977.787 601.394 L 978.703 596.775 L 979.601 592.147 L 980.480 587.512 L 981.340 582.868 L 982.180 578.217 L 983.002 573.559 L 983.805 568.895 L 984.588 564.225 L 985.353 559.549 L 986.098 554.867 L 986.824 550.181 L 987.531 545.490 L 988.218 540.795 L 988.887 536.097 L 989.536 531.395 L 990.165 526.691 L 990.776 521.984 L 991.367 517.275 L 991.938 512.565 L 992.491 507.854 L 993.023 503.142 L 993.536 498.429 L 994.030 493.717 L 994.504 489.005 L 994.959 484.295 L 995.394 479.585 L 995.810 474.878 L 996.206 470.173 L 996.583 465.470 L 996.939 460.770 L 997.277 456.074 L 997.594 451.382 L 997.892 446.694 L 998.171 442.011 L 998.429 437.333 L 998.668 432.661 L 998.888 427.995 L 999.087 423.335 L 999.267 418.681 L 999.427 414.035 L 999.568 409.397 L 999.688 404.767 L 999.789 400.145 L 999.871 395.532 L 999.932 390.928 L 999.974 386.334 L 999.996 381.751 L 999.999 377.177 L 999.981 372.615 L 999.944 368.063 L 999.887 363.524 L 999.811 358.997 L 999.714 354.482 L 999.598 349.980 L 999.462 345.492 L 999.307 341.017 L 999.132 336.556 L 998.937 332.110 L 998.722 327.679 L 998.488 323.263 L 998.234 318.862 L 997.960 314.478 L 997.667 310.110 L 997.354 305.760 L 997.021 301.426 L 996.669 297.110 L 996.297 292.812 L 995.906 288.533 L 995.495 284.272 L 995.064 280.030 L 994.614 275.808 L 994.144 271.606 L 993.655 267.424 L 993.147 263.263 L 992.619 259.123 L 992.071 255.004 L 991.504 250.907 L 990.918 246.833 L 990.312 242.780 L 989.687 238.751 L 989.042 234.744 L 988.379 230.762 L 987.696 226.803 L 986.993 222.868 L 986.272 218.958 L 985.531 215.073 L 984.771 211.214 L 983.992 207.380 L 983.194 203.572 L 982.377 199.790 L 981.541 196.035 L 980.685 192.307 L 979.811 188.606 L 978.918 184.933 L 978.006 181.288 L 977.075 177.671 L 976.125 174.083 L 975.157 170.524 L 974.169 166.994 L 973.163 163.494 L 972.138 160.023 L 971.095 156.583 L 970.033 153.173 L 968.953 149.794 L 967.854 146.447 L 966.736 143.130 L 965.600 139.845 L 964.446 136.593 L 963.273 133.372 L 962.082 130.184 L 960.873 127.029 L 959.646 123.908 L 958.400 120.819 L 957.136 117.764 L 955.855 114.743 L 954.555 111.757 L 953.237 108.805 L 951.902 105.887 L 950.549 103.005 L 949.177 100.158 L 947.789 97.346 L 946.382 94.570 L 944.958 91.830 L 943.516 89.127 L 942.057 86.460 L 940.580 83.829 L 939.086 81.236 L 937.575 78.680 L 936.046 76.161 L 934.500 73.680 L 932.937 71.237 L 931.357 68.832 L 929.760 66.465 L 928.146 64.136 L 926.515 61.847 L 924.867 59.596 L 923.202 57.384 L 921.521 55.212 L 919.823 53.079 L 918.108 50.986 L 916.377 48.933 L 914.629 46.920 L 912.865 44.947 L 911.085 43.015 L 909.289 41.123 L 907.476 39.272 L 905.648 37.461 L 903.803 35.692 L 901.942 33.964 L 900.066 32.278 L 898.174 30.633 L 896.266 29.030 L 894.342 27.468 L 892.403 25.949 L 890.448 24.472 L 888.478 23.037 L 886.492 21.644 L 884.492 20.294 L 882.476 18.986 L 880.445 17.721 L 878.399 16.499 L 876.338 15.320 L 874.262 14.184 L 872.171 13.091 L 870.066 12.042 L 867.946 11.035 L 865.812 10.072 L 863.663 9.153 L 861.500 8.277 L 859.322 7.445 L 857.131 6.657 L 854.925 5.913 L 852.705 5.212 L 850.471 4.555 L 848.224 3.943 L 845.962 3.374 L 843.687 2.850 L 841.399 2.369 L 839.097 1.933 L 836.782 1.541 L 834.453 1.194 L 832.111 0.890 L 829.756 0.632 L 827.388 0.417 L 825.007 0.247 L 822.613 0.121 L 820.207 0.039 L 817.788 0.002 L 815.356 0.010 L 812.912 0.062 L 810.455 0.158 L 807.987 0.299 L 805.506 0.484 L 803.013 0.713 L 800.508 0.987 L 797.991 1.305 L 795.462 1.667 L 792.922 2.074 L 790.370 2.524 L 787.807 3.020 L 785.233 3.559 L 782.647 4.142 L 780.050 4.769 L 777.442 5.441 L 774.823 6.156 L 772.193 6.915 L 769.552 7.718 L 766.901 8.564 L 764.239 9.455 L 761.567 10.389 L 758.884 11.366 L 756.191 12.387 L 753.488 13.451 L 750.776 14.558 L 748.053 15.708 L 745.320 16.902 L 742.578 18.138 L 739.826 19.417 L 737.065 20.739 L 734.294 22.103 L 731.514 23.510 L 728.725 24.959 L 725.927 26.451 L 723.120 27.984 L 720.304 29.560 L 717.479 31.177 L 714.646 32.836 L 711.805 34.536 L 708.955 36.277 L 706.097 38.060 L 703.230 39.884 L 700.356 41.749 L 697.474 43.654 L 694.583 45.600 L 691.686 47.586 L 688.780 49.613 L 685.868 51.679 L 682.948 53.786 L 680.020 55.932 L 677.086 58.117 L 674.144 60.342 L 671.196 62.606 L 668.241 64.908 L 665.279 67.249 L 662.311 69.629 L 659.336 72.047 L 656.355 74.503 L 653.368 76.996 L 650.375 79.528 L 647.376 82.096 L 644.371 84.702 L 641.361 87.345 L 638.344 90.024 L 635.323 92.740 L 632.296 95.492 L 629.263 98.279 L 626.226 101.103 L 623.184 103.962 L 620.137 106.856 L 617.085 109.785 L 614.028 112.748 L 610.967 115.747 L 607.902 118.779 L 604.832 121.845 L 601.758 124.944 L 598.680 128.077 L 595.599 131.243 L 592.513 134.442 L 589.424 137.673 L 586.331 140.937 L 583.235 144.232 L 580.136 147.559 L 577.033 150.917 L 573.928 154.307 L 570.819 157.726 L 567.708 161.177 L 564.594 164.657 L 561.477 168.167 L 558.359 171.707 L 555.237 175.276 L 552.114 178.874 L 548.988 182.500 L 545.861 186.154 L 542.732 189.837 L 539.601 193.546 L 536.468 197.284 L 533.334 201.048 L 530.199 204.838 L 527.063 208.655 L 523.925 212.497 L 520.787 216.366 L 517.647 220.259 L 514.508 224.177 L 511.367 228.120 L 508.226 232.087 L 505.085 236.077 L 501.943 240.091 L 498.802 244.128 L 495.660 248.188 L 492.519 252.271 L 489.378 256.375 L 486.237 260.501 L 483.097 264.648 L 479.957 268.816 L 476.819 273.005 L 473.681 277.214 L 470.544 281.442 L 467.409 285.690 L 464.275 289.957 L 461.142 294.243 L 458.010 298.547 L 454.881 302.869 L 451.753 307.208 L 448.627 311.564 L 445.503 315.938 L 442.381 320.327 L 439.262 324.733 L 436.145 329.154 L 433.030 333.590 L 429.918 338.041 L 426.809 342.507 L 423.703 346.986 L 420.599 351.479 L 417.499 355.985 L 414.402 360.504 L 411.309 365.036 L 408.219 369.579 L 405.132 374.134 L 402.050 378.700 L 398.971 383.277 L 395.896 387.865 L 392.826 392.462 L 389.759 397.069 L 386.697 401.685 L 383.639 406.309 L 380.586 410.942 L 377.538 415.583 L 374.495 420.232 L 371.456 424.887 L 368.423 429.549 L 365.394 434.218 L 362.372 438.892 L 359.354 443.572 L 356.342 448.257 L 353.336 452.946 L 350.335 457.639 L 347.341 462.337 L 344.352 467.037 L 341.370 471.741 L 338.394 476.447 L 335.424 481.155 L 332.461 485.865 L 329.504 490.576 L 326.554 495.288 L 323.611 500.000" fill="none" stroke="black" stroke-width="12.0" stroke-linecap="round" stroke-linejoin="round" vector-effect="non-scaling-stroke"/>
</svg>