<svg xmlns="http://www.w3.org/2000/svg" viewBox="-6.000 -6.000 1012.000 1012.000" preserveAspectRatio="xMidYMid meet">
    <path d="M 958.877 500.000 L 960.728 506.283 L 962.539 512.565 L 964.308 518.845 L 966.036 525.122 L 967.722 531.395 L 969.367 537.663 L 970.970 543.926 L 972.532 550.181 L 974.051 556.428 L 975.528 562.667 L 976.963 568.895 L 978.356 575.113 L 979.706 581.319 L 981.014 587.512 L 982.279 593.691 L 983.501 599.855 L 984.680 606.004 L 985.816 612.135 L 986.909 618.249 L 987.958 624.345 L 988.965 630.421 L 989.928 636.476 L 990.847 642.510 L 991.723 648.521 L 992.555 654.508 L 993.343 660.472 L 994.087 666.410 L 994.788 672.321 L 995.445 678.206 L 996.057 684.062 L 996.626 689.890 L 997.150 695.687 L 997.631 701.453 L 998.067 707.188 L 998.459 712.890 L 998.806 718.558 L 999.110 724.192 L 999.368 729.790 L 999.583 735.352 L 999.753 740.877 L 999.879 746.364 L 999.961 751.812 L 999.998 757.220 L 999.990 762.587 L 999.938 767.913 L 999.842 773.197 L 999.701 778.438 L 999.516 783.634 L 999.287 788.786 L 999.013 793.893 L 998.695 798.952 L 998.333 803.965 L 997.926 808.930 L 997.476 813.846 L 996.980 818.712 L 996.441 823.528 L 995.858 828.293 L 995.231 833.006 L 994.559 837.666 L 993.844 842.274 L 993.085 846.827 L 992.282 851.325 L 991.436 855.768 L 990.545 860.155 L 989.611 864.484 L 988.634 868.757 L 987.613 872.971 L 986.549 877.126 L 985.442 881.221 L 984.292 885.257 L 983.098 889.231 L 981.862 893.144 L 980.583 896.995 L 979.261 900.783 L 977.897 904.508 L 976.490 908.170 L 975.041 911.766 L 973.549 915.298 L 972.016 918.764 L 970.440 922.164 L 968.823 925.497 L 967.164 928.763 L 965.464 931.962 L 963.723 935.092 L 961.940 938.153 L 960.116 941.146 L 958.251 944.068 L 956.346 946.921 L 954.400 949.703 L 952.414 952.414 L 950.387 955.053 L 948.321 957.621 L 946.214 960.116 L 944.068 962.539 L 941.883 964.888 L 939.658 967.164 L 937.394 969.367 L 935.092 971.495 L 932.751 973.549 L 930.371 975.528 L 927.953 977.432 L 925.497 979.261 L 923.004 981.014 L 920.472 982.691 L 917.904 984.292 L 915.298 985.816 L 912.655 987.263 L 909.976 988.634 L 907.260 989.928 L 904.508 991.144 L 901.721 992.282 L 898.897 993.343 L 896.038 994.326 L 893.144 995.231 L 890.215 996.057 L 887.252 996.806 L 884.253 997.476 L 881.221 998.067 L 878.155 998.579 L 875.056 999.013 L 871.923 999.368 L 868.757 999.645 L 865.558 999.842 L 862.327 999.961 L 859.063 1000.000 L 855.768 999.961 L 852.441 999.842 L 849.083 999.645 L 845.693 999.368 L 842.274 999.013 L 838.823 998.579 L 835.343 998.067 L 831.833 997.476 L 828.293 996.806 L 824.724 996.057 L 821.126 995.231 L 817.500 994.326 L 813.846 993.343 L 810.163 992.282 L 806.454 991.144 L 802.716 989.928 L 798.952 988.634 L 795.162 987.263 L 791.345 985.816 L 787.503 984.292 L 783.634 982.691 L 779.741 981.014 L 775.823 979.261 L 771.880 977.432 L 767.913 975.528 L 763.923 973.549 L 759.909 971.495 L 755.872 969.367 L 751.812 967.164 L 747.729 964.888 L 743.625 962.539 L 739.499 960.116 L 735.352 957.621 L 731.184 955.053 L 726.995 952.414 L 722.786 949.703 L 718.558 946.921 L 714.310 944.068 L 710.043 941.146 L 705.757 938.153 L 701.453 935.092 L 697.131 931.962 L 692.792 928.763 L 688.436 925.497 L 684.062 922.164 L 679.673 918.764 L 675.267 915.298 L 670.846 911.766 L 666.410 908.170 L 661.959 904.508 L 657.493 900.783 L 653.014 896.995 L 648.521 893.144 L 644.015 889.231 L 639.496 885.257 L 634.964 881.221 L 630.421 877.126 L 625.866 872.971 L 621.300 868.757 L 616.723 864.484 L 612.135 860.155 L 607.538 855.768 L 602.931 851.325 L 598.315 846.827 L 593.691 842.274 L 589.058 837.666 L 584.417 833.006 L 579.768 828.293 L 575.113 823.528 L 570.451 818.712 L 565.782 813.846 L 561.108 808.930 L 556.428 803.965 L 551.743 798.952 L 547.054 793.893 L 542.361 788.786 L 537.663 783.634 L 532.963 778.438 L 528.259 773.197 L 523.553 767.913 L 518.845 762.587 L 514.135 757.220 L 509.424 751.812 L 504.712 746.364 L 500.000 740.877 L 495.288 735.352 L 490.576 729.790 L 485.865 724.192 L 481.155 718.558 L 476.447 712.890 L 471.741 707.188 L 467.037 701.453 L 462.337 695.687 L 457.639 689.890 L 452.946 684.062 L 448.257 678.206 L 443.572 672.321 L 438.892 666.410 L 434.218 660.472 L 429.549 654.508 L 424.887 648.521 L 420.232 642.510 L 415.583 636.476 L 410.942 630.421 L 406.309 624.345 L 401.685 618.249 L 397.069 612.135 L 392.462 606.004 L 387.865 599.855 L 383.277 593.691 L 378.700 587.512 L 374.134 581.319 L 369.579 575.113 L 365.036 568.895 L 360.504 562.667 L 355.985 556.428 L 351.479 550.181 L 346.986 543.926 L 342.507 537.663 L 338.041 531.395 L 333.590 525.122 L 329.154 518.845 L 324.733 512.565 L 320.327 506.283 L 315.938 500.000 L 311.564 493.717 L 307.208 487.435 L 302.869 481.155 L 298.547 474.878 L 294.243 468.605 L 289.957 462.337 L 285.690 456.074 L 281.442 449.819 L 277.214 443.572 L 273.005 437.333 L 268.816 431.105 L 264.648 424.887 L 260.501 418.681 L 256.375 412.488 L 252.271 406.309 L 248.188 400.145 L 244.128 393.996 L 240.091 387.865 L 236.077 381.751 L 232.087 375.655 L 228.120 369.579 L 224.177 363.524 L 220.259 357.490 L 216.366 351.479 L 212.497 345.492 L 208.655 339.528 L 204.838 333.590 L 201.048 327.679 L 197.284 321.794 L 193.546 315.938 L 189.837 310.110 L 186.154 304.313 L 182.500 298.547 L 178.874 292.812 L 175.276 287.110 L 171.707 281.442 L 168.167 275.808 L 164.657 270.210 L 161.177 264.648 L 157.726 259.123 L 154.307 253.636 L 150.917 248.188 L 147.559 242.780 L 144.232 237.413 L 140.937 232.087 L 137.673 226.803 L 134.442 221.562 L 131.243 216.366 L 128.077 211.214 L 124.944 206.107 L 121.845 201.048 L 118.779 196.035 L 115.747 191.070 L 112.748 186.154 L 109.785 181.288 L 106.856 176.472 L 103.962 171.707 L 101.103 166.994 L 98.279 162.334 L 95.492 157.726 L 92.740 153.173 L 90.024 148.675 L 87.345 144.232 L 84.702 139.845 L 82.096 135.516 L 79.528 131.243 L 76.996 127.029 L 74.503 122.874 L 72.047 118.779 L 69.629 114.743 L 67.249 110.769 L 64.908 106.856 L 62.606 103.005 L 60.342 99.217 L 58.117 95.492 L 55.932 91.830 L 53.786 88.234 L 51.679 84.702 L 49.613 81.236 L 47.586 77.836 L 45.600 74.503 L 43.654 71.237 L 41.749 68.038 L 39.884 64.908 L 38.060 61.847 L 36.277 58.854 L 34.536 55.932 L 32.836 53.079 L 31.177 50.297 L 29.560 47.586 L 27.984 44.947 L 26.451 42.379 L 24.959 39.884 L 23.510 37.461 L 22.103 35.112 L 20.739 32.836 L 19.417 30.633 L 18.138 28.505 L 16.902 26.451 L 15.708 24.472 L 14.558 22.568 L 13.451 20.739 L 12.387 18.986 L 11.366 17.309 L 10.389 15.708 L 9.455 14.184 L 8.564 12.737 L 7.718 11.366 L 6.915 10.072 L 6.156 8.856 L 5.441 7.718 L 4.769 6.657 L 4.142 5.674 L 3.559 4.769 L 3.020 3.943 L 2.524 3.194 L 2.074 2.524 L 1.667 1.933 L 1.305 1.421 L 0.987 0.987 L 0.713 0.632 L 0.484 0.355 L 0.299 0.158 L 0.158 0.039 L 0.062 0.000 L 0.010 0.039 L 0.002 0.158 L 0.039 0.355 L 0.121 0.632 L 0.247 0.987 L 0.417 1.421 L 0.632 1.933 L 0.890 2.524 L 1.194 3.194 L 1.541 3.943 L 1.933 4.769 L 2.369 5.674 L 2.850 6.657 L 3.374 7.718 L 3.943 8.856 L 4.555 10.072 L 5.212 11.366 L 5.913 12.737 L 6.657 14.184 L 7.445 15.708 L 8.277 17.309 L 9.153 18.986 L 10.072 20.739 L 11.035 22.568 L 12.042 24.472 L 13.091 26.451 L 14.184 28.505 L 15.320 30.633 L 16.499 32.836 L 17.721 35.112 L 18.986 37.461 L 20.294 39.884 L 21.644 42.379 L 23.037 44.947 L 24.472 47.586 L 25.949 50.297 L 27.468 53.079 L 29.030 55.932 L 30.633 58.854 L 32.278 61.847 L 33.964 64.908 L 35.692 68.038 L 37.461 71.237 L 39.272 74.503 L 41.123 77.836 L 43.015 81.236 L 44.947 84.702 L 46.920 88.234 L 48.933 91.830 L 50.986 95.492 L 53.079 99.217 L 55.212 103.005 L 57.384 106.856 L 59.596 110.769 L 61.847 114.743 L 64.136 118.779 L 66.465 122.874 L 68.832 127.029 L 71.237 131.243 L 73.680 135.516 L 76.161 139.845 L 78.680 144.232 L 81.236 148.675 L 83.829 153.173 L 86.460 157.726 L 89.127 162.334 L 91.830 166.994 L 94.570 171.707 L 97.346 176.472 L 100.158 181.288 L 103.005 186.154 L 105.887 191.070 L 108.805 196.035 L 111.757 201.048 L 114.743 206.107 L 117.764 211.214 L 120.819 216.366 L 123.908 221.562 L 127.029 226.803 L 130.184 232.087 L 133.372 237.413 L 136.593 242.780 L 139.845 248.188 L 143.130 253.636 L 146.447 259.123 L 149.794 264.648 L 153.173 270.210 L 156.583 275.808 L 160.023 281.442 L 163.494 287.110 L 166.994 292.812 L 170.524 298.547 L 174.083 304.313 L 177.671 310.110 L 181.288 315.938 L 184.933 321.794 L 188.606 327.679 L 192.307 333.590 L 196.035 339.528 L 199.790 345.492 L 203.572 351.479 L 207.380 357.490 L 211.214 363.524 L 215.073 369.579 L 218.958 375.655 L 222.868 381.751 L 226.803 387.865 L 230.762 393.996 L 234.744 400.145 L 238.751 406.309 L 242.780 412.488 L 246.833 418.681 L 250.907 424.887 L 255.004 431.105 L 259.123 437.333 L 263.263 443.572 L 267.424 449.819 L 271.606 456.074 L 275.808 462.337 L 280.030 468.605 L 284.272 474.878 L 288.533 481.155 L 292.812 487.435 L 297.110 493.717 L 301.426 500.000 L 305.760 506.283 L 310.110 512.565 L 314.478 518.845 L 318.862 525.122 L 323.263 531.395 L 327.679 537.663 L 332.110 543.926 L 336.556 550.181 L 341.017 556.428 L 345.492 562.667 L 349.980 568.895 L 354.482 575.113 L 358.997 581.319 L 363.524 587.512 L 368.063 593.691 L 372.615 599.855 L 377.177 606.004 L 381.751 612.135 L 386.334 618.249 L 390.928 624.345 L 395.532 630.421 L 400.145 636.476 L 404.767 642.510 L 409.397 648.521 L 414.035 654.508 L 418.681 660.472 L 423.335 666.410 L 427.995 672.321 L 432.661 678.206 L 437.333 684.062 L 442.011 689.890 L 446.694 695.687 L 451.382 701.453 L 456.074 707.188 L 460.770 712.890 L 465.470 718.558 L 470.173 724.192 L 474.878 729.790 L 479.585 735.352 L 484.295 740.877 L 489.005 746.364 L 493.717 751.812 L 498.429 757.220 L 503.142 762.587 L 507.854 767.913 L 512.565 773.197 L 517.275 778.438 L 521.984 783.634 L 526.691 788.786 L 531.395 793.893 L 536.097 798.952 L 540.795 803.965 L 545.490 808.930 L 550.181 813.846 L 554.867 818.712 L 559.549 823.528 L 564.225 828.293 L 568.895 833.006 L 573.559 837.666 L 578.217 842.274 L 582.868 846.827 L 587.512 851.325 L 592.147 855.768 L 596.775 860.155 L 601.394 864.484 L 606.004 868.757 L 610.604 872.971 L 615.195 877.126 L 619.775 881.221 L 624.345 885.257 L 628.904 889.231 L 633.451 893.144 L 637.986 896.995 L 642.510 900.783 L 647.020 904.508 L 651.518 908.170 L 656.002 911.766 L 660.472 915.298 L 664.928 918.764 L 669.369 922.164 L 673.795 925.497 L 678.206 928.763 L 682.601 931.962 L 686.980 935.092 L 691.342 938.153 L 695.687 941.146 L 700.015 944.068 L 704.325 946.921 L 708.616 949.703 L 712.890 952.414 L 717.144 955.053 L 721.379 957.621 L 725.595 960.116 L 729.790 962.539 L 733.965 964.888 L 738.119 967.164 L 742.252 969.367 L 746.364 971.495 L 750.453 973.549 L 754.521 975.528 L 758.565 977.432 L 762.587 979.261 L 766.586 981.014 L 770.561 982.691 L 774.511 984.292 L 778.438 985.816 L 782.339 987.263 L 786.216 988.634 L 790.067 989.928 L 793.893 991.144 L 797.692 992.282 L 801.465 993.343 L 805.211 994.326 L 808.930 995.231 L 812.621 996.057 L 816.285 996.806 L 819.921 997.476 L 823.528 998.067 L 827.106 998.579 L 830.656 999.013 L 834.176 999.368 L 837.666 999.645 L 841.127 999.842 L 844.557 999.961 L 847.956 1000.000 L 851.325 999.961 L 854.662 999.842 L 857.968 999.645 L 861.242 999.368 L 864.484 999.013 L 867.694 998.579 L 870.871 998.067 L 874.015 997.476 L 877.126 996.806 L 880.203 996.057 L 883.247 995.231 L 886.256 994.326 L 889.231 993.343 L 892.172 992.282 L 895.078 991.144 L 897.948 989.928 L 900.783 988.634 L 903.583 987.263 L 906.347 985.816 L 909.075 984.292 L 911.766 982.691 L 914.421 981.014 L 917.039 979.261 L 919.620 977.432 L 922.164 975.528 L 924.670 973.549 L 927.139 971.495 L 929.569 969.367 L 931.962 967.164 L 934.316 964.888 L 936.631 962.539 L 938.908 960.116 L 941.146 957.621 L 943.344 955.053 L 945.503 952.414 L 947.623 949.703 L 949.703 946.921 L 951.742 944.068 L 953.742 941.146 L 955.702 938.153 L 957.621 935.092 L 959.499 931.962 L 961.336 928.763 L 963.133 925.497 L 964.888 922.164 L 966.602 918.764 L 968.275 915.298 L 969.906 911.766 L 971.495 908.170 L 973.043 904.508 L 974.548 900.783 L 976.011 896.995 L 977.432 893.144 L 978.811 889.231 L 980.147 885.257 L 981.440 881.221 L 982.691 877.126 L 983.899 872.971 L 985.063 868.757 L 986.185 864.484 L 987.263 860.155 L 988.299 855.768 L 989.290 851.325 L 990.239 846.827 L 991.144 842.274 L 992.005 837.666 L 992.822 833.006 L 993.596 828.293 L 994.326 823.528 L 995.012 818.712 L 995.654 813.846 L 996.252 808.930 L 996.806 803.965 L 997.315 798.952 L 997.781 793.893 L 998.202 788.786 L 998.579 783.634 L 998.912 778.438 L 999.201 773.197 L 999.445 767.913 L 999.645 762.587 L 999.800 757.220 L 999.911 751.812 L 999.978 746.364 L 1000.000 740.877 L 999.978 735.352 L 999.911 729.790 L 999.800 724.192 L 999.645 718.558 L 999.445 712.890 L 999.201 707.188 L 998.912 701.453 L 998.579 695.687 L 998.202 689.890 L 997.781 684.062 L 997.315 678.206 L 996.806 672.321 L 996.252 666.410 L 995.654 660.472 L 995.012 654.508 L 994.326 648.521 L 993.596 642.510 L 992.822 636.476 L 992.005 630.421 L 991.144 624.345 L 990.239 618.249 L 989.290 612.135 L 988.299 606.004 L 987.263 599.855 L 986.185 593.691 L 985.063 587.512 L 983.899 581.319 L 982.691 575.113 L 981.440 568.895 L 980.147 562.667 L 978.811 556.428 L 977.432 550.181 L 976.011 543.926 L 974.548 537.663 L 973.043 531.395 L 971.495 525.122 L 969.906 518.845 L 968.275 512.565 L 966.602 506.283 L 964.888 500.000 L 963.133 493.717 L 961.336 487.435 L 959.499 481.155 L 957.621 474.878 L 955.702 468.605 L 953.742 462.337 L 951.742 456.074 L 949.703 449.819 L 947.623 443.572 L 945.503 437.333 L 943.344 431.105 L 941.146 424.887 L 938.908 418.681 L 936.631 412.488 L 934.316 406.309 L 931.962 400.145 L 929.569 393.996 L 927.139 387.865 L 924.670 381.751 L 922.164 375.655 L 919.620 369.579 L 917.039 363.524 L 914.421 357.490 L 911.766 351.479 L 909.075 345.492 L 906.347 339.528 L 903.583 333.590 L 900.783 327.679 L 897.948 321.794 L 895.078 315.938 L 892.172 310.110 L 889.231 304.313 L 886.256 298.547 L 883.247 292.812 L 880.203 287.110 L 877.126 281.442 L 874.015 275.808 L 870.871 270.210 L 867.694 264.648 L 864.484 259.123 L 861.242 253.636 L 857.968 248.188 L 854.662 242.780 L 851.325 237.413 L 847.956 232.087 L 844.557 226.803 L 841.127 221.562 L 837.666 216.366 L 834.176 211.214 L 830.656 206.107 L 827.106 201.048 L 823.528 196.035 L 819.921 191.070 L 816.285 186.154 L 812.621 181.288 L 808.930 176.472 L 805.211 171.707 L 801.465 166.994 L 797.692 162.334 L 793.893 157.726 L 790.067 153.173 L 786.216 148.675 L 782.339 144.232 L 778.438 139.845 L 774.511 135.516 L 770.561 131.243 L 766.586 127.029 L 762.587 122.874 L 758.565 118.779 L 754.521 114.743 L 750.453 110.769 L 746.364 106.856 L 742.252 103.005 L 738.119 99.217 L 733.965 95.492 L 729.790 91.830 L 725.595 88.234 L 721.379 84.702 L 717.144 81.236 L 712.890 77.836 L 708.616 74.503 L 704.325 71.237 L 700.015 68.038 L 695.687 64.908 L 691.342 61.847 L 686.980 58.854 L 682.601 55.932 L 678.206 53.079 L 673.795 50.297 L 669.369 47.586 L 664.928 44.947 L 660.472 42.379 L 656.002 39.884 L 651.518 37.461 L 647.020 35.112 L 642.510 32.836 L 637.986 30.633 L 633.451 28.505 L 628.904 26.451 L 624.345 24.472 L 619.775 22.568 L 615.195 20.739 L 610.604 18.986 L 606.004 17.309 L 601.394 15.708 L 596.775 14.184 L 592.147 12.737 L 587.512 11.366 L 582.868 10.072 L 578.217 8.856 L 573.559 7.718 L 568.895 6.657 L 564.225 5.674 L 559.549 4.769 L 554.867 3.943 L 550.181 3.194 L 545.490 2.524 L 540.795 1.933 L 536.097 1.421 L 531.395 0.987 L 526.691 0.632 L 521.984 0.355 L 517.275 0.158 L 512.565 0.039 L 507.854 0.000 L 503.142 0.039 L 498.429 0.158 L 493.717 0.355 L 489.005 0.632 L 484.295 0.987 L 479.585 1.421 L 474.878 1.933 L 470.173 2.524 L 465.470 3.194 L 460.770 3.943 L 456.074 4.769 L 451.382 5.674 L 446.694 6.657 L 442.011 7.718 L 437.333 8.856 L 432.661 10.072 L 427.995 11.366 L 423.335 12.737 L 418.681 14.184 L 414.035 15.708 L 409.397 17.309 L 404.767 18.986 L 400.145 20.739 L 395.532 22.568 L 390.928 24.472 L 386.334 26.451 L 381.751 28.505 L 377.177 30.633 L 372.615 32.836 L 368.063 35.112 L 363.524 37.461 L 358.997 39.884 L 354.482 42.379 L 349.980 44.947 L 345.492 47.586 L 341.017 50.297 L 336.556 53.079 L 332.110 55.932 L 327.679 58.854 L 323.263 61.847 L 318.862 64.908 L 314.478 68.038 L 310.110 71.237 L 305.760 74.503 L 301.426 77.836 L 297.110 81.236 L 292.812 84.702 L 288.533 88.234 L 284.272 91.830 L 280.030 95.492 L 275.808 99.217 L 271.606 103.005 L 267.424 106.856 L 263.263 110.769 L 259.123 114.743 L 255.004 118.779 L 250.907 122.874 L 246.833 127.029 L 242.780 131.243 L 238.751 135.516 L 234.744 139.845 L 230.762 144.232 L 226.803 148.675 L 222.868 153.173 L 218.958 157.726 L 215.073 162.334 L 211.214 166.994 L 207.380 171.707 L 203.572 176.472 L 199.790 181.288 L 196.035 186.154 L 192.307 191.070 L 188.606 196.035 L 184.933 201.048 L 181.288 206.107 L 177.671 211.214 L 174.083 216.366 L 170.524 221.562 L 166.994 226.803 L 163.494 232.087 L 160.023 237.413 L 156.583 242.780 L 153.173 248.188 L 149.794 253.636 L 146.447 259.123 L 143.130 264.648 L 139.845 270.210 L 136.593 275.808 L 133.372 281.442 L 130.184 287.110 L 127.029 292.812 L 123.908 298.547 L 120.819 304.313 L 117.764 310.110 L 114.743 315.938 L 111.757 321.794 L 108.805 327.679 L 105.887 333.590 L 103.005 339.528 L 100.158 345.492 L 97.346 351.479 L 94.570 357.490 L 91.830 363.524 L 89.127 369.579 L 86.460 375.655 L 83.829 381.751 L 81.236 387.865 L 78.680 393.996 L 76.161 400.145 L 73.680 406.309 L 71.237 412.488 L 68.832 418.681 L 66.465 424.887 L 64.136 431.105 L 61.847 437.333 L 59.596 443.572 L 57.384 449.819 L 55.212 456.074 L 53.079 462.337 L 50.986 468.605 L 48.933 474.878 L 46.920 481.155 L 44.947 487.435 L 43.015 493.717 L 41.123 500.000 L 39.272 506.283 L 37.461 512.565 L 35.692 518.845 L 33.964 525.122 L 32.278 531.395 L 30.633 537.663 L 29.030 543.926 L 27.468 550.181 L 25.949 556.428 L 24.472 562.667 L 23.037 568.895 L 21.644 575.113 L 20.294 581.319 L 18.986 587.512 L 17.721 593.691 L 16.499 599.855 L 15.320 606.004 L 14.184 612.135 L 13.091 618.249 L 12.042 624.345 L 11.035 630.421 L 10.072 636.476 L 9.153 642.510 L 8.277 648.521 L 7.445 654.508 L 6.657 660.472 L 5.913 666.410 L 5.212 672.321 L 4.555 678.206 L 3.943 684.062 L 3.374 689.890 L 2.850 695.687 L 2.369 701.453 L 1.933 707.188 L 1.541 712.890 L 1.194 718.558 L 0.890 724.192 L 0.632 729.790 L 0.417 735.352 L 0.247 740.877 L 0.121 746.364 L 0.039 751.812 L 0.002 757.220 L 0.010 762.587 L 0.062 767.913 L 0.158 773.197 L 0.299 778.438 L 0.484 783.634 L 0.713 788.786 L 0.987 793.893 L 1.305 798.952 L 1.667 803.965 L 2.074 808.930 L 2.524 813.846 L 3.020 818.712 L 3.559 823.528 L 4.142 828.293 L 4.769 833.006 L 5.441 837.666 L 6.156 842.274 L 6.915 846.827 L 7.718 851.325 L 8.564 855.768 L 9.455 860.155 L 10.389 864.484 L 11.366 868.757 L 12.387 872.971 L 13.451 877.126 L 14.558 881.221 L 15.708 885.257 L 16.902 889.231 L 18.138 893.144 L 19.417 896.995 L 20.739 900.783 L 22.103 904.508 L 23.510 908.170 L 24.959 911.766 L 26.451 915.298 L 27.984 918.764 L 29.560 922.164 L 31.177 925.497 L 32.836 928.763 L 34.536 931.962 L 36.277 935.092 L 38.060 938.153 L 39.884 941.146 L 41.749 944.068 L 43.654 946.921 L 45.600 949.703 L 47.586 952.414 L 49.613 955.053 L 51.679 957.621 L 53.786 960.116 L 55.932 962.539 L 58.117 964.888 L 60.342 967.164 L 62.606 969.367 L 64.908 971.495 L 67.249 973.549 L 69.629 975.528 L 72.047 977.432 L 74.503 979.261 L 76.996 981.014 L 79.528 982.691 L 82.096 984.292 L 84.702 985.816 L 87.345 987.263 L 90.024 988.634 L 92.740 989.928 L 95.492 991.144 L 98.279 992.282 L 101.103 993.343 L 103.962 994.326 L 106.856 995.231 L 109.785 996.057 L 112.748 996.806 L 115.747 997.476 L 118.779 998.067 L 121.845 998.579 L 124.944 999.013 L 128.077 999.368 L 131.243 999.645 L 134.442 999.842 L 137.673 999.961 L 140.937 1000.000 L 144.232 999.961 L 147.559 999.842 L 150.917 999.645 L 154.307 999.368 L 157.726 999.013 L 161.177 998.579 L 164.657 998.067 L 168.167 997.476 L 171.707 996.806 L 175.276 996.057 L 178.874 995.231 L 182.500 994.326 L 186.154 993.343 L 189.837 992.282 L 193.546 991.144 L 197.284 989.928 L 201.048 988.634 L 204.838 987.263 L 208.655 985.816 L 212.497 984.292 L 216.366 982.691 L 220.259 981.014 L 224.177 979.261 L 228.120 977.432 L 232.087 975.528 L 236.077 973.549 L 240.091 971.495 L 244.128 969.367 L 248.188 967.164 L 252.271 964.888 L 256.375 962.539 L 260.501 960.116 L 264.648 957.621 L 268.816 955.053 L 273.005 952.414 L 277.214 949.703 L 281.442 946.921 L 285.690 944.068 L 289.957 941.146 L 294.243 938.153 L 298.547 935.092 L 302.869 931.962 L 307.208 928.763 L 311.564 925.497 L 315.938 922.164 L 320.327 918.764 L 324.733 915.298 L 329.154 911.766 L 333.590 908.170 L 338.041 904.508 L 342.507 900.783 L 346.986 896.995 L 351.479 893.144 L 355.985 889.231 L 360.504 885.257 L 365.036 881.221 L 369.579 877.126 L 374.134 872.971 L 378.700 868.757 L 383.277 864.484 L 387.865 860.155 L 392.462 855.768 L 397.069 851.325 L 401.685 846.827 L 406.309 842.274 L 410.942 837.666 L 415.583 833.006 L 420.232 828.293 L 424.887 823.528 L 429.549 818.712 L 434.218 813.846 L 438.892 808.930 L 443.572 803.965 L 448.257 798.952 L 452.946 793.893 L 457.639 788.786 L 462.337 783.634 L 467.037 778.438 L 471.741 773.197 L 476.447 767.913 L 481.155 762.587 L 485.865 757.220 L 490.576 751.812 L 495.288 746.364 L 500.000 740.877 L 504.712 735.352 L 509.424 729.790 L 514.135 724.192 L 518.845 718.558 L 523.553 712.890 L 528.259 707.188 L 532.963 701.453 L 537.663 695.687 L 542.361 689.890 L 547.054 684.062 L 551.743 678.206 L 556.428 672.321 L 561.108 666.410 L 565.782 660.472 L 570.451 654.508 L 575.113 648.521 L 579.768 642.510 L 584.417 636.476 L 589.058 630.421 L 593.691 624.345 L 598.315 618.249 L 602.931 612.135 L 607.538 606.004 L 612.135 599.855 L 616.723 593.691 L 621.300 587.512 L 625.866 581.319 L 630.421 575.113 L 634.964 568.895 L 639.496 562.667 L 644.015 556.428 L 648.521 550.181 L 653.014 543.926 L 657.493 537.663 L 661.959 531.395 L 666.410 525.122 L 670.846 518.845 L 675.267 512.565 L 679.673 506.283 L 684.062 500.000 L 688.436 493.717 L 692.792 487.435 L 697.131 481.155 L 701.453 474.878 L 705.757 468.605 L 710.043 462.337 L 714.310 456.074 L 718.558 449.819 L 722.786 443.572 L 726.995 437.333 L 731.184 431.105 L 735.352 424.887 L 739.499 418.681 L 743.625 412.488 L 747.729 406.309 L 751.812 400.145 L 755.872 393.996 L 759.909 387.865 L 763.923 381.751 L 767.913 375.655 L 771.880 369.579 L 775.823 363.524 L 779.741 357.490 L 783.634 351.479 L 787.503 345.492 L 791.345 339.528 L 795.162 333.590 L 798.952 327.679 L 802.716 321.794 L 806.454 315.938 L 810.163 310.110 L 813.846 304.313 L 817.500 298.547 L 821.126 292.812 L 824.724 287.110 L 828.293 281.442 L 831.833 275.808 L 835.343 270.210 L 838.823 264.648 L 842.274 259.123 L 845.693 253.636 L 849.083 248.188 L 852.441 242.780 L 855.768 237.413 L 859.063 232.087 L 862.327 226.803 L 865.558 221.562 L 868.757 216.366 L 871.923 211.214 L 875.056 206.107 L 878.155 201.048 L 881.221 196.035 L 884.253 191.070 L 887.252 186.154 L 890.215 181.288 L 893.144 176.472 L 896.038 171.707 L 898.897 166.994 L 901.721 162.334 L 904.508 157.726 L 907.260 153.173 L 909.976 148.675 L 912.655 144.232 L 915.298 139.845 L 917.904 135.516 L 920.472 131.243 L 923.004 127.029 L 925.497 122.874 L 927.953 118.779 L 930.371 114.743 L 932.751 110.769 L 935.092 106.856 L 937.394 103.005 L 939.658 99.217 L 941.883 95.492 L 944.068 91.830 L 946.214 88.234 L 948.321 84.702 L 950.387 81.236 L 952.414 77.836 L 954.400 74.503 L 956.346 71.237 L 958.251 68.038 L 960.116 64.908 L 961.940 61.847 L 963.723 58.854 L 965.464 55.932 L 967.164 53.079 L 968.823 50.297 L 970.440 47.586 L 972.016 44.947 L 973.549 42.379 L 975.041 39.884 L 976.490 37.461 L 977.897 35.112 L 979.261 32.836 L 980.583 30.633 L 981.862 28.505 L 983.098 26.451 L 984.292 24.472 L 985.442 22.568 L 986.549 20.739 L 987.613 18.986 L 988.634 17.309 L 989.611 15.708 L 990.545 14.184 L 991.436 12.737 L 992.282 11.366 L 993.085 10.072 L 993.844 8.856 L 994.559 7.718 L 995.231 6.657 L 995.858 5.674 L 996.441 4.769 L 996.980 3.943 L 997.476 3.194 L 997.926 2.524 L 998.333 1.933 L 998.695 1.421 L 999.013 0.987 L 999.287 0.632 L 999.516 0.355 L 999.701 0.158 L 999.842 0.039 L 999.938 0.000 L 999.990 0.039 L 999.998 0.158 L 999.961 0.355 L 999.879 0.632 L 999.753 0.987 L 999.583 1.421 L 999.368 1.933 L 999.110 2.524 L 998.806 3.194 L 998.459 3.943 L 998.067 4.769 L 997.631 5.674 L 997.150 6.657 L 996.626 7.718 L 996.057 8.856 L 995.445 10.072 L 994.788 11.366 L 994.087 12.737 L 993.343 14.184 L 992.555 15.708 L 991.723 17.309 L 990.847 18.986 L 989.928 20.739 L 988.965 22.568 L 987.958 24.472 L 986.909 26.451 L 985.816 28.505 L 984.680 30.633 L 983.501 32.836 L 982.279 35.112 L 981.014 37.461 L 979.706 39.884 L 978.356 42.379 L 976.963 44.947 L 975.528 47.586 L 974.051 50.297 L 972.532 53.079 L 970.970 55.932 L 969.367 58.854 L 967.722 61.847 L 966.036 64.908 L 964.308 68.038 L 962.539 71.237 L 960.728 74.503 L 958.877 77.836 L 956.985 81.236 L 955.053 84.702 L 953.080 88.234 L 951.067 91.830 L 949.014 95.492 L 946.921 99.217 L 944.788 103.005 L 942.616 106.856 L 940.404 110.769 L 938.153 114.743 L 935.864 118.779 L 933.535 122.874 L 931.168 127.029 L 928.763 131.243 L 926.320 135.516 L 923.839 139.845 L 921.320 144.232 L 918.764 148.675 L 916.171 153.173 L 913.540 157.726 L 910.873 162.334 L 908.170 166.994 L 905.430 171.707 L 902.654 176.472 L 899.842 181.288 L 896.995 186.154 L 894.113 191.070 L 891.195 196.035 L 888.243 201.048 L 885.257 206.107 L 882.236 211.214 L 879.181 216.366 L 876.092 221.562 L 872.971 226.803 L 869.816 232.087 L 866.628 237.413 L 863.407 242.780 L 860.155 248.188 L 856.870 253.636 L 853.553 259.123 L 850.206 264.648 L 846.827 270.210 L 843.417 275.808 L 839.977 281.442 L 836.506 287.110 L 833.006 292.812 L 829.476 298.547 L 825.917 304.313 L 822.329 310.110 L 818.712 315.938 L 815.067 321.794 L 811.394 327.679 L 807.693 333.590 L 803.965 339.528 L 800.210 345.492 L 796.428 351.479 L 792.620 357.490 L 788.786 363.524 L 784.927 369.579 L 781.042 375.655 L 777.132 381.751 L 773.197 387.865 L 769.238 393.996 L 765.256 400.145 L 761.249 406.309 L 757.220 412.488 L 753.167 418.681 L 749.093 424.887 L 744.996 431.105 L 740.877 437.333 L 736.737 443.572 L 732.576 449.819 L 728.394 456.074 L 724.192 462.337 L 719.970 468.605 L 715.728 474.878 L 711.467 481.155 L 707.188 487.435 L 702.890 493.717 L 698.574 500.000 L 694.240 506.283 L 689.890 512.565 L 685.522 518.845 L 681.138 525.122 L 676.737 531.395 L 672.321 537.663 L 667.890 543.926 L 663.444 550.181 L 658.983 556.428 L 654.508 562.667 L 650.020 568.895 L 645.518 575.113 L 641.003 581.319 L 636.476 587.512 L 631.937 593.691 L 627.385 599.855 L 622.823 606.004 L 618.249 612.135 L 613.666 618.249 L 609.072 624.345 L 604.468 630.421 L 599.855 636.476 L 595.233 642.510 L 590.603 648.521 L 585.965 654.508 L 581.319 660.472 L 576.665 666.410 L 572.005 672.321 L 567.339 678.206 L 562.667 684.062 L 557.989 689.890 L 553.306 695.687 L 548.618 701.453 L 543.926 707.188 L 539.230 712.890 L 534.530 718.558 L 529.827 724.192 L 525.122 729.790 L 520.415 735.352 L 515.705 740.877 L 510.995 746.364 L 506.283 751.812 L 501.571 757.220 L 496.858 762.587 L 492.146 767.913 L 487.435 773.197 L 482.725 778.438 L 478.016 783.634 L 473.309 788.786 L 468.605 793.893 L 463.903 798.952 L 459.205 803.965 L 454.510 808.930 L 449.819 813.846 L 445.133 818.712 L 440.451 823.528 L 435.775 828.293 L 431.105 833.006 L 426.441 837.666 L 421.783 842.274 L 417.132 846.827 L 412.488 851.325 L 407.853 855.768 L 403.225 860.155 L 398.606 864.484 L 393.996 868.757 L 389.396 872.971 L 384.805 877.126 L 380.225 881.221 L 375.655 885.257 L 371.096 889.231 L 366.549 893.144 L 362.014 896.995 L 357.490 900.783 L 352.980 904.508 L 348.482 908.170 L 343.998 911.766 L 339.528 915.298 L 335.072 918.764 L 330.631 922.164 L 326.205 925.497 L 321.794 928.763 L 317.399 931.962 L 313.020 935.092 L 308.658 938.153 L 304.313 941.146 L 299.985 944.068 L 295.675 946.921 L 291.384 949.703 L 287.110 952.414 L 282.856 955.053 L 278.621 957.621 L 274.405 960.116 L 270.210 962.539 L 266.035 964.888 L 261.881 967.164 L 257.748 969.367 L 253.636 971.495 L 249.547 973.549 L 245.479 975.528 L 241.435 977.432 L 237.413 979.261 L 233.414 981.014 L 229.439 982.691 L 225.489 984.292 L 221.562 985.816 L 217.661 987.263 L 213.784 988.634 L 209.933 989.928 L 206.107 991.144 L 202.308 992.282 L 198.535 993.343 L 194.789 994.326 L 191.070 995.231 L 187.379 996.057 L 183.715 996.806 L 180.079 997.476 L 176.472 998.067 L 172.894 998.579 L 169.344 999.013 L 165.824 999.368 L 162.334 999.645 L 158.873 999.842 L 155.443 999.961 L 152.044 1000.000 L 148.675 999.961 L 145.338 999.842 L 142.032 999.645 L 138.758 999.368 L 135.516 999.013 L 132.306 998.579 L 129.129 998.067 L 125.985 997.476 L 122.874 996.806 L 119.797 996.057 L 116.753 995.231 L 113.744 994.326 L 110.769 993.343 L 107.828 992.282 L 104.922 991.144 L 102.052 989.928 L 99.217 988.634 L 96.417 987.263 L 93.653 985.816 L 90.925 984.292 L 88.234 982.691 L 85.579 981.014 L 82.961 979.261 L 80.380 977.432 L 77.836 975.528 L 75.330 973.549 L 72.861 971.495 L 70.431 969.367 L 68.038 967.164 L 65.684 964.888 L 63.369 962.539 L 61.092 960.116 L 58.854 957.621 L 56.656 955.053 L 54.497 952.414 L 52.377 949.703 L 50.297 946.921 L 48.258 944.068 L 46.258 941.146 L 44.298 938.153 L 42.379 935.092 L 40.501 931.962 L 38.664 928.763 L 36.867 925.497 L 35.112 922.164 L 33.398 918.764 L 31.725 915.298 L 30.094 911.766 L 28.505 908.170 L 26.957 904.508 L 25.452 900.783 L 23.989 896.995 L 22.568 893.144 L 21.189 889.231 L 19.853 885.257 L 18.560 881.221 L 17.309 877.126 L 16.101 872.971 L 14.937 868.757 L 13.815 864.484 L 12.737 860.155 L 11.701 855.768 L 10.710 851.325 L 9.761 846.827 L 8.856 842.274 L 7.995 837.666 L 7.178 833.006 L 6.404 828.293 L 5.674 823.528 L 4.988 818.712 L 4.346 813.846 L 3.748 808.930 L 3.194 803.965 L 2.685 798.952 L 2.219 793.893 L 1.798 788.786 L 1.421 783.634 L 1.088 778.438 L 0.799 773.197 L 0.555 767.913 L 0.355 762.587 L 0.200 757.220 L 0.089 751.812 L 0.022 746.364 L 0.000 740.877 L 0.022 735.352 L 0.089 729.790 L 0.200 724.192 L 0.355 718.558 L 0.555 712.890 L 0.799 707.188 L 1.088 701.453 L 1.421 695.687 L 1.798 689.890 L 2.219 684.062 L 2.685 678.206 L 3.194 672.321 L 3.748 666.410 L 4.346 660.472 L 4.988 654.508 L 5.674 648.521 L 6.404 642.510 L 7.178 636.476 L 7.995 630.421 L 8.856 624.345 L 9.761 618.249 L 10.710 612.135 L 11.701 606.004 L 12.737 599.855 L 13.815 593.691 L 14.937 587.512 L 16.101 581.319 L 17.309 575.113 L 18.560 568.895 L 19.853 562.667 L 21.189 556.428 L 22.568 550.181 L 23.989 543.926 L 25.452 537.663 L 26.957 531.395 L 28.505 525.122 L 30.094 518.845 L 31.725 512.565 L 33.398 506.283 L 35.112 500.000 L 36.867 493.717 L 38.664 487.435 L 40.501 481.155 L 42.379 474.878 L 44.298 468.605 L 46.258 462.337 L 48.258 456.074 L 50.297 449.819 L 52.377 443.572 L 54.497 437.333 L 56.656 431.105 L 58.854 424.887 L 61.092 418.681 L 63.369 412.488 L 65.684 406.309 L 68.038 400.145 L 70.431 393.996 L 72.861 387.865 L 75.330 381.751 L 77.836 375.655 L 80.380 369.579 L 82.961 363.524 L 85.579 357.490 L 88.234 351.479 L 90.925 345.492 L 93.653 339.528 L 96.417 333.590 L 99.217 327.679 L 102.052 321.794 L 104.922 315.938 L 107.828 310.110 L 110.769 304.313 L 113.744 298.547 L 116.753 292.812 L 119.797 287.110 L 122.874 281.442 L 125.985 275.808 L 129.129 270.210 L 132.306 264.648 L 135.516 259.123 L 138.758 253.636 L 142.032 248.188 L 145.338 242.780 L 148.675 237.413 L 152.044 232.087 L 155.443 226.803 L 158.873 221.562 L 162.334 216.366 L 165.824 211.214 L 169.344 206.107 L 172.894 201.048 L 176.472 196.035 L 180.079 191.070 L 183.715 186.154 L 187.379 181.288 L 191.070 176.472 L 194.789 171.707 L 198.535 166.994 L 202.308 162.334 L 206.107 157.726 L 209.933 153.173 L 213.784 148.675 L 217.661 144.232 L 221.562 139.845 L 225.489 135.516 L 229.439 131.243 L 233.414 127.029 L 237.413 122.874 L 241.435 118.779 L 245.479 114.743 L 249.547 110.769 L 253.636 106.856 L 257.748 103.005 L 261.881 99.217 L 266.035 95.492 L 270.210 91.830 L 274.405 88.234 L 278.621 84.702 L 282.856 81.236 L 287.110 77.836 L 291.384 74.503 L 295.675 71.237 L 299.985 68.038 L 304.313 64.908 L 308.658 61.847 L 313.020 58.854 L 317.399 55.932 L 321.794 53.079 L 326.205 50.297 L 330.631 47.586 L 335.072 44.947 L 339.528 42.379 L 343.998 39.884 L 348.482 37.461 L 352.980 35.112 L 357.490 32.836 L 362.014 30.633 L 366.549 28.505 L 371.096 26.451 L 375.655 24.472 L 380.225 22.568 L 384.805 20.739 L 389.396 18.986 L 393.996 17.309 L 398.606 15.708 L 403.225 14.184 L 407.853 12.737 L 412.488 11.366 L 417.132 10.072 L 421.783 8.856 L 426.441 7.718 L 431.105 6.657 L 435.775 5.674 L 440.451 4.769 L 445.133 3.943 L 449.819 3.194 L 454.510 2.524 L 459.205 1.933 L 463.903 1.421 L 468.605 0.987 L 473.309 0.632 L 478.016 0.355 L 482.725 0.158 L 487.435 0.039 L 492.146 0.000 L 496.858 0.039 L 501.571 0.158 L 506.283 0.355 L 510.995 0.632 L 515.705 0.987 L 520.415 1.421 L 525.122 1.933 L 529.827 2.524 L 534.530 3.194 L 539.230 3.943 L 543.926 4.769 L 548.618 5.674 L 553.306 6.657 L 557.989 7.718 L 562.667 8.856 L 567.339 10.072 L 572.005 11.366 L 576.665 12.737 L 581.319 14.184 L 585.965 15.708 L 590.603 17.309 L 595.233 18.986 L 599.855 20.739 L 604.468 22.568 L 609.072 24.472 L 613.666 26.451 L 618.249 28.505 L 622.823 30.633 L 627.385 32.836 L 631.937 35.112 L 636.476 37.461 L 641.003 39.884 L 645.518 42.379 L 650.020 44.947 L 654.508 47.586 L 658.983 50.297 L 663.444 53.079 L 667.890 55.932 L 672.321 58.854 L 676.737 61.847 L 681.138 64.908 L 685.522 68.038 L 689.890 71.237 L 694.240 74.503 L 698.574 77.836 L 702.890 81.236 L 707.188 84.702 L 711.467 88.234 L 715.728 91.830 L 719.970 95.492 L 724.192 99.217 L 728.394 103.005 L 732.576 106.856 L 736.737 110.769 L 740.877 114.743 L 744.996 118.779 L 749.093 122.874 L 753.167 127.029 L 757.220 131.243 L 761.249 135.516 L 765.256 139.845 L 769.238 144.232 L 773.197 148.675 L 777.132 153.173 L 781.042 157.726 L 784.927 162.334 L 788.786 166.994 L 792.620 171.707 L 796.428 176.472 L 800.210 181.288 L 803.965 186.154 L 807.693 191.070 L 811.394 196.035 L 815.067 201.048 L 818.712 206.107 L 822.329 211.214 L 825.917 216.366 L 829.476 221.562 L 833.006 226.803 L 836.506 232.087 L 839.977 237.413 L 843.417 242.780 L 846.827 248.188 L 850.206 253.636 L 853.553 259.123 L 856.870 264.648 L 860.155 270.210 L 863.407 275.808 L 866.628 281.442 L 869.816 287.110 L 872.971 292.812 L 876.092 298.547 L 879.181 304.313 L 882.236 310.110 L 885.257 315.938 L 888.243 321.794 L 891.195 327.679 L 894.113 333.590 L 896.995 339.528 L 899.842 345.492 L 902.654 351.479 L 905.430 357.490 L 908.170 363.524 L 910.873 369.579 L 913.540 375.655 L 916.171 381.751 L 918.764 387.865 L 921.320 393.996 L 923.839 400.145 L 926.320 406.309 L 928.763 412.488 L 931.168 418.681 L 933.535 424.887 L 935.864 431.105 L 938.153 437.333 L 940.404 443.572 L 942.616 449.819 L 944.788 456.074 L 946.921 462.337 L 949.014 468.605 L 951.067 474.878 L 953.080 481.155 L 955.053 487.435 L 956.985 493.717 L 958.877 500.000" fill="none" stroke="black" stroke-width="12.0" stroke-linecap="round" stroke-linejoin="round" vector-effect="non-scaling-stroke"/>
</svg>