<svg xmlns="http://www.w3.org/2000/svg" viewBox="-6.000 -6.000 1012.000 1012.000" preserveAspectRatio="xMidYMid meet">
    <path d="M 864.484 500.000 L 863.407 503.142 L 862.327 506.283 L 861.242 509.424 L 860.155 512.565 L 859.063 515.705 L 857.968 518.845 L 856.870 521.984 L 855.768 525.122 L 854.662 528.259 L 853.553 531.395 L 852.441 534.530 L 851.325 537.663 L 850.206 540.795 L 849.083 543.926 L 847.956 547.054 L 846.827 550.181 L 845.693 553.306 L 844.557 556.428 L 843.417 559.549 L 842.274 562.667 L 841.127 565.782 L 839.977 568.895 L 838.823 572.005 L 837.666 575.113 L 836.506 578.217 L 835.343 581.319 L 834.176 584.417 L 833.006 587.512 L 831.833 590.603 L 830.656 593.691 L 829.476 596.775 L 828.293 599.855 L 827.106 602.931 L 825.917 606.004 L 824.724 609.072 L 823.528 612.135 L 822.329 615.195 L 821.126 618.249 L 819.921 621.300 L 818.712 624.345 L 817.500 627.385 L 816.285 630.421 L 815.067 633.451 L 813.846 636.476 L 812.621 639.496 L 811.394 642.510 L 810.163 645.518 L 808.930 648.521 L 807.693 651.518 L 806.454 654.508 L 805.211 657.493 L 803.965 660.472 L 802.716 663.444 L 801.465 666.410 L 800.210 669.369 L 798.952 672.321 L 797.692 675.267 L 796.428 678.206 L 795.162 681.138 L 793.893 684.062 L 792.620 686.980 L 791.345 689.890 L 790.067 692.792 L 788.786 695.687 L 787.503 698.574 L 786.216 701.453 L 784.927 704.325 L 783.634 707.188 L 782.339 710.043 L 781.042 712.890 L 779.741 715.728 L 778.438 718.558 L 777.132 721.379 L 775.823 724.192 L 774.511 726.995 L 773.197 729.790 L 771.880 732.576 L 770.561 735.352 L 769.238 738.119 L 767.913 740.877 L 766.586 743.625 L 765.256 746.364 L 763.923 749.093 L 762.587 751.812 L 761.249 754.521 L 759.909 757.220 L 758.565 759.909 L 757.220 762.587 L 755.872 765.256 L 754.521 767.913 L 753.167 770.561 L 751.812 773.197 L 750.453 775.823 L 749.093 778.438 L 747.729 781.042 L 746.364 783.634 L 744.996 786.216 L 743.625 788.786 L 742.252 791.345 L 740.877 793.893 L 739.499 796.428 L 738.119 798.952 L 736.737 801.465 L 735.352 803.965 L 733.965 806.454 L 732.576 808.930 L 731.184 811.394 L 729.790 813.846 L 728.394 816.285 L 726.995 818.712 L 725.595 821.126 L 724.192 823.528 L 722.786 825.917 L 721.379 828.293 L 719.970 830.656 L 718.558 833.006 L 717.144 835.343 L 715.728 837.666 L 714.310 839.977 L 712.890 842.274 L 711.467 844.557 L 710.043 846.827 L 708.616 849.083 L 707.188 851.325 L 705.757 853.553 L 704.325 855.768 L 702.890 857.968 L 701.453 860.155 L 700.015 862.327 L 698.574 864.484 L 697.131 866.628 L 695.687 868.757 L 694.240 870.871 L 692.792 872.971 L 691.342 875.056 L 689.890 877.126 L 688.436 879.181 L 686.980 881.221 L 685.522 883.247 L 684.062 885.257 L 682.601 887.252 L 681.138 889.231 L 679.673 891.195 L 678.206 893.144 L 676.737 895.078 L 675.267 896.995 L 673.795 898.897 L 672.321 900.783 L 670.846 902.654 L 669.369 904.508 L 667.890 906.347 L 666.410 908.170 L 664.928 909.976 L 663.444 911.766 L 661.959 913.540 L 660.472 915.298 L 658.983 917.039 L 657.493 918.764 L 656.002 920.472 L 654.508 922.164 L 653.014 923.839 L 651.518 925.497 L 650.020 927.139 L 648.521 928.763 L 647.020 930.371 L 645.518 931.962 L 644.015 933.535 L 642.510 935.092 L 641.003 936.631 L 639.496 938.153 L 637.986 939.658 L 636.476 941.146 L 634.964 942.616 L 633.451 944.068 L 631.937 945.503 L 630.421 946.921 L 628.904 948.321 L 627.385 949.703 L 625.866 951.067 L 624.345 952.414 L 622.823 953.742 L 621.300 955.053 L 619.775 956.346 L 618.249 957.621 L 616.723 958.877 L 615.195 960.116 L 613.666 961.336 L 612.135 962.539 L 610.604 963.723 L 609.072 964.888 L 607.538 966.036 L 606.004 967.164 L 604.468 968.275 L 602.931 969.367 L 601.394 970.440 L 599.855 971.495 L 598.315 972.532 L 596.775 973.549 L 595.233 974.548 L 593.691 975.528 L 592.147 976.490 L 590.603 977.432 L 589.058 978.356 L 587.512 979.261 L 585.965 980.147 L 584.417 981.014 L 582.868 981.862 L 581.319 982.691 L 579.768 983.501 L 578.217 984.292 L 576.665 985.063 L 575.113 985.816 L 573.559 986.549 L 572.005 987.263 L 570.451 987.958 L 568.895 988.634 L 567.339 989.290 L 565.782 989.928 L 564.225 990.545 L 562.667 991.144 L 561.108 991.723 L 559.549 992.282 L 557.989 992.822 L 556.428 993.343 L 554.867 993.844 L 553.306 994.326 L 551.743 994.788 L 550.181 995.231 L 548.618 995.654 L 547.054 996.057 L 545.490 996.441 L 543.926 996.806 L 542.361 997.150 L 540.795 997.476 L 539.230 997.781 L 537.663 998.067 L 536.097 998.333 L 534.530 998.579 L 532.963 998.806 L 531.395 999.013 L 529.827 999.201 L 528.259 999.368 L 526.691 999.516 L 525.122 999.645 L 523.553 999.753 L 521.984 999.842 L 520.415 999.911 L 518.845 999.961 L 517.275 999.990 L 515.705 1000.000 L 514.135 999.990 L 512.565 999.961 L 510.995 999.911 L 509.424 999.842 L 507.854 999.753 L 506.283 999.645 L 504.712 999.516 L 503.142 999.368 L 501.571 999.201 L 500.000 999.013 L 498.429 998.806 L 496.858 998.579 L 495.288 998.333 L 493.717 998.067 L 492.146 997.781 L 490.576 997.476 L 489.005 997.150 L 487.435 996.806 L 485.865 996.441 L 484.295 996.057 L 482.725 995.654 L 481.155 995.231 L 479.585 994.788 L 478.016 994.326 L 476.447 993.844 L 474.878 993.343 L 473.309 992.822 L 471.741 992.282 L 470.173 991.723 L 468.605 991.144 L 467.037 990.545 L 465.470 989.928 L 463.903 989.290 L 462.337 988.634 L 460.770 987.958 L 459.205 987.263 L 457.639 986.549 L 456.074 985.816 L 454.510 985.063 L 452.946 984.292 L 451.382 983.501 L 449.819 982.691 L 448.257 981.862 L 446.694 981.014 L 445.133 980.147 L 443.572 979.261 L 442.011 978.356 L 440.451 977.432 L 438.892 976.490 L 437.333 975.528 L 435.775 974.548 L 434.218 973.549 L 432.661 972.532 L 431.105 971.495 L 429.549 970.440 L 427.995 969.367 L 426.441 968.275 L 424.887 967.164 L 423.335 966.036 L 421.783 964.888 L 420.232 963.723 L 418.681 962.539 L 417.132 961.336 L 415.583 960.116 L 414.035 958.877 L 412.488 957.621 L 410.942 956.346 L 409.397 955.053 L 407.853 953.742 L 406.309 952.414 L 404.767 951.067 L 403.225 949.703 L 401.685 948.321 L 400.145 946.921 L 398.606 945.503 L 397.069 944.068 L 395.532 942.616 L 393.996 941.146 L 392.462 939.658 L 390.928 938.153 L 389.396 936.631 L 387.865 935.092 L 386.334 933.535 L 384.805 931.962 L 383.277 930.371 L 381.751 928.763 L 380.225 927.139 L 378.700 925.497 L 377.177 923.839 L 375.655 922.164 L 374.134 920.472 L 372.615 918.764 L 371.096 917.039 L 369.579 915.298 L 368.063 913.540 L 366.549 911.766 L 365.036 909.976 L 363.524 908.170 L 362.014 906.347 L 360.504 904.508 L 358.997 902.654 L 357.490 900.783 L 355.985 898.897 L 354.482 896.995 L 352.980 895.078 L 351.479 893.144 L 349.980 891.195 L 348.482 889.231 L 346.986 887.252 L 345.492 885.257 L 343.998 883.247 L 342.507 881.221 L 341.017 879.181 L 339.528 877.126 L 338.041 875.056 L 336.556 872.971 L 335.072 870.871 L 333.590 868.757 L 332.110 866.628 L 330.631 864.484 L 329.154 862.327 L 327.679 860.155 L 326.205 857.968 L 324.733 855.768 L 323.263 853.553 L 321.794 851.325 L 320.327 849.083 L 318.862 846.827 L 317.399 844.557 L 315.938 842.274 L 314.478 839.977 L 313.020 837.666 L 311.564 835.343 L 310.110 833.006 L 308.658 830.656 L 307.208 828.293 L 305.760 825.917 L 304.313 823.528 L 302.869 821.126 L 301.426 818.712 L 299.985 816.285 L 298.547 813.846 L 297.110 811.394 L 295.675 808.930 L 294.243 806.454 L 292.812 803.965 L 291.384 801.465 L 289.957 798.952 L 288.533 796.428 L 287.110 793.893 L 285.690 791.345 L 284.272 788.786 L 282.856 786.216 L 281.442 783.634 L 280.030 781.042 L 278.621 778.438 L 277.214 775.823 L 275.808 773.197 L 274.405 770.561 L 273.005 767.913 L 271.606 765.256 L 270.210 762.587 L 268.816 759.909 L 267.424 757.220 L 266.035 754.521 L 264.648 751.812 L 263.263 749.093 L 261.881 746.364 L 260.501 743.625 L 259.123 740.877 L 257.748 738.119 L 256.375 735.352 L 255.004 732.576 L 253.636 729.790 L 252.271 726.995 L 250.907 724.192 L 249.547 721.379 L 248.188 718.558 L 246.833 715.728 L 245.479 712.890 L 244.128 710.043 L 242.780 707.188 L 241.435 704.325 L 240.091 701.453 L 238.751 698.574 L 237.413 695.687 L 236.077 692.792 L 234.744 689.890 L 233.414 686.980 L 232.087 684.062 L 230.762 681.138 L 229.439 678.206 L 228.120 675.267 L 226.803 672.321 L 225.489 669.369 L 224.177 666.410 L 222.868 663.444 L 221.562 660.472 L 220.259 657.493 L 218.958 654.508 L 217.661 651.518 L 216.366 648.521 L 215.073 645.518 L 213.784 642.510 L 212.497 639.496 L 211.214 636.476 L 209.933 633.451 L 208.655 630.421 L 207.380 627.385 L 206.107 624.345 L 204.838 621.300 L 203.572 618.249 L 202.308 615.195 L 201.048 612.135 L 199.790 609.072 L 198.535 606.004 L 197.284 602.931 L 196.035 599.855 L 194.789 596.775 L 193.546 593.691 L 192.307 590.603 L 191.070 587.512 L 189.837 584.417 L 188.606 581.319 L 187.379 578.217 L 186.154 575.113 L 184.933 572.005 L 183.715 568.895 L 182.500 565.782 L 181.288 562.667 L 180.079 559.549 L 178.874 556.428 L 177.671 553.306 L 176.472 550.181 L 175.276 547.054 L 174.083 543.926 L 172.894 540.795 L 171.707 537.663 L 170.524 534.530 L 169.344 531.395 L 168.167 528.259 L 166.994 525.122 L 165.824 521.984 L 164.657 518.845 L 163.494 515.705 L 162.334 512.565 L 161.177 509.424 L 160.023 506.283 L 158.873 503.142 L 157.726 500.000 L 156.583 496.858 L 155.443 493.717 L 154.307 490.576 L 153.173 487.435 L 152.044 484.295 L 150.917 481.155 L 149.794 478.016 L 148.675 474.878 L 147.559 471.741 L 146.447 468.605 L 145.338 465.470 L 144.232 462.337 L 143.130 459.205 L 142.032 456.074 L 140.937 452.946 L 139.845 449.819 L 138.758 446.694 L 137.673 443.572 L 136.593 440.451 L 135.516 437.333 L 134.442 434.218 L 133.372 431.105 L 132.306 427.995 L 131.243 424.887 L 130.184 421.783 L 129.129 418.681 L 128.077 415.583 L 127.029 412.488 L 125.985 409.397 L 124.944 406.309 L 123.908 403.225 L 122.874 400.145 L 121.845 397.069 L 120.819 393.996 L 119.797 390.928 L 118.779 387.865 L 117.764 384.805 L 116.753 381.751 L 115.747 378.700 L 114.743 375.655 L 113.744 372.615 L 112.748 369.579 L 111.757 366.549 L 110.769 363.524 L 109.785 360.504 L 108.805 357.490 L 107.828 354.482 L 106.856 351.479 L 105.887 348.482 L 104.922 345.492 L 103.962 342.507 L 103.005 339.528 L 102.052 336.556 L 101.103 333.590 L 100.158 330.631 L 99.217 327.679 L 98.279 324.733 L 97.346 321.794 L 96.417 318.862 L 95.492 315.938 L 94.570 313.020 L 93.653 310.110 L 92.740 307.208 L 91.830 304.313 L 90.925 301.426 L 90.024 298.547 L 89.127 295.675 L 88.234 292.812 L 87.345 289.957 L 86.460 287.110 L 85.579 284.272 L 84.702 281.442 L 83.829 278.621 L 82.961 275.808 L 82.096 273.005 L 81.236 270.210 L 80.380 267.424 L 79.528 264.648 L 78.680 261.881 L 77.836 259.123 L 76.996 256.375 L 76.161 253.636 L 75.330 250.907 L 74.503 248.188 L 73.680 245.479 L 72.861 242.780 L 72.047 240.091 L 71.237 237.413 L 70.431 234.744 L 69.629 232.087 L 68.832 229.439 L 68.038 226.803 L 67.249 224.177 L 66.465 221.562 L 65.684 218.958 L 64.908 216.366 L 64.136 213.784 L 63.369 211.214 L 62.606 208.655 L 61.847 206.107 L 61.092 203.572 L 60.342 201.048 L 59.596 198.535 L 58.854 196.035 L 58.117 193.546 L 57.384 191.070 L 56.656 188.606 L 55.932 186.154 L 55.212 183.715 L 54.497 181.288 L 53.786 178.874 L 53.079 176.472 L 52.377 174.083 L 51.679 171.707 L 50.986 169.344 L 50.297 166.994 L 49.613 164.657 L 48.933 162.334 L 48.258 160.023 L 47.586 157.726 L 46.920 155.443 L 46.258 153.173 L 45.600 150.917 L 44.947 148.675 L 44.298 146.447 L 43.654 144.232 L 43.015 142.032 L 42.379 139.845 L 41.749 137.673 L 41.123 135.516 L 40.501 133.372 L 39.884 131.243 L 39.272 129.129 L 38.664 127.029 L 38.060 124.944 L 37.461 122.874 L 36.867 120.819 L 36.277 118.779 L 35.692 116.753 L 35.112 114.743 L 34.536 112.748 L 33.964 110.769 L 33.398 108.805 L 32.836 106.856 L 32.278 104.922 L 31.725 103.005 L 31.177 101.103 L 30.633 99.217 L 30.094 97.346 L 29.560 95.492 L 29.030 93.653 L 28.505 91.830 L 27.984 90.024 L 27.468 88.234 L 26.957 86.460 L 26.451 84.702 L 25.949 82.961 L 25.452 81.236 L 24.959 79.528 L 24.472 77.836 L 23.989 76.161 L 23.510 74.503 L 23.037 72.861 L 22.568 71.237 L 22.103 69.629 L 21.644 68.038 L 21.189 66.465 L 20.739 64.908 L 20.294 63.369 L 19.853 61.847 L 19.417 60.342 L 18.986 58.854 L 18.560 57.384 L 18.138 55.932 L 17.721 54.497 L 17.309 53.079 L 16.902 51.679 L 16.499 50.297 L 16.101 48.933 L 15.708 47.586 L 15.320 46.258 L 14.937 44.947 L 14.558 43.654 L 14.184 42.379 L 13.815 41.123 L 13.451 39.884 L 13.091 38.664 L 12.737 37.461 L 12.387 36.277 L 12.042 35.112 L 11.701 33.964 L 11.366 32.836 L 11.035 31.725 L 10.710 30.633 L 10.389 29.560 L 10.072 28.505 L 9.761 27.468 L 9.455 26.451 L 9.153 25.452 L 8.856 24.472 L 8.564 23.510 L 8.277 22.568 L 7.995 21.644 L 7.718 20.739 L 7.445 19.853 L 7.178 18.986 L 6.915 18.138 L 6.657 17.309 L 6.404 16.499 L 6.156 15.708 L 5.913 14.937 L 5.674 14.184 L 5.441 13.451 L 5.212 12.737 L 4.988 12.042 L 4.769 11.366 L 4.555 10.710 L 4.346 10.072 L 4.142 9.455 L 3.943 8.856 L 3.748 8.277 L 3.559 7.718 L 3.374 7.178 L 3.194 6.657 L 3.020 6.156 L 2.850 5.674 L 2.685 5.212 L 2.524 4.769 L 2.369 4.346 L 2.219 3.943 L 2.074 3.559 L 1.933 3.194 L 1.798 2.850 L 1.667 2.524 L 1.541 2.219 L 1.421 1.933 L 1.305 1.667 L 1.194 1.421 L 1.088 1.194 L 0.987 0.987 L 0.890 0.799 L 0.799 0.632 L 0.713 0.484 L 0.632 0.355 L 0.555 0.247 L 0.484 0.158 L 0.417 0.089 L 0.355 0.039 L 0.299 0.010 L 0.247 0.000 L 0.200 0.010 L 0.158 0.039 L 0.121 0.089 L 0.089 0.158 L 0.062 0.247 L 0.039 0.355 L 0.022 0.484 L 0.010 0.632 L 0.002 0.799 L 0.000 0.987 L 0.002 1.194 L 0.010 1.421 L 0.022 1.667 L 0.039 1.933 L 0.062 2.219 L 0.089 2.524 L 0.121 2.850 L 0.158 3.194 L 0.200 3.559 L 0.247 3.943 L 0.299 4.346 L 0.355 4.769 L 0.417 5.212 L 0.484 5.674 L 0.555 6.156 L 0.632 6.657 L 0.713 7.178 L 0.799 7.718 L 0.890 8.277 L 0.987 8.856 L 1.088 9.455 L 1.194 10.072 L 1.305 10.710 L 1.421 11.366 L 1.541 12.042 L 1.667 12.737 L 1.798 13.451 L 1.933 14.184 L 2.074 14.937 L 2.219 15.708 L 2.369 16.499 L 2.524 17.309 L 2.685 18.138 L 2.850 18.986 L 3.020 19.853 L 3.194 20.739 L 3.374 21.644 L 3.559 22.568 L 3.748 23.510 L 3.943 24.472 L 4.142 25.452 L 4.346 26.451 L 4.555 27.468 L 4.769 28.505 L 4.988 29.560 L 5.212 30.633 L 5.441 31.725 L 5.674 32.836 L 5.913 33.964 L 6.156 35.112 L 6.404 36.277 L 6.657 37.461 L 6.915 38.664 L 7.178 39.884 L 7.445 41.123 L 7.718 42.379 L 7.995 43.654 L 8.277 44.947 L 8.564 46.258 L 8.856 47.586 L 9.153 48.933 L 9.455 50.297 L 9.761 51.679 L 10.072 53.079 L 10.389 54.497 L 10.710 55.932 L 11.035 57.384 L 11.366 58.854 L 11.701 60.342 L 12.042 61.847 L 12.387 63.369 L 12.737 64.908 L 13.091 66.465 L 13.451 68.038 L 13.815 69.629 L 14.184 71.237 L 14.558 72.861 L 14.937 74.503 L 15.320 76.161 L 15.708 77.836 L 16.101 79.528 L 16.499 81.236 L 16.902 82.961 L 17.309 84.702 L 17.721 86.460 L 18.138 88.234 L 18.560 90.024 L 18.986 91.830 L 19.417 93.653 L 19.853 95.492 L 20.294 97.346 L 20.739 99.217 L 21.189 101.103 L 21.644 103.005 L 22.103 104.922 L 22.568 106.856 L 23.037 108.805 L 23.510 110.769 L 23.989 112.748 L 24.472 114.743 L 24.959 116.753 L 25.452 118.779 L 25.949 120.819 L 26.451 122.874 L 26.957 124.944 L 27.468 127.029 L 27.984 129.129 L 28.505 131.243 L 29.030 133.372 L 29.560 135.516 L 30.094 137.673 L 30.633 139.845 L 31.177 142.032 L 31.725 144.232 L 32.278 146.447 L 32.836 148.675 L 33.398 150.917 L 33.964 153.173 L 34.536 155.443 L 35.112 157.726 L 35.692 160.023 L 36.277 162.334 L 36.867 164.657 L 37.461 166.994 L 38.060 169.344 L 38.664 171.707 L 39.272 174.083 L 39.884 176.472 L 40.501 178.874 L 41.123 181.288 L 41.749 183.715 L 42.379 186.154 L 43.015 188.606 L 43.654 191.070 L 44.298 193.546 L 44.947 196.035 L 45.600 198.535 L 46.258 201.048 L 46.920 203.572 L 47.586 206.107 L 48.258 208.655 L 48.933 211.214 L 49.613 213.784 L 50.297 216.366 L 50.986 218.958 L 51.679 221.562 L 52.377 224.177 L 53.079 226.803 L 53.786 229.439 L 54.497 232.087 L 55.212 234.744 L 55.932 237.413 L 56.656 240.091 L 57.384 242.780 L 58.117 245.479 L 58.854 248.188 L 59.596 250.907 L 60.342 253.636 L 61.092 256.375 L 61.847 259.123 L 62.606 261.881 L 63.369 264.648 L 64.136 267.424 L 64.908 270.210 L 65.684 273.005 L 66.465 275.808 L 67.249 278.621 L 68.038 281.442 L 68.832 284.272 L 69.629 287.110 L 70.431 289.957 L 71.237 292.812 L 72.047 295.675 L 72.861 298.547 L 73.680 301.426 L 74.503 304.313 L 75.330 307.208 L 76.161 310.110 L 76.996 313.020 L 77.836 315.938 L 78.680 318.862 L 79.528 321.794 L 80.380 324.733 L 81.236 327.679 L 82.096 330.631 L 82.961 333.590 L 83.829 336.556 L 84.702 339.528 L 85.579 342.507 L 86.460 345.492 L 87.345 348.482 L 88.234 351.479 L 89.127 354.482 L 90.024 357.490 L 90.925 360.504 L 91.830 363.524 L 92.740 366.549 L 93.653 369.579 L 94.570 372.615 L 95.492 375.655 L 96.417 378.700 L 97.346 381.751 L 98.279 384.805 L 99.217 387.865 L 100.158 390.928 L 101.103 393.996 L 102.052 397.069 L 103.005 400.145 L 103.962 403.225 L 104.922 406.309 L 105.887 409.397 L 106.856 412.488 L 107.828 415.583 L 108.805 418.681 L 109.785 421.783 L 110.769 424.887 L 111.757 427.995 L 112.748 431.105 L 113.744 434.218 L 114.743 437.333 L 115.747 440.451 L 116.753 443.572 L 117.764 446.694 L 118.779 449.819 L 119.797 452.946 L 120.819 456.074 L 121.845 459.205 L 122.874 462.337 L 123.908 465.470 L 124.944 468.605 L 125.985 471.741 L 127.029 474.878 L 128.077 478.016 L 129.129 481.155 L 130.184 484.295 L 131.243 487.435 L 132.306 490.576 L 133.372 493.717 L 134.442 496.858 L 135.516 500.000 L 136.593 503.142 L 137.673 506.283 L 138.758 509.424 L 139.845 512.565 L 140.937 515.705 L 142.032 518.845 L 143.130 521.984 L 144.232 525.122 L 145.338 528.259 L 146.447 531.395 L 147.559 534.530 L 148.675 537.663 L 149.794 540.795 L 150.917 543.926 L 152.044 547.054 L 153.173 550.181 L 154.307 553.306 L 155.443 556.428 L 156.583 559.549 L 157.726 562.667 L 158.873 565.782 L 160.023 568.895 L 161.177 572.005 L 162.334 575.113 L 163.494 578.217 L 164.657 581.319 L 165.824 584.417 L 166.994 587.512 L 168.167 590.603 L 169.344 593.691 L 170.524 596.775 L 171.707 599.855 L 172.894 602.931 L 174.083 606.004 L 175.276 609.072 L 176.472 612.135 L 177.671 615.195 L 178.874 618.249 L 180.079 621.300 L 181.288 624.345 L 182.500 627.385 L 183.715 630.421 L 184.933 633.451 L 186.154 636.476 L 187.379 639.496 L 188.606 642.510 L 189.837 645.518 L 191.070 648.521 L 192.307 651.518 L 193.546 654.508 L 194.789 657.493 L 196.035 660.472 L 197.284 663.444 L 198.535 666.410 L 199.790 669.369 L 201.048 672.321 L 202.308 675.267 L 203.572 678.206 L 204.838 681.138 L 206.107 684.062 L 207.380 686.980 L 208.655 689.890 L 209.933 692.792 L 211.214 695.687 L 212.497 698.574 L 213.784 701.453 L 215.073 704.325 L 216.366 707.188 L 217.661 710.043 L 218.958 712.890 L 220.259 715.728 L 221.562 718.558 L 222.868 721.379 L 224.177 724.192 L 225.489 726.995 L 226.803 729.790 L 228.120 732.576 L 229.439 735.352 L 230.762 738.119 L 232.087 740.877 L 233.414 743.625 L 234.744 746.364 L 236.077 749.093 L 237.413 751.812 L 238.751 754.521 L 240.091 757.220 L 241.435 759.909 L 242.780 762.587 L 244.128 765.256 L 245.479 767.913 L 246.833 770.561 L 248.188 773.197 L 249.547 775.823 L 250.907 778.438 L 252.271 781.042 L 253.636 783.634 L 255.004 786.216 L 256.375 788.786 L 257.748 791.345 L 259.123 793.893 L 260.501 796.428 L 261.881 798.952 L 263.263 801.465 L 264.648 803.965 L 266.035 806.454 L 267.424 808.930 L 268.816 811.394 L 270.210 813.846 L 271.606 816.285 L 273.005 818.712 L 274.405 821.126 L 275.808 823.528 L 277.214 825.917 L 278.621 828.293 L 280.030 830.656 L 281.442 833.006 L 282.856 835.343 L 284.272 837.666 L 285.690 839.977 L 287.110 842.274 L 288.533 844.557 L 289.957 846.827 L 291.384 849.083 L 292.812 851.325 L 294.243 853.553 L 295.675 855.768 L 297.110 857.968 L 298.547 860.155 L 299.985 862.327 L 301.426 864.484 L 302.869 866.628 L 304.313 868.757 L 305.760 870.871 L 307.208 872.971 L 308.658 875.056 L 310.110 877.126 L 311.564 879.181 L 313.020 881.221 L 314.478 883.247 L 315.938 885.257 L 317.399 887.252 L 318.862 889.231 L 320.327 891.195 L 321.794 893.144 L 323.263 895.078 L 324.733 896.995 L 326.205 898.897 L 327.679 900.783 L 329.154 902.654 L 330.631 904.508 L 332.110 906.347 L 333.590 908.170 L 335.072 909.976 L 336.556 911.766 L 338.041 913.540 L 339.528 915.298 L 341.017 917.039 L 342.507 918.764 L 343.998 920.472 L 345.492 922.164 L 346.986 923.839 L 348.482 925.497 L 349.980 927.139 L 351.479 928.763 L 352.980 930.371 L 354.482 931.962 L 355.985 933.535 L 357.490 935.092 L 358.997 936.631 L 360.504 938.153 L 362.014 939.658 L 363.524 941.146 L 365.036 942.616 L 366.549 944.068 L 368.063 945.503 L 369.579 946.921 L 371.096 948.321 L 372.615 949.703 L 374.134 951.067 L 375.655 952.414 L 377.177 953.742 L 378.700 955.053 L 380.225 956.346 L 381.751 957.621 L 383.277 958.877 L 384.805 960.116 L 386.334 961.336 L 387.865 962.539 L 389.396 963.723 L 390.928 964.888 L 392.462 966.036 L 393.996 967.164 L 395.532 968.275 L 397.069 969.367 L 398.606 970.440 L 400.145 971.495 L 401.685 972.532 L 403.225 973.549 L 404.767 974.548 L 406.309 975.528 L 407.853 976.490 L 409.397 977.432 L 410.942 978.356 L 412.488 979.261 L 414.035 980.147 L 415.583 981.014 L 417.132 981.862 L 418.681 982.691 L 420.232 983.501 L 421.783 984.292 L 423.335 985.063 L 424.887 985.816 L 426.441 986.549 L 427.995 987.263 L 429.549 987.958 L 431.105 988.634 L 432.661 989.290 L 434.218 989.928 L 435.775 990.545 L 437.333 991.144 L 438.892 991.723 L 440.451 992.282 L 442.011 992.822 L 443.572 993.343 L 445.133 993.844 L 446.694 994.326 L 448.257 994.788 L 449.819 995.231 L 451.382 995.654 L 452.946 996.057 L 454.510 996.441 L 456.074 996.806 L 457.639 997.150 L 459.205 997.476 L 460.770 997.781 L 462.337 998.067 L 463.903 998.333 L 465.470 998.579 L 467.037 998.806 L 468.605 999.013 L 470.173 999.201 L 471.741 999.368 L 473.309 999.516 L 474.878 999.645 L 476.447 999.753 L 478.016 999.842 L 479.585 999.911 L 481.155 999.961 L 482.725 999.990 L 484.295 1000.000 L 485.865 999.990 L 487.435 999.961 L 489.005 999.911 L 490.576 999.842 L 492.146 999.753 L 493.717 999.645 L 495.288 999.516 L 496.858 999.368 L 498.429 999.201 L 500.000 999.013 L 501.571 998.806 L 503.142 998.579 L 504.712 998.333 L 506.283 998.067 L 507.854 997.781 L 509.424 997.476 L 510.995 997.150 L 512.565 996.806 L 514.135 996.441 L 515.705 996.057 L 517.275 995.654 L 518.845 995.231 L 520.415 994.788 L 521.984 994.326 L 523.553 993.844 L 525.122 993.343 L 526.691 992.822 L 528.259 992.282 L 529.827 991.723 L 531.395 991.144 L 532.963 990.545 L 534.530 989.928 L 536.097 989.290 L 537.663 988.634 L 539.230 987.958 L 540.795 987.263 L 542.361 986.549 L 543.926 985.816 L 545.490 985.063 L 547.054 984.292 L 548.618 983.501 L 550.181 982.691 L 551.743 981.862 L 553.306 981.014 L 554.867 980.147 L 556.428 979.261 L 557.989 978.356 L 559.549 977.432 L 561.108 976.490 L 562.667 975.528 L 564.225 974.548 L 565.782 973.549 L 567.339 972.532 L 568.895 971.495 L 570.451 970.440 L 572.005 969.367 L 573.559 968.275 L 575.113 967.164 L 576.665 966.036 L 578.217 964.888 L 579.768 963.723 L 581.319 962.539 L 582.868 961.336 L 584.417 960.116 L 585.965 958.877 L 587.512 957.621 L 589.058 956.346 L 590.603 955.053 L 592.147 953.742 L 593.691 952.414 L 595.233 951.067 L 596.775 949.703 L 598.315 948.321 L 599.855 946.921 L 601.394 945.503 L 602.931 944.068 L 604.468 942.616 L 606.004 941.146 L 607.538 939.658 L 609.072 938.153 L 610.604 936.631 L 612.135 935.092 L 613.666 933.535 L 615.195 931.962 L 616.723 930.371 L 618.249 928.763 L 619.775 927.139 L 621.300 925.497 L 622.823 923.839 L 624.345 922.164 L 625.866 920.472 L 627.385 918.764 L 628.904 917.039 L 630.421 915.298 L 631.937 913.540 L 633.451 911.766 L 634.964 909.976 L 636.476 908.170 L 637.986 906.347 L 639.496 904.508 L 641.003 902.654 L 642.510 900.783 L 644.015 898.897 L 645.518 896.995 L 647.020 895.078 L 648.521 893.144 L 650.020 891.195 L 651.518 889.231 L 653.014 887.252 L 654.508 885.257 L 656.002 883.247 L 657.493 881.221 L 658.983 879.181 L 660.472 877.126 L 661.959 875.056 L 663.444 872.971 L 664.928 870.871 L 666.410 868.757 L 667.890 866.628 L 669.369 864.484 L 670.846 862.327 L 672.321 860.155 L 673.795 857.968 L 675.267 855.768 L 676.737 853.553 L 678.206 851.325 L 679.673 849.083 L 681.138 846.827 L 682.601 844.557 L 684.062 842.274 L 685.522 839.977 L 686.980 837.666 L 688.436 835.343 L 689.890 833.006 L 691.342 830.656 L 692.792 828.293 L 694.240 825.917 L 695.687 823.528 L 697.131 821.126 L 698.574 818.712 L 700.015 816.285 L 701.453 813.846 L 702.890 811.394 L 704.325 808.930 L 705.757 806.454 L 707.188 803.965 L 708.616 801.465 L 710.043 798.952 L 711.467 796.428 L 712.890 793.893 L 714.310 791.345 L 715.728 788.786 L 717.144 786.216 L 718.558 783.634 L 719.970 781.042 L 721.379 778.438 L 722.786 775.823 L 724.192 773.197 L 725.595 770.561 L 726.995 767.913 L 728.394 765.256 L 729.790 762.587 L 731.184 759.909 L 732.576 757.220 L 733.965 754.521 L 735.352 751.812 L 736.737 749.093 L 738.119 746.364 L 739.499 743.625 L 740.877 740.877 L 742.252 738.119 L 743.625 735.352 L 744.996 732.576 L 746.364 729.790 L 747.729 726.995 L 749.093 724.192 L 750.453 721.379 L 751.812 718.558 L 753.167 715.728 L 754.521 712.890 L 755.872 710.043 L 757.220 707.188 L 758.565 704.325 L 759.909 701.453 L 761.249 698.574 L 762.587 695.687 L 763.923 692.792 L 765.256 689.890 L 766.586 686.980 L 767.913 684.062 L 769.238 681.138 L 770.561 678.206 L 771.880 675.267 L 773.197 672.321 L 774.511 669.369 L 775.823 666.410 L 777.132 663.444 L 778.438 660.472 L 779.741 657.493 L 781.042 654.508 L 782.339 651.518 L 783.634 648.521 L 784.927 645.518 L 786.216 642.510 L 787.503 639.496 L 788.786 636.476 L 790.067 633.451 L 791.345 630.421 L 792.620 627.385 L 793.893 624.345 L 795.162 621.300 L 796.428 618.249 L 797.692 615.195 L 798.952 612.135 L 800.210 609.072 L 801.465 606.004 L 802.716 602.931 L 803.965 599.855 L 805.211 596.775 L 806.454 593.691 L 807.693 590.603 L 808.930 587.512 L 810.163 584.417 L 811.394 581.319 L 812.621 578.217 L 813.846 575.113 L 815.067 572.005 L 816.285 568.895 L 817.500 565.782 L 818.712 562.667 L 819.921 559.549 L 821.126 556.428 L 822.329 553.306 L 823.528 550.181 L 824.724 547.054 L 825.917 543.926 L 827.106 540.795 L 828.293 537.663 L 829.476 534.530 L 830.656 531.395 L 831.833 528.259 L 833.006 525.122 L 834.176 521.984 L 835.343 518.845 L 836.506 515.705 L 837.666 512.565 L 838.823 509.424 L 839.977 506.283 L 841.127 503.142 L 842.274 500.000 L 843.417 496.858 L 844.557 493.717 L 845.693 490.576 L 846.827 487.435 L 847.956 484.295 L 849.083 481.155 L 850.206 478.016 L 851.325 474.878 L 852.441 471.741 L 853.553 468.605 L 854.662 465.470 L 855.768 462.337 L 856.870 459.205 L 857.968 456.074 L 859.063 452.946 L 860.155 449.819 L 861.242 446.694 L 862.327 443.572 L 863.407 440.451 L 864.484 437.333 L 865.558 434.218 L 866.628 431.105 L 867.694 427.995 L 868.757 424.887 L 869.816 421.783 L 870.871 418.681 L 871.923 415.583 L 872.971 412.488 L 874.015 409.397 L 875.056 406.309 L 876.092 403.225 L 877.126 400.145 L 878.155 397.069 L 879.181 393.996 L 880.203 390.928 L 881.221 387.865 L 882.236 384.805 L 883.247 381.751 L 884.253 378.700 L 885.257 375.655 L 886.256 372.615 L 887.252 369.579 L 888.243 366.549 L 889.231 363.524 L 890.215 360.504 L 891.195 357.490 L 892.172 354.482 L 893.144 351.479 L 894.113 348.482 L 895.078 345.492 L 896.038 342.507 L 896.995 339.528 L 897.948 336.556 L 898.897 333.590 L 899.842 330.631 L 900.783 327.679 L 901.721 324.733 L 902.654 321.794 L 903.583 318.862 L 904.508 315.938 L 905.430 313.020 L 906.347 310.110 L 907.260 307.208 L 908.170 304.313 L 909.075 301.426 L 909.976 298.547 L 910.873 295.675 L 911.766 292.812 L 912.655 289.957 L 913.540 287.110 L 914.421 284.272 L 915.298 281.442 L 916.171 278.621 L 917.039 275.808 L 917.904 273.005 L 918.764 270.210 L 919.620 267.424 L 920.472 264.648 L 921.320 261.881 L 922.164 259.123 L 923.004 256.375 L 923.839 253.636 L 924.670 250.907 L 925.497 248.188 L 926.320 245.479 L 927.139 242.780 L 927.953 240.091 L 928.763 237.413 L 929.569 234.744 L 930.371 232.087 L 931.168 229.439 L 931.962 226.803 L 932.751 224.177 L 933.535 221.562 L 934.316 218.958 L 935.092 216.366 L 935.864 213.784 L 936.631 211.214 L 937.394 208.655 L 938.153 206.107 L 938.908 203.572 L 939.658 201.048 L 940.404 198.535 L 941.146 196.035 L 941.883 193.546 L 942.616 191.070 L 943.344 188.606 L 944.068 186.154 L 944.788 183.715 L 945.503 181.288 L 946.214 178.874 L 946.921 176.472 L 947.623 174.083 L 948.321 171.707 L 949.014 169.344 L 949.703 166.994 L 950.387 164.657 L 951.067 162.334 L 951.742 160.023 L 952.414 157.726 L 953.080 155.443 L 953.742 153.173 L 954.400 150.917 L 955.053 148.675 L 955.702 146.447 L 956.346 144.232 L 956.985 142.032 L 957.621 139.845 L 958.251 137.673 L 958.877 135.516 L 959.499 133.372 L 960.116 131.243 L 960.728 129.129 L 961.336 127.029 L 961.940 124.944 L 962.539 122.874 L 963.133 120.819 L 963.723 118.779 L 964.308 116.753 L 964.888 114.743 L 965.464 112.748 L 966.036 110.769 L 966.602 108.805 L 967.164 106.856 L 967.722 104.922 L 968.275 103.005 L 968.823 101.103 L 969.367 99.217 L 969.906 97.346 L 970.440 95.492 L 970.970 93.653 L 971.495 91.830 L 972.016 90.024 L 972.532 88.234 L 973.043 86.460 L 973.549 84.702 L 974.051 82.961 L 974.548 81.236 L 975.041 79.528 L 975.528 77.836 L 976.011 76.161 L 976.490 74.503 L 976.963 72.861 L 977.432 71.237 L 977.897 69.629 L 978.356 68.038 L 978.811 66.465 L 979.261 64.908 L 979.706 63.369 L 980.147 61.847 L 980.583 60.342 L 981.014 58.854 L 981.440 57.384 L 981.862 55.932 L 982.279 54.497 L 982.691 53.079 L 983.098 51.679 L 983.501 50.297 L 983.899 48.933 L 984.292 47.586 L 984.680 46.258 L 985.063 44.947 L 985.442 43.654 L 985.816 42.379 L 986.185 41.123 L 986.549 39.884 L 986.909 38.664 L 987.263 37.461 L 987.613 36.277 L 987.958 35.112 L 988.299 33.964 L 988.634 32.836 L 988.965 31.725 L 989.290 30.633 L 989.611 29.560 L 989.928 28.505 L 990.239 27.468 L 990.545 26.451 L 990.847 25.452 L 991.144 24.472 L 991.436 23.510 L 991.723 22.568 L 992.005 21.644 L 992.282 20.739 L 992.555 19.853 L 992.822 18.986 L 993.085 18.138 L 993.343 17.309 L 993.596 16.499 L 993.844 15.708 L 994.087 14.937 L 994.326 14.184 L 994.559 13.451 L 994.788 12.737 L 995.012 12.042 L 995.231 11.366 L 995.445 10.710 L 995.654 10.072 L 995.858 9.455 L 996.057 8.856 L 996.252 8.277 L 996.441 7.718 L 996.626 7.178 L 996.806 6.657 L 996.980 6.156 L 997.150 5.674 L 997.315 5.212 L 997.476 4.769 L 997.631 4.346 L 997.781 3.943 L 997.926 3.559 L 998.067 3.194 L 998.202 2.850 L 998.333 2.524 L 998.459 2.219 L 998.579 1.933 L 998.695 1.667 L 998.806 1.421 L 998.912 1.194 L 999.013 0.987 L 999.110 0.799 L 999.201 0.632 L 999.287 0.484 L 999.368 0.355 L 999.445 0.247 L 999.516 0.158 L 999.583 0.089 L 999.645 0.039 L 999.701 0.010 L 999.753 0.000 L 999.800 0.010 L 999.842 0.039 L 999.879 0.089 L 999.911 0.158 L 999.938 0.247 L 999.961 0.355 L 999.978 0.484 L 999.990 0.632 L 999.998 0.799 L 1000.000 0.987 L 999.998 1.194 L 999.990 1.421 L 999.978 1.667 L 999.961 1.933 L 999.938 2.219 L 999.911 2.524 L 999.879 2.850 L 999.842 3.194 L 999.800 3.559 L 999.753 3.943 L 999.701 4.346 L 999.645 4.769 L 999.583 5.212 L 999.516 5.674 L 999.445 6.156 L 999.368 6.657 L 999.287 7.178 L 999.201 7.718 L 999.110 8.277 L 999.013 8.856 L 998.912 9.455 L 998.806 10.072 L 998.695 10.710 L 998.579 11.366 L 998.459 12.042 L 998.333 12.737 L 998.202 13.451 L 998.067 14.184 L 997.926 14.937 L 997.781 15.708 L 997.631 16.499 L 997.476 17.309 L 997.315 18.138 L 997.150 18.986 L 996.980 19.853 L 996.806 20.739 L 996.626 21.644 L 996.441 22.568 L 996.252 23.510 L 996.057 24.472 L 995.858 25.452 L 995.654 26.451 L 995.445 27.468 L 995.231 28.505 L 995.012 29.560 L 994.788 30.633 L 994.559 31.725 L 994.326 32.836 L 994.087 33.964 L 993.844 35.112 L 993.596 36.277 L 993.343 37.461 L 993.085 38.664 L 992.822 39.884 L 992.555 41.123 L 992.282 42.379 L 992.005 43.654 L 991.723 44.947 L 991.436 46.258 L 991.144 47.586 L 990.847 48.933 L 990.545 50.297 L 990.239 51.679 L 989.928 53.079 L 989.611 54.497 L 989.290 55.932 L 988.965 57.384 L 988.634 58.854 L 988.299 60.342 L 987.958 61.847 L 987.613 63.369 L 987.263 64.908 L 986.909 66.465 L 986.549 68.038 L 986.185 69.629 L 985.816 71.237 L 985.442 72.861 L 985.063 74.503 L 984.680 76.161 L 984.292 77.836 L 983.899 79.528 L 983.501 81.236 L 983.098 82.961 L 982.691 84.702 L 982.279 86.460 L 981.862 88.234 L 981.440 90.024 L 981.014 91.830 L 980.583 93.653 L 980.147 95.492 L 979.706 97.346 L 979.261 99.217 L 978.811 101.103 L 978.356 103.005 L 977.897 104.922 L 977.432 106.856 L 976.963 108.805 L 976.490 110.769 L 976.011 112.748 L 975.528 114.743 L 975.041 116.753 L 974.548 118.779 L 974.051 120.819 L 973.549 122.874 L 973.043 124.944 L 972.532 127.029 L 972.016 129.129 L 971.495 131.243 L 970.970 133.372 L 970.440 135.516 L 969.906 137.673 L 969.367 139.845 L 968.823 142.032 L 968.275 144.232 L 967.722 146.447 L 967.164 148.675 L 966.602 150.917 L 966.036 153.173 L 965.464 155.443 L 964.888 157.726 L 964.308 160.023 L 963.723 162.334 L 963.133 164.657 L 962.539 166.994 L 961.940 169.344 L 961.336 171.707 L 960.728 174.083 L 960.116 176.472 L 959.499 178.874 L 958.877 181.288 L 958.251 183.715 L 957.621 186.154 L 956.985 188.606 L 956.346 191.070 L 955.702 193.546 L 955.053 196.035 L 954.400 198.535 L 953.742 201.048 L 953.080 203.572 L 952.414 206.107 L 951.742 208.655 L 951.067 211.214 L 950.387 213.784 L 949.703 216.366 L 949.014 218.958 L 948.321 221.562 L 947.623 224.177 L 946.921 226.803 L 946.214 229.439 L 945.503 232.087 L 944.788 234.744 L 944.068 237.413 L 943.344 240.091 L 942.616 242.780 L 941.883 245.479 L 941.146 248.188 L 940.404 250.907 L 939.658 253.636 L 938.908 256.375 L 938.153 259.123 L 937.394 261.881 L 936.631 264.648 L 935.864 267.424 L 935.092 270.210 L 934.316 273.005 L 933.535 275.808 L 932.751 278.621 L 931.962 281.442 L 931.168 284.272 L 930.371 287.110 L 929.569 289.957 L 928.763 292.812 L 927.953 295.675 L 927.139 298.547 L 926.320 301.426 L 925.497 304.313 L 924.670 307.208 L 923.839 310.110 L 923.004 313.020 L 922.164 315.938 L 921.320 318.862 L 920.472 321.794 L 919.620 324.733 L 918.764 327.679 L 917.904 330.631 L 917.039 333.590 L 916.171 336.556 L 915.298 339.528 L 914.421 342.507 L 913.540 345.492 L 912.655 348.482 L 911.766 351.479 L 910.873 354.482 L 909.976 357.490 L 909.075 360.504 L 908.170 363.524 L 907.260 366.549 L 906.347 369.579 L 905.430 372.615 L 904.508 375.655 L 903.583 378.700 L 902.654 381.751 L 901.721 384.805 L 900.783 387.865 L 899.842 390.928 L 898.897 393.996 L 897.948 397.069 L 896.995 400.145 L 896.038 403.225 L 895.078 406.309 L 894.113 409.397 L 893.144 412.488 L 892.172 415.583 L 891.195 418.681 L 890.215 421.783 L 889.231 424.887 L 888.243 427.995 L 887.252 431.105 L 886.256 434.218 L 885.257 437.333 L 884.253 440.451 L 883.247 443.572 L 882.236 446.694 L 881.221 449.819 L 880.203 452.946 L 879.181 456.074 L 878.155 459.205 L 877.126 462.337 L 876.092 465.470 L 875.056 468.605 L 874.015 471.741 L 872.971 474.878 L 871.923 478.016 L 870.871 481.155 L 869.816 484.295 L 868.757 487.435 L 867.694 490.576 L 866.628 493.717 L 865.558 496.858 L 864.484 500.000" fill="none" stroke="black" stroke-width="12.0" stroke-linecap="round" stroke-linejoin="round" vector-effect="non-scaling-stroke"/>
</svg>