<svg xmlns="http://www.w3.org/2000/svg" viewBox="-6.000 -6.000 1012.000 1012.000" preserveAspectRatio="xMidYMid meet">
    <path d="M 991.144 500.000 L 990.239 506.283 L 989.290 512.565 L 988.299 518.845 L 987.263 525.122 L 986.185 531.395 L 985.063 537.663 L 983.899 543.926 L 982.691 550.181 L 981.440 556.428 L 980.147 562.667 L 978.811 568.895 L 977.432 575.113 L 976.011 581.319 L 974.548 587.512 L 973.043 593.691 L 971.495 599.855 L 969.906 606.004 L 968.275 612.135 L 966.602 618.249 L 964.888 624.345 L 963.133 630.421 L 961.336 636.476 L 959.499 642.510 L 957.621 648.521 L 955.702 654.508 L 953.742 660.472 L 951.742 666.410 L 949.703 672.321 L 947.623 678.206 L 945.503 684.062 L 943.344 689.890 L 941.146 695.687 L 938.908 701.453 L 936.631 707.188 L 934.316 712.890 L 931.962 718.558 L 929.569 724.192 L 927.139 729.790 L 924.670 735.352 L 922.164 740.877 L 919.620 746.364 L 917.039 751.812 L 914.421 757.220 L 911.766 762.587 L 909.075 767.913 L 906.347 773.197 L 903.583 778.438 L 900.783 783.634 L 897.948 788.786 L 895.078 793.893 L 892.172 798.952 L 889.231 803.965 L 886.256 808.930 L 883.247 813.846 L 880.203 818.712 L 877.126 823.528 L 874.015 828.293 L 870.871 833.006 L 867.694 837.666 L 864.484 842.274 L 861.242 846.827 L 857.968 851.325 L 854.662 855.768 L 851.325 860.155 L 847.956 864.484 L 844.557 868.757 L 841.127 872.971 L 837.666 877.126 L 834.176 881.221 L 830.656 885.257 L 827.106 889.231 L 823.528 893.144 L 819.921 896.995 L 816.285 900.783 L 812.621 904.508 L 808.930 908.170 L 805.211 911.766 L 801.465 915.298 L 797.692 918.764 L 793.893 922.164 L 790.067 925.497 L 786.216 928.763 L 782.339 931.962 L 778.438 935.092 L 774.511 938.153 L 770.561 941.146 L 766.586 944.068 L 762.587 946.921 L 758.565 949.703 L 754.521 952.414 L 750.453 955.053 L 746.364 957.621 L 742.252 960.116 L 738.119 962.539 L 733.965 964.888 L 729.790 967.164 L 725.595 969.367 L 721.379 971.495 L 717.144 973.549 L 712.890 975.528 L 708.616 977.432 L 704.325 979.261 L 700.015 981.014 L 695.687 982.691 L 691.342 984.292 L 686.980 985.816 L 682.601 987.263 L 678.206 988.634 L 673.795 989.928 L 669.369 991.144 L 664.928 992.282 L 660.472 993.343 L 656.002 994.326 L 651.518 995.231 L 647.020 996.057 L 642.510 996.806 L 637.986 997.476 L 633.451 998.067 L 628.904 998.579 L 624.345 999.013 L 619.775 999.368 L 615.195 999.645 L 610.604 999.842 L 606.004 999.961 L 601.394 1000.000 L 596.775 999.961 L 592.147 999.842 L 587.512 999.645 L 582.868 999.368 L 578.217 999.013 L 573.559 998.579 L 568.895 998.067 L 564.225 997.476 L 559.549 996.806 L 554.867 996.057 L 550.181 995.231 L 545.490 994.326 L 540.795 993.343 L 536.097 992.282 L 531.395 991.144 L 526.691 989.928 L 521.984 988.634 L 517.275 987.263 L 512.565 985.816 L 507.854 984.292 L 503.142 982.691 L 498.429 981.014 L 493.717 979.261 L 489.005 977.432 L 484.295 975.528 L 479.585 973.549 L 474.878 971.495 L 470.173 969.367 L 465.470 967.164 L 460.770 964.888 L 456.074 962.539 L 451.382 960.116 L 446.694 957.621 L 442.011 955.053 L 437.333 952.414 L 432.661 949.703 L 427.995 946.921 L 423.335 944.068 L 418.681 941.146 L 414.035 938.153 L 409.397 935.092 L 404.767 931.962 L 400.145 928.763 L 395.532 925.497 L 390.928 922.164 L 386.334 918.764 L 381.751 915.298 L 377.177 911.766 L 372.615 908.170 L 368.063 904.508 L 363.524 900.783 L 358.997 896.995 L 354.482 893.144 L 349.980 889.231 L 345.492 885.257 L 341.017 881.221 L 336.556 877.126 L 332.110 872.971 L 327.679 868.757 L 323.263 864.484 L 318.862 860.155 L 314.478 855.768 L 310.110 851.325 L 305.760 846.827 L 301.426 842.274 L 297.110 837.666 L 292.812 833.006 L 288.533 828.293 L 284.272 823.528 L 280.030 818.712 L 275.808 813.846 L 271.606 808.930 L 267.424 803.965 L 263.263 798.952 L 259.123 793.893 L 255.004 788.786 L 250.907 783.634 L 246.833 778.438 L 242.780 773.197 L 238.751 767.913 L 234.744 762.587 L 230.762 757.220 L 226.803 751.812 L 222.868 746.364 L 218.958 740.877 L 215.073 735.352 L 211.214 729.790 L 207.380 724.192 L 203.572 718.558 L 199.790 712.890 L 196.035 707.188 L 192.307 701.453 L 188.606 695.687 L 184.933 689.890 L 181.288 684.062 L 177.671 678.206 L 174.083 672.321 L 170.524 666.410 L 166.994 660.472 L 163.494 654.508 L 160.023 648.521 L 156.583 642.510 L 153.173 636.476 L 149.794 630.421 L 146.447 624.345 L 143.130 618.249 L 139.845 612.135 L 136.593 606.004 L 133.372 599.855 L 130.184 593.691 L 127.029 587.512 L 123.908 581.319 L 120.819 575.113 L 117.764 568.895 L 114.743 562.667 L 111.757 556.428 L 108.805 550.181 L 105.887 543.926 L 103.005 537.663 L 100.158 531.395 L 97.346 525.122 L 94.570 518.845 L 91.830 512.565 L 89.127 506.283 L 86.460 500.000 L 83.829 493.717 L 81.236 487.435 L 78.680 481.155 L 76.161 474.878 L 73.680 468.605 L 71.237 462.337 L 68.832 456.074 L 66.465 449.819 L 64.136 443.572 L 61.847 437.333 L 59.596 431.105 L 57.384 424.887 L 55.212 418.681 L 53.079 412.488 L 50.986 406.309 L 48.933 400.145 L 46.920 393.996 L 44.947 387.865 L 43.015 381.751 L 41.123 375.655 L 39.272 369.579 L 37.461 363.524 L 35.692 357.490 L 33.964 351.479 L 32.278 345.492 L 30.633 339.528 L 29.030 333.590 L 27.468 327.679 L 25.949 321.794 L 24.472 315.938 L 23.037 310.110 L 21.644 304.313 L 20.294 298.547 L 18.986 292.812 L 17.721 287.110 L 16.499 281.442 L 15.320 275.808 L 14.184 270.210 L 13.091 264.648 L 12.042 259.123 L 11.035 253.636 L 10.072 248.188 L 9.153 242.780 L 8.277 237.413 L 7.445 232.087 L 6.657 226.803 L 5.913 221.562 L 5.212 216.366 L 4.555 211.214 L 3.943 206.107 L 3.374 201.048 L 2.850 196.035 L 2.369 191.070 L 1.933 186.154 L 1.541 181.288 L 1.194 176.472 L 0.890 171.707 L 0.632 166.994 L 0.417 162.334 L 0.247 157.726 L 0.121 153.173 L 0.039 148.675 L 0.002 144.232 L 0.010 139.845 L 0.062 135.516 L 0.158 131.243 L 0.299 127.029 L 0.484 122.874 L 0.713 118.779 L 0.987 114.743 L 1.305 110.769 L 1.667 106.856 L 2.074 103.005 L 2.524 99.217 L 3.020 95.492 L 3.559 91.830 L 4.142 88.234 L 4.769 84.702 L 5.441 81.236 L 6.156 77.836 L 6.915 74.503 L 7.718 71.237 L 8.564 68.038 L 9.455 64.908 L 10.389 61.847 L 11.366 58.854 L 12.387 55.932 L 13.451 53.079 L 14.558 50.297 L 15.708 47.586 L 16.902 44.947 L 18.138 42.379 L 19.417 39.884 L 20.739 37.461 L 22.103 35.112 L 23.510 32.836 L 24.959 30.633 L 26.451 28.505 L 27.984 26.451 L 29.560 24.472 L 31.177 22.568 L 32.836 20.739 L 34.536 18.986 L 36.277 17.309 L 38.060 15.708 L 39.884 14.184 L 41.749 12.737 L 43.654 11.366 L 45.600 10.072 L 47.586 8.856 L 49.613 7.718 L 51.679 6.657 L 53.786 5.674 L 55.932 4.769 L 58.117 3.943 L 60.342 3.194 L 62.606 2.524 L 64.908 1.933 L 67.249 1.421 L 69.629 0.987 L 72.047 0.632 L 74.503 0.355 L 76.996 0.158 L 79.528 0.039 L 82.096 0.000 L 84.702 0.039 L 87.345 0.158 L 90.024 0.355 L 92.740 0.632 L 95.492 0.987 L 98.279 1.421 L 101.103 1.933 L 103.962 2.524 L 106.856 3.194 L 109.785 3.943 L 112.748 4.769 L 115.747 5.674 L 118.779 6.657 L 121.845 7.718 L 124.944 8.856 L 128.077 10.072 L 131.243 11.366 L 134.442 12.737 L 137.673 14.184 L 140.937 15.708 L 144.232 17.309 L 147.559 18.986 L 150.917 20.739 L 154.307 22.568 L 157.726 24.472 L 161.177 26.451 L 164.657 28.505 L 168.167 30.633 L 171.707 32.836 L 175.276 35.112 L 178.874 37.461 L 182.500 39.884 L 186.154 42.379 L 189.837 44.947 L 193.546 47.586 L 197.284 50.297 L 201.048 53.079 L 204.838 55.932 L 208.655 58.854 L 212.497 61.847 L 216.366 64.908 L 220.259 68.038 L 224.177 71.237 L 228.120 74.503 L 232.087 77.836 L 236.077 81.236 L 240.091 84.702 L 244.128 88.234 L 248.188 91.830 L 252.271 95.492 L 256.375 99.217 L 260.501 103.005 L 264.648 106.856 L 268.816 110.769 L 273.005 114.743 L 277.214 118.779 L 281.442 122.874 L 285.690 127.029 L 289.957 131.243 L 294.243 135.516 L 298.547 139.845 L 302.869 144.232 L 307.208 148.675 L 311.564 153.173 L 315.938 157.726 L 320.327 162.334 L 324.733 166.994 L 329.154 171.707 L 333.590 176.472 L 338.041 181.288 L 342.507 186.154 L 346.986 191.070 L 351.479 196.035 L 355.985 201.048 L 360.504 206.107 L 365.036 211.214 L 369.579 216.366 L 374.134 221.562 L 378.700 226.803 L 383.277 232.087 L 387.865 237.413 L 392.462 242.780 L 397.069 248.188 L 401.685 253.636 L 406.309 259.123 L 410.942 264.648 L 415.583 270.210 L 420.232 275.808 L 424.887 281.442 L 429.549 287.110 L 434.218 292.812 L 438.892 298.547 L 443.572 304.313 L 448.257 310.110 L 452.946 315.938 L 457.639 321.794 L 462.337 327.679 L 467.037 333.590 L 471.741 339.528 L 476.447 345.492 L 481.155 351.479 L 485.865 357.490 L 490.576 363.524 L 495.288 369.579 L 500.000 375.655 L 504.712 381.751 L 509.424 387.865 L 514.135 393.996 L 518.845 400.145 L 523.553 406.309 L 528.259 412.488 L 532.963 418.681 L 537.663 424.887 L 542.361 431.105 L 547.054 437.333 L 551.743 443.572 L 556.428 449.819 L 561.108 456.074 L 565.782 462.337 L 570.451 468.605 L 575.113 474.878 L 579.768 481.155 L 584.417 487.435 L 589.058 493.717 L 593.691 500.000 L 598.315 506.283 L 602.931 512.565 L 607.538 518.845 L 612.135 525.122 L 616.723 531.395 L 621.300 537.663 L 625.866 543.926 L 630.421 550.181 L 634.964 556.428 L 639.496 562.667 L 644.015 568.895 L 648.521 575.113 L 653.014 581.319 L 657.493 587.512 L 661.959 593.691 L 666.410 599.855 L 670.846 606.004 L 675.267 612.135 L 679.673 618.249 L 684.062 624.345 L 688.436 630.421 L 692.792 636.476 L 697.131 642.510 L 701.453 648.521 L 705.757 654.508 L 710.043 660.472 L 714.310 666.410 L 718.558 672.321 L 722.786 678.206 L 726.995 684.062 L 731.184 689.890 L 735.352 695.687 L 739.499 701.453 L 743.625 707.188 L 747.729 712.890 L 751.812 718.558 L 755.872 724.192 L 759.909 729.790 L 763.923 735.352 L 767.913 740.877 L 771.880 746.364 L 775.823 751.812 L 779.741 757.220 L 783.634 762.587 L 787.503 767.913 L 791.345 773.197 L 795.162 778.438 L 798.952 783.634 L 802.716 788.786 L 806.454 793.893 L 810.163 798.952 L 813.846 803.965 L 817.500 808.930 L 821.126 813.846 L 824.724 818.712 L 828.293 823.528 L 831.833 828.293 L 835.343 833.006 L 838.823 837.666 L 842.274 842.274 L 845.693 846.827 L 849.083 851.325 L 852.441 855.768 L 855.768 860.155 L 859.063 864.484 L 862.327 868.757 L 865.558 872.971 L 868.757 877.126 L 871.923 881.221 L 875.056 885.257 L 878.155 889.231 L 881.221 893.144 L 884.253 896.995 L 887.252 900.783 L 890.215 904.508 L 893.144 908.170 L 896.038 911.766 L 898.897 915.298 L 901.721 918.764 L 904.508 922.164 L 907.260 925.497 L 909.976 928.763 L 912.655 931.962 L 915.298 935.092 L 917.904 938.153 L 920.472 941.146 L 923.004 944.068 L 925.497 946.921 L 927.953 949.703 L 930.371 952.414 L 932.751 955.053 L 935.092 957.621 L 937.394 960.116 L 939.658 962.539 L 941.883 964.888 L 944.068 967.164 L 946.214 969.367 L 948.321 971.495 L 950.387 973.549 L 952.414 975.528 L 954.400 977.432 L 956.346 979.261 L 958.251 981.014 L 960.116 982.691 L 961.940 984.292 L 963.723 985.816 L 965.464 987.263 L 967.164 988.634 L 968.823 989.928 L 970.440 991.144 L 972.016 992.282 L 973.549 993.343 L 975.041 994.326 L 976.490 995.231 L 977.897 996.057 L 979.261 996.806 L 980.583 997.476 L 981.862 998.067 L 983.098 998.579 L 984.292 999.013 L 985.442 999.368 L 986.549 999.645 L 987.613 999.842 L 988.634 999.961 L 989.611 1000.000 L 990.545 999.961 L 991.436 999.842 L 992.282 999.645 L 993.085 999.368 L 993.844 999.013 L 994.559 998.579 L 995.231 998.067 L 995.858 997.476 L 996.441 996.806 L 996.980 996.057 L 997.476 995.231 L 997.926 994.326 L 998.333 993.343 L 998.695 992.282 L 999.013 991.144 L 999.287 989.928 L 999.516 988.634 L 999.701 987.263 L 999.842 985.816 L 999.938 984.292 L 999.990 982.691 L 999.998 981.014 L 999.961 979.261 L 999.879 977.432 L 999.753 975.528 L 999.583 973.549 L 999.368 971.495 L 999.110 969.367 L 998.806 967.164 L 998.459 964.888 L 998.067 962.539 L 997.631 960.116 L 997.150 957.621 L 996.626 955.053 L 996.057 952.414 L 995.445 949.703 L 994.788 946.921 L 994.087 944.068 L 993.343 941.146 L 992.555 938.153 L 991.723 935.092 L 990.847 931.962 L 989.928 928.763 L 988.965 925.497 L 987.958 922.164 L 986.909 918.764 L 985.816 915.298 L 984.680 911.766 L 983.501 908.170 L 982.279 904.508 L 981.014 900.783 L 979.706 896.995 L 978.356 893.144 L 976.963 889.231 L 975.528 885.257 L 974.051 881.221 L 972.532 877.126 L 970.970 872.971 L 969.367 868.757 L 967.722 864.484 L 966.036 860.155 L 964.308 855.768 L 962.539 851.325 L 960.728 846.827 L 958.877 842.274 L 956.985 837.666 L 955.053 833.006 L 953.080 828.293 L 951.067 823.528 L 949.014 818.712 L 946.921 813.846 L 944.788 808.930 L 942.616 803.965 L 940.404 798.952 L 938.153 793.893 L 935.864 788.786 L 933.535 783.634 L 931.168 778.438 L 928.763 773.197 L 926.320 767.913 L 923.839 762.587 L 921.320 757.220 L 918.764 751.812 L 916.171 746.364 L 913.540 740.877 L 910.873 735.352 L 908.170 729.790 L 905.430 724.192 L 902.654 718.558 L 899.842 712.890 L 896.995 707.188 L 894.113 701.453 L 891.195 695.687 L 888.243 689.890 L 885.257 684.062 L 882.236 678.206 L 879.181 672.321 L 876.092 666.410 L 872.971 660.472 L 869.816 654.508 L 866.628 648.521 L 863.407 642.510 L 860.155 636.476 L 856.870 630.421 L 853.553 624.345 L 850.206 618.249 L 846.827 612.135 L 843.417 606.004 L 839.977 599.855 L 836.506 593.691 L 833.006 587.512 L 829.476 581.319 L 825.917 575.113 L 822.329 568.895 L 818.712 562.667 L 815.067 556.428 L 811.394 550.181 L 807.693 543.926 L 803.965 537.663 L 800.210 531.395 L 796.428 525.122 L 792.620 518.845 L 788.786 512.565 L 784.927 506.283 L 781.042 500.000 L 777.132 493.717 L 773.197 487.435 L 769.238 481.155 L 765.256 474.878 L 761.249 468.605 L 757.220 462.337 L 753.167 456.074 L 749.093 449.819 L 744.996 443.572 L 740.877 437.333 L 736.737 431.105 L 732.576 424.887 L 728.394 418.681 L 724.192 412.488 L 719.970 406.309 L 715.728 400.145 L 711.467 393.996 L 707.188 387.865 L 702.890 381.751 L 698.574 375.655 L 694.240 369.579 L 689.890 363.524 L 685.522 357.490 L 681.138 351.479 L 676.737 345.492 L 672.321 339.528 L 667.890 333.590 L 663.444 327.679 L 658.983 321.794 L 654.508 315.938 L 650.020 310.110 L 645.518 304.313 L 641.003 298.547 L 636.476 292.812 L 631.937 287.110 L 627.385 281.442 L 622.823 275.808 L 618.249 270.210 L 613.666 264.648 L 609.072 259.123 L 604.468 253.636 L 599.855 248.188 L 595.233 242.780 L 590.603 237.413 L 585.965 232.087 L 581.319 226.803 L 576.665 221.562 L 572.005 216.366 L 567.339 211.214 L 562.667 206.107 L 557.989 201.048 L 553.306 196.035 L 548.618 191.070 L 543.926 186.154 L 539.230 181.288 L 534.530 176.472 L 529.827 171.707 L 525.122 166.994 L 520.415 162.334 L 515.705 157.726 L 510.995 153.173 L 506.283 148.675 L 501.571 144.232 L 496.858 139.845 L 492.146 135.516 L 487.435 131.243 L 482.725 127.029 L 478.016 122.874 L 473.309 118.779 L 468.605 114.743 L 463.903 110.769 L 459.205 106.856 L 454.510 103.005 L 449.819 99.217 L 445.133 95.492 L 440.451 91.830 L 435.775 88.234 L 431.105 84.702 L 426.441 81.236 L 421.783 77.836 L 417.132 74.503 L 412.488 71.237 L 407.853 68.038 L 403.225 64.908 L 398.606 61.847 L 393.996 58.854 L 389.396 55.932 L 384.805 53.079 L 380.225 50.297 L 375.655 47.586 L 371.096 44.947 L 366.549 42.379 L 362.014 39.884 L 357.490 37.461 L 352.980 35.112 L 348.482 32.836 L 343.998 30.633 L 339.528 28.505 L 335.072 26.451 L 330.631 24.472 L 326.205 22.568 L 321.794 20.739 L 317.399 18.986 L 313.020 17.309 L 308.658 15.708 L 304.313 14.184 L 299.985 12.737 L 295.675 11.366 L 291.384 10.072 L 287.110 8.856 L 282.856 7.718 L 278.621 6.657 L 274.405 5.674 L 270.210 4.769 L 266.035 3.943 L 261.881 3.194 L 257.748 2.524 L 253.636 1.933 L 249.547 1.421 L 245.479 0.987 L 241.435 0.632 L 237.413 0.355 L 233.414 0.158 L 229.439 0.039 L 225.489 0.000 L 221.562 0.039 L 217.661 0.158 L 213.784 0.355 L 209.933 0.632 L 206.107 0.987 L 202.308 1.421 L 198.535 1.933 L 194.789 2.524 L 191.070 3.194 L 187.379 3.943 L 183.715 4.769 L 180.079 5.674 L 176.472 6.657 L 172.894 7.718 L 169.344 8.856 L 165.824 10.072 L 162.334 11.366 L 158.873 12.737 L 155.443 14.184 L 152.044 15.708 L 148.675 17.309 L 145.338 18.986 L 142.032 20.739 L 138.758 22.568 L 135.516 24.472 L 132.306 26.451 L 129.129 28.505 L 125.985 30.633 L 122.874 32.836 L 119.797 35.112 L 116.753 37.461 L 113.744 39.884 L 110.769 42.379 L 107.828 44.947 L 104.922 47.586 L 102.052 50.297 L 99.217 53.079 L 96.417 55.932 L 93.653 58.854 L 90.925 61.847 L 88.234 64.908 L 85.579 68.038 L 82.961 71.237 L 80.380 74.503 L 77.836 77.836 L 75.330 81.236 L 72.861 84.702 L 70.431 88.234 L 68.038 91.830 L 65.684 95.492 L 63.369 99.217 L 61.092 103.005 L 58.854 106.856 L 56.656 110.769 L 54.497 114.743 L 52.377 118.779 L 50.297 122.874 L 48.258 127.029 L 46.258 131.243 L 44.298 135.516 L 42.379 139.845 L 40.501 144.232 L 38.664 148.675 L 36.867 153.173 L 35.112 157.726 L 33.398 162.334 L 31.725 166.994 L 30.094 171.707 L 28.505 176.472 L 26.957 181.288 L 25.452 186.154 L 23.989 191.070 L 22.568 196.035 L 21.189 201.048 L 19.853 206.107 L 18.560 211.214 L 17.309 216.366 L 16.101 221.562 L 14.937 226.803 L 13.815 232.087 L 12.737 237.413 L 11.701 242.780 L 10.710 248.188 L 9.761 253.636 L 8.856 259.123 L 7.995 264.648 L 7.178 270.210 L 6.404 275.808 L 5.674 281.442 L 4.988 287.110 L 4.346 292.812 L 3.748 298.547 L 3.194 304.313 L 2.685 310.110 L 2.219 315.938 L 1.798 321.794 L 1.421 327.679 L 1.088 333.590 L 0.799 339.528 L 0.555 345.492 L 0.355 351.479 L 0.200 357.490 L 0.089 363.524 L 0.022 369.579 L 0.000 375.655 L 0.022 381.751 L 0.089 387.865 L 0.200 393.996 L 0.355 400.145 L 0.555 406.309 L 0.799 412.488 L 1.088 418.681 L 1.421 424.887 L 1.798 431.105 L 2.219 437.333 L 2.685 443.572 L 3.194 449.819 L 3.748 456.074 L 4.346 462.337 L 4.988 468.605 L 5.674 474.878 L 6.404 481.155 L 7.178 487.435 L 7.995 493.717 L 8.856 500.000 L 9.761 506.283 L 10.710 512.565 L 11.701 518.845 L 12.737 525.122 L 13.815 531.395 L 14.937 537.663 L 16.101 543.926 L 17.309 550.181 L 18.560 556.428 L 19.853 562.667 L 21.189 568.895 L 22.568 575.113 L 23.989 581.319 L 25.452 587.512 L 26.957 593.691 L 28.505 599.855 L 30.094 606.004 L 31.725 612.135 L 33.398 618.249 L 35.112 624.345 L 36.867 630.421 L 38.664 636.476 L 40.501 642.510 L 42.379 648.521 L 44.298 654.508 L 46.258 660.472 L 48.258 666.410 L 50.297 672.321 L 52.377 678.206 L 54.497 684.062 L 56.656 689.890 L 58.854 695.687 L 61.092 701.453 L 63.369 707.188 L 65.684 712.890 L 68.038 718.558 L 70.431 724.192 L 72.861 729.790 L 75.330 735.352 L 77.836 740.877 L 80.380 746.364 L 82.961 751.812 L 85.579 757.220 L 88.234 762.587 L 90.925 767.913 L 93.653 773.197 L 96.417 778.438 L 99.217 783.634 L 102.052 788.786 L 104.922 793.893 L 107.828 798.952 L 110.769 803.965 L 113.744 808.930 L 116.753 813.846 L 119.797 818.712 L 122.874 823.528 L 125.985 828.293 L 129.129 833.006 L 132.306 837.666 L 135.516 842.274 L 138.758 846.827 L 142.032 851.325 L 145.338 855.768 L 148.675 860.155 L 152.044 864.484 L 155.443 868.757 L 158.873 872.971 L 162.334 877.126 L 165.824 881.221 L 169.344 885.257 L 172.894 889.231 L 176.472 893.144 L 180.079 896.995 L 183.715 900.783 L 187.379 904.508 L 191.070 908.170 L 194.789 911.766 L 198.535 915.298 L 202.308 918.764 L 206.107 922.164 L 209.933 925.497 L 213.784 928.763 L 217.661 931.962 L 221.562 935.092 L 225.489 938.153 L 229.439 941.146 L 233.414 944.068 L 237.413 946.921 L 241.435 949.703 L 245.479 952.414 L 249.547 955.053 L 253.636 957.621 L 257.748 960.116 L 261.881 962.539 L 266.035 964.888 L 270.210 967.164 L 274.405 969.367 L 278.621 971.495 L 282.856 973.549 L 287.110 975.528 L 291.384 977.432 L 295.675 979.261 L 299.985 981.014 L 304.313 982.691 L 308.658 984.292 L 313.020 985.816 L 317.399 987.263 L 321.794 988.634 L 326.205 989.928 L 330.631 991.144 L 335.072 992.282 L 339.528 993.343 L 343.998 994.326 L 348.482 995.231 L 352.980 996.057 L 357.490 996.806 L 362.014 997.476 L 366.549 998.067 L 371.096 998.579 L 375.655 999.013 L 380.225 999.368 L 384.805 999.645 L 389.396 999.842 L 393.996 999.961 L 398.606 1000.000 L 403.225 999.961 L 407.853 999.842 L 412.488 999.645 L 417.132 999.368 L 421.783 999.013 L 426.441 998.579 L 431.105 998.067 L 435.775 997.476 L 440.451 996.806 L 445.133 996.057 L 449.819 995.231 L 454.510 994.326 L 459.205 993.343 L 463.903 992.282 L 468.605 991.144 L 473.309 989.928 L 478.016 988.634 L 482.725 987.263 L 487.435 985.816 L 492.146 984.292 L 496.858 982.691 L 501.571 981.014 L 506.283 979.261 L 510.995 977.432 L 515.705 975.528 L 520.415 973.549 L 525.122 971.495 L 529.827 969.367 L 534.530 967.164 L 539.230 964.888 L 543.926 962.539 L 548.618 960.116 L 553.306 957.621 L 557.989 955.053 L 562.667 952.414 L 567.339 949.703 L 572.005 946.921 L 576.665 944.068 L 581.319 941.146 L 585.965 938.153 L 590.603 935.092 L 595.233 931.962 L 599.855 928.763 L 604.468 925.497 L 609.072 922.164 L 613.666 918.764 L 618.249 915.298 L 622.823 911.766 L 627.385 908.170 L 631.937 904.508 L 636.476 900.783 L 641.003 896.995 L 645.518 893.144 L 650.020 889.231 L 654.508 885.257 L 658.983 881.221 L 663.444 877.126 L 667.890 872.971 L 672.321 868.757 L 676.737 864.484 L 681.138 860.155 L 685.522 855.768 L 689.890 851.325 L 694.240 846.827 L 698.574 842.274 L 702.890 837.666 L 707.188 833.006 L 711.467 828.293 L 715.728 823.528 L 719.970 818.712 L 724.192 813.846 L 728.394 808.930 L 732.576 803.965 L 736.737 798.952 L 740.877 793.893 L 744.996 788.786 L 749.093 783.634 L 753.167 778.438 L 757.220 773.197 L 761.249 767.913 L 765.256 762.587 L 769.238 757.220 L 773.197 751.812 L 777.132 746.364 L 781.042 740.877 L 784.927 735.352 L 788.786 729.790 L 792.620 724.192 L 796.428 718.558 L 800.210 712.890 L 803.965 707.188 L 807.693 701.453 L 811.394 695.687 L 815.067 689.890 L 818.712 684.062 L 822.329 678.206 L 825.917 672.321 L 829.476 666.410 L 833.006 660.472 L 836.506 654.508 L 839.977 648.521 L 843.417 642.510 L 846.827 636.476 L 850.206 630.421 L 853.553 624.345 L 856.870 618.249 L 860.155 612.135 L 863.407 606.004 L 866.628 599.855 L 869.816 593.691 L 872.971 587.512 L 876.092 581.319 L 879.181 575.113 L 882.236 568.895 L 885.257 562.667 L 888.243 556.428 L 891.195 550.181 L 894.113 543.926 L 896.995 537.663 L 899.842 531.395 L 902.654 525.122 L 905.430 518.845 L 908.170 512.565 L 910.873 506.283 L 913.540 500.000 L 916.171 493.717 L 918.764 487.435 L 921.320 481.155 L 923.839 474.878 L 926.320 468.605 L 928.763 462.337 L 931.168 456.074 L 933.535 449.819 L 935.864 443.572 L 938.153 437.333 L 940.404 431.105 L 942.616 424.887 L 944.788 418.681 L 946.921 412.488 L 949.014 406.309 L 951.067 400.145 L 953.080 393.996 L 955.053 387.865 L 956.985 381.751 L 958.877 375.655 L 960.728 369.579 L 962.539 363.524 L 964.308 357.490 L 966.036 351.479 L 967.722 345.492 L 969.367 339.528 L 970.970 333.590 L 972.532 327.679 L 974.051 321.794 L 975.528 315.938 L 976.963 310.110 L 978.356 304.313 L 979.706 298.547 L 981.014 292.812 L 982.279 287.110 L 983.501 281.442 L 984.680 275.808 L 985.816 270.210 L 986.909 264.648 L 987.958 259.123 L 988.965 253.636 L 989.928 248.188 L 990.847 242.780 L 991.723 237.413 L 992.555 232.087 L 993.343 226.803 L 994.087 221.562 L 994.788 216.366 L 995.445 211.214 L 996.057 206.107 L 996.626 201.048 L 997.150 196.035 L 997.631 191.070 L 998.067 186.154 L 998.459 181.288 L 998.806 176.472 L 999.110 171.707 L 999.368 166.994 L 999.583 162.334 L 999.753 157.726 L 999.879 153.173 L 999.961 148.675 L 999.998 144.232 L 999.990 139.845 L 999.938 135.516 L 999.842 131.243 L 999.701 127.029 L 999.516 122.874 L 999.287 118.779 L 999.013 114.743 L 998.695 110.769 L 998.333 106.856 L 997.926 103.005 L 997.476 99.217 L 996.980 95.492 L 996.441 91.830 L 995.858 88.234 L 995.231 84.702 L 994.559 81.236 L 993.844 77.836 L 993.085 74.503 L 992.282 71.237 L 991.436 68.038 L 990.545 64.908 L 989.611 61.847 L 988.634 58.854 L 987.613 55.932 L 986.549 53.079 L 985.442 50.297 L 984.292 47.586 L 983.098 44.947 L 981.862 42.379 L 980.583 39.884 L 979.261 37.461 L 977.897 35.112 L 976.490 32.836 L 975.041 30.633 L 973.549 28.505 L 972.016 26.451 L 970.440 24.472 L 968.823 22.568 L 967.164 20.739 L 965.464 18.986 L 963.723 17.309 L 961.940 15.708 L 960.116 14.184 L 958.251 12.737 L 956.346 11.366 L 954.400 10.072 L 952.414 8.856 L 950.387 7.718 L 948.321 6.657 L 946.214 5.674 L 944.068 4.769 L 941.883 3.943 L 939.658 3.194 L 937.394 2.524 L 935.092 1.933 L 932.751 1.421 L 930.371 0.987 L 927.953 0.632 L 925.497 0.355 L 923.004 0.158 L 920.472 0.039 L 917.904 0.000 L 915.298 0.039 L 912.655 0.158 L 909.976 0.355 L 907.260 0.632 L 904.508 0.987 L 901.721 1.421 L 898.897 1.933 L 896.038 2.524 L 893.144 3.194 L 890.215 3.943 L 887.252 4.769 L 884.253 5.674 L 881.221 6.657 L 878.155 7.718 L 875.056 8.856 L 871.923 10.072 L 868.757 11.366 L 865.558 12.737 L 862.327 14.184 L 859.063 15.708 L 855.768 17.309 L 852.441 18.986 L 849.083 20.739 L 845.693 22.568 L 842.274 24.472 L 838.823 26.451 L 835.343 28.505 L 831.833 30.633 L 828.293 32.836 L 824.724 35.112 L 821.126 37.461 L 817.500 39.884 L 813.846 42.379 L 810.163 44.947 L 806.454 47.586 L 802.716 50.297 L 798.952 53.079 L 795.162 55.932 L 791.345 58.854 L 787.503 61.847 L 783.634 64.908 L 779.741 68.038 L 775.823 71.237 L 771.880 74.503 L 767.913 77.836 L 763.923 81.236 L 759.909 84.702 L 755.872 88.234 L 751.812 91.830 L 747.729 95.492 L 743.625 99.217 L 739.499 103.005 L 735.352 106.856 L 731.184 110.769 L 726.995 114.743 L 722.786 118.779 L 718.558 122.874 L 714.310 127.029 L 710.043 131.243 L 705.757 135.516 L 701.453 139.845 L 697.131 144.232 L 692.792 148.675 L 688.436 153.173 L 684.062 157.726 L 679.673 162.334 L 675.267 166.994 L 670.846 171.707 L 666.410 176.472 L 661.959 181.288 L 657.493 186.154 L 653.014 191.070 L 648.521 196.035 L 644.015 201.048 L 639.496 206.107 L 634.964 211.214 L 630.421 216.366 L 625.866 221.562 L 621.300 226.803 L 616.723 232.087 L 612.135 237.413 L 607.538 242.780 L 602.931 248.188 L 598.315 253.636 L 593.691 259.123 L 589.058 264.648 L 584.417 270.210 L 579.768 275.808 L 575.113 281.442 L 570.451 287.110 L 565.782 292.812 L 561.108 298.547 L 556.428 304.313 L 551.743 310.110 L 547.054 315.938 L 542.361 321.794 L 537.663 327.679 L 532.963 333.590 L 528.259 339.528 L 523.553 345.492 L 518.845 351.479 L 514.135 357.490 L 509.424 363.524 L 504.712 369.579 L 500.000 375.655 L 495.288 381.751 L 490.576 387.865 L 485.865 393.996 L 481.155 400.145 L 476.447 406.309 L 471.741 412.488 L 467.037 418.681 L 462.337 424.887 L 457.639 431.105 L 452.946 437.333 L 448.257 443.572 L 443.572 449.819 L 438.892 456.074 L 434.218 462.337 L 429.549 468.605 L 424.887 474.878 L 420.232 481.155 L 415.583 487.435 L 410.942 493.717 L 406.309 500.000 L 401.685 506.283 L 397.069 512.565 L 392.462 518.845 L 387.865 525.122 L 383.277 531.395 L 378.700 537.663 L 374.134 543.926 L 369.579 550.181 L 365.036 556.428 L 360.504 562.667 L 355.985 568.895 L 351.479 575.113 L 346.986 581.319 L 342.507 587.512 L 338.041 593.691 L 333.590 599.855 L 329.154 606.004 L 324.733 612.135 L 320.327 618.249 L 315.938 624.345 L 311.564 630.421 L 307.208 636.476 L 302.869 642.510 L 298.547 648.521 L 294.243 654.508 L 289.957 660.472 L 285.690 666.410 L 281.442 672.321 L 277.214 678.206 L 273.005 684.062 L 268.816 689.890 L 264.648 695.687 L 260.501 701.453 L 256.375 707.188 L 252.271 712.890 L 248.188 718.558 L 244.128 724.192 L 240.091 729.790 L 236.077 735.352 L 232.087 740.877 L 228.120 746.364 L 224.177 751.812 L 220.259 757.220 L 216.366 762.587 L 212.497 767.913 L 208.655 773.197 L 204.838 778.438 L 201.048 783.634 L 197.284 788.786 L 193.546 793.893 L 189.837 798.952 L 186.154 803.965 L 182.500 808.930 L 178.874 813.846 L 175.276 818.712 L 171.707 823.528 L 168.167 828.293 L 164.657 833.006 L 161.177 837.666 L 157.726 842.274 L 154.307 846.827 L 150.917 851.325 L 147.559 855.768 L 144.232 860.155 L 140.937 864.484 L 137.673 868.757 L 134.442 872.971 L 131.243 877.126 L 128.077 881.221 L 124.944 885.257 L 121.845 889.231 L 118.779 893.144 L 115.747 896.995 L 112.748 900.783 L 109.785 904.508 L 106.856 908.170 L 103.962 911.766 L 101.103 915.298 L 98.279 918.764 L 95.492 922.164 L 92.740 925.497 L 90.024 928.763 L 87.345 931.962 L 84.702 935.092 L 82.096 938.153 L 79.528 941.146 L 76.996 944.068 L 74.503 946.921 L 72.047 949.703 L 69.629 952.414 L 67.249 955.053 L 64.908 957.621 L 62.606 960.116 L 60.342 962.539 L 58.117 964.888 L 55.932 967.164 L 53.786 969.367 L 51.679 971.495 L 49.613 973.549 L 47.586 975.528 L 45.600 977.432 L 43.654 979.261 L 41.749 981.014 L 39.884 982.691 L 38.060 984.292 L 36.277 985.816 L 34.536 987.263 L 32.836 988.634 L 31.177 989.928 L 29.560 991.144 L 27.984 992.282 L 26.451 993.343 L 24.959 994.326 L 23.510 995.231 L 22.103 996.057 L 20.739 996.806 L 19.417 997.476 L 18.138 998.067 L 16.902 998.579 L 15.708 999.013 L 14.558 999.368 L 13.451 999.645 L 12.387 999.842 L 11.366 999.961 L 10.389 1000.000 L 9.455 999.961 L 8.564 999.842 L 7.718 999.645 L 6.915 999.368 L 6.156 999.013 L 5.441 998.579 L 4.769 998.067 L 4.142 997.476 L 3.559 996.806 L 3.020 996.057 L 2.524 995.231 L 2.074 994.326 L 1.667 993.343 L 1.305 992.282 L 0.987 991.144 L 0.713 989.928 L 0.484 988.634 L 0.299 987.263 L 0.158 985.816 L 0.062 984.292 L 0.010 982.691 L 0.002 981.014 L 0.039 979.261 L 0.121 977.432 L 0.247 975.528 L 0.417 973.549 L 0.632 971.495 L 0.890 969.367 L 1.194 967.164 L 1.541 964.888 L 1.933 962.539 L 2.369 960.116 L 2.850 957.621 L 3.374 955.053 L 3.943 952.414 L 4.555 949.703 L 5.212 946.921 L 5.913 944.068 L 6.657 941.146 L 7.445 938.153 L 8.277 935.092 L 9.153 931.962 L 10.072 928.763 L 11.035 925.497 L 12.042 922.164 L 13.091 918.764 L 14.184 915.298 L 15.320 911.766 L 16.499 908.170 L 17.721 904.508 L 18.986 900.783 L 20.294 896.995 L 21.644 893.144 L 23.037 889.231 L 24.472 885.257 L 25.949 881.221 L 27.468 877.126 L 29.030 872.971 L 30.633 868.757 L 32.278 864.484 L 33.964 860.155 L 35.692 855.768 L 37.461 851.325 L 39.272 846.827 L 41.123 842.274 L 43.015 837.666 L 44.947 833.006 L 46.920 828.293 L 48.933 823.528 L 50.986 818.712 L 53.079 813.846 L 55.212 808.930 L 57.384 803.965 L 59.596 798.952 L 61.847 793.893 L 64.136 788.786 L 66.465 783.634 L 68.832 778.438 L 71.237 773.197 L 73.680 767.913 L 76.161 762.587 L 78.680 757.220 L 81.236 751.812 L 83.829 746.364 L 86.460 740.877 L 89.127 735.352 L 91.830 729.790 L 94.570 724.192 L 97.346 718.558 L 100.158 712.890 L 103.005 707.188 L 105.887 701.453 L 108.805 695.687 L 111.757 689.890 L 114.743 684.062 L 117.764 678.206 L 120.819 672.321 L 123.908 666.410 L 127.029 660.472 L 130.184 654.508 L 133.372 648.521 L 136.593 642.510 L 139.845 636.476 L 143.130 630.421 L 146.447 624.345 L 149.794 618.249 L 153.173 612.135 L 156.583 606.004 L 160.023 599.855 L 163.494 593.691 L 166.994 587.512 L 170.524 581.319 L 174.083 575.113 L 177.671 568.895 L 181.288 562.667 L 184.933 556.428 L 188.606 550.181 L 192.307 543.926 L 196.035 537.663 L 199.790 531.395 L 203.572 525.122 L 207.380 518.845 L 211.214 512.565 L 215.073 506.283 L 218.958 500.000 L 222.868 493.717 L 226.803 487.435 L 230.762 481.155 L 234.744 474.878 L 238.751 468.605 L 242.780 462.337 L 246.833 456.074 L 250.907 449.819 L 255.004 443.572 L 259.123 437.333 L 263.263 431.105 L 267.424 424.887 L 271.606 418.681 L 275.808 412.488 L 280.030 406.309 L 284.272 400.145 L 288.533 393.996 L 292.812 387.865 L 297.110 381.751 L 301.426 375.655 L 305.760 369.579 L 310.110 363.524 L 314.478 357.490 L 318.862 351.479 L 323.263 345.492 L 327.679 339.528 L 332.110 333.590 L 336.556 327.679 L 341.017 321.794 L 345.492 315.938 L 349.980 310.110 L 354.482 304.313 L 358.997 298.547 L 363.524 292.812 L 368.063 287.110 L 372.615 281.442 L 377.177 275.808 L 381.751 270.210 L 386.334 264.648 L 390.928 259.123 L 395.532 253.636 L 400.145 248.188 L 404.767 242.780 L 409.397 237.413 L 414.035 232.087 L 418.681 226.803 L 423.335 221.562 L 427.995 216.366 L 432.661 211.214 L 437.333 206.107 L 442.011 201.048 L 446.694 196.035 L 451.382 191.070 L 456.074 186.154 L 460.770 181.288 L 465.470 176.472 L 470.173 171.707 L 474.878 166.994 L 479.585 162.334 L 484.295 157.726 L 489.005 153.173 L 493.717 148.675 L 498.429 144.232 L 503.142 139.845 L 507.854 135.516 L 512.565 131.243 L 517.275 127.029 L 521.984 122.874 L 526.691 118.779 L 531.395 114.743 L 536.097 110.769 L 540.795 106.856 L 545.490 103.005 L 550.181 99.217 L 554.867 95.492 L 559.549 91.830 L 564.225 88.234 L 568.895 84.702 L 573.559 81.236 L 578.217 77.836 L 582.868 74.503 L 587.512 71.237 L 592.147 68.038 L 596.775 64.908 L 601.394 61.847 L 606.004 58.854 L 610.604 55.932 L 615.195 53.079 L 619.775 50.297 L 624.345 47.586 L 628.904 44.947 L 633.451 42.379 L 637.986 39.884 L 642.510 37.461 L 647.020 35.112 L 651.518 32.836 L 656.002 30.633 L 660.472 28.505 L 664.928 26.451 L 669.369 24.472 L 673.795 22.568 L 678.206 20.739 L 682.601 18.986 L 686.980 17.309 L 691.342 15.708 L 695.687 14.184 L 700.015 12.737 L 704.325 11.366 L 708.616 10.072 L 712.890 8.856 L 717.144 7.718 L 721.379 6.657 L 725.595 5.674 L 729.790 4.769 L 733.965 3.943 L 738.119 3.194 L 742.252 2.524 L 746.364 1.933 L 750.453 1.421 L 754.521 0.987 L 758.565 0.632 L 762.587 0.355 L 766.586 0.158 L 770.561 0.039 L 774.511 0.000 L 778.438 0.039 L 782.339 0.158 L 786.216 0.355 L 790.067 0.632 L 793.893 0.987 L 797.692 1.421 L 801.465 1.933 L 805.211 2.524 L 808.930 3.194 L 812.621 3.943 L 816.285 4.769 L 819.921 5.674 L 823.528 6.657 L 827.106 7.718 L 830.656 8.856 L 834.176 10.072 L 837.666 11.366 L 841.127 12.737 L 844.557 14.184 L 847.956 15.708 L 851.325 17.309 L 854.662 18.986 L 857.968 20.739 L 861.242 22.568 L 864.484 24.472 L 867.694 26.451 L 870.871 28.505 L 874.015 30.633 L 877.126 32.836 L 880.203 35.112 L 883.247 37.461 L 886.256 39.884 L 889.231 42.379 L 892.172 44.947 L 895.078 47.586 L 897.948 50.297 L 900.783 53.079 L 903.583 55.932 L 906.347 58.854 L 909.075 61.847 L 911.766 64.908 L 914.421 68.038 L 917.039 71.237 L 919.620 74.503 L 922.164 77.836 L 924.670 81.236 L 927.139 84.702 L 929.569 88.234 L 931.962 91.830 L 934.316 95.492 L 936.631 99.217 L 938.908 103.005 L 941.146 106.856 L 943.344 110.769 L 945.503 114.743 L 947.623 118.779 L 949.703 122.874 L 951.742 127.029 L 953.742 131.243 L 955.702 135.516 L 957.621 139.845 L 959.499 144.232 L 961.336 148.675 L 963.133 153.173 L 964.888 157.726 L 966.602 162.334 L 968.275 166.994 L 969.906 171.707 L 971.495 176.472 L 973.043 181.288 L 974.548 186.154 L 976.011 191.070 L 977.432 196.035 L 978.811 201.048 L 980.147 206.107 L 981.440 211.214 L 982.691 216.366 L 983.899 221.562 L 985.063 226.803 L 986.185 232.087 L 987.263 237.413 L 988.299 242.780 L 989.290 248.188 L 990.239 253.636 L 991.144 259.123 L 992.005 264.648 L 992.822 270.210 L 993.596 275.808 L 994.326 281.442 L 995.012 287.110 L 995.654 292.812 L 996.252 298.547 L 996.806 304.313 L 997.315 310.110 L 997.781 315.938 L 998.202 321.794 L 998.579 327.679 L 998.912 333.590 L 999.201 339.528 L 999.445 345.492 L 999.645 351.479 L 999.800 357.490 L 999.911 363.524 L 999.978 369.579 L 1000.000 375.655 L 999.978 381.751 L 999.911 387.865 L 999.800 393.996 L 999.645 400.145 L 999.445 406.309 L 999.201 412.488 L 998.912 418.681 L 998.579 424.887 L 998.202 431.105 L 997.781 437.333 L 997.315 443.572 L 996.806 449.819 L 996.252 456.074 L 995.654 462.337 L 995.012 468.605 L 994.326 474.878 L 993.596 481.155 L 992.822 487.435 L 992.005 493.717 L 991.144 500.000" fill="none" stroke="black" stroke-width="12.0" stroke-linecap="round" stroke-linejoin="round" vector-effect="non-scaling-stroke"/>
</svg>