<svg xmlns="http://www.w3.org/2000/svg" viewBox="-6.000 -6.000 1012.000 1012.000" preserveAspectRatio="xMidYMid meet">
    <path d="M 500.000 500.000 L 495.288 506.283 L 490.576 512.565 L 485.865 518.845 L 481.155 525.122 L 476.447 531.395 L 471.741 537.663 L 467.037 543.926 L 462.337 550.181 L 457.639 556.428 L 452.946 562.667 L 448.257 568.895 L 443.572 575.113 L 438.892 581.319 L 434.218 587.512 L 429.549 593.691 L 424.887 599.855 L 420.232 606.004 L 415.583 612.135 L 410.942 618.249 L 406.309 624.345 L 401.685 630.421 L 397.069 636.476 L 392.462 642.510 L 387.865 648.521 L 383.277 654.508 L 378.700 660.472 L 374.134 666.410 L 369.579 672.321 L 365.036 678.206 L 360.504 684.062 L 355.985 689.890 L 351.479 695.687 L 346.986 701.453 L 342.507 707.188 L 338.041 712.890 L 333.590 718.558 L 329.154 724.192 L 324.733 729.790 L 320.327 735.352 L 315.938 740.877 L 311.564 746.364 L 307.208 751.812 L 302.869 757.220 L 298.547 762.587 L 294.243 767.913 L 289.957 773.197 L 285.690 778.438 L 281.442 783.634 L 277.214 788.786 L 273.005 793.893 L 268.816 798.952 L 264.648 803.965 L 260.501 808.930 L 256.375 813.846 L 252.271 818.712 L 248.188 823.528 L 244.128 828.293 L 240.091 833.006 L 236.077 837.666 L 232.087 842.274 L 228.120 846.827 L 224.177 851.325 L 220.259 855.768 L 216.366 860.155 L 212.497 864.484 L 208.655 868.757 L 204.838 872.971 L 201.048 877.126 L 197.284 881.221 L 193.546 885.257 L 189.837 889.231 L 186.154 893.144 L 182.500 896.995 L 178.874 900.783 L 175.276 904.508 L 171.707 908.170 L 168.167 911.766 L 164.657 915.298 L 161.177 918.764 L 157.726 922.164 L 154.307 925.497 L 150.917 928.763 L 147.559 931.962 L 144.232 935.092 L 140.937 938.153 L 137.673 941.146 L 134.442 944.068 L 131.243 946.921 L 128.077 949.703 L 124.944 952.414 L 121.845 955.053 L 118.779 957.621 L 115.747 960.116 L 112.748 962.539 L 109.785 964.888 L 106.856 967.164 L 103.962 969.367 L 101.103 971.495 L 98.279 973.549 L 95.492 975.528 L 92.740 977.432 L 90.024 979.261 L 87.345 981.014 L 84.702 982.691 L 82.096 984.292 L 79.528 985.816 L 76.996 987.263 L 74.503 988.634 L 72.047 989.928 L 69.629 991.144 L 67.249 992.282 L 64.908 993.343 L 62.606 994.326 L 60.342 995.231 L 58.117 996.057 L 55.932 996.806 L 53.786 997.476 L 51.679 998.067 L 49.613 998.579 L 47.586 999.013 L 45.600 999.368 L 43.654 999.645 L 41.749 999.842 L 39.884 999.961 L 38.060 1000.000 L 36.277 999.961 L 34.536 999.842 L 32.836 999.645 L 31.177 999.368 L 29.560 999.013 L 27.984 998.579 L 26.451 998.067 L 24.959 997.476 L 23.510 996.806 L 22.103 996.057 L 20.739 995.231 L 19.417 994.326 L 18.138 993.343 L 16.902 992.282 L 15.708 991.144 L 14.558 989.928 L 13.451 988.634 L 12.387 987.263 L 11.366 985.816 L 10.389 984.292 L 9.455 982.691 L 8.564 981.014 L 7.718 979.261 L 6.915 977.432 L 6.156 975.528 L 5.441 973.549 L 4.769 971.495 L 4.142 969.367 L 3.559 967.164 L 3.020 964.888 L 2.524 962.539 L 2.074 960.116 L 1.667 957.621 L 1.305 955.053 L 0.987 952.414 L 0.713 949.703 L 0.484 946.921 L 0.299 944.068 L 0.158 941.146 L 0.062 938.153 L 0.010 935.092 L 0.002 931.962 L 0.039 928.763 L 0.121 925.497 L 0.247 922.164 L 0.417 918.764 L 0.632 915.298 L 0.890 911.766 L 1.194 908.170 L 1.541 904.508 L 1.933 900.783 L 2.369 896.995 L 2.850 893.144 L 3.374 889.231 L 3.943 885.257 L 4.555 881.221 L 5.212 877.126 L 5.913 872.971 L 6.657 868.757 L 7.445 864.484 L 8.277 860.155 L 9.153 855.768 L 10.072 851.325 L 11.035 846.827 L 12.042 842.274 L 13.091 837.666 L 14.184 833.006 L 15.320 828.293 L 16.499 823.528 L 17.721 818.712 L 18.986 813.846 L 20.294 808.930 L 21.644 803.965 L 23.037 798.952 L 24.472 793.893 L 25.949 788.786 L 27.468 783.634 L 29.030 778.438 L 30.633 773.197 L 32.278 767.913 L 33.964 762.587 L 35.692 757.220 L 37.461 751.812 L 39.272 746.364 L 41.123 740.877 L 43.015 735.352 L 44.947 729.790 L 46.920 724.192 L 48.933 718.558 L 50.986 712.890 L 53.079 707.188 L 55.212 701.453 L 57.384 695.687 L 59.596 689.890 L 61.847 684.062 L 64.136 678.206 L 66.465 672.321 L 68.832 666.410 L 71.237 660.472 L 73.680 654.508 L 76.161 648.521 L 78.680 642.510 L 81.236 636.476 L 83.829 630.421 L 86.460 624.345 L 89.127 618.249 L 91.830 612.135 L 94.570 606.004 L 97.346 599.855 L 100.158 593.691 L 103.005 587.512 L 105.887 581.319 L 108.805 575.113 L 111.757 568.895 L 114.743 562.667 L 117.764 556.428 L 120.819 550.181 L 123.908 543.926 L 127.029 537.663 L 130.184 531.395 L 133.372 525.122 L 136.593 518.845 L 139.845 512.565 L 143.130 506.283 L 146.447 500.000 L 149.794 493.717 L 153.173 487.435 L 156.583 481.155 L 160.023 474.878 L 163.494 468.605 L 166.994 462.337 L 170.524 456.074 L 174.083 449.819 L 177.671 443.572 L 181.288 437.333 L 184.933 431.105 L 188.606 424.887 L 192.307 418.681 L 196.035 412.488 L 199.790 406.309 L 203.572 400.145 L 207.380 393.996 L 211.214 387.865 L 215.073 381.751 L 218.958 375.655 L 222.868 369.579 L 226.803 363.524 L 230.762 357.490 L 234.744 351.479 L 238.751 345.492 L 242.780 339.528 L 246.833 333.590 L 250.907 327.679 L 255.004 321.794 L 259.123 315.938 L 263.263 310.110 L 267.424 304.313 L 271.606 298.547 L 275.808 292.812 L 280.030 287.110 L 284.272 281.442 L 288.533 275.808 L 292.812 270.210 L 297.110 264.648 L 301.426 259.123 L 305.760 253.636 L 310.110 248.188 L 314.478 242.780 L 318.862 237.413 L 323.263 232.087 L 327.679 226.803 L 332.110 221.562 L 336.556 216.366 L 341.017 211.214 L 345.492 206.107 L 349.980 201.048 L 354.482 196.035 L 358.997 191.070 L 363.524 186.154 L 368.063 181.288 L 372.615 176.472 L 377.177 171.707 L 381.751 166.994 L 386.334 162.334 L 390.928 157.726 L 395.532 153.173 L 400.145 148.675 L 404.767 144.232 L 409.397 139.845 L 414.035 135.516 L 418.681 131.243 L 423.335 127.029 L 427.995 122.874 L 432.661 118.779 L 437.333 114.743 L 442.011 110.769 L 446.694 106.856 L 451.382 103.005 L 456.074 99.217 L 460.770 95.492 L 465.470 91.830 L 470.173 88.234 L 474.878 84.702 L 479.585 81.236 L 484.295 77.836 L 489.005 74.503 L 493.717 71.237 L 498.429 68.038 L 503.142 64.908 L 507.854 61.847 L 512.565 58.854 L 517.275 55.932 L 521.984 53.079 L 526.691 50.297 L 531.395 47.586 L 536.097 44.947 L 540.795 42.379 L 545.490 39.884 L 550.181 37.461 L 554.867 35.112 L 559.549 32.836 L 564.225 30.633 L 568.895 28.505 L 573.559 26.451 L 578.217 24.472 L 582.868 22.568 L 587.512 20.739 L 592.147 18.986 L 596.775 17.309 L 601.394 15.708 L 606.004 14.184 L 610.604 12.737 L 615.195 11.366 L 619.775 10.072 L 624.345 8.856 L 628.904 7.718 L 633.451 6.657 L 637.986 5.674 L 642.510 4.769 L 647.020 3.943 L 651.518 3.194 L 656.002 2.524 L 660.472 1.933 L 664.928 1.421 L 669.369 0.987 L 673.795 0.632 L 678.206 0.355 L 682.601 0.158 L 686.980 0.039 L 691.342 0.000 L 695.687 0.039 L 700.015 0.158 L 704.325 0.355 L 708.616 0.632 L 712.890 0.987 L 717.144 1.421 L 721.379 1.933 L 725.595 2.524 L 729.790 3.194 L 733.965 3.943 L 738.119 4.769 L 742.252 5.674 L 746.364 6.657 L 750.453 7.718 L 754.521 8.856 L 758.565 10.072 L 762.587 11.366 L 766.586 12.737 L 770.561 14.184 L 774.511 15.708 L 778.438 17.309 L 782.339 18.986 L 786.216 20.739 L 790.067 22.568 L 793.893 24.472 L 797.692 26.451 L 801.465 28.505 L 805.211 30.633 L 808.930 32.836 L 812.621 35.112 L 816.285 37.461 L 819.921 39.884 L 823.528 42.379 L 827.106 44.947 L 830.656 47.586 L 834.176 50.297 L 837.666 53.079 L 841.127 55.932 L 844.557 58.854 L 847.956 61.847 L 851.325 64.908 L 854.662 68.038 L 857.968 71.237 L 861.242 74.503 L 864.484 77.836 L 867.694 81.236 L 870.871 84.702 L 874.015 88.234 L 877.126 91.830 L 880.203 95.492 L 883.247 99.217 L 886.256 103.005 L 889.231 106.856 L 892.172 110.769 L 895.078 114.743 L 897.948 118.779 L 900.783 122.874 L 903.583 127.029 L 906.347 131.243 L 909.075 135.516 L 911.766 139.845 L 914.421 144.232 L 917.039 148.675 L 919.620 153.173 L 922.164 157.726 L 924.670 162.334 L 927.139 166.994 L 929.569 171.707 L 931.962 176.472 L 934.316 181.288 L 936.631 186.154 L 938.908 191.070 L 941.146 196.035 L 943.344 201.048 L 945.503 206.107 L 947.623 211.214 L 949.703 216.366 L 951.742 221.562 L 953.742 226.803 L 955.702 232.087 L 957.621 237.413 L 959.499 242.780 L 961.336 248.188 L 963.133 253.636 L 964.888 259.123 L 966.602 264.648 L 968.275 270.210 L 969.906 275.808 L 971.495 281.442 L 973.043 287.110 L 974.548 292.812 L 976.011 298.547 L 977.432 304.313 L 978.811 310.110 L 980.147 315.938 L 981.440 321.794 L 982.691 327.679 L 983.899 333.590 L 985.063 339.528 L 986.185 345.492 L 987.263 351.479 L 988.299 357.490 L 989.290 363.524 L 990.239 369.579 L 991.144 375.655 L 992.005 381.751 L 992.822 387.865 L 993.596 393.996 L 994.326 400.145 L 995.012 406.309 L 995.654 412.488 L 996.252 418.681 L 996.806 424.887 L 997.315 431.105 L 997.781 437.333 L 998.202 443.572 L 998.579 449.819 L 998.912 456.074 L 999.201 462.337 L 999.445 468.605 L 999.645 474.878 L 999.800 481.155 L 999.911 487.435 L 999.978 493.717 L 1000.000 500.000 L 999.978 506.283 L 999.911 512.565 L 999.800 518.845 L 999.645 525.122 L 999.445 531.395 L 999.201 537.663 L 998.912 543.926 L 998.579 550.181 L 998.202 556.428 L 997.781 562.667 L 997.315 568.895 L 996.806 575.113 L 996.252 581.319 L 995.654 587.512 L 995.012 593.691 L 994.326 599.855 L 993.596 606.004 L 992.822 612.135 L 992.005 618.249 L 991.144 624.345 L 990.239 630.421 L 989.290 636.476 L 988.299 642.510 L 987.263 648.521 L 986.185 654.508 L 985.063 660.472 L 983.899 666.410 L 982.691 672.321 L 981.440 678.206 L 980.147 684.062 L 978.811 689.890 L 977.432 695.687 L 976.011 701.453 L 974.548 707.188 L 973.043 712.890 L 971.495 718.558 L 969.906 724.192 L 968.275 729.790 L 966.602 735.352 L 964.888 740.877 L 963.133 746.364 L 961.336 751.812 L 959.499 757.220 L 957.621 762.587 L 955.702 767.913 L 953.742 773.197 L 951.742 778.438 L 949.703 783.634 L 947.623 788.786 L 945.503 793.893 L 943.344 798.952 L 941.146 803.965 L 938.908 808.930 L 936.631 813.846 L 934.316 818.712 L 931.962 823.528 L 929.569 828.293 L 927.139 833.006 L 924.670 837.666 L 922.164 842.274 L 919.620 846.827 L 917.039 851.325 L 914.421 855.768 L 911.766 860.155 L 909.075 864.484 L 906.347 868.757 L 903.583 872.971 L 900.783 877.126 L 897.948 881.221 L 895.078 885.257 L 892.172 889.231 L 889.231 893.144 L 886.256 896.995 L 883.247 900.783 L 880.203 904.508 L 877.126 908.170 L 874.015 911.766 L 870.871 915.298 L 867.694 918.764 L 864.484 922.164 L 861.242 925.497 L 857.968 928.763 L 854.662 931.962 L 851.325 935.092 L 847.956 938.153 L 844.557 941.146 L 841.127 944.068 L 837.666 946.921 L 834.176 949.703 L 830.656 952.414 L 827.106 955.053 L 823.528 957.621 L 819.921 960.116 L 816.285 962.539 L 812.621 964.888 L 808.930 967.164 L 805.211 969.367 L 801.465 971.495 L 797.692 973.549 L 793.893 975.528 L 790.067 977.432 L 786.216 979.261 L 782.339 981.014 L 778.438 982.691 L 774.511 984.292 L 770.561 985.816 L 766.586 987.263 L 762.587 988.634 L 758.565 989.928 L 754.521 991.144 L 750.453 992.282 L 746.364 993.343 L 742.252 994.326 L 738.119 995.231 L 733.965 996.057 L 729.790 996.806 L 725.595 997.476 L 721.379 998.067 L 717.144 998.579 L 712.890 999.013 L 708.616 999.368 L 704.325 999.645 L 700.015 999.842 L 695.687 999.961 L 691.342 1000.000 L 686.980 999.961 L 682.601 999.842 L 678.206 999.645 L 673.795 999.368 L 669.369 999.013 L 664.928 998.579 L 660.472 998.067 L 656.002 997.476 L 651.518 996.806 L 647.020 996.057 L 642.510 995.231 L 637.986 994.326 L 633.451 993.343 L 628.904 992.282 L 624.345 991.144 L 619.775 989.928 L 615.195 988.634 L 610.604 987.263 L 606.004 985.816 L 601.394 984.292 L 596.775 982.691 L 592.147 981.014 L 587.512 979.261 L 582.868 977.432 L 578.217 975.528 L 573.559 973.549 L 568.895 971.495 L 564.225 969.367 L 559.549 967.164 L 554.867 964.888 L 550.181 962.539 L 545.490 960.116 L 540.795 957.621 L 536.097 955.053 L 531.395 952.414 L 526.691 949.703 L 521.984 946.921 L 517.275 944.068 L 512.565 941.146 L 507.854 938.153 L 503.142 935.092 L 498.429 931.962 L 493.717 928.763 L 489.005 925.497 L 484.295 922.164 L 479.585 918.764 L 474.878 915.298 L 470.173 911.766 L 465.470 908.170 L 460.770 904.508 L 456.074 900.783 L 451.382 896.995 L 446.694 893.144 L 442.011 889.231 L 437.333 885.257 L 432.661 881.221 L 427.995 877.126 L 423.335 872.971 L 418.681 868.757 L 414.035 864.484 L 409.397 860.155 L 404.767 855.768 L 400.145 851.325 L 395.532 846.827 L 390.928 842.274 L 386.334 837.666 L 381.751 833.006 L 377.177 828.293 L 372.615 823.528 L 368.063 818.712 L 363.524 813.846 L 358.997 808.930 L 354.482 803.965 L 349.980 798.952 L 345.492 793.893 L 341.017 788.786 L 336.556 783.634 L 332.110 778.438 L 327.679 773.197 L 323.263 767.913 L 318.862 762.587 L 314.478 757.220 L 310.110 751.812 L 305.760 746.364 L 301.426 740.877 L 297.110 735.352 L 292.812 729.790 L 288.533 724.192 L 284.272 718.558 L 280.030 712.890 L 275.808 707.188 L 271.606 701.453 L 267.424 695.687 L 263.263 689.890 L 259.123 684.062 L 255.004 678.206 L 250.907 672.321 L 246.833 666.410 L 242.780 660.472 L 238.751 654.508 L 234.744 648.521 L 230.762 642.510 L 226.803 636.476 L 222.868 630.421 L 218.958 624.345 L 215.073 618.249 L 211.214 612.135 L 207.380 606.004 L 203.572 599.855 L 199.790 593.691 L 196.035 587.512 L 192.307 581.319 L 188.606 575.113 L 184.933 568.895 L 181.288 562.667 L 177.671 556.428 L 174.083 550.181 L 170.524 543.926 L 166.994 537.663 L 163.494 531.395 L 160.023 525.122 L 156.583 518.845 L 153.173 512.565 L 149.794 506.283 L 146.447 500.000 L 143.130 493.717 L 139.845 487.435 L 136.593 481.155 L 133.372 474.878 L 130.184 468.605 L 127.029 462.337 L 123.908 456.074 L 120.819 449.819 L 117.764 443.572 L 114.743 437.333 L 111.757 431.105 L 108.805 424.887 L 105.887 418.681 L 103.005 412.488 L 100.158 406.309 L 97.346 400.145 L 94.570 393.996 L 91.830 387.865 L 89.127 381.751 L 86.460 375.655 L 83.829 369.579 L 81.236 363.524 L 78.680 357.490 L 76.161 351.479 L 73.680 345.492 L 71.237 339.528 L 68.832 333.590 L 66.465 327.679 L 64.136 321.794 L 61.847 315.938 L 59.596 310.110 L 57.384 304.313 L 55.212 298.547 L 53.079 292.812 L 50.986 287.110 L 48.933 281.442 L 46.920 275.808 L 44.947 270.210 L 43.015 264.648 L 41.123 259.123 L 39.272 253.636 L 37.461 248.188 L 35.692 242.780 L 33.964 237.413 L 32.278 232.087 L 30.633 226.803 L 29.030 221.562 L 27.468 216.366 L 25.949 211.214 L 24.472 206.107 L 23.037 201.048 L 21.644 196.035 L 20.294 191.070 L 18.986 186.154 L 17.721 181.288 L 16.499 176.472 L 15.320 171.707 L 14.184 166.994 L 13.091 162.334 L 12.042 157.726 L 11.035 153.173 L 10.072 148.675 L 9.153 144.232 L 8.277 139.845 L 7.445 135.516 L 6.657 131.243 L 5.913 127.029 L 5.212 122.874 L 4.555 118.779 L 3.943 114.743 L 3.374 110.769 L 2.850 106.856 L 2.369 103.005 L 1.933 99.217 L 1.541 95.492 L 1.194 91.830 L 0.890 88.234 L 0.632 84.702 L 0.417 81.236 L 0.247 77.836 L 0.121 74.503 L 0.039 71.237 L 0.002 68.038 L 0.010 64.908 L 0.062 61.847 L 0.158 58.854 L 0.299 55.932 L 0.484 53.079 L 0.713 50.297 L 0.987 47.586 L 1.305 44.947 L 1.667 42.379 L 2.074 39.884 L 2.524 37.461 L 3.020 35.112 L 3.559 32.836 L 4.142 30.633 L 4.769 28.505 L 5.441 26.451 L 6.156 24.472 L 6.915 22.568 L 7.718 20.739 L 8.564 18.986 L 9.455 17.309 L 10.389 15.708 L 11.366 14.184 L 12.387 12.737 L 13.451 11.366 L 14.558 10.072 L 15.708 8.856 L 16.902 7.718 L 18.138 6.657 L 19.417 5.674 L 20.739 4.769 L 22.103 3.943 L 23.510 3.194 L 24.959 2.524 L 26.451 1.933 L 27.984 1.421 L 29.560 0.987 L 31.177 0.632 L 32.836 0.355 L 34.536 0.158 L 36.277 0.039 L 38.060 0.000 L 39.884 0.039 L 41.749 0.158 L 43.654 0.355 L 45.600 0.632 L 47.586 0.987 L 49.613 1.421 L 51.679 1.933 L 53.786 2.524 L 55.932 3.194 L 58.117 3.943 L 60.342 4.769 L 62.606 5.674 L 64.908 6.657 L 67.249 7.718 L 69.629 8.856 L 72.047 10.072 L 74.503 11.366 L 76.996 12.737 L 79.528 14.184 L 82.096 15.708 L 84.702 17.309 L 87.345 18.986 L 90.024 20.739 L 92.740 22.568 L 95.492 24.472 L 98.279 26.451 L 101.103 28.505 L 103.962 30.633 L 106.856 32.836 L 109.785 35.112 L 112.748 37.461 L 115.747 39.884 L 118.779 42.379 L 121.845 44.947 L 124.944 47.586 L 128.077 50.297 L 131.243 53.079 L 134.442 55.932 L 137.673 58.854 L 140.937 61.847 L 144.232 64.908 L 147.559 68.038 L 150.917 71.237 L 154.307 74.503 L 157.726 77.836 L 161.177 81.236 L 164.657 84.702 L 168.167 88.234 L 171.707 91.830 L 175.276 95.492 L 178.874 99.217 L 182.500 103.005 L 186.154 106.856 L 189.837 110.769 L 193.546 114.743 L 197.284 118.779 L 201.048 122.874 L 204.838 127.029 L 208.655 131.243 L 212.497 135.516 L 216.366 139.845 L 220.259 144.232 L 224.177 148.675 L 228.120 153.173 L 232.087 157.726 L 236.077 162.334 L 240.091 166.994 L 244.128 171.707 L 248.188 176.472 L 252.271 181.288 L 256.375 186.154 L 260.501 191.070 L 264.648 196.035 L 268.816 201.048 L 273.005 206.107 L 277.214 211.214 L 281.442 216.366 L 285.690 221.562 L 289.957 226.803 L 294.243 232.087 L 298.547 237.413 L 302.869 242.780 L 307.208 248.188 L 311.564 253.636 L 315.938 259.123 L 320.327 264.648 L 324.733 270.210 L 329.154 275.808 L 333.590 281.442 L 338.041 287.110 L 342.507 292.812 L 346.986 298.547 L 351.479 304.313 L 355.985 310.110 L 360.504 315.938 L 365.036 321.794 L 369.579 327.679 L 374.134 333.590 L 378.700 339.528 L 383.277 345.492 L 387.865 351.479 L 392.462 357.490 L 397.069 363.524 L 401.685 369.579 L 406.309 375.655 L 410.942 381.751 L 415.583 387.865 L 420.232 393.996 L 424.887 400.145 L 429.549 406.309 L 434.218 412.488 L 438.892 418.681 L 443.572 424.887 L 448.257 431.105 L 452.946 437.333 L 457.639 443.572 L 462.337 449.819 L 467.037 456.074 L 471.741 462.337 L 476.447 468.605 L 481.155 474.878 L 485.865 481.155 L 490.576 487.435 L 495.288 493.717 L 500.000 500.000 L 504.712 506.283 L 509.424 512.565 L 514.135 518.845 L 518.845 525.122 L 523.553 531.395 L 528.259 537.663 L 532.963 543.926 L 537.663 550.181 L 542.361 556.428 L 547.054 562.667 L 551.743 568.895 L 556.428 575.113 L 561.108 581.319 L 565.782 587.512 L 570.451 593.691 L 575.113 599.855 L 579.768 606.004 L 584.417 612.135 L 589.058 618.249 L 593.691 624.345 L 598.315 630.421 L 602.931 636.476 L 607.538 642.510 L 612.135 648.521 L 616.723 654.508 L 621.300 660.472 L 625.866 666.410 L 630.421 672.321 L 634.964 678.206 L 639.496 684.062 L 644.015 689.890 L 648.521 695.687 L 653.014 701.453 L 657.493 707.188 L 661.959 712.890 L 666.410 718.558 L 670.846 724.192 L 675.267 729.790 L 679.673 735.352 L 684.062 740.877 L 688.436 746.364 L 692.792 751.812 L 697.131 757.220 L 701.453 762.587 L 705.757 767.913 L 710.043 773.197 L 714.310 778.438 L 718.558 783.634 L 722.786 788.786 L 726.995 793.893 L 731.184 798.952 L 735.352 803.965 L 739.499 808.930 L 743.625 813.846 L 747.729 818.712 L 751.812 823.528 L 755.872 828.293 L 759.909 833.006 L 763.923 837.666 L 767.913 842.274 L 771.880 846.827 L 775.823 851.325 L 779.741 855.768 L 783.634 860.155 L 787.503 864.484 L 791.345 868.757 L 795.162 872.971 L 798.952 877.126 L 802.716 881.221 L 806.454 885.257 L 810.163 889.231 L 813.846 893.144 L 817.500 896.995 L 821.126 900.783 L 824.724 904.508 L 828.293 908.170 L 831.833 911.766 L 835.343 915.298 L 838.823 918.764 L 842.274 922.164 L 845.693 925.497 L 849.083 928.763 L 852.441 931.962 L 855.768 935.092 L 859.063 938.153 L 862.327 941.146 L 865.558 944.068 L 868.757 946.921 L 871.923 949.703 L 875.056 952.414 L 878.155 955.053 L 881.221 957.621 L 884.253 960.116 L 887.252 962.539 L 890.215 964.888 L 893.144 967.164 L 896.038 969.367 L 898.897 971.495 L 901.721 973.549 L 904.508 975.528 L 907.260 977.432 L 909.976 979.261 L 912.655 981.014 L 915.298 982.691 L 917.904 984.292 L 920.472 985.816 L 923.004 987.263 L 925.497 988.634 L 927.953 989.928 L 930.371 991.144 L 932.751 992.282 L 935.092 993.343 L 937.394 994.326 L 939.658 995.231 L 941.883 996.057 L 944.068 996.806 L 946.214 997.476 L 948.321 998.067 L 950.387 998.579 L 952.414 999.013 L 954.400 999.368 L 956.346 999.645 L 958.251 999.842 L 960.116 999.961 L 961.940 1000.000 L 963.723 999.961 L 965.464 999.842 L 967.164 999.645 L 968.823 999.368 L 970.440 999.013 L 972.016 998.579 L 973.549 998.067 L 975.041 997.476 L 976.490 996.806 L 977.897 996.057 L 979.261 995.231 L 980.583 994.326 L 981.862 993.343 L 983.098 992.282 L 984.292 991.144 L 985.442 989.928 L 986.549 988.634 L 987.613 987.263 L 988.634 985.816 L 989.611 984.292 L 990.545 982.691 L 991.436 981.014 L 992.282 979.261 L 993.085 977.432 L 993.844 975.528 L 994.559 973.549 L 995.231 971.495 L 995.858 969.367 L 996.441 967.164 L 996.980 964.888 L 997.476 962.539 L 997.926 960.116 L 998.333 957.621 L 998.695 955.053 L 999.013 952.414 L 999.287 949.703 L 999.516 946.921 L 999.701 944.068 L 999.842 941.146 L 999.938 938.153 L 999.990 935.092 L 999.998 931.962 L 999.961 928.763 L 999.879 925.497 L 999.753 922.164 L 999.583 918.764 L 999.368 915.298 L 999.110 911.766 L 998.806 908.170 L 998.459 904.508 L 998.067 900.783 L 997.631 896.995 L 997.150 893.144 L 996.626 889.231 L 996.057 885.257 L 995.445 881.221 L 994.788 877.126 L 994.087 872.971 L 993.343 868.757 L 992.555 864.484 L 991.723 860.155 L 990.847 855.768 L 989.928 851.325 L 988.965 846.827 L 987.958 842.274 L 986.909 837.666 L 985.816 833.006 L 984.680 828.293 L 983.501 823.528 L 982.279 818.712 L 981.014 813.846 L 979.706 808.930 L 978.356 803.965 L 976.963 798.952 L 975.528 793.893 L 974.051 788.786 L 972.532 783.634 L 970.970 778.438 L 969.367 773.197 L 967.722 767.913 L 966.036 762.587 L 964.308 757.220 L 962.539 751.812 L 960.728 746.364 L 958.877 740.877 L 956.985 735.352 L 955.053 729.790 L 953.080 724.192 L 951.067 718.558 L 949.014 712.890 L 946.921 707.188 L 944.788 701.453 L 942.616 695.687 L 940.404 689.890 L 938.153 684.062 L 935.864 678.206 L 933.535 672.321 L 931.168 666.410 L 928.763 660.472 L 926.320 654.508 L 923.839 648.521 L 921.320 642.510 L 918.764 636.476 L 916.171 630.421 L 913.540 624.345 L 910.873 618.249 L 908.170 612.135 L 905.430 606.004 L 902.654 599.855 L 899.842 593.691 L 896.995 587.512 L 894.113 581.319 L 891.195 575.113 L 888.243 568.895 L 885.257 562.667 L 882.236 556.428 L 879.181 550.181 L 876.092 543.926 L 872.971 537.663 L 869.816 531.395 L 866.628 525.122 L 863.407 518.845 L 860.155 512.565 L 856.870 506.283 L 853.553 500.000 L 850.206 493.717 L 846.827 487.435 L 843.417 481.155 L 839.977 474.878 L 836.506 468.605 L 833.006 462.337 L 829.476 456.074 L 825.917 449.819 L 822.329 443.572 L 818.712 437.333 L 815.067 431.105 L 811.394 424.887 L 807.693 418.681 L 803.965 412.488 L 800.210 406.309 L 796.428 400.145 L 792.620 393.996 L 788.786 387.865 L 784.927 381.751 L 781.042 375.655 L 777.132 369.579 L 773.197 363.524 L 769.238 357.490 L 765.256 351.479 L 761.249 345.492 L 757.220 339.528 L 753.167 333.590 L 749.093 327.679 L 744.996 321.794 L 740.877 315.938 L 736.737 310.110 L 732.576 304.313 L 728.394 298.547 L 724.192 292.812 L 719.970 287.110 L 715.728 281.442 L 711.467 275.808 L 707.188 270.210 L 702.890 264.648 L 698.574 259.123 L 694.240 253.636 L 689.890 248.188 L 685.522 242.780 L 681.138 237.413 L 676.737 232.087 L 672.321 226.803 L 667.890 221.562 L 663.444 216.366 L 658.983 211.214 L 654.508 206.107 L 650.020 201.048 L 645.518 196.035 L 641.003 191.070 L 636.476 186.154 L 631.937 181.288 L 627.385 176.472 L 622.823 171.707 L 618.249 166.994 L 613.666 162.334 L 609.072 157.726 L 604.468 153.173 L 599.855 148.675 L 595.233 144.232 L 590.603 139.845 L 585.965 135.516 L 581.319 131.243 L 576.665 127.029 L 572.005 122.874 L 567.339 118.779 L 562.667 114.743 L 557.989 110.769 L 553.306 106.856 L 548.618 103.005 L 543.926 99.217 L 539.230 95.492 L 534.530 91.830 L 529.827 88.234 L 525.122 84.702 L 520.415 81.236 L 515.705 77.836 L 510.995 74.503 L 506.283 71.237 L 501.571 68.038 L 496.858 64.908 L 492.146 61.847 L 487.435 58.854 L 482.725 55.932 L 478.016 53.079 L 473.309 50.297 L 468.605 47.586 L 463.903 44.947 L 459.205 42.379 L 454.510 39.884 L 449.819 37.461 L 445.133 35.112 L 440.451 32.836 L 435.775 30.633 L 431.105 28.505 L 426.441 26.451 L 421.783 24.472 L 417.132 22.568 L 412.488 20.739 L 407.853 18.986 L 403.225 17.309 L 398.606 15.708 L 393.996 14.184 L 389.396 12.737 L 384.805 11.366 L 380.225 10.072 L 375.655 8.856 L 371.096 7.718 L 366.549 6.657 L 362.014 5.674 L 357.490 4.769 L 352.980 3.943 L 348.482 3.194 L 343.998 2.524 L 339.528 1.933 L 335.072 1.421 L 330.631 0.987 L 326.205 0.632 L 321.794 0.355 L 317.399 0.158 L 313.020 0.039 L 308.658 0.000 L 304.313 0.039 L 299.985 0.158 L 295.675 0.355 L 291.384 0.632 L 287.110 0.987 L 282.856 1.421 L 278.621 1.933 L 274.405 2.524 L 270.210 3.194 L 266.035 3.943 L 261.881 4.769 L 257.748 5.674 L 253.636 6.657 L 249.547 7.718 L 245.479 8.856 L 241.435 10.072 L 237.413 11.366 L 233.414 12.737 L 229.439 14.184 L 225.489 15.708 L 221.562 17.309 L 217.661 18.986 L 213.784 20.739 L 209.933 22.568 L 206.107 24.472 L 202.308 26.451 L 198.535 28.505 L 194.789 30.633 L 191.070 32.836 L 187.379 35.112 L 183.715 37.461 L 180.079 39.884 L 176.472 42.379 L 172.894 44.947 L 169.344 47.586 L 165.824 50.297 L 162.334 53.079 L 158.873 55.932 L 155.443 58.854 L 152.044 61.847 L 148.675 64.908 L 145.338 68.038 L 142.032 71.237 L 138.758 74.503 L 135.516 77.836 L 132.306 81.236 L 129.129 84.702 L 125.985 88.234 L 122.874 91.830 L 119.797 95.492 L 116.753 99.217 L 113.744 103.005 L 110.769 106.856 L 107.828 110.769 L 104.922 114.743 L 102.052 118.779 L 99.217 122.874 L 96.417 127.029 L 93.653 131.243 L 90.925 135.516 L 88.234 139.845 L 85.579 144.232 L 82.961 148.675 L 80.380 153.173 L 77.836 157.726 L 75.330 162.334 L 72.861 166.994 L 70.431 171.707 L 68.038 176.472 L 65.684 181.288 L 63.369 186.154 L 61.092 191.070 L 58.854 196.035 L 56.656 201.048 L 54.497 206.107 L 52.377 211.214 L 50.297 216.366 L 48.258 221.562 L 46.258 226.803 L 44.298 232.087 L 42.379 237.413 L 40.501 242.780 L 38.664 248.188 L 36.867 253.636 L 35.112 259.123 L 33.398 264.648 L 31.725 270.210 L 30.094 275.808 L 28.505 281.442 L 26.957 287.110 L 25.452 292.812 L 23.989 298.547 L 22.568 304.313 L 21.189 310.110 L 19.853 315.938 L 18.560 321.794 L 17.309 327.679 L 16.101 333.590 L 14.937 339.528 L 13.815 345.492 L 12.737 351.479 L 11.701 357.490 L 10.710 363.524 L 9.761 369.579 L 8.856 375.655 L 7.995 381.751 L 7.178 387.865 L 6.404 393.996 L 5.674 400.145 L 4.988 406.309 L 4.346 412.488 L 3.748 418.681 L 3.194 424.887 L 2.685 431.105 L 2.219 437.333 L 1.798 443.572 L 1.421 449.819 L 1.088 456.074 L 0.799 462.337 L 0.555 468.605 L 0.355 474.878 L 0.200 481.155 L 0.089 487.435 L 0.022 493.717 L 0.000 500.000 L 0.022 506.283 L 0.089 512.565 L 0.200 518.845 L 0.355 525.122 L 0.555 531.395 L 0.799 537.663 L 1.088 543.926 L 1.421 550.181 L 1.798 556.428 L 2.219 562.667 L 2.685 568.895 L 3.194 575.113 L 3.748 581.319 L 4.346 587.512 L 4.988 593.691 L 5.674 599.855 L 6.404 606.004 L 7.178 612.135 L 7.995 618.249 L 8.856 624.345 L 9.761 630.421 L 10.710 636.476 L 11.701 642.510 L 12.737 648.521 L 13.815 654.508 L 14.937 660.472 L 16.101 666.410 L 17.309 672.321 L 18.560 678.206 L 19.853 684.062 L 21.189 689.890 L 22.568 695.687 L 23.989 701.453 L 25.452 707.188 L 26.957 712.890 L 28.505 718.558 L 30.094 724.192 L 31.725 729.790 L 33.398 735.352 L 35.112 740.877 L 36.867 746.364 L 38.664 751.812 L 40.501 757.220 L 42.379 762.587 L 44.298 767.913 L 46.258 773.197 L 48.258 778.438 L 50.297 783.634 L 52.377 788.786 L 54.497 793.893 L 56.656 798.952 L 58.854 803.965 L 61.092 808.930 L 63.369 813.846 L 65.684 818.712 L 68.038 823.528 L 70.431 828.293 L 72.861 833.006 L 75.330 837.666 L 77.836 842.274 L 80.380 846.827 L 82.961 851.325 L 85.579 855.768 L 88.234 860.155 L 90.925 864.484 L 93.653 868.757 L 96.417 872.971 L 99.217 877.126 L 102.052 881.221 L 104.922 885.257 L 107.828 889.231 L 110.769 893.144 L 113.744 896.995 L 116.753 900.783 L 119.797 904.508 L 122.874 908.170 L 125.985 911.766 L 129.129 915.298 L 132.306 918.764 L 135.516 922.164 L 138.758 925.497 L 142.032 928.763 L 145.338 931.962 L 148.675 935.092 L 152.044 938.153 L 155.443 941.146 L 158.873 944.068 L 162.334 946.921 L 165.824 949.703 L 169.344 952.414 L 172.894 955.053 L 176.472 957.621 L 180.079 960.116 L 183.715 962.539 L 187.379 964.888 L 191.070 967.164 L 194.789 969.367 L 198.535 971.495 L 202.308 973.549 L 206.107 975.528 L 209.933 977.432 L 213.784 979.261 L 217.661 981.014 L 221.562 982.691 L 225.489 984.292 L 229.439 985.816 L 233.414 987.263 L 237.413 988.634 L 241.435 989.928 L 245.479 991.144 L 249.547 992.282 L 253.636 993.343 L 257.748 994.326 L 261.881 995.231 L 266.035 996.057 L 270.210 996.806 L 274.405 997.476 L 278.621 998.067 L 282.856 998.579 L 287.110 999.013 L 291.384 999.368 L 295.675 999.645 L 299.985 999.842 L 304.313 999.961 L 308.658 1000.000 L 313.020 999.961 L 317.399 999.842 L 321.794 999.645 L 326.205 999.368 L 330.631 999.013 L 335.072 998.579 L 339.528 998.067 L 343.998 997.476 L 348.482 996.806 L 352.980 996.057 L 357.490 995.231 L 362.014 994.326 L 366.549 993.343 L 371.096 992.282 L 375.655 991.144 L 380.225 989.928 L 384.805 988.634 L 389.396 987.263 L 393.996 985.816 L 398.606 984.292 L 403.225 982.691 L 407.853 981.014 L 412.488 979.261 L 417.132 977.432 L 421.783 975.528 L 426.441 973.549 L 431.105 971.495 L 435.775 969.367 L 440.451 967.164 L 445.133 964.888 L 449.819 962.539 L 454.510 960.116 L 459.205 957.621 L 463.903 955.053 L 468.605 952.414 L 473.309 949.703 L 478.016 946.921 L 482.725 944.068 L 487.435 941.146 L 492.146 938.153 L 496.858 935.092 L 501.571 931.962 L 506.283 928.763 L 510.995 925.497 L 515.705 922.164 L 520.415 918.764 L 525.122 915.298 L 529.827 911.766 L 534.530 908.170 L 539.230 904.508 L 543.926 900.783 L 548.618 896.995 L 553.306 893.144 L 557.989 889.231 L 562.667 885.257 L 567.339 881.221 L 572.005 877.126 L 576.665 872.971 L 581.319 868.757 L 585.965 864.484 L 590.603 860.155 L 595.233 855.768 L 599.855 851.325 L 604.468 846.827 L 609.072 842.274 L 613.666 837.666 L 618.249 833.006 L 622.823 828.293 L 627.385 823.528 L 631.937 818.712 L 636.476 813.846 L 641.003 808.930 L 645.518 803.965 L 650.020 798.952 L 654.508 793.893 L 658.983 788.786 L 663.444 783.634 L 667.890 778.438 L 672.321 773.197 L 676.737 767.913 L 681.138 762.587 L 685.522 757.220 L 689.890 751.812 L 694.240 746.364 L 698.574 740.877 L 702.890 735.352 L 707.188 729.790 L 711.467 724.192 L 715.728 718.558 L 719.970 712.890 L 724.192 707.188 L 728.394 701.453 L 732.576 695.687 L 736.737 689.890 L 740.877 684.062 L 744.996 678.206 L 749.093 672.321 L 753.167 666.410 L 757.220 660.472 L 761.249 654.508 L 765.256 648.521 L 769.238 642.510 L 773.197 636.476 L 777.132 630.421 L 781.042 624.345 L 784.927 618.249 L 788.786 612.135 L 792.620 606.004 L 796.428 599.855 L 800.210 593.691 L 803.965 587.512 L 807.693 581.319 L 811.394 575.113 L 815.067 568.895 L 818.712 562.667 L 822.329 556.428 L 825.917 550.181 L 829.476 543.926 L 833.006 537.663 L 836.506 531.395 L 839.977 525.122 L 843.417 518.845 L 846.827 512.565 L 850.206 506.283 L 853.553 500.000 L 856.870 493.717 L 860.155 487.435 L 863.407 481.155 L 866.628 474.878 L 869.816 468.605 L 872.971 462.337 L 876.092 456.074 L 879.181 449.819 L 882.236 443.572 L 885.257 437.333 L 888.243 431.105 L 891.195 424.887 L 894.113 418.681 L 896.995 412.488 L 899.842 406.309 L 902.654 400.145 L 905.430 393.996 L 908.170 387.865 L 910.873 381.751 L 913.540 375.655 L 916.171 369.579 L 918.764 363.524 L 921.320 357.490 L 923.839 351.479 L 926.320 345.492 L 928.763 339.528 L 931.168 333.590 L 933.535 327.679 L 935.864 321.794 L 938.153 315.938 L 940.404 310.110 L 942.616 304.313 L 944.788 298.547 L 946.921 292.812 L 949.014 287.110 L 951.067 281.442 L 953.080 275.808 L 955.053 270.210 L 956.985 264.648 L 958.877 259.123 L 960.728 253.636 L 962.539 248.188 L 964.308 242.780 L 966.036 237.413 L 967.722 232.087 L 969.367 226.803 L 970.970 221.562 L 972.532 216.366 L 974.051 211.214 L 975.528 206.107 L 976.963 201.048 L 978.356 196.035 L 979.706 191.070 L 981.014 186.154 L 982.279 181.288 L 983.501 176.472 L 984.680 171.707 L 985.816 166.994 L 986.909 162.334 L 987.958 157.726 L 988.965 153.173 L 989.928 148.675 L 990.847 144.232 L 991.723 139.845 L 992.555 135.516 L 993.343 131.243 L 994.087 127.029 L 994.788 122.874 L 995.445 118.779 L 996.057 114.743 L 996.626 110.769 L 997.150 106.856 L 997.631 103.005 L 998.067 99.217 L 998.459 95.492 L 998.806 91.830 L 999.110 88.234 L 999.368 84.702 L 999.583 81.236 L 999.753 77.836 L 999.879 74.503 L 999.961 71.237 L 999.998 68.038 L 999.990 64.908 L 999.938 61.847 L 999.842 58.854 L 999.701 55.932 L 999.516 53.079 L 999.287 50.297 L 999.013 47.586 L 998.695 44.947 L 998.333 42.379 L 997.926 39.884 L 997.476 37.461 L 996.980 35.112 L 996.441 32.836 L 995.858 30.633 L 995.231 28.505 L 994.559 26.451 L 993.844 24.472 L 993.085 22.568 L 992.282 20.739 L 991.436 18.986 L 990.545 17.309 L 989.611 15.708 L 988.634 14.184 L 987.613 12.737 L 986.549 11.366 L 985.442 10.072 L 984.292 8.856 L 983.098 7.718 L 981.862 6.657 L 980.583 5.674 L 979.261 4.769 L 977.897 3.943 L 976.490 3.194 L 975.041 2.524 L 973.549 1.933 L 972.016 1.421 L 970.440 0.987 L 968.823 0.632 L 967.164 0.355 L 965.464 0.158 L 963.723 0.039 L 961.940 0.000 L 960.116 0.039 L 958.251 0.158 L 956.346 0.355 L 954.400 0.632 L 952.414 0.987 L 950.387 1.421 L 948.321 1.933 L 946.214 2.524 L 944.068 3.194 L 941.883 3.943 L 939.658 4.769 L 937.394 5.674 L 935.092 6.657 L 932.751 7.718 L 930.371 8.856 L 927.953 10.072 L 925.497 11.366 L 923.004 12.737 L 920.472 14.184 L 917.904 15.708 L 915.298 17.309 L 912.655 18.986 L 909.976 20.739 L 907.260 22.568 L 904.508 24.472 L 901.721 26.451 L 898.897 28.505 L 896.038 30.633 L 893.144 32.836 L 890.215 35.112 L 887.252 37.461 L 884.253 39.884 L 881.221 42.379 L 878.155 44.947 L 875.056 47.586 L 871.923 50.297 L 868.757 53.079 L 865.558 55.932 L 862.327 58.854 L 859.063 61.847 L 855.768 64.908 L 852.441 68.038 L 849.083 71.237 L 845.693 74.503 L 842.274 77.836 L 838.823 81.236 L 835.343 84.702 L 831.833 88.234 L 828.293 91.830 L 824.724 95.492 L 821.126 99.217 L 817.500 103.005 L 813.846 106.856 L 810.163 110.769 L 806.454 114.743 L 802.716 118.779 L 798.952 122.874 L 795.162 127.029 L 791.345 131.243 L 787.503 135.516 L 783.634 139.845 L 779.741 144.232 L 775.823 148.675 L 771.880 153.173 L 767.913 157.726 L 763.923 162.334 L 759.909 166.994 L 755.872 171.707 L 751.812 176.472 L 747.729 181.288 L 743.625 186.154 L 739.499 191.070 L 735.352 196.035 L 731.184 201.048 L 726.995 206.107 L 722.786 211.214 L 718.558 216.366 L 714.310 221.562 L 710.043 226.803 L 705.757 232.087 L 701.453 237.413 L 697.131 242.780 L 692.792 248.188 L 688.436 253.636 L 684.062 259.123 L 679.673 264.648 L 675.267 270.210 L 670.846 275.808 L 666.410 281.442 L 661.959 287.110 L 657.493 292.812 L 653.014 298.547 L 648.521 304.313 L 644.015 310.110 L 639.496 315.938 L 634.964 321.794 L 630.421 327.679 L 625.866 333.590 L 621.300 339.528 L 616.723 345.492 L 612.135 351.479 L 607.538 357.490 L 602.931 363.524 L 598.315 369.579 L 593.691 375.655 L 589.058 381.751 L 584.417 387.865 L 579.768 393.996 L 575.113 400.145 L 570.451 406.309 L 565.782 412.488 L 561.108 418.681 L 556.428 424.887 L 551.743 431.105 L 547.054 437.333 L 542.361 443.572 L 537.663 449.819 L 532.963 456.074 L 528.259 462.337 L 523.553 468.605 L 518.845 474.878 L 514.135 481.155 L 509.424 487.435 L 504.712 493.717 L 500.000 500.000" fill="none" stroke="black" stroke-width="12.0" stroke-linecap="round" stroke-linejoin="round" vector-effect="non-scaling-stroke"/>
</svg>