<svg xmlns="http://www.w3.org/2000/svg" viewBox="-6.000 -6.000 1012.000 1012.000" preserveAspectRatio="xMidYMid meet">
    <path d="M 1000.000 500.000 L 999.961 507.854 L 999.842 515.705 L 999.645 523.553 L 999.368 531.395 L 999.013 539.230 L 998.579 547.054 L 998.067 554.867 L 997.476 562.667 L 996.806 570.451 L 996.057 578.217 L 995.231 585.965 L 994.326 593.691 L 993.343 601.394 L 992.282 609.072 L 991.144 616.723 L 989.928 624.345 L 988.634 631.937 L 987.263 639.496 L 985.816 647.020 L 984.292 654.508 L 982.691 661.959 L 981.014 669.369 L 979.261 676.737 L 977.432 684.062 L 975.528 691.342 L 973.549 698.574 L 971.495 705.757 L 969.367 712.890 L 967.164 719.970 L 964.888 726.995 L 962.539 733.965 L 960.116 740.877 L 957.621 747.729 L 955.053 754.521 L 952.414 761.249 L 949.703 767.913 L 946.921 774.511 L 944.068 781.042 L 941.146 787.503 L 938.153 793.893 L 935.092 800.210 L 931.962 806.454 L 928.763 812.621 L 925.497 818.712 L 922.164 824.724 L 918.764 830.656 L 915.298 836.506 L 911.766 842.274 L 908.170 847.956 L 904.508 853.553 L 900.783 859.063 L 896.995 864.484 L 893.144 869.816 L 889.231 875.056 L 885.257 880.203 L 881.221 885.257 L 877.126 890.215 L 872.971 895.078 L 868.757 899.842 L 864.484 904.508 L 860.155 909.075 L 855.768 913.540 L 851.325 917.904 L 846.827 922.164 L 842.274 926.320 L 837.666 930.371 L 833.006 934.316 L 828.293 938.153 L 823.528 941.883 L 818.712 945.503 L 813.846 949.014 L 808.930 952.414 L 803.965 955.702 L 798.952 958.877 L 793.893 961.940 L 788.786 964.888 L 783.634 967.722 L 778.438 970.440 L 773.197 973.043 L 767.913 975.528 L 762.587 977.897 L 757.220 980.147 L 751.812 982.279 L 746.364 984.292 L 740.877 986.185 L 735.352 987.958 L 729.790 989.611 L 724.192 991.144 L 718.558 992.555 L 712.890 993.844 L 707.188 995.012 L 701.453 996.057 L 695.687 996.980 L 689.890 997.781 L 684.062 998.459 L 678.206 999.013 L 672.321 999.445 L 666.410 999.753 L 660.472 999.938 L 654.508 1000.000 L 648.521 999.938 L 642.510 999.753 L 636.476 999.445 L 630.421 999.013 L 624.345 998.459 L 618.249 997.781 L 612.135 996.980 L 606.004 996.057 L 599.855 995.012 L 593.691 993.844 L 587.512 992.555 L 581.319 991.144 L 575.113 989.611 L 568.895 987.958 L 562.667 986.185 L 556.428 984.292 L 550.181 982.279 L 543.926 980.147 L 537.663 977.897 L 531.395 975.528 L 525.122 973.043 L 518.845 970.440 L 512.565 967.722 L 506.283 964.888 L 500.000 961.940 L 493.717 958.877 L 487.435 955.702 L 481.155 952.414 L 474.878 949.014 L 468.605 945.503 L 462.337 941.883 L 456.074 938.153 L 449.819 934.316 L 443.572 930.371 L 437.333 926.320 L 431.105 922.164 L 424.887 917.904 L 418.681 913.540 L 412.488 909.075 L 406.309 904.508 L 400.145 899.842 L 393.996 895.078 L 387.865 890.215 L 381.751 885.257 L 375.655 880.203 L 369.579 875.056 L 363.524 869.816 L 357.490 864.484 L 351.479 859.063 L 345.492 853.553 L 339.528 847.956 L 333.590 842.274 L 327.679 836.506 L 321.794 830.656 L 315.938 824.724 L 310.110 818.712 L 304.313 812.621 L 298.547 806.454 L 292.812 800.210 L 287.110 793.893 L 281.442 787.503 L 275.808 781.042 L 270.210 774.511 L 264.648 767.913 L 259.123 761.249 L 253.636 754.521 L 248.188 747.729 L 242.780 740.877 L 237.413 733.965 L 232.087 726.995 L 226.803 719.970 L 221.562 712.890 L 216.366 705.757 L 211.214 698.574 L 206.107 691.342 L 201.048 684.062 L 196.035 676.737 L 191.070 669.369 L 186.154 661.959 L 181.288 654.508 L 176.472 647.020 L 171.707 639.496 L 166.994 631.937 L 162.334 624.345 L 157.726 616.723 L 153.173 609.072 L 148.675 601.394 L 144.232 593.691 L 139.845 585.965 L 135.516 578.217 L 131.243 570.451 L 127.029 562.667 L 122.874 554.867 L 118.779 547.054 L 114.743 539.230 L 110.769 531.395 L 106.856 523.553 L 103.005 515.705 L 99.217 507.854 L 95.492 500.000 L 91.830 492.146 L 88.234 484.295 L 84.702 476.447 L 81.236 468.605 L 77.836 460.770 L 74.503 452.946 L 71.237 445.133 L 68.038 437.333 L 64.908 429.549 L 61.847 421.783 L 58.854 414.035 L 55.932 406.309 L 53.079 398.606 L 50.297 390.928 L 47.586 383.277 L 44.947 375.655 L 42.379 368.063 L 39.884 360.504 L 37.461 352.980 L 35.112 345.492 L 32.836 338.041 L 30.633 330.631 L 28.505 323.263 L 26.451 315.938 L 24.472 308.658 L 22.568 301.426 L 20.739 294.243 L 18.986 287.110 L 17.309 280.030 L 15.708 273.005 L 14.184 266.035 L 12.737 259.123 L 11.366 252.271 L 10.072 245.479 L 8.856 238.751 L 7.718 232.087 L 6.657 225.489 L 5.674 218.958 L 4.769 212.497 L 3.943 206.107 L 3.194 199.790 L 2.524 193.546 L 1.933 187.379 L 1.421 181.288 L 0.987 175.276 L 0.632 169.344 L 0.355 163.494 L 0.158 157.726 L 0.039 152.044 L 0.000 146.447 L 0.039 140.937 L 0.158 135.516 L 0.355 130.184 L 0.632 124.944 L 0.987 119.797 L 1.421 114.743 L 1.933 109.785 L 2.524 104.922 L 3.194 100.158 L 3.943 95.492 L 4.769 90.925 L 5.674 86.460 L 6.657 82.096 L 7.718 77.836 L 8.856 73.680 L 10.072 69.629 L 11.366 65.684 L 12.737 61.847 L 14.184 58.117 L 15.708 54.497 L 17.309 50.986 L 18.986 47.586 L 20.739 44.298 L 22.568 41.123 L 24.472 38.060 L 26.451 35.112 L 28.505 32.278 L 30.633 29.560 L 32.836 26.957 L 35.112 24.472 L 37.461 22.103 L 39.884 19.853 L 42.379 17.721 L 44.947 15.708 L 47.586 13.815 L 50.297 12.042 L 53.079 10.389 L 55.932 8.856 L 58.854 7.445 L 61.847 6.156 L 64.908 4.988 L 68.038 3.943 L 71.237 3.020 L 74.503 2.219 L 77.836 1.541 L 81.236 0.987 L 84.702 0.555 L 88.234 0.247 L 91.830 0.062 L 95.492 0.000 L 99.217 0.062 L 103.005 0.247 L 106.856 0.555 L 110.769 0.987 L 114.743 1.541 L 118.779 2.219 L 122.874 3.020 L 127.029 3.943 L 131.243 4.988 L 135.516 6.156 L 139.845 7.445 L 144.232 8.856 L 148.675 10.389 L 153.173 12.042 L 157.726 13.815 L 162.334 15.708 L 166.994 17.721 L 171.707 19.853 L 176.472 22.103 L 181.288 24.472 L 186.154 26.957 L 191.070 29.560 L 196.035 32.278 L 201.048 35.112 L 206.107 38.060 L 211.214 41.123 L 216.366 44.298 L 221.562 47.586 L 226.803 50.986 L 232.087 54.497 L 237.413 58.117 L 242.780 61.847 L 248.188 65.684 L 253.636 69.629 L 259.123 73.680 L 264.648 77.836 L 270.210 82.096 L 275.808 86.460 L 281.442 90.925 L 287.110 95.492 L 292.812 100.158 L 298.547 104.922 L 304.313 109.785 L 310.110 114.743 L 315.938 119.797 L 321.794 124.944 L 327.679 130.184 L 333.590 135.516 L 339.528 140.937 L 345.492 146.447 L 351.479 152.044 L 357.490 157.726 L 363.524 163.494 L 369.579 169.344 L 375.655 175.276 L 381.751 181.288 L 387.865 187.379 L 393.996 193.546 L 400.145 199.790 L 406.309 206.107 L 412.488 212.497 L 418.681 218.958 L 424.887 225.489 L 431.105 232.087 L 437.333 238.751 L 443.572 245.479 L 449.819 252.271 L 456.074 259.123 L 462.337 266.035 L 468.605 273.005 L 474.878 280.030 L 481.155 287.110 L 487.435 294.243 L 493.717 301.426 L 500.000 308.658 L 506.283 315.938 L 512.565 323.263 L 518.845 330.631 L 525.122 338.041 L 531.395 345.492 L 537.663 352.980 L 543.926 360.504 L 550.181 368.063 L 556.428 375.655 L 562.667 383.277 L 568.895 390.928 L 575.113 398.606 L 581.319 406.309 L 587.512 414.035 L 593.691 421.783 L 599.855 429.549 L 606.004 437.333 L 612.135 445.133 L 618.249 452.946 L 624.345 460.770 L 630.421 468.605 L 636.476 476.447 L 642.510 484.295 L 648.521 492.146 L 654.508 500.000 L 660.472 507.854 L 666.410 515.705 L 672.321 523.553 L 678.206 531.395 L 684.062 539.230 L 689.890 547.054 L 695.687 554.867 L 701.453 562.667 L 707.188 570.451 L 712.890 578.217 L 718.558 585.965 L 724.192 593.691 L 729.790 601.394 L 735.352 609.072 L 740.877 616.723 L 746.364 624.345 L 751.812 631.937 L 757.220 639.496 L 762.587 647.020 L 767.913 654.508 L 773.197 661.959 L 778.438 669.369 L 783.634 676.737 L 788.786 684.062 L 793.893 691.342 L 798.952 698.574 L 803.965 705.757 L 808.930 712.890 L 813.846 719.970 L 818.712 726.995 L 823.528 733.965 L 828.293 740.877 L 833.006 747.729 L 837.666 754.521 L 842.274 761.249 L 846.827 767.913 L 851.325 774.511 L 855.768 781.042 L 860.155 787.503 L 864.484 793.893 L 868.757 800.210 L 872.971 806.454 L 877.126 812.621 L 881.221 818.712 L 885.257 824.724 L 889.231 830.656 L 893.144 836.506 L 896.995 842.274 L 900.783 847.956 L 904.508 853.553 L 908.170 859.063 L 911.766 864.484 L 915.298 869.816 L 918.764 875.056 L 922.164 880.203 L 925.497 885.257 L 928.763 890.215 L 931.962 895.078 L 935.092 899.842 L 938.153 904.508 L 941.146 909.075 L 944.068 913.540 L 946.921 917.904 L 949.703 922.164 L 952.414 926.320 L 955.053 930.371 L 957.621 934.316 L 960.116 938.153 L 962.539 941.883 L 964.888 945.503 L 967.164 949.014 L 969.367 952.414 L 971.495 955.702 L 973.549 958.877 L 975.528 961.940 L 977.432 964.888 L 979.261 967.722 L 981.014 970.440 L 982.691 973.043 L 984.292 975.528 L 985.816 977.897 L 987.263 980.147 L 988.634 982.279 L 989.928 984.292 L 991.144 986.185 L 992.282 987.958 L 993.343 989.611 L 994.326 991.144 L 995.231 992.555 L 996.057 993.844 L 996.806 995.012 L 997.476 996.057 L 998.067 996.980 L 998.579 997.781 L 999.013 998.459 L 999.368 999.013 L 999.645 999.445 L 999.842 999.753 L 999.961 999.938 L 1000.000 1000.000 L 999.961 999.938 L 999.842 999.753 L 999.645 999.445 L 999.368 999.013 L 999.013 998.459 L 998.579 997.781 L 998.067 996.980 L 997.476 996.057 L 996.806 995.012 L 996.057 993.844 L 995.231 992.555 L 994.326 991.144 L 993.343 989.611 L 992.282 987.958 L 991.144 986.185 L 989.928 984.292 L 988.634 982.279 L 987.263 980.147 L 985.816 977.897 L 984.292 975.528 L 982.691 973.043 L 981.014 970.440 L 979.261 967.722 L 977.432 964.888 L 975.528 961.940 L 973.549 958.877 L 971.495 955.702 L 969.367 952.414 L 967.164 949.014 L 964.888 945.503 L 962.539 941.883 L 960.116 938.153 L 957.621 934.316 L 955.053 930.371 L 952.414 926.320 L 949.703 922.164 L 946.921 917.904 L 944.068 913.540 L 941.146 909.075 L 938.153 904.508 L 935.092 899.842 L 931.962 895.078 L 928.763 890.215 L 925.497 885.257 L 922.164 880.203 L 918.764 875.056 L 915.298 869.816 L 911.766 864.484 L 908.170 859.063 L 904.508 853.553 L 900.783 847.956 L 896.995 842.274 L 893.144 836.506 L 889.231 830.656 L 885.257 824.724 L 881.221 818.712 L 877.126 812.621 L 872.971 806.454 L 868.757 800.210 L 864.484 793.893 L 860.155 787.503 L 855.768 781.042 L 851.325 774.511 L 846.827 767.913 L 842.274 761.249 L 837.666 754.521 L 833.006 747.729 L 828.293 740.877 L 823.528 733.965 L 818.712 726.995 L 813.846 719.970 L 808.930 712.890 L 803.965 705.757 L 798.952 698.574 L 793.893 691.342 L 788.786 684.062 L 783.634 676.737 L 778.438 669.369 L 773.197 661.959 L 767.913 654.508 L 762.587 647.020 L 757.220 639.496 L 751.812 631.937 L 746.364 624.345 L 740.877 616.723 L 735.352 609.072 L 729.790 601.394 L 724.192 593.691 L 718.558 585.965 L 712.890 578.217 L 707.188 570.451 L 701.453 562.667 L 695.687 554.867 L 689.890 547.054 L 684.062 539.230 L 678.206 531.395 L 672.321 523.553 L 666.410 515.705 L 660.472 507.854 L 654.508 500.000 L 648.521 492.146 L 642.510 484.295 L 636.476 476.447 L 630.421 468.605 L 624.345 460.770 L 618.249 452.946 L 612.135 445.133 L 606.004 437.333 L 599.855 429.549 L 593.691 421.783 L 587.512 414.035 L 581.319 406.309 L 575.113 398.606 L 568.895 390.928 L 562.667 383.277 L 556.428 375.655 L 550.181 368.063 L 543.926 360.504 L 537.663 352.980 L 531.395 345.492 L 525.122 338.041 L 518.845 330.631 L 512.565 323.263 L 506.283 315.938 L 500.000 308.658 L 493.717 301.426 L 487.435 294.243 L 481.155 287.110 L 474.878 280.030 L 468.605 273.005 L 462.337 266.035 L 456.074 259.123 L 449.819 252.271 L 443.572 245.479 L 437.333 238.751 L 431.105 232.087 L 424.887 225.489 L 418.681 218.958 L 412.488 212.497 L 406.309 206.107 L 400.145 199.790 L 393.996 193.546 L 387.865 187.379 L 381.751 181.288 L 375.655 175.276 L 369.579 169.344 L 363.524 163.494 L 357.490 157.726 L 351.479 152.044 L 345.492 146.447 L 339.528 140.937 L 333.590 135.516 L 327.679 130.184 L 321.794 124.944 L 315.938 119.797 L 310.110 114.743 L 304.313 109.785 L 298.547 104.922 L 292.812 100.158 L 287.110 95.492 L 281.442 90.925 L 275.808 86.460 L 270.210 82.096 L 264.648 77.836 L 259.123 73.680 L 253.636 69.629 L 248.188 65.684 L 242.780 61.847 L 237.413 58.117 L 232.087 54.497 L 226.803 50.986 L 221.562 47.586 L 216.366 44.298 L 211.214 41.123 L 206.107 38.060 L 201.048 35.112 L 196.035 32.278 L 191.070 29.560 L 186.154 26.957 L 181.288 24.472 L 176.472 22.103 L 171.707 19.853 L 166.994 17.721 L 162.334 15.708 L 157.726 13.815 L 153.173 12.042 L 148.675 10.389 L 144.232 8.856 L 139.845 7.445 L 135.516 6.156 L 131.243 4.988 L 127.029 3.943 L 122.874 3.020 L 118.779 2.219 L 114.743 1.541 L 110.769 0.987 L 106.856 0.555 L 103.005 0.247 L 99.217 0.062 L 95.492 0.000 L 91.830 0.062 L 88.234 0.247 L 84.702 0.555 L 81.236 0.987 L 77.836 1.541 L 74.503 2.219 L 71.237 3.020 L 68.038 3.943 L 64.908 4.988 L 61.847 6.156 L 58.854 7.445 L 55.932 8.856 L 53.079 10.389 L 50.297 12.042 L 47.586 13.815 L 44.947 15.708 L 42.379 17.721 L 39.884 19.853 L 37.461 22.103 L 35.112 24.472 L 32.836 26.957 L 30.633 29.560 L 28.505 32.278 L 26.451 35.112 L 24.472 38.060 L 22.568 41.123 L 20.739 44.298 L 18.986 47.586 L 17.309 50.986 L 15.708 54.497 L 14.184 58.117 L 12.737 61.847 L 11.366 65.684 L 10.072 69.629 L 8.856 73.680 L 7.718 77.836 L 6.657 82.096 L 5.674 86.460 L 4.769 90.925 L 3.943 95.492 L 3.194 100.158 L 2.524 104.922 L 1.933 109.785 L 1.421 114.743 L 0.987 119.797 L 0.632 124.944 L 0.355 130.184 L 0.158 135.516 L 0.039 140.937 L 0.000 146.447 L 0.039 152.044 L 0.158 157.726 L 0.355 163.494 L 0.632 169.344 L 0.987 175.276 L 1.421 181.288 L 1.933 187.379 L 2.524 193.546 L 3.194 199.790 L 3.943 206.107 L 4.769 212.497 L 5.674 218.958 L 6.657 225.489 L 7.718 232.087 L 8.856 238.751 L 10.072 245.479 L 11.366 252.271 L 12.737 259.123 L 14.184 266.035 L 15.708 273.005 L 17.309 280.030 L 18.986 287.110 L 20.739 294.243 L 22.568 301.426 L 24.472 308.658 L 26.451 315.938 L 28.505 323.263 L 30.633 330.631 L 32.836 338.041 L 35.112 345.492 L 37.461 352.980 L 39.884 360.504 L 42.379 368.063 L 44.947 375.655 L 47.586 383.277 L 50.297 390.928 L 53.079 398.606 L 55.932 406.309 L 58.854 414.035 L 61.847 421.783 L 64.908 429.549 L 68.038 437.333 L 71.237 445.133 L 74.503 452.946 L 77.836 460.770 L 81.236 468.605 L 84.702 476.447 L 88.234 484.295 L 91.830 492.146 L 95.492 500.000 L 99.217 507.854 L 103.005 515.705 L 106.856 523.553 L 110.769 531.395 L 114.743 539.230 L 118.779 547.054 L 122.874 554.867 L 127.029 562.667 L 131.243 570.451 L 135.516 578.217 L 139.845 585.965 L 144.232 593.691 L 148.675 601.394 L 153.173 609.072 L 157.726 616.723 L 162.334 624.345 L 166.994 631.937 L 171.707 639.496 L 176.472 647.020 L 181.288 654.508 L 186.154 661.959 L 191.070 669.369 L 196.035 676.737 L 201.048 684.062 L 206.107 691.342 L 211.214 698.574 L 216.366 705.757 L 221.562 712.890 L 226.803 719.970 L 232.087 726.995 L 237.413 733.965 L 242.780 740.877 L 248.188 747.729 L 253.636 754.521 L 259.123 761.249 L 264.648 767.913 L 270.210 774.511 L 275.808 781.042 L 281.442 787.503 L 287.110 793.893 L 292.812 800.210 L 298.547 806.454 L 304.313 812.621 L 310.110 818.712 L 315.938 824.724 L 321.794 830.656 L 327.679 836.506 L 333.590 842.274 L 339.528 847.956 L 345.492 853.553 L 351.479 859.063 L 357.490 864.484 L 363.524 869.816 L 369.579 875.056 L 375.655 880.203 L 381.751 885.257 L 387.865 890.215 L 393.996 895.078 L 400.145 899.842 L 406.309 904.508 L 412.488 909.075 L 418.681 913.540 L 424.887 917.904 L 431.105 922.164 L 437.333 926.320 L 443.572 930.371 L 449.819 934.316 L 456.074 938.153 L 462.337 941.883 L 468.605 945.503 L 474.878 949.014 L 481.155 952.414 L 487.435 955.702 L 493.717 958.877 L 500.000 961.940 L 506.283 964.888 L 512.565 967.722 L 518.845 970.440 L 525.122 973.043 L 531.395 975.528 L 537.663 977.897 L 543.926 980.147 L 550.181 982.279 L 556.428 984.292 L 562.667 986.185 L 568.895 987.958 L 575.113 989.611 L 581.319 991.144 L 587.512 992.555 L 593.691 993.844 L 599.855 995.012 L 606.004 996.057 L 612.135 996.980 L 618.249 997.781 L 624.345 998.459 L 630.421 999.013 L 636.476 999.445 L 642.510 999.753 L 648.521 999.938 L 654.508 1000.000 L 660.472 999.938 L 666.410 999.753 L 672.321 999.445 L 678.206 999.013 L 684.062 998.459 L 689.890 997.781 L 695.687 996.980 L 701.453 996.057 L 707.188 995.012 L 712.890 993.844 L 718.558 992.555 L 724.192 991.144 L 729.790 989.611 L 735.352 987.958 L 740.877 986.185 L 746.364 984.292 L 751.812 982.279 L 757.220 980.147 L 762.587 977.897 L 767.913 975.528 L 773.197 973.043 L 778.438 970.440 L 783.634 967.722 L 788.786 964.888 L 793.893 961.940 L 798.952 958.877 L 803.965 955.702 L 808.930 952.414 L 813.846 949.014 L 818.712 945.503 L 823.528 941.883 L 828.293 938.153 L 833.006 934.316 L 837.666 930.371 L 842.274 926.320 L 846.827 922.164 L 851.325 917.904 L 855.768 913.540 L 860.155 909.075 L 864.484 904.508 L 868.757 899.842 L 872.971 895.078 L 877.126 890.215 L 881.221 885.257 L 885.257 880.203 L 889.231 875.056 L 893.144 869.816 L 896.995 864.484 L 900.783 859.063 L 904.508 853.553 L 908.170 847.956 L 911.766 842.274 L 915.298 836.506 L 918.764 830.656 L 922.164 824.724 L 925.497 818.712 L 928.763 812.621 L 931.962 806.454 L 935.092 800.210 L 938.153 793.893 L 941.146 787.503 L 944.068 781.042 L 946.921 774.511 L 949.703 767.913 L 952.414 761.249 L 955.053 754.521 L 957.621 747.729 L 960.116 740.877 L 962.539 733.965 L 964.888 726.995 L 967.164 719.970 L 969.367 712.890 L 971.495 705.757 L 973.549 698.574 L 975.528 691.342 L 977.432 684.062 L 979.261 676.737 L 981.014 669.369 L 982.691 661.959 L 984.292 654.508 L 985.816 647.020 L 987.263 639.496 L 988.634 631.937 L 989.928 624.345 L 991.144 616.723 L 992.282 609.072 L 993.343 601.394 L 994.326 593.691 L 995.231 585.965 L 996.057 578.217 L 996.806 570.451 L 997.476 562.667 L 998.067 554.867 L 998.579 547.054 L 999.013 539.230 L 999.368 531.395 L 999.645 523.553 L 999.842 515.705 L 999.961 507.854 L 1000.000 500.000 L 999.961 492.146 L 999.842 484.295 L 999.645 476.447 L 999.368 468.605 L 999.013 460.770 L 998.579 452.946 L 998.067 445.133 L 997.476 437.333 L 996.806 429.549 L 996.057 421.783 L 995.231 414.035 L 994.326 406.309 L 993.343 398.606 L 992.282 390.928 L 991.144 383.277 L 989.928 375.655 L 988.634 368.063 L 987.263 360.504 L 985.816 352.980 L 984.292 345.492 L 982.691 338.041 L 981.014 330.631 L 979.261 323.263 L 977.432 315.938 L 975.528 308.658 L 973.549 301.426 L 971.495 294.243 L 969.367 287.110 L 967.164 280.030 L 964.888 273.005 L 962.539 266.035 L 960.116 259.123 L 957.621 252.271 L 955.053 245.479 L 952.414 238.751 L 949.703 232.087 L 946.921 225.489 L 944.068 218.958 L 941.146 212.497 L 938.153 206.107 L 935.092 199.790 L 931.962 193.546 L 928.763 187.379 L 925.497 181.288 L 922.164 175.276 L 918.764 169.344 L 915.298 163.494 L 911.766 157.726 L 908.170 152.044 L 904.508 146.447 L 900.783 140.937 L 896.995 135.516 L 893.144 130.184 L 889.231 124.944 L 885.257 119.797 L 881.221 114.743 L 877.126 109.785 L 872.971 104.922 L 868.757 100.158 L 864.484 95.492 L 860.155 90.925 L 855.768 86.460 L 851.325 82.096 L 846.827 77.836 L 842.274 73.680 L 837.666 69.629 L 833.006 65.684 L 828.293 61.847 L 823.528 58.117 L 818.712 54.497 L 813.846 50.986 L 808.930 47.586 L 803.965 44.298 L 798.952 41.123 L 793.893 38.060 L 788.786 35.112 L 783.634 32.278 L 778.438 29.560 L 773.197 26.957 L 767.913 24.472 L 762.587 22.103 L 757.220 19.853 L 751.812 17.721 L 746.364 15.708 L 740.877 13.815 L 735.352 12.042 L 729.790 10.389 L 724.192 8.856 L 718.558 7.445 L 712.890 6.156 L 707.188 4.988 L 701.453 3.943 L 695.687 3.020 L 689.890 2.219 L 684.062 1.541 L 678.206 0.987 L 672.321 0.555 L 666.410 0.247 L 660.472 0.062 L 654.508 0.000 L 648.521 0.062 L 642.510 0.247 L 636.476 0.555 L 630.421 0.987 L 624.345 1.541 L 618.249 2.219 L 612.135 3.020 L 606.004 3.943 L 599.855 4.988 L 593.691 6.156 L 587.512 7.445 L 581.319 8.856 L 575.113 10.389 L 568.895 12.042 L 562.667 13.815 L 556.428 15.708 L 550.181 17.721 L 543.926 19.853 L 537.663 22.103 L 531.395 24.472 L 525.122 26.957 L 518.845 29.560 L 512.565 32.278 L 506.283 35.112 L 500.000 38.060 L 493.717 41.123 L 487.435 44.298 L 481.155 47.586 L 474.878 50.986 L 468.605 54.497 L 462.337 58.117 L 456.074 61.847 L 449.819 65.684 L 443.572 69.629 L 437.333 73.680 L 431.105 77.836 L 424.887 82.096 L 418.681 86.460 L 412.488 90.925 L 406.309 95.492 L 400.145 100.158 L 393.996 104.922 L 387.865 109.785 L 381.751 114.743 L 375.655 119.797 L 369.579 124.944 L 363.524 130.184 L 357.490 135.516 L 351.479 140.937 L 345.492 146.447 L 339.528 152.044 L 333.590 157.726 L 327.679 163.494 L 321.794 169.344 L 315.938 175.276 L 310.110 181.288 L 304.313 187.379 L 298.547 193.546 L 292.812 199.790 L 287.110 206.107 L 281.442 212.497 L 275.808 218.958 L 270.210 225.489 L 264.648 232.087 L 259.123 238.751 L 253.636 245.479 L 248.188 252.271 L 242.780 259.123 L 237.413 266.035 L 232.087 273.005 L 226.803 280.030 L 221.562 287.110 L 216.366 294.243 L 211.214 301.426 L 206.107 308.658 L 201.048 315.938 L 196.035 323.263 L 191.070 330.631 L 186.154 338.041 L 181.288 345.492 L 176.472 352.980 L 171.707 360.504 L 166.994 368.063 L 162.334 375.655 L 157.726 383.277 L 153.173 390.928 L 148.675 398.606 L 144.232 406.309 L 139.845 414.035 L 135.516 421.783 L 131.243 429.549 L 127.029 437.333 L 122.874 445.133 L 118.779 452.946 L 114.743 460.770 L 110.769 468.605 L 106.856 476.447 L 103.005 484.295 L 99.217 492.146 L 95.492 500.000 L 91.830 507.854 L 88.234 515.705 L 84.702 523.553 L 81.236 531.395 L 77.836 539.230 L 74.503 547.054 L 71.237 554.867 L 68.038 562.667 L 64.908 570.451 L 61.847 578.217 L 58.854 585.965 L 55.932 593.691 L 53.079 601.394 L 50.297 609.072 L 47.586 616.723 L 44.947 624.345 L 42.379 631.937 L 39.884 639.496 L 37.461 647.020 L 35.112 654.508 L 32.836 661.959 L 30.633 669.369 L 28.505 676.737 L 26.451 684.062 L 24.472 691.342 L 22.568 698.574 L 20.739 705.757 L 18.986 712.890 L 17.309 719.970 L 15.708 726.995 L 14.184 733.965 L 12.737 740.877 L 11.366 747.729 L 10.072 754.521 L 8.856 761.249 L 7.718 767.913 L 6.657 774.511 L 5.674 781.042 L 4.769 787.503 L 3.943 793.893 L 3.194 800.210 L 2.524 806.454 L 1.933 812.621 L 1.421 818.712 L 0.987 824.724 L 0.632 830.656 L 0.355 836.506 L 0.158 842.274 L 0.039 847.956 L 0.000 853.553 L 0.039 859.063 L 0.158 864.484 L 0.355 869.816 L 0.632 875.056 L 0.987 880.203 L 1.421 885.257 L 1.933 890.215 L 2.524 895.078 L 3.194 899.842 L 3.943 904.508 L 4.769 909.075 L 5.674 913.540 L 6.657 917.904 L 7.718 922.164 L 8.856 926.320 L 10.072 930.371 L 11.366 934.316 L 12.737 938.153 L 14.184 941.883 L 15.708 945.503 L 17.309 949.014 L 18.986 952.414 L 20.739 955.702 L 22.568 958.877 L 24.472 961.940 L 26.451 964.888 L 28.505 967.722 L 30.633 970.440 L 32.836 973.043 L 35.112 975.528 L 37.461 977.897 L 39.884 980.147 L 42.379 982.279 L 44.947 984.292 L 47.586 986.185 L 50.297 987.958 L 53.079 989.611 L 55.932 991.144 L 58.854 992.555 L 61.847 993.844 L 64.908 995.012 L 68.038 996.057 L 71.237 996.980 L 74.503 997.781 L 77.836 998.459 L 81.236 999.013 L 84.702 999.445 L 88.234 999.753 L 91.830 999.938 L 95.492 1000.000 L 99.217 999.938 L 103.005 999.753 L 106.856 999.445 L 110.769 999.013 L 114.743 998.459 L 118.779 997.781 L 122.874 996.980 L 127.029 996.057 L 131.243 995.012 L 135.516 993.844 L 139.845 992.555 L 144.232 991.144 L 148.675 989.611 L 153.173 987.958 L 157.726 986.185 L 162.334 984.292 L 166.994 982.279 L 171.707 980.147 L 176.472 977.897 L 181.288 975.528 L 186.154 973.043 L 191.070 970.440 L 196.035 967.722 L 201.048 964.888 L 206.107 961.940 L 211.214 958.877 L 216.366 955.702 L 221.562 952.414 L 226.803 949.014 L 232.087 945.503 L 237.413 941.883 L 242.780 938.153 L 248.188 934.316 L 253.636 930.371 L 259.123 926.320 L 264.648 922.164 L 270.210 917.904 L 275.808 913.540 L 281.442 909.075 L 287.110 904.508 L 292.812 899.842 L 298.547 895.078 L 304.313 890.215 L 310.110 885.257 L 315.938 880.203 L 321.794 875.056 L 327.679 869.816 L 333.590 864.484 L 339.528 859.063 L 345.492 853.553 L 351.479 847.956 L 357.490 842.274 L 363.524 836.506 L 369.579 830.656 L 375.655 824.724 L 381.751 818.712 L 387.865 812.621 L 393.996 806.454 L 400.145 800.210 L 406.309 793.893 L 412.488 787.503 L 418.681 781.042 L 424.887 774.511 L 431.105 767.913 L 437.333 761.249 L 443.572 754.521 L 449.819 747.729 L 456.074 740.877 L 462.337 733.965 L 468.605 726.995 L 474.878 719.970 L 481.155 712.890 L 487.435 705.757 L 493.717 698.574 L 500.000 691.342 L 506.283 684.062 L 512.565 676.737 L 518.845 669.369 L 525.122 661.959 L 531.395 654.508 L 537.663 647.020 L 543.926 639.496 L 550.181 631.937 L 556.428 624.345 L 562.667 616.723 L 568.895 609.072 L 575.113 601.394 L 581.319 593.691 L 587.512 585.965 L 593.691 578.217 L 599.855 570.451 L 606.004 562.667 L 612.135 554.867 L 618.249 547.054 L 624.345 539.230 L 630.421 531.395 L 636.476 523.553 L 642.510 515.705 L 648.521 507.854 L 654.508 500.000 L 660.472 492.146 L 666.410 484.295 L 672.321 476.447 L 678.206 468.605 L 684.062 460.770 L 689.890 452.946 L 695.687 445.133 L 701.453 437.333 L 707.188 429.549 L 712.890 421.783 L 718.558 414.035 L 724.192 406.309 L 729.790 398.606 L 735.352 390.928 L 740.877 383.277 L 746.364 375.655 L 751.812 368.063 L 757.220 360.504 L 762.587 352.980 L 767.913 345.492 L 773.197 338.041 L 778.438 330.631 L 783.634 323.263 L 788.786 315.938 L 793.893 308.658 L 798.952 301.426 L 803.965 294.243 L 808.930 287.110 L 813.846 280.030 L 818.712 273.005 L 823.528 266.035 L 828.293 259.123 L 833.006 252.271 L 837.666 245.479 L 842.274 238.751 L 846.827 232.087 L 851.325 225.489 L 855.768 218.958 L 860.155 212.497 L 864.484 206.107 L 868.757 199.790 L 872.971 193.546 L 877.126 187.379 L 881.221 181.288 L 885.257 175.276 L 889.231 169.344 L 893.144 163.494 L 896.995 157.726 L 900.783 152.044 L 904.508 146.447 L 908.170 140.937 L 911.766 135.516 L 915.298 130.184 L 918.764 124.944 L 922.164 119.797 L 925.497 114.743 L 928.763 109.785 L 931.962 104.922 L 935.092 100.158 L 938.153 95.492 L 941.146 90.925 L 944.068 86.460 L 946.921 82.096 L 949.703 77.836 L 952.414 73.680 L 955.053 69.629 L 957.621 65.684 L 960.116 61.847 L 962.539 58.117 L 964.888 54.497 L 967.164 50.986 L 969.367 47.586 L 971.495 44.298 L 973.549 41.123 L 975.528 38.060 L 977.432 35.112 L 979.261 32.278 L 981.014 29.560 L 982.691 26.957 L 984.292 24.472 L 985.816 22.103 L 987.263 19.853 L 988.634 17.721 L 989.928 15.708 L 991.144 13.815 L 992.282 12.042 L 993.343 10.389 L 994.326 8.856 L 995.231 7.445 L 996.057 6.156 L 996.806 4.988 L 997.476 3.943 L 998.067 3.020 L 998.579 2.219 L 999.013 1.541 L 999.368 0.987 L 999.645 0.555 L 999.842 0.247 L 999.961 0.062 L 1000.000 0.000 L 999.961 0.062 L 999.842 0.247 L 999.645 0.555 L 999.368 0.987 L 999.013 1.541 L 998.579 2.219 L 998.067 3.020 L 997.476 3.943 L 996.806 4.988 L 996.057 6.156 L 995.231 7.445 L 994.326 8.856 L 993.343 10.389 L 992.282 12.042 L 991.144 13.815 L 989.928 15.708 L 988.634 17.721 L 987.263 19.853 L 985.816 22.103 L 984.292 24.472 L 982.691 26.957 L 981.014 29.560 L 979.261 32.278 L 977.432 35.112 L 975.528 38.060 L 973.549 41.123 L 971.495 44.298 L 969.367 47.586 L 967.164 50.986 L 964.888 54.497 L 962.539 58.117 L 960.116 61.847 L 957.621 65.684 L 955.053 69.629 L 952.414 73.680 L 949.703 77.836 L 946.921 82.096 L 944.068 86.460 L 941.146 90.925 L 938.153 95.492 L 935.092 100.158 L 931.962 104.922 L 928.763 109.785 L 925.497 114.743 L 922.164 119.797 L 918.764 124.944 L 915.298 130.184 L 911.766 135.516 L 908.170 140.937 L 904.508 146.447 L 900.783 152.044 L 896.995 157.726 L 893.144 163.494 L 889.231 169.344 L 885.257 175.276 L 881.221 181.288 L 877.126 187.379 L 872.971 193.546 L 868.757 199.790 L 864.484 206.107 L 860.155 212.497 L 855.768 218.958 L 851.325 225.489 L 846.827 232.087 L 842.274 238.751 L 837.666 245.479 L 833.006 252.271 L 828.293 259.123 L 823.528 266.035 L 818.712 273.005 L 813.846 280.030 L 808.930 287.110 L 803.965 294.243 L 798.952 301.426 L 793.893 308.658 L 788.786 315.938 L 783.634 323.263 L 778.438 330.631 L 773.197 338.041 L 767.913 345.492 L 762.587 352.980 L 757.220 360.504 L 751.812 368.063 L 746.364 375.655 L 740.877 383.277 L 735.352 390.928 L 729.790 398.606 L 724.192 406.309 L 718.558 414.035 L 712.890 421.783 L 707.188 429.549 L 701.453 437.333 L 695.687 445.133 L 689.890 452.946 L 684.062 460.770 L 678.206 468.605 L 672.321 476.447 L 666.410 484.295 L 660.472 492.146 L 654.508 500.000 L 648.521 507.854 L 642.510 515.705 L 636.476 523.553 L 630.421 531.395 L 624.345 539.230 L 618.249 547.054 L 612.135 554.867 L 606.004 562.667 L 599.855 570.451 L 593.691 578.217 L 587.512 585.965 L 581.319 593.691 L 575.113 601.394 L 568.895 609.072 L 562.667 616.723 L 556.428 624.345 L 550.181 631.937 L 543.926 639.496 L 537.663 647.020 L 531.395 654.508 L 525.122 661.959 L 518.845 669.369 L 512.565 676.737 L 506.283 684.062 L 500.000 691.342 L 493.717 698.574 L 487.435 705.757 L 481.155 712.890 L 474.878 719.970 L 468.605 726.995 L 462.337 733.965 L 456.074 740.877 L 449.819 747.729 L 443.572 754.521 L 437.333 761.249 L 431.105 767.913 L 424.887 774.511 L 418.681 781.042 L 412.488 787.503 L 406.309 793.893 L 400.145 800.210 L 393.996 806.454 L 387.865 812.621 L 381.751 818.712 L 375.655 824.724 L 369.579 830.656 L 363.524 836.506 L 357.490 842.274 L 351.479 847.956 L 345.492 853.553 L 339.528 859.063 L 333.590 864.484 L 327.679 869.816 L 321.794 875.056 L 315.938 880.203 L 310.110 885.257 L 304.313 890.215 L 298.547 895.078 L 292.812 899.842 L 287.110 904.508 L 281.442 909.075 L 275.808 913.540 L 270.210 917.904 L 264.648 922.164 L 259.123 926.320 L 253.636 930.371 L 248.188 934.316 L 242.780 938.153 L 237.413 941.883 L 232.087 945.503 L 226.803 949.014 L 221.562 952.414 L 216.366 955.702 L 211.214 958.877 L 206.107 961.940 L 201.048 964.888 L 196.035 967.722 L 191.070 970.440 L 186.154 973.043 L 181.288 975.528 L 176.472 977.897 L 171.707 980.147 L 166.994 982.279 L 162.334 984.292 L 157.726 986.185 L 153.173 987.958 L 148.675 989.611 L 144.232 991.144 L 139.845 992.555 L 135.516 993.844 L 131.243 995.012 L 127.029 996.057 L 122.874 996.980 L 118.779 997.781 L 114.743 998.459 L 110.769 999.013 L 106.856 999.445 L 103.005 999.753 L 99.217 999.938 L 95.492 1000.000 L 91.830 999.938 L 88.234 999.753 L 84.702 999.445 L 81.236 999.013 L 77.836 998.459 L 74.503 997.781 L 71.237 996.980 L 68.038 996.057 L 64.908 995.012 L 61.847 993.844 L 58.854 992.555 L 55.932 991.144 L 53.079 989.611 L 50.297 987.958 L 47.586 986.185 L 44.947 984.292 L 42.379 982.279 L 39.884 980.147 L 37.461 977.897 L 35.112 975.528 L 32.836 973.043 L 30.633 970.440 L 28.505 967.722 L 26.451 964.888 L 24.472 961.940 L 22.568 958.877 L 20.739 955.702 L 18.986 952.414 L 17.309 949.014 L 15.708 945.503 L 14.184 941.883 L 12.737 938.153 L 11.366 934.316 L 10.072 930.371 L 8.856 926.320 L 7.718 922.164 L 6.657 917.904 L 5.674 913.540 L 4.769 909.075 L 3.943 904.508 L 3.194 899.842 L 2.524 895.078 L 1.933 890.215 L 1.421 885.257 L 0.987 880.203 L 0.632 875.056 L 0.355 869.816 L 0.158 864.484 L 0.039 859.063 L 0.000 853.553 L 0.039 847.956 L 0.158 842.274 L 0.355 836.506 L 0.632 830.656 L 0.987 824.724 L 1.421 818.712 L 1.933 812.621 L 2.524 806.454 L 3.194 800.210 L 3.943 793.893 L 4.769 787.503 L 5.674 781.042 L 6.657 774.511 L 7.718 767.913 L 8.856 761.249 L 10.072 754.521 L 11.366 747.729 L 12.737 740.877 L 14.184 733.965 L 15.708 726.995 L 17.309 719.970 L 18.986 712.890 L 20.739 705.757 L 22.568 698.574 L 24.472 691.342 L 26.451 684.062 L 28.505 676.737 L 30.633 669.369 L 32.836 661.959 L 35.112 654.508 L 37.461 647.020 L 39.884 639.496 L 42.379 631.937 L 44.947 624.345 L 47.586 616.723 L 50.297 609.072 L 53.079 601.394 L 55.932 593.691 L 58.854 585.965 L 61.847 578.217 L 64.908 570.451 L 68.038 562.667 L 71.237 554.867 L 74.503 547.054 L 77.836 539.230 L 81.236 531.395 L 84.702 523.553 L 88.234 515.705 L 91.830 507.854 L 95.492 500.000 L 99.217 492.146 L 103.005 484.295 L 106.856 476.447 L 110.769 468.605 L 114.743 460.770 L 118.779 452.946 L 122.874 445.133 L 127.029 437.333 L 131.243 429.549 L 135.516 421.783 L 139.845 414.035 L 144.232 406.309 L 148.675 398.606 L 153.173 390.928 L 157.726 383.277 L 162.334 375.655 L 166.994 368.063 L 171.707 360.504 L 176.472 352.980 L 181.288 345.492 L 186.154 338.041 L 191.070 330.631 L 196.035 323.263 L 201.048 315.938 L 206.107 308.658 L 211.214 301.426 L 216.366 294.243 L 221.562 287.110 L 226.803 280.030 L 232.087 273.005 L 237.413 266.035 L 242.780 259.123 L 248.188 252.271 L 253.636 245.479 L 259.123 238.751 L 264.648 232.087 L 270.210 225.489 L 275.808 218.958 L 281.442 212.497 L 287.110 206.107 L 292.812 199.790 L 298.547 193.546 L 304.313 187.379 L 310.110 181.288 L 315.938 175.276 L 321.794 169.344 L 327.679 163.494 L 333.590 157.726 L 339.528 152.044 L 345.492 146.447 L 351.479 140.937 L 357.490 135.516 L 363.524 130.184 L 369.579 124.944 L 375.655 119.797 L 381.751 114.743 L 387.865 109.785 L 393.996 104.922 L 400.145 100.158 L 406.309 95.492 L 412.488 90.925 L 418.681 86.460 L 424.887 82.096 L 431.105 77.836 L 437.333 73.680 L 443.572 69.629 L 449.819 65.684 L 456.074 61.847 L 462.337 58.117 L 468.605 54.497 L 474.878 50.986 L 481.155 47.586 L 487.435 44.298 L 493.717 41.123 L 500.000 38.060 L 506.283 35.112 L 512.565 32.278 L 518.845 29.560 L 525.122 26.957 L 531.395 24.472 L 537.663 22.103 L 543.926 19.853 L 550.181 17.721 L 556.428 15.708 L 562.667 13.815 L 568.895 12.042 L 575.113 10.389 L 581.319 8.856 L 587.512 7.445 L 593.691 6.156 L 599.855 4.988 L 606.004 3.943 L 612.135 3.020 L 618.249 2.219 L 624.345 1.541 L 630.421 0.987 L 636.476 0.555 L 642.510 0.247 L 648.521 0.062 L 654.508 0.000 L 660.472 0.062 L 666.410 0.247 L 672.321 0.555 L 678.206 0.987 L 684.062 1.541 L 689.890 2.219 L 695.687 3.020 L 701.453 3.943 L 707.188 4.988 L 712.890 6.156 L 718.558 7.445 L 724.192 8.856 L 729.790 10.389 L 735.352 12.042 L 740.877 13.815 L 746.364 15.708 L 751.812 17.721 L 757.220 19.853 L 762.587 22.103 L 767.913 24.472 L 773.197 26.957 L 778.438 29.560 L 783.634 32.278 L 788.786 35.112 L 793.893 38.060 L 798.952 41.123 L 803.965 44.298 L 808.930 47.586 L 813.846 50.986 L 818.712 54.497 L 823.528 58.117 L 828.293 61.847 L 833.006 65.684 L 837.666 69.629 L 842.274 73.680 L 846.827 77.836 L 851.325 82.096 L 855.768 86.460 L 860.155 90.925 L 864.484 95.492 L 868.757 100.158 L 872.971 104.922 L 877.126 109.785 L 881.221 114.743 L 885.257 119.797 L 889.231 124.944 L 893.144 130.184 L 896.995 135.516 L 900.783 140.937 L 904.508 146.447 L 908.170 152.044 L 911.766 157.726 L 915.298 163.494 L 918.764 169.344 L 922.164 175.276 L 925.497 181.288 L 928.763 187.379 L 931.962 193.546 L 935.092 199.790 L 938.153 206.107 L 941.146 212.497 L 944.068 218.958 L 946.921 225.489 L 949.703 232.087 L 952.414 238.751 L 955.053 245.479 L 957.621 252.271 L 960.116 259.123 L 962.539 266.035 L 964.888 273.005 L 967.164 280.030 L 969.367 287.110 L 971.495 294.243 L 973.549 301.426 L 975.528 308.658 L 977.432 315.938 L 979.261 323.263 L 981.014 330.631 L 982.691 338.041 L 984.292 345.492 L 985.816 352.980 L 987.263 360.504 L 988.634 368.063 L 989.928 375.655 L 991.144 383.277 L 992.282 390.928 L 993.343 398.606 L 994.326 406.309 L 995.231 414.035 L 996.057 421.783 L 996.806 429.549 L 997.476 437.333 L 998.067 445.133 L 998.579 452.946 L 999.013 460.770 L 999.368 468.605 L 999.645 476.447 L 999.842 484.295 L 999.961 492.146 L 1000.000 500.000" fill="none" stroke="black" stroke-width="12.0" stroke-linecap="round" stroke-linejoin="round" vector-effect="non-scaling-stroke"/>
</svg>