<svg xmlns="http://www.w3.org/2000/svg" viewBox="-6.000 -6.000 1012.000 1012.000" preserveAspectRatio="xMidYMid meet">
    <path d="M 1000.000 500.000 L 999.961 504.712 L 999.842 509.424 L 999.645 514.135 L 999.368 518.845 L 999.013 523.553 L 998.579 528.259 L 998.067 532.963 L 997.476 537.663 L 996.806 542.361 L 996.057 547.054 L 995.231 551.743 L 994.326 556.428 L 993.343 561.108 L 992.282 565.782 L 991.144 570.451 L 989.928 575.113 L 988.634 579.768 L 987.263 584.417 L 985.816 589.058 L 984.292 593.691 L 982.691 598.315 L 981.014 602.931 L 979.261 607.538 L 977.432 612.135 L 975.528 616.723 L 973.549 621.300 L 971.495 625.866 L 969.367 630.421 L 967.164 634.964 L 964.888 639.496 L 962.539 644.015 L 960.116 648.521 L 957.621 653.014 L 955.053 657.493 L 952.414 661.959 L 949.703 666.410 L 946.921 670.846 L 944.068 675.267 L 941.146 679.673 L 938.153 684.062 L 935.092 688.436 L 931.962 692.792 L 928.763 697.131 L 925.497 701.453 L 922.164 705.757 L 918.764 710.043 L 915.298 714.310 L 911.766 718.558 L 908.170 722.786 L 904.508 726.995 L 900.783 731.184 L 896.995 735.352 L 893.144 739.499 L 889.231 743.625 L 885.257 747.729 L 881.221 751.812 L 877.126 755.872 L 872.971 759.909 L 868.757 763.923 L 864.484 767.913 L 860.155 771.880 L 855.768 775.823 L 851.325 779.741 L 846.827 783.634 L 842.274 787.503 L 837.666 791.345 L 833.006 795.162 L 828.293 798.952 L 823.528 802.716 L 818.712 806.454 L 813.846 810.163 L 808.930 813.846 L 803.965 817.500 L 798.952 821.126 L 793.893 824.724 L 788.786 828.293 L 783.634 831.833 L 778.438 835.343 L 773.197 838.823 L 767.913 842.274 L 762.587 845.693 L 757.220 849.083 L 751.812 852.441 L 746.364 855.768 L 740.877 859.063 L 735.352 862.327 L 729.790 865.558 L 724.192 868.757 L 718.558 871.923 L 712.890 875.056 L 707.188 878.155 L 701.453 881.221 L 695.687 884.253 L 689.890 887.252 L 684.062 890.215 L 678.206 893.144 L 672.321 896.038 L 666.410 898.897 L 660.472 901.721 L 654.508 904.508 L 648.521 907.260 L 642.510 909.976 L 636.476 912.655 L 630.421 915.298 L 624.345 917.904 L 618.249 920.472 L 612.135 923.004 L 606.004 925.497 L 599.855 927.953 L 593.691 930.371 L 587.512 932.751 L 581.319 935.092 L 575.113 937.394 L 568.895 939.658 L 562.667 941.883 L 556.428 944.068 L 550.181 946.214 L 543.926 948.321 L 537.663 950.387 L 531.395 952.414 L 525.122 954.400 L 518.845 956.346 L 512.565 958.251 L 506.283 960.116 L 500.000 961.940 L 493.717 963.723 L 487.435 965.464 L 481.155 967.164 L 474.878 968.823 L 468.605 970.440 L 462.337 972.016 L 456.074 973.549 L 449.819 975.041 L 443.572 976.490 L 437.333 977.897 L 431.105 979.261 L 424.887 980.583 L 418.681 981.862 L 412.488 983.098 L 406.309 984.292 L 400.145 985.442 L 393.996 986.549 L 387.865 987.613 L 381.751 988.634 L 375.655 989.611 L 369.579 990.545 L 363.524 991.436 L 357.490 992.282 L 351.479 993.085 L 345.492 993.844 L 339.528 994.559 L 333.590 995.231 L 327.679 995.858 L 321.794 996.441 L 315.938 996.980 L 310.110 997.476 L 304.313 997.926 L 298.547 998.333 L 292.812 998.695 L 287.110 999.013 L 281.442 999.287 L 275.808 999.516 L 270.210 999.701 L 264.648 999.842 L 259.123 999.938 L 253.636 999.990 L 248.188 999.998 L 242.780 999.961 L 237.413 999.879 L 232.087 999.753 L 226.803 999.583 L 221.562 999.368 L 216.366 999.110 L 211.214 998.806 L 206.107 998.459 L 201.048 998.067 L 196.035 997.631 L 191.070 997.150 L 186.154 996.626 L 181.288 996.057 L 176.472 995.445 L 171.707 994.788 L 166.994 994.087 L 162.334 993.343 L 157.726 992.555 L 153.173 991.723 L 148.675 990.847 L 144.232 989.928 L 139.845 988.965 L 135.516 987.958 L 131.243 986.909 L 127.029 985.816 L 122.874 984.680 L 118.779 983.501 L 114.743 982.279 L 110.769 981.014 L 106.856 979.706 L 103.005 978.356 L 99.217 976.963 L 95.492 975.528 L 91.830 974.051 L 88.234 972.532 L 84.702 970.970 L 81.236 969.367 L 77.836 967.722 L 74.503 966.036 L 71.237 964.308 L 68.038 962.539 L 64.908 960.728 L 61.847 958.877 L 58.854 956.985 L 55.932 955.053 L 53.079 953.080 L 50.297 951.067 L 47.586 949.014 L 44.947 946.921 L 42.379 944.788 L 39.884 942.616 L 37.461 940.404 L 35.112 938.153 L 32.836 935.864 L 30.633 933.535 L 28.505 931.168 L 26.451 928.763 L 24.472 926.320 L 22.568 923.839 L 20.739 921.320 L 18.986 918.764 L 17.309 916.171 L 15.708 913.540 L 14.184 910.873 L 12.737 908.170 L 11.366 905.430 L 10.072 902.654 L 8.856 899.842 L 7.718 896.995 L 6.657 894.113 L 5.674 891.195 L 4.769 888.243 L 3.943 885.257 L 3.194 882.236 L 2.524 879.181 L 1.933 876.092 L 1.421 872.971 L 0.987 869.816 L 0.632 866.628 L 0.355 863.407 L 0.158 860.155 L 0.039 856.870 L 0.000 853.553 L 0.039 850.206 L 0.158 846.827 L 0.355 843.417 L 0.632 839.977 L 0.987 836.506 L 1.421 833.006 L 1.933 829.476 L 2.524 825.917 L 3.194 822.329 L 3.943 818.712 L 4.769 815.067 L 5.674 811.394 L 6.657 807.693 L 7.718 803.965 L 8.856 800.210 L 10.072 796.428 L 11.366 792.620 L 12.737 788.786 L 14.184 784.927 L 15.708 781.042 L 17.309 777.132 L 18.986 773.197 L 20.739 769.238 L 22.568 765.256 L 24.472 761.249 L 26.451 757.220 L 28.505 753.167 L 30.633 749.093 L 32.836 744.996 L 35.112 740.877 L 37.461 736.737 L 39.884 732.576 L 42.379 728.394 L 44.947 724.192 L 47.586 719.970 L 50.297 715.728 L 53.079 711.467 L 55.932 707.188 L 58.854 702.890 L 61.847 698.574 L 64.908 694.240 L 68.038 689.890 L 71.237 685.522 L 74.503 681.138 L 77.836 676.737 L 81.236 672.321 L 84.702 667.890 L 88.234 663.444 L 91.830 658.983 L 95.492 654.508 L 99.217 650.020 L 103.005 645.518 L 106.856 641.003 L 110.769 636.476 L 114.743 631.937 L 118.779 627.385 L 122.874 622.823 L 127.029 618.249 L 131.243 613.666 L 135.516 609.072 L 139.845 604.468 L 144.232 599.855 L 148.675 595.233 L 153.173 590.603 L 157.726 585.965 L 162.334 581.319 L 166.994 576.665 L 171.707 572.005 L 176.472 567.339 L 181.288 562.667 L 186.154 557.989 L 191.070 553.306 L 196.035 548.618 L 201.048 543.926 L 206.107 539.230 L 211.214 534.530 L 216.366 529.827 L 221.562 525.122 L 226.803 520.415 L 232.087 515.705 L 237.413 510.995 L 242.780 506.283 L 248.188 501.571 L 253.636 496.858 L 259.123 492.146 L 264.648 487.435 L 270.210 482.725 L 275.808 478.016 L 281.442 473.309 L 287.110 468.605 L 292.812 463.903 L 298.547 459.205 L 304.313 454.510 L 310.110 449.819 L 315.938 445.133 L 321.794 440.451 L 327.679 435.775 L 333.590 431.105 L 339.528 426.441 L 345.492 421.783 L 351.479 417.132 L 357.490 412.488 L 363.524 407.853 L 369.579 403.225 L 375.655 398.606 L 381.751 393.996 L 387.865 389.396 L 393.996 384.805 L 400.145 380.225 L 406.309 375.655 L 412.488 371.096 L 418.681 366.549 L 424.887 362.014 L 431.105 357.490 L 437.333 352.980 L 443.572 348.482 L 449.819 343.998 L 456.074 339.528 L 462.337 335.072 L 468.605 330.631 L 474.878 326.205 L 481.155 321.794 L 487.435 317.399 L 493.717 313.020 L 500.000 308.658 L 506.283 304.313 L 512.565 299.985 L 518.845 295.675 L 525.122 291.384 L 531.395 287.110 L 537.663 282.856 L 543.926 278.621 L 550.181 274.405 L 556.428 270.210 L 562.667 266.035 L 568.895 261.881 L 575.113 257.748 L 581.319 253.636 L 587.512 249.547 L 593.691 245.479 L 599.855 241.435 L 606.004 237.413 L 612.135 233.414 L 618.249 229.439 L 624.345 225.489 L 630.421 221.562 L 636.476 217.661 L 642.510 213.784 L 648.521 209.933 L 654.508 206.107 L 660.472 202.308 L 666.410 198.535 L 672.321 194.789 L 678.206 191.070 L 684.062 187.379 L 689.890 183.715 L 695.687 180.079 L 701.453 176.472 L 707.188 172.894 L 712.890 169.344 L 718.558 165.824 L 724.192 162.334 L 729.790 158.873 L 735.352 155.443 L 740.877 152.044 L 746.364 148.675 L 751.812 145.338 L 757.220 142.032 L 762.587 138.758 L 767.913 135.516 L 773.197 132.306 L 778.438 129.129 L 783.634 125.985 L 788.786 122.874 L 793.893 119.797 L 798.952 116.753 L 803.965 113.744 L 808.930 110.769 L 813.846 107.828 L 818.712 104.922 L 823.528 102.052 L 828.293 99.217 L 833.006 96.417 L 837.666 93.653 L 842.274 90.925 L 846.827 88.234 L 851.325 85.579 L 855.768 82.961 L 860.155 80.380 L 864.484 77.836 L 868.757 75.330 L 872.971 72.861 L 877.126 70.431 L 881.221 68.038 L 885.257 65.684 L 889.231 63.369 L 893.144 61.092 L 896.995 58.854 L 900.783 56.656 L 904.508 54.497 L 908.170 52.377 L 911.766 50.297 L 915.298 48.258 L 918.764 46.258 L 922.164 44.298 L 925.497 42.379 L 928.763 40.501 L 931.962 38.664 L 935.092 36.867 L 938.153 35.112 L 941.146 33.398 L 944.068 31.725 L 946.921 30.094 L 949.703 28.505 L 952.414 26.957 L 955.053 25.452 L 957.621 23.989 L 960.116 22.568 L 962.539 21.189 L 964.888 19.853 L 967.164 18.560 L 969.367 17.309 L 971.495 16.101 L 973.549 14.937 L 975.528 13.815 L 977.432 12.737 L 979.261 11.701 L 981.014 10.710 L 982.691 9.761 L 984.292 8.856 L 985.816 7.995 L 987.263 7.178 L 988.634 6.404 L 989.928 5.674 L 991.144 4.988 L 992.282 4.346 L 993.343 3.748 L 994.326 3.194 L 995.231 2.685 L 996.057 2.219 L 996.806 1.798 L 997.476 1.421 L 998.067 1.088 L 998.579 0.799 L 999.013 0.555 L 999.368 0.355 L 999.645 0.200 L 999.842 0.089 L 999.961 0.022 L 1000.000 0.000 L 999.961 0.022 L 999.842 0.089 L 999.645 0.200 L 999.368 0.355 L 999.013 0.555 L 998.579 0.799 L 998.067 1.088 L 997.476 1.421 L 996.806 1.798 L 996.057 2.219 L 995.231 2.685 L 994.326 3.194 L 993.343 3.748 L 992.282 4.346 L 991.144 4.988 L 989.928 5.674 L 988.634 6.404 L 987.263 7.178 L 985.816 7.995 L 984.292 8.856 L 982.691 9.761 L 981.014 10.710 L 979.261 11.701 L 977.432 12.737 L 975.528 13.815 L 973.549 14.937 L 971.495 16.101 L 969.367 17.309 L 967.164 18.560 L 964.888 19.853 L 962.539 21.189 L 960.116 22.568 L 957.621 23.989 L 955.053 25.452 L 952.414 26.957 L 949.703 28.505 L 946.921 30.094 L 944.068 31.725 L 941.146 33.398 L 938.153 35.112 L 935.092 36.867 L 931.962 38.664 L 928.763 40.501 L 925.497 42.379 L 922.164 44.298 L 918.764 46.258 L 915.298 48.258 L 911.766 50.297 L 908.170 52.377 L 904.508 54.497 L 900.783 56.656 L 896.995 58.854 L 893.144 61.092 L 889.231 63.369 L 885.257 65.684 L 881.221 68.038 L 877.126 70.431 L 872.971 72.861 L 868.757 75.330 L 864.484 77.836 L 860.155 80.380 L 855.768 82.961 L 851.325 85.579 L 846.827 88.234 L 842.274 90.925 L 837.666 93.653 L 833.006 96.417 L 828.293 99.217 L 823.528 102.052 L 818.712 104.922 L 813.846 107.828 L 808.930 110.769 L 803.965 113.744 L 798.952 116.753 L 793.893 119.797 L 788.786 122.874 L 783.634 125.985 L 778.438 129.129 L 773.197 132.306 L 767.913 135.516 L 762.587 138.758 L 757.220 142.032 L 751.812 145.338 L 746.364 148.675 L 740.877 152.044 L 735.352 155.443 L 729.790 158.873 L 724.192 162.334 L 718.558 165.824 L 712.890 169.344 L 707.188 172.894 L 701.453 176.472 L 695.687 180.079 L 689.890 183.715 L 684.062 187.379 L 678.206 191.070 L 672.321 194.789 L 666.410 198.535 L 660.472 202.308 L 654.508 206.107 L 648.521 209.933 L 642.510 213.784 L 636.476 217.661 L 630.421 221.562 L 624.345 225.489 L 618.249 229.439 L 612.135 233.414 L 606.004 237.413 L 599.855 241.435 L 593.691 245.479 L 587.512 249.547 L 581.319 253.636 L 575.113 257.748 L 568.895 261.881 L 562.667 266.035 L 556.428 270.210 L 550.181 274.405 L 543.926 278.621 L 537.663 282.856 L 531.395 287.110 L 525.122 291.384 L 518.845 295.675 L 512.565 299.985 L 506.283 304.313 L 500.000 308.658 L 493.717 313.020 L 487.435 317.399 L 481.155 321.794 L 474.878 326.205 L 468.605 330.631 L 462.337 335.072 L 456.074 339.528 L 449.819 343.998 L 443.572 348.482 L 437.333 352.980 L 431.105 357.490 L 424.887 362.014 L 418.681 366.549 L 412.488 371.096 L 406.309 375.655 L 400.145 380.225 L 393.996 384.805 L 387.865 389.396 L 381.751 393.996 L 375.655 398.606 L 369.579 403.225 L 363.524 407.853 L 357.490 412.488 L 351.479 417.132 L 345.492 421.783 L 339.528 426.441 L 333.590 431.105 L 327.679 435.775 L 321.794 440.451 L 315.938 445.133 L 310.110 449.819 L 304.313 454.510 L 298.547 459.205 L 292.812 463.903 L 287.110 468.605 L 281.442 473.309 L 275.808 478.016 L 270.210 482.725 L 264.648 487.435 L 259.123 492.146 L 253.636 496.858 L 248.188 501.571 L 242.780 506.283 L 237.413 510.995 L 232.087 515.705 L 226.803 520.415 L 221.562 525.122 L 216.366 529.827 L 211.214 534.530 L 206.107 539.230 L 201.048 543.926 L 196.035 548.618 L 191.070 553.306 L 186.154 557.989 L 181.288 562.667 L 176.472 567.339 L 171.707 572.005 L 166.994 576.665 L 162.334 581.319 L 157.726 585.965 L 153.173 590.603 L 148.675 595.233 L 144.232 599.855 L 139.845 604.468 L 135.516 609.072 L 131.243 613.666 L 127.029 618.249 L 122.874 622.823 L 118.779 627.385 L 114.743 631.937 L 110.769 636.476 L 106.856 641.003 L 103.005 645.518 L 99.217 650.020 L 95.492 654.508 L 91.830 658.983 L 88.234 663.444 L 84.702 667.890 L 81.236 672.321 L 77.836 676.737 L 74.503 681.138 L 71.237 685.522 L 68.038 689.890 L 64.908 694.240 L 61.847 698.574 L 58.854 702.890 L 55.932 707.188 L 53.079 711.467 L 50.297 715.728 L 47.586 719.970 L 44.947 724.192 L 42.379 728.394 L 39.884 732.576 L 37.461 736.737 L 35.112 740.877 L 32.836 744.996 L 30.633 749.093 L 28.505 753.167 L 26.451 757.220 L 24.472 761.249 L 22.568 765.256 L 20.739 769.238 L 18.986 773.197 L 17.309 777.132 L 15.708 781.042 L 14.184 784.927 L 12.737 788.786 L 11.366 792.620 L 10.072 796.428 L 8.856 800.210 L 7.718 803.965 L 6.657 807.693 L 5.674 811.394 L 4.769 815.067 L 3.943 818.712 L 3.194 822.329 L 2.524 825.917 L 1.933 829.476 L 1.421 833.006 L 0.987 836.506 L 0.632 839.977 L 0.355 843.417 L 0.158 846.827 L 0.039 850.206 L 0.000 853.553 L 0.039 856.870 L 0.158 860.155 L 0.355 863.407 L 0.632 866.628 L 0.987 869.816 L 1.421 872.971 L 1.933 876.092 L 2.524 879.181 L 3.194 882.236 L 3.943 885.257 L 4.769 888.243 L 5.674 891.195 L 6.657 894.113 L 7.718 896.995 L 8.856 899.842 L 10.072 902.654 L 11.366 905.430 L 12.737 908.170 L 14.184 910.873 L 15.708 913.540 L 17.309 916.171 L 18.986 918.764 L 20.739 921.320 L 22.568 923.839 L 24.472 926.320 L 26.451 928.763 L 28.505 931.168 L 30.633 933.535 L 32.836 935.864 L 35.112 938.153 L 37.461 940.404 L 39.884 942.616 L 42.379 944.788 L 44.947 946.921 L 47.586 949.014 L 50.297 951.067 L 53.079 953.080 L 55.932 955.053 L 58.854 956.985 L 61.847 958.877 L 64.908 960.728 L 68.038 962.539 L 71.237 964.308 L 74.503 966.036 L 77.836 967.722 L 81.236 969.367 L 84.702 970.970 L 88.234 972.532 L 91.830 974.051 L 95.492 975.528 L 99.217 976.963 L 103.005 978.356 L 106.856 979.706 L 110.769 981.014 L 114.743 982.279 L 118.779 983.501 L 122.874 984.680 L 127.029 985.816 L 131.243 986.909 L 135.516 987.958 L 139.845 988.965 L 144.232 989.928 L 148.675 990.847 L 153.173 991.723 L 157.726 992.555 L 162.334 993.343 L 166.994 994.087 L 171.707 994.788 L 176.472 995.445 L 181.288 996.057 L 186.154 996.626 L 191.070 997.150 L 196.035 997.631 L 201.048 998.067 L 206.107 998.459 L 211.214 998.806 L 216.366 999.110 L 221.562 999.368 L 226.803 999.583 L 232.087 999.753 L 237.413 999.879 L 242.780 999.961 L 248.188 999.998 L 253.636 999.990 L 259.123 999.938 L 264.648 999.842 L 270.210 999.701 L 275.808 999.516 L 281.442 999.287 L 287.110 999.013 L 292.812 998.695 L 298.547 998.333 L 304.313 997.926 L 310.110 997.476 L 315.938 996.980 L 321.794 996.441 L 327.679 995.858 L 333.590 995.231 L 339.528 994.559 L 345.492 993.844 L 351.479 993.085 L 357.490 992.282 L 363.524 991.436 L 369.579 990.545 L 375.655 989.611 L 381.751 988.634 L 387.865 987.613 L 393.996 986.549 L 400.145 985.442 L 406.309 984.292 L 412.488 983.098 L 418.681 981.862 L 424.887 980.583 L 431.105 979.261 L 437.333 977.897 L 443.572 976.490 L 449.819 975.041 L 456.074 973.549 L 462.337 972.016 L 468.605 970.440 L 474.878 968.823 L 481.155 967.164 L 487.435 965.464 L 493.717 963.723 L 500.000 961.940 L 506.283 960.116 L 512.565 958.251 L 518.845 956.346 L 525.122 954.400 L 531.395 952.414 L 537.663 950.387 L 543.926 948.321 L 550.181 946.214 L 556.428 944.068 L 562.667 941.883 L 568.895 939.658 L 575.113 937.394 L 581.319 935.092 L 587.512 932.751 L 593.691 930.371 L 599.855 927.953 L 606.004 925.497 L 612.135 923.004 L 618.249 920.472 L 624.345 917.904 L 630.421 915.298 L 636.476 912.655 L 642.510 909.976 L 648.521 907.260 L 654.508 904.508 L 660.472 901.721 L 666.410 898.897 L 672.321 896.038 L 678.206 893.144 L 684.062 890.215 L 689.890 887.252 L 695.687 884.253 L 701.453 881.221 L 707.188 878.155 L 712.890 875.056 L 718.558 871.923 L 724.192 868.757 L 729.790 865.558 L 735.352 862.327 L 740.877 859.063 L 746.364 855.768 L 751.812 852.441 L 757.220 849.083 L 762.587 845.693 L 767.913 842.274 L 773.197 838.823 L 778.438 835.343 L 783.634 831.833 L 788.786 828.293 L 793.893 824.724 L 798.952 821.126 L 803.965 817.500 L 808.930 813.846 L 813.846 810.163 L 818.712 806.454 L 823.528 802.716 L 828.293 798.952 L 833.006 795.162 L 837.666 791.345 L 842.274 787.503 L 846.827 783.634 L 851.325 779.741 L 855.768 775.823 L 860.155 771.880 L 864.484 767.913 L 868.757 763.923 L 872.971 759.909 L 877.126 755.872 L 881.221 751.812 L 885.257 747.729 L 889.231 743.625 L 893.144 739.499 L 896.995 735.352 L 900.783 731.184 L 904.508 726.995 L 908.170 722.786 L 911.766 718.558 L 915.298 714.310 L 918.764 710.043 L 922.164 705.757 L 925.497 701.453 L 928.763 697.131 L 931.962 692.792 L 935.092 688.436 L 938.153 684.062 L 941.146 679.673 L 944.068 675.267 L 946.921 670.846 L 949.703 666.410 L 952.414 661.959 L 955.053 657.493 L 957.621 653.014 L 960.116 648.521 L 962.539 644.015 L 964.888 639.496 L 967.164 634.964 L 969.367 630.421 L 971.495 625.866 L 973.549 621.300 L 975.528 616.723 L 977.432 612.135 L 979.261 607.538 L 981.014 602.931 L 982.691 598.315 L 984.292 593.691 L 985.816 589.058 L 987.263 584.417 L 988.634 579.768 L 989.928 575.113 L 991.144 570.451 L 992.282 565.782 L 993.343 561.108 L 994.326 556.428 L 995.231 551.743 L 996.057 547.054 L 996.806 542.361 L 997.476 537.663 L 998.067 532.963 L 998.579 528.259 L 999.013 523.553 L 999.368 518.845 L 999.645 514.135 L 999.842 509.424 L 999.961 504.712 L 1000.000 500.000 L 999.961 495.288 L 999.842 490.576 L 999.645 485.865 L 999.368 481.155 L 999.013 476.447 L 998.579 471.741 L 998.067 467.037 L 997.476 462.337 L 996.806 457.639 L 996.057 452.946 L 995.231 448.257 L 994.326 443.572 L 993.343 438.892 L 992.282 434.218 L 991.144 429.549 L 989.928 424.887 L 988.634 420.232 L 987.263 415.583 L 985.816 410.942 L 984.292 406.309 L 982.691 401.685 L 981.014 397.069 L 979.261 392.462 L 977.432 387.865 L 975.528 383.277 L 973.549 378.700 L 971.495 374.134 L 969.367 369.579 L 967.164 365.036 L 964.888 360.504 L 962.539 355.985 L 960.116 351.479 L 957.621 346.986 L 955.053 342.507 L 952.414 338.041 L 949.703 333.590 L 946.921 329.154 L 944.068 324.733 L 941.146 320.327 L 938.153 315.938 L 935.092 311.564 L 931.962 307.208 L 928.763 302.869 L 925.497 298.547 L 922.164 294.243 L 918.764 289.957 L 915.298 285.690 L 911.766 281.442 L 908.170 277.214 L 904.508 273.005 L 900.783 268.816 L 896.995 264.648 L 893.144 260.501 L 889.231 256.375 L 885.257 252.271 L 881.221 248.188 L 877.126 244.128 L 872.971 240.091 L 868.757 236.077 L 864.484 232.087 L 860.155 228.120 L 855.768 224.177 L 851.325 220.259 L 846.827 216.366 L 842.274 212.497 L 837.666 208.655 L 833.006 204.838 L 828.293 201.048 L 823.528 197.284 L 818.712 193.546 L 813.846 189.837 L 808.930 186.154 L 803.965 182.500 L 798.952 178.874 L 793.893 175.276 L 788.786 171.707 L 783.634 168.167 L 778.438 164.657 L 773.197 161.177 L 767.913 157.726 L 762.587 154.307 L 757.220 150.917 L 751.812 147.559 L 746.364 144.232 L 740.877 140.937 L 735.352 137.673 L 729.790 134.442 L 724.192 131.243 L 718.558 128.077 L 712.890 124.944 L 707.188 121.845 L 701.453 118.779 L 695.687 115.747 L 689.890 112.748 L 684.062 109.785 L 678.206 106.856 L 672.321 103.962 L 666.410 101.103 L 660.472 98.279 L 654.508 95.492 L 648.521 92.740 L 642.510 90.024 L 636.476 87.345 L 630.421 84.702 L 624.345 82.096 L 618.249 79.528 L 612.135 76.996 L 606.004 74.503 L 599.855 72.047 L 593.691 69.629 L 587.512 67.249 L 581.319 64.908 L 575.113 62.606 L 568.895 60.342 L 562.667 58.117 L 556.428 55.932 L 550.181 53.786 L 543.926 51.679 L 537.663 49.613 L 531.395 47.586 L 525.122 45.600 L 518.845 43.654 L 512.565 41.749 L 506.283 39.884 L 500.000 38.060 L 493.717 36.277 L 487.435 34.536 L 481.155 32.836 L 474.878 31.177 L 468.605 29.560 L 462.337 27.984 L 456.074 26.451 L 449.819 24.959 L 443.572 23.510 L 437.333 22.103 L 431.105 20.739 L 424.887 19.417 L 418.681 18.138 L 412.488 16.902 L 406.309 15.708 L 400.145 14.558 L 393.996 13.451 L 387.865 12.387 L 381.751 11.366 L 375.655 10.389 L 369.579 9.455 L 363.524 8.564 L 357.490 7.718 L 351.479 6.915 L 345.492 6.156 L 339.528 5.441 L 333.590 4.769 L 327.679 4.142 L 321.794 3.559 L 315.938 3.020 L 310.110 2.524 L 304.313 2.074 L 298.547 1.667 L 292.812 1.305 L 287.110 0.987 L 281.442 0.713 L 275.808 0.484 L 270.210 0.299 L 264.648 0.158 L 259.123 0.062 L 253.636 0.010 L 248.188 0.002 L 242.780 0.039 L 237.413 0.121 L 232.087 0.247 L 226.803 0.417 L 221.562 0.632 L 216.366 0.890 L 211.214 1.194 L 206.107 1.541 L 201.048 1.933 L 196.035 2.369 L 191.070 2.850 L 186.154 3.374 L 181.288 3.943 L 176.472 4.555 L 171.707 5.212 L 166.994 5.913 L 162.334 6.657 L 157.726 7.445 L 153.173 8.277 L 148.675 9.153 L 144.232 10.072 L 139.845 11.035 L 135.516 12.042 L 131.243 13.091 L 127.029 14.184 L 122.874 15.320 L 118.779 16.499 L 114.743 17.721 L 110.769 18.986 L 106.856 20.294 L 103.005 21.644 L 99.217 23.037 L 95.492 24.472 L 91.830 25.949 L 88.234 27.468 L 84.702 29.030 L 81.236 30.633 L 77.836 32.278 L 74.503 33.964 L 71.237 35.692 L 68.038 37.461 L 64.908 39.272 L 61.847 41.123 L 58.854 43.015 L 55.932 44.947 L 53.079 46.920 L 50.297 48.933 L 47.586 50.986 L 44.947 53.079 L 42.379 55.212 L 39.884 57.384 L 37.461 59.596 L 35.112 61.847 L 32.836 64.136 L 30.633 66.465 L 28.505 68.832 L 26.451 71.237 L 24.472 73.680 L 22.568 76.161 L 20.739 78.680 L 18.986 81.236 L 17.309 83.829 L 15.708 86.460 L 14.184 89.127 L 12.737 91.830 L 11.366 94.570 L 10.072 97.346 L 8.856 100.158 L 7.718 103.005 L 6.657 105.887 L 5.674 108.805 L 4.769 111.757 L 3.943 114.743 L 3.194 117.764 L 2.524 120.819 L 1.933 123.908 L 1.421 127.029 L 0.987 130.184 L 0.632 133.372 L 0.355 136.593 L 0.158 139.845 L 0.039 143.130 L 0.000 146.447 L 0.039 149.794 L 0.158 153.173 L 0.355 156.583 L 0.632 160.023 L 0.987 163.494 L 1.421 166.994 L 1.933 170.524 L 2.524 174.083 L 3.194 177.671 L 3.943 181.288 L 4.769 184.933 L 5.674 188.606 L 6.657 192.307 L 7.718 196.035 L 8.856 199.790 L 10.072 203.572 L 11.366 207.380 L 12.737 211.214 L 14.184 215.073 L 15.708 218.958 L 17.309 222.868 L 18.986 226.803 L 20.739 230.762 L 22.568 234.744 L 24.472 238.751 L 26.451 242.780 L 28.505 246.833 L 30.633 250.907 L 32.836 255.004 L 35.112 259.123 L 37.461 263.263 L 39.884 267.424 L 42.379 271.606 L 44.947 275.808 L 47.586 280.030 L 50.297 284.272 L 53.079 288.533 L 55.932 292.812 L 58.854 297.110 L 61.847 301.426 L 64.908 305.760 L 68.038 310.110 L 71.237 314.478 L 74.503 318.862 L 77.836 323.263 L 81.236 327.679 L 84.702 332.110 L 88.234 336.556 L 91.830 341.017 L 95.492 345.492 L 99.217 349.980 L 103.005 354.482 L 106.856 358.997 L 110.769 363.524 L 114.743 368.063 L 118.779 372.615 L 122.874 377.177 L 127.029 381.751 L 131.243 386.334 L 135.516 390.928 L 139.845 395.532 L 144.232 400.145 L 148.675 404.767 L 153.173 409.397 L 157.726 414.035 L 162.334 418.681 L 166.994 423.335 L 171.707 427.995 L 176.472 432.661 L 181.288 437.333 L 186.154 442.011 L 191.070 446.694 L 196.035 451.382 L 201.048 456.074 L 206.107 460.770 L 211.214 465.470 L 216.366 470.173 L 221.562 474.878 L 226.803 479.585 L 232.087 484.295 L 237.413 489.005 L 242.780 493.717 L 248.188 498.429 L 253.636 503.142 L 259.123 507.854 L 264.648 512.565 L 270.210 517.275 L 275.808 521.984 L 281.442 526.691 L 287.110 531.395 L 292.812 536.097 L 298.547 540.795 L 304.313 545.490 L 310.110 550.181 L 315.938 554.867 L 321.794 559.549 L 327.679 564.225 L 333.590 568.895 L 339.528 573.559 L 345.492 578.217 L 351.479 582.868 L 357.490 587.512 L 363.524 592.147 L 369.579 596.775 L 375.655 601.394 L 381.751 606.004 L 387.865 610.604 L 393.996 615.195 L 400.145 619.775 L 406.309 624.345 L 412.488 628.904 L 418.681 633.451 L 424.887 637.986 L 431.105 642.510 L 437.333 647.020 L 443.572 651.518 L 449.819 656.002 L 456.074 660.472 L 462.337 664.928 L 468.605 669.369 L 474.878 673.795 L 481.155 678.206 L 487.435 682.601 L 493.717 686.980 L 500.000 691.342 L 506.283 695.687 L 512.565 700.015 L 518.845 704.325 L 525.122 708.616 L 531.395 712.890 L 537.663 717.144 L 543.926 721.379 L 550.181 725.595 L 556.428 729.790 L 562.667 733.965 L 568.895 738.119 L 575.113 742.252 L 581.319 746.364 L 587.512 750.453 L 593.691 754.521 L 599.855 758.565 L 606.004 762.587 L 612.135 766.586 L 618.249 770.561 L 624.345 774.511 L 630.421 778.438 L 636.476 782.339 L 642.510 786.216 L 648.521 790.067 L 654.508 793.893 L 660.472 797.692 L 666.410 801.465 L 672.321 805.211 L 678.206 808.930 L 684.062 812.621 L 689.890 816.285 L 695.687 819.921 L 701.453 823.528 L 707.188 827.106 L 712.890 830.656 L 718.558 834.176 L 724.192 837.666 L 729.790 841.127 L 735.352 844.557 L 740.877 847.956 L 746.364 851.325 L 751.812 854.662 L 757.220 857.968 L 762.587 861.242 L 767.913 864.484 L 773.197 867.694 L 778.438 870.871 L 783.634 874.015 L 788.786 877.126 L 793.893 880.203 L 798.952 883.247 L 803.965 886.256 L 808.930 889.231 L 813.846 892.172 L 818.712 895.078 L 823.528 897.948 L 828.293 900.783 L 833.006 903.583 L 837.666 906.347 L 842.274 909.075 L 846.827 911.766 L 851.325 914.421 L 855.768 917.039 L 860.155 919.620 L 864.484 922.164 L 868.757 924.670 L 872.971 927.139 L 877.126 929.569 L 881.221 931.962 L 885.257 934.316 L 889.231 936.631 L 893.144 938.908 L 896.995 941.146 L 900.783 943.344 L 904.508 945.503 L 908.170 947.623 L 911.766 949.703 L 915.298 951.742 L 918.764 953.742 L 922.164 955.702 L 925.497 957.621 L 928.763 959.499 L 931.962 961.336 L 935.092 963.133 L 938.153 964.888 L 941.146 966.602 L 944.068 968.275 L 946.921 969.906 L 949.703 971.495 L 952.414 973.043 L 955.053 974.548 L 957.621 976.011 L 960.116 977.432 L 962.539 978.811 L 964.888 980.147 L 967.164 981.440 L 969.367 982.691 L 971.495 983.899 L 973.549 985.063 L 975.528 986.185 L 977.432 987.263 L 979.261 988.299 L 981.014 989.290 L 982.691 990.239 L 984.292 991.144 L 985.816 992.005 L 987.263 992.822 L 988.634 993.596 L 989.928 994.326 L 991.144 995.012 L 992.282 995.654 L 993.343 996.252 L 994.326 996.806 L 995.231 997.315 L 996.057 997.781 L 996.806 998.202 L 997.476 998.579 L 998.067 998.912 L 998.579 999.201 L 999.013 999.445 L 999.368 999.645 L 999.645 999.800 L 999.842 999.911 L 999.961 999.978 L 1000.000 1000.000 L 999.961 999.978 L 999.842 999.911 L 999.645 999.800 L 999.368 999.645 L 999.013 999.445 L 998.579 999.201 L 998.067 998.912 L 997.476 998.579 L 996.806 998.202 L 996.057 997.781 L 995.231 997.315 L 994.326 996.806 L 993.343 996.252 L 992.282 995.654 L 991.144 995.012 L 989.928 994.326 L 988.634 993.596 L 987.263 992.822 L 985.816 992.005 L 984.292 991.144 L 982.691 990.239 L 981.014 989.290 L 979.261 988.299 L 977.432 987.263 L 975.528 986.185 L 973.549 985.063 L 971.495 983.899 L 969.367 982.691 L 967.164 981.440 L 964.888 980.147 L 962.539 978.811 L 960.116 977.432 L 957.621 976.011 L 955.053 974.548 L 952.414 973.043 L 949.703 971.495 L 946.921 969.906 L 944.068 968.275 L 941.146 966.602 L 938.153 964.888 L 935.092 963.133 L 931.962 961.336 L 928.763 959.499 L 925.497 957.621 L 922.164 955.702 L 918.764 953.742 L 915.298 951.742 L 911.766 949.703 L 908.170 947.623 L 904.508 945.503 L 900.783 943.344 L 896.995 941.146 L 893.144 938.908 L 889.231 936.631 L 885.257 934.316 L 881.221 931.962 L 877.126 929.569 L 872.971 927.139 L 868.757 924.670 L 864.484 922.164 L 860.155 919.620 L 855.768 917.039 L 851.325 914.421 L 846.827 911.766 L 842.274 909.075 L 837.666 906.347 L 833.006 903.583 L 828.293 900.783 L 823.528 897.948 L 818.712 895.078 L 813.846 892.172 L 808.930 889.231 L 803.965 886.256 L 798.952 883.247 L 793.893 880.203 L 788.786 877.126 L 783.634 874.015 L 778.438 870.871 L 773.197 867.694 L 767.913 864.484 L 762.587 861.242 L 757.220 857.968 L 751.812 854.662 L 746.364 851.325 L 740.877 847.956 L 735.352 844.557 L 729.790 841.127 L 724.192 837.666 L 718.558 834.176 L 712.890 830.656 L 707.188 827.106 L 701.453 823.528 L 695.687 819.921 L 689.890 816.285 L 684.062 812.621 L 678.206 808.930 L 672.321 805.211 L 666.410 801.465 L 660.472 797.692 L 654.508 793.893 L 648.521 790.067 L 642.510 786.216 L 636.476 782.339 L 630.421 778.438 L 624.345 774.511 L 618.249 770.561 L 612.135 766.586 L 606.004 762.587 L 599.855 758.565 L 593.691 754.521 L 587.512 750.453 L 581.319 746.364 L 575.113 742.252 L 568.895 738.119 L 562.667 733.965 L 556.428 729.790 L 550.181 725.595 L 543.926 721.379 L 537.663 717.144 L 531.395 712.890 L 525.122 708.616 L 518.845 704.325 L 512.565 700.015 L 506.283 695.687 L 500.000 691.342 L 493.717 686.980 L 487.435 682.601 L 481.155 678.206 L 474.878 673.795 L 468.605 669.369 L 462.337 664.928 L 456.074 660.472 L 449.819 656.002 L 443.572 651.518 L 437.333 647.020 L 431.105 642.510 L 424.887 637.986 L 418.681 633.451 L 412.488 628.904 L 406.309 624.345 L 400.145 619.775 L 393.996 615.195 L 387.865 610.604 L 381.751 606.004 L 375.655 601.394 L 369.579 596.775 L 363.524 592.147 L 357.490 587.512 L 351.479 582.868 L 345.492 578.217 L 339.528 573.559 L 333.590 568.895 L 327.679 564.225 L 321.794 559.549 L 315.938 554.867 L 310.110 550.181 L 304.313 545.490 L 298.547 540.795 L 292.812 536.097 L 287.110 531.395 L 281.442 526.691 L 275.808 521.984 L 270.210 517.275 L 264.648 512.565 L 259.123 507.854 L 253.636 503.142 L 248.188 498.429 L 242.780 493.717 L 237.413 489.005 L 232.087 484.295 L 226.803 479.585 L 221.562 474.878 L 216.366 470.173 L 211.214 465.470 L 206.107 460.770 L 201.048 456.074 L 196.035 451.382 L 191.070 446.694 L 186.154 442.011 L 181.288 437.333 L 176.472 432.661 L 171.707 427.995 L 166.994 423.335 L 162.334 418.681 L 157.726 414.035 L 153.173 409.397 L 148.675 404.767 L 144.232 400.145 L 139.845 395.532 L 135.516 390.928 L 131.243 386.334 L 127.029 381.751 L 122.874 377.177 L 118.779 372.615 L 114.743 368.063 L 110.769 363.524 L 106.856 358.997 L 103.005 354.482 L 99.217 349.980 L 95.492 345.492 L 91.830 341.017 L 88.234 336.556 L 84.702 332.110 L 81.236 327.679 L 77.836 323.263 L 74.503 318.862 L 71.237 314.478 L 68.038 310.110 L 64.908 305.760 L 61.847 301.426 L 58.854 297.110 L 55.932 292.812 L 53.079 288.533 L 50.297 284.272 L 47.586 280.030 L 44.947 275.808 L 42.379 271.606 L 39.884 267.424 L 37.461 263.263 L 35.112 259.123 L 32.836 255.004 L 30.633 250.907 L 28.505 246.833 L 26.451 242.780 L 24.472 238.751 L 22.568 234.744 L 20.739 230.762 L 18.986 226.803 L 17.309 222.868 L 15.708 218.958 L 14.184 215.073 L 12.737 211.214 L 11.366 207.380 L 10.072 203.572 L 8.856 199.790 L 7.718 196.035 L 6.657 192.307 L 5.674 188.606 L 4.769 184.933 L 3.943 181.288 L 3.194 177.671 L 2.524 174.083 L 1.933 170.524 L 1.421 166.994 L 0.987 163.494 L 0.632 160.023 L 0.355 156.583 L 0.158 153.173 L 0.039 149.794 L 0.000 146.447 L 0.039 143.130 L 0.158 139.845 L 0.355 136.593 L 0.632 133.372 L 0.987 130.184 L 1.421 127.029 L 1.933 123.908 L 2.524 120.819 L 3.194 117.764 L 3.943 114.743 L 4.769 111.757 L 5.674 108.805 L 6.657 105.887 L 7.718 103.005 L 8.856 100.158 L 10.072 97.346 L 11.366 94.570 L 12.737 91.830 L 14.184 89.127 L 15.708 86.460 L 17.309 83.829 L 18.986 81.236 L 20.739 78.680 L 22.568 76.161 L 24.472 73.680 L 26.451 71.237 L 28.505 68.832 L 30.633 66.465 L 32.836 64.136 L 35.112 61.847 L 37.461 59.596 L 39.884 57.384 L 42.379 55.212 L 44.947 53.079 L 47.586 50.986 L 50.297 48.933 L 53.079 46.920 L 55.932 44.947 L 58.854 43.015 L 61.847 41.123 L 64.908 39.272 L 68.038 37.461 L 71.237 35.692 L 74.503 33.964 L 77.836 32.278 L 81.236 30.633 L 84.702 29.030 L 88.234 27.468 L 91.830 25.949 L 95.492 24.472 L 99.217 23.037 L 103.005 21.644 L 106.856 20.294 L 110.769 18.986 L 114.743 17.721 L 118.779 16.499 L 122.874 15.320 L 127.029 14.184 L 131.243 13.091 L 135.516 12.042 L 139.845 11.035 L 144.232 10.072 L 148.675 9.153 L 153.173 8.277 L 157.726 7.445 L 162.334 6.657 L 166.994 5.913 L 171.707 5.212 L 176.472 4.555 L 181.288 3.943 L 186.154 3.374 L 191.070 2.850 L 196.035 2.369 L 201.048 1.933 L 206.107 1.541 L 211.214 1.194 L 216.366 0.890 L 221.562 0.632 L 226.803 0.417 L 232.087 0.247 L 237.413 0.121 L 242.780 0.039 L 248.188 0.002 L 253.636 0.010 L 259.123 0.062 L 264.648 0.158 L 270.210 0.299 L 275.808 0.484 L 281.442 0.713 L 287.110 0.987 L 292.812 1.305 L 298.547 1.667 L 304.313 2.074 L 310.110 2.524 L 315.938 3.020 L 321.794 3.559 L 327.679 4.142 L 333.590 4.769 L 339.528 5.441 L 345.492 6.156 L 351.479 6.915 L 357.490 7.718 L 363.524 8.564 L 369.579 9.455 L 375.655 10.389 L 381.751 11.366 L 387.865 12.387 L 393.996 13.451 L 400.145 14.558 L 406.309 15.708 L 412.488 16.902 L 418.681 18.138 L 424.887 19.417 L 431.105 20.739 L 437.333 22.103 L 443.572 23.510 L 449.819 24.959 L 456.074 26.451 L 462.337 27.984 L 468.605 29.560 L 474.878 31.177 L 481.155 32.836 L 487.435 34.536 L 493.717 36.277 L 500.000 38.060 L 506.283 39.884 L 512.565 41.749 L 518.845 43.654 L 525.122 45.600 L 531.395 47.586 L 537.663 49.613 L 543.926 51.679 L 550.181 53.786 L 556.428 55.932 L 562.667 58.117 L 568.895 60.342 L 575.113 62.606 L 581.319 64.908 L 587.512 67.249 L 593.691 69.629 L 599.855 72.047 L 606.004 74.503 L 612.135 76.996 L 618.249 79.528 L 624.345 82.096 L 630.421 84.702 L 636.476 87.345 L 642.510 90.024 L 648.521 92.740 L 654.508 95.492 L 660.472 98.279 L 666.410 101.103 L 672.321 103.962 L 678.206 106.856 L 684.062 109.785 L 689.890 112.748 L 695.687 115.747 L 701.453 118.779 L 707.188 121.845 L 712.890 124.944 L 718.558 128.077 L 724.192 131.243 L 729.790 134.442 L 735.352 137.673 L 740.877 140.937 L 746.364 144.232 L 751.812 147.559 L 757.220 150.917 L 762.587 154.307 L 767.913 157.726 L 773.197 161.177 L 778.438 164.657 L 783.634 168.167 L 788.786 171.707 L 793.893 175.276 L 798.952 178.874 L 803.965 182.500 L 808.930 186.154 L 813.846 189.837 L 818.712 193.546 L 823.528 197.284 L 828.293 201.048 L 833.006 204.838 L 837.666 208.655 L 842.274 212.497 L 846.827 216.366 L 851.325 220.259 L 855.768 224.177 L 860.155 228.120 L 864.484 232.087 L 868.757 236.077 L 872.971 240.091 L 877.126 244.128 L 881.221 248.188 L 885.257 252.271 L 889.231 256.375 L 893.144 260.501 L 896.995 264.648 L 900.783 268.816 L 904.508 273.005 L 908.170 277.214 L 911.766 281.442 L 915.298 285.690 L 918.764 289.957 L 922.164 294.243 L 925.497 298.547 L 928.763 302.869 L 931.962 307.208 L 935.092 311.564 L 938.153 315.938 L 941.146 320.327 L 944.068 324.733 L 946.921 329.154 L 949.703 333.590 L 952.414 338.041 L 955.053 342.507 L 957.621 346.986 L 960.116 351.479 L 962.539 355.985 L 964.888 360.504 L 967.164 365.036 L 969.367 369.579 L 971.495 374.134 L 973.549 378.700 L 975.528 383.277 L 977.432 387.865 L 979.261 392.462 L 981.014 397.069 L 982.691 401.685 L 984.292 406.309 L 985.816 410.942 L 987.263 415.583 L 988.634 420.232 L 989.928 424.887 L 991.144 429.549 L 992.282 434.218 L 993.343 438.892 L 994.326 443.572 L 995.231 448.257 L 996.057 452.946 L 996.806 457.639 L 997.476 462.337 L 998.067 467.037 L 998.579 471.741 L 999.013 476.447 L 999.368 481.155 L 999.645 485.865 L 999.842 490.576 L 999.961 495.288 L 1000.000 500.000" fill="none" stroke="black" stroke-width="12.0" stroke-linecap="round" stroke-linejoin="round" vector-effect="non-scaling-stroke"/>
</svg>