<svg xmlns="http://www.w3.org/2000/svg" viewBox="-6.000 -6.000 1012.000 1012.000" preserveAspectRatio="xMidYMid meet">
    <path d="M 500.000 500.000 L 493.717 504.712 L 487.435 509.424 L 481.155 514.135 L 474.878 518.845 L 468.605 523.553 L 462.337 528.259 L 456.074 532.963 L 449.819 537.663 L 443.572 542.361 L 437.333 547.054 L 431.105 551.743 L 424.887 556.428 L 418.681 561.108 L 412.488 565.782 L 406.309 570.451 L 400.145 575.113 L 393.996 579.768 L 387.865 584.417 L 381.751 589.058 L 375.655 593.691 L 369.579 598.315 L 363.524 602.931 L 357.490 607.538 L 351.479 612.135 L 345.492 616.723 L 339.528 621.300 L 333.590 625.866 L 327.679 630.421 L 321.794 634.964 L 315.938 639.496 L 310.110 644.015 L 304.313 648.521 L 298.547 653.014 L 292.812 657.493 L 287.110 661.959 L 281.442 666.410 L 275.808 670.846 L 270.210 675.267 L 264.648 679.673 L 259.123 684.062 L 253.636 688.436 L 248.188 692.792 L 242.780 697.131 L 237.413 701.453 L 232.087 705.757 L 226.803 710.043 L 221.562 714.310 L 216.366 718.558 L 211.214 722.786 L 206.107 726.995 L 201.048 731.184 L 196.035 735.352 L 191.070 739.499 L 186.154 743.625 L 181.288 747.729 L 176.472 751.812 L 171.707 755.872 L 166.994 759.909 L 162.334 763.923 L 157.726 767.913 L 153.173 771.880 L 148.675 775.823 L 144.232 779.741 L 139.845 783.634 L 135.516 787.503 L 131.243 791.345 L 127.029 795.162 L 122.874 798.952 L 118.779 802.716 L 114.743 806.454 L 110.769 810.163 L 106.856 813.846 L 103.005 817.500 L 99.217 821.126 L 95.492 824.724 L 91.830 828.293 L 88.234 831.833 L 84.702 835.343 L 81.236 838.823 L 77.836 842.274 L 74.503 845.693 L 71.237 849.083 L 68.038 852.441 L 64.908 855.768 L 61.847 859.063 L 58.854 862.327 L 55.932 865.558 L 53.079 868.757 L 50.297 871.923 L 47.586 875.056 L 44.947 878.155 L 42.379 881.221 L 39.884 884.253 L 37.461 887.252 L 35.112 890.215 L 32.836 893.144 L 30.633 896.038 L 28.505 898.897 L 26.451 901.721 L 24.472 904.508 L 22.568 907.260 L 20.739 909.976 L 18.986 912.655 L 17.309 915.298 L 15.708 917.904 L 14.184 920.472 L 12.737 923.004 L 11.366 925.497 L 10.072 927.953 L 8.856 930.371 L 7.718 932.751 L 6.657 935.092 L 5.674 937.394 L 4.769 939.658 L 3.943 941.883 L 3.194 944.068 L 2.524 946.214 L 1.933 948.321 L 1.421 950.387 L 0.987 952.414 L 0.632 954.400 L 0.355 956.346 L 0.158 958.251 L 0.039 960.116 L 0.000 961.940 L 0.039 963.723 L 0.158 965.464 L 0.355 967.164 L 0.632 968.823 L 0.987 970.440 L 1.421 972.016 L 1.933 973.549 L 2.524 975.041 L 3.194 976.490 L 3.943 977.897 L 4.769 979.261 L 5.674 980.583 L 6.657 981.862 L 7.718 983.098 L 8.856 984.292 L 10.072 985.442 L 11.366 986.549 L 12.737 987.613 L 14.184 988.634 L 15.708 989.611 L 17.309 990.545 L 18.986 991.436 L 20.739 992.282 L 22.568 993.085 L 24.472 993.844 L 26.451 994.559 L 28.505 995.231 L 30.633 995.858 L 32.836 996.441 L 35.112 996.980 L 37.461 997.476 L 39.884 997.926 L 42.379 998.333 L 44.947 998.695 L 47.586 999.013 L 50.297 999.287 L 53.079 999.516 L 55.932 999.701 L 58.854 999.842 L 61.847 999.938 L 64.908 999.990 L 68.038 999.998 L 71.237 999.961 L 74.503 999.879 L 77.836 999.753 L 81.236 999.583 L 84.702 999.368 L 88.234 999.110 L 91.830 998.806 L 95.492 998.459 L 99.217 998.067 L 103.005 997.631 L 106.856 997.150 L 110.769 996.626 L 114.743 996.057 L 118.779 995.445 L 122.874 994.788 L 127.029 994.087 L 131.243 993.343 L 135.516 992.555 L 139.845 991.723 L 144.232 990.847 L 148.675 989.928 L 153.173 988.965 L 157.726 987.958 L 162.334 986.909 L 166.994 985.816 L 171.707 984.680 L 176.472 983.501 L 181.288 982.279 L 186.154 981.014 L 191.070 979.706 L 196.035 978.356 L 201.048 976.963 L 206.107 975.528 L 211.214 974.051 L 216.366 972.532 L 221.562 970.970 L 226.803 969.367 L 232.087 967.722 L 237.413 966.036 L 242.780 964.308 L 248.188 962.539 L 253.636 960.728 L 259.123 958.877 L 264.648 956.985 L 270.210 955.053 L 275.808 953.080 L 281.442 951.067 L 287.110 949.014 L 292.812 946.921 L 298.547 944.788 L 304.313 942.616 L 310.110 940.404 L 315.938 938.153 L 321.794 935.864 L 327.679 933.535 L 333.590 931.168 L 339.528 928.763 L 345.492 926.320 L 351.479 923.839 L 357.490 921.320 L 363.524 918.764 L 369.579 916.171 L 375.655 913.540 L 381.751 910.873 L 387.865 908.170 L 393.996 905.430 L 400.145 902.654 L 406.309 899.842 L 412.488 896.995 L 418.681 894.113 L 424.887 891.195 L 431.105 888.243 L 437.333 885.257 L 443.572 882.236 L 449.819 879.181 L 456.074 876.092 L 462.337 872.971 L 468.605 869.816 L 474.878 866.628 L 481.155 863.407 L 487.435 860.155 L 493.717 856.870 L 500.000 853.553 L 506.283 850.206 L 512.565 846.827 L 518.845 843.417 L 525.122 839.977 L 531.395 836.506 L 537.663 833.006 L 543.926 829.476 L 550.181 825.917 L 556.428 822.329 L 562.667 818.712 L 568.895 815.067 L 575.113 811.394 L 581.319 807.693 L 587.512 803.965 L 593.691 800.210 L 599.855 796.428 L 606.004 792.620 L 612.135 788.786 L 618.249 784.927 L 624.345 781.042 L 630.421 777.132 L 636.476 773.197 L 642.510 769.238 L 648.521 765.256 L 654.508 761.249 L 660.472 757.220 L 666.410 753.167 L 672.321 749.093 L 678.206 744.996 L 684.062 740.877 L 689.890 736.737 L 695.687 732.576 L 701.453 728.394 L 707.188 724.192 L 712.890 719.970 L 718.558 715.728 L 724.192 711.467 L 729.790 707.188 L 735.352 702.890 L 740.877 698.574 L 746.364 694.240 L 751.812 689.890 L 757.220 685.522 L 762.587 681.138 L 767.913 676.737 L 773.197 672.321 L 778.438 667.890 L 783.634 663.444 L 788.786 658.983 L 793.893 654.508 L 798.952 650.020 L 803.965 645.518 L 808.930 641.003 L 813.846 636.476 L 818.712 631.937 L 823.528 627.385 L 828.293 622.823 L 833.006 618.249 L 837.666 613.666 L 842.274 609.072 L 846.827 604.468 L 851.325 599.855 L 855.768 595.233 L 860.155 590.603 L 864.484 585.965 L 868.757 581.319 L 872.971 576.665 L 877.126 572.005 L 881.221 567.339 L 885.257 562.667 L 889.231 557.989 L 893.144 553.306 L 896.995 548.618 L 900.783 543.926 L 904.508 539.230 L 908.170 534.530 L 911.766 529.827 L 915.298 525.122 L 918.764 520.415 L 922.164 515.705 L 925.497 510.995 L 928.763 506.283 L 931.962 501.571 L 935.092 496.858 L 938.153 492.146 L 941.146 487.435 L 944.068 482.725 L 946.921 478.016 L 949.703 473.309 L 952.414 468.605 L 955.053 463.903 L 957.621 459.205 L 960.116 454.510 L 962.539 449.819 L 964.888 445.133 L 967.164 440.451 L 969.367 435.775 L 971.495 431.105 L 973.549 426.441 L 975.528 421.783 L 977.432 417.132 L 979.261 412.488 L 981.014 407.853 L 982.691 403.225 L 984.292 398.606 L 985.816 393.996 L 987.263 389.396 L 988.634 384.805 L 989.928 380.225 L 991.144 375.655 L 992.282 371.096 L 993.343 366.549 L 994.326 362.014 L 995.231 357.490 L 996.057 352.980 L 996.806 348.482 L 997.476 343.998 L 998.067 339.528 L 998.579 335.072 L 999.013 330.631 L 999.368 326.205 L 999.645 321.794 L 999.842 317.399 L 999.961 313.020 L 1000.000 308.658 L 999.961 304.313 L 999.842 299.985 L 999.645 295.675 L 999.368 291.384 L 999.013 287.110 L 998.579 282.856 L 998.067 278.621 L 997.476 274.405 L 996.806 270.210 L 996.057 266.035 L 995.231 261.881 L 994.326 257.748 L 993.343 253.636 L 992.282 249.547 L 991.144 245.479 L 989.928 241.435 L 988.634 237.413 L 987.263 233.414 L 985.816 229.439 L 984.292 225.489 L 982.691 221.562 L 981.014 217.661 L 979.261 213.784 L 977.432 209.933 L 975.528 206.107 L 973.549 202.308 L 971.495 198.535 L 969.367 194.789 L 967.164 191.070 L 964.888 187.379 L 962.539 183.715 L 960.116 180.079 L 957.621 176.472 L 955.053 172.894 L 952.414 169.344 L 949.703 165.824 L 946.921 162.334 L 944.068 158.873 L 941.146 155.443 L 938.153 152.044 L 935.092 148.675 L 931.962 145.338 L 928.763 142.032 L 925.497 138.758 L 922.164 135.516 L 918.764 132.306 L 915.298 129.129 L 911.766 125.985 L 908.170 122.874 L 904.508 119.797 L 900.783 116.753 L 896.995 113.744 L 893.144 110.769 L 889.231 107.828 L 885.257 104.922 L 881.221 102.052 L 877.126 99.217 L 872.971 96.417 L 868.757 93.653 L 864.484 90.925 L 860.155 88.234 L 855.768 85.579 L 851.325 82.961 L 846.827 80.380 L 842.274 77.836 L 837.666 75.330 L 833.006 72.861 L 828.293 70.431 L 823.528 68.038 L 818.712 65.684 L 813.846 63.369 L 808.930 61.092 L 803.965 58.854 L 798.952 56.656 L 793.893 54.497 L 788.786 52.377 L 783.634 50.297 L 778.438 48.258 L 773.197 46.258 L 767.913 44.298 L 762.587 42.379 L 757.220 40.501 L 751.812 38.664 L 746.364 36.867 L 740.877 35.112 L 735.352 33.398 L 729.790 31.725 L 724.192 30.094 L 718.558 28.505 L 712.890 26.957 L 707.188 25.452 L 701.453 23.989 L 695.687 22.568 L 689.890 21.189 L 684.062 19.853 L 678.206 18.560 L 672.321 17.309 L 666.410 16.101 L 660.472 14.937 L 654.508 13.815 L 648.521 12.737 L 642.510 11.701 L 636.476 10.710 L 630.421 9.761 L 624.345 8.856 L 618.249 7.995 L 612.135 7.178 L 606.004 6.404 L 599.855 5.674 L 593.691 4.988 L 587.512 4.346 L 581.319 3.748 L 575.113 3.194 L 568.895 2.685 L 562.667 2.219 L 556.428 1.798 L 550.181 1.421 L 543.926 1.088 L 537.663 0.799 L 531.395 0.555 L 525.122 0.355 L 518.845 0.200 L 512.565 0.089 L 506.283 0.022 L 500.000 0.000 L 493.717 0.022 L 487.435 0.089 L 481.155 0.200 L 474.878 0.355 L 468.605 0.555 L 462.337 0.799 L 456.074 1.088 L 449.819 1.421 L 443.572 1.798 L 437.333 2.219 L 431.105 2.685 L 424.887 3.194 L 418.681 3.748 L 412.488 4.346 L 406.309 4.988 L 400.145 5.674 L 393.996 6.404 L 387.865 7.178 L 381.751 7.995 L 375.655 8.856 L 369.579 9.761 L 363.524 10.710 L 357.490 11.701 L 351.479 12.737 L 345.492 13.815 L 339.528 14.937 L 333.590 16.101 L 327.679 17.309 L 321.794 18.560 L 315.938 19.853 L 310.110 21.189 L 304.313 22.568 L 298.547 23.989 L 292.812 25.452 L 287.110 26.957 L 281.442 28.505 L 275.808 30.094 L 270.210 31.725 L 264.648 33.398 L 259.123 35.112 L 253.636 36.867 L 248.188 38.664 L 242.780 40.501 L 237.413 42.379 L 232.087 44.298 L 226.803 46.258 L 221.562 48.258 L 216.366 50.297 L 211.214 52.377 L 206.107 54.497 L 201.048 56.656 L 196.035 58.854 L 191.070 61.092 L 186.154 63.369 L 181.288 65.684 L 176.472 68.038 L 171.707 70.431 L 166.994 72.861 L 162.334 75.330 L 157.726 77.836 L 153.173 80.380 L 148.675 82.961 L 144.232 85.579 L 139.845 88.234 L 135.516 90.925 L 131.243 93.653 L 127.029 96.417 L 122.874 99.217 L 118.779 102.052 L 114.743 104.922 L 110.769 107.828 L 106.856 110.769 L 103.005 113.744 L 99.217 116.753 L 95.492 119.797 L 91.830 122.874 L 88.234 125.985 L 84.702 129.129 L 81.236 132.306 L 77.836 135.516 L 74.503 138.758 L 71.237 142.032 L 68.038 145.338 L 64.908 148.675 L 61.847 152.044 L 58.854 155.443 L 55.932 158.873 L 53.079 162.334 L 50.297 165.824 L 47.586 169.344 L 44.947 172.894 L 42.379 176.472 L 39.884 180.079 L 37.461 183.715 L 35.112 187.379 L 32.836 191.070 L 30.633 194.789 L 28.505 198.535 L 26.451 202.308 L 24.472 206.107 L 22.568 209.933 L 20.739 213.784 L 18.986 217.661 L 17.309 221.562 L 15.708 225.489 L 14.184 229.439 L 12.737 233.414 L 11.366 237.413 L 10.072 241.435 L 8.856 245.479 L 7.718 249.547 L 6.657 253.636 L 5.674 257.748 L 4.769 261.881 L 3.943 266.035 L 3.194 270.210 L 2.524 274.405 L 1.933 278.621 L 1.421 282.856 L 0.987 287.110 L 0.632 291.384 L 0.355 295.675 L 0.158 299.985 L 0.039 304.313 L 0.000 308.658 L 0.039 313.020 L 0.158 317.399 L 0.355 321.794 L 0.632 326.205 L 0.987 330.631 L 1.421 335.072 L 1.933 339.528 L 2.524 343.998 L 3.194 348.482 L 3.943 352.980 L 4.769 357.490 L 5.674 362.014 L 6.657 366.549 L 7.718 371.096 L 8.856 375.655 L 10.072 380.225 L 11.366 384.805 L 12.737 389.396 L 14.184 393.996 L 15.708 398.606 L 17.309 403.225 L 18.986 407.853 L 20.739 412.488 L 22.568 417.132 L 24.472 421.783 L 26.451 426.441 L 28.505 431.105 L 30.633 435.775 L 32.836 440.451 L 35.112 445.133 L 37.461 449.819 L 39.884 454.510 L 42.379 459.205 L 44.947 463.903 L 47.586 468.605 L 50.297 473.309 L 53.079 478.016 L 55.932 482.725 L 58.854 487.435 L 61.847 492.146 L 64.908 496.858 L 68.038 501.571 L 71.237 506.283 L 74.503 510.995 L 77.836 515.705 L 81.236 520.415 L 84.702 525.122 L 88.234 529.827 L 91.830 534.530 L 95.492 539.230 L 99.217 543.926 L 103.005 548.618 L 106.856 553.306 L 110.769 557.989 L 114.743 562.667 L 118.779 567.339 L 122.874 572.005 L 127.029 576.665 L 131.243 581.319 L 135.516 585.965 L 139.845 590.603 L 144.232 595.233 L 148.675 599.855 L 153.173 604.468 L 157.726 609.072 L 162.334 613.666 L 166.994 618.249 L 171.707 622.823 L 176.472 627.385 L 181.288 631.937 L 186.154 636.476 L 191.070 641.003 L 196.035 645.518 L 201.048 650.020 L 206.107 654.508 L 211.214 658.983 L 216.366 663.444 L 221.562 667.890 L 226.803 672.321 L 232.087 676.737 L 237.413 681.138 L 242.780 685.522 L 248.188 689.890 L 253.636 694.240 L 259.123 698.574 L 264.648 702.890 L 270.210 707.188 L 275.808 711.467 L 281.442 715.728 L 287.110 719.970 L 292.812 724.192 L 298.547 728.394 L 304.313 732.576 L 310.110 736.737 L 315.938 740.877 L 321.794 744.996 L 327.679 749.093 L 333.590 753.167 L 339.528 757.220 L 345.492 761.249 L 351.479 765.256 L 357.490 769.238 L 363.524 773.197 L 369.579 777.132 L 375.655 781.042 L 381.751 784.927 L 387.865 788.786 L 393.996 792.620 L 400.145 796.428 L 406.309 800.210 L 412.488 803.965 L 418.681 807.693 L 424.887 811.394 L 431.105 815.067 L 437.333 818.712 L 443.572 822.329 L 449.819 825.917 L 456.074 829.476 L 462.337 833.006 L 468.605 836.506 L 474.878 839.977 L 481.155 843.417 L 487.435 846.827 L 493.717 850.206 L 500.000 853.553 L 506.283 856.870 L 512.565 860.155 L 518.845 863.407 L 525.122 866.628 L 531.395 869.816 L 537.663 872.971 L 543.926 876.092 L 550.181 879.181 L 556.428 882.236 L 562.667 885.257 L 568.895 888.243 L 575.113 891.195 L 581.319 894.113 L 587.512 896.995 L 593.691 899.842 L 599.855 902.654 L 606.004 905.430 L 612.135 908.170 L 618.249 910.873 L 624.345 913.540 L 630.421 916.171 L 636.476 918.764 L 642.510 921.320 L 648.521 923.839 L 654.508 926.320 L 660.472 928.763 L 666.410 931.168 L 672.321 933.535 L 678.206 935.864 L 684.062 938.153 L 689.890 940.404 L 695.687 942.616 L 701.453 944.788 L 707.188 946.921 L 712.890 949.014 L 718.558 951.067 L 724.192 953.080 L 729.790 955.053 L 735.352 956.985 L 740.877 958.877 L 746.364 960.728 L 751.812 962.539 L 757.220 964.308 L 762.587 966.036 L 767.913 967.722 L 773.197 969.367 L 778.438 970.970 L 783.634 972.532 L 788.786 974.051 L 793.893 975.528 L 798.952 976.963 L 803.965 978.356 L 808.930 979.706 L 813.846 981.014 L 818.712 982.279 L 823.528 983.501 L 828.293 984.680 L 833.006 985.816 L 837.666 986.909 L 842.274 987.958 L 846.827 988.965 L 851.325 989.928 L 855.768 990.847 L 860.155 991.723 L 864.484 992.555 L 868.757 993.343 L 872.971 994.087 L 877.126 994.788 L 881.221 995.445 L 885.257 996.057 L 889.231 996.626 L 893.144 997.150 L 896.995 997.631 L 900.783 998.067 L 904.508 998.459 L 908.170 998.806 L 911.766 999.110 L 915.298 999.368 L 918.764 999.583 L 922.164 999.753 L 925.497 999.879 L 928.763 999.961 L 931.962 999.998 L 935.092 999.990 L 938.153 999.938 L 941.146 999.842 L 944.068 999.701 L 946.921 999.516 L 949.703 999.287 L 952.414 999.013 L 955.053 998.695 L 957.621 998.333 L 960.116 997.926 L 962.539 997.476 L 964.888 996.980 L 967.164 996.441 L 969.367 995.858 L 971.495 995.231 L 973.549 994.559 L 975.528 993.844 L 977.432 993.085 L 979.261 992.282 L 981.014 991.436 L 982.691 990.545 L 984.292 989.611 L 985.816 988.634 L 987.263 987.613 L 988.634 986.549 L 989.928 985.442 L 991.144 984.292 L 992.282 983.098 L 993.343 981.862 L 994.326 980.583 L 995.231 979.261 L 996.057 977.897 L 996.806 976.490 L 997.476 975.041 L 998.067 973.549 L 998.579 972.016 L 999.013 970.440 L 999.368 968.823 L 999.645 967.164 L 999.842 965.464 L 999.961 963.723 L 1000.000 961.940 L 999.961 960.116 L 999.842 958.251 L 999.645 956.346 L 999.368 954.400 L 999.013 952.414 L 998.579 950.387 L 998.067 948.321 L 997.476 946.214 L 996.806 944.068 L 996.057 941.883 L 995.231 939.658 L 994.326 937.394 L 993.343 935.092 L 992.282 932.751 L 991.144 930.371 L 989.928 927.953 L 988.634 925.497 L 987.263 923.004 L 985.816 920.472 L 984.292 917.904 L 982.691 915.298 L 981.014 912.655 L 979.261 909.976 L 977.432 907.260 L 975.528 904.508 L 973.549 901.721 L 971.495 898.897 L 969.367 896.038 L 967.164 893.144 L 964.888 890.215 L 962.539 887.252 L 960.116 884.253 L 957.621 881.221 L 955.053 878.155 L 952.414 875.056 L 949.703 871.923 L 946.921 868.757 L 944.068 865.558 L 941.146 862.327 L 938.153 859.063 L 935.092 855.768 L 931.962 852.441 L 928.763 849.083 L 925.497 845.693 L 922.164 842.274 L 918.764 838.823 L 915.298 835.343 L 911.766 831.833 L 908.170 828.293 L 904.508 824.724 L 900.783 821.126 L 896.995 817.500 L 893.144 813.846 L 889.231 810.163 L 885.257 806.454 L 881.221 802.716 L 877.126 798.952 L 872.971 795.162 L 868.757 791.345 L 864.484 787.503 L 860.155 783.634 L 855.768 779.741 L 851.325 775.823 L 846.827 771.880 L 842.274 767.913 L 837.666 763.923 L 833.006 759.909 L 828.293 755.872 L 823.528 751.812 L 818.712 747.729 L 813.846 743.625 L 808.930 739.499 L 803.965 735.352 L 798.952 731.184 L 793.893 726.995 L 788.786 722.786 L 783.634 718.558 L 778.438 714.310 L 773.197 710.043 L 767.913 705.757 L 762.587 701.453 L 757.220 697.131 L 751.812 692.792 L 746.364 688.436 L 740.877 684.062 L 735.352 679.673 L 729.790 675.267 L 724.192 670.846 L 718.558 666.410 L 712.890 661.959 L 707.188 657.493 L 701.453 653.014 L 695.687 648.521 L 689.890 644.015 L 684.062 639.496 L 678.206 634.964 L 672.321 630.421 L 666.410 625.866 L 660.472 621.300 L 654.508 616.723 L 648.521 612.135 L 642.510 607.538 L 636.476 602.931 L 630.421 598.315 L 624.345 593.691 L 618.249 589.058 L 612.135 584.417 L 606.004 579.768 L 599.855 575.113 L 593.691 570.451 L 587.512 565.782 L 581.319 561.108 L 575.113 556.428 L 568.895 551.743 L 562.667 547.054 L 556.428 542.361 L 550.181 537.663 L 543.926 532.963 L 537.663 528.259 L 531.395 523.553 L 525.122 518.845 L 518.845 514.135 L 512.565 509.424 L 506.283 504.712 L 500.000 500.000 L 493.717 495.288 L 487.435 490.576 L 481.155 485.865 L 474.878 481.155 L 468.605 476.447 L 462.337 471.741 L 456.074 467.037 L 449.819 462.337 L 443.572 457.639 L 437.333 452.946 L 431.105 448.257 L 424.887 443.572 L 418.681 438.892 L 412.488 434.218 L 406.309 429.549 L 400.145 424.887 L 393.996 420.232 L 387.865 415.583 L 381.751 410.942 L 375.655 406.309 L 369.579 401.685 L 363.524 397.069 L 357.490 392.462 L 351.479 387.865 L 345.492 383.277 L 339.528 378.700 L 333.590 374.134 L 327.679 369.579 L 321.794 365.036 L 315.938 360.504 L 310.110 355.985 L 304.313 351.479 L 298.547 346.986 L 292.812 342.507 L 287.110 338.041 L 281.442 333.590 L 275.808 329.154 L 270.210 324.733 L 264.648 320.327 L 259.123 315.938 L 253.636 311.564 L 248.188 307.208 L 242.780 302.869 L 237.413 298.547 L 232.087 294.243 L 226.803 289.957 L 221.562 285.690 L 216.366 281.442 L 211.214 277.214 L 206.107 273.005 L 201.048 268.816 L 196.035 264.648 L 191.070 260.501 L 186.154 256.375 L 181.288 252.271 L 176.472 248.188 L 171.707 244.128 L 166.994 240.091 L 162.334 236.077 L 157.726 232.087 L 153.173 228.120 L 148.675 224.177 L 144.232 220.259 L 139.845 216.366 L 135.516 212.497 L 131.243 208.655 L 127.029 204.838 L 122.874 201.048 L 118.779 197.284 L 114.743 193.546 L 110.769 189.837 L 106.856 186.154 L 103.005 182.500 L 99.217 178.874 L 95.492 175.276 L 91.830 171.707 L 88.234 168.167 L 84.702 164.657 L 81.236 161.177 L 77.836 157.726 L 74.503 154.307 L 71.237 150.917 L 68.038 147.559 L 64.908 144.232 L 61.847 140.937 L 58.854 137.673 L 55.932 134.442 L 53.079 131.243 L 50.297 128.077 L 47.586 124.944 L 44.947 121.845 L 42.379 118.779 L 39.884 115.747 L 37.461 112.748 L 35.112 109.785 L 32.836 106.856 L 30.633 103.962 L 28.505 101.103 L 26.451 98.279 L 24.472 95.492 L 22.568 92.740 L 20.739 90.024 L 18.986 87.345 L 17.309 84.702 L 15.708 82.096 L 14.184 79.528 L 12.737 76.996 L 11.366 74.503 L 10.072 72.047 L 8.856 69.629 L 7.718 67.249 L 6.657 64.908 L 5.674 62.606 L 4.769 60.342 L 3.943 58.117 L 3.194 55.932 L 2.524 53.786 L 1.933 51.679 L 1.421 49.613 L 0.987 47.586 L 0.632 45.600 L 0.355 43.654 L 0.158 41.749 L 0.039 39.884 L 0.000 38.060 L 0.039 36.277 L 0.158 34.536 L 0.355 32.836 L 0.632 31.177 L 0.987 29.560 L 1.421 27.984 L 1.933 26.451 L 2.524 24.959 L 3.194 23.510 L 3.943 22.103 L 4.769 20.739 L 5.674 19.417 L 6.657 18.138 L 7.718 16.902 L 8.856 15.708 L 10.072 14.558 L 11.366 13.451 L 12.737 12.387 L 14.184 11.366 L 15.708 10.389 L 17.309 9.455 L 18.986 8.564 L 20.739 7.718 L 22.568 6.915 L 24.472 6.156 L 26.451 5.441 L 28.505 4.769 L 30.633 4.142 L 32.836 3.559 L 35.112 3.020 L 37.461 2.524 L 39.884 2.074 L 42.379 1.667 L 44.947 1.305 L 47.586 0.987 L 50.297 0.713 L 53.079 0.484 L 55.932 0.299 L 58.854 0.158 L 61.847 0.062 L 64.908 0.010 L 68.038 0.002 L 71.237 0.039 L 74.503 0.121 L 77.836 0.247 L 81.236 0.417 L 84.702 0.632 L 88.234 0.890 L 91.830 1.194 L 95.492 1.541 L 99.217 1.933 L 103.005 2.369 L 106.856 2.850 L 110.769 3.374 L 114.743 3.943 L 118.779 4.555 L 122.874 5.212 L 127.029 5.913 L 131.243 6.657 L 135.516 7.445 L 139.845 8.277 L 144.232 9.153 L 148.675 10.072 L 153.173 11.035 L 157.726 12.042 L 162.334 13.091 L 166.994 14.184 L 171.707 15.320 L 176.472 16.499 L 181.288 17.721 L 186.154 18.986 L 191.070 20.294 L 196.035 21.644 L 201.048 23.037 L 206.107 24.472 L 211.214 25.949 L 216.366 27.468 L 221.562 29.030 L 226.803 30.633 L 232.087 32.278 L 237.413 33.964 L 242.780 35.692 L 248.188 37.461 L 253.636 39.272 L 259.123 41.123 L 264.648 43.015 L 270.210 44.947 L 275.808 46.920 L 281.442 48.933 L 287.110 50.986 L 292.812 53.079 L 298.547 55.212 L 304.313 57.384 L 310.110 59.596 L 315.938 61.847 L 321.794 64.136 L 327.679 66.465 L 333.590 68.832 L 339.528 71.237 L 345.492 73.680 L 351.479 76.161 L 357.490 78.680 L 363.524 81.236 L 369.579 83.829 L 375.655 86.460 L 381.751 89.127 L 387.865 91.830 L 393.996 94.570 L 400.145 97.346 L 406.309 100.158 L 412.488 103.005 L 418.681 105.887 L 424.887 108.805 L 431.105 111.757 L 437.333 114.743 L 443.572 117.764 L 449.819 120.819 L 456.074 123.908 L 462.337 127.029 L 468.605 130.184 L 474.878 133.372 L 481.155 136.593 L 487.435 139.845 L 493.717 143.130 L 500.000 146.447 L 506.283 149.794 L 512.565 153.173 L 518.845 156.583 L 525.122 160.023 L 531.395 163.494 L 537.663 166.994 L 543.926 170.524 L 550.181 174.083 L 556.428 177.671 L 562.667 181.288 L 568.895 184.933 L 575.113 188.606 L 581.319 192.307 L 587.512 196.035 L 593.691 199.790 L 599.855 203.572 L 606.004 207.380 L 612.135 211.214 L 618.249 215.073 L 624.345 218.958 L 630.421 222.868 L 636.476 226.803 L 642.510 230.762 L 648.521 234.744 L 654.508 238.751 L 660.472 242.780 L 666.410 246.833 L 672.321 250.907 L 678.206 255.004 L 684.062 259.123 L 689.890 263.263 L 695.687 267.424 L 701.453 271.606 L 707.188 275.808 L 712.890 280.030 L 718.558 284.272 L 724.192 288.533 L 729.790 292.812 L 735.352 297.110 L 740.877 301.426 L 746.364 305.760 L 751.812 310.110 L 757.220 314.478 L 762.587 318.862 L 767.913 323.263 L 773.197 327.679 L 778.438 332.110 L 783.634 336.556 L 788.786 341.017 L 793.893 345.492 L 798.952 349.980 L 803.965 354.482 L 808.930 358.997 L 813.846 363.524 L 818.712 368.063 L 823.528 372.615 L 828.293 377.177 L 833.006 381.751 L 837.666 386.334 L 842.274 390.928 L 846.827 395.532 L 851.325 400.145 L 855.768 404.767 L 860.155 409.397 L 864.484 414.035 L 868.757 418.681 L 872.971 423.335 L 877.126 427.995 L 881.221 432.661 L 885.257 437.333 L 889.231 442.011 L 893.144 446.694 L 896.995 451.382 L 900.783 456.074 L 904.508 460.770 L 908.170 465.470 L 911.766 470.173 L 915.298 474.878 L 918.764 479.585 L 922.164 484.295 L 925.497 489.005 L 928.763 493.717 L 931.962 498.429 L 935.092 503.142 L 938.153 507.854 L 941.146 512.565 L 944.068 517.275 L 946.921 521.984 L 949.703 526.691 L 952.414 531.395 L 955.053 536.097 L 957.621 540.795 L 960.116 545.490 L 962.539 550.181 L 964.888 554.867 L 967.164 559.549 L 969.367 564.225 L 971.495 568.895 L 973.549 573.559 L 975.528 578.217 L 977.432 582.868 L 979.261 587.512 L 981.014 592.147 L 982.691 596.775 L 984.292 601.394 L 985.816 606.004 L 987.263 610.604 L 988.634 615.195 L 989.928 619.775 L 991.144 624.345 L 992.282 628.904 L 993.343 633.451 L 994.326 637.986 L 995.231 642.510 L 996.057 647.020 L 996.806 651.518 L 997.476 656.002 L 998.067 660.472 L 998.579 664.928 L 999.013 669.369 L 999.368 673.795 L 999.645 678.206 L 999.842 682.601 L 999.961 686.980 L 1000.000 691.342 L 999.961 695.687 L 999.842 700.015 L 999.645 704.325 L 999.368 708.616 L 999.013 712.890 L 998.579 717.144 L 998.067 721.379 L 997.476 725.595 L 996.806 729.790 L 996.057 733.965 L 995.231 738.119 L 994.326 742.252 L 993.343 746.364 L 992.282 750.453 L 991.144 754.521 L 989.928 758.565 L 988.634 762.587 L 987.263 766.586 L 985.816 770.561 L 984.292 774.511 L 982.691 778.438 L 981.014 782.339 L 979.261 786.216 L 977.432 790.067 L 975.528 793.893 L 973.549 797.692 L 971.495 801.465 L 969.367 805.211 L 967.164 808.930 L 964.888 812.621 L 962.539 816.285 L 960.116 819.921 L 957.621 823.528 L 955.053 827.106 L 952.414 830.656 L 949.703 834.176 L 946.921 837.666 L 944.068 841.127 L 941.146 844.557 L 938.153 847.956 L 935.092 851.325 L 931.962 854.662 L 928.763 857.968 L 925.497 861.242 L 922.164 864.484 L 918.764 867.694 L 915.298 870.871 L 911.766 874.015 L 908.170 877.126 L 904.508 880.203 L 900.783 883.247 L 896.995 886.256 L 893.144 889.231 L 889.231 892.172 L 885.257 895.078 L 881.221 897.948 L 877.126 900.783 L 872.971 903.583 L 868.757 906.347 L 864.484 909.075 L 860.155 911.766 L 855.768 914.421 L 851.325 917.039 L 846.827 919.620 L 842.274 922.164 L 837.666 924.670 L 833.006 927.139 L 828.293 929.569 L 823.528 931.962 L 818.712 934.316 L 813.846 936.631 L 808.930 938.908 L 803.965 941.146 L 798.952 943.344 L 793.893 945.503 L 788.786 947.623 L 783.634 949.703 L 778.438 951.742 L 773.197 953.742 L 767.913 955.702 L 762.587 957.621 L 757.220 959.499 L 751.812 961.336 L 746.364 963.133 L 740.877 964.888 L 735.352 966.602 L 729.790 968.275 L 724.192 969.906 L 718.558 971.495 L 712.890 973.043 L 707.188 974.548 L 701.453 976.011 L 695.687 977.432 L 689.890 978.811 L 684.062 980.147 L 678.206 981.440 L 672.321 982.691 L 666.410 983.899 L 660.472 985.063 L 654.508 986.185 L 648.521 987.263 L 642.510 988.299 L 636.476 989.290 L 630.421 990.239 L 624.345 991.144 L 618.249 992.005 L 612.135 992.822 L 606.004 993.596 L 599.855 994.326 L 593.691 995.012 L 587.512 995.654 L 581.319 996.252 L 575.113 996.806 L 568.895 997.315 L 562.667 997.781 L 556.428 998.202 L 550.181 998.579 L 543.926 998.912 L 537.663 999.201 L 531.395 999.445 L 525.122 999.645 L 518.845 999.800 L 512.565 999.911 L 506.283 999.978 L 500.000 1000.000 L 493.717 999.978 L 487.435 999.911 L 481.155 999.800 L 474.878 999.645 L 468.605 999.445 L 462.337 999.201 L 456.074 998.912 L 449.819 998.579 L 443.572 998.202 L 437.333 997.781 L 431.105 997.315 L 424.887 996.806 L 418.681 996.252 L 412.488 995.654 L 406.309 995.012 L 400.145 994.326 L 393.996 993.596 L 387.865 992.822 L 381.751 992.005 L 375.655 991.144 L 369.579 990.239 L 363.524 989.290 L 357.490 988.299 L 351.479 987.263 L 345.492 986.185 L 339.528 985.063 L 333.590 983.899 L 327.679 982.691 L 321.794 981.440 L 315.938 980.147 L 310.110 978.811 L 304.313 977.432 L 298.547 976.011 L 292.812 974.548 L 287.110 973.043 L 281.442 971.495 L 275.808 969.906 L 270.210 968.275 L 264.648 966.602 L 259.123 964.888 L 253.636 963.133 L 248.188 961.336 L 242.780 959.499 L 237.413 957.621 L 232.087 955.702 L 226.803 953.742 L 221.562 951.742 L 216.366 949.703 L 211.214 947.623 L 206.107 945.503 L 201.048 943.344 L 196.035 941.146 L 191.070 938.908 L 186.154 936.631 L 181.288 934.316 L 176.472 931.962 L 171.707 929.569 L 166.994 927.139 L 162.334 924.670 L 157.726 922.164 L 153.173 919.620 L 148.675 917.039 L 144.232 914.421 L 139.845 911.766 L 135.516 909.075 L 131.243 906.347 L 127.029 903.583 L 122.874 900.783 L 118.779 897.948 L 114.743 895.078 L 110.769 892.172 L 106.856 889.231 L 103.005 886.256 L 99.217 883.247 L 95.492 880.203 L 91.830 877.126 L 88.234 874.015 L 84.702 870.871 L 81.236 867.694 L 77.836 864.484 L 74.503 861.242 L 71.237 857.968 L 68.038 854.662 L 64.908 851.325 L 61.847 847.956 L 58.854 844.557 L 55.932 841.127 L 53.079 837.666 L 50.297 834.176 L 47.586 830.656 L 44.947 827.106 L 42.379 823.528 L 39.884 819.921 L 37.461 816.285 L 35.112 812.621 L 32.836 808.930 L 30.633 805.211 L 28.505 801.465 L 26.451 797.692 L 24.472 793.893 L 22.568 790.067 L 20.739 786.216 L 18.986 782.339 L 17.309 778.438 L 15.708 774.511 L 14.184 770.561 L 12.737 766.586 L 11.366 762.587 L 10.072 758.565 L 8.856 754.521 L 7.718 750.453 L 6.657 746.364 L 5.674 742.252 L 4.769 738.119 L 3.943 733.965 L 3.194 729.790 L 2.524 725.595 L 1.933 721.379 L 1.421 717.144 L 0.987 712.890 L 0.632 708.616 L 0.355 704.325 L 0.158 700.015 L 0.039 695.687 L 0.000 691.342 L 0.039 686.980 L 0.158 682.601 L 0.355 678.206 L 0.632 673.795 L 0.987 669.369 L 1.421 664.928 L 1.933 660.472 L 2.524 656.002 L 3.194 651.518 L 3.943 647.020 L 4.769 642.510 L 5.674 637.986 L 6.657 633.451 L 7.718 628.904 L 8.856 624.345 L 10.072 619.775 L 11.366 615.195 L 12.737 610.604 L 14.184 606.004 L 15.708 601.394 L 17.309 596.775 L 18.986 592.147 L 20.739 587.512 L 22.568 582.868 L 24.472 578.217 L 26.451 573.559 L 28.505 568.895 L 30.633 564.225 L 32.836 559.549 L 35.112 554.867 L 37.461 550.181 L 39.884 545.490 L 42.379 540.795 L 44.947 536.097 L 47.586 531.395 L 50.297 526.691 L 53.079 521.984 L 55.932 517.275 L 58.854 512.565 L 61.847 507.854 L 64.908 503.142 L 68.038 498.429 L 71.237 493.717 L 74.503 489.005 L 77.836 484.295 L 81.236 479.585 L 84.702 474.878 L 88.234 470.173 L 91.830 465.470 L 95.492 460.770 L 99.217 456.074 L 103.005 451.382 L 106.856 446.694 L 110.769 442.011 L 114.743 437.333 L 118.779 432.661 L 122.874 427.995 L 127.029 423.335 L 131.243 418.681 L 135.516 414.035 L 139.845 409.397 L 144.232 404.767 L 148.675 400.145 L 153.173 395.532 L 157.726 390.928 L 162.334 386.334 L 166.994 381.751 L 171.707 377.177 L 176.472 372.615 L 181.288 368.063 L 186.154 363.524 L 191.070 358.997 L 196.035 354.482 L 201.048 349.980 L 206.107 345.492 L 211.214 341.017 L 216.366 336.556 L 221.562 332.110 L 226.803 327.679 L 232.087 323.263 L 237.413 318.862 L 242.780 314.478 L 248.188 310.110 L 253.636 305.760 L 259.123 301.426 L 264.648 297.110 L 270.210 292.812 L 275.808 288.533 L 281.442 284.272 L 287.110 280.030 L 292.812 275.808 L 298.547 271.606 L 304.313 267.424 L 310.110 263.263 L 315.938 259.123 L 321.794 255.004 L 327.679 250.907 L 333.590 246.833 L 339.528 242.780 L 345.492 238.751 L 351.479 234.744 L 357.490 230.762 L 363.524 226.803 L 369.579 222.868 L 375.655 218.958 L 381.751 215.073 L 387.865 211.214 L 393.996 207.380 L 400.145 203.572 L 406.309 199.790 L 412.488 196.035 L 418.681 192.307 L 424.887 188.606 L 431.105 184.933 L 437.333 181.288 L 443.572 177.671 L 449.819 174.083 L 456.074 170.524 L 462.337 166.994 L 468.605 163.494 L 474.878 160.023 L 481.155 156.583 L 487.435 153.173 L 493.717 149.794 L 500.000 146.447 L 506.283 143.130 L 512.565 139.845 L 518.845 136.593 L 525.122 133.372 L 531.395 130.184 L 537.663 127.029 L 543.926 123.908 L 550.181 120.819 L 556.428 117.764 L 562.667 114.743 L 568.895 111.757 L 575.113 108.805 L 581.319 105.887 L 587.512 103.005 L 593.691 100.158 L 599.855 97.346 L 606.004 94.570 L 612.135 91.830 L 618.249 89.127 L 624.345 86.460 L 630.421 83.829 L 636.476 81.236 L 642.510 78.680 L 648.521 76.161 L 654.508 73.680 L 660.472 71.237 L 666.410 68.832 L 672.321 66.465 L 678.206 64.136 L 684.062 61.847 L 689.890 59.596 L 695.687 57.384 L 701.453 55.212 L 707.188 53.079 L 712.890 50.986 L 718.558 48.933 L 724.192 46.920 L 729.790 44.947 L 735.352 43.015 L 740.877 41.123 L 746.364 39.272 L 751.812 37.461 L 757.220 35.692 L 762.587 33.964 L 767.913 32.278 L 773.197 30.633 L 778.438 29.030 L 783.634 27.468 L 788.786 25.949 L 793.893 24.472 L 798.952 23.037 L 803.965 21.644 L 808.930 20.294 L 813.846 18.986 L 818.712 17.721 L 823.528 16.499 L 828.293 15.320 L 833.006 14.184 L 837.666 13.091 L 842.274 12.042 L 846.827 11.035 L 851.325 10.072 L 855.768 9.153 L 860.155 8.277 L 864.484 7.445 L 868.757 6.657 L 872.971 5.913 L 877.126 5.212 L 881.221 4.555 L 885.257 3.943 L 889.231 3.374 L 893.144 2.850 L 896.995 2.369 L 900.783 1.933 L 904.508 1.541 L 908.170 1.194 L 911.766 0.890 L 915.298 0.632 L 918.764 0.417 L 922.164 0.247 L 925.497 0.121 L 928.763 0.039 L 931.962 0.002 L 935.092 0.010 L 938.153 0.062 L 941.146 0.158 L 944.068 0.299 L 946.921 0.484 L 949.703 0.713 L 952.414 0.987 L 955.053 1.305 L 957.621 1.667 L 960.116 2.074 L 962.539 2.524 L 964.888 3.020 L 967.164 3.559 L 969.367 4.142 L 971.495 4.769 L 973.549 5.441 L 975.528 6.156 L 977.432 6.915 L 979.261 7.718 L 981.014 8.564 L 982.691 9.455 L 984.292 10.389 L 985.816 11.366 L 987.263 12.387 L 988.634 13.451 L 989.928 14.558 L 991.144 15.708 L 992.282 16.902 L 993.343 18.138 L 994.326 19.417 L 995.231 20.739 L 996.057 22.103 L 996.806 23.510 L 997.476 24.959 L 998.067 26.451 L 998.579 27.984 L 999.013 29.560 L 999.368 31.177 L 999.645 32.836 L 999.842 34.536 L 999.961 36.277 L 1000.000 38.060 L 999.961 39.884 L 999.842 41.749 L 999.645 43.654 L 999.368 45.600 L 999.013 47.586 L 998.579 49.613 L 998.067 51.679 L 997.476 53.786 L 996.806 55.932 L 996.057 58.117 L 995.231 60.342 L 994.326 62.606 L 993.343 64.908 L 992.282 67.249 L 991.144 69.629 L 989.928 72.047 L 988.634 74.503 L 987.263 76.996 L 985.816 79.528 L 984.292 82.096 L 982.691 84.702 L 981.014 87.345 L 979.261 90.024 L 977.432 92.740 L 975.528 95.492 L 973.549 98.279 L 971.495 101.103 L 969.367 103.962 L 967.164 106.856 L 964.888 109.785 L 962.539 112.748 L 960.116 115.747 L 957.621 118.779 L 955.053 121.845 L 952.414 124.944 L 949.703 128.077 L 946.921 131.243 L 944.068 134.442 L 941.146 137.673 L 938.153 140.937 L 935.092 144.232 L 931.962 147.559 L 928.763 150.917 L 925.497 154.307 L 922.164 157.726 L 918.764 161.177 L 915.298 164.657 L 911.766 168.167 L 908.170 171.707 L 904.508 175.276 L 900.783 178.874 L 896.995 182.500 L 893.144 186.154 L 889.231 189.837 L 885.257 193.546 L 881.221 197.284 L 877.126 201.048 L 872.971 204.838 L 868.757 208.655 L 864.484 212.497 L 860.155 216.366 L 855.768 220.259 L 851.325 224.177 L 846.827 228.120 L 842.274 232.087 L 837.666 236.077 L 833.006 240.091 L 828.293 244.128 L 823.528 248.188 L 818.712 252.271 L 813.846 256.375 L 808.930 260.501 L 803.965 264.648 L 798.952 268.816 L 793.893 273.005 L 788.786 277.214 L 783.634 281.442 L 778.438 285.690 L 773.197 289.957 L 767.913 294.243 L 762.587 298.547 L 757.220 302.869 L 751.812 307.208 L 746.364 311.564 L 740.877 315.938 L 735.352 320.327 L 729.790 324.733 L 724.192 329.154 L 718.558 333.590 L 712.890 338.041 L 707.188 342.507 L 701.453 346.986 L 695.687 351.479 L 689.890 355.985 L 684.062 360.504 L 678.206 365.036 L 672.321 369.579 L 666.410 374.134 L 660.472 378.700 L 654.508 383.277 L 648.521 387.865 L 642.510 392.462 L 636.476 397.069 L 630.421 401.685 L 624.345 406.309 L 618.249 410.942 L 612.135 415.583 L 606.004 420.232 L 599.855 424.887 L 593.691 429.549 L 587.512 434.218 L 581.319 438.892 L 575.113 443.572 L 568.895 448.257 L 562.667 452.946 L 556.428 457.639 L 550.181 462.337 L 543.926 467.037 L 537.663 471.741 L 531.395 476.447 L 525.122 481.155 L 518.845 485.865 L 512.565 490.576 L 506.283 495.288 L 500.000 500.000" fill="none" stroke="black" stroke-width="12.0" stroke-linecap="round" stroke-linejoin="round" vector-effect="non-scaling-stroke"/>
</svg>