<svg xmlns="http://www.w3.org/2000/svg" viewBox="-6.000 -6.000 1012.000 1012.000" preserveAspectRatio="xMidYMid meet">
    <path d="M 500.000 500.000 L 506.283 507.854 L 512.565 515.705 L 518.845 523.553 L 525.122 531.395 L 531.395 539.230 L 537.663 547.054 L 543.926 554.867 L 550.181 562.667 L 556.428 570.451 L 562.667 578.217 L 568.895 585.965 L 575.113 593.691 L 581.319 601.394 L 587.512 609.072 L 593.691 616.723 L 599.855 624.345 L 606.004 631.937 L 612.135 639.496 L 618.249 647.020 L 624.345 654.508 L 630.421 661.959 L 636.476 669.369 L 642.510 676.737 L 648.521 684.062 L 654.508 691.342 L 660.472 698.574 L 666.410 705.757 L 672.321 712.890 L 678.206 719.970 L 684.062 726.995 L 689.890 733.965 L 695.687 740.877 L 701.453 747.729 L 707.188 754.521 L 712.890 761.249 L 718.558 767.913 L 724.192 774.511 L 729.790 781.042 L 735.352 787.503 L 740.877 793.893 L 746.364 800.210 L 751.812 806.454 L 757.220 812.621 L 762.587 818.712 L 767.913 824.724 L 773.197 830.656 L 778.438 836.506 L 783.634 842.274 L 788.786 847.956 L 793.893 853.553 L 798.952 859.063 L 803.965 864.484 L 808.930 869.816 L 813.846 875.056 L 818.712 880.203 L 823.528 885.257 L 828.293 890.215 L 833.006 895.078 L 837.666 899.842 L 842.274 904.508 L 846.827 909.075 L 851.325 913.540 L 855.768 917.904 L 860.155 922.164 L 864.484 926.320 L 868.757 930.371 L 872.971 934.316 L 877.126 938.153 L 881.221 941.883 L 885.257 945.503 L 889.231 949.014 L 893.144 952.414 L 896.995 955.702 L 900.783 958.877 L 904.508 961.940 L 908.170 964.888 L 911.766 967.722 L 915.298 970.440 L 918.764 973.043 L 922.164 975.528 L 925.497 977.897 L 928.763 980.147 L 931.962 982.279 L 935.092 984.292 L 938.153 986.185 L 941.146 987.958 L 944.068 989.611 L 946.921 991.144 L 949.703 992.555 L 952.414 993.844 L 955.053 995.012 L 957.621 996.057 L 960.116 996.980 L 962.539 997.781 L 964.888 998.459 L 967.164 999.013 L 969.367 999.445 L 971.495 999.753 L 973.549 999.938 L 975.528 1000.000 L 977.432 999.938 L 979.261 999.753 L 981.014 999.445 L 982.691 999.013 L 984.292 998.459 L 985.816 997.781 L 987.263 996.980 L 988.634 996.057 L 989.928 995.012 L 991.144 993.844 L 992.282 992.555 L 993.343 991.144 L 994.326 989.611 L 995.231 987.958 L 996.057 986.185 L 996.806 984.292 L 997.476 982.279 L 998.067 980.147 L 998.579 977.897 L 999.013 975.528 L 999.368 973.043 L 999.645 970.440 L 999.842 967.722 L 999.961 964.888 L 1000.000 961.940 L 999.961 958.877 L 999.842 955.702 L 999.645 952.414 L 999.368 949.014 L 999.013 945.503 L 998.579 941.883 L 998.067 938.153 L 997.476 934.316 L 996.806 930.371 L 996.057 926.320 L 995.231 922.164 L 994.326 917.904 L 993.343 913.540 L 992.282 909.075 L 991.144 904.508 L 989.928 899.842 L 988.634 895.078 L 987.263 890.215 L 985.816 885.257 L 984.292 880.203 L 982.691 875.056 L 981.014 869.816 L 979.261 864.484 L 977.432 859.063 L 975.528 853.553 L 973.549 847.956 L 971.495 842.274 L 969.367 836.506 L 967.164 830.656 L 964.888 824.724 L 962.539 818.712 L 960.116 812.621 L 957.621 806.454 L 955.053 800.210 L 952.414 793.893 L 949.703 787.503 L 946.921 781.042 L 944.068 774.511 L 941.146 767.913 L 938.153 761.249 L 935.092 754.521 L 931.962 747.729 L 928.763 740.877 L 925.497 733.965 L 922.164 726.995 L 918.764 719.970 L 915.298 712.890 L 911.766 705.757 L 908.170 698.574 L 904.508 691.342 L 900.783 684.062 L 896.995 676.737 L 893.144 669.369 L 889.231 661.959 L 885.257 654.508 L 881.221 647.020 L 877.126 639.496 L 872.971 631.937 L 868.757 624.345 L 864.484 616.723 L 860.155 609.072 L 855.768 601.394 L 851.325 593.691 L 846.827 585.965 L 842.274 578.217 L 837.666 570.451 L 833.006 562.667 L 828.293 554.867 L 823.528 547.054 L 818.712 539.230 L 813.846 531.395 L 808.930 523.553 L 803.965 515.705 L 798.952 507.854 L 793.893 500.000 L 788.786 492.146 L 783.634 484.295 L 778.438 476.447 L 773.197 468.605 L 767.913 460.770 L 762.587 452.946 L 757.220 445.133 L 751.812 437.333 L 746.364 429.549 L 740.877 421.783 L 735.352 414.035 L 729.790 406.309 L 724.192 398.606 L 718.558 390.928 L 712.890 383.277 L 707.188 375.655 L 701.453 368.063 L 695.687 360.504 L 689.890 352.980 L 684.062 345.492 L 678.206 338.041 L 672.321 330.631 L 666.410 323.263 L 660.472 315.938 L 654.508 308.658 L 648.521 301.426 L 642.510 294.243 L 636.476 287.110 L 630.421 280.030 L 624.345 273.005 L 618.249 266.035 L 612.135 259.123 L 606.004 252.271 L 599.855 245.479 L 593.691 238.751 L 587.512 232.087 L 581.319 225.489 L 575.113 218.958 L 568.895 212.497 L 562.667 206.107 L 556.428 199.790 L 550.181 193.546 L 543.926 187.379 L 537.663 181.288 L 531.395 175.276 L 525.122 169.344 L 518.845 163.494 L 512.565 157.726 L 506.283 152.044 L 500.000 146.447 L 493.717 140.937 L 487.435 135.516 L 481.155 130.184 L 474.878 124.944 L 468.605 119.797 L 462.337 114.743 L 456.074 109.785 L 449.819 104.922 L 443.572 100.158 L 437.333 95.492 L 431.105 90.925 L 424.887 86.460 L 418.681 82.096 L 412.488 77.836 L 406.309 73.680 L 400.145 69.629 L 393.996 65.684 L 387.865 61.847 L 381.751 58.117 L 375.655 54.497 L 369.579 50.986 L 363.524 47.586 L 357.490 44.298 L 351.479 41.123 L 345.492 38.060 L 339.528 35.112 L 333.590 32.278 L 327.679 29.560 L 321.794 26.957 L 315.938 24.472 L 310.110 22.103 L 304.313 19.853 L 298.547 17.721 L 292.812 15.708 L 287.110 13.815 L 281.442 12.042 L 275.808 10.389 L 270.210 8.856 L 264.648 7.445 L 259.123 6.156 L 253.636 4.988 L 248.188 3.943 L 242.780 3.020 L 237.413 2.219 L 232.087 1.541 L 226.803 0.987 L 221.562 0.555 L 216.366 0.247 L 211.214 0.062 L 206.107 0.000 L 201.048 0.062 L 196.035 0.247 L 191.070 0.555 L 186.154 0.987 L 181.288 1.541 L 176.472 2.219 L 171.707 3.020 L 166.994 3.943 L 162.334 4.988 L 157.726 6.156 L 153.173 7.445 L 148.675 8.856 L 144.232 10.389 L 139.845 12.042 L 135.516 13.815 L 131.243 15.708 L 127.029 17.721 L 122.874 19.853 L 118.779 22.103 L 114.743 24.472 L 110.769 26.957 L 106.856 29.560 L 103.005 32.278 L 99.217 35.112 L 95.492 38.060 L 91.830 41.123 L 88.234 44.298 L 84.702 47.586 L 81.236 50.986 L 77.836 54.497 L 74.503 58.117 L 71.237 61.847 L 68.038 65.684 L 64.908 69.629 L 61.847 73.680 L 58.854 77.836 L 55.932 82.096 L 53.079 86.460 L 50.297 90.925 L 47.586 95.492 L 44.947 100.158 L 42.379 104.922 L 39.884 109.785 L 37.461 114.743 L 35.112 119.797 L 32.836 124.944 L 30.633 130.184 L 28.505 135.516 L 26.451 140.937 L 24.472 146.447 L 22.568 152.044 L 20.739 157.726 L 18.986 163.494 L 17.309 169.344 L 15.708 175.276 L 14.184 181.288 L 12.737 187.379 L 11.366 193.546 L 10.072 199.790 L 8.856 206.107 L 7.718 212.497 L 6.657 218.958 L 5.674 225.489 L 4.769 232.087 L 3.943 238.751 L 3.194 245.479 L 2.524 252.271 L 1.933 259.123 L 1.421 266.035 L 0.987 273.005 L 0.632 280.030 L 0.355 287.110 L 0.158 294.243 L 0.039 301.426 L 0.000 308.658 L 0.039 315.938 L 0.158 323.263 L 0.355 330.631 L 0.632 338.041 L 0.987 345.492 L 1.421 352.980 L 1.933 360.504 L 2.524 368.063 L 3.194 375.655 L 3.943 383.277 L 4.769 390.928 L 5.674 398.606 L 6.657 406.309 L 7.718 414.035 L 8.856 421.783 L 10.072 429.549 L 11.366 437.333 L 12.737 445.133 L 14.184 452.946 L 15.708 460.770 L 17.309 468.605 L 18.986 476.447 L 20.739 484.295 L 22.568 492.146 L 24.472 500.000 L 26.451 507.854 L 28.505 515.705 L 30.633 523.553 L 32.836 531.395 L 35.112 539.230 L 37.461 547.054 L 39.884 554.867 L 42.379 562.667 L 44.947 570.451 L 47.586 578.217 L 50.297 585.965 L 53.079 593.691 L 55.932 601.394 L 58.854 609.072 L 61.847 616.723 L 64.908 624.345 L 68.038 631.937 L 71.237 639.496 L 74.503 647.020 L 77.836 654.508 L 81.236 661.959 L 84.702 669.369 L 88.234 676.737 L 91.830 684.062 L 95.492 691.342 L 99.217 698.574 L 103.005 705.757 L 106.856 712.890 L 110.769 719.970 L 114.743 726.995 L 118.779 733.965 L 122.874 740.877 L 127.029 747.729 L 131.243 754.521 L 135.516 761.249 L 139.845 767.913 L 144.232 774.511 L 148.675 781.042 L 153.173 787.503 L 157.726 793.893 L 162.334 800.210 L 166.994 806.454 L 171.707 812.621 L 176.472 818.712 L 181.288 824.724 L 186.154 830.656 L 191.070 836.506 L 196.035 842.274 L 201.048 847.956 L 206.107 853.553 L 211.214 859.063 L 216.366 864.484 L 221.562 869.816 L 226.803 875.056 L 232.087 880.203 L 237.413 885.257 L 242.780 890.215 L 248.188 895.078 L 253.636 899.842 L 259.123 904.508 L 264.648 909.075 L 270.210 913.540 L 275.808 917.904 L 281.442 922.164 L 287.110 926.320 L 292.812 930.371 L 298.547 934.316 L 304.313 938.153 L 310.110 941.883 L 315.938 945.503 L 321.794 949.014 L 327.679 952.414 L 333.590 955.702 L 339.528 958.877 L 345.492 961.940 L 351.479 964.888 L 357.490 967.722 L 363.524 970.440 L 369.579 973.043 L 375.655 975.528 L 381.751 977.897 L 387.865 980.147 L 393.996 982.279 L 400.145 984.292 L 406.309 986.185 L 412.488 987.958 L 418.681 989.611 L 424.887 991.144 L 431.105 992.555 L 437.333 993.844 L 443.572 995.012 L 449.819 996.057 L 456.074 996.980 L 462.337 997.781 L 468.605 998.459 L 474.878 999.013 L 481.155 999.445 L 487.435 999.753 L 493.717 999.938 L 500.000 1000.000 L 506.283 999.938 L 512.565 999.753 L 518.845 999.445 L 525.122 999.013 L 531.395 998.459 L 537.663 997.781 L 543.926 996.980 L 550.181 996.057 L 556.428 995.012 L 562.667 993.844 L 568.895 992.555 L 575.113 991.144 L 581.319 989.611 L 587.512 987.958 L 593.691 986.185 L 599.855 984.292 L 606.004 982.279 L 612.135 980.147 L 618.249 977.897 L 624.345 975.528 L 630.421 973.043 L 636.476 970.440 L 642.510 967.722 L 648.521 964.888 L 654.508 961.940 L 660.472 958.877 L 666.410 955.702 L 672.321 952.414 L 678.206 949.014 L 684.062 945.503 L 689.890 941.883 L 695.687 938.153 L 701.453 934.316 L 707.188 930.371 L 712.890 926.320 L 718.558 922.164 L 724.192 917.904 L 729.790 913.540 L 735.352 909.075 L 740.877 904.508 L 746.364 899.842 L 751.812 895.078 L 757.220 890.215 L 762.587 885.257 L 767.913 880.203 L 773.197 875.056 L 778.438 869.816 L 783.634 864.484 L 788.786 859.063 L 793.893 853.553 L 798.952 847.956 L 803.965 842.274 L 808.930 836.506 L 813.846 830.656 L 818.712 824.724 L 823.528 818.712 L 828.293 812.621 L 833.006 806.454 L 837.666 800.210 L 842.274 793.893 L 846.827 787.503 L 851.325 781.042 L 855.768 774.511 L 860.155 767.913 L 864.484 761.249 L 868.757 754.521 L 872.971 747.729 L 877.126 740.877 L 881.221 733.965 L 885.257 726.995 L 889.231 719.970 L 893.144 712.890 L 896.995 705.757 L 900.783 698.574 L 904.508 691.342 L 908.170 684.062 L 911.766 676.737 L 915.298 669.369 L 918.764 661.959 L 922.164 654.508 L 925.497 647.020 L 928.763 639.496 L 931.962 631.937 L 935.092 624.345 L 938.153 616.723 L 941.146 609.072 L 944.068 601.394 L 946.921 593.691 L 949.703 585.965 L 952.414 578.217 L 955.053 570.451 L 957.621 562.667 L 960.116 554.867 L 962.539 547.054 L 964.888 539.230 L 967.164 531.395 L 969.367 523.553 L 971.495 515.705 L 973.549 507.854 L 975.528 500.000 L 977.432 492.146 L 979.261 484.295 L 981.014 476.447 L 982.691 468.605 L 984.292 460.770 L 985.816 452.946 L 987.263 445.133 L 988.634 437.333 L 989.928 429.549 L 991.144 421.783 L 992.282 414.035 L 993.343 406.309 L 994.326 398.606 L 995.231 390.928 L 996.057 383.277 L 996.806 375.655 L 997.476 368.063 L 998.067 360.504 L 998.579 352.980 L 999.013 345.492 L 999.368 338.041 L 999.645 330.631 L 999.842 323.263 L 999.961 315.938 L 1000.000 308.658 L 999.961 301.426 L 999.842 294.243 L 999.645 287.110 L 999.368 280.030 L 999.013 273.005 L 998.579 266.035 L 998.067 259.123 L 997.476 252.271 L 996.806 245.479 L 996.057 238.751 L 995.231 232.087 L 994.326 225.489 L 993.343 218.958 L 992.282 212.497 L 991.144 206.107 L 989.928 199.790 L 988.634 193.546 L 987.263 187.379 L 985.816 181.288 L 984.292 175.276 L 982.691 169.344 L 981.014 163.494 L 979.261 157.726 L 977.432 152.044 L 975.528 146.447 L 973.549 140.937 L 971.495 135.516 L 969.367 130.184 L 967.164 124.944 L 964.888 119.797 L 962.539 114.743 L 960.116 109.785 L 957.621 104.922 L 955.053 100.158 L 952.414 95.492 L 949.703 90.925 L 946.921 86.460 L 944.068 82.096 L 941.146 77.836 L 938.153 73.680 L 935.092 69.629 L 931.962 65.684 L 928.763 61.847 L 925.497 58.117 L 922.164 54.497 L 918.764 50.986 L 915.298 47.586 L 911.766 44.298 L 908.170 41.123 L 904.508 38.060 L 900.783 35.112 L 896.995 32.278 L 893.144 29.560 L 889.231 26.957 L 885.257 24.472 L 881.221 22.103 L 877.126 19.853 L 872.971 17.721 L 868.757 15.708 L 864.484 13.815 L 860.155 12.042 L 855.768 10.389 L 851.325 8.856 L 846.827 7.445 L 842.274 6.156 L 837.666 4.988 L 833.006 3.943 L 828.293 3.020 L 823.528 2.219 L 818.712 1.541 L 813.846 0.987 L 808.930 0.555 L 803.965 0.247 L 798.952 0.062 L 793.893 0.000 L 788.786 0.062 L 783.634 0.247 L 778.438 0.555 L 773.197 0.987 L 767.913 1.541 L 762.587 2.219 L 757.220 3.020 L 751.812 3.943 L 746.364 4.988 L 740.877 6.156 L 735.352 7.445 L 729.790 8.856 L 724.192 10.389 L 718.558 12.042 L 712.890 13.815 L 707.188 15.708 L 701.453 17.721 L 695.687 19.853 L 689.890 22.103 L 684.062 24.472 L 678.206 26.957 L 672.321 29.560 L 666.410 32.278 L 660.472 35.112 L 654.508 38.060 L 648.521 41.123 L 642.510 44.298 L 636.476 47.586 L 630.421 50.986 L 624.345 54.497 L 618.249 58.117 L 612.135 61.847 L 606.004 65.684 L 599.855 69.629 L 593.691 73.680 L 587.512 77.836 L 581.319 82.096 L 575.113 86.460 L 568.895 90.925 L 562.667 95.492 L 556.428 100.158 L 550.181 104.922 L 543.926 109.785 L 537.663 114.743 L 531.395 119.797 L 525.122 124.944 L 518.845 130.184 L 512.565 135.516 L 506.283 140.937 L 500.000 146.447 L 493.717 152.044 L 487.435 157.726 L 481.155 163.494 L 474.878 169.344 L 468.605 175.276 L 462.337 181.288 L 456.074 187.379 L 449.819 193.546 L 443.572 199.790 L 437.333 206.107 L 431.105 212.497 L 424.887 218.958 L 418.681 225.489 L 412.488 232.087 L 406.309 238.751 L 400.145 245.479 L 393.996 252.271 L 387.865 259.123 L 381.751 266.035 L 375.655 273.005 L 369.579 280.030 L 363.524 287.110 L 357.490 294.243 L 351.479 301.426 L 345.492 308.658 L 339.528 315.938 L 333.590 323.263 L 327.679 330.631 L 321.794 338.041 L 315.938 345.492 L 310.110 352.980 L 304.313 360.504 L 298.547 368.063 L 292.812 375.655 L 287.110 383.277 L 281.442 390.928 L 275.808 398.606 L 270.210 406.309 L 264.648 414.035 L 259.123 421.783 L 253.636 429.549 L 248.188 437.333 L 242.780 445.133 L 237.413 452.946 L 232.087 460.770 L 226.803 468.605 L 221.562 476.447 L 216.366 484.295 L 211.214 492.146 L 206.107 500.000 L 201.048 507.854 L 196.035 515.705 L 191.070 523.553 L 186.154 531.395 L 181.288 539.230 L 176.472 547.054 L 171.707 554.867 L 166.994 562.667 L 162.334 570.451 L 157.726 578.217 L 153.173 585.965 L 148.675 593.691 L 144.232 601.394 L 139.845 609.072 L 135.516 616.723 L 131.243 624.345 L 127.029 631.937 L 122.874 639.496 L 118.779 647.020 L 114.743 654.508 L 110.769 661.959 L 106.856 669.369 L 103.005 676.737 L 99.217 684.062 L 95.492 691.342 L 91.830 698.574 L 88.234 705.757 L 84.702 712.890 L 81.236 719.970 L 77.836 726.995 L 74.503 733.965 L 71.237 740.877 L 68.038 747.729 L 64.908 754.521 L 61.847 761.249 L 58.854 767.913 L 55.932 774.511 L 53.079 781.042 L 50.297 787.503 L 47.586 793.893 L 44.947 800.210 L 42.379 806.454 L 39.884 812.621 L 37.461 818.712 L 35.112 824.724 L 32.836 830.656 L 30.633 836.506 L 28.505 842.274 L 26.451 847.956 L 24.472 853.553 L 22.568 859.063 L 20.739 864.484 L 18.986 869.816 L 17.309 875.056 L 15.708 880.203 L 14.184 885.257 L 12.737 890.215 L 11.366 895.078 L 10.072 899.842 L 8.856 904.508 L 7.718 909.075 L 6.657 913.540 L 5.674 917.904 L 4.769 922.164 L 3.943 926.320 L 3.194 930.371 L 2.524 934.316 L 1.933 938.153 L 1.421 941.883 L 0.987 945.503 L 0.632 949.014 L 0.355 952.414 L 0.158 955.702 L 0.039 958.877 L 0.000 961.940 L 0.039 964.888 L 0.158 967.722 L 0.355 970.440 L 0.632 973.043 L 0.987 975.528 L 1.421 977.897 L 1.933 980.147 L 2.524 982.279 L 3.194 984.292 L 3.943 986.185 L 4.769 987.958 L 5.674 989.611 L 6.657 991.144 L 7.718 992.555 L 8.856 993.844 L 10.072 995.012 L 11.366 996.057 L 12.737 996.980 L 14.184 997.781 L 15.708 998.459 L 17.309 999.013 L 18.986 999.445 L 20.739 999.753 L 22.568 999.938 L 24.472 1000.000 L 26.451 999.938 L 28.505 999.753 L 30.633 999.445 L 32.836 999.013 L 35.112 998.459 L 37.461 997.781 L 39.884 996.980 L 42.379 996.057 L 44.947 995.012 L 47.586 993.844 L 50.297 992.555 L 53.079 991.144 L 55.932 989.611 L 58.854 987.958 L 61.847 986.185 L 64.908 984.292 L 68.038 982.279 L 71.237 980.147 L 74.503 977.897 L 77.836 975.528 L 81.236 973.043 L 84.702 970.440 L 88.234 967.722 L 91.830 964.888 L 95.492 961.940 L 99.217 958.877 L 103.005 955.702 L 106.856 952.414 L 110.769 949.014 L 114.743 945.503 L 118.779 941.883 L 122.874 938.153 L 127.029 934.316 L 131.243 930.371 L 135.516 926.320 L 139.845 922.164 L 144.232 917.904 L 148.675 913.540 L 153.173 909.075 L 157.726 904.508 L 162.334 899.842 L 166.994 895.078 L 171.707 890.215 L 176.472 885.257 L 181.288 880.203 L 186.154 875.056 L 191.070 869.816 L 196.035 864.484 L 201.048 859.063 L 206.107 853.553 L 211.214 847.956 L 216.366 842.274 L 221.562 836.506 L 226.803 830.656 L 232.087 824.724 L 237.413 818.712 L 242.780 812.621 L 248.188 806.454 L 253.636 800.210 L 259.123 793.893 L 264.648 787.503 L 270.210 781.042 L 275.808 774.511 L 281.442 767.913 L 287.110 761.249 L 292.812 754.521 L 298.547 747.729 L 304.313 740.877 L 310.110 733.965 L 315.938 726.995 L 321.794 719.970 L 327.679 712.890 L 333.590 705.757 L 339.528 698.574 L 345.492 691.342 L 351.479 684.062 L 357.490 676.737 L 363.524 669.369 L 369.579 661.959 L 375.655 654.508 L 381.751 647.020 L 387.865 639.496 L 393.996 631.937 L 400.145 624.345 L 406.309 616.723 L 412.488 609.072 L 418.681 601.394 L 424.887 593.691 L 431.105 585.965 L 437.333 578.217 L 443.572 570.451 L 449.819 562.667 L 456.074 554.867 L 462.337 547.054 L 468.605 539.230 L 474.878 531.395 L 481.155 523.553 L 487.435 515.705 L 493.717 507.854 L 500.000 500.000 L 506.283 492.146 L 512.565 484.295 L 518.845 476.447 L 525.122 468.605 L 531.395 460.770 L 537.663 452.946 L 543.926 445.133 L 550.181 437.333 L 556.428 429.549 L 562.667 421.783 L 568.895 414.035 L 575.113 406.309 L 581.319 398.606 L 587.512 390.928 L 593.691 383.277 L 599.855 375.655 L 606.004 368.063 L 612.135 360.504 L 618.249 352.980 L 624.345 345.492 L 630.421 338.041 L 636.476 330.631 L 642.510 323.263 L 648.521 315.938 L 654.508 308.658 L 660.472 301.426 L 666.410 294.243 L 672.321 287.110 L 678.206 280.030 L 684.062 273.005 L 689.890 266.035 L 695.687 259.123 L 701.453 252.271 L 707.188 245.479 L 712.890 238.751 L 718.558 232.087 L 724.192 225.489 L 729.790 218.958 L 735.352 212.497 L 740.877 206.107 L 746.364 199.790 L 751.812 193.546 L 757.220 187.379 L 762.587 181.288 L 767.913 175.276 L 773.197 169.344 L 778.438 163.494 L 783.634 157.726 L 788.786 152.044 L 793.893 146.447 L 798.952 140.937 L 803.965 135.516 L 808.930 130.184 L 813.846 124.944 L 818.712 119.797 L 823.528 114.743 L 828.293 109.785 L 833.006 104.922 L 837.666 100.158 L 842.274 95.492 L 846.827 90.925 L 851.325 86.460 L 855.768 82.096 L 860.155 77.836 L 864.484 73.680 L 868.757 69.629 L 872.971 65.684 L 877.126 61.847 L 881.221 58.117 L 885.257 54.497 L 889.231 50.986 L 893.144 47.586 L 896.995 44.298 L 900.783 41.123 L 904.508 38.060 L 908.170 35.112 L 911.766 32.278 L 915.298 29.560 L 918.764 26.957 L 922.164 24.472 L 925.497 22.103 L 928.763 19.853 L 931.962 17.721 L 935.092 15.708 L 938.153 13.815 L 941.146 12.042 L 944.068 10.389 L 946.921 8.856 L 949.703 7.445 L 952.414 6.156 L 955.053 4.988 L 957.621 3.943 L 960.116 3.020 L 962.539 2.219 L 964.888 1.541 L 967.164 0.987 L 969.367 0.555 L 971.495 0.247 L 973.549 0.062 L 975.528 0.000 L 977.432 0.062 L 979.261 0.247 L 981.014 0.555 L 982.691 0.987 L 984.292 1.541 L 985.816 2.219 L 987.263 3.020 L 988.634 3.943 L 989.928 4.988 L 991.144 6.156 L 992.282 7.445 L 993.343 8.856 L 994.326 10.389 L 995.231 12.042 L 996.057 13.815 L 996.806 15.708 L 997.476 17.721 L 998.067 19.853 L 998.579 22.103 L 999.013 24.472 L 999.368 26.957 L 999.645 29.560 L 999.842 32.278 L 999.961 35.112 L 1000.000 38.060 L 999.961 41.123 L 999.842 44.298 L 999.645 47.586 L 999.368 50.986 L 999.013 54.497 L 998.579 58.117 L 998.067 61.847 L 997.476 65.684 L 996.806 69.629 L 996.057 73.680 L 995.231 77.836 L 994.326 82.096 L 993.343 86.460 L 992.282 90.925 L 991.144 95.492 L 989.928 100.158 L 988.634 104.922 L 987.263 109.785 L 985.816 114.743 L 984.292 119.797 L 982.691 124.944 L 981.014 130.184 L 979.261 135.516 L 977.432 140.937 L 975.528 146.447 L 973.549 152.044 L 971.495 157.726 L 969.367 163.494 L 967.164 169.344 L 964.888 175.276 L 962.539 181.288 L 960.116 187.379 L 957.621 193.546 L 955.053 199.790 L 952.414 206.107 L 949.703 212.497 L 946.921 218.958 L 944.068 225.489 L 941.146 232.087 L 938.153 238.751 L 935.092 245.479 L 931.962 252.271 L 928.763 259.123 L 925.497 266.035 L 922.164 273.005 L 918.764 280.030 L 915.298 287.110 L 911.766 294.243 L 908.170 301.426 L 904.508 308.658 L 900.783 315.938 L 896.995 323.263 L 893.144 330.631 L 889.231 338.041 L 885.257 345.492 L 881.221 352.980 L 877.126 360.504 L 872.971 368.063 L 868.757 375.655 L 864.484 383.277 L 860.155 390.928 L 855.768 398.606 L 851.325 406.309 L 846.827 414.035 L 842.274 421.783 L 837.666 429.549 L 833.006 437.333 L 828.293 445.133 L 823.528 452.946 L 818.712 460.770 L 813.846 468.605 L 808.930 476.447 L 803.965 484.295 L 798.952 492.146 L 793.893 500.000 L 788.786 507.854 L 783.634 515.705 L 778.438 523.553 L 773.197 531.395 L 767.913 539.230 L 762.587 547.054 L 757.220 554.867 L 751.812 562.667 L 746.364 570.451 L 740.877 578.217 L 735.352 585.965 L 729.790 593.691 L 724.192 601.394 L 718.558 609.072 L 712.890 616.723 L 707.188 624.345 L 701.453 631.937 L 695.687 639.496 L 689.890 647.020 L 684.062 654.508 L 678.206 661.959 L 672.321 669.369 L 666.410 676.737 L 660.472 684.062 L 654.508 691.342 L 648.521 698.574 L 642.510 705.757 L 636.476 712.890 L 630.421 719.970 L 624.345 726.995 L 618.249 733.965 L 612.135 740.877 L 606.004 747.729 L 599.855 754.521 L 593.691 761.249 L 587.512 767.913 L 581.319 774.511 L 575.113 781.042 L 568.895 787.503 L 562.667 793.893 L 556.428 800.210 L 550.181 806.454 L 543.926 812.621 L 537.663 818.712 L 531.395 824.724 L 525.122 830.656 L 518.845 836.506 L 512.565 842.274 L 506.283 847.956 L 500.000 853.553 L 493.717 859.063 L 487.435 864.484 L 481.155 869.816 L 474.878 875.056 L 468.605 880.203 L 462.337 885.257 L 456.074 890.215 L 449.819 895.078 L 443.572 899.842 L 437.333 904.508 L 431.105 909.075 L 424.887 913.540 L 418.681 917.904 L 412.488 922.164 L 406.309 926.320 L 400.145 930.371 L 393.996 934.316 L 387.865 938.153 L 381.751 941.883 L 375.655 945.503 L 369.579 949.014 L 363.524 952.414 L 357.490 955.702 L 351.479 958.877 L 345.492 961.940 L 339.528 964.888 L 333.590 967.722 L 327.679 970.440 L 321.794 973.043 L 315.938 975.528 L 310.110 977.897 L 304.313 980.147 L 298.547 982.279 L 292.812 984.292 L 287.110 986.185 L 281.442 987.958 L 275.808 989.611 L 270.210 991.144 L 264.648 992.555 L 259.123 993.844 L 253.636 995.012 L 248.188 996.057 L 242.780 996.980 L 237.413 997.781 L 232.087 998.459 L 226.803 999.013 L 221.562 999.445 L 216.366 999.753 L 211.214 999.938 L 206.107 1000.000 L 201.048 999.938 L 196.035 999.753 L 191.070 999.445 L 186.154 999.013 L 181.288 998.459 L 176.472 997.781 L 171.707 996.980 L 166.994 996.057 L 162.334 995.012 L 157.726 993.844 L 153.173 992.555 L 148.675 991.144 L 144.232 989.611 L 139.845 987.958 L 135.516 986.185 L 131.243 984.292 L 127.029 982.279 L 122.874 980.147 L 118.779 977.897 L 114.743 975.528 L 110.769 973.043 L 106.856 970.440 L 103.005 967.722 L 99.217 964.888 L 95.492 961.940 L 91.830 958.877 L 88.234 955.702 L 84.702 952.414 L 81.236 949.014 L 77.836 945.503 L 74.503 941.883 L 71.237 938.153 L 68.038 934.316 L 64.908 930.371 L 61.847 926.320 L 58.854 922.164 L 55.932 917.904 L 53.079 913.540 L 50.297 909.075 L 47.586 904.508 L 44.947 899.842 L 42.379 895.078 L 39.884 890.215 L 37.461 885.257 L 35.112 880.203 L 32.836 875.056 L 30.633 869.816 L 28.505 864.484 L 26.451 859.063 L 24.472 853.553 L 22.568 847.956 L 20.739 842.274 L 18.986 836.506 L 17.309 830.656 L 15.708 824.724 L 14.184 818.712 L 12.737 812.621 L 11.366 806.454 L 10.072 800.210 L 8.856 793.893 L 7.718 787.503 L 6.657 781.042 L 5.674 774.511 L 4.769 767.913 L 3.943 761.249 L 3.194 754.521 L 2.524 747.729 L 1.933 740.877 L 1.421 733.965 L 0.987 726.995 L 0.632 719.970 L 0.355 712.890 L 0.158 705.757 L 0.039 698.574 L 0.000 691.342 L 0.039 684.062 L 0.158 676.737 L 0.355 669.369 L 0.632 661.959 L 0.987 654.508 L 1.421 647.020 L 1.933 639.496 L 2.524 631.937 L 3.194 624.345 L 3.943 616.723 L 4.769 609.072 L 5.674 601.394 L 6.657 593.691 L 7.718 585.965 L 8.856 578.217 L 10.072 570.451 L 11.366 562.667 L 12.737 554.867 L 14.184 547.054 L 15.708 539.230 L 17.309 531.395 L 18.986 523.553 L 20.739 515.705 L 22.568 507.854 L 24.472 500.000 L 26.451 492.146 L 28.505 484.295 L 30.633 476.447 L 32.836 468.605 L 35.112 460.770 L 37.461 452.946 L 39.884 445.133 L 42.379 437.333 L 44.947 429.549 L 47.586 421.783 L 50.297 414.035 L 53.079 406.309 L 55.932 398.606 L 58.854 390.928 L 61.847 383.277 L 64.908 375.655 L 68.038 368.063 L 71.237 360.504 L 74.503 352.980 L 77.836 345.492 L 81.236 338.041 L 84.702 330.631 L 88.234 323.263 L 91.830 315.938 L 95.492 308.658 L 99.217 301.426 L 103.005 294.243 L 106.856 287.110 L 110.769 280.030 L 114.743 273.005 L 118.779 266.035 L 122.874 259.123 L 127.029 252.271 L 131.243 245.479 L 135.516 238.751 L 139.845 232.087 L 144.232 225.489 L 148.675 218.958 L 153.173 212.497 L 157.726 206.107 L 162.334 199.790 L 166.994 193.546 L 171.707 187.379 L 176.472 181.288 L 181.288 175.276 L 186.154 169.344 L 191.070 163.494 L 196.035 157.726 L 201.048 152.044 L 206.107 146.447 L 211.214 140.937 L 216.366 135.516 L 221.562 130.184 L 226.803 124.944 L 232.087 119.797 L 237.413 114.743 L 242.780 109.785 L 248.188 104.922 L 253.636 100.158 L 259.123 95.492 L 264.648 90.925 L 270.210 86.460 L 275.808 82.096 L 281.442 77.836 L 287.110 73.680 L 292.812 69.629 L 298.547 65.684 L 304.313 61.847 L 310.110 58.117 L 315.938 54.497 L 321.794 50.986 L 327.679 47.586 L 333.590 44.298 L 339.528 41.123 L 345.492 38.060 L 351.479 35.112 L 357.490 32.278 L 363.524 29.560 L 369.579 26.957 L 375.655 24.472 L 381.751 22.103 L 387.865 19.853 L 393.996 17.721 L 400.145 15.708 L 406.309 13.815 L 412.488 12.042 L 418.681 10.389 L 424.887 8.856 L 431.105 7.445 L 437.333 6.156 L 443.572 4.988 L 449.819 3.943 L 456.074 3.020 L 462.337 2.219 L 468.605 1.541 L 474.878 0.987 L 481.155 0.555 L 487.435 0.247 L 493.717 0.062 L 500.000 0.000 L 506.283 0.062 L 512.565 0.247 L 518.845 0.555 L 525.122 0.987 L 531.395 1.541 L 537.663 2.219 L 543.926 3.020 L 550.181 3.943 L 556.428 4.988 L 562.667 6.156 L 568.895 7.445 L 575.113 8.856 L 581.319 10.389 L 587.512 12.042 L 593.691 13.815 L 599.855 15.708 L 606.004 17.721 L 612.135 19.853 L 618.249 22.103 L 624.345 24.472 L 630.421 26.957 L 636.476 29.560 L 642.510 32.278 L 648.521 35.112 L 654.508 38.060 L 660.472 41.123 L 666.410 44.298 L 672.321 47.586 L 678.206 50.986 L 684.062 54.497 L 689.890 58.117 L 695.687 61.847 L 701.453 65.684 L 707.188 69.629 L 712.890 73.680 L 718.558 77.836 L 724.192 82.096 L 729.790 86.460 L 735.352 90.925 L 740.877 95.492 L 746.364 100.158 L 751.812 104.922 L 757.220 109.785 L 762.587 114.743 L 767.913 119.797 L 773.197 124.944 L 778.438 130.184 L 783.634 135.516 L 788.786 140.937 L 793.893 146.447 L 798.952 152.044 L 803.965 157.726 L 808.930 163.494 L 813.846 169.344 L 818.712 175.276 L 823.528 181.288 L 828.293 187.379 L 833.006 193.546 L 837.666 199.790 L 842.274 206.107 L 846.827 212.497 L 851.325 218.958 L 855.768 225.489 L 860.155 232.087 L 864.484 238.751 L 868.757 245.479 L 872.971 252.271 L 877.126 259.123 L 881.221 266.035 L 885.257 273.005 L 889.231 280.030 L 893.144 287.110 L 896.995 294.243 L 900.783 301.426 L 904.508 308.658 L 908.170 315.938 L 911.766 323.263 L 915.298 330.631 L 918.764 338.041 L 922.164 345.492 L 925.497 352.980 L 928.763 360.504 L 931.962 368.063 L 935.092 375.655 L 938.153 383.277 L 941.146 390.928 L 944.068 398.606 L 946.921 406.309 L 949.703 414.035 L 952.414 421.783 L 955.053 429.549 L 957.621 437.333 L 960.116 445.133 L 962.539 452.946 L 964.888 460.770 L 967.164 468.605 L 969.367 476.447 L 971.495 484.295 L 973.549 492.146 L 975.528 500.000 L 977.432 507.854 L 979.261 515.705 L 981.014 523.553 L 982.691 531.395 L 984.292 539.230 L 985.816 547.054 L 987.263 554.867 L 988.634 562.667 L 989.928 570.451 L 991.144 578.217 L 992.282 585.965 L 993.343 593.691 L 994.326 601.394 L 995.231 609.072 L 996.057 616.723 L 996.806 624.345 L 997.476 631.937 L 998.067 639.496 L 998.579 647.020 L 999.013 654.508 L 999.368 661.959 L 999.645 669.369 L 999.842 676.737 L 999.961 684.062 L 1000.000 691.342 L 999.961 698.574 L 999.842 705.757 L 999.645 712.890 L 999.368 719.970 L 999.013 726.995 L 998.579 733.965 L 998.067 740.877 L 997.476 747.729 L 996.806 754.521 L 996.057 761.249 L 995.231 767.913 L 994.326 774.511 L 993.343 781.042 L 992.282 787.503 L 991.144 793.893 L 989.928 800.210 L 988.634 806.454 L 987.263 812.621 L 985.816 818.712 L 984.292 824.724 L 982.691 830.656 L 981.014 836.506 L 979.261 842.274 L 977.432 847.956 L 975.528 853.553 L 973.549 859.063 L 971.495 864.484 L 969.367 869.816 L 967.164 875.056 L 964.888 880.203 L 962.539 885.257 L 960.116 890.215 L 957.621 895.078 L 955.053 899.842 L 952.414 904.508 L 949.703 909.075 L 946.921 913.540 L 944.068 917.904 L 941.146 922.164 L 938.153 926.320 L 935.092 930.371 L 931.962 934.316 L 928.763 938.153 L 925.497 941.883 L 922.164 945.503 L 918.764 949.014 L 915.298 952.414 L 911.766 955.702 L 908.170 958.877 L 904.508 961.940 L 900.783 964.888 L 896.995 967.722 L 893.144 970.440 L 889.231 973.043 L 885.257 975.528 L 881.221 977.897 L 877.126 980.147 L 872.971 982.279 L 868.757 984.292 L 864.484 986.185 L 860.155 987.958 L 855.768 989.611 L 851.325 991.144 L 846.827 992.555 L 842.274 993.844 L 837.666 995.012 L 833.006 996.057 L 828.293 996.980 L 823.528 997.781 L 818.712 998.459 L 813.846 999.013 L 808.930 999.445 L 803.965 999.753 L 798.952 999.938 L 793.893 1000.000 L 788.786 999.938 L 783.634 999.753 L 778.438 999.445 L 773.197 999.013 L 767.913 998.459 L 762.587 997.781 L 757.220 996.980 L 751.812 996.057 L 746.364 995.012 L 740.877 993.844 L 735.352 992.555 L 729.790 991.144 L 724.192 989.611 L 718.558 987.958 L 712.890 986.185 L 707.188 984.292 L 701.453 982.279 L 695.687 980.147 L 689.890 977.897 L 684.062 975.528 L 678.206 973.043 L 672.321 970.440 L 666.410 967.722 L 660.472 964.888 L 654.508 961.940 L 648.521 958.877 L 642.510 955.702 L 636.476 952.414 L 630.421 949.014 L 624.345 945.503 L 618.249 941.883 L 612.135 938.153 L 606.004 934.316 L 599.855 930.371 L 593.691 926.320 L 587.512 922.164 L 581.319 917.904 L 575.113 913.540 L 568.895 909.075 L 562.667 904.508 L 556.428 899.842 L 550.181 895.078 L 543.926 890.215 L 537.663 885.257 L 531.395 880.203 L 525.122 875.056 L 518.845 869.816 L 512.565 864.484 L 506.283 859.063 L 500.000 853.553 L 493.717 847.956 L 487.435 842.274 L 481.155 836.506 L 474.878 830.656 L 468.605 824.724 L 462.337 818.712 L 456.074 812.621 L 449.819 806.454 L 443.572 800.210 L 437.333 793.893 L 431.105 787.503 L 424.887 781.042 L 418.681 774.511 L 412.488 767.913 L 406.309 761.249 L 400.145 754.521 L 393.996 747.729 L 387.865 740.877 L 381.751 733.965 L 375.655 726.995 L 369.579 719.970 L 363.524 712.890 L 357.490 705.757 L 351.479 698.574 L 345.492 691.342 L 339.528 684.062 L 333.590 676.737 L 327.679 669.369 L 321.794 661.959 L 315.938 654.508 L 310.110 647.020 L 304.313 639.496 L 298.547 631.937 L 292.812 624.345 L 287.110 616.723 L 281.442 609.072 L 275.808 601.394 L 270.210 593.691 L 264.648 585.965 L 259.123 578.217 L 253.636 570.451 L 248.188 562.667 L 242.780 554.867 L 237.413 547.054 L 232.087 539.230 L 226.803 531.395 L 221.562 523.553 L 216.366 515.705 L 211.214 507.854 L 206.107 500.000 L 201.048 492.146 L 196.035 484.295 L 191.070 476.447 L 186.154 468.605 L 181.288 460.770 L 176.472 452.946 L 171.707 445.133 L 166.994 437.333 L 162.334 429.549 L 157.726 421.783 L 153.173 414.035 L 148.675 406.309 L 144.232 398.606 L 139.845 390.928 L 135.516 383.277 L 131.243 375.655 L 127.029 368.063 L 122.874 360.504 L 118.779 352.980 L 114.743 345.492 L 110.769 338.041 L 106.856 330.631 L 103.005 323.263 L 99.217 315.938 L 95.492 308.658 L 91.830 301.426 L 88.234 294.243 L 84.702 287.110 L 81.236 280.030 L 77.836 273.005 L 74.503 266.035 L 71.237 259.123 L 68.038 252.271 L 64.908 245.479 L 61.847 238.751 L 58.854 232.087 L 55.932 225.489 L 53.079 218.958 L 50.297 212.497 L 47.586 206.107 L 44.947 199.790 L 42.379 193.546 L 39.884 187.379 L 37.461 181.288 L 35.112 175.276 L 32.836 169.344 L 30.633 163.494 L 28.505 157.726 L 26.451 152.044 L 24.472 146.447 L 22.568 140.937 L 20.739 135.516 L 18.986 130.184 L 17.309 124.944 L 15.708 119.797 L 14.184 114.743 L 12.737 109.785 L 11.366 104.922 L 10.072 100.158 L 8.856 95.492 L 7.718 90.925 L 6.657 86.460 L 5.674 82.096 L 4.769 77.836 L 3.943 73.680 L 3.194 69.629 L 2.524 65.684 L 1.933 61.847 L 1.421 58.117 L 0.987 54.497 L 0.632 50.986 L 0.355 47.586 L 0.158 44.298 L 0.039 41.123 L 0.000 38.060 L 0.039 35.112 L 0.158 32.278 L 0.355 29.560 L 0.632 26.957 L 0.987 24.472 L 1.421 22.103 L 1.933 19.853 L 2.524 17.721 L 3.194 15.708 L 3.943 13.815 L 4.769 12.042 L 5.674 10.389 L 6.657 8.856 L 7.718 7.445 L 8.856 6.156 L 10.072 4.988 L 11.366 3.943 L 12.737 3.020 L 14.184 2.219 L 15.708 1.541 L 17.309 0.987 L 18.986 0.555 L 20.739 0.247 L 22.568 0.062 L 24.472 0.000 L 26.451 0.062 L 28.505 0.247 L 30.633 0.555 L 32.836 0.987 L 35.112 1.541 L 37.461 2.219 L 39.884 3.020 L 42.379 3.943 L 44.947 4.988 L 47.586 6.156 L 50.297 7.445 L 53.079 8.856 L 55.932 10.389 L 58.854 12.042 L 61.847 13.815 L 64.908 15.708 L 68.038 17.721 L 71.237 19.853 L 74.503 22.103 L 77.836 24.472 L 81.236 26.957 L 84.702 29.560 L 88.234 32.278 L 91.830 35.112 L 95.492 38.060 L 99.217 41.123 L 103.005 44.298 L 106.856 47.586 L 110.769 50.986 L 114.743 54.497 L 118.779 58.117 L 122.874 61.847 L 127.029 65.684 L 131.243 69.629 L 135.516 73.680 L 139.845 77.836 L 144.232 82.096 L 148.675 86.460 L 153.173 90.925 L 157.726 95.492 L 162.334 100.158 L 166.994 104.922 L 171.707 109.785 L 176.472 114.743 L 181.288 119.797 L 186.154 124.944 L 191.070 130.184 L 196.035 135.516 L 201.048 140.937 L 206.107 146.447 L 211.214 152.044 L 216.366 157.726 L 221.562 163.494 L 226.803 169.344 L 232.087 175.276 L 237.413 181.288 L 242.780 187.379 L 248.188 193.546 L 253.636 199.790 L 259.123 206.107 L 264.648 212.497 L 270.210 218.958 L 275.808 225.489 L 281.442 232.087 L 287.110 238.751 L 292.812 245.479 L 298.547 252.271 L 304.313 259.123 L 310.110 266.035 L 315.938 273.005 L 321.794 280.030 L 327.679 287.110 L 333.590 294.243 L 339.528 301.426 L 345.492 308.658 L 351.479 315.938 L 357.490 323.263 L 363.524 330.631 L 369.579 338.041 L 375.655 345.492 L 381.751 352.980 L 387.865 360.504 L 393.996 368.063 L 400.145 375.655 L 406.309 383.277 L 412.488 390.928 L 418.681 398.606 L 424.887 406.309 L 431.105 414.035 L 437.333 421.783 L 443.572 429.549 L 449.819 437.333 L 456.074 445.133 L 462.337 452.946 L 468.605 460.770 L 474.878 468.605 L 481.155 476.447 L 487.435 484.295 L 493.717 492.146 L 500.000 500.000" fill="none" stroke="black" stroke-width="12.0" stroke-linecap="round" stroke-linejoin="round" vector-effect="non-scaling-stroke"/>
</svg>